G04 #@! TF.GenerationSoftware,KiCad,Pcbnew,5.0.1*
G04 #@! TF.CreationDate,2019-04-04T21:15:17+02:00*
G04 #@! TF.ProjectId,psu,7073752E6B696361645F706362000000,0.2*
G04 #@! TF.SameCoordinates,Original*
G04 #@! TF.FileFunction,Copper,L2,Bot,Signal*
G04 #@! TF.FilePolarity,Positive*
%FSLAX46Y46*%
G04 Gerber Fmt 4.6, Leading zero omitted, Abs format (unit mm)*
G04 Created by KiCad (PCBNEW 5.0.1) date Čt 4. dubna 2019, 21:15:17 CEST*
%MOMM*%
%LPD*%
G01*
G04 APERTURE LIST*
G04 #@! TA.AperFunction,ComponentPad*
%ADD10C,3.000000*%
G04 #@! TD*
G04 #@! TA.AperFunction,Conductor*
%ADD11C,0.100000*%
G04 #@! TD*
G04 #@! TA.AperFunction,ComponentPad*
%ADD12C,1.800000*%
G04 #@! TD*
G04 #@! TA.AperFunction,ComponentPad*
%ADD13O,1.800000X3.600000*%
G04 #@! TD*
G04 #@! TA.AperFunction,ComponentPad*
%ADD14C,1.417157*%
G04 #@! TD*
G04 #@! TA.AperFunction,ComponentPad*
%ADD15O,1.700000X2.200000*%
G04 #@! TD*
G04 #@! TA.AperFunction,ComponentPad*
%ADD16R,1.727200X1.727200*%
G04 #@! TD*
G04 #@! TA.AperFunction,ComponentPad*
%ADD17O,1.727200X1.727200*%
G04 #@! TD*
G04 #@! TA.AperFunction,ComponentPad*
%ADD18R,1.700000X1.700000*%
G04 #@! TD*
G04 #@! TA.AperFunction,ComponentPad*
%ADD19O,1.700000X1.700000*%
G04 #@! TD*
G04 #@! TA.AperFunction,ComponentPad*
%ADD20O,3.600000X1.800000*%
G04 #@! TD*
G04 #@! TA.AperFunction,Conductor*
%ADD21R,4.500000X2.950000*%
G04 #@! TD*
G04 #@! TA.AperFunction,ViaPad*
%ADD22C,0.600000*%
G04 #@! TD*
G04 #@! TA.AperFunction,ViaPad*
%ADD23C,0.800000*%
G04 #@! TD*
G04 #@! TA.AperFunction,Conductor*
%ADD24C,0.600000*%
G04 #@! TD*
G04 #@! TA.AperFunction,Conductor*
%ADD25C,2.500000*%
G04 #@! TD*
G04 #@! TA.AperFunction,Conductor*
%ADD26C,0.400000*%
G04 #@! TD*
G04 APERTURE END LIST*
D10*
G04 #@! TO.P,F1,1*
G04 #@! TO.N,Net-(F1-Pad1)*
X127460000Y-73240000D03*
G04 #@! TO.P,F1,2*
G04 #@! TO.N,/BAT2*
X149960000Y-73240000D03*
G04 #@! TD*
D11*
G04 #@! TO.N,GND*
G04 #@! TO.C,J1*
G36*
X139004504Y-62551204D02*
X139028773Y-62554804D01*
X139052571Y-62560765D01*
X139075671Y-62569030D01*
X139097849Y-62579520D01*
X139118893Y-62592133D01*
X139138598Y-62606747D01*
X139156777Y-62623223D01*
X139173253Y-62641402D01*
X139187867Y-62661107D01*
X139200480Y-62682151D01*
X139210970Y-62704329D01*
X139219235Y-62727429D01*
X139225196Y-62751227D01*
X139228796Y-62775496D01*
X139230000Y-62800000D01*
X139230000Y-65900000D01*
X139228796Y-65924504D01*
X139225196Y-65948773D01*
X139219235Y-65972571D01*
X139210970Y-65995671D01*
X139200480Y-66017849D01*
X139187867Y-66038893D01*
X139173253Y-66058598D01*
X139156777Y-66076777D01*
X139138598Y-66093253D01*
X139118893Y-66107867D01*
X139097849Y-66120480D01*
X139075671Y-66130970D01*
X139052571Y-66139235D01*
X139028773Y-66145196D01*
X139004504Y-66148796D01*
X138980000Y-66150000D01*
X137680000Y-66150000D01*
X137655496Y-66148796D01*
X137631227Y-66145196D01*
X137607429Y-66139235D01*
X137584329Y-66130970D01*
X137562151Y-66120480D01*
X137541107Y-66107867D01*
X137521402Y-66093253D01*
X137503223Y-66076777D01*
X137486747Y-66058598D01*
X137472133Y-66038893D01*
X137459520Y-66017849D01*
X137449030Y-65995671D01*
X137440765Y-65972571D01*
X137434804Y-65948773D01*
X137431204Y-65924504D01*
X137430000Y-65900000D01*
X137430000Y-62800000D01*
X137431204Y-62775496D01*
X137434804Y-62751227D01*
X137440765Y-62727429D01*
X137449030Y-62704329D01*
X137459520Y-62682151D01*
X137472133Y-62661107D01*
X137486747Y-62641402D01*
X137503223Y-62623223D01*
X137521402Y-62606747D01*
X137541107Y-62592133D01*
X137562151Y-62579520D01*
X137584329Y-62569030D01*
X137607429Y-62560765D01*
X137631227Y-62554804D01*
X137655496Y-62551204D01*
X137680000Y-62550000D01*
X138980000Y-62550000D01*
X139004504Y-62551204D01*
X139004504Y-62551204D01*
G37*
D12*
G04 #@! TD*
G04 #@! TO.P,J1,1*
G04 #@! TO.N,GND*
X138330000Y-64350000D03*
D13*
G04 #@! TO.P,J1,2*
G04 #@! TO.N,/BAT1*
X141830000Y-64350000D03*
G04 #@! TO.P,J1,3*
X145330000Y-64350000D03*
G04 #@! TO.P,J1,4*
G04 #@! TO.N,/BAT2*
X148830000Y-64350000D03*
G04 #@! TD*
D14*
G04 #@! TO.P,J2,1*
G04 #@! TO.N,GND*
X181800000Y-62400000D03*
D11*
G04 #@! TD*
G04 #@! TO.N,GND*
G04 #@! TO.C,J2*
G36*
X180954804Y-61501227D02*
X180969030Y-61454329D01*
X180992133Y-61411107D01*
X181023223Y-61373223D01*
X181061107Y-61342133D01*
X181104329Y-61319030D01*
X181151227Y-61304804D01*
X181200000Y-61300000D01*
X182400000Y-61300000D01*
X182448773Y-61304804D01*
X182495671Y-61319030D01*
X182538893Y-61342133D01*
X182576777Y-61373223D01*
X182607867Y-61411107D01*
X182630970Y-61454329D01*
X182645196Y-61501227D01*
X182650000Y-61550000D01*
X182650000Y-62850000D01*
X182645196Y-62898773D01*
X182630970Y-62945671D01*
X182607867Y-62988893D01*
X182576777Y-63026777D01*
X182176777Y-63426777D01*
X182138893Y-63457867D01*
X182095671Y-63480970D01*
X182048773Y-63495196D01*
X182000000Y-63500000D01*
X181200000Y-63500000D01*
X181151227Y-63495196D01*
X181104329Y-63480970D01*
X181061107Y-63457867D01*
X181023223Y-63426777D01*
X180992133Y-63388893D01*
X180969030Y-63345671D01*
X180954804Y-63298773D01*
X180950000Y-63250000D01*
X180950000Y-61550000D01*
X180954804Y-61501227D01*
X180954804Y-61501227D01*
G37*
D15*
G04 #@! TO.P,J2,2*
G04 #@! TO.N,/CAN_L*
X184300000Y-62400000D03*
G04 #@! TO.P,J2,3*
G04 #@! TO.N,/CAN_H*
X186800000Y-62400000D03*
G04 #@! TD*
D16*
G04 #@! TO.P,J3,1*
G04 #@! TO.N,/SWDIO*
X202350000Y-82925000D03*
D17*
G04 #@! TO.P,J3,2*
G04 #@! TO.N,/SWCLK*
X199810000Y-82925000D03*
G04 #@! TO.P,J3,3*
G04 #@! TO.N,/CAN_L*
X202350000Y-80385000D03*
G04 #@! TO.P,J3,4*
G04 #@! TO.N,/CAN_H*
X199810000Y-80385000D03*
G04 #@! TO.P,J3,5*
G04 #@! TO.N,GND*
X202350000Y-77845000D03*
G04 #@! TO.P,J3,6*
G04 #@! TO.N,N/C*
X199810000Y-77845000D03*
G04 #@! TO.P,J3,7*
X202350000Y-75305000D03*
G04 #@! TO.P,J3,8*
G04 #@! TO.N,Net-(D8-Pad2)*
X199810000Y-75305000D03*
G04 #@! TO.P,J3,9*
G04 #@! TO.N,/RESET*
X202350000Y-72765000D03*
G04 #@! TO.P,J3,10*
G04 #@! TO.N,N/C*
X199810000Y-72765000D03*
G04 #@! TD*
D18*
G04 #@! TO.P,J4,1*
G04 #@! TO.N,+3V3*
X194290000Y-79110000D03*
D19*
G04 #@! TO.P,J4,2*
G04 #@! TO.N,/SWCLK*
X194290000Y-76570000D03*
G04 #@! TO.P,J4,3*
G04 #@! TO.N,GND*
X194290000Y-74030000D03*
G04 #@! TO.P,J4,4*
G04 #@! TO.N,/SWDIO*
X194290000Y-71490000D03*
G04 #@! TO.P,J4,5*
G04 #@! TO.N,/RESET*
X194290000Y-68950000D03*
G04 #@! TD*
D20*
G04 #@! TO.P,J5,2*
G04 #@! TO.N,Net-(F3-Pad1)*
X202000000Y-103325000D03*
D11*
G04 #@! TD*
G04 #@! TO.N,GND*
G04 #@! TO.C,J5*
G36*
X203574504Y-105926204D02*
X203598773Y-105929804D01*
X203622571Y-105935765D01*
X203645671Y-105944030D01*
X203667849Y-105954520D01*
X203688893Y-105967133D01*
X203708598Y-105981747D01*
X203726777Y-105998223D01*
X203743253Y-106016402D01*
X203757867Y-106036107D01*
X203770480Y-106057151D01*
X203780970Y-106079329D01*
X203789235Y-106102429D01*
X203795196Y-106126227D01*
X203798796Y-106150496D01*
X203800000Y-106175000D01*
X203800000Y-107475000D01*
X203798796Y-107499504D01*
X203795196Y-107523773D01*
X203789235Y-107547571D01*
X203780970Y-107570671D01*
X203770480Y-107592849D01*
X203757867Y-107613893D01*
X203743253Y-107633598D01*
X203726777Y-107651777D01*
X203708598Y-107668253D01*
X203688893Y-107682867D01*
X203667849Y-107695480D01*
X203645671Y-107705970D01*
X203622571Y-107714235D01*
X203598773Y-107720196D01*
X203574504Y-107723796D01*
X203550000Y-107725000D01*
X200450000Y-107725000D01*
X200425496Y-107723796D01*
X200401227Y-107720196D01*
X200377429Y-107714235D01*
X200354329Y-107705970D01*
X200332151Y-107695480D01*
X200311107Y-107682867D01*
X200291402Y-107668253D01*
X200273223Y-107651777D01*
X200256747Y-107633598D01*
X200242133Y-107613893D01*
X200229520Y-107592849D01*
X200219030Y-107570671D01*
X200210765Y-107547571D01*
X200204804Y-107523773D01*
X200201204Y-107499504D01*
X200200000Y-107475000D01*
X200200000Y-106175000D01*
X200201204Y-106150496D01*
X200204804Y-106126227D01*
X200210765Y-106102429D01*
X200219030Y-106079329D01*
X200229520Y-106057151D01*
X200242133Y-106036107D01*
X200256747Y-106016402D01*
X200273223Y-105998223D01*
X200291402Y-105981747D01*
X200311107Y-105967133D01*
X200332151Y-105954520D01*
X200354329Y-105944030D01*
X200377429Y-105935765D01*
X200401227Y-105929804D01*
X200425496Y-105926204D01*
X200450000Y-105925000D01*
X203550000Y-105925000D01*
X203574504Y-105926204D01*
X203574504Y-105926204D01*
G37*
D12*
G04 #@! TO.P,J5,1*
G04 #@! TO.N,GND*
X202000000Y-106825000D03*
G04 #@! TD*
D11*
G04 #@! TO.N,GND*
G04 #@! TO.C,J6*
G36*
X203624504Y-94426204D02*
X203648773Y-94429804D01*
X203672571Y-94435765D01*
X203695671Y-94444030D01*
X203717849Y-94454520D01*
X203738893Y-94467133D01*
X203758598Y-94481747D01*
X203776777Y-94498223D01*
X203793253Y-94516402D01*
X203807867Y-94536107D01*
X203820480Y-94557151D01*
X203830970Y-94579329D01*
X203839235Y-94602429D01*
X203845196Y-94626227D01*
X203848796Y-94650496D01*
X203850000Y-94675000D01*
X203850000Y-95975000D01*
X203848796Y-95999504D01*
X203845196Y-96023773D01*
X203839235Y-96047571D01*
X203830970Y-96070671D01*
X203820480Y-96092849D01*
X203807867Y-96113893D01*
X203793253Y-96133598D01*
X203776777Y-96151777D01*
X203758598Y-96168253D01*
X203738893Y-96182867D01*
X203717849Y-96195480D01*
X203695671Y-96205970D01*
X203672571Y-96214235D01*
X203648773Y-96220196D01*
X203624504Y-96223796D01*
X203600000Y-96225000D01*
X200500000Y-96225000D01*
X200475496Y-96223796D01*
X200451227Y-96220196D01*
X200427429Y-96214235D01*
X200404329Y-96205970D01*
X200382151Y-96195480D01*
X200361107Y-96182867D01*
X200341402Y-96168253D01*
X200323223Y-96151777D01*
X200306747Y-96133598D01*
X200292133Y-96113893D01*
X200279520Y-96092849D01*
X200269030Y-96070671D01*
X200260765Y-96047571D01*
X200254804Y-96023773D01*
X200251204Y-95999504D01*
X200250000Y-95975000D01*
X200250000Y-94675000D01*
X200251204Y-94650496D01*
X200254804Y-94626227D01*
X200260765Y-94602429D01*
X200269030Y-94579329D01*
X200279520Y-94557151D01*
X200292133Y-94536107D01*
X200306747Y-94516402D01*
X200323223Y-94498223D01*
X200341402Y-94481747D01*
X200361107Y-94467133D01*
X200382151Y-94454520D01*
X200404329Y-94444030D01*
X200427429Y-94435765D01*
X200451227Y-94429804D01*
X200475496Y-94426204D01*
X200500000Y-94425000D01*
X203600000Y-94425000D01*
X203624504Y-94426204D01*
X203624504Y-94426204D01*
G37*
D12*
G04 #@! TD*
G04 #@! TO.P,J6,1*
G04 #@! TO.N,GND*
X202050000Y-95325000D03*
D20*
G04 #@! TO.P,J6,2*
G04 #@! TO.N,Net-(F2-Pad1)*
X202050000Y-91825000D03*
G04 #@! TD*
D13*
G04 #@! TO.P,J7,4*
G04 #@! TO.N,Net-(F4-Pad1)*
X178500000Y-114200000D03*
G04 #@! TO.P,J7,3*
G04 #@! TO.N,Net-(F5-Pad1)*
X182000000Y-114200000D03*
G04 #@! TO.P,J7,2*
G04 #@! TO.N,Net-(F6-Pad1)*
X185500000Y-114200000D03*
D11*
G04 #@! TD*
G04 #@! TO.N,GND*
G04 #@! TO.C,J7*
G36*
X189674504Y-112401204D02*
X189698773Y-112404804D01*
X189722571Y-112410765D01*
X189745671Y-112419030D01*
X189767849Y-112429520D01*
X189788893Y-112442133D01*
X189808598Y-112456747D01*
X189826777Y-112473223D01*
X189843253Y-112491402D01*
X189857867Y-112511107D01*
X189870480Y-112532151D01*
X189880970Y-112554329D01*
X189889235Y-112577429D01*
X189895196Y-112601227D01*
X189898796Y-112625496D01*
X189900000Y-112650000D01*
X189900000Y-115750000D01*
X189898796Y-115774504D01*
X189895196Y-115798773D01*
X189889235Y-115822571D01*
X189880970Y-115845671D01*
X189870480Y-115867849D01*
X189857867Y-115888893D01*
X189843253Y-115908598D01*
X189826777Y-115926777D01*
X189808598Y-115943253D01*
X189788893Y-115957867D01*
X189767849Y-115970480D01*
X189745671Y-115980970D01*
X189722571Y-115989235D01*
X189698773Y-115995196D01*
X189674504Y-115998796D01*
X189650000Y-116000000D01*
X188350000Y-116000000D01*
X188325496Y-115998796D01*
X188301227Y-115995196D01*
X188277429Y-115989235D01*
X188254329Y-115980970D01*
X188232151Y-115970480D01*
X188211107Y-115957867D01*
X188191402Y-115943253D01*
X188173223Y-115926777D01*
X188156747Y-115908598D01*
X188142133Y-115888893D01*
X188129520Y-115867849D01*
X188119030Y-115845671D01*
X188110765Y-115822571D01*
X188104804Y-115798773D01*
X188101204Y-115774504D01*
X188100000Y-115750000D01*
X188100000Y-112650000D01*
X188101204Y-112625496D01*
X188104804Y-112601227D01*
X188110765Y-112577429D01*
X188119030Y-112554329D01*
X188129520Y-112532151D01*
X188142133Y-112511107D01*
X188156747Y-112491402D01*
X188173223Y-112473223D01*
X188191402Y-112456747D01*
X188211107Y-112442133D01*
X188232151Y-112429520D01*
X188254329Y-112419030D01*
X188277429Y-112410765D01*
X188301227Y-112404804D01*
X188325496Y-112401204D01*
X188350000Y-112400000D01*
X189650000Y-112400000D01*
X189674504Y-112401204D01*
X189674504Y-112401204D01*
G37*
D12*
G04 #@! TO.P,J7,1*
G04 #@! TO.N,GND*
X189000000Y-114200000D03*
G04 #@! TD*
D21*
G04 #@! TO.N,GND*
G04 #@! TO.C,U6*
X140754578Y-85876788D03*
D22*
X142554578Y-85276788D03*
X141354578Y-85276788D03*
X141354578Y-86476788D03*
X142554578Y-86476788D03*
X138954578Y-85276788D03*
X140054578Y-85276788D03*
X140054578Y-86476788D03*
X138954578Y-86476788D03*
G04 #@! TD*
D21*
G04 #@! TO.N,GND*
G04 #@! TO.C,U7*
X141250000Y-103725000D03*
D22*
X143050000Y-103125000D03*
X141850000Y-103125000D03*
X141850000Y-104325000D03*
X143050000Y-104325000D03*
X139450000Y-103125000D03*
X140550000Y-103125000D03*
X140550000Y-104325000D03*
X139450000Y-104325000D03*
G04 #@! TD*
D23*
G04 #@! TO.N,+3V3*
X132400000Y-91500000D03*
X133600000Y-85000000D03*
X175300000Y-91200000D03*
X175400000Y-83500000D03*
G04 #@! TO.N,GND*
X174700000Y-61800000D03*
X185400000Y-94900000D03*
X177200000Y-101000000D03*
X138575000Y-103725000D03*
X137185000Y-86190000D03*
X129600000Y-89600000D03*
X132500000Y-78500000D03*
X182200000Y-82700000D03*
X176700000Y-73500000D03*
X190200000Y-69300000D03*
X179500000Y-69200000D03*
X159850000Y-71700000D03*
X166466754Y-61666428D03*
X165700000Y-66500000D03*
X161050000Y-69400000D03*
G04 #@! TO.N,+5VA*
X184900000Y-73900000D03*
X187200000Y-81500000D03*
G04 #@! TO.N,/RESET*
X170550000Y-65300000D03*
G04 #@! TO.N,Net-(C16-Pad1)*
X143830000Y-89120000D03*
X147960000Y-83190000D03*
G04 #@! TO.N,Net-(C17-Pad1)*
X144550000Y-106160000D03*
X148170000Y-100870000D03*
G04 #@! TO.N,Net-(D8-Pad2)*
X196500000Y-83200000D03*
G04 #@! TO.N,+5V*
X184800000Y-88400000D03*
X177400000Y-80600000D03*
G04 #@! TO.N,+12V*
X178500000Y-94200000D03*
X176100000Y-80900000D03*
G04 #@! TO.N,/SWDIO*
X185000000Y-66700000D03*
G04 #@! TO.N,/SWCLK*
X180700000Y-66450010D03*
G04 #@! TO.N,/I_24*
X130320000Y-77470000D03*
X128572511Y-89383690D03*
G04 #@! TO.N,/I_12*
X172800000Y-91200000D03*
X168900000Y-77000000D03*
G04 #@! TO.N,/I_5*
X173700000Y-83675000D03*
X172600000Y-76600000D03*
G04 #@! TO.N,/LED_VOLT*
X172300000Y-68800000D03*
X164500000Y-62350000D03*
G04 #@! TD*
D24*
G04 #@! TO.N,+3V3*
X133600000Y-85062681D02*
X133600000Y-85000000D01*
X132400000Y-91500000D02*
X132400000Y-86262681D01*
X132400000Y-86262681D02*
X133600000Y-85062681D01*
X175300000Y-91200000D02*
X175300000Y-83600000D01*
X175300000Y-83600000D02*
X175400000Y-83500000D01*
G04 #@! TO.N,GND*
X175300000Y-62400000D02*
X181800000Y-62400000D01*
X174700000Y-61800000D02*
X175300000Y-62400000D01*
G04 #@! TO.N,+5VA*
X184900000Y-73900000D02*
X184900000Y-79200000D01*
X184900000Y-79200000D02*
X187200000Y-81500000D01*
G04 #@! TO.N,/RESET*
X194290000Y-67747919D02*
X194290000Y-68950000D01*
X191542060Y-64999979D02*
X194290000Y-67747919D01*
X191542060Y-64999979D02*
X170850021Y-64999979D01*
X170850021Y-64999979D02*
X170550000Y-65300000D01*
G04 #@! TO.N,Net-(C16-Pad1)*
X143830000Y-89120000D02*
X147960000Y-84990000D01*
X147960000Y-84990000D02*
X147960000Y-83190000D01*
G04 #@! TO.N,Net-(C17-Pad1)*
X144550000Y-106160000D02*
X148170000Y-102540000D01*
X148170000Y-102540000D02*
X148170000Y-100870000D01*
G04 #@! TO.N,Net-(D8-Pad2)*
X198588686Y-75305000D02*
X196900000Y-76993686D01*
X199810000Y-75305000D02*
X198588686Y-75305000D01*
X196900000Y-76993686D02*
X196900000Y-82800000D01*
X196900000Y-82800000D02*
X196500000Y-83200000D01*
G04 #@! TO.N,+5V*
X184800000Y-88400000D02*
X184400001Y-88000001D01*
X184400001Y-88000001D02*
X179500001Y-88000001D01*
X179500001Y-88000001D02*
X178000000Y-86500000D01*
X178000000Y-86500000D02*
X178000000Y-81200000D01*
X178000000Y-81200000D02*
X177400000Y-80600000D01*
D25*
G04 #@! TO.N,/BAT2*
X148830000Y-72110000D02*
X149960000Y-73240000D01*
X148830000Y-64350000D02*
X148830000Y-72110000D01*
D24*
G04 #@! TO.N,+12V*
X178500000Y-94200000D02*
X176499999Y-92199999D01*
X176499999Y-81299999D02*
X176100000Y-80900000D01*
X176499999Y-92199999D02*
X176499999Y-81299999D01*
G04 #@! TO.N,/SWDIO*
X192750010Y-69950010D02*
X193440001Y-70640001D01*
X185399999Y-66300001D02*
X190202097Y-66300001D01*
X193440001Y-70640001D02*
X194290000Y-71490000D01*
X192750010Y-68847914D02*
X192750010Y-69950010D01*
X190202097Y-66300001D02*
X192750010Y-68847914D01*
X185000000Y-66700000D02*
X185399999Y-66300001D01*
G04 #@! TO.N,/SWCLK*
X191800000Y-74080000D02*
X194290000Y-76570000D01*
X182449990Y-68200000D02*
X185600000Y-68200000D01*
X180700000Y-66450010D02*
X182449990Y-68200000D01*
X185600000Y-68200000D02*
X186500000Y-67300000D01*
X191800000Y-69100000D02*
X191800000Y-74080000D01*
X186500000Y-67300000D02*
X190000000Y-67300000D01*
X190000000Y-67300000D02*
X191800000Y-69100000D01*
G04 #@! TO.N,/I_24*
X128572511Y-88818005D02*
X128572511Y-89383690D01*
X128572511Y-79217489D02*
X128572511Y-88818005D01*
X130320000Y-77470000D02*
X128572511Y-79217489D01*
G04 #@! TO.N,/I_12*
X172800000Y-91200000D02*
X172400000Y-90800000D01*
X172400000Y-90800000D02*
X172400000Y-80500000D01*
X172400000Y-80500000D02*
X168900000Y-77000000D01*
G04 #@! TO.N,/I_5*
X173700000Y-83675000D02*
X173700000Y-77700000D01*
X173700000Y-77700000D02*
X172600000Y-76600000D01*
G04 #@! TO.N,/LED_VOLT*
X171450000Y-68800000D02*
X172300000Y-68800000D01*
X166750000Y-64100000D02*
X171450000Y-68800000D01*
X166750000Y-64100000D02*
X165000000Y-62350000D01*
X165000000Y-62350000D02*
X164500000Y-62350000D01*
G04 #@! TD*
D26*
G04 #@! TO.N,GND*
G36*
X204825001Y-118325000D02*
X125175000Y-118325000D01*
X125175000Y-114962393D01*
X125900000Y-114962393D01*
X125900000Y-115837607D01*
X126234930Y-116646200D01*
X126853800Y-117265070D01*
X127662393Y-117600000D01*
X128537607Y-117600000D01*
X129346200Y-117265070D01*
X129965070Y-116646200D01*
X130300000Y-115837607D01*
X130300000Y-115247732D01*
X177000000Y-115247732D01*
X177087032Y-115685270D01*
X177418561Y-116181439D01*
X177914729Y-116512968D01*
X178500000Y-116629386D01*
X179085270Y-116512968D01*
X179581439Y-116181439D01*
X179912968Y-115685271D01*
X180000000Y-115247733D01*
X180000000Y-115247732D01*
X180500000Y-115247732D01*
X180587032Y-115685270D01*
X180918561Y-116181439D01*
X181414729Y-116512968D01*
X182000000Y-116629386D01*
X182585270Y-116512968D01*
X183081439Y-116181439D01*
X183412968Y-115685271D01*
X183500000Y-115247733D01*
X183500000Y-115247732D01*
X184000000Y-115247732D01*
X184087032Y-115685270D01*
X184418561Y-116181439D01*
X184914729Y-116512968D01*
X185500000Y-116629386D01*
X186085270Y-116512968D01*
X186581439Y-116181439D01*
X186912968Y-115685271D01*
X187000000Y-115247733D01*
X187000000Y-114431000D01*
X187392000Y-114431000D01*
X187392000Y-116140830D01*
X187499787Y-116401050D01*
X187698950Y-116600213D01*
X187959170Y-116708000D01*
X188769000Y-116708000D01*
X188946000Y-116531000D01*
X188946000Y-114254000D01*
X189054000Y-114254000D01*
X189054000Y-116531000D01*
X189231000Y-116708000D01*
X190040830Y-116708000D01*
X190301050Y-116600213D01*
X190500213Y-116401050D01*
X190608000Y-116140830D01*
X190608000Y-114962393D01*
X199700000Y-114962393D01*
X199700000Y-115837607D01*
X200034930Y-116646200D01*
X200653800Y-117265070D01*
X201462393Y-117600000D01*
X202337607Y-117600000D01*
X203146200Y-117265070D01*
X203765070Y-116646200D01*
X204100000Y-115837607D01*
X204100000Y-114962393D01*
X203765070Y-114153800D01*
X203146200Y-113534930D01*
X202337607Y-113200000D01*
X201462393Y-113200000D01*
X200653800Y-113534930D01*
X200034930Y-114153800D01*
X199700000Y-114962393D01*
X190608000Y-114962393D01*
X190608000Y-114431000D01*
X190431000Y-114254000D01*
X189054000Y-114254000D01*
X188946000Y-114254000D01*
X187569000Y-114254000D01*
X187392000Y-114431000D01*
X187000000Y-114431000D01*
X187000000Y-113152267D01*
X186912968Y-112714729D01*
X186608574Y-112259170D01*
X187392000Y-112259170D01*
X187392000Y-113969000D01*
X187569000Y-114146000D01*
X188946000Y-114146000D01*
X188946000Y-111869000D01*
X189054000Y-111869000D01*
X189054000Y-114146000D01*
X190431000Y-114146000D01*
X190608000Y-113969000D01*
X190608000Y-112259170D01*
X190500213Y-111998950D01*
X190301050Y-111799787D01*
X190040830Y-111692000D01*
X189231000Y-111692000D01*
X189054000Y-111869000D01*
X188946000Y-111869000D01*
X188769000Y-111692000D01*
X187959170Y-111692000D01*
X187698950Y-111799787D01*
X187499787Y-111998950D01*
X187392000Y-112259170D01*
X186608574Y-112259170D01*
X186581439Y-112218561D01*
X186085271Y-111887032D01*
X185500000Y-111770614D01*
X184914730Y-111887032D01*
X184418562Y-112218561D01*
X184087033Y-112714729D01*
X184000001Y-113152267D01*
X184000000Y-115247732D01*
X183500000Y-115247732D01*
X183500000Y-113152267D01*
X183412968Y-112714729D01*
X183081439Y-112218561D01*
X182585271Y-111887032D01*
X182000000Y-111770614D01*
X181414730Y-111887032D01*
X180918562Y-112218561D01*
X180587033Y-112714729D01*
X180500001Y-113152267D01*
X180500000Y-115247732D01*
X180000000Y-115247732D01*
X180000000Y-113152267D01*
X179912968Y-112714729D01*
X179581439Y-112218561D01*
X179085271Y-111887032D01*
X178500000Y-111770614D01*
X177914730Y-111887032D01*
X177418562Y-112218561D01*
X177087033Y-112714729D01*
X177000001Y-113152267D01*
X177000000Y-115247732D01*
X130300000Y-115247732D01*
X130300000Y-114962393D01*
X129965070Y-114153800D01*
X129346200Y-113534930D01*
X128537607Y-113200000D01*
X127662393Y-113200000D01*
X126853800Y-113534930D01*
X126234930Y-114153800D01*
X125900000Y-114962393D01*
X125175000Y-114962393D01*
X125175000Y-102109170D01*
X138292000Y-102109170D01*
X138292000Y-103494000D01*
X138469000Y-103671000D01*
X138582320Y-103671000D01*
X138587943Y-103684574D01*
X138734913Y-103686283D01*
X138773630Y-103725000D01*
X138734913Y-103763717D01*
X138587943Y-103765426D01*
X138582531Y-103779000D01*
X138469000Y-103779000D01*
X138292000Y-103956000D01*
X138292000Y-105340830D01*
X138399787Y-105601050D01*
X138598950Y-105800213D01*
X138859170Y-105908000D01*
X141019000Y-105908000D01*
X141196000Y-105731000D01*
X141196000Y-105055370D01*
X141287827Y-104963543D01*
X141290426Y-105187057D01*
X141304000Y-105192469D01*
X141304000Y-105731000D01*
X141481000Y-105908000D01*
X143571990Y-105908000D01*
X143550000Y-105961088D01*
X143550000Y-106358912D01*
X143702241Y-106726454D01*
X143983546Y-107007759D01*
X144351088Y-107160000D01*
X144748912Y-107160000D01*
X144999990Y-107056000D01*
X199492000Y-107056000D01*
X199492000Y-107865830D01*
X199599787Y-108126050D01*
X199798950Y-108325213D01*
X200059170Y-108433000D01*
X201769000Y-108433000D01*
X201946000Y-108256000D01*
X201946000Y-106879000D01*
X202054000Y-106879000D01*
X202054000Y-108256000D01*
X202231000Y-108433000D01*
X203940830Y-108433000D01*
X204201050Y-108325213D01*
X204400213Y-108126050D01*
X204508000Y-107865830D01*
X204508000Y-107056000D01*
X204331000Y-106879000D01*
X202054000Y-106879000D01*
X201946000Y-106879000D01*
X199669000Y-106879000D01*
X199492000Y-107056000D01*
X144999990Y-107056000D01*
X145116454Y-107007759D01*
X145397759Y-106726454D01*
X145497760Y-106485032D01*
X146198622Y-105784170D01*
X199492000Y-105784170D01*
X199492000Y-106594000D01*
X199669000Y-106771000D01*
X201946000Y-106771000D01*
X201946000Y-105394000D01*
X202054000Y-105394000D01*
X202054000Y-106771000D01*
X204331000Y-106771000D01*
X204508000Y-106594000D01*
X204508000Y-105784170D01*
X204400213Y-105523950D01*
X204201050Y-105324787D01*
X203940830Y-105217000D01*
X202231000Y-105217000D01*
X202054000Y-105394000D01*
X201946000Y-105394000D01*
X201769000Y-105217000D01*
X200059170Y-105217000D01*
X199798950Y-105324787D01*
X199599787Y-105523950D01*
X199492000Y-105784170D01*
X146198622Y-105784170D01*
X148657792Y-103325000D01*
X199570614Y-103325000D01*
X199687032Y-103910271D01*
X200018561Y-104406439D01*
X200514729Y-104737968D01*
X200952267Y-104825000D01*
X203047733Y-104825000D01*
X203485271Y-104737968D01*
X203981439Y-104406439D01*
X204312968Y-103910271D01*
X204429386Y-103325000D01*
X204312968Y-102739729D01*
X203981439Y-102243561D01*
X203485271Y-101912032D01*
X203047733Y-101825000D01*
X200952267Y-101825000D01*
X200514729Y-101912032D01*
X200018561Y-102243561D01*
X199687032Y-102739729D01*
X199570614Y-103325000D01*
X148657792Y-103325000D01*
X148743716Y-103239076D01*
X148818864Y-103188864D01*
X149017781Y-102891163D01*
X149070000Y-102628642D01*
X149070000Y-102628641D01*
X149087632Y-102540001D01*
X149070000Y-102451360D01*
X149070000Y-101310333D01*
X149170000Y-101068912D01*
X149170000Y-100671088D01*
X149017759Y-100303546D01*
X148736454Y-100022241D01*
X148368912Y-99870000D01*
X147971088Y-99870000D01*
X147603546Y-100022241D01*
X147322241Y-100303546D01*
X147170000Y-100671088D01*
X147170000Y-101068912D01*
X147270001Y-101310335D01*
X147270000Y-102167208D01*
X144224968Y-105212240D01*
X144208000Y-105219269D01*
X144208000Y-103956000D01*
X144031000Y-103779000D01*
X143917680Y-103779000D01*
X143912057Y-103765426D01*
X143765087Y-103763717D01*
X143726370Y-103725000D01*
X143765087Y-103686283D01*
X143912057Y-103684574D01*
X143917469Y-103671000D01*
X144031000Y-103671000D01*
X144208000Y-103494000D01*
X144208000Y-102109170D01*
X144100213Y-101848950D01*
X143901050Y-101649787D01*
X143640830Y-101542000D01*
X141481000Y-101542000D01*
X141304000Y-101719000D01*
X141304000Y-102257320D01*
X141290426Y-102262943D01*
X141287827Y-102486457D01*
X141196000Y-102394630D01*
X141196000Y-101719000D01*
X141019000Y-101542000D01*
X138859170Y-101542000D01*
X138598950Y-101649787D01*
X138399787Y-101848950D01*
X138292000Y-102109170D01*
X125175000Y-102109170D01*
X125175000Y-95556000D01*
X199542000Y-95556000D01*
X199542000Y-96365830D01*
X199649787Y-96626050D01*
X199848950Y-96825213D01*
X200109170Y-96933000D01*
X201819000Y-96933000D01*
X201996000Y-96756000D01*
X201996000Y-95379000D01*
X202104000Y-95379000D01*
X202104000Y-96756000D01*
X202281000Y-96933000D01*
X203990830Y-96933000D01*
X204251050Y-96825213D01*
X204450213Y-96626050D01*
X204558000Y-96365830D01*
X204558000Y-95556000D01*
X204381000Y-95379000D01*
X202104000Y-95379000D01*
X201996000Y-95379000D01*
X199719000Y-95379000D01*
X199542000Y-95556000D01*
X125175000Y-95556000D01*
X125175000Y-91301088D01*
X131400000Y-91301088D01*
X131400000Y-91698912D01*
X131552241Y-92066454D01*
X131833546Y-92347759D01*
X132201088Y-92500000D01*
X132598912Y-92500000D01*
X132966454Y-92347759D01*
X133247759Y-92066454D01*
X133400000Y-91698912D01*
X133400000Y-91301088D01*
X133300000Y-91059667D01*
X133300000Y-88921088D01*
X142830000Y-88921088D01*
X142830000Y-89318912D01*
X142982241Y-89686454D01*
X143263546Y-89967759D01*
X143631088Y-90120000D01*
X144028912Y-90120000D01*
X144396454Y-89967759D01*
X144677759Y-89686454D01*
X144777760Y-89445032D01*
X148533716Y-85689076D01*
X148608864Y-85638864D01*
X148807781Y-85341163D01*
X148860000Y-85078642D01*
X148860000Y-85078641D01*
X148877632Y-84990001D01*
X148860000Y-84901360D01*
X148860000Y-83630333D01*
X148960000Y-83388912D01*
X148960000Y-82991088D01*
X148807759Y-82623546D01*
X148526454Y-82342241D01*
X148158912Y-82190000D01*
X147761088Y-82190000D01*
X147393546Y-82342241D01*
X147112241Y-82623546D01*
X146960000Y-82991088D01*
X146960000Y-83388912D01*
X147060001Y-83630335D01*
X147060000Y-84617208D01*
X143504968Y-88172240D01*
X143263546Y-88272241D01*
X142982241Y-88553546D01*
X142830000Y-88921088D01*
X133300000Y-88921088D01*
X133300000Y-86635472D01*
X134032036Y-85903437D01*
X134166454Y-85847759D01*
X134447759Y-85566454D01*
X134600000Y-85198912D01*
X134600000Y-84801088D01*
X134447759Y-84433546D01*
X134275171Y-84260958D01*
X137796578Y-84260958D01*
X137796578Y-85645788D01*
X137973578Y-85822788D01*
X138086898Y-85822788D01*
X138092521Y-85836362D01*
X138239491Y-85838071D01*
X138278208Y-85876788D01*
X138239491Y-85915505D01*
X138092521Y-85917214D01*
X138087109Y-85930788D01*
X137973578Y-85930788D01*
X137796578Y-86107788D01*
X137796578Y-87492618D01*
X137904365Y-87752838D01*
X138103528Y-87952001D01*
X138363748Y-88059788D01*
X140523578Y-88059788D01*
X140700578Y-87882788D01*
X140700578Y-87207158D01*
X140792405Y-87115331D01*
X140795004Y-87338845D01*
X140808578Y-87344257D01*
X140808578Y-87882788D01*
X140985578Y-88059788D01*
X143145408Y-88059788D01*
X143405628Y-87952001D01*
X143604791Y-87752838D01*
X143712578Y-87492618D01*
X143712578Y-86107788D01*
X143535578Y-85930788D01*
X143422258Y-85930788D01*
X143416635Y-85917214D01*
X143269665Y-85915505D01*
X143230948Y-85876788D01*
X143269665Y-85838071D01*
X143416635Y-85836362D01*
X143422047Y-85822788D01*
X143535578Y-85822788D01*
X143712578Y-85645788D01*
X143712578Y-84260958D01*
X143604791Y-84000738D01*
X143405628Y-83801575D01*
X143145408Y-83693788D01*
X140985578Y-83693788D01*
X140808578Y-83870788D01*
X140808578Y-84409108D01*
X140795004Y-84414731D01*
X140792405Y-84638245D01*
X140700578Y-84546418D01*
X140700578Y-83870788D01*
X140523578Y-83693788D01*
X138363748Y-83693788D01*
X138103528Y-83801575D01*
X137904365Y-84000738D01*
X137796578Y-84260958D01*
X134275171Y-84260958D01*
X134166454Y-84152241D01*
X133798912Y-84000000D01*
X133401088Y-84000000D01*
X133033546Y-84152241D01*
X132752241Y-84433546D01*
X132607919Y-84781971D01*
X131826285Y-85563605D01*
X131751137Y-85613817D01*
X131594823Y-85847759D01*
X131552219Y-85911520D01*
X131482368Y-86262681D01*
X131500001Y-86351327D01*
X131500000Y-91059667D01*
X131400000Y-91301088D01*
X125175000Y-91301088D01*
X125175000Y-89184778D01*
X127572511Y-89184778D01*
X127572511Y-89582602D01*
X127724752Y-89950144D01*
X128006057Y-90231449D01*
X128373599Y-90383690D01*
X128771423Y-90383690D01*
X129138965Y-90231449D01*
X129420270Y-89950144D01*
X129572511Y-89582602D01*
X129572511Y-89184778D01*
X129472511Y-88943357D01*
X129472511Y-79590280D01*
X130645033Y-78417759D01*
X130886454Y-78317759D01*
X131167759Y-78036454D01*
X131320000Y-77668912D01*
X131320000Y-77271088D01*
X131167759Y-76903546D01*
X131065301Y-76801088D01*
X167900000Y-76801088D01*
X167900000Y-77198912D01*
X168052241Y-77566454D01*
X168333546Y-77847759D01*
X168574968Y-77947759D01*
X171500001Y-80872794D01*
X171500000Y-90711359D01*
X171482368Y-90800000D01*
X171500000Y-90888641D01*
X171552219Y-91151162D01*
X171751136Y-91448864D01*
X171826287Y-91499078D01*
X171852241Y-91525032D01*
X171952241Y-91766454D01*
X172233546Y-92047759D01*
X172601088Y-92200000D01*
X172998912Y-92200000D01*
X173366454Y-92047759D01*
X173647759Y-91766454D01*
X173800000Y-91398912D01*
X173800000Y-91001088D01*
X173647759Y-90633546D01*
X173366454Y-90352241D01*
X173300000Y-90324715D01*
X173300000Y-84591707D01*
X173501088Y-84675000D01*
X173898912Y-84675000D01*
X174266454Y-84522759D01*
X174400001Y-84389212D01*
X174400000Y-90759667D01*
X174300000Y-91001088D01*
X174300000Y-91398912D01*
X174452241Y-91766454D01*
X174733546Y-92047759D01*
X175101088Y-92200000D01*
X175498912Y-92200000D01*
X175589860Y-92162328D01*
X175582367Y-92199999D01*
X175599999Y-92288640D01*
X175652218Y-92551161D01*
X175851135Y-92848863D01*
X175926286Y-92899077D01*
X177552241Y-94525033D01*
X177652241Y-94766454D01*
X177933546Y-95047759D01*
X178301088Y-95200000D01*
X178698912Y-95200000D01*
X179066454Y-95047759D01*
X179347759Y-94766454D01*
X179500000Y-94398912D01*
X179500000Y-94284170D01*
X199542000Y-94284170D01*
X199542000Y-95094000D01*
X199719000Y-95271000D01*
X201996000Y-95271000D01*
X201996000Y-93894000D01*
X202104000Y-93894000D01*
X202104000Y-95271000D01*
X204381000Y-95271000D01*
X204558000Y-95094000D01*
X204558000Y-94284170D01*
X204450213Y-94023950D01*
X204251050Y-93824787D01*
X203990830Y-93717000D01*
X202281000Y-93717000D01*
X202104000Y-93894000D01*
X201996000Y-93894000D01*
X201819000Y-93717000D01*
X200109170Y-93717000D01*
X199848950Y-93824787D01*
X199649787Y-94023950D01*
X199542000Y-94284170D01*
X179500000Y-94284170D01*
X179500000Y-94001088D01*
X179347759Y-93633546D01*
X179066454Y-93352241D01*
X178825033Y-93252241D01*
X177399999Y-91827208D01*
X177399999Y-91825000D01*
X199620614Y-91825000D01*
X199737032Y-92410271D01*
X200068561Y-92906439D01*
X200564729Y-93237968D01*
X201002267Y-93325000D01*
X203097733Y-93325000D01*
X203535271Y-93237968D01*
X204031439Y-92906439D01*
X204362968Y-92410271D01*
X204479386Y-91825000D01*
X204362968Y-91239729D01*
X204031439Y-90743561D01*
X203535271Y-90412032D01*
X203097733Y-90325000D01*
X201002267Y-90325000D01*
X200564729Y-90412032D01*
X200068561Y-90743561D01*
X199737032Y-91239729D01*
X199620614Y-91825000D01*
X177399999Y-91825000D01*
X177399999Y-87181513D01*
X177426287Y-87199078D01*
X178800924Y-88573716D01*
X178851137Y-88648865D01*
X179148838Y-88847782D01*
X179411359Y-88900001D01*
X179411360Y-88900001D01*
X179500001Y-88917633D01*
X179588642Y-88900001D01*
X183924715Y-88900001D01*
X183952241Y-88966454D01*
X184233546Y-89247759D01*
X184601088Y-89400000D01*
X184998912Y-89400000D01*
X185366454Y-89247759D01*
X185647759Y-88966454D01*
X185800000Y-88598912D01*
X185800000Y-88201088D01*
X185647759Y-87833546D01*
X185366454Y-87552241D01*
X185125031Y-87452240D01*
X185099080Y-87426289D01*
X185048865Y-87351137D01*
X184751164Y-87152220D01*
X184488643Y-87100001D01*
X184488642Y-87100001D01*
X184400001Y-87082369D01*
X184311360Y-87100001D01*
X179872793Y-87100001D01*
X178900000Y-86127209D01*
X178900000Y-83001088D01*
X195500000Y-83001088D01*
X195500000Y-83398912D01*
X195652241Y-83766454D01*
X195933546Y-84047759D01*
X196301088Y-84200000D01*
X196698912Y-84200000D01*
X197066454Y-84047759D01*
X197347759Y-83766454D01*
X197447759Y-83525033D01*
X197473715Y-83499077D01*
X197548864Y-83448864D01*
X197747781Y-83151163D01*
X197800000Y-82888642D01*
X197800000Y-82888639D01*
X197817631Y-82800001D01*
X197800000Y-82711363D01*
X197800000Y-77366477D01*
X198785663Y-76380815D01*
X199076281Y-76575000D01*
X198754804Y-76789804D01*
X198431320Y-77273932D01*
X198317727Y-77845000D01*
X198431320Y-78416068D01*
X198754804Y-78900196D01*
X199076281Y-79115000D01*
X198754804Y-79329804D01*
X198431320Y-79813932D01*
X198317727Y-80385000D01*
X198431320Y-80956068D01*
X198754804Y-81440196D01*
X199076281Y-81655000D01*
X198754804Y-81869804D01*
X198431320Y-82353932D01*
X198317727Y-82925000D01*
X198431320Y-83496068D01*
X198754804Y-83980196D01*
X199238932Y-84303680D01*
X199665852Y-84388600D01*
X199954148Y-84388600D01*
X200381068Y-84303680D01*
X200865196Y-83980196D01*
X200901846Y-83925345D01*
X200921213Y-84022708D01*
X201053825Y-84221175D01*
X201252292Y-84353787D01*
X201486400Y-84400354D01*
X203213600Y-84400354D01*
X203447708Y-84353787D01*
X203646175Y-84221175D01*
X203778787Y-84022708D01*
X203825354Y-83788600D01*
X203825354Y-82061400D01*
X203778787Y-81827292D01*
X203646175Y-81628825D01*
X203447708Y-81496213D01*
X203350345Y-81476846D01*
X203405196Y-81440196D01*
X203728680Y-80956068D01*
X203842273Y-80385000D01*
X203728680Y-79813932D01*
X203405196Y-79329804D01*
X203172266Y-79174165D01*
X203216719Y-79156007D01*
X203652445Y-78724534D01*
X203889885Y-78159159D01*
X203892887Y-78144042D01*
X203743554Y-77899000D01*
X202404000Y-77899000D01*
X202404000Y-77919000D01*
X202296000Y-77919000D01*
X202296000Y-77899000D01*
X202276000Y-77899000D01*
X202276000Y-77791000D01*
X202296000Y-77791000D01*
X202296000Y-77771000D01*
X202404000Y-77771000D01*
X202404000Y-77791000D01*
X203743554Y-77791000D01*
X203892887Y-77545958D01*
X203889885Y-77530841D01*
X203652445Y-76965466D01*
X203216719Y-76533993D01*
X203172266Y-76515835D01*
X203405196Y-76360196D01*
X203728680Y-75876068D01*
X203842273Y-75305000D01*
X203728680Y-74733932D01*
X203405196Y-74249804D01*
X203083719Y-74035000D01*
X203405196Y-73820196D01*
X203728680Y-73336068D01*
X203842273Y-72765000D01*
X203728680Y-72193932D01*
X203405196Y-71709804D01*
X202921068Y-71386320D01*
X202494148Y-71301400D01*
X202205852Y-71301400D01*
X201778932Y-71386320D01*
X201294804Y-71709804D01*
X201080000Y-72031281D01*
X200865196Y-71709804D01*
X200381068Y-71386320D01*
X199954148Y-71301400D01*
X199665852Y-71301400D01*
X199238932Y-71386320D01*
X198754804Y-71709804D01*
X198431320Y-72193932D01*
X198317727Y-72765000D01*
X198431320Y-73336068D01*
X198754804Y-73820196D01*
X199076281Y-74035000D01*
X198754804Y-74249804D01*
X198654182Y-74400396D01*
X198588686Y-74387368D01*
X198500045Y-74405000D01*
X198500044Y-74405000D01*
X198237523Y-74457219D01*
X197939822Y-74656136D01*
X197889609Y-74731285D01*
X196326287Y-76294608D01*
X196251136Y-76344822D01*
X196052219Y-76642524D01*
X196016691Y-76821136D01*
X195982368Y-76993686D01*
X196000000Y-77082327D01*
X196000001Y-82324714D01*
X195933546Y-82352241D01*
X195652241Y-82633546D01*
X195500000Y-83001088D01*
X178900000Y-83001088D01*
X178900000Y-81288640D01*
X178917632Y-81199999D01*
X178847781Y-80848837D01*
X178715681Y-80651135D01*
X178648864Y-80551136D01*
X178573715Y-80500923D01*
X178347759Y-80274968D01*
X178247759Y-80033546D01*
X177966454Y-79752241D01*
X177598912Y-79600000D01*
X177201088Y-79600000D01*
X176833546Y-79752241D01*
X176572474Y-80013313D01*
X176298912Y-79900000D01*
X175901088Y-79900000D01*
X175533546Y-80052241D01*
X175252241Y-80333546D01*
X175100000Y-80701088D01*
X175100000Y-81098912D01*
X175252241Y-81466454D01*
X175533546Y-81747759D01*
X175600000Y-81775285D01*
X175600000Y-82500451D01*
X175598912Y-82500000D01*
X175201088Y-82500000D01*
X174833546Y-82652241D01*
X174600000Y-82885787D01*
X174600000Y-77788641D01*
X174617632Y-77700000D01*
X174547781Y-77348838D01*
X174547781Y-77348837D01*
X174348864Y-77051136D01*
X174273715Y-77000923D01*
X173547759Y-76274968D01*
X173447759Y-76033546D01*
X173166454Y-75752241D01*
X172798912Y-75600000D01*
X172401088Y-75600000D01*
X172033546Y-75752241D01*
X171752241Y-76033546D01*
X171600000Y-76401088D01*
X171600000Y-76798912D01*
X171752241Y-77166454D01*
X172033546Y-77447759D01*
X172274968Y-77547759D01*
X172800001Y-78072793D01*
X172800001Y-79627208D01*
X169847759Y-76674968D01*
X169747759Y-76433546D01*
X169466454Y-76152241D01*
X169098912Y-76000000D01*
X168701088Y-76000000D01*
X168333546Y-76152241D01*
X168052241Y-76433546D01*
X167900000Y-76801088D01*
X131065301Y-76801088D01*
X130886454Y-76622241D01*
X130518912Y-76470000D01*
X130121088Y-76470000D01*
X129753546Y-76622241D01*
X129472241Y-76903546D01*
X129372241Y-77144967D01*
X127998798Y-78518411D01*
X127923647Y-78568625D01*
X127724730Y-78866327D01*
X127678034Y-79101084D01*
X127654879Y-79217489D01*
X127672511Y-79306130D01*
X127672512Y-88729359D01*
X127672511Y-88729364D01*
X127672511Y-88943357D01*
X127572511Y-89184778D01*
X125175000Y-89184778D01*
X125175000Y-72822284D01*
X125360000Y-72822284D01*
X125360000Y-73657716D01*
X125679706Y-74429554D01*
X126270446Y-75020294D01*
X127042284Y-75340000D01*
X127877716Y-75340000D01*
X128649554Y-75020294D01*
X129240294Y-74429554D01*
X129560000Y-73657716D01*
X129560000Y-72852121D01*
X136760000Y-72852121D01*
X136760000Y-73627879D01*
X137056870Y-74344586D01*
X137605414Y-74893130D01*
X138322121Y-75190000D01*
X139097879Y-75190000D01*
X139814586Y-74893130D01*
X140363130Y-74344586D01*
X140660000Y-73627879D01*
X140660000Y-72852121D01*
X140363130Y-72135414D01*
X140337716Y-72110000D01*
X146943758Y-72110000D01*
X147087339Y-72831833D01*
X147308196Y-73162368D01*
X147496226Y-73443775D01*
X147650692Y-73546986D01*
X147929705Y-73825999D01*
X148179706Y-74429554D01*
X148770446Y-75020294D01*
X149542284Y-75340000D01*
X150377716Y-75340000D01*
X151149554Y-75020294D01*
X151740294Y-74429554D01*
X152042034Y-73701088D01*
X183900000Y-73701088D01*
X183900000Y-74098912D01*
X184000000Y-74340333D01*
X184000001Y-79111354D01*
X183982368Y-79200000D01*
X184052219Y-79551161D01*
X184052220Y-79551162D01*
X184052220Y-79551163D01*
X184251137Y-79848864D01*
X184326285Y-79899076D01*
X186252241Y-81825033D01*
X186352241Y-82066454D01*
X186633546Y-82347759D01*
X187001088Y-82500000D01*
X187398912Y-82500000D01*
X187766454Y-82347759D01*
X188047759Y-82066454D01*
X188200000Y-81698912D01*
X188200000Y-81301088D01*
X188047759Y-80933546D01*
X187766454Y-80652241D01*
X187525033Y-80552241D01*
X185800000Y-78827209D01*
X185800000Y-74340333D01*
X185900000Y-74098912D01*
X185900000Y-73701088D01*
X185747759Y-73333546D01*
X185466454Y-73052241D01*
X185098912Y-72900000D01*
X184701088Y-72900000D01*
X184333546Y-73052241D01*
X184052241Y-73333546D01*
X183900000Y-73701088D01*
X152042034Y-73701088D01*
X152060000Y-73657716D01*
X152060000Y-72822284D01*
X151740294Y-72050446D01*
X151149554Y-71459706D01*
X150680000Y-71265210D01*
X150680000Y-64167795D01*
X150572661Y-63628166D01*
X150319444Y-63249201D01*
X150242968Y-62864729D01*
X149911439Y-62368561D01*
X149585968Y-62151088D01*
X163500000Y-62151088D01*
X163500000Y-62548912D01*
X163652241Y-62916454D01*
X163933546Y-63197759D01*
X164301088Y-63350000D01*
X164698912Y-63350000D01*
X164718921Y-63341712D01*
X166176283Y-64799075D01*
X166176286Y-64799077D01*
X170750923Y-69373715D01*
X170801136Y-69448864D01*
X171098837Y-69647781D01*
X171361358Y-69700000D01*
X171361359Y-69700000D01*
X171450000Y-69717632D01*
X171538641Y-69700000D01*
X171859667Y-69700000D01*
X172101088Y-69800000D01*
X172498912Y-69800000D01*
X172866454Y-69647759D01*
X173147759Y-69366454D01*
X173300000Y-68998912D01*
X173300000Y-68601088D01*
X173147759Y-68233546D01*
X172866454Y-67952241D01*
X172498912Y-67800000D01*
X172101088Y-67800000D01*
X171859667Y-67900000D01*
X171822792Y-67900000D01*
X170132072Y-66209281D01*
X170351088Y-66300000D01*
X170748912Y-66300000D01*
X171116454Y-66147759D01*
X171364234Y-65899979D01*
X179845438Y-65899979D01*
X179700000Y-66251098D01*
X179700000Y-66648922D01*
X179852241Y-67016464D01*
X180133546Y-67297769D01*
X180374968Y-67397769D01*
X181750913Y-68773715D01*
X181801126Y-68848864D01*
X182098827Y-69047781D01*
X182361348Y-69100000D01*
X182361349Y-69100000D01*
X182449990Y-69117632D01*
X182538631Y-69100000D01*
X185511359Y-69100000D01*
X185600000Y-69117632D01*
X185688641Y-69100000D01*
X185688642Y-69100000D01*
X185951163Y-69047781D01*
X186248864Y-68848864D01*
X186299078Y-68773713D01*
X186872792Y-68200000D01*
X189627209Y-68200000D01*
X190900000Y-69472793D01*
X190900001Y-73991354D01*
X190882368Y-74080000D01*
X190952219Y-74431161D01*
X190952220Y-74431162D01*
X190952220Y-74431163D01*
X191151137Y-74728864D01*
X191226285Y-74779076D01*
X192845707Y-76398498D01*
X192811593Y-76570000D01*
X192924130Y-77135762D01*
X193244608Y-77615392D01*
X193327321Y-77670659D01*
X193205892Y-77694813D01*
X193007425Y-77827425D01*
X192874813Y-78025892D01*
X192828246Y-78260000D01*
X192828246Y-79960000D01*
X192874813Y-80194108D01*
X193007425Y-80392575D01*
X193205892Y-80525187D01*
X193440000Y-80571754D01*
X195140000Y-80571754D01*
X195374108Y-80525187D01*
X195572575Y-80392575D01*
X195705187Y-80194108D01*
X195751754Y-79960000D01*
X195751754Y-78260000D01*
X195705187Y-78025892D01*
X195572575Y-77827425D01*
X195374108Y-77694813D01*
X195252679Y-77670659D01*
X195335392Y-77615392D01*
X195655870Y-77135762D01*
X195768407Y-76570000D01*
X195655870Y-76004238D01*
X195335392Y-75524608D01*
X195083621Y-75356380D01*
X195149608Y-75329403D01*
X195581434Y-74901534D01*
X195816651Y-74340982D01*
X195819446Y-74326914D01*
X195669944Y-74084000D01*
X194344000Y-74084000D01*
X194344000Y-74104000D01*
X194236000Y-74104000D01*
X194236000Y-74084000D01*
X194216000Y-74084000D01*
X194216000Y-73976000D01*
X194236000Y-73976000D01*
X194236000Y-73956000D01*
X194344000Y-73956000D01*
X194344000Y-73976000D01*
X195669944Y-73976000D01*
X195819446Y-73733086D01*
X195816651Y-73719018D01*
X195581434Y-73158466D01*
X195149608Y-72730597D01*
X195083621Y-72703620D01*
X195335392Y-72535392D01*
X195655870Y-72055762D01*
X195768407Y-71490000D01*
X195655870Y-70924238D01*
X195335392Y-70444608D01*
X194999242Y-70220000D01*
X195335392Y-69995392D01*
X195655870Y-69515762D01*
X195768407Y-68950000D01*
X195655870Y-68384238D01*
X195335392Y-67904608D01*
X195195109Y-67810874D01*
X195207632Y-67747918D01*
X195167822Y-67547781D01*
X195137781Y-67396756D01*
X194938864Y-67099055D01*
X194863716Y-67048843D01*
X192241138Y-64426266D01*
X192190924Y-64351115D01*
X191893223Y-64152198D01*
X191630702Y-64099979D01*
X191630701Y-64099979D01*
X191542060Y-64082347D01*
X191453419Y-64099979D01*
X186942917Y-64099979D01*
X187365762Y-64015870D01*
X187845392Y-63695392D01*
X188165870Y-63215762D01*
X188250000Y-62792811D01*
X188250000Y-62162393D01*
X199700000Y-62162393D01*
X199700000Y-63037607D01*
X200034930Y-63846200D01*
X200653800Y-64465070D01*
X201462393Y-64800000D01*
X202337607Y-64800000D01*
X203146200Y-64465070D01*
X203765070Y-63846200D01*
X204100000Y-63037607D01*
X204100000Y-62162393D01*
X203765070Y-61353800D01*
X203146200Y-60734930D01*
X202337607Y-60400000D01*
X201462393Y-60400000D01*
X200653800Y-60734930D01*
X200034930Y-61353800D01*
X199700000Y-62162393D01*
X188250000Y-62162393D01*
X188250000Y-62007188D01*
X188165870Y-61584238D01*
X187845391Y-61104608D01*
X187365761Y-60784130D01*
X186800000Y-60671593D01*
X186234238Y-60784130D01*
X185754608Y-61104609D01*
X185550000Y-61410827D01*
X185345391Y-61104608D01*
X184865761Y-60784130D01*
X184300000Y-60671593D01*
X183734238Y-60784130D01*
X183254608Y-61104609D01*
X183186995Y-61205799D01*
X183170488Y-61165946D01*
X183147385Y-61122724D01*
X183080764Y-61023018D01*
X183049674Y-60985134D01*
X182964866Y-60900326D01*
X182926982Y-60869236D01*
X182827276Y-60802615D01*
X182784054Y-60779512D01*
X182673250Y-60733616D01*
X182626352Y-60719390D01*
X182508739Y-60695995D01*
X182459966Y-60691191D01*
X182400000Y-60688245D01*
X181200000Y-60688245D01*
X181140034Y-60691191D01*
X181091261Y-60695995D01*
X180973648Y-60719390D01*
X180926750Y-60733616D01*
X180815946Y-60779512D01*
X180772724Y-60802615D01*
X180673018Y-60869236D01*
X180635134Y-60900326D01*
X180550326Y-60985134D01*
X180519236Y-61023018D01*
X180452615Y-61122724D01*
X180429512Y-61165946D01*
X180383616Y-61276750D01*
X180369390Y-61323648D01*
X180345995Y-61441261D01*
X180341191Y-61490034D01*
X180338245Y-61550000D01*
X180338245Y-63250000D01*
X180341191Y-63309966D01*
X180345995Y-63358739D01*
X180369390Y-63476352D01*
X180383616Y-63523250D01*
X180429512Y-63634054D01*
X180452615Y-63677276D01*
X180519236Y-63776982D01*
X180550326Y-63814866D01*
X180635134Y-63899674D01*
X180673018Y-63930764D01*
X180772724Y-63997385D01*
X180815946Y-64020488D01*
X180926750Y-64066384D01*
X180973648Y-64080610D01*
X181071021Y-64099979D01*
X170938662Y-64099979D01*
X170850021Y-64082347D01*
X170761380Y-64099979D01*
X170761379Y-64099979D01*
X170498858Y-64152198D01*
X170201157Y-64351115D01*
X170191005Y-64366309D01*
X169983546Y-64452241D01*
X169702241Y-64733546D01*
X169550000Y-65101088D01*
X169550000Y-65498912D01*
X169640719Y-65717928D01*
X167449077Y-63526286D01*
X167449075Y-63526283D01*
X165699078Y-61776287D01*
X165648864Y-61701136D01*
X165351163Y-61502219D01*
X165088642Y-61450000D01*
X165088641Y-61450000D01*
X165000000Y-61432368D01*
X164930933Y-61446106D01*
X164698912Y-61350000D01*
X164301088Y-61350000D01*
X163933546Y-61502241D01*
X163652241Y-61783546D01*
X163500000Y-62151088D01*
X149585968Y-62151088D01*
X149415270Y-62037032D01*
X148830000Y-61920614D01*
X148244729Y-62037032D01*
X147748561Y-62368561D01*
X147417032Y-62864730D01*
X147340556Y-63249201D01*
X147087339Y-63628167D01*
X146980000Y-64167796D01*
X146980001Y-71927794D01*
X146943758Y-72110000D01*
X140337716Y-72110000D01*
X139814586Y-71586870D01*
X139097879Y-71290000D01*
X138322121Y-71290000D01*
X137605414Y-71586870D01*
X137056870Y-72135414D01*
X136760000Y-72852121D01*
X129560000Y-72852121D01*
X129560000Y-72822284D01*
X129240294Y-72050446D01*
X128649554Y-71459706D01*
X127877716Y-71140000D01*
X127042284Y-71140000D01*
X126270446Y-71459706D01*
X125679706Y-72050446D01*
X125360000Y-72822284D01*
X125175000Y-72822284D01*
X125175000Y-62162393D01*
X125900000Y-62162393D01*
X125900000Y-63037607D01*
X126234930Y-63846200D01*
X126853800Y-64465070D01*
X127662393Y-64800000D01*
X128537607Y-64800000D01*
X129066320Y-64581000D01*
X136722000Y-64581000D01*
X136722000Y-66290830D01*
X136829787Y-66551050D01*
X137028950Y-66750213D01*
X137289170Y-66858000D01*
X138099000Y-66858000D01*
X138276000Y-66681000D01*
X138276000Y-64404000D01*
X138384000Y-64404000D01*
X138384000Y-66681000D01*
X138561000Y-66858000D01*
X139370830Y-66858000D01*
X139631050Y-66750213D01*
X139830213Y-66551050D01*
X139938000Y-66290830D01*
X139938000Y-64581000D01*
X139761000Y-64404000D01*
X138384000Y-64404000D01*
X138276000Y-64404000D01*
X136899000Y-64404000D01*
X136722000Y-64581000D01*
X129066320Y-64581000D01*
X129346200Y-64465070D01*
X129965070Y-63846200D01*
X130300000Y-63037607D01*
X130300000Y-62409170D01*
X136722000Y-62409170D01*
X136722000Y-64119000D01*
X136899000Y-64296000D01*
X138276000Y-64296000D01*
X138276000Y-62019000D01*
X138384000Y-62019000D01*
X138384000Y-64296000D01*
X139761000Y-64296000D01*
X139938000Y-64119000D01*
X139938000Y-63302268D01*
X140330000Y-63302268D01*
X140330001Y-65397733D01*
X140417033Y-65835271D01*
X140748562Y-66331439D01*
X141244730Y-66662968D01*
X141830000Y-66779386D01*
X142415271Y-66662968D01*
X142911439Y-66331439D01*
X143242968Y-65835271D01*
X143330000Y-65397733D01*
X143330000Y-63302268D01*
X143830000Y-63302268D01*
X143830001Y-65397733D01*
X143917033Y-65835271D01*
X144248562Y-66331439D01*
X144744730Y-66662968D01*
X145330000Y-66779386D01*
X145915271Y-66662968D01*
X146411439Y-66331439D01*
X146742968Y-65835271D01*
X146830000Y-65397733D01*
X146830000Y-63302267D01*
X146742968Y-62864729D01*
X146411439Y-62368561D01*
X145915270Y-62037032D01*
X145330000Y-61920614D01*
X144744729Y-62037032D01*
X144248561Y-62368561D01*
X143917032Y-62864730D01*
X143830000Y-63302268D01*
X143330000Y-63302268D01*
X143330000Y-63302267D01*
X143242968Y-62864729D01*
X142911439Y-62368561D01*
X142415270Y-62037032D01*
X141830000Y-61920614D01*
X141244729Y-62037032D01*
X140748561Y-62368561D01*
X140417032Y-62864730D01*
X140330000Y-63302268D01*
X139938000Y-63302268D01*
X139938000Y-62409170D01*
X139830213Y-62148950D01*
X139631050Y-61949787D01*
X139370830Y-61842000D01*
X138561000Y-61842000D01*
X138384000Y-62019000D01*
X138276000Y-62019000D01*
X138099000Y-61842000D01*
X137289170Y-61842000D01*
X137028950Y-61949787D01*
X136829787Y-62148950D01*
X136722000Y-62409170D01*
X130300000Y-62409170D01*
X130300000Y-62162393D01*
X129965070Y-61353800D01*
X129346200Y-60734930D01*
X128537607Y-60400000D01*
X127662393Y-60400000D01*
X126853800Y-60734930D01*
X126234930Y-61353800D01*
X125900000Y-62162393D01*
X125175000Y-62162393D01*
X125175000Y-59675000D01*
X204825000Y-59675000D01*
X204825001Y-118325000D01*
X204825001Y-118325000D01*
G37*
X204825001Y-118325000D02*
X125175000Y-118325000D01*
X125175000Y-114962393D01*
X125900000Y-114962393D01*
X125900000Y-115837607D01*
X126234930Y-116646200D01*
X126853800Y-117265070D01*
X127662393Y-117600000D01*
X128537607Y-117600000D01*
X129346200Y-117265070D01*
X129965070Y-116646200D01*
X130300000Y-115837607D01*
X130300000Y-115247732D01*
X177000000Y-115247732D01*
X177087032Y-115685270D01*
X177418561Y-116181439D01*
X177914729Y-116512968D01*
X178500000Y-116629386D01*
X179085270Y-116512968D01*
X179581439Y-116181439D01*
X179912968Y-115685271D01*
X180000000Y-115247733D01*
X180000000Y-115247732D01*
X180500000Y-115247732D01*
X180587032Y-115685270D01*
X180918561Y-116181439D01*
X181414729Y-116512968D01*
X182000000Y-116629386D01*
X182585270Y-116512968D01*
X183081439Y-116181439D01*
X183412968Y-115685271D01*
X183500000Y-115247733D01*
X183500000Y-115247732D01*
X184000000Y-115247732D01*
X184087032Y-115685270D01*
X184418561Y-116181439D01*
X184914729Y-116512968D01*
X185500000Y-116629386D01*
X186085270Y-116512968D01*
X186581439Y-116181439D01*
X186912968Y-115685271D01*
X187000000Y-115247733D01*
X187000000Y-114431000D01*
X187392000Y-114431000D01*
X187392000Y-116140830D01*
X187499787Y-116401050D01*
X187698950Y-116600213D01*
X187959170Y-116708000D01*
X188769000Y-116708000D01*
X188946000Y-116531000D01*
X188946000Y-114254000D01*
X189054000Y-114254000D01*
X189054000Y-116531000D01*
X189231000Y-116708000D01*
X190040830Y-116708000D01*
X190301050Y-116600213D01*
X190500213Y-116401050D01*
X190608000Y-116140830D01*
X190608000Y-114962393D01*
X199700000Y-114962393D01*
X199700000Y-115837607D01*
X200034930Y-116646200D01*
X200653800Y-117265070D01*
X201462393Y-117600000D01*
X202337607Y-117600000D01*
X203146200Y-117265070D01*
X203765070Y-116646200D01*
X204100000Y-115837607D01*
X204100000Y-114962393D01*
X203765070Y-114153800D01*
X203146200Y-113534930D01*
X202337607Y-113200000D01*
X201462393Y-113200000D01*
X200653800Y-113534930D01*
X200034930Y-114153800D01*
X199700000Y-114962393D01*
X190608000Y-114962393D01*
X190608000Y-114431000D01*
X190431000Y-114254000D01*
X189054000Y-114254000D01*
X188946000Y-114254000D01*
X187569000Y-114254000D01*
X187392000Y-114431000D01*
X187000000Y-114431000D01*
X187000000Y-113152267D01*
X186912968Y-112714729D01*
X186608574Y-112259170D01*
X187392000Y-112259170D01*
X187392000Y-113969000D01*
X187569000Y-114146000D01*
X188946000Y-114146000D01*
X188946000Y-111869000D01*
X189054000Y-111869000D01*
X189054000Y-114146000D01*
X190431000Y-114146000D01*
X190608000Y-113969000D01*
X190608000Y-112259170D01*
X190500213Y-111998950D01*
X190301050Y-111799787D01*
X190040830Y-111692000D01*
X189231000Y-111692000D01*
X189054000Y-111869000D01*
X188946000Y-111869000D01*
X188769000Y-111692000D01*
X187959170Y-111692000D01*
X187698950Y-111799787D01*
X187499787Y-111998950D01*
X187392000Y-112259170D01*
X186608574Y-112259170D01*
X186581439Y-112218561D01*
X186085271Y-111887032D01*
X185500000Y-111770614D01*
X184914730Y-111887032D01*
X184418562Y-112218561D01*
X184087033Y-112714729D01*
X184000001Y-113152267D01*
X184000000Y-115247732D01*
X183500000Y-115247732D01*
X183500000Y-113152267D01*
X183412968Y-112714729D01*
X183081439Y-112218561D01*
X182585271Y-111887032D01*
X182000000Y-111770614D01*
X181414730Y-111887032D01*
X180918562Y-112218561D01*
X180587033Y-112714729D01*
X180500001Y-113152267D01*
X180500000Y-115247732D01*
X180000000Y-115247732D01*
X180000000Y-113152267D01*
X179912968Y-112714729D01*
X179581439Y-112218561D01*
X179085271Y-111887032D01*
X178500000Y-111770614D01*
X177914730Y-111887032D01*
X177418562Y-112218561D01*
X177087033Y-112714729D01*
X177000001Y-113152267D01*
X177000000Y-115247732D01*
X130300000Y-115247732D01*
X130300000Y-114962393D01*
X129965070Y-114153800D01*
X129346200Y-113534930D01*
X128537607Y-113200000D01*
X127662393Y-113200000D01*
X126853800Y-113534930D01*
X126234930Y-114153800D01*
X125900000Y-114962393D01*
X125175000Y-114962393D01*
X125175000Y-102109170D01*
X138292000Y-102109170D01*
X138292000Y-103494000D01*
X138469000Y-103671000D01*
X138582320Y-103671000D01*
X138587943Y-103684574D01*
X138734913Y-103686283D01*
X138773630Y-103725000D01*
X138734913Y-103763717D01*
X138587943Y-103765426D01*
X138582531Y-103779000D01*
X138469000Y-103779000D01*
X138292000Y-103956000D01*
X138292000Y-105340830D01*
X138399787Y-105601050D01*
X138598950Y-105800213D01*
X138859170Y-105908000D01*
X141019000Y-105908000D01*
X141196000Y-105731000D01*
X141196000Y-105055370D01*
X141287827Y-104963543D01*
X141290426Y-105187057D01*
X141304000Y-105192469D01*
X141304000Y-105731000D01*
X141481000Y-105908000D01*
X143571990Y-105908000D01*
X143550000Y-105961088D01*
X143550000Y-106358912D01*
X143702241Y-106726454D01*
X143983546Y-107007759D01*
X144351088Y-107160000D01*
X144748912Y-107160000D01*
X144999990Y-107056000D01*
X199492000Y-107056000D01*
X199492000Y-107865830D01*
X199599787Y-108126050D01*
X199798950Y-108325213D01*
X200059170Y-108433000D01*
X201769000Y-108433000D01*
X201946000Y-108256000D01*
X201946000Y-106879000D01*
X202054000Y-106879000D01*
X202054000Y-108256000D01*
X202231000Y-108433000D01*
X203940830Y-108433000D01*
X204201050Y-108325213D01*
X204400213Y-108126050D01*
X204508000Y-107865830D01*
X204508000Y-107056000D01*
X204331000Y-106879000D01*
X202054000Y-106879000D01*
X201946000Y-106879000D01*
X199669000Y-106879000D01*
X199492000Y-107056000D01*
X144999990Y-107056000D01*
X145116454Y-107007759D01*
X145397759Y-106726454D01*
X145497760Y-106485032D01*
X146198622Y-105784170D01*
X199492000Y-105784170D01*
X199492000Y-106594000D01*
X199669000Y-106771000D01*
X201946000Y-106771000D01*
X201946000Y-105394000D01*
X202054000Y-105394000D01*
X202054000Y-106771000D01*
X204331000Y-106771000D01*
X204508000Y-106594000D01*
X204508000Y-105784170D01*
X204400213Y-105523950D01*
X204201050Y-105324787D01*
X203940830Y-105217000D01*
X202231000Y-105217000D01*
X202054000Y-105394000D01*
X201946000Y-105394000D01*
X201769000Y-105217000D01*
X200059170Y-105217000D01*
X199798950Y-105324787D01*
X199599787Y-105523950D01*
X199492000Y-105784170D01*
X146198622Y-105784170D01*
X148657792Y-103325000D01*
X199570614Y-103325000D01*
X199687032Y-103910271D01*
X200018561Y-104406439D01*
X200514729Y-104737968D01*
X200952267Y-104825000D01*
X203047733Y-104825000D01*
X203485271Y-104737968D01*
X203981439Y-104406439D01*
X204312968Y-103910271D01*
X204429386Y-103325000D01*
X204312968Y-102739729D01*
X203981439Y-102243561D01*
X203485271Y-101912032D01*
X203047733Y-101825000D01*
X200952267Y-101825000D01*
X200514729Y-101912032D01*
X200018561Y-102243561D01*
X199687032Y-102739729D01*
X199570614Y-103325000D01*
X148657792Y-103325000D01*
X148743716Y-103239076D01*
X148818864Y-103188864D01*
X149017781Y-102891163D01*
X149070000Y-102628642D01*
X149070000Y-102628641D01*
X149087632Y-102540001D01*
X149070000Y-102451360D01*
X149070000Y-101310333D01*
X149170000Y-101068912D01*
X149170000Y-100671088D01*
X149017759Y-100303546D01*
X148736454Y-100022241D01*
X148368912Y-99870000D01*
X147971088Y-99870000D01*
X147603546Y-100022241D01*
X147322241Y-100303546D01*
X147170000Y-100671088D01*
X147170000Y-101068912D01*
X147270001Y-101310335D01*
X147270000Y-102167208D01*
X144224968Y-105212240D01*
X144208000Y-105219269D01*
X144208000Y-103956000D01*
X144031000Y-103779000D01*
X143917680Y-103779000D01*
X143912057Y-103765426D01*
X143765087Y-103763717D01*
X143726370Y-103725000D01*
X143765087Y-103686283D01*
X143912057Y-103684574D01*
X143917469Y-103671000D01*
X144031000Y-103671000D01*
X144208000Y-103494000D01*
X144208000Y-102109170D01*
X144100213Y-101848950D01*
X143901050Y-101649787D01*
X143640830Y-101542000D01*
X141481000Y-101542000D01*
X141304000Y-101719000D01*
X141304000Y-102257320D01*
X141290426Y-102262943D01*
X141287827Y-102486457D01*
X141196000Y-102394630D01*
X141196000Y-101719000D01*
X141019000Y-101542000D01*
X138859170Y-101542000D01*
X138598950Y-101649787D01*
X138399787Y-101848950D01*
X138292000Y-102109170D01*
X125175000Y-102109170D01*
X125175000Y-95556000D01*
X199542000Y-95556000D01*
X199542000Y-96365830D01*
X199649787Y-96626050D01*
X199848950Y-96825213D01*
X200109170Y-96933000D01*
X201819000Y-96933000D01*
X201996000Y-96756000D01*
X201996000Y-95379000D01*
X202104000Y-95379000D01*
X202104000Y-96756000D01*
X202281000Y-96933000D01*
X203990830Y-96933000D01*
X204251050Y-96825213D01*
X204450213Y-96626050D01*
X204558000Y-96365830D01*
X204558000Y-95556000D01*
X204381000Y-95379000D01*
X202104000Y-95379000D01*
X201996000Y-95379000D01*
X199719000Y-95379000D01*
X199542000Y-95556000D01*
X125175000Y-95556000D01*
X125175000Y-91301088D01*
X131400000Y-91301088D01*
X131400000Y-91698912D01*
X131552241Y-92066454D01*
X131833546Y-92347759D01*
X132201088Y-92500000D01*
X132598912Y-92500000D01*
X132966454Y-92347759D01*
X133247759Y-92066454D01*
X133400000Y-91698912D01*
X133400000Y-91301088D01*
X133300000Y-91059667D01*
X133300000Y-88921088D01*
X142830000Y-88921088D01*
X142830000Y-89318912D01*
X142982241Y-89686454D01*
X143263546Y-89967759D01*
X143631088Y-90120000D01*
X144028912Y-90120000D01*
X144396454Y-89967759D01*
X144677759Y-89686454D01*
X144777760Y-89445032D01*
X148533716Y-85689076D01*
X148608864Y-85638864D01*
X148807781Y-85341163D01*
X148860000Y-85078642D01*
X148860000Y-85078641D01*
X148877632Y-84990001D01*
X148860000Y-84901360D01*
X148860000Y-83630333D01*
X148960000Y-83388912D01*
X148960000Y-82991088D01*
X148807759Y-82623546D01*
X148526454Y-82342241D01*
X148158912Y-82190000D01*
X147761088Y-82190000D01*
X147393546Y-82342241D01*
X147112241Y-82623546D01*
X146960000Y-82991088D01*
X146960000Y-83388912D01*
X147060001Y-83630335D01*
X147060000Y-84617208D01*
X143504968Y-88172240D01*
X143263546Y-88272241D01*
X142982241Y-88553546D01*
X142830000Y-88921088D01*
X133300000Y-88921088D01*
X133300000Y-86635472D01*
X134032036Y-85903437D01*
X134166454Y-85847759D01*
X134447759Y-85566454D01*
X134600000Y-85198912D01*
X134600000Y-84801088D01*
X134447759Y-84433546D01*
X134275171Y-84260958D01*
X137796578Y-84260958D01*
X137796578Y-85645788D01*
X137973578Y-85822788D01*
X138086898Y-85822788D01*
X138092521Y-85836362D01*
X138239491Y-85838071D01*
X138278208Y-85876788D01*
X138239491Y-85915505D01*
X138092521Y-85917214D01*
X138087109Y-85930788D01*
X137973578Y-85930788D01*
X137796578Y-86107788D01*
X137796578Y-87492618D01*
X137904365Y-87752838D01*
X138103528Y-87952001D01*
X138363748Y-88059788D01*
X140523578Y-88059788D01*
X140700578Y-87882788D01*
X140700578Y-87207158D01*
X140792405Y-87115331D01*
X140795004Y-87338845D01*
X140808578Y-87344257D01*
X140808578Y-87882788D01*
X140985578Y-88059788D01*
X143145408Y-88059788D01*
X143405628Y-87952001D01*
X143604791Y-87752838D01*
X143712578Y-87492618D01*
X143712578Y-86107788D01*
X143535578Y-85930788D01*
X143422258Y-85930788D01*
X143416635Y-85917214D01*
X143269665Y-85915505D01*
X143230948Y-85876788D01*
X143269665Y-85838071D01*
X143416635Y-85836362D01*
X143422047Y-85822788D01*
X143535578Y-85822788D01*
X143712578Y-85645788D01*
X143712578Y-84260958D01*
X143604791Y-84000738D01*
X143405628Y-83801575D01*
X143145408Y-83693788D01*
X140985578Y-83693788D01*
X140808578Y-83870788D01*
X140808578Y-84409108D01*
X140795004Y-84414731D01*
X140792405Y-84638245D01*
X140700578Y-84546418D01*
X140700578Y-83870788D01*
X140523578Y-83693788D01*
X138363748Y-83693788D01*
X138103528Y-83801575D01*
X137904365Y-84000738D01*
X137796578Y-84260958D01*
X134275171Y-84260958D01*
X134166454Y-84152241D01*
X133798912Y-84000000D01*
X133401088Y-84000000D01*
X133033546Y-84152241D01*
X132752241Y-84433546D01*
X132607919Y-84781971D01*
X131826285Y-85563605D01*
X131751137Y-85613817D01*
X131594823Y-85847759D01*
X131552219Y-85911520D01*
X131482368Y-86262681D01*
X131500001Y-86351327D01*
X131500000Y-91059667D01*
X131400000Y-91301088D01*
X125175000Y-91301088D01*
X125175000Y-89184778D01*
X127572511Y-89184778D01*
X127572511Y-89582602D01*
X127724752Y-89950144D01*
X128006057Y-90231449D01*
X128373599Y-90383690D01*
X128771423Y-90383690D01*
X129138965Y-90231449D01*
X129420270Y-89950144D01*
X129572511Y-89582602D01*
X129572511Y-89184778D01*
X129472511Y-88943357D01*
X129472511Y-79590280D01*
X130645033Y-78417759D01*
X130886454Y-78317759D01*
X131167759Y-78036454D01*
X131320000Y-77668912D01*
X131320000Y-77271088D01*
X131167759Y-76903546D01*
X131065301Y-76801088D01*
X167900000Y-76801088D01*
X167900000Y-77198912D01*
X168052241Y-77566454D01*
X168333546Y-77847759D01*
X168574968Y-77947759D01*
X171500001Y-80872794D01*
X171500000Y-90711359D01*
X171482368Y-90800000D01*
X171500000Y-90888641D01*
X171552219Y-91151162D01*
X171751136Y-91448864D01*
X171826287Y-91499078D01*
X171852241Y-91525032D01*
X171952241Y-91766454D01*
X172233546Y-92047759D01*
X172601088Y-92200000D01*
X172998912Y-92200000D01*
X173366454Y-92047759D01*
X173647759Y-91766454D01*
X173800000Y-91398912D01*
X173800000Y-91001088D01*
X173647759Y-90633546D01*
X173366454Y-90352241D01*
X173300000Y-90324715D01*
X173300000Y-84591707D01*
X173501088Y-84675000D01*
X173898912Y-84675000D01*
X174266454Y-84522759D01*
X174400001Y-84389212D01*
X174400000Y-90759667D01*
X174300000Y-91001088D01*
X174300000Y-91398912D01*
X174452241Y-91766454D01*
X174733546Y-92047759D01*
X175101088Y-92200000D01*
X175498912Y-92200000D01*
X175589860Y-92162328D01*
X175582367Y-92199999D01*
X175599999Y-92288640D01*
X175652218Y-92551161D01*
X175851135Y-92848863D01*
X175926286Y-92899077D01*
X177552241Y-94525033D01*
X177652241Y-94766454D01*
X177933546Y-95047759D01*
X178301088Y-95200000D01*
X178698912Y-95200000D01*
X179066454Y-95047759D01*
X179347759Y-94766454D01*
X179500000Y-94398912D01*
X179500000Y-94284170D01*
X199542000Y-94284170D01*
X199542000Y-95094000D01*
X199719000Y-95271000D01*
X201996000Y-95271000D01*
X201996000Y-93894000D01*
X202104000Y-93894000D01*
X202104000Y-95271000D01*
X204381000Y-95271000D01*
X204558000Y-95094000D01*
X204558000Y-94284170D01*
X204450213Y-94023950D01*
X204251050Y-93824787D01*
X203990830Y-93717000D01*
X202281000Y-93717000D01*
X202104000Y-93894000D01*
X201996000Y-93894000D01*
X201819000Y-93717000D01*
X200109170Y-93717000D01*
X199848950Y-93824787D01*
X199649787Y-94023950D01*
X199542000Y-94284170D01*
X179500000Y-94284170D01*
X179500000Y-94001088D01*
X179347759Y-93633546D01*
X179066454Y-93352241D01*
X178825033Y-93252241D01*
X177399999Y-91827208D01*
X177399999Y-91825000D01*
X199620614Y-91825000D01*
X199737032Y-92410271D01*
X200068561Y-92906439D01*
X200564729Y-93237968D01*
X201002267Y-93325000D01*
X203097733Y-93325000D01*
X203535271Y-93237968D01*
X204031439Y-92906439D01*
X204362968Y-92410271D01*
X204479386Y-91825000D01*
X204362968Y-91239729D01*
X204031439Y-90743561D01*
X203535271Y-90412032D01*
X203097733Y-90325000D01*
X201002267Y-90325000D01*
X200564729Y-90412032D01*
X200068561Y-90743561D01*
X199737032Y-91239729D01*
X199620614Y-91825000D01*
X177399999Y-91825000D01*
X177399999Y-87181513D01*
X177426287Y-87199078D01*
X178800924Y-88573716D01*
X178851137Y-88648865D01*
X179148838Y-88847782D01*
X179411359Y-88900001D01*
X179411360Y-88900001D01*
X179500001Y-88917633D01*
X179588642Y-88900001D01*
X183924715Y-88900001D01*
X183952241Y-88966454D01*
X184233546Y-89247759D01*
X184601088Y-89400000D01*
X184998912Y-89400000D01*
X185366454Y-89247759D01*
X185647759Y-88966454D01*
X185800000Y-88598912D01*
X185800000Y-88201088D01*
X185647759Y-87833546D01*
X185366454Y-87552241D01*
X185125031Y-87452240D01*
X185099080Y-87426289D01*
X185048865Y-87351137D01*
X184751164Y-87152220D01*
X184488643Y-87100001D01*
X184488642Y-87100001D01*
X184400001Y-87082369D01*
X184311360Y-87100001D01*
X179872793Y-87100001D01*
X178900000Y-86127209D01*
X178900000Y-83001088D01*
X195500000Y-83001088D01*
X195500000Y-83398912D01*
X195652241Y-83766454D01*
X195933546Y-84047759D01*
X196301088Y-84200000D01*
X196698912Y-84200000D01*
X197066454Y-84047759D01*
X197347759Y-83766454D01*
X197447759Y-83525033D01*
X197473715Y-83499077D01*
X197548864Y-83448864D01*
X197747781Y-83151163D01*
X197800000Y-82888642D01*
X197800000Y-82888639D01*
X197817631Y-82800001D01*
X197800000Y-82711363D01*
X197800000Y-77366477D01*
X198785663Y-76380815D01*
X199076281Y-76575000D01*
X198754804Y-76789804D01*
X198431320Y-77273932D01*
X198317727Y-77845000D01*
X198431320Y-78416068D01*
X198754804Y-78900196D01*
X199076281Y-79115000D01*
X198754804Y-79329804D01*
X198431320Y-79813932D01*
X198317727Y-80385000D01*
X198431320Y-80956068D01*
X198754804Y-81440196D01*
X199076281Y-81655000D01*
X198754804Y-81869804D01*
X198431320Y-82353932D01*
X198317727Y-82925000D01*
X198431320Y-83496068D01*
X198754804Y-83980196D01*
X199238932Y-84303680D01*
X199665852Y-84388600D01*
X199954148Y-84388600D01*
X200381068Y-84303680D01*
X200865196Y-83980196D01*
X200901846Y-83925345D01*
X200921213Y-84022708D01*
X201053825Y-84221175D01*
X201252292Y-84353787D01*
X201486400Y-84400354D01*
X203213600Y-84400354D01*
X203447708Y-84353787D01*
X203646175Y-84221175D01*
X203778787Y-84022708D01*
X203825354Y-83788600D01*
X203825354Y-82061400D01*
X203778787Y-81827292D01*
X203646175Y-81628825D01*
X203447708Y-81496213D01*
X203350345Y-81476846D01*
X203405196Y-81440196D01*
X203728680Y-80956068D01*
X203842273Y-80385000D01*
X203728680Y-79813932D01*
X203405196Y-79329804D01*
X203172266Y-79174165D01*
X203216719Y-79156007D01*
X203652445Y-78724534D01*
X203889885Y-78159159D01*
X203892887Y-78144042D01*
X203743554Y-77899000D01*
X202404000Y-77899000D01*
X202404000Y-77919000D01*
X202296000Y-77919000D01*
X202296000Y-77899000D01*
X202276000Y-77899000D01*
X202276000Y-77791000D01*
X202296000Y-77791000D01*
X202296000Y-77771000D01*
X202404000Y-77771000D01*
X202404000Y-77791000D01*
X203743554Y-77791000D01*
X203892887Y-77545958D01*
X203889885Y-77530841D01*
X203652445Y-76965466D01*
X203216719Y-76533993D01*
X203172266Y-76515835D01*
X203405196Y-76360196D01*
X203728680Y-75876068D01*
X203842273Y-75305000D01*
X203728680Y-74733932D01*
X203405196Y-74249804D01*
X203083719Y-74035000D01*
X203405196Y-73820196D01*
X203728680Y-73336068D01*
X203842273Y-72765000D01*
X203728680Y-72193932D01*
X203405196Y-71709804D01*
X202921068Y-71386320D01*
X202494148Y-71301400D01*
X202205852Y-71301400D01*
X201778932Y-71386320D01*
X201294804Y-71709804D01*
X201080000Y-72031281D01*
X200865196Y-71709804D01*
X200381068Y-71386320D01*
X199954148Y-71301400D01*
X199665852Y-71301400D01*
X199238932Y-71386320D01*
X198754804Y-71709804D01*
X198431320Y-72193932D01*
X198317727Y-72765000D01*
X198431320Y-73336068D01*
X198754804Y-73820196D01*
X199076281Y-74035000D01*
X198754804Y-74249804D01*
X198654182Y-74400396D01*
X198588686Y-74387368D01*
X198500045Y-74405000D01*
X198500044Y-74405000D01*
X198237523Y-74457219D01*
X197939822Y-74656136D01*
X197889609Y-74731285D01*
X196326287Y-76294608D01*
X196251136Y-76344822D01*
X196052219Y-76642524D01*
X196016691Y-76821136D01*
X195982368Y-76993686D01*
X196000000Y-77082327D01*
X196000001Y-82324714D01*
X195933546Y-82352241D01*
X195652241Y-82633546D01*
X195500000Y-83001088D01*
X178900000Y-83001088D01*
X178900000Y-81288640D01*
X178917632Y-81199999D01*
X178847781Y-80848837D01*
X178715681Y-80651135D01*
X178648864Y-80551136D01*
X178573715Y-80500923D01*
X178347759Y-80274968D01*
X178247759Y-80033546D01*
X177966454Y-79752241D01*
X177598912Y-79600000D01*
X177201088Y-79600000D01*
X176833546Y-79752241D01*
X176572474Y-80013313D01*
X176298912Y-79900000D01*
X175901088Y-79900000D01*
X175533546Y-80052241D01*
X175252241Y-80333546D01*
X175100000Y-80701088D01*
X175100000Y-81098912D01*
X175252241Y-81466454D01*
X175533546Y-81747759D01*
X175600000Y-81775285D01*
X175600000Y-82500451D01*
X175598912Y-82500000D01*
X175201088Y-82500000D01*
X174833546Y-82652241D01*
X174600000Y-82885787D01*
X174600000Y-77788641D01*
X174617632Y-77700000D01*
X174547781Y-77348838D01*
X174547781Y-77348837D01*
X174348864Y-77051136D01*
X174273715Y-77000923D01*
X173547759Y-76274968D01*
X173447759Y-76033546D01*
X173166454Y-75752241D01*
X172798912Y-75600000D01*
X172401088Y-75600000D01*
X172033546Y-75752241D01*
X171752241Y-76033546D01*
X171600000Y-76401088D01*
X171600000Y-76798912D01*
X171752241Y-77166454D01*
X172033546Y-77447759D01*
X172274968Y-77547759D01*
X172800001Y-78072793D01*
X172800001Y-79627208D01*
X169847759Y-76674968D01*
X169747759Y-76433546D01*
X169466454Y-76152241D01*
X169098912Y-76000000D01*
X168701088Y-76000000D01*
X168333546Y-76152241D01*
X168052241Y-76433546D01*
X167900000Y-76801088D01*
X131065301Y-76801088D01*
X130886454Y-76622241D01*
X130518912Y-76470000D01*
X130121088Y-76470000D01*
X129753546Y-76622241D01*
X129472241Y-76903546D01*
X129372241Y-77144967D01*
X127998798Y-78518411D01*
X127923647Y-78568625D01*
X127724730Y-78866327D01*
X127678034Y-79101084D01*
X127654879Y-79217489D01*
X127672511Y-79306130D01*
X127672512Y-88729359D01*
X127672511Y-88729364D01*
X127672511Y-88943357D01*
X127572511Y-89184778D01*
X125175000Y-89184778D01*
X125175000Y-72822284D01*
X125360000Y-72822284D01*
X125360000Y-73657716D01*
X125679706Y-74429554D01*
X126270446Y-75020294D01*
X127042284Y-75340000D01*
X127877716Y-75340000D01*
X128649554Y-75020294D01*
X129240294Y-74429554D01*
X129560000Y-73657716D01*
X129560000Y-72852121D01*
X136760000Y-72852121D01*
X136760000Y-73627879D01*
X137056870Y-74344586D01*
X137605414Y-74893130D01*
X138322121Y-75190000D01*
X139097879Y-75190000D01*
X139814586Y-74893130D01*
X140363130Y-74344586D01*
X140660000Y-73627879D01*
X140660000Y-72852121D01*
X140363130Y-72135414D01*
X140337716Y-72110000D01*
X146943758Y-72110000D01*
X147087339Y-72831833D01*
X147308196Y-73162368D01*
X147496226Y-73443775D01*
X147650692Y-73546986D01*
X147929705Y-73825999D01*
X148179706Y-74429554D01*
X148770446Y-75020294D01*
X149542284Y-75340000D01*
X150377716Y-75340000D01*
X151149554Y-75020294D01*
X151740294Y-74429554D01*
X152042034Y-73701088D01*
X183900000Y-73701088D01*
X183900000Y-74098912D01*
X184000000Y-74340333D01*
X184000001Y-79111354D01*
X183982368Y-79200000D01*
X184052219Y-79551161D01*
X184052220Y-79551162D01*
X184052220Y-79551163D01*
X184251137Y-79848864D01*
X184326285Y-79899076D01*
X186252241Y-81825033D01*
X186352241Y-82066454D01*
X186633546Y-82347759D01*
X187001088Y-82500000D01*
X187398912Y-82500000D01*
X187766454Y-82347759D01*
X188047759Y-82066454D01*
X188200000Y-81698912D01*
X188200000Y-81301088D01*
X188047759Y-80933546D01*
X187766454Y-80652241D01*
X187525033Y-80552241D01*
X185800000Y-78827209D01*
X185800000Y-74340333D01*
X185900000Y-74098912D01*
X185900000Y-73701088D01*
X185747759Y-73333546D01*
X185466454Y-73052241D01*
X185098912Y-72900000D01*
X184701088Y-72900000D01*
X184333546Y-73052241D01*
X184052241Y-73333546D01*
X183900000Y-73701088D01*
X152042034Y-73701088D01*
X152060000Y-73657716D01*
X152060000Y-72822284D01*
X151740294Y-72050446D01*
X151149554Y-71459706D01*
X150680000Y-71265210D01*
X150680000Y-64167795D01*
X150572661Y-63628166D01*
X150319444Y-63249201D01*
X150242968Y-62864729D01*
X149911439Y-62368561D01*
X149585968Y-62151088D01*
X163500000Y-62151088D01*
X163500000Y-62548912D01*
X163652241Y-62916454D01*
X163933546Y-63197759D01*
X164301088Y-63350000D01*
X164698912Y-63350000D01*
X164718921Y-63341712D01*
X166176283Y-64799075D01*
X166176286Y-64799077D01*
X170750923Y-69373715D01*
X170801136Y-69448864D01*
X171098837Y-69647781D01*
X171361358Y-69700000D01*
X171361359Y-69700000D01*
X171450000Y-69717632D01*
X171538641Y-69700000D01*
X171859667Y-69700000D01*
X172101088Y-69800000D01*
X172498912Y-69800000D01*
X172866454Y-69647759D01*
X173147759Y-69366454D01*
X173300000Y-68998912D01*
X173300000Y-68601088D01*
X173147759Y-68233546D01*
X172866454Y-67952241D01*
X172498912Y-67800000D01*
X172101088Y-67800000D01*
X171859667Y-67900000D01*
X171822792Y-67900000D01*
X170132072Y-66209281D01*
X170351088Y-66300000D01*
X170748912Y-66300000D01*
X171116454Y-66147759D01*
X171364234Y-65899979D01*
X179845438Y-65899979D01*
X179700000Y-66251098D01*
X179700000Y-66648922D01*
X179852241Y-67016464D01*
X180133546Y-67297769D01*
X180374968Y-67397769D01*
X181750913Y-68773715D01*
X181801126Y-68848864D01*
X182098827Y-69047781D01*
X182361348Y-69100000D01*
X182361349Y-69100000D01*
X182449990Y-69117632D01*
X182538631Y-69100000D01*
X185511359Y-69100000D01*
X185600000Y-69117632D01*
X185688641Y-69100000D01*
X185688642Y-69100000D01*
X185951163Y-69047781D01*
X186248864Y-68848864D01*
X186299078Y-68773713D01*
X186872792Y-68200000D01*
X189627209Y-68200000D01*
X190900000Y-69472793D01*
X190900001Y-73991354D01*
X190882368Y-74080000D01*
X190952219Y-74431161D01*
X190952220Y-74431162D01*
X190952220Y-74431163D01*
X191151137Y-74728864D01*
X191226285Y-74779076D01*
X192845707Y-76398498D01*
X192811593Y-76570000D01*
X192924130Y-77135762D01*
X193244608Y-77615392D01*
X193327321Y-77670659D01*
X193205892Y-77694813D01*
X193007425Y-77827425D01*
X192874813Y-78025892D01*
X192828246Y-78260000D01*
X192828246Y-79960000D01*
X192874813Y-80194108D01*
X193007425Y-80392575D01*
X193205892Y-80525187D01*
X193440000Y-80571754D01*
X195140000Y-80571754D01*
X195374108Y-80525187D01*
X195572575Y-80392575D01*
X195705187Y-80194108D01*
X195751754Y-79960000D01*
X195751754Y-78260000D01*
X195705187Y-78025892D01*
X195572575Y-77827425D01*
X195374108Y-77694813D01*
X195252679Y-77670659D01*
X195335392Y-77615392D01*
X195655870Y-77135762D01*
X195768407Y-76570000D01*
X195655870Y-76004238D01*
X195335392Y-75524608D01*
X195083621Y-75356380D01*
X195149608Y-75329403D01*
X195581434Y-74901534D01*
X195816651Y-74340982D01*
X195819446Y-74326914D01*
X195669944Y-74084000D01*
X194344000Y-74084000D01*
X194344000Y-74104000D01*
X194236000Y-74104000D01*
X194236000Y-74084000D01*
X194216000Y-74084000D01*
X194216000Y-73976000D01*
X194236000Y-73976000D01*
X194236000Y-73956000D01*
X194344000Y-73956000D01*
X194344000Y-73976000D01*
X195669944Y-73976000D01*
X195819446Y-73733086D01*
X195816651Y-73719018D01*
X195581434Y-73158466D01*
X195149608Y-72730597D01*
X195083621Y-72703620D01*
X195335392Y-72535392D01*
X195655870Y-72055762D01*
X195768407Y-71490000D01*
X195655870Y-70924238D01*
X195335392Y-70444608D01*
X194999242Y-70220000D01*
X195335392Y-69995392D01*
X195655870Y-69515762D01*
X195768407Y-68950000D01*
X195655870Y-68384238D01*
X195335392Y-67904608D01*
X195195109Y-67810874D01*
X195207632Y-67747918D01*
X195167822Y-67547781D01*
X195137781Y-67396756D01*
X194938864Y-67099055D01*
X194863716Y-67048843D01*
X192241138Y-64426266D01*
X192190924Y-64351115D01*
X191893223Y-64152198D01*
X191630702Y-64099979D01*
X191630701Y-64099979D01*
X191542060Y-64082347D01*
X191453419Y-64099979D01*
X186942917Y-64099979D01*
X187365762Y-64015870D01*
X187845392Y-63695392D01*
X188165870Y-63215762D01*
X188250000Y-62792811D01*
X188250000Y-62162393D01*
X199700000Y-62162393D01*
X199700000Y-63037607D01*
X200034930Y-63846200D01*
X200653800Y-64465070D01*
X201462393Y-64800000D01*
X202337607Y-64800000D01*
X203146200Y-64465070D01*
X203765070Y-63846200D01*
X204100000Y-63037607D01*
X204100000Y-62162393D01*
X203765070Y-61353800D01*
X203146200Y-60734930D01*
X202337607Y-60400000D01*
X201462393Y-60400000D01*
X200653800Y-60734930D01*
X200034930Y-61353800D01*
X199700000Y-62162393D01*
X188250000Y-62162393D01*
X188250000Y-62007188D01*
X188165870Y-61584238D01*
X187845391Y-61104608D01*
X187365761Y-60784130D01*
X186800000Y-60671593D01*
X186234238Y-60784130D01*
X185754608Y-61104609D01*
X185550000Y-61410827D01*
X185345391Y-61104608D01*
X184865761Y-60784130D01*
X184300000Y-60671593D01*
X183734238Y-60784130D01*
X183254608Y-61104609D01*
X183186995Y-61205799D01*
X183170488Y-61165946D01*
X183147385Y-61122724D01*
X183080764Y-61023018D01*
X183049674Y-60985134D01*
X182964866Y-60900326D01*
X182926982Y-60869236D01*
X182827276Y-60802615D01*
X182784054Y-60779512D01*
X182673250Y-60733616D01*
X182626352Y-60719390D01*
X182508739Y-60695995D01*
X182459966Y-60691191D01*
X182400000Y-60688245D01*
X181200000Y-60688245D01*
X181140034Y-60691191D01*
X181091261Y-60695995D01*
X180973648Y-60719390D01*
X180926750Y-60733616D01*
X180815946Y-60779512D01*
X180772724Y-60802615D01*
X180673018Y-60869236D01*
X180635134Y-60900326D01*
X180550326Y-60985134D01*
X180519236Y-61023018D01*
X180452615Y-61122724D01*
X180429512Y-61165946D01*
X180383616Y-61276750D01*
X180369390Y-61323648D01*
X180345995Y-61441261D01*
X180341191Y-61490034D01*
X180338245Y-61550000D01*
X180338245Y-63250000D01*
X180341191Y-63309966D01*
X180345995Y-63358739D01*
X180369390Y-63476352D01*
X180383616Y-63523250D01*
X180429512Y-63634054D01*
X180452615Y-63677276D01*
X180519236Y-63776982D01*
X180550326Y-63814866D01*
X180635134Y-63899674D01*
X180673018Y-63930764D01*
X180772724Y-63997385D01*
X180815946Y-64020488D01*
X180926750Y-64066384D01*
X180973648Y-64080610D01*
X181071021Y-64099979D01*
X170938662Y-64099979D01*
X170850021Y-64082347D01*
X170761380Y-64099979D01*
X170761379Y-64099979D01*
X170498858Y-64152198D01*
X170201157Y-64351115D01*
X170191005Y-64366309D01*
X169983546Y-64452241D01*
X169702241Y-64733546D01*
X169550000Y-65101088D01*
X169550000Y-65498912D01*
X169640719Y-65717928D01*
X167449077Y-63526286D01*
X167449075Y-63526283D01*
X165699078Y-61776287D01*
X165648864Y-61701136D01*
X165351163Y-61502219D01*
X165088642Y-61450000D01*
X165088641Y-61450000D01*
X165000000Y-61432368D01*
X164930933Y-61446106D01*
X164698912Y-61350000D01*
X164301088Y-61350000D01*
X163933546Y-61502241D01*
X163652241Y-61783546D01*
X163500000Y-62151088D01*
X149585968Y-62151088D01*
X149415270Y-62037032D01*
X148830000Y-61920614D01*
X148244729Y-62037032D01*
X147748561Y-62368561D01*
X147417032Y-62864730D01*
X147340556Y-63249201D01*
X147087339Y-63628167D01*
X146980000Y-64167796D01*
X146980001Y-71927794D01*
X146943758Y-72110000D01*
X140337716Y-72110000D01*
X139814586Y-71586870D01*
X139097879Y-71290000D01*
X138322121Y-71290000D01*
X137605414Y-71586870D01*
X137056870Y-72135414D01*
X136760000Y-72852121D01*
X129560000Y-72852121D01*
X129560000Y-72822284D01*
X129240294Y-72050446D01*
X128649554Y-71459706D01*
X127877716Y-71140000D01*
X127042284Y-71140000D01*
X126270446Y-71459706D01*
X125679706Y-72050446D01*
X125360000Y-72822284D01*
X125175000Y-72822284D01*
X125175000Y-62162393D01*
X125900000Y-62162393D01*
X125900000Y-63037607D01*
X126234930Y-63846200D01*
X126853800Y-64465070D01*
X127662393Y-64800000D01*
X128537607Y-64800000D01*
X129066320Y-64581000D01*
X136722000Y-64581000D01*
X136722000Y-66290830D01*
X136829787Y-66551050D01*
X137028950Y-66750213D01*
X137289170Y-66858000D01*
X138099000Y-66858000D01*
X138276000Y-66681000D01*
X138276000Y-64404000D01*
X138384000Y-64404000D01*
X138384000Y-66681000D01*
X138561000Y-66858000D01*
X139370830Y-66858000D01*
X139631050Y-66750213D01*
X139830213Y-66551050D01*
X139938000Y-66290830D01*
X139938000Y-64581000D01*
X139761000Y-64404000D01*
X138384000Y-64404000D01*
X138276000Y-64404000D01*
X136899000Y-64404000D01*
X136722000Y-64581000D01*
X129066320Y-64581000D01*
X129346200Y-64465070D01*
X129965070Y-63846200D01*
X130300000Y-63037607D01*
X130300000Y-62409170D01*
X136722000Y-62409170D01*
X136722000Y-64119000D01*
X136899000Y-64296000D01*
X138276000Y-64296000D01*
X138276000Y-62019000D01*
X138384000Y-62019000D01*
X138384000Y-64296000D01*
X139761000Y-64296000D01*
X139938000Y-64119000D01*
X139938000Y-63302268D01*
X140330000Y-63302268D01*
X140330001Y-65397733D01*
X140417033Y-65835271D01*
X140748562Y-66331439D01*
X141244730Y-66662968D01*
X141830000Y-66779386D01*
X142415271Y-66662968D01*
X142911439Y-66331439D01*
X143242968Y-65835271D01*
X143330000Y-65397733D01*
X143330000Y-63302268D01*
X143830000Y-63302268D01*
X143830001Y-65397733D01*
X143917033Y-65835271D01*
X144248562Y-66331439D01*
X144744730Y-66662968D01*
X145330000Y-66779386D01*
X145915271Y-66662968D01*
X146411439Y-66331439D01*
X146742968Y-65835271D01*
X146830000Y-65397733D01*
X146830000Y-63302267D01*
X146742968Y-62864729D01*
X146411439Y-62368561D01*
X145915270Y-62037032D01*
X145330000Y-61920614D01*
X144744729Y-62037032D01*
X144248561Y-62368561D01*
X143917032Y-62864730D01*
X143830000Y-63302268D01*
X143330000Y-63302268D01*
X143330000Y-63302267D01*
X143242968Y-62864729D01*
X142911439Y-62368561D01*
X142415270Y-62037032D01*
X141830000Y-61920614D01*
X141244729Y-62037032D01*
X140748561Y-62368561D01*
X140417032Y-62864730D01*
X140330000Y-63302268D01*
X139938000Y-63302268D01*
X139938000Y-62409170D01*
X139830213Y-62148950D01*
X139631050Y-61949787D01*
X139370830Y-61842000D01*
X138561000Y-61842000D01*
X138384000Y-62019000D01*
X138276000Y-62019000D01*
X138099000Y-61842000D01*
X137289170Y-61842000D01*
X137028950Y-61949787D01*
X136829787Y-62148950D01*
X136722000Y-62409170D01*
X130300000Y-62409170D01*
X130300000Y-62162393D01*
X129965070Y-61353800D01*
X129346200Y-60734930D01*
X128537607Y-60400000D01*
X127662393Y-60400000D01*
X126853800Y-60734930D01*
X126234930Y-61353800D01*
X125900000Y-62162393D01*
X125175000Y-62162393D01*
X125175000Y-59675000D01*
X204825000Y-59675000D01*
X204825001Y-118325000D01*
G04 #@! TD*
M02*
