G04 #@! TF.GenerationSoftware,KiCad,Pcbnew,5.0.1*
G04 #@! TF.CreationDate,2019-04-04T21:15:17+02:00*
G04 #@! TF.ProjectId,psu,7073752E6B696361645F706362000000,0.2*
G04 #@! TF.SameCoordinates,Original*
G04 #@! TF.FileFunction,Soldermask,Top*
G04 #@! TF.FilePolarity,Negative*
%FSLAX46Y46*%
G04 Gerber Fmt 4.6, Leading zero omitted, Abs format (unit mm)*
G04 Created by KiCad (PCBNEW 5.0.1) date Čt 4. dubna 2019, 21:15:17 CEST*
%MOMM*%
%LPD*%
G01*
G04 APERTURE LIST*
%ADD10C,0.100000*%
G04 APERTURE END LIST*
D10*
G36*
X173075975Y-112127873D02*
X173107882Y-112137552D01*
X173137292Y-112153273D01*
X173163071Y-112174429D01*
X173184227Y-112200208D01*
X173199948Y-112229618D01*
X173209627Y-112261525D01*
X173213500Y-112300853D01*
X173213500Y-117499147D01*
X173209627Y-117538475D01*
X173199948Y-117570382D01*
X173184227Y-117599792D01*
X173163071Y-117625571D01*
X173137292Y-117646727D01*
X173107882Y-117662448D01*
X173075975Y-117672127D01*
X173036647Y-117676000D01*
X171363353Y-117676000D01*
X171324025Y-117672127D01*
X171292118Y-117662448D01*
X171262708Y-117646727D01*
X171236929Y-117625571D01*
X171215773Y-117599792D01*
X171200052Y-117570382D01*
X171190373Y-117538475D01*
X171186500Y-117499147D01*
X171186500Y-112300853D01*
X171190373Y-112261525D01*
X171200052Y-112229618D01*
X171215773Y-112200208D01*
X171236929Y-112174429D01*
X171262708Y-112153273D01*
X171292118Y-112137552D01*
X171324025Y-112127873D01*
X171363353Y-112124000D01*
X173036647Y-112124000D01*
X173075975Y-112127873D01*
X173075975Y-112127873D01*
G37*
G36*
X166300975Y-112127873D02*
X166332882Y-112137552D01*
X166362292Y-112153273D01*
X166388071Y-112174429D01*
X166409227Y-112200208D01*
X166424948Y-112229618D01*
X166434627Y-112261525D01*
X166438500Y-112300853D01*
X166438500Y-117499147D01*
X166434627Y-117538475D01*
X166424948Y-117570382D01*
X166409227Y-117599792D01*
X166388071Y-117625571D01*
X166362292Y-117646727D01*
X166332882Y-117662448D01*
X166300975Y-117672127D01*
X166261647Y-117676000D01*
X164588353Y-117676000D01*
X164549025Y-117672127D01*
X164517118Y-117662448D01*
X164487708Y-117646727D01*
X164461929Y-117625571D01*
X164440773Y-117599792D01*
X164425052Y-117570382D01*
X164415373Y-117538475D01*
X164411500Y-117499147D01*
X164411500Y-112300853D01*
X164415373Y-112261525D01*
X164425052Y-112229618D01*
X164440773Y-112200208D01*
X164461929Y-112174429D01*
X164487708Y-112153273D01*
X164517118Y-112137552D01*
X164549025Y-112127873D01*
X164588353Y-112124000D01*
X166261647Y-112124000D01*
X166300975Y-112127873D01*
X166300975Y-112127873D01*
G37*
G36*
X202275256Y-113791298D02*
X202381579Y-113812447D01*
X202682042Y-113936903D01*
X202948852Y-114115180D01*
X202952454Y-114117587D01*
X203182413Y-114347546D01*
X203363098Y-114617960D01*
X203487553Y-114918422D01*
X203551000Y-115237389D01*
X203551000Y-115562611D01*
X203537415Y-115630905D01*
X203487553Y-115881579D01*
X203423076Y-116037239D01*
X203363098Y-116182040D01*
X203182413Y-116452454D01*
X202952454Y-116682413D01*
X202952451Y-116682415D01*
X202682042Y-116863097D01*
X202381579Y-116987553D01*
X202275256Y-117008702D01*
X202062611Y-117051000D01*
X201737389Y-117051000D01*
X201524744Y-117008702D01*
X201418421Y-116987553D01*
X201117958Y-116863097D01*
X200847549Y-116682415D01*
X200847546Y-116682413D01*
X200617587Y-116452454D01*
X200436902Y-116182040D01*
X200376924Y-116037239D01*
X200312447Y-115881579D01*
X200262585Y-115630905D01*
X200249000Y-115562611D01*
X200249000Y-115237389D01*
X200312447Y-114918422D01*
X200436902Y-114617960D01*
X200617587Y-114347546D01*
X200847546Y-114117587D01*
X200851148Y-114115180D01*
X201117958Y-113936903D01*
X201418421Y-113812447D01*
X201524744Y-113791298D01*
X201737389Y-113749000D01*
X202062611Y-113749000D01*
X202275256Y-113791298D01*
X202275256Y-113791298D01*
G37*
G36*
X128475256Y-113791298D02*
X128581579Y-113812447D01*
X128882042Y-113936903D01*
X129148852Y-114115180D01*
X129152454Y-114117587D01*
X129382413Y-114347546D01*
X129563098Y-114617960D01*
X129687553Y-114918422D01*
X129751000Y-115237389D01*
X129751000Y-115562611D01*
X129737415Y-115630905D01*
X129687553Y-115881579D01*
X129623076Y-116037239D01*
X129563098Y-116182040D01*
X129382413Y-116452454D01*
X129152454Y-116682413D01*
X129152451Y-116682415D01*
X128882042Y-116863097D01*
X128581579Y-116987553D01*
X128475256Y-117008702D01*
X128262611Y-117051000D01*
X127937389Y-117051000D01*
X127724744Y-117008702D01*
X127618421Y-116987553D01*
X127317958Y-116863097D01*
X127047549Y-116682415D01*
X127047546Y-116682413D01*
X126817587Y-116452454D01*
X126636902Y-116182040D01*
X126576924Y-116037239D01*
X126512447Y-115881579D01*
X126462585Y-115630905D01*
X126449000Y-115562611D01*
X126449000Y-115237389D01*
X126512447Y-114918422D01*
X126636902Y-114617960D01*
X126817587Y-114347546D01*
X127047546Y-114117587D01*
X127051148Y-114115180D01*
X127317958Y-113936903D01*
X127618421Y-113812447D01*
X127724744Y-113791298D01*
X127937389Y-113749000D01*
X128262611Y-113749000D01*
X128475256Y-113791298D01*
X128475256Y-113791298D01*
G37*
G36*
X185686425Y-112362760D02*
X185686428Y-112362761D01*
X185686429Y-112362761D01*
X185865693Y-112417140D01*
X185865695Y-112417141D01*
X186030905Y-112505448D01*
X186175712Y-112624288D01*
X186294552Y-112769095D01*
X186294553Y-112769097D01*
X186382860Y-112934307D01*
X186434792Y-113105505D01*
X186437240Y-113113575D01*
X186451000Y-113253282D01*
X186451000Y-115146718D01*
X186437240Y-115286425D01*
X186382859Y-115465695D01*
X186294552Y-115630905D01*
X186175712Y-115775712D01*
X186030904Y-115894554D01*
X185865697Y-115982858D01*
X185865694Y-115982859D01*
X185865692Y-115982860D01*
X185686428Y-116037239D01*
X185686427Y-116037239D01*
X185686424Y-116037240D01*
X185500000Y-116055601D01*
X185313575Y-116037240D01*
X185313572Y-116037239D01*
X185313571Y-116037239D01*
X185134307Y-115982860D01*
X185042143Y-115933597D01*
X184969095Y-115894552D01*
X184824288Y-115775712D01*
X184705446Y-115630904D01*
X184617142Y-115465697D01*
X184562762Y-115286429D01*
X184562761Y-115286428D01*
X184562761Y-115286427D01*
X184562760Y-115286424D01*
X184549000Y-115146717D01*
X184549000Y-113253283D01*
X184562761Y-113113575D01*
X184565209Y-113105505D01*
X184617141Y-112934307D01*
X184705448Y-112769097D01*
X184705449Y-112769095D01*
X184824289Y-112624288D01*
X184969096Y-112505448D01*
X185134306Y-112417141D01*
X185134308Y-112417140D01*
X185313572Y-112362761D01*
X185313573Y-112362761D01*
X185313576Y-112362760D01*
X185500000Y-112344399D01*
X185686425Y-112362760D01*
X185686425Y-112362760D01*
G37*
G36*
X182186425Y-112362760D02*
X182186428Y-112362761D01*
X182186429Y-112362761D01*
X182365693Y-112417140D01*
X182365695Y-112417141D01*
X182530905Y-112505448D01*
X182675712Y-112624288D01*
X182794552Y-112769095D01*
X182794553Y-112769097D01*
X182882860Y-112934307D01*
X182934792Y-113105505D01*
X182937240Y-113113575D01*
X182951000Y-113253282D01*
X182951000Y-115146718D01*
X182937240Y-115286425D01*
X182882859Y-115465695D01*
X182794552Y-115630905D01*
X182675712Y-115775712D01*
X182530904Y-115894554D01*
X182365697Y-115982858D01*
X182365694Y-115982859D01*
X182365692Y-115982860D01*
X182186428Y-116037239D01*
X182186427Y-116037239D01*
X182186424Y-116037240D01*
X182000000Y-116055601D01*
X181813575Y-116037240D01*
X181813572Y-116037239D01*
X181813571Y-116037239D01*
X181634307Y-115982860D01*
X181542143Y-115933597D01*
X181469095Y-115894552D01*
X181324288Y-115775712D01*
X181205446Y-115630904D01*
X181117142Y-115465697D01*
X181062762Y-115286429D01*
X181062761Y-115286428D01*
X181062761Y-115286427D01*
X181062760Y-115286424D01*
X181049000Y-115146717D01*
X181049000Y-113253283D01*
X181062761Y-113113575D01*
X181065209Y-113105505D01*
X181117141Y-112934307D01*
X181205448Y-112769097D01*
X181205449Y-112769095D01*
X181324289Y-112624288D01*
X181469096Y-112505448D01*
X181634306Y-112417141D01*
X181634308Y-112417140D01*
X181813572Y-112362761D01*
X181813573Y-112362761D01*
X181813576Y-112362760D01*
X182000000Y-112344399D01*
X182186425Y-112362760D01*
X182186425Y-112362760D01*
G37*
G36*
X178686425Y-112362760D02*
X178686428Y-112362761D01*
X178686429Y-112362761D01*
X178865693Y-112417140D01*
X178865695Y-112417141D01*
X179030905Y-112505448D01*
X179175712Y-112624288D01*
X179294552Y-112769095D01*
X179294553Y-112769097D01*
X179382860Y-112934307D01*
X179434792Y-113105505D01*
X179437240Y-113113575D01*
X179451000Y-113253282D01*
X179451000Y-115146718D01*
X179437240Y-115286425D01*
X179382859Y-115465695D01*
X179294552Y-115630905D01*
X179175712Y-115775712D01*
X179030904Y-115894554D01*
X178865697Y-115982858D01*
X178865694Y-115982859D01*
X178865692Y-115982860D01*
X178686428Y-116037239D01*
X178686427Y-116037239D01*
X178686424Y-116037240D01*
X178500000Y-116055601D01*
X178313575Y-116037240D01*
X178313572Y-116037239D01*
X178313571Y-116037239D01*
X178134307Y-115982860D01*
X178042143Y-115933597D01*
X177969095Y-115894552D01*
X177824288Y-115775712D01*
X177705446Y-115630904D01*
X177617142Y-115465697D01*
X177562762Y-115286429D01*
X177562761Y-115286428D01*
X177562761Y-115286427D01*
X177562760Y-115286424D01*
X177549000Y-115146717D01*
X177549000Y-113253283D01*
X177562761Y-113113575D01*
X177565209Y-113105505D01*
X177617141Y-112934307D01*
X177705448Y-112769097D01*
X177705449Y-112769095D01*
X177824289Y-112624288D01*
X177969096Y-112505448D01*
X178134306Y-112417141D01*
X178134308Y-112417140D01*
X178313572Y-112362761D01*
X178313573Y-112362761D01*
X178313576Y-112362760D01*
X178500000Y-112344399D01*
X178686425Y-112362760D01*
X178686425Y-112362760D01*
G37*
G36*
X189810918Y-112352934D02*
X189843424Y-112362795D01*
X189873383Y-112378808D01*
X189899641Y-112400359D01*
X189921192Y-112426617D01*
X189937205Y-112456576D01*
X189947066Y-112489082D01*
X189951000Y-112529029D01*
X189951000Y-115870971D01*
X189947066Y-115910918D01*
X189937205Y-115943424D01*
X189921192Y-115973383D01*
X189899641Y-115999641D01*
X189873383Y-116021192D01*
X189843424Y-116037205D01*
X189810918Y-116047066D01*
X189770971Y-116051000D01*
X188229029Y-116051000D01*
X188189082Y-116047066D01*
X188156576Y-116037205D01*
X188126617Y-116021192D01*
X188100359Y-115999641D01*
X188078808Y-115973383D01*
X188062795Y-115943424D01*
X188052934Y-115910918D01*
X188049000Y-115870971D01*
X188049000Y-112529029D01*
X188052934Y-112489082D01*
X188062795Y-112456576D01*
X188078808Y-112426617D01*
X188100359Y-112400359D01*
X188126617Y-112378808D01*
X188156576Y-112362795D01*
X188189082Y-112352934D01*
X188229029Y-112349000D01*
X189770971Y-112349000D01*
X189810918Y-112352934D01*
X189810918Y-112352934D01*
G37*
G36*
X158596966Y-111628565D02*
X158635637Y-111640296D01*
X158671279Y-111659348D01*
X158702517Y-111684983D01*
X158728152Y-111716221D01*
X158747204Y-111751863D01*
X158758935Y-111790534D01*
X158763500Y-111836888D01*
X158763500Y-112913112D01*
X158758935Y-112959466D01*
X158747204Y-112998137D01*
X158728152Y-113033779D01*
X158702517Y-113065017D01*
X158671279Y-113090652D01*
X158635637Y-113109704D01*
X158596966Y-113121435D01*
X158550612Y-113126000D01*
X157899388Y-113126000D01*
X157853034Y-113121435D01*
X157814363Y-113109704D01*
X157778721Y-113090652D01*
X157747483Y-113065017D01*
X157721848Y-113033779D01*
X157702796Y-112998137D01*
X157691065Y-112959466D01*
X157686500Y-112913112D01*
X157686500Y-111836888D01*
X157691065Y-111790534D01*
X157702796Y-111751863D01*
X157721848Y-111716221D01*
X157747483Y-111684983D01*
X157778721Y-111659348D01*
X157814363Y-111640296D01*
X157853034Y-111628565D01*
X157899388Y-111624000D01*
X158550612Y-111624000D01*
X158596966Y-111628565D01*
X158596966Y-111628565D01*
G37*
G36*
X156721966Y-111628565D02*
X156760637Y-111640296D01*
X156796279Y-111659348D01*
X156827517Y-111684983D01*
X156853152Y-111716221D01*
X156872204Y-111751863D01*
X156883935Y-111790534D01*
X156888500Y-111836888D01*
X156888500Y-112913112D01*
X156883935Y-112959466D01*
X156872204Y-112998137D01*
X156853152Y-113033779D01*
X156827517Y-113065017D01*
X156796279Y-113090652D01*
X156760637Y-113109704D01*
X156721966Y-113121435D01*
X156675612Y-113126000D01*
X156024388Y-113126000D01*
X155978034Y-113121435D01*
X155939363Y-113109704D01*
X155903721Y-113090652D01*
X155872483Y-113065017D01*
X155846848Y-113033779D01*
X155827796Y-112998137D01*
X155816065Y-112959466D01*
X155811500Y-112913112D01*
X155811500Y-111836888D01*
X155816065Y-111790534D01*
X155827796Y-111751863D01*
X155846848Y-111716221D01*
X155872483Y-111684983D01*
X155903721Y-111659348D01*
X155939363Y-111640296D01*
X155978034Y-111628565D01*
X156024388Y-111624000D01*
X156675612Y-111624000D01*
X156721966Y-111628565D01*
X156721966Y-111628565D01*
G37*
G36*
X162196966Y-111628565D02*
X162235637Y-111640296D01*
X162271279Y-111659348D01*
X162302517Y-111684983D01*
X162328152Y-111716221D01*
X162347204Y-111751863D01*
X162358935Y-111790534D01*
X162363500Y-111836888D01*
X162363500Y-112913112D01*
X162358935Y-112959466D01*
X162347204Y-112998137D01*
X162328152Y-113033779D01*
X162302517Y-113065017D01*
X162271279Y-113090652D01*
X162235637Y-113109704D01*
X162196966Y-113121435D01*
X162150612Y-113126000D01*
X161499388Y-113126000D01*
X161453034Y-113121435D01*
X161414363Y-113109704D01*
X161378721Y-113090652D01*
X161347483Y-113065017D01*
X161321848Y-113033779D01*
X161302796Y-112998137D01*
X161291065Y-112959466D01*
X161286500Y-112913112D01*
X161286500Y-111836888D01*
X161291065Y-111790534D01*
X161302796Y-111751863D01*
X161321848Y-111716221D01*
X161347483Y-111684983D01*
X161378721Y-111659348D01*
X161414363Y-111640296D01*
X161453034Y-111628565D01*
X161499388Y-111624000D01*
X162150612Y-111624000D01*
X162196966Y-111628565D01*
X162196966Y-111628565D01*
G37*
G36*
X160321966Y-111628565D02*
X160360637Y-111640296D01*
X160396279Y-111659348D01*
X160427517Y-111684983D01*
X160453152Y-111716221D01*
X160472204Y-111751863D01*
X160483935Y-111790534D01*
X160488500Y-111836888D01*
X160488500Y-112913112D01*
X160483935Y-112959466D01*
X160472204Y-112998137D01*
X160453152Y-113033779D01*
X160427517Y-113065017D01*
X160396279Y-113090652D01*
X160360637Y-113109704D01*
X160321966Y-113121435D01*
X160275612Y-113126000D01*
X159624388Y-113126000D01*
X159578034Y-113121435D01*
X159539363Y-113109704D01*
X159503721Y-113090652D01*
X159472483Y-113065017D01*
X159446848Y-113033779D01*
X159427796Y-112998137D01*
X159416065Y-112959466D01*
X159411500Y-112913112D01*
X159411500Y-111836888D01*
X159416065Y-111790534D01*
X159427796Y-111751863D01*
X159446848Y-111716221D01*
X159472483Y-111684983D01*
X159503721Y-111659348D01*
X159539363Y-111640296D01*
X159578034Y-111628565D01*
X159624388Y-111624000D01*
X160275612Y-111624000D01*
X160321966Y-111628565D01*
X160321966Y-111628565D01*
G37*
G36*
X148226000Y-112976000D02*
X145824000Y-112976000D01*
X145824000Y-110374000D01*
X148226000Y-110374000D01*
X148226000Y-112976000D01*
X148226000Y-112976000D01*
G37*
G36*
X138521966Y-109678565D02*
X138560637Y-109690296D01*
X138596279Y-109709348D01*
X138627517Y-109734983D01*
X138653152Y-109766221D01*
X138672204Y-109801863D01*
X138683935Y-109840534D01*
X138688500Y-109886888D01*
X138688500Y-110963112D01*
X138683935Y-111009466D01*
X138672204Y-111048137D01*
X138653152Y-111083779D01*
X138627517Y-111115017D01*
X138596279Y-111140652D01*
X138560637Y-111159704D01*
X138521966Y-111171435D01*
X138475612Y-111176000D01*
X137824388Y-111176000D01*
X137778034Y-111171435D01*
X137739363Y-111159704D01*
X137703721Y-111140652D01*
X137672483Y-111115017D01*
X137646848Y-111083779D01*
X137627796Y-111048137D01*
X137616065Y-111009466D01*
X137611500Y-110963112D01*
X137611500Y-109886888D01*
X137616065Y-109840534D01*
X137627796Y-109801863D01*
X137646848Y-109766221D01*
X137672483Y-109734983D01*
X137703721Y-109709348D01*
X137739363Y-109690296D01*
X137778034Y-109678565D01*
X137824388Y-109674000D01*
X138475612Y-109674000D01*
X138521966Y-109678565D01*
X138521966Y-109678565D01*
G37*
G36*
X140396966Y-109678565D02*
X140435637Y-109690296D01*
X140471279Y-109709348D01*
X140502517Y-109734983D01*
X140528152Y-109766221D01*
X140547204Y-109801863D01*
X140558935Y-109840534D01*
X140563500Y-109886888D01*
X140563500Y-110963112D01*
X140558935Y-111009466D01*
X140547204Y-111048137D01*
X140528152Y-111083779D01*
X140502517Y-111115017D01*
X140471279Y-111140652D01*
X140435637Y-111159704D01*
X140396966Y-111171435D01*
X140350612Y-111176000D01*
X139699388Y-111176000D01*
X139653034Y-111171435D01*
X139614363Y-111159704D01*
X139578721Y-111140652D01*
X139547483Y-111115017D01*
X139521848Y-111083779D01*
X139502796Y-111048137D01*
X139491065Y-111009466D01*
X139486500Y-110963112D01*
X139486500Y-109886888D01*
X139491065Y-109840534D01*
X139502796Y-109801863D01*
X139521848Y-109766221D01*
X139547483Y-109734983D01*
X139578721Y-109709348D01*
X139614363Y-109690296D01*
X139653034Y-109678565D01*
X139699388Y-109674000D01*
X140350612Y-109674000D01*
X140396966Y-109678565D01*
X140396966Y-109678565D01*
G37*
G36*
X156876000Y-110726000D02*
X153174000Y-110726000D01*
X153174000Y-107924000D01*
X156876000Y-107924000D01*
X156876000Y-110726000D01*
X156876000Y-110726000D01*
G37*
G36*
X183450975Y-104327873D02*
X183482882Y-104337552D01*
X183512292Y-104353273D01*
X183538071Y-104374429D01*
X183559227Y-104400208D01*
X183574948Y-104429618D01*
X183584627Y-104461525D01*
X183588500Y-104500853D01*
X183588500Y-109699147D01*
X183584627Y-109738475D01*
X183574948Y-109770382D01*
X183559227Y-109799792D01*
X183538071Y-109825571D01*
X183512292Y-109846727D01*
X183482882Y-109862448D01*
X183450975Y-109872127D01*
X183411647Y-109876000D01*
X181738353Y-109876000D01*
X181699025Y-109872127D01*
X181667118Y-109862448D01*
X181637708Y-109846727D01*
X181611929Y-109825571D01*
X181590773Y-109799792D01*
X181575052Y-109770382D01*
X181565373Y-109738475D01*
X181561500Y-109699147D01*
X181561500Y-104500853D01*
X181565373Y-104461525D01*
X181575052Y-104429618D01*
X181590773Y-104400208D01*
X181611929Y-104374429D01*
X181637708Y-104353273D01*
X181667118Y-104337552D01*
X181699025Y-104327873D01*
X181738353Y-104324000D01*
X183411647Y-104324000D01*
X183450975Y-104327873D01*
X183450975Y-104327873D01*
G37*
G36*
X176675975Y-104327873D02*
X176707882Y-104337552D01*
X176737292Y-104353273D01*
X176763071Y-104374429D01*
X176784227Y-104400208D01*
X176799948Y-104429618D01*
X176809627Y-104461525D01*
X176813500Y-104500853D01*
X176813500Y-109699147D01*
X176809627Y-109738475D01*
X176799948Y-109770382D01*
X176784227Y-109799792D01*
X176763071Y-109825571D01*
X176737292Y-109846727D01*
X176707882Y-109862448D01*
X176675975Y-109872127D01*
X176636647Y-109876000D01*
X174963353Y-109876000D01*
X174924025Y-109872127D01*
X174892118Y-109862448D01*
X174862708Y-109846727D01*
X174836929Y-109825571D01*
X174815773Y-109799792D01*
X174800052Y-109770382D01*
X174790373Y-109738475D01*
X174786500Y-109699147D01*
X174786500Y-104500853D01*
X174790373Y-104461525D01*
X174800052Y-104429618D01*
X174815773Y-104400208D01*
X174836929Y-104374429D01*
X174862708Y-104353273D01*
X174892118Y-104337552D01*
X174924025Y-104327873D01*
X174963353Y-104324000D01*
X176636647Y-104324000D01*
X176675975Y-104327873D01*
X176675975Y-104327873D01*
G37*
G36*
X188262308Y-108540998D02*
X188300317Y-108552528D01*
X188335348Y-108571253D01*
X188366050Y-108596450D01*
X188391247Y-108627152D01*
X188409972Y-108662183D01*
X188421502Y-108700192D01*
X188426000Y-108745862D01*
X188426000Y-109554138D01*
X188421502Y-109599808D01*
X188409972Y-109637817D01*
X188391247Y-109672848D01*
X188366050Y-109703550D01*
X188335348Y-109728747D01*
X188300317Y-109747472D01*
X188262308Y-109759002D01*
X188216638Y-109763500D01*
X185133362Y-109763500D01*
X185087692Y-109759002D01*
X185049683Y-109747472D01*
X185014652Y-109728747D01*
X184983950Y-109703550D01*
X184958753Y-109672848D01*
X184940028Y-109637817D01*
X184928498Y-109599808D01*
X184924000Y-109554138D01*
X184924000Y-108745862D01*
X184928498Y-108700192D01*
X184940028Y-108662183D01*
X184958753Y-108627152D01*
X184983950Y-108596450D01*
X185014652Y-108571253D01*
X185049683Y-108552528D01*
X185087692Y-108540998D01*
X185133362Y-108536500D01*
X188216638Y-108536500D01*
X188262308Y-108540998D01*
X188262308Y-108540998D01*
G37*
G36*
X138521966Y-107748565D02*
X138560637Y-107760296D01*
X138596279Y-107779348D01*
X138627517Y-107804983D01*
X138653152Y-107836221D01*
X138672204Y-107871863D01*
X138683935Y-107910534D01*
X138688500Y-107956888D01*
X138688500Y-109033112D01*
X138683935Y-109079466D01*
X138672204Y-109118137D01*
X138653152Y-109153779D01*
X138627517Y-109185017D01*
X138596279Y-109210652D01*
X138560637Y-109229704D01*
X138521966Y-109241435D01*
X138475612Y-109246000D01*
X137824388Y-109246000D01*
X137778034Y-109241435D01*
X137739363Y-109229704D01*
X137703721Y-109210652D01*
X137672483Y-109185017D01*
X137646848Y-109153779D01*
X137627796Y-109118137D01*
X137616065Y-109079466D01*
X137611500Y-109033112D01*
X137611500Y-107956888D01*
X137616065Y-107910534D01*
X137627796Y-107871863D01*
X137646848Y-107836221D01*
X137672483Y-107804983D01*
X137703721Y-107779348D01*
X137739363Y-107760296D01*
X137778034Y-107748565D01*
X137824388Y-107744000D01*
X138475612Y-107744000D01*
X138521966Y-107748565D01*
X138521966Y-107748565D01*
G37*
G36*
X140396966Y-107748565D02*
X140435637Y-107760296D01*
X140471279Y-107779348D01*
X140502517Y-107804983D01*
X140528152Y-107836221D01*
X140547204Y-107871863D01*
X140558935Y-107910534D01*
X140563500Y-107956888D01*
X140563500Y-109033112D01*
X140558935Y-109079466D01*
X140547204Y-109118137D01*
X140528152Y-109153779D01*
X140502517Y-109185017D01*
X140471279Y-109210652D01*
X140435637Y-109229704D01*
X140396966Y-109241435D01*
X140350612Y-109246000D01*
X139699388Y-109246000D01*
X139653034Y-109241435D01*
X139614363Y-109229704D01*
X139578721Y-109210652D01*
X139547483Y-109185017D01*
X139521848Y-109153779D01*
X139502796Y-109118137D01*
X139491065Y-109079466D01*
X139486500Y-109033112D01*
X139486500Y-107956888D01*
X139491065Y-107910534D01*
X139502796Y-107871863D01*
X139521848Y-107836221D01*
X139547483Y-107804983D01*
X139578721Y-107779348D01*
X139614363Y-107760296D01*
X139653034Y-107748565D01*
X139699388Y-107744000D01*
X140350612Y-107744000D01*
X140396966Y-107748565D01*
X140396966Y-107748565D01*
G37*
G36*
X168376000Y-109226000D02*
X165274000Y-109226000D01*
X165274000Y-107524000D01*
X168376000Y-107524000D01*
X168376000Y-109226000D01*
X168376000Y-109226000D01*
G37*
G36*
X163976000Y-109226000D02*
X160874000Y-109226000D01*
X160874000Y-107524000D01*
X163976000Y-107524000D01*
X163976000Y-109226000D01*
X163976000Y-109226000D01*
G37*
G36*
X148226000Y-108676000D02*
X145824000Y-108676000D01*
X145824000Y-106074000D01*
X148226000Y-106074000D01*
X148226000Y-108676000D01*
X148226000Y-108676000D01*
G37*
G36*
X203710918Y-105877934D02*
X203743424Y-105887795D01*
X203773383Y-105903808D01*
X203799641Y-105925359D01*
X203821192Y-105951617D01*
X203837205Y-105981576D01*
X203847066Y-106014082D01*
X203851000Y-106054029D01*
X203851000Y-107595971D01*
X203847066Y-107635918D01*
X203837205Y-107668424D01*
X203821192Y-107698383D01*
X203799641Y-107724641D01*
X203773383Y-107746192D01*
X203743424Y-107762205D01*
X203710918Y-107772066D01*
X203670971Y-107776000D01*
X200329029Y-107776000D01*
X200289082Y-107772066D01*
X200256576Y-107762205D01*
X200226617Y-107746192D01*
X200200359Y-107724641D01*
X200178808Y-107698383D01*
X200162795Y-107668424D01*
X200152934Y-107635918D01*
X200149000Y-107595971D01*
X200149000Y-106054029D01*
X200152934Y-106014082D01*
X200162795Y-105981576D01*
X200178808Y-105951617D01*
X200200359Y-105925359D01*
X200226617Y-105903808D01*
X200256576Y-105887795D01*
X200289082Y-105877934D01*
X200329029Y-105874000D01*
X203670971Y-105874000D01*
X203710918Y-105877934D01*
X203710918Y-105877934D01*
G37*
G36*
X139696000Y-107251000D02*
X138994000Y-107251000D01*
X138994000Y-105599000D01*
X139696000Y-105599000D01*
X139696000Y-107251000D01*
X139696000Y-107251000D01*
G37*
G36*
X140966000Y-107251000D02*
X140264000Y-107251000D01*
X140264000Y-105599000D01*
X140966000Y-105599000D01*
X140966000Y-107251000D01*
X140966000Y-107251000D01*
G37*
G36*
X142236000Y-107251000D02*
X141534000Y-107251000D01*
X141534000Y-105599000D01*
X142236000Y-105599000D01*
X142236000Y-107251000D01*
X142236000Y-107251000D01*
G37*
G36*
X143506000Y-107251000D02*
X142804000Y-107251000D01*
X142804000Y-105599000D01*
X143506000Y-105599000D01*
X143506000Y-107251000D01*
X143506000Y-107251000D01*
G37*
G36*
X195649808Y-103703498D02*
X195687817Y-103715028D01*
X195722848Y-103733753D01*
X195753550Y-103758950D01*
X195778747Y-103789652D01*
X195797472Y-103824683D01*
X195809002Y-103862692D01*
X195813500Y-103908362D01*
X195813500Y-106991638D01*
X195809002Y-107037308D01*
X195797472Y-107075317D01*
X195778747Y-107110348D01*
X195753550Y-107141050D01*
X195722848Y-107166247D01*
X195687817Y-107184972D01*
X195649808Y-107196502D01*
X195604138Y-107201000D01*
X194795862Y-107201000D01*
X194750192Y-107196502D01*
X194712183Y-107184972D01*
X194677152Y-107166247D01*
X194646450Y-107141050D01*
X194621253Y-107110348D01*
X194602528Y-107075317D01*
X194590998Y-107037308D01*
X194586500Y-106991638D01*
X194586500Y-103908362D01*
X194590998Y-103862692D01*
X194602528Y-103824683D01*
X194621253Y-103789652D01*
X194646450Y-103758950D01*
X194677152Y-103733753D01*
X194712183Y-103715028D01*
X194750192Y-103703498D01*
X194795862Y-103699000D01*
X195604138Y-103699000D01*
X195649808Y-103703498D01*
X195649808Y-103703498D01*
G37*
G36*
X191374808Y-103703498D02*
X191412817Y-103715028D01*
X191447848Y-103733753D01*
X191478550Y-103758950D01*
X191503747Y-103789652D01*
X191522472Y-103824683D01*
X191534002Y-103862692D01*
X191538500Y-103908362D01*
X191538500Y-106991638D01*
X191534002Y-107037308D01*
X191522472Y-107075317D01*
X191503747Y-107110348D01*
X191478550Y-107141050D01*
X191447848Y-107166247D01*
X191412817Y-107184972D01*
X191374808Y-107196502D01*
X191329138Y-107201000D01*
X190520862Y-107201000D01*
X190475192Y-107196502D01*
X190437183Y-107184972D01*
X190402152Y-107166247D01*
X190371450Y-107141050D01*
X190346253Y-107110348D01*
X190327528Y-107075317D01*
X190315998Y-107037308D01*
X190311500Y-106991638D01*
X190311500Y-103908362D01*
X190315998Y-103862692D01*
X190327528Y-103824683D01*
X190346253Y-103789652D01*
X190371450Y-103758950D01*
X190402152Y-103733753D01*
X190437183Y-103715028D01*
X190475192Y-103703498D01*
X190520862Y-103699000D01*
X191329138Y-103699000D01*
X191374808Y-103703498D01*
X191374808Y-103703498D01*
G37*
G36*
X188262308Y-104265998D02*
X188300317Y-104277528D01*
X188335348Y-104296253D01*
X188366050Y-104321450D01*
X188391247Y-104352152D01*
X188409972Y-104387183D01*
X188421502Y-104425192D01*
X188426000Y-104470862D01*
X188426000Y-105279138D01*
X188421502Y-105324808D01*
X188409972Y-105362817D01*
X188391247Y-105397848D01*
X188366050Y-105428550D01*
X188335348Y-105453747D01*
X188300317Y-105472472D01*
X188262308Y-105484002D01*
X188216638Y-105488500D01*
X185133362Y-105488500D01*
X185087692Y-105484002D01*
X185049683Y-105472472D01*
X185014652Y-105453747D01*
X184983950Y-105428550D01*
X184958753Y-105397848D01*
X184940028Y-105362817D01*
X184928498Y-105324808D01*
X184924000Y-105279138D01*
X184924000Y-104470862D01*
X184928498Y-104425192D01*
X184940028Y-104387183D01*
X184958753Y-104352152D01*
X184983950Y-104321450D01*
X185014652Y-104296253D01*
X185049683Y-104277528D01*
X185087692Y-104265998D01*
X185133362Y-104261500D01*
X188216638Y-104261500D01*
X188262308Y-104265998D01*
X188262308Y-104265998D01*
G37*
G36*
X142851000Y-105076000D02*
X139649000Y-105076000D01*
X139649000Y-102374000D01*
X142851000Y-102374000D01*
X142851000Y-105076000D01*
X142851000Y-105076000D01*
G37*
G36*
X203086425Y-102387760D02*
X203086428Y-102387761D01*
X203086429Y-102387761D01*
X203265693Y-102442140D01*
X203265695Y-102442141D01*
X203430905Y-102530448D01*
X203575712Y-102649288D01*
X203694552Y-102794095D01*
X203732800Y-102865652D01*
X203782860Y-102959307D01*
X203837239Y-103138571D01*
X203837240Y-103138575D01*
X203855601Y-103325000D01*
X203837240Y-103511425D01*
X203782859Y-103690695D01*
X203694552Y-103855905D01*
X203575712Y-104000712D01*
X203430905Y-104119552D01*
X203430903Y-104119553D01*
X203265693Y-104207860D01*
X203086429Y-104262239D01*
X203086428Y-104262239D01*
X203086425Y-104262240D01*
X202946718Y-104276000D01*
X201053282Y-104276000D01*
X200913575Y-104262240D01*
X200913572Y-104262239D01*
X200913571Y-104262239D01*
X200734307Y-104207860D01*
X200569097Y-104119553D01*
X200569095Y-104119552D01*
X200424288Y-104000712D01*
X200305448Y-103855905D01*
X200217141Y-103690695D01*
X200162760Y-103511425D01*
X200144399Y-103325000D01*
X200162760Y-103138575D01*
X200162761Y-103138571D01*
X200217140Y-102959307D01*
X200267200Y-102865652D01*
X200305448Y-102794095D01*
X200424288Y-102649288D01*
X200569095Y-102530448D01*
X200734305Y-102442141D01*
X200734307Y-102442140D01*
X200913571Y-102387761D01*
X200913572Y-102387761D01*
X200913575Y-102387760D01*
X201053282Y-102374000D01*
X202946718Y-102374000D01*
X203086425Y-102387760D01*
X203086425Y-102387760D01*
G37*
G36*
X175743604Y-101403347D02*
X175780145Y-101414432D01*
X175813820Y-101432431D01*
X175843341Y-101456659D01*
X175867569Y-101486180D01*
X175885568Y-101519855D01*
X175896653Y-101556396D01*
X175901000Y-101600538D01*
X175901000Y-103049462D01*
X175896653Y-103093604D01*
X175885568Y-103130145D01*
X175867569Y-103163820D01*
X175843341Y-103193341D01*
X175813820Y-103217569D01*
X175780145Y-103235568D01*
X175743604Y-103246653D01*
X175699462Y-103251000D01*
X174750538Y-103251000D01*
X174706396Y-103246653D01*
X174669855Y-103235568D01*
X174636180Y-103217569D01*
X174606659Y-103193341D01*
X174582431Y-103163820D01*
X174564432Y-103130145D01*
X174553347Y-103093604D01*
X174549000Y-103049462D01*
X174549000Y-101600538D01*
X174553347Y-101556396D01*
X174564432Y-101519855D01*
X174582431Y-101486180D01*
X174606659Y-101456659D01*
X174636180Y-101432431D01*
X174669855Y-101414432D01*
X174706396Y-101403347D01*
X174750538Y-101399000D01*
X175699462Y-101399000D01*
X175743604Y-101403347D01*
X175743604Y-101403347D01*
G37*
G36*
X172943604Y-101403347D02*
X172980145Y-101414432D01*
X173013820Y-101432431D01*
X173043341Y-101456659D01*
X173067569Y-101486180D01*
X173085568Y-101519855D01*
X173096653Y-101556396D01*
X173101000Y-101600538D01*
X173101000Y-103049462D01*
X173096653Y-103093604D01*
X173085568Y-103130145D01*
X173067569Y-103163820D01*
X173043341Y-103193341D01*
X173013820Y-103217569D01*
X172980145Y-103235568D01*
X172943604Y-103246653D01*
X172899462Y-103251000D01*
X171950538Y-103251000D01*
X171906396Y-103246653D01*
X171869855Y-103235568D01*
X171836180Y-103217569D01*
X171806659Y-103193341D01*
X171782431Y-103163820D01*
X171764432Y-103130145D01*
X171753347Y-103093604D01*
X171749000Y-103049462D01*
X171749000Y-101600538D01*
X171753347Y-101556396D01*
X171764432Y-101519855D01*
X171782431Y-101486180D01*
X171806659Y-101456659D01*
X171836180Y-101432431D01*
X171869855Y-101414432D01*
X171906396Y-101403347D01*
X171950538Y-101399000D01*
X172899462Y-101399000D01*
X172943604Y-101403347D01*
X172943604Y-101403347D01*
G37*
G36*
X184418604Y-101278347D02*
X184455145Y-101289432D01*
X184488820Y-101307431D01*
X184518341Y-101331659D01*
X184542569Y-101361180D01*
X184560568Y-101394855D01*
X184571653Y-101431396D01*
X184576000Y-101475538D01*
X184576000Y-102924462D01*
X184571653Y-102968604D01*
X184560568Y-103005145D01*
X184542569Y-103038820D01*
X184518341Y-103068341D01*
X184488820Y-103092569D01*
X184455145Y-103110568D01*
X184418604Y-103121653D01*
X184374462Y-103126000D01*
X183425538Y-103126000D01*
X183381396Y-103121653D01*
X183344855Y-103110568D01*
X183311180Y-103092569D01*
X183281659Y-103068341D01*
X183257431Y-103038820D01*
X183239432Y-103005145D01*
X183228347Y-102968604D01*
X183224000Y-102924462D01*
X183224000Y-101475538D01*
X183228347Y-101431396D01*
X183239432Y-101394855D01*
X183257431Y-101361180D01*
X183281659Y-101331659D01*
X183311180Y-101307431D01*
X183344855Y-101289432D01*
X183381396Y-101278347D01*
X183425538Y-101274000D01*
X184374462Y-101274000D01*
X184418604Y-101278347D01*
X184418604Y-101278347D01*
G37*
G36*
X187218604Y-101278347D02*
X187255145Y-101289432D01*
X187288820Y-101307431D01*
X187318341Y-101331659D01*
X187342569Y-101361180D01*
X187360568Y-101394855D01*
X187371653Y-101431396D01*
X187376000Y-101475538D01*
X187376000Y-102924462D01*
X187371653Y-102968604D01*
X187360568Y-103005145D01*
X187342569Y-103038820D01*
X187318341Y-103068341D01*
X187288820Y-103092569D01*
X187255145Y-103110568D01*
X187218604Y-103121653D01*
X187174462Y-103126000D01*
X186225538Y-103126000D01*
X186181396Y-103121653D01*
X186144855Y-103110568D01*
X186111180Y-103092569D01*
X186081659Y-103068341D01*
X186057431Y-103038820D01*
X186039432Y-103005145D01*
X186028347Y-102968604D01*
X186024000Y-102924462D01*
X186024000Y-101475538D01*
X186028347Y-101431396D01*
X186039432Y-101394855D01*
X186057431Y-101361180D01*
X186081659Y-101331659D01*
X186111180Y-101307431D01*
X186144855Y-101289432D01*
X186181396Y-101278347D01*
X186225538Y-101274000D01*
X187174462Y-101274000D01*
X187218604Y-101278347D01*
X187218604Y-101278347D01*
G37*
G36*
X168376000Y-103026000D02*
X165274000Y-103026000D01*
X165274000Y-101324000D01*
X168376000Y-101324000D01*
X168376000Y-103026000D01*
X168376000Y-103026000D01*
G37*
G36*
X163976000Y-103026000D02*
X160874000Y-103026000D01*
X160874000Y-101324000D01*
X163976000Y-101324000D01*
X163976000Y-103026000D01*
X163976000Y-103026000D01*
G37*
G36*
X182296966Y-101403565D02*
X182335637Y-101415296D01*
X182371279Y-101434348D01*
X182402517Y-101459983D01*
X182428152Y-101491221D01*
X182447204Y-101526863D01*
X182458935Y-101565534D01*
X182463500Y-101611888D01*
X182463500Y-102688112D01*
X182458935Y-102734466D01*
X182447204Y-102773137D01*
X182428152Y-102808779D01*
X182402517Y-102840017D01*
X182371279Y-102865652D01*
X182335637Y-102884704D01*
X182296966Y-102896435D01*
X182250612Y-102901000D01*
X181599388Y-102901000D01*
X181553034Y-102896435D01*
X181514363Y-102884704D01*
X181478721Y-102865652D01*
X181447483Y-102840017D01*
X181421848Y-102808779D01*
X181402796Y-102773137D01*
X181391065Y-102734466D01*
X181386500Y-102688112D01*
X181386500Y-101611888D01*
X181391065Y-101565534D01*
X181402796Y-101526863D01*
X181421848Y-101491221D01*
X181447483Y-101459983D01*
X181478721Y-101434348D01*
X181514363Y-101415296D01*
X181553034Y-101403565D01*
X181599388Y-101399000D01*
X182250612Y-101399000D01*
X182296966Y-101403565D01*
X182296966Y-101403565D01*
G37*
G36*
X180421966Y-101403565D02*
X180460637Y-101415296D01*
X180496279Y-101434348D01*
X180527517Y-101459983D01*
X180553152Y-101491221D01*
X180572204Y-101526863D01*
X180583935Y-101565534D01*
X180588500Y-101611888D01*
X180588500Y-102688112D01*
X180583935Y-102734466D01*
X180572204Y-102773137D01*
X180553152Y-102808779D01*
X180527517Y-102840017D01*
X180496279Y-102865652D01*
X180460637Y-102884704D01*
X180421966Y-102896435D01*
X180375612Y-102901000D01*
X179724388Y-102901000D01*
X179678034Y-102896435D01*
X179639363Y-102884704D01*
X179603721Y-102865652D01*
X179572483Y-102840017D01*
X179546848Y-102808779D01*
X179527796Y-102773137D01*
X179516065Y-102734466D01*
X179511500Y-102688112D01*
X179511500Y-101611888D01*
X179516065Y-101565534D01*
X179527796Y-101526863D01*
X179546848Y-101491221D01*
X179572483Y-101459983D01*
X179603721Y-101434348D01*
X179639363Y-101415296D01*
X179678034Y-101403565D01*
X179724388Y-101399000D01*
X180375612Y-101399000D01*
X180421966Y-101403565D01*
X180421966Y-101403565D01*
G37*
G36*
X156876000Y-102426000D02*
X153174000Y-102426000D01*
X153174000Y-99624000D01*
X156876000Y-99624000D01*
X156876000Y-102426000D01*
X156876000Y-102426000D01*
G37*
G36*
X143506000Y-101851000D02*
X142804000Y-101851000D01*
X142804000Y-100199000D01*
X143506000Y-100199000D01*
X143506000Y-101851000D01*
X143506000Y-101851000D01*
G37*
G36*
X140966000Y-101851000D02*
X140264000Y-101851000D01*
X140264000Y-100199000D01*
X140966000Y-100199000D01*
X140966000Y-101851000D01*
X140966000Y-101851000D01*
G37*
G36*
X139696000Y-101851000D02*
X138994000Y-101851000D01*
X138994000Y-100199000D01*
X139696000Y-100199000D01*
X139696000Y-101851000D01*
X139696000Y-101851000D01*
G37*
G36*
X142236000Y-101851000D02*
X141534000Y-101851000D01*
X141534000Y-100199000D01*
X142236000Y-100199000D01*
X142236000Y-101851000D01*
X142236000Y-101851000D01*
G37*
G36*
X145321966Y-100318565D02*
X145360637Y-100330296D01*
X145396279Y-100349348D01*
X145427517Y-100374983D01*
X145453152Y-100406221D01*
X145472204Y-100441863D01*
X145483935Y-100480534D01*
X145488500Y-100526888D01*
X145488500Y-101603112D01*
X145483935Y-101649466D01*
X145472204Y-101688137D01*
X145453152Y-101723779D01*
X145427517Y-101755017D01*
X145396279Y-101780652D01*
X145360637Y-101799704D01*
X145321966Y-101811435D01*
X145275612Y-101816000D01*
X144624388Y-101816000D01*
X144578034Y-101811435D01*
X144539363Y-101799704D01*
X144503721Y-101780652D01*
X144472483Y-101755017D01*
X144446848Y-101723779D01*
X144427796Y-101688137D01*
X144416065Y-101649466D01*
X144411500Y-101603112D01*
X144411500Y-100526888D01*
X144416065Y-100480534D01*
X144427796Y-100441863D01*
X144446848Y-100406221D01*
X144472483Y-100374983D01*
X144503721Y-100349348D01*
X144539363Y-100330296D01*
X144578034Y-100318565D01*
X144624388Y-100314000D01*
X145275612Y-100314000D01*
X145321966Y-100318565D01*
X145321966Y-100318565D01*
G37*
G36*
X147196966Y-100318565D02*
X147235637Y-100330296D01*
X147271279Y-100349348D01*
X147302517Y-100374983D01*
X147328152Y-100406221D01*
X147347204Y-100441863D01*
X147358935Y-100480534D01*
X147363500Y-100526888D01*
X147363500Y-101603112D01*
X147358935Y-101649466D01*
X147347204Y-101688137D01*
X147328152Y-101723779D01*
X147302517Y-101755017D01*
X147271279Y-101780652D01*
X147235637Y-101799704D01*
X147196966Y-101811435D01*
X147150612Y-101816000D01*
X146499388Y-101816000D01*
X146453034Y-101811435D01*
X146414363Y-101799704D01*
X146378721Y-101780652D01*
X146347483Y-101755017D01*
X146321848Y-101723779D01*
X146302796Y-101688137D01*
X146291065Y-101649466D01*
X146286500Y-101603112D01*
X146286500Y-100526888D01*
X146291065Y-100480534D01*
X146302796Y-100441863D01*
X146321848Y-100406221D01*
X146347483Y-100374983D01*
X146378721Y-100349348D01*
X146414363Y-100330296D01*
X146453034Y-100318565D01*
X146499388Y-100314000D01*
X147150612Y-100314000D01*
X147196966Y-100318565D01*
X147196966Y-100318565D01*
G37*
G36*
X138289466Y-100506065D02*
X138328137Y-100517796D01*
X138363779Y-100536848D01*
X138395017Y-100562483D01*
X138420652Y-100593721D01*
X138439704Y-100629363D01*
X138451435Y-100668034D01*
X138456000Y-100714388D01*
X138456000Y-101365612D01*
X138451435Y-101411966D01*
X138439704Y-101450637D01*
X138420652Y-101486279D01*
X138395017Y-101517517D01*
X138363779Y-101543152D01*
X138328137Y-101562204D01*
X138289466Y-101573935D01*
X138243112Y-101578500D01*
X137166888Y-101578500D01*
X137120534Y-101573935D01*
X137081863Y-101562204D01*
X137046221Y-101543152D01*
X137014983Y-101517517D01*
X136989348Y-101486279D01*
X136970296Y-101450637D01*
X136958565Y-101411966D01*
X136954000Y-101365612D01*
X136954000Y-100714388D01*
X136958565Y-100668034D01*
X136970296Y-100629363D01*
X136989348Y-100593721D01*
X137014983Y-100562483D01*
X137046221Y-100536848D01*
X137081863Y-100517796D01*
X137120534Y-100506065D01*
X137166888Y-100501500D01*
X138243112Y-100501500D01*
X138289466Y-100506065D01*
X138289466Y-100506065D01*
G37*
G36*
X177659466Y-99216065D02*
X177698137Y-99227796D01*
X177733779Y-99246848D01*
X177765017Y-99272483D01*
X177790652Y-99303721D01*
X177809704Y-99339363D01*
X177821435Y-99378034D01*
X177826000Y-99424388D01*
X177826000Y-100075612D01*
X177821435Y-100121966D01*
X177809704Y-100160637D01*
X177790652Y-100196279D01*
X177765017Y-100227517D01*
X177733779Y-100253152D01*
X177698137Y-100272204D01*
X177659466Y-100283935D01*
X177613112Y-100288500D01*
X176536888Y-100288500D01*
X176490534Y-100283935D01*
X176451863Y-100272204D01*
X176416221Y-100253152D01*
X176384983Y-100227517D01*
X176359348Y-100196279D01*
X176340296Y-100160637D01*
X176328565Y-100121966D01*
X176324000Y-100075612D01*
X176324000Y-99424388D01*
X176328565Y-99378034D01*
X176340296Y-99339363D01*
X176359348Y-99303721D01*
X176384983Y-99272483D01*
X176416221Y-99246848D01*
X176451863Y-99227796D01*
X176490534Y-99216065D01*
X176536888Y-99211500D01*
X177613112Y-99211500D01*
X177659466Y-99216065D01*
X177659466Y-99216065D01*
G37*
G36*
X184468604Y-98403347D02*
X184505145Y-98414432D01*
X184538820Y-98432431D01*
X184568341Y-98456659D01*
X184592569Y-98486180D01*
X184610568Y-98519855D01*
X184621653Y-98556396D01*
X184626000Y-98600538D01*
X184626000Y-100049462D01*
X184621653Y-100093604D01*
X184610568Y-100130145D01*
X184592569Y-100163820D01*
X184568341Y-100193341D01*
X184538820Y-100217569D01*
X184505145Y-100235568D01*
X184468604Y-100246653D01*
X184424462Y-100251000D01*
X183475538Y-100251000D01*
X183431396Y-100246653D01*
X183394855Y-100235568D01*
X183361180Y-100217569D01*
X183331659Y-100193341D01*
X183307431Y-100163820D01*
X183289432Y-100130145D01*
X183278347Y-100093604D01*
X183274000Y-100049462D01*
X183274000Y-98600538D01*
X183278347Y-98556396D01*
X183289432Y-98519855D01*
X183307431Y-98486180D01*
X183331659Y-98456659D01*
X183361180Y-98432431D01*
X183394855Y-98414432D01*
X183431396Y-98403347D01*
X183475538Y-98399000D01*
X184424462Y-98399000D01*
X184468604Y-98403347D01*
X184468604Y-98403347D01*
G37*
G36*
X187268604Y-98403347D02*
X187305145Y-98414432D01*
X187338820Y-98432431D01*
X187368341Y-98456659D01*
X187392569Y-98486180D01*
X187410568Y-98519855D01*
X187421653Y-98556396D01*
X187426000Y-98600538D01*
X187426000Y-100049462D01*
X187421653Y-100093604D01*
X187410568Y-100130145D01*
X187392569Y-100163820D01*
X187368341Y-100193341D01*
X187338820Y-100217569D01*
X187305145Y-100235568D01*
X187268604Y-100246653D01*
X187224462Y-100251000D01*
X186275538Y-100251000D01*
X186231396Y-100246653D01*
X186194855Y-100235568D01*
X186161180Y-100217569D01*
X186131659Y-100193341D01*
X186107431Y-100163820D01*
X186089432Y-100130145D01*
X186078347Y-100093604D01*
X186074000Y-100049462D01*
X186074000Y-98600538D01*
X186078347Y-98556396D01*
X186089432Y-98519855D01*
X186107431Y-98486180D01*
X186131659Y-98456659D01*
X186161180Y-98432431D01*
X186194855Y-98414432D01*
X186231396Y-98403347D01*
X186275538Y-98399000D01*
X187224462Y-98399000D01*
X187268604Y-98403347D01*
X187268604Y-98403347D01*
G37*
G36*
X175631000Y-100226000D02*
X174469000Y-100226000D01*
X174469000Y-99474000D01*
X175631000Y-99474000D01*
X175631000Y-100226000D01*
X175631000Y-100226000D01*
G37*
G36*
X173431000Y-100226000D02*
X172269000Y-100226000D01*
X172269000Y-97574000D01*
X173431000Y-97574000D01*
X173431000Y-100226000D01*
X173431000Y-100226000D01*
G37*
G36*
X180446966Y-98578565D02*
X180485637Y-98590296D01*
X180521279Y-98609348D01*
X180552517Y-98634983D01*
X180578152Y-98666221D01*
X180597204Y-98701863D01*
X180608935Y-98740534D01*
X180613500Y-98786888D01*
X180613500Y-99863112D01*
X180608935Y-99909466D01*
X180597204Y-99948137D01*
X180578152Y-99983779D01*
X180552517Y-100015017D01*
X180521279Y-100040652D01*
X180485637Y-100059704D01*
X180446966Y-100071435D01*
X180400612Y-100076000D01*
X179749388Y-100076000D01*
X179703034Y-100071435D01*
X179664363Y-100059704D01*
X179628721Y-100040652D01*
X179597483Y-100015017D01*
X179571848Y-99983779D01*
X179552796Y-99948137D01*
X179541065Y-99909466D01*
X179536500Y-99863112D01*
X179536500Y-98786888D01*
X179541065Y-98740534D01*
X179552796Y-98701863D01*
X179571848Y-98666221D01*
X179597483Y-98634983D01*
X179628721Y-98609348D01*
X179664363Y-98590296D01*
X179703034Y-98578565D01*
X179749388Y-98574000D01*
X180400612Y-98574000D01*
X180446966Y-98578565D01*
X180446966Y-98578565D01*
G37*
G36*
X182321966Y-98578565D02*
X182360637Y-98590296D01*
X182396279Y-98609348D01*
X182427517Y-98634983D01*
X182453152Y-98666221D01*
X182472204Y-98701863D01*
X182483935Y-98740534D01*
X182488500Y-98786888D01*
X182488500Y-99863112D01*
X182483935Y-99909466D01*
X182472204Y-99948137D01*
X182453152Y-99983779D01*
X182427517Y-100015017D01*
X182396279Y-100040652D01*
X182360637Y-100059704D01*
X182321966Y-100071435D01*
X182275612Y-100076000D01*
X181624388Y-100076000D01*
X181578034Y-100071435D01*
X181539363Y-100059704D01*
X181503721Y-100040652D01*
X181472483Y-100015017D01*
X181446848Y-99983779D01*
X181427796Y-99948137D01*
X181416065Y-99909466D01*
X181411500Y-99863112D01*
X181411500Y-98786888D01*
X181416065Y-98740534D01*
X181427796Y-98701863D01*
X181446848Y-98666221D01*
X181472483Y-98634983D01*
X181503721Y-98609348D01*
X181539363Y-98590296D01*
X181578034Y-98578565D01*
X181624388Y-98574000D01*
X182275612Y-98574000D01*
X182321966Y-98578565D01*
X182321966Y-98578565D01*
G37*
G36*
X138289466Y-98631065D02*
X138328137Y-98642796D01*
X138363779Y-98661848D01*
X138395017Y-98687483D01*
X138420652Y-98718721D01*
X138439704Y-98754363D01*
X138451435Y-98793034D01*
X138456000Y-98839388D01*
X138456000Y-99490612D01*
X138451435Y-99536966D01*
X138439704Y-99575637D01*
X138420652Y-99611279D01*
X138395017Y-99642517D01*
X138363779Y-99668152D01*
X138328137Y-99687204D01*
X138289466Y-99698935D01*
X138243112Y-99703500D01*
X137166888Y-99703500D01*
X137120534Y-99698935D01*
X137081863Y-99687204D01*
X137046221Y-99668152D01*
X137014983Y-99642517D01*
X136989348Y-99611279D01*
X136970296Y-99575637D01*
X136958565Y-99536966D01*
X136954000Y-99490612D01*
X136954000Y-98839388D01*
X136958565Y-98793034D01*
X136970296Y-98754363D01*
X136989348Y-98718721D01*
X137014983Y-98687483D01*
X137046221Y-98661848D01*
X137081863Y-98642796D01*
X137120534Y-98631065D01*
X137166888Y-98626500D01*
X138243112Y-98626500D01*
X138289466Y-98631065D01*
X138289466Y-98631065D01*
G37*
G36*
X140299466Y-98621065D02*
X140338137Y-98632796D01*
X140373779Y-98651848D01*
X140405017Y-98677483D01*
X140430652Y-98708721D01*
X140449704Y-98744363D01*
X140461435Y-98783034D01*
X140466000Y-98829388D01*
X140466000Y-99480612D01*
X140461435Y-99526966D01*
X140449704Y-99565637D01*
X140430652Y-99601279D01*
X140405017Y-99632517D01*
X140373779Y-99658152D01*
X140338137Y-99677204D01*
X140299466Y-99688935D01*
X140253112Y-99693500D01*
X139176888Y-99693500D01*
X139130534Y-99688935D01*
X139091863Y-99677204D01*
X139056221Y-99658152D01*
X139024983Y-99632517D01*
X138999348Y-99601279D01*
X138980296Y-99565637D01*
X138968565Y-99526966D01*
X138964000Y-99480612D01*
X138964000Y-98829388D01*
X138968565Y-98783034D01*
X138980296Y-98744363D01*
X138999348Y-98708721D01*
X139024983Y-98677483D01*
X139056221Y-98651848D01*
X139091863Y-98632796D01*
X139130534Y-98621065D01*
X139176888Y-98616500D01*
X140253112Y-98616500D01*
X140299466Y-98621065D01*
X140299466Y-98621065D01*
G37*
G36*
X142279466Y-98616065D02*
X142318137Y-98627796D01*
X142353779Y-98646848D01*
X142385017Y-98672483D01*
X142410652Y-98703721D01*
X142429704Y-98739363D01*
X142441435Y-98778034D01*
X142446000Y-98824388D01*
X142446000Y-99475612D01*
X142441435Y-99521966D01*
X142429704Y-99560637D01*
X142410652Y-99596279D01*
X142385017Y-99627517D01*
X142353779Y-99653152D01*
X142318137Y-99672204D01*
X142279466Y-99683935D01*
X142233112Y-99688500D01*
X141156888Y-99688500D01*
X141110534Y-99683935D01*
X141071863Y-99672204D01*
X141036221Y-99653152D01*
X141004983Y-99627517D01*
X140979348Y-99596279D01*
X140960296Y-99560637D01*
X140948565Y-99521966D01*
X140944000Y-99475612D01*
X140944000Y-98824388D01*
X140948565Y-98778034D01*
X140960296Y-98739363D01*
X140979348Y-98703721D01*
X141004983Y-98672483D01*
X141036221Y-98646848D01*
X141071863Y-98627796D01*
X141110534Y-98616065D01*
X141156888Y-98611500D01*
X142233112Y-98611500D01*
X142279466Y-98616065D01*
X142279466Y-98616065D01*
G37*
G36*
X177659466Y-97341065D02*
X177698137Y-97352796D01*
X177733779Y-97371848D01*
X177765017Y-97397483D01*
X177790652Y-97428721D01*
X177809704Y-97464363D01*
X177821435Y-97503034D01*
X177826000Y-97549388D01*
X177826000Y-98200612D01*
X177821435Y-98246966D01*
X177809704Y-98285637D01*
X177790652Y-98321279D01*
X177765017Y-98352517D01*
X177733779Y-98378152D01*
X177698137Y-98397204D01*
X177659466Y-98408935D01*
X177613112Y-98413500D01*
X176536888Y-98413500D01*
X176490534Y-98408935D01*
X176451863Y-98397204D01*
X176416221Y-98378152D01*
X176384983Y-98352517D01*
X176359348Y-98321279D01*
X176340296Y-98285637D01*
X176328565Y-98246966D01*
X176324000Y-98200612D01*
X176324000Y-97549388D01*
X176328565Y-97503034D01*
X176340296Y-97464363D01*
X176359348Y-97428721D01*
X176384983Y-97397483D01*
X176416221Y-97371848D01*
X176451863Y-97352796D01*
X176490534Y-97341065D01*
X176536888Y-97336500D01*
X177613112Y-97336500D01*
X177659466Y-97341065D01*
X177659466Y-97341065D01*
G37*
G36*
X175631000Y-98326000D02*
X174469000Y-98326000D01*
X174469000Y-97574000D01*
X175631000Y-97574000D01*
X175631000Y-98326000D01*
X175631000Y-98326000D01*
G37*
G36*
X196463475Y-95890373D02*
X196495382Y-95900052D01*
X196524792Y-95915773D01*
X196550571Y-95936929D01*
X196571727Y-95962708D01*
X196587448Y-95992118D01*
X196597127Y-96024025D01*
X196601000Y-96063353D01*
X196601000Y-97736647D01*
X196597127Y-97775975D01*
X196587448Y-97807882D01*
X196571727Y-97837292D01*
X196550571Y-97863071D01*
X196524792Y-97884227D01*
X196495382Y-97899948D01*
X196463475Y-97909627D01*
X196424147Y-97913500D01*
X191225853Y-97913500D01*
X191186525Y-97909627D01*
X191154618Y-97899948D01*
X191125208Y-97884227D01*
X191099429Y-97863071D01*
X191078273Y-97837292D01*
X191062552Y-97807882D01*
X191052873Y-97775975D01*
X191049000Y-97736647D01*
X191049000Y-96063353D01*
X191052873Y-96024025D01*
X191062552Y-95992118D01*
X191078273Y-95962708D01*
X191099429Y-95936929D01*
X191125208Y-95915773D01*
X191154618Y-95900052D01*
X191186525Y-95890373D01*
X191225853Y-95886500D01*
X196424147Y-95886500D01*
X196463475Y-95890373D01*
X196463475Y-95890373D01*
G37*
G36*
X140299466Y-96746065D02*
X140338137Y-96757796D01*
X140373779Y-96776848D01*
X140405017Y-96802483D01*
X140430652Y-96833721D01*
X140449704Y-96869363D01*
X140461435Y-96908034D01*
X140466000Y-96954388D01*
X140466000Y-97605612D01*
X140461435Y-97651966D01*
X140449704Y-97690637D01*
X140430652Y-97726279D01*
X140405017Y-97757517D01*
X140373779Y-97783152D01*
X140338137Y-97802204D01*
X140299466Y-97813935D01*
X140253112Y-97818500D01*
X139176888Y-97818500D01*
X139130534Y-97813935D01*
X139091863Y-97802204D01*
X139056221Y-97783152D01*
X139024983Y-97757517D01*
X138999348Y-97726279D01*
X138980296Y-97690637D01*
X138968565Y-97651966D01*
X138964000Y-97605612D01*
X138964000Y-96954388D01*
X138968565Y-96908034D01*
X138980296Y-96869363D01*
X138999348Y-96833721D01*
X139024983Y-96802483D01*
X139056221Y-96776848D01*
X139091863Y-96757796D01*
X139130534Y-96746065D01*
X139176888Y-96741500D01*
X140253112Y-96741500D01*
X140299466Y-96746065D01*
X140299466Y-96746065D01*
G37*
G36*
X142279466Y-96741065D02*
X142318137Y-96752796D01*
X142353779Y-96771848D01*
X142385017Y-96797483D01*
X142410652Y-96828721D01*
X142429704Y-96864363D01*
X142441435Y-96903034D01*
X142446000Y-96949388D01*
X142446000Y-97600612D01*
X142441435Y-97646966D01*
X142429704Y-97685637D01*
X142410652Y-97721279D01*
X142385017Y-97752517D01*
X142353779Y-97778152D01*
X142318137Y-97797204D01*
X142279466Y-97808935D01*
X142233112Y-97813500D01*
X141156888Y-97813500D01*
X141110534Y-97808935D01*
X141071863Y-97797204D01*
X141036221Y-97778152D01*
X141004983Y-97752517D01*
X140979348Y-97721279D01*
X140960296Y-97685637D01*
X140948565Y-97646966D01*
X140944000Y-97600612D01*
X140944000Y-96949388D01*
X140948565Y-96903034D01*
X140960296Y-96864363D01*
X140979348Y-96828721D01*
X141004983Y-96797483D01*
X141036221Y-96771848D01*
X141071863Y-96752796D01*
X141110534Y-96741065D01*
X141156888Y-96736500D01*
X142233112Y-96736500D01*
X142279466Y-96741065D01*
X142279466Y-96741065D01*
G37*
G36*
X184468604Y-95428347D02*
X184505145Y-95439432D01*
X184538820Y-95457431D01*
X184568341Y-95481659D01*
X184592569Y-95511180D01*
X184610568Y-95544855D01*
X184621653Y-95581396D01*
X184626000Y-95625538D01*
X184626000Y-97074462D01*
X184621653Y-97118604D01*
X184610568Y-97155145D01*
X184592569Y-97188820D01*
X184568341Y-97218341D01*
X184538820Y-97242569D01*
X184505145Y-97260568D01*
X184468604Y-97271653D01*
X184424462Y-97276000D01*
X183475538Y-97276000D01*
X183431396Y-97271653D01*
X183394855Y-97260568D01*
X183361180Y-97242569D01*
X183331659Y-97218341D01*
X183307431Y-97188820D01*
X183289432Y-97155145D01*
X183278347Y-97118604D01*
X183274000Y-97074462D01*
X183274000Y-95625538D01*
X183278347Y-95581396D01*
X183289432Y-95544855D01*
X183307431Y-95511180D01*
X183331659Y-95481659D01*
X183361180Y-95457431D01*
X183394855Y-95439432D01*
X183431396Y-95428347D01*
X183475538Y-95424000D01*
X184424462Y-95424000D01*
X184468604Y-95428347D01*
X184468604Y-95428347D01*
G37*
G36*
X187268604Y-95428347D02*
X187305145Y-95439432D01*
X187338820Y-95457431D01*
X187368341Y-95481659D01*
X187392569Y-95511180D01*
X187410568Y-95544855D01*
X187421653Y-95581396D01*
X187426000Y-95625538D01*
X187426000Y-97074462D01*
X187421653Y-97118604D01*
X187410568Y-97155145D01*
X187392569Y-97188820D01*
X187368341Y-97218341D01*
X187338820Y-97242569D01*
X187305145Y-97260568D01*
X187268604Y-97271653D01*
X187224462Y-97276000D01*
X186275538Y-97276000D01*
X186231396Y-97271653D01*
X186194855Y-97260568D01*
X186161180Y-97242569D01*
X186131659Y-97218341D01*
X186107431Y-97188820D01*
X186089432Y-97155145D01*
X186078347Y-97118604D01*
X186074000Y-97074462D01*
X186074000Y-95625538D01*
X186078347Y-95581396D01*
X186089432Y-95544855D01*
X186107431Y-95511180D01*
X186131659Y-95481659D01*
X186161180Y-95457431D01*
X186194855Y-95439432D01*
X186231396Y-95428347D01*
X186275538Y-95424000D01*
X187224462Y-95424000D01*
X187268604Y-95428347D01*
X187268604Y-95428347D01*
G37*
G36*
X180534466Y-95553565D02*
X180573137Y-95565296D01*
X180608779Y-95584348D01*
X180640017Y-95609983D01*
X180665652Y-95641221D01*
X180684704Y-95676863D01*
X180696435Y-95715534D01*
X180701000Y-95761888D01*
X180701000Y-96838112D01*
X180696435Y-96884466D01*
X180684704Y-96923137D01*
X180665652Y-96958779D01*
X180640017Y-96990017D01*
X180608779Y-97015652D01*
X180573137Y-97034704D01*
X180534466Y-97046435D01*
X180488112Y-97051000D01*
X179836888Y-97051000D01*
X179790534Y-97046435D01*
X179751863Y-97034704D01*
X179716221Y-97015652D01*
X179684983Y-96990017D01*
X179659348Y-96958779D01*
X179640296Y-96923137D01*
X179628565Y-96884466D01*
X179624000Y-96838112D01*
X179624000Y-95761888D01*
X179628565Y-95715534D01*
X179640296Y-95676863D01*
X179659348Y-95641221D01*
X179684983Y-95609983D01*
X179716221Y-95584348D01*
X179751863Y-95565296D01*
X179790534Y-95553565D01*
X179836888Y-95549000D01*
X180488112Y-95549000D01*
X180534466Y-95553565D01*
X180534466Y-95553565D01*
G37*
G36*
X182409466Y-95553565D02*
X182448137Y-95565296D01*
X182483779Y-95584348D01*
X182515017Y-95609983D01*
X182540652Y-95641221D01*
X182559704Y-95676863D01*
X182571435Y-95715534D01*
X182576000Y-95761888D01*
X182576000Y-96838112D01*
X182571435Y-96884466D01*
X182559704Y-96923137D01*
X182540652Y-96958779D01*
X182515017Y-96990017D01*
X182483779Y-97015652D01*
X182448137Y-97034704D01*
X182409466Y-97046435D01*
X182363112Y-97051000D01*
X181711888Y-97051000D01*
X181665534Y-97046435D01*
X181626863Y-97034704D01*
X181591221Y-97015652D01*
X181559983Y-96990017D01*
X181534348Y-96958779D01*
X181515296Y-96923137D01*
X181503565Y-96884466D01*
X181499000Y-96838112D01*
X181499000Y-95761888D01*
X181503565Y-95715534D01*
X181515296Y-95676863D01*
X181534348Y-95641221D01*
X181559983Y-95609983D01*
X181591221Y-95584348D01*
X181626863Y-95565296D01*
X181665534Y-95553565D01*
X181711888Y-95549000D01*
X182363112Y-95549000D01*
X182409466Y-95553565D01*
X182409466Y-95553565D01*
G37*
G36*
X203760918Y-94377934D02*
X203793424Y-94387795D01*
X203823383Y-94403808D01*
X203849641Y-94425359D01*
X203871192Y-94451617D01*
X203887205Y-94481576D01*
X203897066Y-94514082D01*
X203901000Y-94554029D01*
X203901000Y-96095971D01*
X203897066Y-96135918D01*
X203887205Y-96168424D01*
X203871192Y-96198383D01*
X203849641Y-96224641D01*
X203823383Y-96246192D01*
X203793424Y-96262205D01*
X203760918Y-96272066D01*
X203720971Y-96276000D01*
X200379029Y-96276000D01*
X200339082Y-96272066D01*
X200306576Y-96262205D01*
X200276617Y-96246192D01*
X200250359Y-96224641D01*
X200228808Y-96198383D01*
X200212795Y-96168424D01*
X200202934Y-96135918D01*
X200199000Y-96095971D01*
X200199000Y-94554029D01*
X200202934Y-94514082D01*
X200212795Y-94481576D01*
X200228808Y-94451617D01*
X200250359Y-94425359D01*
X200276617Y-94403808D01*
X200306576Y-94387795D01*
X200339082Y-94377934D01*
X200379029Y-94374000D01*
X203720971Y-94374000D01*
X203760918Y-94377934D01*
X203760918Y-94377934D01*
G37*
G36*
X128588604Y-94018347D02*
X128625145Y-94029432D01*
X128658820Y-94047431D01*
X128688341Y-94071659D01*
X128712569Y-94101180D01*
X128730568Y-94134855D01*
X128741653Y-94171396D01*
X128746000Y-94215538D01*
X128746000Y-95664462D01*
X128741653Y-95708604D01*
X128730568Y-95745145D01*
X128712569Y-95778820D01*
X128688341Y-95808341D01*
X128658820Y-95832569D01*
X128625145Y-95850568D01*
X128588604Y-95861653D01*
X128544462Y-95866000D01*
X127595538Y-95866000D01*
X127551396Y-95861653D01*
X127514855Y-95850568D01*
X127481180Y-95832569D01*
X127451659Y-95808341D01*
X127427431Y-95778820D01*
X127409432Y-95745145D01*
X127398347Y-95708604D01*
X127394000Y-95664462D01*
X127394000Y-94215538D01*
X127398347Y-94171396D01*
X127409432Y-94134855D01*
X127427431Y-94101180D01*
X127451659Y-94071659D01*
X127481180Y-94047431D01*
X127514855Y-94029432D01*
X127551396Y-94018347D01*
X127595538Y-94014000D01*
X128544462Y-94014000D01*
X128588604Y-94018347D01*
X128588604Y-94018347D01*
G37*
G36*
X131388604Y-94018347D02*
X131425145Y-94029432D01*
X131458820Y-94047431D01*
X131488341Y-94071659D01*
X131512569Y-94101180D01*
X131530568Y-94134855D01*
X131541653Y-94171396D01*
X131546000Y-94215538D01*
X131546000Y-95664462D01*
X131541653Y-95708604D01*
X131530568Y-95745145D01*
X131512569Y-95778820D01*
X131488341Y-95808341D01*
X131458820Y-95832569D01*
X131425145Y-95850568D01*
X131388604Y-95861653D01*
X131344462Y-95866000D01*
X130395538Y-95866000D01*
X130351396Y-95861653D01*
X130314855Y-95850568D01*
X130281180Y-95832569D01*
X130251659Y-95808341D01*
X130227431Y-95778820D01*
X130209432Y-95745145D01*
X130198347Y-95708604D01*
X130194000Y-95664462D01*
X130194000Y-94215538D01*
X130198347Y-94171396D01*
X130209432Y-94134855D01*
X130227431Y-94101180D01*
X130251659Y-94071659D01*
X130281180Y-94047431D01*
X130314855Y-94029432D01*
X130351396Y-94018347D01*
X130395538Y-94014000D01*
X131344462Y-94014000D01*
X131388604Y-94018347D01*
X131388604Y-94018347D01*
G37*
G36*
X157326966Y-93388565D02*
X157365637Y-93400296D01*
X157401279Y-93419348D01*
X157432517Y-93444983D01*
X157458152Y-93476221D01*
X157477204Y-93511863D01*
X157488935Y-93550534D01*
X157493500Y-93596888D01*
X157493500Y-94673112D01*
X157488935Y-94719466D01*
X157477204Y-94758137D01*
X157458152Y-94793779D01*
X157432517Y-94825017D01*
X157401279Y-94850652D01*
X157365637Y-94869704D01*
X157326966Y-94881435D01*
X157280612Y-94886000D01*
X156629388Y-94886000D01*
X156583034Y-94881435D01*
X156544363Y-94869704D01*
X156508721Y-94850652D01*
X156477483Y-94825017D01*
X156451848Y-94793779D01*
X156432796Y-94758137D01*
X156421065Y-94719466D01*
X156416500Y-94673112D01*
X156416500Y-93596888D01*
X156421065Y-93550534D01*
X156432796Y-93511863D01*
X156451848Y-93476221D01*
X156477483Y-93444983D01*
X156508721Y-93419348D01*
X156544363Y-93400296D01*
X156583034Y-93388565D01*
X156629388Y-93384000D01*
X157280612Y-93384000D01*
X157326966Y-93388565D01*
X157326966Y-93388565D01*
G37*
G36*
X155451966Y-93388565D02*
X155490637Y-93400296D01*
X155526279Y-93419348D01*
X155557517Y-93444983D01*
X155583152Y-93476221D01*
X155602204Y-93511863D01*
X155613935Y-93550534D01*
X155618500Y-93596888D01*
X155618500Y-94673112D01*
X155613935Y-94719466D01*
X155602204Y-94758137D01*
X155583152Y-94793779D01*
X155557517Y-94825017D01*
X155526279Y-94850652D01*
X155490637Y-94869704D01*
X155451966Y-94881435D01*
X155405612Y-94886000D01*
X154754388Y-94886000D01*
X154708034Y-94881435D01*
X154669363Y-94869704D01*
X154633721Y-94850652D01*
X154602483Y-94825017D01*
X154576848Y-94793779D01*
X154557796Y-94758137D01*
X154546065Y-94719466D01*
X154541500Y-94673112D01*
X154541500Y-93596888D01*
X154546065Y-93550534D01*
X154557796Y-93511863D01*
X154576848Y-93476221D01*
X154602483Y-93444983D01*
X154633721Y-93419348D01*
X154669363Y-93400296D01*
X154708034Y-93388565D01*
X154754388Y-93384000D01*
X155405612Y-93384000D01*
X155451966Y-93388565D01*
X155451966Y-93388565D01*
G37*
G36*
X160996966Y-93388565D02*
X161035637Y-93400296D01*
X161071279Y-93419348D01*
X161102517Y-93444983D01*
X161128152Y-93476221D01*
X161147204Y-93511863D01*
X161158935Y-93550534D01*
X161163500Y-93596888D01*
X161163500Y-94673112D01*
X161158935Y-94719466D01*
X161147204Y-94758137D01*
X161128152Y-94793779D01*
X161102517Y-94825017D01*
X161071279Y-94850652D01*
X161035637Y-94869704D01*
X160996966Y-94881435D01*
X160950612Y-94886000D01*
X160299388Y-94886000D01*
X160253034Y-94881435D01*
X160214363Y-94869704D01*
X160178721Y-94850652D01*
X160147483Y-94825017D01*
X160121848Y-94793779D01*
X160102796Y-94758137D01*
X160091065Y-94719466D01*
X160086500Y-94673112D01*
X160086500Y-93596888D01*
X160091065Y-93550534D01*
X160102796Y-93511863D01*
X160121848Y-93476221D01*
X160147483Y-93444983D01*
X160178721Y-93419348D01*
X160214363Y-93400296D01*
X160253034Y-93388565D01*
X160299388Y-93384000D01*
X160950612Y-93384000D01*
X160996966Y-93388565D01*
X160996966Y-93388565D01*
G37*
G36*
X159121966Y-93388565D02*
X159160637Y-93400296D01*
X159196279Y-93419348D01*
X159227517Y-93444983D01*
X159253152Y-93476221D01*
X159272204Y-93511863D01*
X159283935Y-93550534D01*
X159288500Y-93596888D01*
X159288500Y-94673112D01*
X159283935Y-94719466D01*
X159272204Y-94758137D01*
X159253152Y-94793779D01*
X159227517Y-94825017D01*
X159196279Y-94850652D01*
X159160637Y-94869704D01*
X159121966Y-94881435D01*
X159075612Y-94886000D01*
X158424388Y-94886000D01*
X158378034Y-94881435D01*
X158339363Y-94869704D01*
X158303721Y-94850652D01*
X158272483Y-94825017D01*
X158246848Y-94793779D01*
X158227796Y-94758137D01*
X158216065Y-94719466D01*
X158211500Y-94673112D01*
X158211500Y-93596888D01*
X158216065Y-93550534D01*
X158227796Y-93511863D01*
X158246848Y-93476221D01*
X158272483Y-93444983D01*
X158303721Y-93419348D01*
X158339363Y-93400296D01*
X158378034Y-93388565D01*
X158424388Y-93384000D01*
X159075612Y-93384000D01*
X159121966Y-93388565D01*
X159121966Y-93388565D01*
G37*
G36*
X187243604Y-92378347D02*
X187280145Y-92389432D01*
X187313820Y-92407431D01*
X187343341Y-92431659D01*
X187367569Y-92461180D01*
X187385568Y-92494855D01*
X187396653Y-92531396D01*
X187401000Y-92575538D01*
X187401000Y-94024462D01*
X187396653Y-94068604D01*
X187385568Y-94105145D01*
X187367569Y-94138820D01*
X187343341Y-94168341D01*
X187313820Y-94192569D01*
X187280145Y-94210568D01*
X187243604Y-94221653D01*
X187199462Y-94226000D01*
X186250538Y-94226000D01*
X186206396Y-94221653D01*
X186169855Y-94210568D01*
X186136180Y-94192569D01*
X186106659Y-94168341D01*
X186082431Y-94138820D01*
X186064432Y-94105145D01*
X186053347Y-94068604D01*
X186049000Y-94024462D01*
X186049000Y-92575538D01*
X186053347Y-92531396D01*
X186064432Y-92494855D01*
X186082431Y-92461180D01*
X186106659Y-92431659D01*
X186136180Y-92407431D01*
X186169855Y-92389432D01*
X186206396Y-92378347D01*
X186250538Y-92374000D01*
X187199462Y-92374000D01*
X187243604Y-92378347D01*
X187243604Y-92378347D01*
G37*
G36*
X184443604Y-92378347D02*
X184480145Y-92389432D01*
X184513820Y-92407431D01*
X184543341Y-92431659D01*
X184567569Y-92461180D01*
X184585568Y-92494855D01*
X184596653Y-92531396D01*
X184601000Y-92575538D01*
X184601000Y-94024462D01*
X184596653Y-94068604D01*
X184585568Y-94105145D01*
X184567569Y-94138820D01*
X184543341Y-94168341D01*
X184513820Y-94192569D01*
X184480145Y-94210568D01*
X184443604Y-94221653D01*
X184399462Y-94226000D01*
X183450538Y-94226000D01*
X183406396Y-94221653D01*
X183369855Y-94210568D01*
X183336180Y-94192569D01*
X183306659Y-94168341D01*
X183282431Y-94138820D01*
X183264432Y-94105145D01*
X183253347Y-94068604D01*
X183249000Y-94024462D01*
X183249000Y-92575538D01*
X183253347Y-92531396D01*
X183264432Y-92494855D01*
X183282431Y-92461180D01*
X183306659Y-92431659D01*
X183336180Y-92407431D01*
X183369855Y-92389432D01*
X183406396Y-92378347D01*
X183450538Y-92374000D01*
X184399462Y-92374000D01*
X184443604Y-92378347D01*
X184443604Y-92378347D01*
G37*
G36*
X147381000Y-94026000D02*
X144979000Y-94026000D01*
X144979000Y-91424000D01*
X147381000Y-91424000D01*
X147381000Y-94026000D01*
X147381000Y-94026000D01*
G37*
G36*
X182546966Y-92528565D02*
X182585637Y-92540296D01*
X182621279Y-92559348D01*
X182652517Y-92584983D01*
X182678152Y-92616221D01*
X182697204Y-92651863D01*
X182708935Y-92690534D01*
X182713500Y-92736888D01*
X182713500Y-93813112D01*
X182708935Y-93859466D01*
X182697204Y-93898137D01*
X182678152Y-93933779D01*
X182652517Y-93965017D01*
X182621279Y-93990652D01*
X182585637Y-94009704D01*
X182546966Y-94021435D01*
X182500612Y-94026000D01*
X181849388Y-94026000D01*
X181803034Y-94021435D01*
X181764363Y-94009704D01*
X181728721Y-93990652D01*
X181697483Y-93965017D01*
X181671848Y-93933779D01*
X181652796Y-93898137D01*
X181641065Y-93859466D01*
X181636500Y-93813112D01*
X181636500Y-92736888D01*
X181641065Y-92690534D01*
X181652796Y-92651863D01*
X181671848Y-92616221D01*
X181697483Y-92584983D01*
X181728721Y-92559348D01*
X181764363Y-92540296D01*
X181803034Y-92528565D01*
X181849388Y-92524000D01*
X182500612Y-92524000D01*
X182546966Y-92528565D01*
X182546966Y-92528565D01*
G37*
G36*
X180671966Y-92528565D02*
X180710637Y-92540296D01*
X180746279Y-92559348D01*
X180777517Y-92584983D01*
X180803152Y-92616221D01*
X180822204Y-92651863D01*
X180833935Y-92690534D01*
X180838500Y-92736888D01*
X180838500Y-93813112D01*
X180833935Y-93859466D01*
X180822204Y-93898137D01*
X180803152Y-93933779D01*
X180777517Y-93965017D01*
X180746279Y-93990652D01*
X180710637Y-94009704D01*
X180671966Y-94021435D01*
X180625612Y-94026000D01*
X179974388Y-94026000D01*
X179928034Y-94021435D01*
X179889363Y-94009704D01*
X179853721Y-93990652D01*
X179822483Y-93965017D01*
X179796848Y-93933779D01*
X179777796Y-93898137D01*
X179766065Y-93859466D01*
X179761500Y-93813112D01*
X179761500Y-92736888D01*
X179766065Y-92690534D01*
X179777796Y-92651863D01*
X179796848Y-92616221D01*
X179822483Y-92584983D01*
X179853721Y-92559348D01*
X179889363Y-92540296D01*
X179928034Y-92528565D01*
X179974388Y-92524000D01*
X180625612Y-92524000D01*
X180671966Y-92528565D01*
X180671966Y-92528565D01*
G37*
G36*
X137596966Y-91838565D02*
X137635637Y-91850296D01*
X137671279Y-91869348D01*
X137702517Y-91894983D01*
X137728152Y-91926221D01*
X137747204Y-91961863D01*
X137758935Y-92000534D01*
X137763500Y-92046888D01*
X137763500Y-93123112D01*
X137758935Y-93169466D01*
X137747204Y-93208137D01*
X137728152Y-93243779D01*
X137702517Y-93275017D01*
X137671279Y-93300652D01*
X137635637Y-93319704D01*
X137596966Y-93331435D01*
X137550612Y-93336000D01*
X136899388Y-93336000D01*
X136853034Y-93331435D01*
X136814363Y-93319704D01*
X136778721Y-93300652D01*
X136747483Y-93275017D01*
X136721848Y-93243779D01*
X136702796Y-93208137D01*
X136691065Y-93169466D01*
X136686500Y-93123112D01*
X136686500Y-92046888D01*
X136691065Y-92000534D01*
X136702796Y-91961863D01*
X136721848Y-91926221D01*
X136747483Y-91894983D01*
X136778721Y-91869348D01*
X136814363Y-91850296D01*
X136853034Y-91838565D01*
X136899388Y-91834000D01*
X137550612Y-91834000D01*
X137596966Y-91838565D01*
X137596966Y-91838565D01*
G37*
G36*
X139471966Y-91838565D02*
X139510637Y-91850296D01*
X139546279Y-91869348D01*
X139577517Y-91894983D01*
X139603152Y-91926221D01*
X139622204Y-91961863D01*
X139633935Y-92000534D01*
X139638500Y-92046888D01*
X139638500Y-93123112D01*
X139633935Y-93169466D01*
X139622204Y-93208137D01*
X139603152Y-93243779D01*
X139577517Y-93275017D01*
X139546279Y-93300652D01*
X139510637Y-93319704D01*
X139471966Y-93331435D01*
X139425612Y-93336000D01*
X138774388Y-93336000D01*
X138728034Y-93331435D01*
X138689363Y-93319704D01*
X138653721Y-93300652D01*
X138622483Y-93275017D01*
X138596848Y-93243779D01*
X138577796Y-93208137D01*
X138566065Y-93169466D01*
X138561500Y-93123112D01*
X138561500Y-92046888D01*
X138566065Y-92000534D01*
X138577796Y-91961863D01*
X138596848Y-91926221D01*
X138622483Y-91894983D01*
X138653721Y-91869348D01*
X138689363Y-91850296D01*
X138728034Y-91838565D01*
X138774388Y-91834000D01*
X139425612Y-91834000D01*
X139471966Y-91838565D01*
X139471966Y-91838565D01*
G37*
G36*
X131701000Y-93236000D02*
X130539000Y-93236000D01*
X130539000Y-92484000D01*
X131701000Y-92484000D01*
X131701000Y-93236000D01*
X131701000Y-93236000D01*
G37*
G36*
X129501000Y-93236000D02*
X128339000Y-93236000D01*
X128339000Y-90584000D01*
X129501000Y-90584000D01*
X129501000Y-93236000D01*
X129501000Y-93236000D01*
G37*
G36*
X203136425Y-90887760D02*
X203136428Y-90887761D01*
X203136429Y-90887761D01*
X203315693Y-90942140D01*
X203315695Y-90942141D01*
X203480905Y-91030448D01*
X203625712Y-91149288D01*
X203744552Y-91294095D01*
X203744553Y-91294097D01*
X203832860Y-91459307D01*
X203887239Y-91638571D01*
X203887240Y-91638575D01*
X203905601Y-91825000D01*
X203887240Y-92011425D01*
X203887239Y-92011428D01*
X203887239Y-92011429D01*
X203875320Y-92050722D01*
X203832859Y-92190695D01*
X203744552Y-92355905D01*
X203625712Y-92500712D01*
X203480905Y-92619552D01*
X203480903Y-92619553D01*
X203315693Y-92707860D01*
X203136429Y-92762239D01*
X203136428Y-92762239D01*
X203136425Y-92762240D01*
X202996718Y-92776000D01*
X201103282Y-92776000D01*
X200963575Y-92762240D01*
X200963572Y-92762239D01*
X200963571Y-92762239D01*
X200784307Y-92707860D01*
X200619097Y-92619553D01*
X200619095Y-92619552D01*
X200474288Y-92500712D01*
X200355448Y-92355905D01*
X200267141Y-92190695D01*
X200224681Y-92050722D01*
X200212761Y-92011429D01*
X200212761Y-92011428D01*
X200212760Y-92011425D01*
X200194399Y-91825000D01*
X200212760Y-91638575D01*
X200212761Y-91638571D01*
X200267140Y-91459307D01*
X200355447Y-91294097D01*
X200355448Y-91294095D01*
X200474288Y-91149288D01*
X200619095Y-91030448D01*
X200784305Y-90942141D01*
X200784307Y-90942140D01*
X200963571Y-90887761D01*
X200963572Y-90887761D01*
X200963575Y-90887760D01*
X201103282Y-90874000D01*
X202996718Y-90874000D01*
X203136425Y-90887760D01*
X203136425Y-90887760D01*
G37*
G36*
X157851000Y-92736000D02*
X152349000Y-92736000D01*
X152349000Y-89734000D01*
X157851000Y-89734000D01*
X157851000Y-92736000D01*
X157851000Y-92736000D01*
G37*
G36*
X139431966Y-89978565D02*
X139470637Y-89990296D01*
X139506279Y-90009348D01*
X139537517Y-90034983D01*
X139563152Y-90066221D01*
X139582204Y-90101863D01*
X139593935Y-90140534D01*
X139598500Y-90186888D01*
X139598500Y-91263112D01*
X139593935Y-91309466D01*
X139582204Y-91348137D01*
X139563152Y-91383779D01*
X139537517Y-91415017D01*
X139506279Y-91440652D01*
X139470637Y-91459704D01*
X139431966Y-91471435D01*
X139385612Y-91476000D01*
X138734388Y-91476000D01*
X138688034Y-91471435D01*
X138649363Y-91459704D01*
X138613721Y-91440652D01*
X138582483Y-91415017D01*
X138556848Y-91383779D01*
X138537796Y-91348137D01*
X138526065Y-91309466D01*
X138521500Y-91263112D01*
X138521500Y-90186888D01*
X138526065Y-90140534D01*
X138537796Y-90101863D01*
X138556848Y-90066221D01*
X138582483Y-90034983D01*
X138613721Y-90009348D01*
X138649363Y-89990296D01*
X138688034Y-89978565D01*
X138734388Y-89974000D01*
X139385612Y-89974000D01*
X139431966Y-89978565D01*
X139431966Y-89978565D01*
G37*
G36*
X137556966Y-89978565D02*
X137595637Y-89990296D01*
X137631279Y-90009348D01*
X137662517Y-90034983D01*
X137688152Y-90066221D01*
X137707204Y-90101863D01*
X137718935Y-90140534D01*
X137723500Y-90186888D01*
X137723500Y-91263112D01*
X137718935Y-91309466D01*
X137707204Y-91348137D01*
X137688152Y-91383779D01*
X137662517Y-91415017D01*
X137631279Y-91440652D01*
X137595637Y-91459704D01*
X137556966Y-91471435D01*
X137510612Y-91476000D01*
X136859388Y-91476000D01*
X136813034Y-91471435D01*
X136774363Y-91459704D01*
X136738721Y-91440652D01*
X136707483Y-91415017D01*
X136681848Y-91383779D01*
X136662796Y-91348137D01*
X136651065Y-91309466D01*
X136646500Y-91263112D01*
X136646500Y-90186888D01*
X136651065Y-90140534D01*
X136662796Y-90101863D01*
X136681848Y-90066221D01*
X136707483Y-90034983D01*
X136738721Y-90009348D01*
X136774363Y-89990296D01*
X136813034Y-89978565D01*
X136859388Y-89974000D01*
X137510612Y-89974000D01*
X137556966Y-89978565D01*
X137556966Y-89978565D01*
G37*
G36*
X131701000Y-91336000D02*
X130539000Y-91336000D01*
X130539000Y-90584000D01*
X131701000Y-90584000D01*
X131701000Y-91336000D01*
X131701000Y-91336000D01*
G37*
G36*
X196463475Y-89115373D02*
X196495382Y-89125052D01*
X196524792Y-89140773D01*
X196550571Y-89161929D01*
X196571727Y-89187708D01*
X196587448Y-89217118D01*
X196597127Y-89249025D01*
X196601000Y-89288353D01*
X196601000Y-90961647D01*
X196597127Y-91000975D01*
X196587448Y-91032882D01*
X196571727Y-91062292D01*
X196550571Y-91088071D01*
X196524792Y-91109227D01*
X196495382Y-91124948D01*
X196463475Y-91134627D01*
X196424147Y-91138500D01*
X191225853Y-91138500D01*
X191186525Y-91134627D01*
X191154618Y-91124948D01*
X191125208Y-91109227D01*
X191099429Y-91088071D01*
X191078273Y-91062292D01*
X191062552Y-91032882D01*
X191052873Y-91000975D01*
X191049000Y-90961647D01*
X191049000Y-89288353D01*
X191052873Y-89249025D01*
X191062552Y-89217118D01*
X191078273Y-89187708D01*
X191099429Y-89161929D01*
X191125208Y-89140773D01*
X191154618Y-89125052D01*
X191186525Y-89115373D01*
X191225853Y-89111500D01*
X196424147Y-89111500D01*
X196463475Y-89115373D01*
X196463475Y-89115373D01*
G37*
G36*
X169481000Y-90826000D02*
X166379000Y-90826000D01*
X166379000Y-89124000D01*
X169481000Y-89124000D01*
X169481000Y-90826000D01*
X169481000Y-90826000D01*
G37*
G36*
X165081000Y-90826000D02*
X161979000Y-90826000D01*
X161979000Y-89124000D01*
X165081000Y-89124000D01*
X165081000Y-90826000D01*
X165081000Y-90826000D01*
G37*
G36*
X177243604Y-88228347D02*
X177280145Y-88239432D01*
X177313820Y-88257431D01*
X177343341Y-88281659D01*
X177367569Y-88311180D01*
X177385568Y-88344855D01*
X177396653Y-88381396D01*
X177401000Y-88425538D01*
X177401000Y-89874462D01*
X177396653Y-89918604D01*
X177385568Y-89955145D01*
X177367569Y-89988820D01*
X177343341Y-90018341D01*
X177313820Y-90042569D01*
X177280145Y-90060568D01*
X177243604Y-90071653D01*
X177199462Y-90076000D01*
X176250538Y-90076000D01*
X176206396Y-90071653D01*
X176169855Y-90060568D01*
X176136180Y-90042569D01*
X176106659Y-90018341D01*
X176082431Y-89988820D01*
X176064432Y-89955145D01*
X176053347Y-89918604D01*
X176049000Y-89874462D01*
X176049000Y-88425538D01*
X176053347Y-88381396D01*
X176064432Y-88344855D01*
X176082431Y-88311180D01*
X176106659Y-88281659D01*
X176136180Y-88257431D01*
X176169855Y-88239432D01*
X176206396Y-88228347D01*
X176250538Y-88224000D01*
X177199462Y-88224000D01*
X177243604Y-88228347D01*
X177243604Y-88228347D01*
G37*
G36*
X174443604Y-88228347D02*
X174480145Y-88239432D01*
X174513820Y-88257431D01*
X174543341Y-88281659D01*
X174567569Y-88311180D01*
X174585568Y-88344855D01*
X174596653Y-88381396D01*
X174601000Y-88425538D01*
X174601000Y-89874462D01*
X174596653Y-89918604D01*
X174585568Y-89955145D01*
X174567569Y-89988820D01*
X174543341Y-90018341D01*
X174513820Y-90042569D01*
X174480145Y-90060568D01*
X174443604Y-90071653D01*
X174399462Y-90076000D01*
X173450538Y-90076000D01*
X173406396Y-90071653D01*
X173369855Y-90060568D01*
X173336180Y-90042569D01*
X173306659Y-90018341D01*
X173282431Y-89988820D01*
X173264432Y-89955145D01*
X173253347Y-89918604D01*
X173249000Y-89874462D01*
X173249000Y-88425538D01*
X173253347Y-88381396D01*
X173264432Y-88344855D01*
X173282431Y-88311180D01*
X173306659Y-88281659D01*
X173336180Y-88257431D01*
X173369855Y-88239432D01*
X173406396Y-88228347D01*
X173450538Y-88224000D01*
X174399462Y-88224000D01*
X174443604Y-88228347D01*
X174443604Y-88228347D01*
G37*
G36*
X132491966Y-88553565D02*
X132530637Y-88565296D01*
X132566279Y-88584348D01*
X132597517Y-88609983D01*
X132623152Y-88641221D01*
X132642204Y-88676863D01*
X132653935Y-88715534D01*
X132658500Y-88761888D01*
X132658500Y-89838112D01*
X132653935Y-89884466D01*
X132642204Y-89923137D01*
X132623152Y-89958779D01*
X132597517Y-89990017D01*
X132566279Y-90015652D01*
X132530637Y-90034704D01*
X132491966Y-90046435D01*
X132445612Y-90051000D01*
X131794388Y-90051000D01*
X131748034Y-90046435D01*
X131709363Y-90034704D01*
X131673721Y-90015652D01*
X131642483Y-89990017D01*
X131616848Y-89958779D01*
X131597796Y-89923137D01*
X131586065Y-89884466D01*
X131581500Y-89838112D01*
X131581500Y-88761888D01*
X131586065Y-88715534D01*
X131597796Y-88676863D01*
X131616848Y-88641221D01*
X131642483Y-88609983D01*
X131673721Y-88584348D01*
X131709363Y-88565296D01*
X131748034Y-88553565D01*
X131794388Y-88549000D01*
X132445612Y-88549000D01*
X132491966Y-88553565D01*
X132491966Y-88553565D01*
G37*
G36*
X130616966Y-88553565D02*
X130655637Y-88565296D01*
X130691279Y-88584348D01*
X130722517Y-88609983D01*
X130748152Y-88641221D01*
X130767204Y-88676863D01*
X130778935Y-88715534D01*
X130783500Y-88761888D01*
X130783500Y-89838112D01*
X130778935Y-89884466D01*
X130767204Y-89923137D01*
X130748152Y-89958779D01*
X130722517Y-89990017D01*
X130691279Y-90015652D01*
X130655637Y-90034704D01*
X130616966Y-90046435D01*
X130570612Y-90051000D01*
X129919388Y-90051000D01*
X129873034Y-90046435D01*
X129834363Y-90034704D01*
X129798721Y-90015652D01*
X129767483Y-89990017D01*
X129741848Y-89958779D01*
X129722796Y-89923137D01*
X129711065Y-89884466D01*
X129706500Y-89838112D01*
X129706500Y-88761888D01*
X129711065Y-88715534D01*
X129722796Y-88676863D01*
X129741848Y-88641221D01*
X129767483Y-88609983D01*
X129798721Y-88584348D01*
X129834363Y-88565296D01*
X129873034Y-88553565D01*
X129919388Y-88549000D01*
X130570612Y-88549000D01*
X130616966Y-88553565D01*
X130616966Y-88553565D01*
G37*
G36*
X147381000Y-89726000D02*
X144979000Y-89726000D01*
X144979000Y-87124000D01*
X147381000Y-87124000D01*
X147381000Y-89726000D01*
X147381000Y-89726000D01*
G37*
G36*
X143010578Y-89402788D02*
X142308578Y-89402788D01*
X142308578Y-87750788D01*
X143010578Y-87750788D01*
X143010578Y-89402788D01*
X143010578Y-89402788D01*
G37*
G36*
X140470578Y-89402788D02*
X139768578Y-89402788D01*
X139768578Y-87750788D01*
X140470578Y-87750788D01*
X140470578Y-89402788D01*
X140470578Y-89402788D01*
G37*
G36*
X139200578Y-89402788D02*
X138498578Y-89402788D01*
X138498578Y-87750788D01*
X139200578Y-87750788D01*
X139200578Y-89402788D01*
X139200578Y-89402788D01*
G37*
G36*
X141740578Y-89402788D02*
X141038578Y-89402788D01*
X141038578Y-87750788D01*
X141740578Y-87750788D01*
X141740578Y-89402788D01*
X141740578Y-89402788D01*
G37*
G36*
X190701000Y-89101000D02*
X188299000Y-89101000D01*
X188299000Y-86499000D01*
X190701000Y-86499000D01*
X190701000Y-89101000D01*
X190701000Y-89101000D01*
G37*
G36*
X195101000Y-88351000D02*
X192699000Y-88351000D01*
X192699000Y-85749000D01*
X195101000Y-85749000D01*
X195101000Y-88351000D01*
X195101000Y-88351000D01*
G37*
G36*
X128858604Y-86378347D02*
X128895145Y-86389432D01*
X128928820Y-86407431D01*
X128958341Y-86431659D01*
X128982569Y-86461180D01*
X129000568Y-86494855D01*
X129011653Y-86531396D01*
X129016000Y-86575538D01*
X129016000Y-87524462D01*
X129011653Y-87568604D01*
X129000568Y-87605145D01*
X128982569Y-87638820D01*
X128958341Y-87668341D01*
X128928820Y-87692569D01*
X128895145Y-87710568D01*
X128858604Y-87721653D01*
X128814462Y-87726000D01*
X127365538Y-87726000D01*
X127321396Y-87721653D01*
X127284855Y-87710568D01*
X127251180Y-87692569D01*
X127221659Y-87668341D01*
X127197431Y-87638820D01*
X127179432Y-87605145D01*
X127168347Y-87568604D01*
X127164000Y-87524462D01*
X127164000Y-86575538D01*
X127168347Y-86531396D01*
X127179432Y-86494855D01*
X127197431Y-86461180D01*
X127221659Y-86431659D01*
X127251180Y-86407431D01*
X127284855Y-86389432D01*
X127321396Y-86378347D01*
X127365538Y-86374000D01*
X128814462Y-86374000D01*
X128858604Y-86378347D01*
X128858604Y-86378347D01*
G37*
G36*
X180896966Y-86053565D02*
X180935637Y-86065296D01*
X180971279Y-86084348D01*
X181002517Y-86109983D01*
X181028152Y-86141221D01*
X181047204Y-86176863D01*
X181058935Y-86215534D01*
X181063500Y-86261888D01*
X181063500Y-87338112D01*
X181058935Y-87384466D01*
X181047204Y-87423137D01*
X181028152Y-87458779D01*
X181002517Y-87490017D01*
X180971279Y-87515652D01*
X180935637Y-87534704D01*
X180896966Y-87546435D01*
X180850612Y-87551000D01*
X180199388Y-87551000D01*
X180153034Y-87546435D01*
X180114363Y-87534704D01*
X180078721Y-87515652D01*
X180047483Y-87490017D01*
X180021848Y-87458779D01*
X180002796Y-87423137D01*
X179991065Y-87384466D01*
X179986500Y-87338112D01*
X179986500Y-86261888D01*
X179991065Y-86215534D01*
X180002796Y-86176863D01*
X180021848Y-86141221D01*
X180047483Y-86109983D01*
X180078721Y-86084348D01*
X180114363Y-86065296D01*
X180153034Y-86053565D01*
X180199388Y-86049000D01*
X180850612Y-86049000D01*
X180896966Y-86053565D01*
X180896966Y-86053565D01*
G37*
G36*
X182771966Y-86053565D02*
X182810637Y-86065296D01*
X182846279Y-86084348D01*
X182877517Y-86109983D01*
X182903152Y-86141221D01*
X182922204Y-86176863D01*
X182933935Y-86215534D01*
X182938500Y-86261888D01*
X182938500Y-87338112D01*
X182933935Y-87384466D01*
X182922204Y-87423137D01*
X182903152Y-87458779D01*
X182877517Y-87490017D01*
X182846279Y-87515652D01*
X182810637Y-87534704D01*
X182771966Y-87546435D01*
X182725612Y-87551000D01*
X182074388Y-87551000D01*
X182028034Y-87546435D01*
X181989363Y-87534704D01*
X181953721Y-87515652D01*
X181922483Y-87490017D01*
X181896848Y-87458779D01*
X181877796Y-87423137D01*
X181866065Y-87384466D01*
X181861500Y-87338112D01*
X181861500Y-86261888D01*
X181866065Y-86215534D01*
X181877796Y-86176863D01*
X181896848Y-86141221D01*
X181922483Y-86109983D01*
X181953721Y-86084348D01*
X181989363Y-86065296D01*
X182028034Y-86053565D01*
X182074388Y-86049000D01*
X182725612Y-86049000D01*
X182771966Y-86053565D01*
X182771966Y-86053565D01*
G37*
G36*
X186346966Y-86028565D02*
X186385637Y-86040296D01*
X186421279Y-86059348D01*
X186452517Y-86084983D01*
X186478152Y-86116221D01*
X186497204Y-86151863D01*
X186508935Y-86190534D01*
X186513500Y-86236888D01*
X186513500Y-87313112D01*
X186508935Y-87359466D01*
X186497204Y-87398137D01*
X186478152Y-87433779D01*
X186452517Y-87465017D01*
X186421279Y-87490652D01*
X186385637Y-87509704D01*
X186346966Y-87521435D01*
X186300612Y-87526000D01*
X185649388Y-87526000D01*
X185603034Y-87521435D01*
X185564363Y-87509704D01*
X185528721Y-87490652D01*
X185497483Y-87465017D01*
X185471848Y-87433779D01*
X185452796Y-87398137D01*
X185441065Y-87359466D01*
X185436500Y-87313112D01*
X185436500Y-86236888D01*
X185441065Y-86190534D01*
X185452796Y-86151863D01*
X185471848Y-86116221D01*
X185497483Y-86084983D01*
X185528721Y-86059348D01*
X185564363Y-86040296D01*
X185603034Y-86028565D01*
X185649388Y-86024000D01*
X186300612Y-86024000D01*
X186346966Y-86028565D01*
X186346966Y-86028565D01*
G37*
G36*
X184471966Y-86028565D02*
X184510637Y-86040296D01*
X184546279Y-86059348D01*
X184577517Y-86084983D01*
X184603152Y-86116221D01*
X184622204Y-86151863D01*
X184633935Y-86190534D01*
X184638500Y-86236888D01*
X184638500Y-87313112D01*
X184633935Y-87359466D01*
X184622204Y-87398137D01*
X184603152Y-87433779D01*
X184577517Y-87465017D01*
X184546279Y-87490652D01*
X184510637Y-87509704D01*
X184471966Y-87521435D01*
X184425612Y-87526000D01*
X183774388Y-87526000D01*
X183728034Y-87521435D01*
X183689363Y-87509704D01*
X183653721Y-87490652D01*
X183622483Y-87465017D01*
X183596848Y-87433779D01*
X183577796Y-87398137D01*
X183566065Y-87359466D01*
X183561500Y-87313112D01*
X183561500Y-86236888D01*
X183566065Y-86190534D01*
X183577796Y-86151863D01*
X183596848Y-86116221D01*
X183622483Y-86084983D01*
X183653721Y-86059348D01*
X183689363Y-86040296D01*
X183728034Y-86028565D01*
X183774388Y-86024000D01*
X184425612Y-86024000D01*
X184471966Y-86028565D01*
X184471966Y-86028565D01*
G37*
G36*
X178984466Y-86341065D02*
X179023137Y-86352796D01*
X179058779Y-86371848D01*
X179090017Y-86397483D01*
X179115652Y-86428721D01*
X179134704Y-86464363D01*
X179146435Y-86503034D01*
X179151000Y-86549388D01*
X179151000Y-87200612D01*
X179146435Y-87246966D01*
X179134704Y-87285637D01*
X179115652Y-87321279D01*
X179090017Y-87352517D01*
X179058779Y-87378152D01*
X179023137Y-87397204D01*
X178984466Y-87408935D01*
X178938112Y-87413500D01*
X177861888Y-87413500D01*
X177815534Y-87408935D01*
X177776863Y-87397204D01*
X177741221Y-87378152D01*
X177709983Y-87352517D01*
X177684348Y-87321279D01*
X177665296Y-87285637D01*
X177653565Y-87246966D01*
X177649000Y-87200612D01*
X177649000Y-86549388D01*
X177653565Y-86503034D01*
X177665296Y-86464363D01*
X177684348Y-86428721D01*
X177709983Y-86397483D01*
X177741221Y-86371848D01*
X177776863Y-86352796D01*
X177815534Y-86341065D01*
X177861888Y-86336500D01*
X178938112Y-86336500D01*
X178984466Y-86341065D01*
X178984466Y-86341065D01*
G37*
G36*
X174756000Y-87351000D02*
X173594000Y-87351000D01*
X173594000Y-84699000D01*
X174756000Y-84699000D01*
X174756000Y-87351000D01*
X174756000Y-87351000D01*
G37*
G36*
X176956000Y-87351000D02*
X175794000Y-87351000D01*
X175794000Y-86599000D01*
X176956000Y-86599000D01*
X176956000Y-87351000D01*
X176956000Y-87351000D01*
G37*
G36*
X142355578Y-87227788D02*
X139153578Y-87227788D01*
X139153578Y-84525788D01*
X142355578Y-84525788D01*
X142355578Y-87227788D01*
X142355578Y-87227788D01*
G37*
G36*
X178984466Y-84466065D02*
X179023137Y-84477796D01*
X179058779Y-84496848D01*
X179090017Y-84522483D01*
X179115652Y-84553721D01*
X179134704Y-84589363D01*
X179146435Y-84628034D01*
X179151000Y-84674388D01*
X179151000Y-85325612D01*
X179146435Y-85371966D01*
X179134704Y-85410637D01*
X179115652Y-85446279D01*
X179090017Y-85477517D01*
X179058779Y-85503152D01*
X179023137Y-85522204D01*
X178984466Y-85533935D01*
X178938112Y-85538500D01*
X177861888Y-85538500D01*
X177815534Y-85533935D01*
X177776863Y-85522204D01*
X177741221Y-85503152D01*
X177709983Y-85477517D01*
X177684348Y-85446279D01*
X177665296Y-85410637D01*
X177653565Y-85371966D01*
X177649000Y-85325612D01*
X177649000Y-84674388D01*
X177653565Y-84628034D01*
X177665296Y-84589363D01*
X177684348Y-84553721D01*
X177709983Y-84522483D01*
X177741221Y-84496848D01*
X177776863Y-84477796D01*
X177815534Y-84466065D01*
X177861888Y-84461500D01*
X178938112Y-84461500D01*
X178984466Y-84466065D01*
X178984466Y-84466065D01*
G37*
G36*
X176956000Y-85451000D02*
X175794000Y-85451000D01*
X175794000Y-84699000D01*
X176956000Y-84699000D01*
X176956000Y-85451000D01*
X176956000Y-85451000D01*
G37*
G36*
X184651000Y-85301000D02*
X183049000Y-85301000D01*
X183049000Y-83199000D01*
X184651000Y-83199000D01*
X184651000Y-85301000D01*
X184651000Y-85301000D01*
G37*
G36*
X186951000Y-85301000D02*
X185349000Y-85301000D01*
X185349000Y-83199000D01*
X186951000Y-83199000D01*
X186951000Y-85301000D01*
X186951000Y-85301000D01*
G37*
G36*
X182351000Y-85301000D02*
X180749000Y-85301000D01*
X180749000Y-83199000D01*
X182351000Y-83199000D01*
X182351000Y-85301000D01*
X182351000Y-85301000D01*
G37*
G36*
X128858604Y-83578347D02*
X128895145Y-83589432D01*
X128928820Y-83607431D01*
X128958341Y-83631659D01*
X128982569Y-83661180D01*
X129000568Y-83694855D01*
X129011653Y-83731396D01*
X129016000Y-83775538D01*
X129016000Y-84724462D01*
X129011653Y-84768604D01*
X129000568Y-84805145D01*
X128982569Y-84838820D01*
X128958341Y-84868341D01*
X128928820Y-84892569D01*
X128895145Y-84910568D01*
X128858604Y-84921653D01*
X128814462Y-84926000D01*
X127365538Y-84926000D01*
X127321396Y-84921653D01*
X127284855Y-84910568D01*
X127251180Y-84892569D01*
X127221659Y-84868341D01*
X127197431Y-84838820D01*
X127179432Y-84805145D01*
X127168347Y-84768604D01*
X127164000Y-84724462D01*
X127164000Y-83775538D01*
X127168347Y-83731396D01*
X127179432Y-83694855D01*
X127197431Y-83661180D01*
X127221659Y-83631659D01*
X127251180Y-83607431D01*
X127284855Y-83589432D01*
X127321396Y-83578347D01*
X127365538Y-83574000D01*
X128814462Y-83574000D01*
X128858604Y-83578347D01*
X128858604Y-83578347D01*
G37*
G36*
X190701000Y-84801000D02*
X188299000Y-84801000D01*
X188299000Y-82199000D01*
X190701000Y-82199000D01*
X190701000Y-84801000D01*
X190701000Y-84801000D01*
G37*
G36*
X169541000Y-84666000D02*
X166439000Y-84666000D01*
X166439000Y-82964000D01*
X169541000Y-82964000D01*
X169541000Y-84666000D01*
X169541000Y-84666000D01*
G37*
G36*
X165141000Y-84666000D02*
X162039000Y-84666000D01*
X162039000Y-82964000D01*
X165141000Y-82964000D01*
X165141000Y-84666000D01*
X165141000Y-84666000D01*
G37*
G36*
X130701000Y-84066000D02*
X129539000Y-84066000D01*
X129539000Y-81414000D01*
X130701000Y-81414000D01*
X130701000Y-84066000D01*
X130701000Y-84066000D01*
G37*
G36*
X132901000Y-84066000D02*
X131739000Y-84066000D01*
X131739000Y-83314000D01*
X132901000Y-83314000D01*
X132901000Y-84066000D01*
X132901000Y-84066000D01*
G37*
G36*
X195101000Y-84051000D02*
X192699000Y-84051000D01*
X192699000Y-81449000D01*
X195101000Y-81449000D01*
X195101000Y-84051000D01*
X195101000Y-84051000D01*
G37*
G36*
X139200578Y-84002788D02*
X138498578Y-84002788D01*
X138498578Y-82350788D01*
X139200578Y-82350788D01*
X139200578Y-84002788D01*
X139200578Y-84002788D01*
G37*
G36*
X140470578Y-84002788D02*
X139768578Y-84002788D01*
X139768578Y-82350788D01*
X140470578Y-82350788D01*
X140470578Y-84002788D01*
X140470578Y-84002788D01*
G37*
G36*
X141740578Y-84002788D02*
X141038578Y-84002788D01*
X141038578Y-82350788D01*
X141740578Y-82350788D01*
X141740578Y-84002788D01*
X141740578Y-84002788D01*
G37*
G36*
X143010578Y-84002788D02*
X142308578Y-84002788D01*
X142308578Y-82350788D01*
X143010578Y-82350788D01*
X143010578Y-84002788D01*
X143010578Y-84002788D01*
G37*
G36*
X179746966Y-82378565D02*
X179785637Y-82390296D01*
X179821279Y-82409348D01*
X179852517Y-82434983D01*
X179878152Y-82466221D01*
X179897204Y-82501863D01*
X179908935Y-82540534D01*
X179913500Y-82586888D01*
X179913500Y-83663112D01*
X179908935Y-83709466D01*
X179897204Y-83748137D01*
X179878152Y-83783779D01*
X179852517Y-83815017D01*
X179821279Y-83840652D01*
X179785637Y-83859704D01*
X179746966Y-83871435D01*
X179700612Y-83876000D01*
X179049388Y-83876000D01*
X179003034Y-83871435D01*
X178964363Y-83859704D01*
X178928721Y-83840652D01*
X178897483Y-83815017D01*
X178871848Y-83783779D01*
X178852796Y-83748137D01*
X178841065Y-83709466D01*
X178836500Y-83663112D01*
X178836500Y-82586888D01*
X178841065Y-82540534D01*
X178852796Y-82501863D01*
X178871848Y-82466221D01*
X178897483Y-82434983D01*
X178928721Y-82409348D01*
X178964363Y-82390296D01*
X179003034Y-82378565D01*
X179049388Y-82374000D01*
X179700612Y-82374000D01*
X179746966Y-82378565D01*
X179746966Y-82378565D01*
G37*
G36*
X177871966Y-82378565D02*
X177910637Y-82390296D01*
X177946279Y-82409348D01*
X177977517Y-82434983D01*
X178003152Y-82466221D01*
X178022204Y-82501863D01*
X178033935Y-82540534D01*
X178038500Y-82586888D01*
X178038500Y-83663112D01*
X178033935Y-83709466D01*
X178022204Y-83748137D01*
X178003152Y-83783779D01*
X177977517Y-83815017D01*
X177946279Y-83840652D01*
X177910637Y-83859704D01*
X177871966Y-83871435D01*
X177825612Y-83876000D01*
X177174388Y-83876000D01*
X177128034Y-83871435D01*
X177089363Y-83859704D01*
X177053721Y-83840652D01*
X177022483Y-83815017D01*
X176996848Y-83783779D01*
X176977796Y-83748137D01*
X176966065Y-83709466D01*
X176961500Y-83663112D01*
X176961500Y-82586888D01*
X176966065Y-82540534D01*
X176977796Y-82501863D01*
X176996848Y-82466221D01*
X177022483Y-82434983D01*
X177053721Y-82409348D01*
X177089363Y-82390296D01*
X177128034Y-82378565D01*
X177174388Y-82374000D01*
X177825612Y-82374000D01*
X177871966Y-82378565D01*
X177871966Y-82378565D01*
G37*
G36*
X203264600Y-83839600D02*
X201435400Y-83839600D01*
X201435400Y-82010400D01*
X203264600Y-82010400D01*
X203264600Y-83839600D01*
X203264600Y-83839600D01*
G37*
G36*
X199989294Y-82023633D02*
X200161694Y-82075931D01*
X200161696Y-82075932D01*
X200320583Y-82160859D01*
X200459849Y-82275151D01*
X200574141Y-82414417D01*
X200620882Y-82501863D01*
X200659069Y-82573306D01*
X200711367Y-82745706D01*
X200729025Y-82925000D01*
X200711367Y-83104294D01*
X200659069Y-83276694D01*
X200659068Y-83276696D01*
X200574141Y-83435583D01*
X200459849Y-83574849D01*
X200320583Y-83689141D01*
X200210209Y-83748137D01*
X200161694Y-83774069D01*
X199989294Y-83826367D01*
X199854931Y-83839600D01*
X199765069Y-83839600D01*
X199630706Y-83826367D01*
X199458306Y-83774069D01*
X199409791Y-83748137D01*
X199299417Y-83689141D01*
X199160151Y-83574849D01*
X199045859Y-83435583D01*
X198960932Y-83276696D01*
X198960931Y-83276694D01*
X198908633Y-83104294D01*
X198890975Y-82925000D01*
X198908633Y-82745706D01*
X198960931Y-82573306D01*
X198999118Y-82501863D01*
X199045859Y-82414417D01*
X199160151Y-82275151D01*
X199299417Y-82160859D01*
X199458304Y-82075932D01*
X199458306Y-82075931D01*
X199630706Y-82023633D01*
X199765069Y-82010400D01*
X199854931Y-82010400D01*
X199989294Y-82023633D01*
X199989294Y-82023633D01*
G37*
G36*
X144946966Y-82338565D02*
X144985637Y-82350296D01*
X145021279Y-82369348D01*
X145052517Y-82394983D01*
X145078152Y-82426221D01*
X145097204Y-82461863D01*
X145108935Y-82500534D01*
X145113500Y-82546888D01*
X145113500Y-83623112D01*
X145108935Y-83669466D01*
X145097204Y-83708137D01*
X145078152Y-83743779D01*
X145052517Y-83775017D01*
X145021279Y-83800652D01*
X144985637Y-83819704D01*
X144946966Y-83831435D01*
X144900612Y-83836000D01*
X144249388Y-83836000D01*
X144203034Y-83831435D01*
X144164363Y-83819704D01*
X144128721Y-83800652D01*
X144097483Y-83775017D01*
X144071848Y-83743779D01*
X144052796Y-83708137D01*
X144041065Y-83669466D01*
X144036500Y-83623112D01*
X144036500Y-82546888D01*
X144041065Y-82500534D01*
X144052796Y-82461863D01*
X144071848Y-82426221D01*
X144097483Y-82394983D01*
X144128721Y-82369348D01*
X144164363Y-82350296D01*
X144203034Y-82338565D01*
X144249388Y-82334000D01*
X144900612Y-82334000D01*
X144946966Y-82338565D01*
X144946966Y-82338565D01*
G37*
G36*
X146821966Y-82338565D02*
X146860637Y-82350296D01*
X146896279Y-82369348D01*
X146927517Y-82394983D01*
X146953152Y-82426221D01*
X146972204Y-82461863D01*
X146983935Y-82500534D01*
X146988500Y-82546888D01*
X146988500Y-83623112D01*
X146983935Y-83669466D01*
X146972204Y-83708137D01*
X146953152Y-83743779D01*
X146927517Y-83775017D01*
X146896279Y-83800652D01*
X146860637Y-83819704D01*
X146821966Y-83831435D01*
X146775612Y-83836000D01*
X146124388Y-83836000D01*
X146078034Y-83831435D01*
X146039363Y-83819704D01*
X146003721Y-83800652D01*
X145972483Y-83775017D01*
X145946848Y-83743779D01*
X145927796Y-83708137D01*
X145916065Y-83669466D01*
X145911500Y-83623112D01*
X145911500Y-82546888D01*
X145916065Y-82500534D01*
X145927796Y-82461863D01*
X145946848Y-82426221D01*
X145972483Y-82394983D01*
X146003721Y-82369348D01*
X146039363Y-82350296D01*
X146078034Y-82338565D01*
X146124388Y-82334000D01*
X146775612Y-82334000D01*
X146821966Y-82338565D01*
X146821966Y-82338565D01*
G37*
G36*
X137434466Y-82536065D02*
X137473137Y-82547796D01*
X137508779Y-82566848D01*
X137540017Y-82592483D01*
X137565652Y-82623721D01*
X137584704Y-82659363D01*
X137596435Y-82698034D01*
X137601000Y-82744388D01*
X137601000Y-83395612D01*
X137596435Y-83441966D01*
X137584704Y-83480637D01*
X137565652Y-83516279D01*
X137540017Y-83547517D01*
X137508779Y-83573152D01*
X137473137Y-83592204D01*
X137434466Y-83603935D01*
X137388112Y-83608500D01*
X136311888Y-83608500D01*
X136265534Y-83603935D01*
X136226863Y-83592204D01*
X136191221Y-83573152D01*
X136159983Y-83547517D01*
X136134348Y-83516279D01*
X136115296Y-83480637D01*
X136103565Y-83441966D01*
X136099000Y-83395612D01*
X136099000Y-82744388D01*
X136103565Y-82698034D01*
X136115296Y-82659363D01*
X136134348Y-82623721D01*
X136159983Y-82592483D01*
X136191221Y-82566848D01*
X136226863Y-82547796D01*
X136265534Y-82536065D01*
X136311888Y-82531500D01*
X137388112Y-82531500D01*
X137434466Y-82536065D01*
X137434466Y-82536065D01*
G37*
G36*
X157851000Y-82836000D02*
X152349000Y-82836000D01*
X152349000Y-79834000D01*
X157851000Y-79834000D01*
X157851000Y-82836000D01*
X157851000Y-82836000D01*
G37*
G36*
X132901000Y-82166000D02*
X131739000Y-82166000D01*
X131739000Y-81414000D01*
X132901000Y-81414000D01*
X132901000Y-82166000D01*
X132901000Y-82166000D01*
G37*
G36*
X137434466Y-80661065D02*
X137473137Y-80672796D01*
X137508779Y-80691848D01*
X137540017Y-80717483D01*
X137565652Y-80748721D01*
X137584704Y-80784363D01*
X137596435Y-80823034D01*
X137601000Y-80869388D01*
X137601000Y-81520612D01*
X137596435Y-81566966D01*
X137584704Y-81605637D01*
X137565652Y-81641279D01*
X137540017Y-81672517D01*
X137508779Y-81698152D01*
X137473137Y-81717204D01*
X137434466Y-81728935D01*
X137388112Y-81733500D01*
X136311888Y-81733500D01*
X136265534Y-81728935D01*
X136226863Y-81717204D01*
X136191221Y-81698152D01*
X136159983Y-81672517D01*
X136134348Y-81641279D01*
X136115296Y-81605637D01*
X136103565Y-81566966D01*
X136099000Y-81520612D01*
X136099000Y-80869388D01*
X136103565Y-80823034D01*
X136115296Y-80784363D01*
X136134348Y-80748721D01*
X136159983Y-80717483D01*
X136191221Y-80691848D01*
X136226863Y-80672796D01*
X136265534Y-80661065D01*
X136311888Y-80656500D01*
X137388112Y-80656500D01*
X137434466Y-80661065D01*
X137434466Y-80661065D01*
G37*
G36*
X139404466Y-80611065D02*
X139443137Y-80622796D01*
X139478779Y-80641848D01*
X139510017Y-80667483D01*
X139535652Y-80698721D01*
X139554704Y-80734363D01*
X139566435Y-80773034D01*
X139571000Y-80819388D01*
X139571000Y-81470612D01*
X139566435Y-81516966D01*
X139554704Y-81555637D01*
X139535652Y-81591279D01*
X139510017Y-81622517D01*
X139478779Y-81648152D01*
X139443137Y-81667204D01*
X139404466Y-81678935D01*
X139358112Y-81683500D01*
X138281888Y-81683500D01*
X138235534Y-81678935D01*
X138196863Y-81667204D01*
X138161221Y-81648152D01*
X138129983Y-81622517D01*
X138104348Y-81591279D01*
X138085296Y-81555637D01*
X138073565Y-81516966D01*
X138069000Y-81470612D01*
X138069000Y-80819388D01*
X138073565Y-80773034D01*
X138085296Y-80734363D01*
X138104348Y-80698721D01*
X138129983Y-80667483D01*
X138161221Y-80641848D01*
X138196863Y-80622796D01*
X138235534Y-80611065D01*
X138281888Y-80606500D01*
X139358112Y-80606500D01*
X139404466Y-80611065D01*
X139404466Y-80611065D01*
G37*
G36*
X141424466Y-80581065D02*
X141463137Y-80592796D01*
X141498779Y-80611848D01*
X141530017Y-80637483D01*
X141555652Y-80668721D01*
X141574704Y-80704363D01*
X141586435Y-80743034D01*
X141591000Y-80789388D01*
X141591000Y-81440612D01*
X141586435Y-81486966D01*
X141574704Y-81525637D01*
X141555652Y-81561279D01*
X141530017Y-81592517D01*
X141498779Y-81618152D01*
X141463137Y-81637204D01*
X141424466Y-81648935D01*
X141378112Y-81653500D01*
X140301888Y-81653500D01*
X140255534Y-81648935D01*
X140216863Y-81637204D01*
X140181221Y-81618152D01*
X140149983Y-81592517D01*
X140124348Y-81561279D01*
X140105296Y-81525637D01*
X140093565Y-81486966D01*
X140089000Y-81440612D01*
X140089000Y-80789388D01*
X140093565Y-80743034D01*
X140105296Y-80704363D01*
X140124348Y-80668721D01*
X140149983Y-80637483D01*
X140181221Y-80611848D01*
X140216863Y-80592796D01*
X140255534Y-80581065D01*
X140301888Y-80576500D01*
X141378112Y-80576500D01*
X141424466Y-80581065D01*
X141424466Y-80581065D01*
G37*
G36*
X189376000Y-81351000D02*
X188824000Y-81351000D01*
X188824000Y-80649000D01*
X189376000Y-80649000D01*
X189376000Y-81351000D01*
X189376000Y-81351000D01*
G37*
G36*
X199989294Y-79483633D02*
X200161694Y-79535931D01*
X200161696Y-79535932D01*
X200320583Y-79620859D01*
X200459849Y-79735151D01*
X200574141Y-79874417D01*
X200647146Y-80011000D01*
X200659069Y-80033306D01*
X200711367Y-80205706D01*
X200729025Y-80385000D01*
X200711367Y-80564294D01*
X200659069Y-80736694D01*
X200659068Y-80736696D01*
X200574141Y-80895583D01*
X200459849Y-81034849D01*
X200320583Y-81149141D01*
X200161696Y-81234068D01*
X200161694Y-81234069D01*
X199989294Y-81286367D01*
X199854931Y-81299600D01*
X199765069Y-81299600D01*
X199630706Y-81286367D01*
X199458306Y-81234069D01*
X199458304Y-81234068D01*
X199299417Y-81149141D01*
X199160151Y-81034849D01*
X199045859Y-80895583D01*
X198960932Y-80736696D01*
X198960931Y-80736694D01*
X198908633Y-80564294D01*
X198890975Y-80385000D01*
X198908633Y-80205706D01*
X198960931Y-80033306D01*
X198972854Y-80011000D01*
X199045859Y-79874417D01*
X199160151Y-79735151D01*
X199299417Y-79620859D01*
X199458304Y-79535932D01*
X199458306Y-79535931D01*
X199630706Y-79483633D01*
X199765069Y-79470400D01*
X199854931Y-79470400D01*
X199989294Y-79483633D01*
X199989294Y-79483633D01*
G37*
G36*
X202529294Y-79483633D02*
X202701694Y-79535931D01*
X202701696Y-79535932D01*
X202860583Y-79620859D01*
X202999849Y-79735151D01*
X203114141Y-79874417D01*
X203187146Y-80011000D01*
X203199069Y-80033306D01*
X203251367Y-80205706D01*
X203269025Y-80385000D01*
X203251367Y-80564294D01*
X203199069Y-80736694D01*
X203199068Y-80736696D01*
X203114141Y-80895583D01*
X202999849Y-81034849D01*
X202860583Y-81149141D01*
X202701696Y-81234068D01*
X202701694Y-81234069D01*
X202529294Y-81286367D01*
X202394931Y-81299600D01*
X202305069Y-81299600D01*
X202170706Y-81286367D01*
X201998306Y-81234069D01*
X201998304Y-81234068D01*
X201839417Y-81149141D01*
X201700151Y-81034849D01*
X201585859Y-80895583D01*
X201500932Y-80736696D01*
X201500931Y-80736694D01*
X201448633Y-80564294D01*
X201430975Y-80385000D01*
X201448633Y-80205706D01*
X201500931Y-80033306D01*
X201512854Y-80011000D01*
X201585859Y-79874417D01*
X201700151Y-79735151D01*
X201839417Y-79620859D01*
X201998304Y-79535932D01*
X201998306Y-79535931D01*
X202170706Y-79483633D01*
X202305069Y-79470400D01*
X202394931Y-79470400D01*
X202529294Y-79483633D01*
X202529294Y-79483633D01*
G37*
G36*
X131601966Y-79283565D02*
X131640637Y-79295296D01*
X131676279Y-79314348D01*
X131707517Y-79339983D01*
X131733152Y-79371221D01*
X131752204Y-79406863D01*
X131763935Y-79445534D01*
X131768500Y-79491888D01*
X131768500Y-80568112D01*
X131763935Y-80614466D01*
X131752204Y-80653137D01*
X131733152Y-80688779D01*
X131707517Y-80720017D01*
X131676279Y-80745652D01*
X131640637Y-80764704D01*
X131601966Y-80776435D01*
X131555612Y-80781000D01*
X130904388Y-80781000D01*
X130858034Y-80776435D01*
X130819363Y-80764704D01*
X130783721Y-80745652D01*
X130752483Y-80720017D01*
X130726848Y-80688779D01*
X130707796Y-80653137D01*
X130696065Y-80614466D01*
X130691500Y-80568112D01*
X130691500Y-79491888D01*
X130696065Y-79445534D01*
X130707796Y-79406863D01*
X130726848Y-79371221D01*
X130752483Y-79339983D01*
X130783721Y-79314348D01*
X130819363Y-79295296D01*
X130858034Y-79283565D01*
X130904388Y-79279000D01*
X131555612Y-79279000D01*
X131601966Y-79283565D01*
X131601966Y-79283565D01*
G37*
G36*
X133476966Y-79283565D02*
X133515637Y-79295296D01*
X133551279Y-79314348D01*
X133582517Y-79339983D01*
X133608152Y-79371221D01*
X133627204Y-79406863D01*
X133638935Y-79445534D01*
X133643500Y-79491888D01*
X133643500Y-80568112D01*
X133638935Y-80614466D01*
X133627204Y-80653137D01*
X133608152Y-80688779D01*
X133582517Y-80720017D01*
X133551279Y-80745652D01*
X133515637Y-80764704D01*
X133476966Y-80776435D01*
X133430612Y-80781000D01*
X132779388Y-80781000D01*
X132733034Y-80776435D01*
X132694363Y-80764704D01*
X132658721Y-80745652D01*
X132627483Y-80720017D01*
X132601848Y-80688779D01*
X132582796Y-80653137D01*
X132571065Y-80614466D01*
X132566500Y-80568112D01*
X132566500Y-79491888D01*
X132571065Y-79445534D01*
X132582796Y-79406863D01*
X132601848Y-79371221D01*
X132627483Y-79339983D01*
X132658721Y-79314348D01*
X132694363Y-79295296D01*
X132733034Y-79283565D01*
X132779388Y-79279000D01*
X133430612Y-79279000D01*
X133476966Y-79283565D01*
X133476966Y-79283565D01*
G37*
G36*
X195191000Y-80011000D02*
X193389000Y-80011000D01*
X193389000Y-78209000D01*
X195191000Y-78209000D01*
X195191000Y-80011000D01*
X195191000Y-80011000D01*
G37*
G36*
X177871966Y-78453565D02*
X177910637Y-78465296D01*
X177946279Y-78484348D01*
X177977517Y-78509983D01*
X178003152Y-78541221D01*
X178022204Y-78576863D01*
X178033935Y-78615534D01*
X178038500Y-78661888D01*
X178038500Y-79738112D01*
X178033935Y-79784466D01*
X178022204Y-79823137D01*
X178003152Y-79858779D01*
X177977517Y-79890017D01*
X177946279Y-79915652D01*
X177910637Y-79934704D01*
X177871966Y-79946435D01*
X177825612Y-79951000D01*
X177174388Y-79951000D01*
X177128034Y-79946435D01*
X177089363Y-79934704D01*
X177053721Y-79915652D01*
X177022483Y-79890017D01*
X176996848Y-79858779D01*
X176977796Y-79823137D01*
X176966065Y-79784466D01*
X176961500Y-79738112D01*
X176961500Y-78661888D01*
X176966065Y-78615534D01*
X176977796Y-78576863D01*
X176996848Y-78541221D01*
X177022483Y-78509983D01*
X177053721Y-78484348D01*
X177089363Y-78465296D01*
X177128034Y-78453565D01*
X177174388Y-78449000D01*
X177825612Y-78449000D01*
X177871966Y-78453565D01*
X177871966Y-78453565D01*
G37*
G36*
X179746966Y-78453565D02*
X179785637Y-78465296D01*
X179821279Y-78484348D01*
X179852517Y-78509983D01*
X179878152Y-78541221D01*
X179897204Y-78576863D01*
X179908935Y-78615534D01*
X179913500Y-78661888D01*
X179913500Y-79738112D01*
X179908935Y-79784466D01*
X179897204Y-79823137D01*
X179878152Y-79858779D01*
X179852517Y-79890017D01*
X179821279Y-79915652D01*
X179785637Y-79934704D01*
X179746966Y-79946435D01*
X179700612Y-79951000D01*
X179049388Y-79951000D01*
X179003034Y-79946435D01*
X178964363Y-79934704D01*
X178928721Y-79915652D01*
X178897483Y-79890017D01*
X178871848Y-79858779D01*
X178852796Y-79823137D01*
X178841065Y-79784466D01*
X178836500Y-79738112D01*
X178836500Y-78661888D01*
X178841065Y-78615534D01*
X178852796Y-78576863D01*
X178871848Y-78541221D01*
X178897483Y-78509983D01*
X178928721Y-78484348D01*
X178964363Y-78465296D01*
X179003034Y-78453565D01*
X179049388Y-78449000D01*
X179700612Y-78449000D01*
X179746966Y-78453565D01*
X179746966Y-78453565D01*
G37*
G36*
X176271966Y-78453565D02*
X176310637Y-78465296D01*
X176346279Y-78484348D01*
X176377517Y-78509983D01*
X176403152Y-78541221D01*
X176422204Y-78576863D01*
X176433935Y-78615534D01*
X176438500Y-78661888D01*
X176438500Y-79738112D01*
X176433935Y-79784466D01*
X176422204Y-79823137D01*
X176403152Y-79858779D01*
X176377517Y-79890017D01*
X176346279Y-79915652D01*
X176310637Y-79934704D01*
X176271966Y-79946435D01*
X176225612Y-79951000D01*
X175574388Y-79951000D01*
X175528034Y-79946435D01*
X175489363Y-79934704D01*
X175453721Y-79915652D01*
X175422483Y-79890017D01*
X175396848Y-79858779D01*
X175377796Y-79823137D01*
X175366065Y-79784466D01*
X175361500Y-79738112D01*
X175361500Y-78661888D01*
X175366065Y-78615534D01*
X175377796Y-78576863D01*
X175396848Y-78541221D01*
X175422483Y-78509983D01*
X175453721Y-78484348D01*
X175489363Y-78465296D01*
X175528034Y-78453565D01*
X175574388Y-78449000D01*
X176225612Y-78449000D01*
X176271966Y-78453565D01*
X176271966Y-78453565D01*
G37*
G36*
X174396966Y-78453565D02*
X174435637Y-78465296D01*
X174471279Y-78484348D01*
X174502517Y-78509983D01*
X174528152Y-78541221D01*
X174547204Y-78576863D01*
X174558935Y-78615534D01*
X174563500Y-78661888D01*
X174563500Y-79738112D01*
X174558935Y-79784466D01*
X174547204Y-79823137D01*
X174528152Y-79858779D01*
X174502517Y-79890017D01*
X174471279Y-79915652D01*
X174435637Y-79934704D01*
X174396966Y-79946435D01*
X174350612Y-79951000D01*
X173699388Y-79951000D01*
X173653034Y-79946435D01*
X173614363Y-79934704D01*
X173578721Y-79915652D01*
X173547483Y-79890017D01*
X173521848Y-79858779D01*
X173502796Y-79823137D01*
X173491065Y-79784466D01*
X173486500Y-79738112D01*
X173486500Y-78661888D01*
X173491065Y-78615534D01*
X173502796Y-78576863D01*
X173521848Y-78541221D01*
X173547483Y-78509983D01*
X173578721Y-78484348D01*
X173614363Y-78465296D01*
X173653034Y-78453565D01*
X173699388Y-78449000D01*
X174350612Y-78449000D01*
X174396966Y-78453565D01*
X174396966Y-78453565D01*
G37*
G36*
X139404466Y-78736065D02*
X139443137Y-78747796D01*
X139478779Y-78766848D01*
X139510017Y-78792483D01*
X139535652Y-78823721D01*
X139554704Y-78859363D01*
X139566435Y-78898034D01*
X139571000Y-78944388D01*
X139571000Y-79595612D01*
X139566435Y-79641966D01*
X139554704Y-79680637D01*
X139535652Y-79716279D01*
X139510017Y-79747517D01*
X139478779Y-79773152D01*
X139443137Y-79792204D01*
X139404466Y-79803935D01*
X139358112Y-79808500D01*
X138281888Y-79808500D01*
X138235534Y-79803935D01*
X138196863Y-79792204D01*
X138161221Y-79773152D01*
X138129983Y-79747517D01*
X138104348Y-79716279D01*
X138085296Y-79680637D01*
X138073565Y-79641966D01*
X138069000Y-79595612D01*
X138069000Y-78944388D01*
X138073565Y-78898034D01*
X138085296Y-78859363D01*
X138104348Y-78823721D01*
X138129983Y-78792483D01*
X138161221Y-78766848D01*
X138196863Y-78747796D01*
X138235534Y-78736065D01*
X138281888Y-78731500D01*
X139358112Y-78731500D01*
X139404466Y-78736065D01*
X139404466Y-78736065D01*
G37*
G36*
X141424466Y-78706065D02*
X141463137Y-78717796D01*
X141498779Y-78736848D01*
X141530017Y-78762483D01*
X141555652Y-78793721D01*
X141574704Y-78829363D01*
X141586435Y-78868034D01*
X141591000Y-78914388D01*
X141591000Y-79565612D01*
X141586435Y-79611966D01*
X141574704Y-79650637D01*
X141555652Y-79686279D01*
X141530017Y-79717517D01*
X141498779Y-79743152D01*
X141463137Y-79762204D01*
X141424466Y-79773935D01*
X141378112Y-79778500D01*
X140301888Y-79778500D01*
X140255534Y-79773935D01*
X140216863Y-79762204D01*
X140181221Y-79743152D01*
X140149983Y-79717517D01*
X140124348Y-79686279D01*
X140105296Y-79650637D01*
X140093565Y-79611966D01*
X140089000Y-79565612D01*
X140089000Y-78914388D01*
X140093565Y-78868034D01*
X140105296Y-78829363D01*
X140124348Y-78793721D01*
X140149983Y-78762483D01*
X140181221Y-78736848D01*
X140216863Y-78717796D01*
X140255534Y-78706065D01*
X140301888Y-78701500D01*
X141378112Y-78701500D01*
X141424466Y-78706065D01*
X141424466Y-78706065D01*
G37*
G36*
X189376000Y-79251000D02*
X188824000Y-79251000D01*
X188824000Y-78549000D01*
X189376000Y-78549000D01*
X189376000Y-79251000D01*
X189376000Y-79251000D01*
G37*
G36*
X185801000Y-79001000D02*
X181899000Y-79001000D01*
X181899000Y-76899000D01*
X185801000Y-76899000D01*
X185801000Y-79001000D01*
X185801000Y-79001000D01*
G37*
G36*
X199989294Y-76943633D02*
X200161694Y-76995931D01*
X200161696Y-76995932D01*
X200320583Y-77080859D01*
X200459849Y-77195151D01*
X200574141Y-77334417D01*
X200640178Y-77457963D01*
X200659069Y-77493306D01*
X200711367Y-77665706D01*
X200729025Y-77845000D01*
X200711367Y-78024294D01*
X200659069Y-78196694D01*
X200659068Y-78196696D01*
X200574141Y-78355583D01*
X200459849Y-78494849D01*
X200320583Y-78609141D01*
X200161696Y-78694068D01*
X200161694Y-78694069D01*
X199989294Y-78746367D01*
X199854931Y-78759600D01*
X199765069Y-78759600D01*
X199630706Y-78746367D01*
X199458306Y-78694069D01*
X199458304Y-78694068D01*
X199299417Y-78609141D01*
X199160151Y-78494849D01*
X199045859Y-78355583D01*
X198960932Y-78196696D01*
X198960931Y-78196694D01*
X198908633Y-78024294D01*
X198890975Y-77845000D01*
X198908633Y-77665706D01*
X198960931Y-77493306D01*
X198979822Y-77457963D01*
X199045859Y-77334417D01*
X199160151Y-77195151D01*
X199299417Y-77080859D01*
X199458304Y-76995932D01*
X199458306Y-76995931D01*
X199630706Y-76943633D01*
X199765069Y-76930400D01*
X199854931Y-76930400D01*
X199989294Y-76943633D01*
X199989294Y-76943633D01*
G37*
G36*
X202529294Y-76943633D02*
X202701694Y-76995931D01*
X202701696Y-76995932D01*
X202860583Y-77080859D01*
X202999849Y-77195151D01*
X203114141Y-77334417D01*
X203180178Y-77457963D01*
X203199069Y-77493306D01*
X203251367Y-77665706D01*
X203269025Y-77845000D01*
X203251367Y-78024294D01*
X203199069Y-78196694D01*
X203199068Y-78196696D01*
X203114141Y-78355583D01*
X202999849Y-78494849D01*
X202860583Y-78609141D01*
X202701696Y-78694068D01*
X202701694Y-78694069D01*
X202529294Y-78746367D01*
X202394931Y-78759600D01*
X202305069Y-78759600D01*
X202170706Y-78746367D01*
X201998306Y-78694069D01*
X201998304Y-78694068D01*
X201839417Y-78609141D01*
X201700151Y-78494849D01*
X201585859Y-78355583D01*
X201500932Y-78196696D01*
X201500931Y-78196694D01*
X201448633Y-78024294D01*
X201430975Y-77845000D01*
X201448633Y-77665706D01*
X201500931Y-77493306D01*
X201519822Y-77457963D01*
X201585859Y-77334417D01*
X201700151Y-77195151D01*
X201839417Y-77080859D01*
X201998304Y-76995932D01*
X201998306Y-76995931D01*
X202170706Y-76943633D01*
X202305069Y-76930400D01*
X202394931Y-76930400D01*
X202529294Y-76943633D01*
X202529294Y-76943633D01*
G37*
G36*
X179746966Y-76553565D02*
X179785637Y-76565296D01*
X179821279Y-76584348D01*
X179852517Y-76609983D01*
X179878152Y-76641221D01*
X179897204Y-76676863D01*
X179908935Y-76715534D01*
X179913500Y-76761888D01*
X179913500Y-77838112D01*
X179908935Y-77884466D01*
X179897204Y-77923137D01*
X179878152Y-77958779D01*
X179852517Y-77990017D01*
X179821279Y-78015652D01*
X179785637Y-78034704D01*
X179746966Y-78046435D01*
X179700612Y-78051000D01*
X179049388Y-78051000D01*
X179003034Y-78046435D01*
X178964363Y-78034704D01*
X178928721Y-78015652D01*
X178897483Y-77990017D01*
X178871848Y-77958779D01*
X178852796Y-77923137D01*
X178841065Y-77884466D01*
X178836500Y-77838112D01*
X178836500Y-76761888D01*
X178841065Y-76715534D01*
X178852796Y-76676863D01*
X178871848Y-76641221D01*
X178897483Y-76609983D01*
X178928721Y-76584348D01*
X178964363Y-76565296D01*
X179003034Y-76553565D01*
X179049388Y-76549000D01*
X179700612Y-76549000D01*
X179746966Y-76553565D01*
X179746966Y-76553565D01*
G37*
G36*
X177871966Y-76553565D02*
X177910637Y-76565296D01*
X177946279Y-76584348D01*
X177977517Y-76609983D01*
X178003152Y-76641221D01*
X178022204Y-76676863D01*
X178033935Y-76715534D01*
X178038500Y-76761888D01*
X178038500Y-77838112D01*
X178033935Y-77884466D01*
X178022204Y-77923137D01*
X178003152Y-77958779D01*
X177977517Y-77990017D01*
X177946279Y-78015652D01*
X177910637Y-78034704D01*
X177871966Y-78046435D01*
X177825612Y-78051000D01*
X177174388Y-78051000D01*
X177128034Y-78046435D01*
X177089363Y-78034704D01*
X177053721Y-78015652D01*
X177022483Y-77990017D01*
X176996848Y-77958779D01*
X176977796Y-77923137D01*
X176966065Y-77884466D01*
X176961500Y-77838112D01*
X176961500Y-76761888D01*
X176966065Y-76715534D01*
X176977796Y-76676863D01*
X176996848Y-76641221D01*
X177022483Y-76609983D01*
X177053721Y-76584348D01*
X177089363Y-76565296D01*
X177128034Y-76553565D01*
X177174388Y-76549000D01*
X177825612Y-76549000D01*
X177871966Y-76553565D01*
X177871966Y-76553565D01*
G37*
G36*
X176271966Y-76553565D02*
X176310637Y-76565296D01*
X176346279Y-76584348D01*
X176377517Y-76609983D01*
X176403152Y-76641221D01*
X176422204Y-76676863D01*
X176433935Y-76715534D01*
X176438500Y-76761888D01*
X176438500Y-77838112D01*
X176433935Y-77884466D01*
X176422204Y-77923137D01*
X176403152Y-77958779D01*
X176377517Y-77990017D01*
X176346279Y-78015652D01*
X176310637Y-78034704D01*
X176271966Y-78046435D01*
X176225612Y-78051000D01*
X175574388Y-78051000D01*
X175528034Y-78046435D01*
X175489363Y-78034704D01*
X175453721Y-78015652D01*
X175422483Y-77990017D01*
X175396848Y-77958779D01*
X175377796Y-77923137D01*
X175366065Y-77884466D01*
X175361500Y-77838112D01*
X175361500Y-76761888D01*
X175366065Y-76715534D01*
X175377796Y-76676863D01*
X175396848Y-76641221D01*
X175422483Y-76609983D01*
X175453721Y-76584348D01*
X175489363Y-76565296D01*
X175528034Y-76553565D01*
X175574388Y-76549000D01*
X176225612Y-76549000D01*
X176271966Y-76553565D01*
X176271966Y-76553565D01*
G37*
G36*
X174396966Y-76553565D02*
X174435637Y-76565296D01*
X174471279Y-76584348D01*
X174502517Y-76609983D01*
X174528152Y-76641221D01*
X174547204Y-76676863D01*
X174558935Y-76715534D01*
X174563500Y-76761888D01*
X174563500Y-77838112D01*
X174558935Y-77884466D01*
X174547204Y-77923137D01*
X174528152Y-77958779D01*
X174502517Y-77990017D01*
X174471279Y-78015652D01*
X174435637Y-78034704D01*
X174396966Y-78046435D01*
X174350612Y-78051000D01*
X173699388Y-78051000D01*
X173653034Y-78046435D01*
X173614363Y-78034704D01*
X173578721Y-78015652D01*
X173547483Y-77990017D01*
X173521848Y-77958779D01*
X173502796Y-77923137D01*
X173491065Y-77884466D01*
X173486500Y-77838112D01*
X173486500Y-76761888D01*
X173491065Y-76715534D01*
X173502796Y-76676863D01*
X173521848Y-76641221D01*
X173547483Y-76609983D01*
X173578721Y-76584348D01*
X173614363Y-76565296D01*
X173653034Y-76553565D01*
X173699388Y-76549000D01*
X174350612Y-76549000D01*
X174396966Y-76553565D01*
X174396966Y-76553565D01*
G37*
G36*
X194400443Y-75675519D02*
X194466627Y-75682037D01*
X194557048Y-75709466D01*
X194636467Y-75733557D01*
X194715145Y-75775612D01*
X194792991Y-75817222D01*
X194821540Y-75840652D01*
X194930186Y-75929814D01*
X195006773Y-76023137D01*
X195042778Y-76067009D01*
X195042779Y-76067011D01*
X195126443Y-76223533D01*
X195126443Y-76223534D01*
X195177963Y-76393373D01*
X195195359Y-76570000D01*
X195177963Y-76746627D01*
X195156236Y-76818250D01*
X195126443Y-76916467D01*
X195083968Y-76995931D01*
X195042778Y-77072991D01*
X195036320Y-77080860D01*
X194930186Y-77210186D01*
X194828729Y-77293448D01*
X194792991Y-77322778D01*
X194792989Y-77322779D01*
X194636467Y-77406443D01*
X194579853Y-77423616D01*
X194466627Y-77457963D01*
X194400443Y-77464481D01*
X194334260Y-77471000D01*
X194245740Y-77471000D01*
X194179557Y-77464481D01*
X194113373Y-77457963D01*
X194000147Y-77423616D01*
X193943533Y-77406443D01*
X193787011Y-77322779D01*
X193787009Y-77322778D01*
X193751271Y-77293448D01*
X193649814Y-77210186D01*
X193543680Y-77080860D01*
X193537222Y-77072991D01*
X193496032Y-76995931D01*
X193453557Y-76916467D01*
X193423764Y-76818250D01*
X193402037Y-76746627D01*
X193384641Y-76570000D01*
X193402037Y-76393373D01*
X193453557Y-76223534D01*
X193453557Y-76223533D01*
X193537221Y-76067011D01*
X193537222Y-76067009D01*
X193573227Y-76023137D01*
X193649814Y-75929814D01*
X193758460Y-75840652D01*
X193787009Y-75817222D01*
X193864855Y-75775612D01*
X193943533Y-75733557D01*
X194022952Y-75709466D01*
X194113373Y-75682037D01*
X194179557Y-75675519D01*
X194245740Y-75669000D01*
X194334260Y-75669000D01*
X194400443Y-75675519D01*
X194400443Y-75675519D01*
G37*
G36*
X199989294Y-74403633D02*
X200161694Y-74455931D01*
X200161696Y-74455932D01*
X200320583Y-74540859D01*
X200459849Y-74655151D01*
X200574141Y-74794417D01*
X200629127Y-74897288D01*
X200659069Y-74953306D01*
X200711367Y-75125706D01*
X200729025Y-75305000D01*
X200711367Y-75484294D01*
X200659069Y-75656694D01*
X200659068Y-75656696D01*
X200574141Y-75815583D01*
X200459849Y-75954849D01*
X200320583Y-76069141D01*
X200175976Y-76146435D01*
X200161694Y-76154069D01*
X199989294Y-76206367D01*
X199854931Y-76219600D01*
X199765069Y-76219600D01*
X199630706Y-76206367D01*
X199458306Y-76154069D01*
X199444024Y-76146435D01*
X199299417Y-76069141D01*
X199160151Y-75954849D01*
X199045859Y-75815583D01*
X198960932Y-75656696D01*
X198960931Y-75656694D01*
X198908633Y-75484294D01*
X198890975Y-75305000D01*
X198908633Y-75125706D01*
X198960931Y-74953306D01*
X198990873Y-74897288D01*
X199045859Y-74794417D01*
X199160151Y-74655151D01*
X199299417Y-74540859D01*
X199458304Y-74455932D01*
X199458306Y-74455931D01*
X199630706Y-74403633D01*
X199765069Y-74390400D01*
X199854931Y-74390400D01*
X199989294Y-74403633D01*
X199989294Y-74403633D01*
G37*
G36*
X202529294Y-74403633D02*
X202701694Y-74455931D01*
X202701696Y-74455932D01*
X202860583Y-74540859D01*
X202999849Y-74655151D01*
X203114141Y-74794417D01*
X203169127Y-74897288D01*
X203199069Y-74953306D01*
X203251367Y-75125706D01*
X203269025Y-75305000D01*
X203251367Y-75484294D01*
X203199069Y-75656694D01*
X203199068Y-75656696D01*
X203114141Y-75815583D01*
X202999849Y-75954849D01*
X202860583Y-76069141D01*
X202715976Y-76146435D01*
X202701694Y-76154069D01*
X202529294Y-76206367D01*
X202394931Y-76219600D01*
X202305069Y-76219600D01*
X202170706Y-76206367D01*
X201998306Y-76154069D01*
X201984024Y-76146435D01*
X201839417Y-76069141D01*
X201700151Y-75954849D01*
X201585859Y-75815583D01*
X201500932Y-75656696D01*
X201500931Y-75656694D01*
X201448633Y-75484294D01*
X201430975Y-75305000D01*
X201448633Y-75125706D01*
X201500931Y-74953306D01*
X201530873Y-74897288D01*
X201585859Y-74794417D01*
X201700151Y-74655151D01*
X201839417Y-74540859D01*
X201998304Y-74455932D01*
X201998306Y-74455931D01*
X202170706Y-74403633D01*
X202305069Y-74390400D01*
X202394931Y-74390400D01*
X202529294Y-74403633D01*
X202529294Y-74403633D01*
G37*
G36*
X177871966Y-74653565D02*
X177910637Y-74665296D01*
X177946279Y-74684348D01*
X177977517Y-74709983D01*
X178003152Y-74741221D01*
X178022204Y-74776863D01*
X178033935Y-74815534D01*
X178038500Y-74861888D01*
X178038500Y-75938112D01*
X178033935Y-75984466D01*
X178022204Y-76023137D01*
X178003152Y-76058779D01*
X177977517Y-76090017D01*
X177946279Y-76115652D01*
X177910637Y-76134704D01*
X177871966Y-76146435D01*
X177825612Y-76151000D01*
X177174388Y-76151000D01*
X177128034Y-76146435D01*
X177089363Y-76134704D01*
X177053721Y-76115652D01*
X177022483Y-76090017D01*
X176996848Y-76058779D01*
X176977796Y-76023137D01*
X176966065Y-75984466D01*
X176961500Y-75938112D01*
X176961500Y-74861888D01*
X176966065Y-74815534D01*
X176977796Y-74776863D01*
X176996848Y-74741221D01*
X177022483Y-74709983D01*
X177053721Y-74684348D01*
X177089363Y-74665296D01*
X177128034Y-74653565D01*
X177174388Y-74649000D01*
X177825612Y-74649000D01*
X177871966Y-74653565D01*
X177871966Y-74653565D01*
G37*
G36*
X174396966Y-74653565D02*
X174435637Y-74665296D01*
X174471279Y-74684348D01*
X174502517Y-74709983D01*
X174528152Y-74741221D01*
X174547204Y-74776863D01*
X174558935Y-74815534D01*
X174563500Y-74861888D01*
X174563500Y-75938112D01*
X174558935Y-75984466D01*
X174547204Y-76023137D01*
X174528152Y-76058779D01*
X174502517Y-76090017D01*
X174471279Y-76115652D01*
X174435637Y-76134704D01*
X174396966Y-76146435D01*
X174350612Y-76151000D01*
X173699388Y-76151000D01*
X173653034Y-76146435D01*
X173614363Y-76134704D01*
X173578721Y-76115652D01*
X173547483Y-76090017D01*
X173521848Y-76058779D01*
X173502796Y-76023137D01*
X173491065Y-75984466D01*
X173486500Y-75938112D01*
X173486500Y-74861888D01*
X173491065Y-74815534D01*
X173502796Y-74776863D01*
X173521848Y-74741221D01*
X173547483Y-74709983D01*
X173578721Y-74684348D01*
X173614363Y-74665296D01*
X173653034Y-74653565D01*
X173699388Y-74649000D01*
X174350612Y-74649000D01*
X174396966Y-74653565D01*
X174396966Y-74653565D01*
G37*
G36*
X176271966Y-74653565D02*
X176310637Y-74665296D01*
X176346279Y-74684348D01*
X176377517Y-74709983D01*
X176403152Y-74741221D01*
X176422204Y-74776863D01*
X176433935Y-74815534D01*
X176438500Y-74861888D01*
X176438500Y-75938112D01*
X176433935Y-75984466D01*
X176422204Y-76023137D01*
X176403152Y-76058779D01*
X176377517Y-76090017D01*
X176346279Y-76115652D01*
X176310637Y-76134704D01*
X176271966Y-76146435D01*
X176225612Y-76151000D01*
X175574388Y-76151000D01*
X175528034Y-76146435D01*
X175489363Y-76134704D01*
X175453721Y-76115652D01*
X175422483Y-76090017D01*
X175396848Y-76058779D01*
X175377796Y-76023137D01*
X175366065Y-75984466D01*
X175361500Y-75938112D01*
X175361500Y-74861888D01*
X175366065Y-74815534D01*
X175377796Y-74776863D01*
X175396848Y-74741221D01*
X175422483Y-74709983D01*
X175453721Y-74684348D01*
X175489363Y-74665296D01*
X175528034Y-74653565D01*
X175574388Y-74649000D01*
X176225612Y-74649000D01*
X176271966Y-74653565D01*
X176271966Y-74653565D01*
G37*
G36*
X179746966Y-74653565D02*
X179785637Y-74665296D01*
X179821279Y-74684348D01*
X179852517Y-74709983D01*
X179878152Y-74741221D01*
X179897204Y-74776863D01*
X179908935Y-74815534D01*
X179913500Y-74861888D01*
X179913500Y-75938112D01*
X179908935Y-75984466D01*
X179897204Y-76023137D01*
X179878152Y-76058779D01*
X179852517Y-76090017D01*
X179821279Y-76115652D01*
X179785637Y-76134704D01*
X179746966Y-76146435D01*
X179700612Y-76151000D01*
X179049388Y-76151000D01*
X179003034Y-76146435D01*
X178964363Y-76134704D01*
X178928721Y-76115652D01*
X178897483Y-76090017D01*
X178871848Y-76058779D01*
X178852796Y-76023137D01*
X178841065Y-75984466D01*
X178836500Y-75938112D01*
X178836500Y-74861888D01*
X178841065Y-74815534D01*
X178852796Y-74776863D01*
X178871848Y-74741221D01*
X178897483Y-74709983D01*
X178928721Y-74684348D01*
X178964363Y-74665296D01*
X179003034Y-74653565D01*
X179049388Y-74649000D01*
X179700612Y-74649000D01*
X179746966Y-74653565D01*
X179746966Y-74653565D01*
G37*
G36*
X166534466Y-74916065D02*
X166573137Y-74927796D01*
X166608779Y-74946848D01*
X166640017Y-74972483D01*
X166665652Y-75003721D01*
X166684704Y-75039363D01*
X166696435Y-75078034D01*
X166701000Y-75124388D01*
X166701000Y-75775612D01*
X166696435Y-75821966D01*
X166684704Y-75860637D01*
X166665652Y-75896279D01*
X166640017Y-75927517D01*
X166608779Y-75953152D01*
X166573137Y-75972204D01*
X166534466Y-75983935D01*
X166488112Y-75988500D01*
X165411888Y-75988500D01*
X165365534Y-75983935D01*
X165326863Y-75972204D01*
X165291221Y-75953152D01*
X165259983Y-75927517D01*
X165234348Y-75896279D01*
X165215296Y-75860637D01*
X165203565Y-75821966D01*
X165199000Y-75775612D01*
X165199000Y-75124388D01*
X165203565Y-75078034D01*
X165215296Y-75039363D01*
X165234348Y-75003721D01*
X165259983Y-74972483D01*
X165291221Y-74946848D01*
X165326863Y-74927796D01*
X165365534Y-74916065D01*
X165411888Y-74911500D01*
X166488112Y-74911500D01*
X166534466Y-74916065D01*
X166534466Y-74916065D01*
G37*
G36*
X164534466Y-74866065D02*
X164573137Y-74877796D01*
X164608779Y-74896848D01*
X164640017Y-74922483D01*
X164665652Y-74953721D01*
X164684704Y-74989363D01*
X164696435Y-75028034D01*
X164701000Y-75074388D01*
X164701000Y-75725612D01*
X164696435Y-75771966D01*
X164684704Y-75810637D01*
X164665652Y-75846279D01*
X164640017Y-75877517D01*
X164608779Y-75903152D01*
X164573137Y-75922204D01*
X164534466Y-75933935D01*
X164488112Y-75938500D01*
X163411888Y-75938500D01*
X163365534Y-75933935D01*
X163326863Y-75922204D01*
X163291221Y-75903152D01*
X163259983Y-75877517D01*
X163234348Y-75846279D01*
X163215296Y-75810637D01*
X163203565Y-75771966D01*
X163199000Y-75725612D01*
X163199000Y-75074388D01*
X163203565Y-75028034D01*
X163215296Y-74989363D01*
X163234348Y-74953721D01*
X163259983Y-74922483D01*
X163291221Y-74896848D01*
X163326863Y-74877796D01*
X163365534Y-74866065D01*
X163411888Y-74861500D01*
X164488112Y-74861500D01*
X164534466Y-74866065D01*
X164534466Y-74866065D01*
G37*
G36*
X172784466Y-74841065D02*
X172823137Y-74852796D01*
X172858779Y-74871848D01*
X172890017Y-74897483D01*
X172915652Y-74928721D01*
X172934704Y-74964363D01*
X172946435Y-75003034D01*
X172951000Y-75049388D01*
X172951000Y-75700612D01*
X172946435Y-75746966D01*
X172934704Y-75785637D01*
X172915652Y-75821279D01*
X172890017Y-75852517D01*
X172858779Y-75878152D01*
X172823137Y-75897204D01*
X172784466Y-75908935D01*
X172738112Y-75913500D01*
X171661888Y-75913500D01*
X171615534Y-75908935D01*
X171576863Y-75897204D01*
X171541221Y-75878152D01*
X171509983Y-75852517D01*
X171484348Y-75821279D01*
X171465296Y-75785637D01*
X171453565Y-75746966D01*
X171449000Y-75700612D01*
X171449000Y-75049388D01*
X171453565Y-75003034D01*
X171465296Y-74964363D01*
X171484348Y-74928721D01*
X171509983Y-74897483D01*
X171541221Y-74871848D01*
X171576863Y-74852796D01*
X171615534Y-74841065D01*
X171661888Y-74836500D01*
X172738112Y-74836500D01*
X172784466Y-74841065D01*
X172784466Y-74841065D01*
G37*
G36*
X169384466Y-74803565D02*
X169423137Y-74815296D01*
X169458779Y-74834348D01*
X169490017Y-74859983D01*
X169515652Y-74891221D01*
X169534704Y-74926863D01*
X169546435Y-74965534D01*
X169551000Y-75011888D01*
X169551000Y-75663112D01*
X169546435Y-75709466D01*
X169534704Y-75748137D01*
X169515652Y-75783779D01*
X169490017Y-75815017D01*
X169458779Y-75840652D01*
X169423137Y-75859704D01*
X169384466Y-75871435D01*
X169338112Y-75876000D01*
X168261888Y-75876000D01*
X168215534Y-75871435D01*
X168176863Y-75859704D01*
X168141221Y-75840652D01*
X168109983Y-75815017D01*
X168084348Y-75783779D01*
X168065296Y-75748137D01*
X168053565Y-75709466D01*
X168049000Y-75663112D01*
X168049000Y-75011888D01*
X168053565Y-74965534D01*
X168065296Y-74926863D01*
X168084348Y-74891221D01*
X168109983Y-74859983D01*
X168141221Y-74834348D01*
X168176863Y-74815296D01*
X168215534Y-74803565D01*
X168261888Y-74799000D01*
X169338112Y-74799000D01*
X169384466Y-74803565D01*
X169384466Y-74803565D01*
G37*
G36*
X157984466Y-73991065D02*
X158023137Y-74002796D01*
X158058779Y-74021848D01*
X158090017Y-74047483D01*
X158115652Y-74078721D01*
X158134704Y-74114363D01*
X158146435Y-74153034D01*
X158151000Y-74199388D01*
X158151000Y-74850612D01*
X158146435Y-74896966D01*
X158134704Y-74935637D01*
X158115652Y-74971279D01*
X158090017Y-75002517D01*
X158058779Y-75028152D01*
X158023137Y-75047204D01*
X157984466Y-75058935D01*
X157938112Y-75063500D01*
X156861888Y-75063500D01*
X156815534Y-75058935D01*
X156776863Y-75047204D01*
X156741221Y-75028152D01*
X156709983Y-75002517D01*
X156684348Y-74971279D01*
X156665296Y-74935637D01*
X156653565Y-74896966D01*
X156649000Y-74850612D01*
X156649000Y-74199388D01*
X156653565Y-74153034D01*
X156665296Y-74114363D01*
X156684348Y-74078721D01*
X156709983Y-74047483D01*
X156741221Y-74021848D01*
X156776863Y-74002796D01*
X156815534Y-73991065D01*
X156861888Y-73986500D01*
X157938112Y-73986500D01*
X157984466Y-73991065D01*
X157984466Y-73991065D01*
G37*
G36*
X156084466Y-73991065D02*
X156123137Y-74002796D01*
X156158779Y-74021848D01*
X156190017Y-74047483D01*
X156215652Y-74078721D01*
X156234704Y-74114363D01*
X156246435Y-74153034D01*
X156251000Y-74199388D01*
X156251000Y-74850612D01*
X156246435Y-74896966D01*
X156234704Y-74935637D01*
X156215652Y-74971279D01*
X156190017Y-75002517D01*
X156158779Y-75028152D01*
X156123137Y-75047204D01*
X156084466Y-75058935D01*
X156038112Y-75063500D01*
X154961888Y-75063500D01*
X154915534Y-75058935D01*
X154876863Y-75047204D01*
X154841221Y-75028152D01*
X154809983Y-75002517D01*
X154784348Y-74971279D01*
X154765296Y-74935637D01*
X154753565Y-74896966D01*
X154749000Y-74850612D01*
X154749000Y-74199388D01*
X154753565Y-74153034D01*
X154765296Y-74114363D01*
X154784348Y-74078721D01*
X154809983Y-74047483D01*
X154841221Y-74021848D01*
X154876863Y-74002796D01*
X154915534Y-73991065D01*
X154961888Y-73986500D01*
X156038112Y-73986500D01*
X156084466Y-73991065D01*
X156084466Y-73991065D01*
G37*
G36*
X154184466Y-73991065D02*
X154223137Y-74002796D01*
X154258779Y-74021848D01*
X154290017Y-74047483D01*
X154315652Y-74078721D01*
X154334704Y-74114363D01*
X154346435Y-74153034D01*
X154351000Y-74199388D01*
X154351000Y-74850612D01*
X154346435Y-74896966D01*
X154334704Y-74935637D01*
X154315652Y-74971279D01*
X154290017Y-75002517D01*
X154258779Y-75028152D01*
X154223137Y-75047204D01*
X154184466Y-75058935D01*
X154138112Y-75063500D01*
X153061888Y-75063500D01*
X153015534Y-75058935D01*
X152976863Y-75047204D01*
X152941221Y-75028152D01*
X152909983Y-75002517D01*
X152884348Y-74971279D01*
X152865296Y-74935637D01*
X152853565Y-74896966D01*
X152849000Y-74850612D01*
X152849000Y-74199388D01*
X152853565Y-74153034D01*
X152865296Y-74114363D01*
X152884348Y-74078721D01*
X152909983Y-74047483D01*
X152941221Y-74021848D01*
X152976863Y-74002796D01*
X153015534Y-73991065D01*
X153061888Y-73986500D01*
X154138112Y-73986500D01*
X154184466Y-73991065D01*
X154184466Y-73991065D01*
G37*
G36*
X194400442Y-73135518D02*
X194466627Y-73142037D01*
X194552232Y-73168005D01*
X194636467Y-73193557D01*
X194706049Y-73230750D01*
X194792991Y-73277222D01*
X194813894Y-73294377D01*
X194930186Y-73389814D01*
X194992481Y-73465722D01*
X195042778Y-73527009D01*
X195042779Y-73527011D01*
X195126443Y-73683533D01*
X195126443Y-73683534D01*
X195177963Y-73853373D01*
X195195359Y-74030000D01*
X195177963Y-74206627D01*
X195143616Y-74319853D01*
X195126443Y-74376467D01*
X195070167Y-74481750D01*
X195042778Y-74532991D01*
X195036320Y-74540860D01*
X194930186Y-74670186D01*
X194855600Y-74731396D01*
X194792991Y-74782778D01*
X194792989Y-74782779D01*
X194636467Y-74866443D01*
X194599040Y-74877796D01*
X194466627Y-74917963D01*
X194400442Y-74924482D01*
X194334260Y-74931000D01*
X194245740Y-74931000D01*
X194179558Y-74924482D01*
X194113373Y-74917963D01*
X193980960Y-74877796D01*
X193943533Y-74866443D01*
X193787011Y-74782779D01*
X193787009Y-74782778D01*
X193724400Y-74731396D01*
X193649814Y-74670186D01*
X193543680Y-74540860D01*
X193537222Y-74532991D01*
X193509833Y-74481750D01*
X193453557Y-74376467D01*
X193436384Y-74319853D01*
X193402037Y-74206627D01*
X193384641Y-74030000D01*
X193402037Y-73853373D01*
X193453557Y-73683534D01*
X193453557Y-73683533D01*
X193537221Y-73527011D01*
X193537222Y-73527009D01*
X193587519Y-73465722D01*
X193649814Y-73389814D01*
X193766106Y-73294377D01*
X193787009Y-73277222D01*
X193873951Y-73230750D01*
X193943533Y-73193557D01*
X194027768Y-73168005D01*
X194113373Y-73142037D01*
X194179558Y-73135518D01*
X194245740Y-73129000D01*
X194334260Y-73129000D01*
X194400442Y-73135518D01*
X194400442Y-73135518D01*
G37*
G36*
X150312527Y-71728736D02*
X150412410Y-71748604D01*
X150694674Y-71865521D01*
X150948705Y-72035259D01*
X151164741Y-72251295D01*
X151334479Y-72505326D01*
X151442039Y-72765000D01*
X151451396Y-72787591D01*
X151511000Y-73087238D01*
X151511000Y-73392762D01*
X151506534Y-73415212D01*
X151451396Y-73692410D01*
X151334479Y-73974674D01*
X151164741Y-74228705D01*
X150948705Y-74444741D01*
X150694674Y-74614479D01*
X150412410Y-74731396D01*
X150313854Y-74751000D01*
X150112762Y-74791000D01*
X149807238Y-74791000D01*
X149606146Y-74751000D01*
X149507590Y-74731396D01*
X149225326Y-74614479D01*
X148971295Y-74444741D01*
X148755259Y-74228705D01*
X148585521Y-73974674D01*
X148468604Y-73692410D01*
X148413466Y-73415212D01*
X148409000Y-73392762D01*
X148409000Y-73087238D01*
X148468604Y-72787591D01*
X148477961Y-72765000D01*
X148585521Y-72505326D01*
X148755259Y-72251295D01*
X148971295Y-72035259D01*
X149225326Y-71865521D01*
X149507590Y-71748604D01*
X149607473Y-71728736D01*
X149807238Y-71689000D01*
X150112762Y-71689000D01*
X150312527Y-71728736D01*
X150312527Y-71728736D01*
G37*
G36*
X127812527Y-71728736D02*
X127912410Y-71748604D01*
X128194674Y-71865521D01*
X128448705Y-72035259D01*
X128664741Y-72251295D01*
X128834479Y-72505326D01*
X128942039Y-72765000D01*
X128951396Y-72787591D01*
X129011000Y-73087238D01*
X129011000Y-73392762D01*
X129006534Y-73415212D01*
X128951396Y-73692410D01*
X128834479Y-73974674D01*
X128664741Y-74228705D01*
X128448705Y-74444741D01*
X128194674Y-74614479D01*
X127912410Y-74731396D01*
X127813854Y-74751000D01*
X127612762Y-74791000D01*
X127307238Y-74791000D01*
X127106146Y-74751000D01*
X127007590Y-74731396D01*
X126725326Y-74614479D01*
X126471295Y-74444741D01*
X126255259Y-74228705D01*
X126085521Y-73974674D01*
X125968604Y-73692410D01*
X125913466Y-73415212D01*
X125909000Y-73392762D01*
X125909000Y-73087238D01*
X125968604Y-72787591D01*
X125977961Y-72765000D01*
X126085521Y-72505326D01*
X126255259Y-72251295D01*
X126471295Y-72035259D01*
X126725326Y-71865521D01*
X127007590Y-71748604D01*
X127107473Y-71728736D01*
X127307238Y-71689000D01*
X127612762Y-71689000D01*
X127812527Y-71728736D01*
X127812527Y-71728736D01*
G37*
G36*
X188871966Y-73253565D02*
X188910637Y-73265296D01*
X188946279Y-73284348D01*
X188977517Y-73309983D01*
X189003152Y-73341221D01*
X189022204Y-73376863D01*
X189033935Y-73415534D01*
X189038500Y-73461888D01*
X189038500Y-74538112D01*
X189033935Y-74584466D01*
X189022204Y-74623137D01*
X189003152Y-74658779D01*
X188977517Y-74690017D01*
X188946279Y-74715652D01*
X188910637Y-74734704D01*
X188871966Y-74746435D01*
X188825612Y-74751000D01*
X188174388Y-74751000D01*
X188128034Y-74746435D01*
X188089363Y-74734704D01*
X188053721Y-74715652D01*
X188022483Y-74690017D01*
X187996848Y-74658779D01*
X187977796Y-74623137D01*
X187966065Y-74584466D01*
X187961500Y-74538112D01*
X187961500Y-73461888D01*
X187966065Y-73415534D01*
X187977796Y-73376863D01*
X187996848Y-73341221D01*
X188022483Y-73309983D01*
X188053721Y-73284348D01*
X188089363Y-73265296D01*
X188128034Y-73253565D01*
X188174388Y-73249000D01*
X188825612Y-73249000D01*
X188871966Y-73253565D01*
X188871966Y-73253565D01*
G37*
G36*
X186996966Y-73253565D02*
X187035637Y-73265296D01*
X187071279Y-73284348D01*
X187102517Y-73309983D01*
X187128152Y-73341221D01*
X187147204Y-73376863D01*
X187158935Y-73415534D01*
X187163500Y-73461888D01*
X187163500Y-74538112D01*
X187158935Y-74584466D01*
X187147204Y-74623137D01*
X187128152Y-74658779D01*
X187102517Y-74690017D01*
X187071279Y-74715652D01*
X187035637Y-74734704D01*
X186996966Y-74746435D01*
X186950612Y-74751000D01*
X186299388Y-74751000D01*
X186253034Y-74746435D01*
X186214363Y-74734704D01*
X186178721Y-74715652D01*
X186147483Y-74690017D01*
X186121848Y-74658779D01*
X186102796Y-74623137D01*
X186091065Y-74584466D01*
X186086500Y-74538112D01*
X186086500Y-73461888D01*
X186091065Y-73415534D01*
X186102796Y-73376863D01*
X186121848Y-73341221D01*
X186147483Y-73309983D01*
X186178721Y-73284348D01*
X186214363Y-73265296D01*
X186253034Y-73253565D01*
X186299388Y-73249000D01*
X186950612Y-73249000D01*
X186996966Y-73253565D01*
X186996966Y-73253565D01*
G37*
G36*
X139028433Y-71874893D02*
X139118657Y-71892839D01*
X139224267Y-71936585D01*
X139373621Y-71998449D01*
X139603089Y-72151774D01*
X139798226Y-72346911D01*
X139951551Y-72576379D01*
X140013415Y-72725733D01*
X140039038Y-72787590D01*
X140057161Y-72831344D01*
X140111000Y-73102012D01*
X140111000Y-73377988D01*
X140083100Y-73518250D01*
X140057161Y-73648657D01*
X140022742Y-73731750D01*
X139951551Y-73903621D01*
X139798226Y-74133089D01*
X139603089Y-74328226D01*
X139373621Y-74481551D01*
X139249434Y-74532991D01*
X139118657Y-74587161D01*
X139028433Y-74605107D01*
X138847988Y-74641000D01*
X138572012Y-74641000D01*
X138391567Y-74605107D01*
X138301343Y-74587161D01*
X138170566Y-74532991D01*
X138046379Y-74481551D01*
X137816911Y-74328226D01*
X137621774Y-74133089D01*
X137468449Y-73903621D01*
X137397258Y-73731750D01*
X137362839Y-73648657D01*
X137336900Y-73518250D01*
X137309000Y-73377988D01*
X137309000Y-73102012D01*
X137362839Y-72831344D01*
X137380963Y-72787590D01*
X137406585Y-72725733D01*
X137468449Y-72576379D01*
X137621774Y-72346911D01*
X137816911Y-72151774D01*
X138046379Y-71998449D01*
X138195733Y-71936585D01*
X138301343Y-71892839D01*
X138391567Y-71874893D01*
X138572012Y-71839000D01*
X138847988Y-71839000D01*
X139028433Y-71874893D01*
X139028433Y-71874893D01*
G37*
G36*
X159501000Y-74601000D02*
X158699000Y-74601000D01*
X158699000Y-73899000D01*
X159501000Y-73899000D01*
X159501000Y-74601000D01*
X159501000Y-74601000D01*
G37*
G36*
X166534466Y-73041065D02*
X166573137Y-73052796D01*
X166608779Y-73071848D01*
X166640017Y-73097483D01*
X166665652Y-73128721D01*
X166684704Y-73164363D01*
X166696435Y-73203034D01*
X166701000Y-73249388D01*
X166701000Y-73900612D01*
X166696435Y-73946966D01*
X166684704Y-73985637D01*
X166665652Y-74021279D01*
X166640017Y-74052517D01*
X166608779Y-74078152D01*
X166573137Y-74097204D01*
X166534466Y-74108935D01*
X166488112Y-74113500D01*
X165411888Y-74113500D01*
X165365534Y-74108935D01*
X165326863Y-74097204D01*
X165291221Y-74078152D01*
X165259983Y-74052517D01*
X165234348Y-74021279D01*
X165215296Y-73985637D01*
X165203565Y-73946966D01*
X165199000Y-73900612D01*
X165199000Y-73249388D01*
X165203565Y-73203034D01*
X165215296Y-73164363D01*
X165234348Y-73128721D01*
X165259983Y-73097483D01*
X165291221Y-73071848D01*
X165326863Y-73052796D01*
X165365534Y-73041065D01*
X165411888Y-73036500D01*
X166488112Y-73036500D01*
X166534466Y-73041065D01*
X166534466Y-73041065D01*
G37*
G36*
X175951000Y-74101000D02*
X175249000Y-74101000D01*
X175249000Y-73299000D01*
X175951000Y-73299000D01*
X175951000Y-74101000D01*
X175951000Y-74101000D01*
G37*
G36*
X174551000Y-74101000D02*
X173849000Y-74101000D01*
X173849000Y-73299000D01*
X174551000Y-73299000D01*
X174551000Y-74101000D01*
X174551000Y-74101000D01*
G37*
G36*
X179751000Y-74101000D02*
X179049000Y-74101000D01*
X179049000Y-73299000D01*
X179751000Y-73299000D01*
X179751000Y-74101000D01*
X179751000Y-74101000D01*
G37*
G36*
X178351000Y-74101000D02*
X177649000Y-74101000D01*
X177649000Y-73299000D01*
X178351000Y-73299000D01*
X178351000Y-74101000D01*
X178351000Y-74101000D01*
G37*
G36*
X164534466Y-72991065D02*
X164573137Y-73002796D01*
X164608779Y-73021848D01*
X164640017Y-73047483D01*
X164665652Y-73078721D01*
X164684704Y-73114363D01*
X164696435Y-73153034D01*
X164701000Y-73199388D01*
X164701000Y-73850612D01*
X164696435Y-73896966D01*
X164684704Y-73935637D01*
X164665652Y-73971279D01*
X164640017Y-74002517D01*
X164608779Y-74028152D01*
X164573137Y-74047204D01*
X164534466Y-74058935D01*
X164488112Y-74063500D01*
X163411888Y-74063500D01*
X163365534Y-74058935D01*
X163326863Y-74047204D01*
X163291221Y-74028152D01*
X163259983Y-74002517D01*
X163234348Y-73971279D01*
X163215296Y-73935637D01*
X163203565Y-73896966D01*
X163199000Y-73850612D01*
X163199000Y-73199388D01*
X163203565Y-73153034D01*
X163215296Y-73114363D01*
X163234348Y-73078721D01*
X163259983Y-73047483D01*
X163291221Y-73021848D01*
X163326863Y-73002796D01*
X163365534Y-72991065D01*
X163411888Y-72986500D01*
X164488112Y-72986500D01*
X164534466Y-72991065D01*
X164534466Y-72991065D01*
G37*
G36*
X172784466Y-72966065D02*
X172823137Y-72977796D01*
X172858779Y-72996848D01*
X172890017Y-73022483D01*
X172915652Y-73053721D01*
X172934704Y-73089363D01*
X172946435Y-73128034D01*
X172951000Y-73174388D01*
X172951000Y-73825612D01*
X172946435Y-73871966D01*
X172934704Y-73910637D01*
X172915652Y-73946279D01*
X172890017Y-73977517D01*
X172858779Y-74003152D01*
X172823137Y-74022204D01*
X172784466Y-74033935D01*
X172738112Y-74038500D01*
X171661888Y-74038500D01*
X171615534Y-74033935D01*
X171576863Y-74022204D01*
X171541221Y-74003152D01*
X171509983Y-73977517D01*
X171484348Y-73946279D01*
X171465296Y-73910637D01*
X171453565Y-73871966D01*
X171449000Y-73825612D01*
X171449000Y-73174388D01*
X171453565Y-73128034D01*
X171465296Y-73089363D01*
X171484348Y-73053721D01*
X171509983Y-73022483D01*
X171541221Y-72996848D01*
X171576863Y-72977796D01*
X171615534Y-72966065D01*
X171661888Y-72961500D01*
X172738112Y-72961500D01*
X172784466Y-72966065D01*
X172784466Y-72966065D01*
G37*
G36*
X169384466Y-72928565D02*
X169423137Y-72940296D01*
X169458779Y-72959348D01*
X169490017Y-72984983D01*
X169515652Y-73016221D01*
X169534704Y-73051863D01*
X169546435Y-73090534D01*
X169551000Y-73136888D01*
X169551000Y-73788112D01*
X169546435Y-73834466D01*
X169534704Y-73873137D01*
X169515652Y-73908779D01*
X169490017Y-73940017D01*
X169458779Y-73965652D01*
X169423137Y-73984704D01*
X169384466Y-73996435D01*
X169338112Y-74001000D01*
X168261888Y-74001000D01*
X168215534Y-73996435D01*
X168176863Y-73984704D01*
X168141221Y-73965652D01*
X168109983Y-73940017D01*
X168084348Y-73908779D01*
X168065296Y-73873137D01*
X168053565Y-73834466D01*
X168049000Y-73788112D01*
X168049000Y-73136888D01*
X168053565Y-73090534D01*
X168065296Y-73051863D01*
X168084348Y-73016221D01*
X168109983Y-72984983D01*
X168141221Y-72959348D01*
X168176863Y-72940296D01*
X168215534Y-72928565D01*
X168261888Y-72924000D01*
X169338112Y-72924000D01*
X169384466Y-72928565D01*
X169384466Y-72928565D01*
G37*
G36*
X199989294Y-71863633D02*
X200161694Y-71915931D01*
X200161696Y-71915932D01*
X200320583Y-72000859D01*
X200459849Y-72115151D01*
X200574141Y-72254417D01*
X200623580Y-72346911D01*
X200659069Y-72413306D01*
X200711367Y-72585706D01*
X200729025Y-72765000D01*
X200711367Y-72944294D01*
X200661209Y-73109639D01*
X200659068Y-73116696D01*
X200574141Y-73275583D01*
X200459849Y-73414849D01*
X200320583Y-73529141D01*
X200161696Y-73614068D01*
X200161694Y-73614069D01*
X199989294Y-73666367D01*
X199854931Y-73679600D01*
X199765069Y-73679600D01*
X199630706Y-73666367D01*
X199458306Y-73614069D01*
X199458304Y-73614068D01*
X199299417Y-73529141D01*
X199160151Y-73414849D01*
X199045859Y-73275583D01*
X198960932Y-73116696D01*
X198958791Y-73109639D01*
X198908633Y-72944294D01*
X198890975Y-72765000D01*
X198908633Y-72585706D01*
X198960931Y-72413306D01*
X198996420Y-72346911D01*
X199045859Y-72254417D01*
X199160151Y-72115151D01*
X199299417Y-72000859D01*
X199458304Y-71915932D01*
X199458306Y-71915931D01*
X199630706Y-71863633D01*
X199765069Y-71850400D01*
X199854931Y-71850400D01*
X199989294Y-71863633D01*
X199989294Y-71863633D01*
G37*
G36*
X202529294Y-71863633D02*
X202701694Y-71915931D01*
X202701696Y-71915932D01*
X202860583Y-72000859D01*
X202999849Y-72115151D01*
X203114141Y-72254417D01*
X203163580Y-72346911D01*
X203199069Y-72413306D01*
X203251367Y-72585706D01*
X203269025Y-72765000D01*
X203251367Y-72944294D01*
X203201209Y-73109639D01*
X203199068Y-73116696D01*
X203114141Y-73275583D01*
X202999849Y-73414849D01*
X202860583Y-73529141D01*
X202701696Y-73614068D01*
X202701694Y-73614069D01*
X202529294Y-73666367D01*
X202394931Y-73679600D01*
X202305069Y-73679600D01*
X202170706Y-73666367D01*
X201998306Y-73614069D01*
X201998304Y-73614068D01*
X201839417Y-73529141D01*
X201700151Y-73414849D01*
X201585859Y-73275583D01*
X201500932Y-73116696D01*
X201498791Y-73109639D01*
X201448633Y-72944294D01*
X201430975Y-72765000D01*
X201448633Y-72585706D01*
X201500931Y-72413306D01*
X201536420Y-72346911D01*
X201585859Y-72254417D01*
X201700151Y-72115151D01*
X201839417Y-72000859D01*
X201998304Y-71915932D01*
X201998306Y-71915931D01*
X202170706Y-71863633D01*
X202305069Y-71850400D01*
X202394931Y-71850400D01*
X202529294Y-71863633D01*
X202529294Y-71863633D01*
G37*
G36*
X159501000Y-73201000D02*
X158699000Y-73201000D01*
X158699000Y-72499000D01*
X159501000Y-72499000D01*
X159501000Y-73201000D01*
X159501000Y-73201000D01*
G37*
G36*
X157984466Y-72116065D02*
X158023137Y-72127796D01*
X158058779Y-72146848D01*
X158090017Y-72172483D01*
X158115652Y-72203721D01*
X158134704Y-72239363D01*
X158146435Y-72278034D01*
X158151000Y-72324388D01*
X158151000Y-72975612D01*
X158146435Y-73021966D01*
X158134704Y-73060637D01*
X158115652Y-73096279D01*
X158090017Y-73127517D01*
X158058779Y-73153152D01*
X158023137Y-73172204D01*
X157984466Y-73183935D01*
X157938112Y-73188500D01*
X156861888Y-73188500D01*
X156815534Y-73183935D01*
X156776863Y-73172204D01*
X156741221Y-73153152D01*
X156709983Y-73127517D01*
X156684348Y-73096279D01*
X156665296Y-73060637D01*
X156653565Y-73021966D01*
X156649000Y-72975612D01*
X156649000Y-72324388D01*
X156653565Y-72278034D01*
X156665296Y-72239363D01*
X156684348Y-72203721D01*
X156709983Y-72172483D01*
X156741221Y-72146848D01*
X156776863Y-72127796D01*
X156815534Y-72116065D01*
X156861888Y-72111500D01*
X157938112Y-72111500D01*
X157984466Y-72116065D01*
X157984466Y-72116065D01*
G37*
G36*
X156084466Y-72116065D02*
X156123137Y-72127796D01*
X156158779Y-72146848D01*
X156190017Y-72172483D01*
X156215652Y-72203721D01*
X156234704Y-72239363D01*
X156246435Y-72278034D01*
X156251000Y-72324388D01*
X156251000Y-72975612D01*
X156246435Y-73021966D01*
X156234704Y-73060637D01*
X156215652Y-73096279D01*
X156190017Y-73127517D01*
X156158779Y-73153152D01*
X156123137Y-73172204D01*
X156084466Y-73183935D01*
X156038112Y-73188500D01*
X154961888Y-73188500D01*
X154915534Y-73183935D01*
X154876863Y-73172204D01*
X154841221Y-73153152D01*
X154809983Y-73127517D01*
X154784348Y-73096279D01*
X154765296Y-73060637D01*
X154753565Y-73021966D01*
X154749000Y-72975612D01*
X154749000Y-72324388D01*
X154753565Y-72278034D01*
X154765296Y-72239363D01*
X154784348Y-72203721D01*
X154809983Y-72172483D01*
X154841221Y-72146848D01*
X154876863Y-72127796D01*
X154915534Y-72116065D01*
X154961888Y-72111500D01*
X156038112Y-72111500D01*
X156084466Y-72116065D01*
X156084466Y-72116065D01*
G37*
G36*
X154184466Y-72116065D02*
X154223137Y-72127796D01*
X154258779Y-72146848D01*
X154290017Y-72172483D01*
X154315652Y-72203721D01*
X154334704Y-72239363D01*
X154346435Y-72278034D01*
X154351000Y-72324388D01*
X154351000Y-72975612D01*
X154346435Y-73021966D01*
X154334704Y-73060637D01*
X154315652Y-73096279D01*
X154290017Y-73127517D01*
X154258779Y-73153152D01*
X154223137Y-73172204D01*
X154184466Y-73183935D01*
X154138112Y-73188500D01*
X153061888Y-73188500D01*
X153015534Y-73183935D01*
X152976863Y-73172204D01*
X152941221Y-73153152D01*
X152909983Y-73127517D01*
X152884348Y-73096279D01*
X152865296Y-73060637D01*
X152853565Y-73021966D01*
X152849000Y-72975612D01*
X152849000Y-72324388D01*
X152853565Y-72278034D01*
X152865296Y-72239363D01*
X152884348Y-72203721D01*
X152909983Y-72172483D01*
X152941221Y-72146848D01*
X152976863Y-72127796D01*
X153015534Y-72116065D01*
X153061888Y-72111500D01*
X154138112Y-72111500D01*
X154184466Y-72116065D01*
X154184466Y-72116065D01*
G37*
G36*
X189136000Y-72536000D02*
X187484000Y-72536000D01*
X187484000Y-71834000D01*
X189136000Y-71834000D01*
X189136000Y-72536000D01*
X189136000Y-72536000D01*
G37*
G36*
X183736000Y-72536000D02*
X182084000Y-72536000D01*
X182084000Y-71834000D01*
X183736000Y-71834000D01*
X183736000Y-72536000D01*
X183736000Y-72536000D01*
G37*
G36*
X194400443Y-70595519D02*
X194466627Y-70602037D01*
X194579853Y-70636384D01*
X194636467Y-70653557D01*
X194775087Y-70727652D01*
X194792991Y-70737222D01*
X194794075Y-70738112D01*
X194930186Y-70849814D01*
X194996406Y-70930505D01*
X195042778Y-70987009D01*
X195042779Y-70987011D01*
X195126443Y-71143533D01*
X195126443Y-71143534D01*
X195177963Y-71313373D01*
X195195359Y-71490000D01*
X195177963Y-71666627D01*
X195143616Y-71779853D01*
X195126443Y-71836467D01*
X195110913Y-71865521D01*
X195042778Y-71992991D01*
X195036320Y-72000860D01*
X194930186Y-72130186D01*
X194856861Y-72190361D01*
X194792991Y-72242778D01*
X194792989Y-72242779D01*
X194636467Y-72326443D01*
X194579853Y-72343616D01*
X194466627Y-72377963D01*
X194400442Y-72384482D01*
X194334260Y-72391000D01*
X194245740Y-72391000D01*
X194179558Y-72384482D01*
X194113373Y-72377963D01*
X194000147Y-72343616D01*
X193943533Y-72326443D01*
X193787011Y-72242779D01*
X193787009Y-72242778D01*
X193723139Y-72190361D01*
X193649814Y-72130186D01*
X193543680Y-72000860D01*
X193537222Y-71992991D01*
X193469087Y-71865521D01*
X193453557Y-71836467D01*
X193436384Y-71779853D01*
X193402037Y-71666627D01*
X193384641Y-71490000D01*
X193402037Y-71313373D01*
X193453557Y-71143534D01*
X193453557Y-71143533D01*
X193537221Y-70987011D01*
X193537222Y-70987009D01*
X193583594Y-70930505D01*
X193649814Y-70849814D01*
X193785925Y-70738112D01*
X193787009Y-70737222D01*
X193804913Y-70727652D01*
X193943533Y-70653557D01*
X194000147Y-70636384D01*
X194113373Y-70602037D01*
X194179557Y-70595519D01*
X194245740Y-70589000D01*
X194334260Y-70589000D01*
X194400443Y-70595519D01*
X194400443Y-70595519D01*
G37*
G36*
X174826000Y-71701000D02*
X173274000Y-71701000D01*
X173274000Y-65299000D01*
X174826000Y-65299000D01*
X174826000Y-71701000D01*
X174826000Y-71701000D01*
G37*
G36*
X168926000Y-71701000D02*
X167374000Y-71701000D01*
X167374000Y-65299000D01*
X168926000Y-65299000D01*
X168926000Y-71701000D01*
X168926000Y-71701000D01*
G37*
G36*
X181314466Y-70541065D02*
X181353137Y-70552796D01*
X181388779Y-70571848D01*
X181420017Y-70597483D01*
X181445652Y-70628721D01*
X181464704Y-70664363D01*
X181476435Y-70703034D01*
X181481000Y-70749388D01*
X181481000Y-71400612D01*
X181476435Y-71446966D01*
X181464704Y-71485637D01*
X181445652Y-71521279D01*
X181420017Y-71552517D01*
X181388779Y-71578152D01*
X181353137Y-71597204D01*
X181314466Y-71608935D01*
X181268112Y-71613500D01*
X180191888Y-71613500D01*
X180145534Y-71608935D01*
X180106863Y-71597204D01*
X180071221Y-71578152D01*
X180039983Y-71552517D01*
X180014348Y-71521279D01*
X179995296Y-71485637D01*
X179983565Y-71446966D01*
X179979000Y-71400612D01*
X179979000Y-70749388D01*
X179983565Y-70703034D01*
X179995296Y-70664363D01*
X180014348Y-70628721D01*
X180039983Y-70597483D01*
X180071221Y-70571848D01*
X180106863Y-70552796D01*
X180145534Y-70541065D01*
X180191888Y-70536500D01*
X181268112Y-70536500D01*
X181314466Y-70541065D01*
X181314466Y-70541065D01*
G37*
G36*
X156084466Y-70391065D02*
X156123137Y-70402796D01*
X156158779Y-70421848D01*
X156190017Y-70447483D01*
X156215652Y-70478721D01*
X156234704Y-70514363D01*
X156246435Y-70553034D01*
X156251000Y-70599388D01*
X156251000Y-71250612D01*
X156246435Y-71296966D01*
X156234704Y-71335637D01*
X156215652Y-71371279D01*
X156190017Y-71402517D01*
X156158779Y-71428152D01*
X156123137Y-71447204D01*
X156084466Y-71458935D01*
X156038112Y-71463500D01*
X154961888Y-71463500D01*
X154915534Y-71458935D01*
X154876863Y-71447204D01*
X154841221Y-71428152D01*
X154809983Y-71402517D01*
X154784348Y-71371279D01*
X154765296Y-71335637D01*
X154753565Y-71296966D01*
X154749000Y-71250612D01*
X154749000Y-70599388D01*
X154753565Y-70553034D01*
X154765296Y-70514363D01*
X154784348Y-70478721D01*
X154809983Y-70447483D01*
X154841221Y-70421848D01*
X154876863Y-70402796D01*
X154915534Y-70391065D01*
X154961888Y-70386500D01*
X156038112Y-70386500D01*
X156084466Y-70391065D01*
X156084466Y-70391065D01*
G37*
G36*
X154184466Y-70391065D02*
X154223137Y-70402796D01*
X154258779Y-70421848D01*
X154290017Y-70447483D01*
X154315652Y-70478721D01*
X154334704Y-70514363D01*
X154346435Y-70553034D01*
X154351000Y-70599388D01*
X154351000Y-71250612D01*
X154346435Y-71296966D01*
X154334704Y-71335637D01*
X154315652Y-71371279D01*
X154290017Y-71402517D01*
X154258779Y-71428152D01*
X154223137Y-71447204D01*
X154184466Y-71458935D01*
X154138112Y-71463500D01*
X153061888Y-71463500D01*
X153015534Y-71458935D01*
X152976863Y-71447204D01*
X152941221Y-71428152D01*
X152909983Y-71402517D01*
X152884348Y-71371279D01*
X152865296Y-71335637D01*
X152853565Y-71296966D01*
X152849000Y-71250612D01*
X152849000Y-70599388D01*
X152853565Y-70553034D01*
X152865296Y-70514363D01*
X152884348Y-70478721D01*
X152909983Y-70447483D01*
X152941221Y-70421848D01*
X152976863Y-70402796D01*
X153015534Y-70391065D01*
X153061888Y-70386500D01*
X154138112Y-70386500D01*
X154184466Y-70391065D01*
X154184466Y-70391065D01*
G37*
G36*
X157984466Y-70391065D02*
X158023137Y-70402796D01*
X158058779Y-70421848D01*
X158090017Y-70447483D01*
X158115652Y-70478721D01*
X158134704Y-70514363D01*
X158146435Y-70553034D01*
X158151000Y-70599388D01*
X158151000Y-71250612D01*
X158146435Y-71296966D01*
X158134704Y-71335637D01*
X158115652Y-71371279D01*
X158090017Y-71402517D01*
X158058779Y-71428152D01*
X158023137Y-71447204D01*
X157984466Y-71458935D01*
X157938112Y-71463500D01*
X156861888Y-71463500D01*
X156815534Y-71458935D01*
X156776863Y-71447204D01*
X156741221Y-71428152D01*
X156709983Y-71402517D01*
X156684348Y-71371279D01*
X156665296Y-71335637D01*
X156653565Y-71296966D01*
X156649000Y-71250612D01*
X156649000Y-70599388D01*
X156653565Y-70553034D01*
X156665296Y-70514363D01*
X156684348Y-70478721D01*
X156709983Y-70447483D01*
X156741221Y-70421848D01*
X156776863Y-70402796D01*
X156815534Y-70391065D01*
X156861888Y-70386500D01*
X157938112Y-70386500D01*
X157984466Y-70391065D01*
X157984466Y-70391065D01*
G37*
G36*
X183736000Y-71266000D02*
X182084000Y-71266000D01*
X182084000Y-70564000D01*
X183736000Y-70564000D01*
X183736000Y-71266000D01*
X183736000Y-71266000D01*
G37*
G36*
X189136000Y-71266000D02*
X187484000Y-71266000D01*
X187484000Y-70564000D01*
X189136000Y-70564000D01*
X189136000Y-71266000D01*
X189136000Y-71266000D01*
G37*
G36*
X177584466Y-69966065D02*
X177623137Y-69977796D01*
X177658779Y-69996848D01*
X177690017Y-70022483D01*
X177715652Y-70053721D01*
X177734704Y-70089363D01*
X177746435Y-70128034D01*
X177751000Y-70174388D01*
X177751000Y-70825612D01*
X177746435Y-70871966D01*
X177734704Y-70910637D01*
X177715652Y-70946279D01*
X177690017Y-70977517D01*
X177658779Y-71003152D01*
X177623137Y-71022204D01*
X177584466Y-71033935D01*
X177538112Y-71038500D01*
X176461888Y-71038500D01*
X176415534Y-71033935D01*
X176376863Y-71022204D01*
X176341221Y-71003152D01*
X176309983Y-70977517D01*
X176284348Y-70946279D01*
X176265296Y-70910637D01*
X176253565Y-70871966D01*
X176249000Y-70825612D01*
X176249000Y-70174388D01*
X176253565Y-70128034D01*
X176265296Y-70089363D01*
X176284348Y-70053721D01*
X176309983Y-70022483D01*
X176341221Y-69996848D01*
X176376863Y-69977796D01*
X176415534Y-69966065D01*
X176461888Y-69961500D01*
X177538112Y-69961500D01*
X177584466Y-69966065D01*
X177584466Y-69966065D01*
G37*
G36*
X159501000Y-71001000D02*
X158699000Y-71001000D01*
X158699000Y-70299000D01*
X159501000Y-70299000D01*
X159501000Y-71001000D01*
X159501000Y-71001000D01*
G37*
G36*
X162521966Y-69453565D02*
X162560637Y-69465296D01*
X162596279Y-69484348D01*
X162627517Y-69509983D01*
X162653152Y-69541221D01*
X162672204Y-69576863D01*
X162683935Y-69615534D01*
X162688500Y-69661888D01*
X162688500Y-70738112D01*
X162683935Y-70784466D01*
X162672204Y-70823137D01*
X162653152Y-70858779D01*
X162627517Y-70890017D01*
X162596279Y-70915652D01*
X162560637Y-70934704D01*
X162521966Y-70946435D01*
X162475612Y-70951000D01*
X161824388Y-70951000D01*
X161778034Y-70946435D01*
X161739363Y-70934704D01*
X161703721Y-70915652D01*
X161672483Y-70890017D01*
X161646848Y-70858779D01*
X161627796Y-70823137D01*
X161616065Y-70784466D01*
X161611500Y-70738112D01*
X161611500Y-69661888D01*
X161616065Y-69615534D01*
X161627796Y-69576863D01*
X161646848Y-69541221D01*
X161672483Y-69509983D01*
X161703721Y-69484348D01*
X161739363Y-69465296D01*
X161778034Y-69453565D01*
X161824388Y-69449000D01*
X162475612Y-69449000D01*
X162521966Y-69453565D01*
X162521966Y-69453565D01*
G37*
G36*
X164396966Y-69453565D02*
X164435637Y-69465296D01*
X164471279Y-69484348D01*
X164502517Y-69509983D01*
X164528152Y-69541221D01*
X164547204Y-69576863D01*
X164558935Y-69615534D01*
X164563500Y-69661888D01*
X164563500Y-70738112D01*
X164558935Y-70784466D01*
X164547204Y-70823137D01*
X164528152Y-70858779D01*
X164502517Y-70890017D01*
X164471279Y-70915652D01*
X164435637Y-70934704D01*
X164396966Y-70946435D01*
X164350612Y-70951000D01*
X163699388Y-70951000D01*
X163653034Y-70946435D01*
X163614363Y-70934704D01*
X163578721Y-70915652D01*
X163547483Y-70890017D01*
X163521848Y-70858779D01*
X163502796Y-70823137D01*
X163491065Y-70784466D01*
X163486500Y-70738112D01*
X163486500Y-69661888D01*
X163491065Y-69615534D01*
X163502796Y-69576863D01*
X163521848Y-69541221D01*
X163547483Y-69509983D01*
X163578721Y-69484348D01*
X163614363Y-69465296D01*
X163653034Y-69453565D01*
X163699388Y-69449000D01*
X164350612Y-69449000D01*
X164396966Y-69453565D01*
X164396966Y-69453565D01*
G37*
G36*
X183736000Y-69996000D02*
X182084000Y-69996000D01*
X182084000Y-69294000D01*
X183736000Y-69294000D01*
X183736000Y-69996000D01*
X183736000Y-69996000D01*
G37*
G36*
X189136000Y-69996000D02*
X187484000Y-69996000D01*
X187484000Y-69294000D01*
X189136000Y-69294000D01*
X189136000Y-69996000D01*
X189136000Y-69996000D01*
G37*
G36*
X194400442Y-68055518D02*
X194466627Y-68062037D01*
X194564327Y-68091674D01*
X194636467Y-68113557D01*
X194699937Y-68147483D01*
X194792991Y-68197222D01*
X194813877Y-68214363D01*
X194930186Y-68309814D01*
X195011967Y-68409466D01*
X195042778Y-68447009D01*
X195042779Y-68447011D01*
X195126443Y-68603533D01*
X195126443Y-68603534D01*
X195177963Y-68773373D01*
X195195359Y-68950000D01*
X195177963Y-69126627D01*
X195156009Y-69199000D01*
X195126443Y-69296467D01*
X195114265Y-69319250D01*
X195042778Y-69452991D01*
X195041807Y-69454174D01*
X194930186Y-69590186D01*
X194838144Y-69665722D01*
X194792991Y-69702778D01*
X194792989Y-69702779D01*
X194636467Y-69786443D01*
X194579853Y-69803616D01*
X194466627Y-69837963D01*
X194400443Y-69844481D01*
X194334260Y-69851000D01*
X194245740Y-69851000D01*
X194179557Y-69844481D01*
X194113373Y-69837963D01*
X194000147Y-69803616D01*
X193943533Y-69786443D01*
X193787011Y-69702779D01*
X193787009Y-69702778D01*
X193741856Y-69665722D01*
X193649814Y-69590186D01*
X193538193Y-69454174D01*
X193537222Y-69452991D01*
X193465735Y-69319250D01*
X193453557Y-69296467D01*
X193423991Y-69199000D01*
X193402037Y-69126627D01*
X193384641Y-68950000D01*
X193402037Y-68773373D01*
X193453557Y-68603534D01*
X193453557Y-68603533D01*
X193537221Y-68447011D01*
X193537222Y-68447009D01*
X193568033Y-68409466D01*
X193649814Y-68309814D01*
X193766123Y-68214363D01*
X193787009Y-68197222D01*
X193880063Y-68147483D01*
X193943533Y-68113557D01*
X194015673Y-68091674D01*
X194113373Y-68062037D01*
X194179558Y-68055518D01*
X194245740Y-68049000D01*
X194334260Y-68049000D01*
X194400442Y-68055518D01*
X194400442Y-68055518D01*
G37*
G36*
X181314466Y-68666065D02*
X181353137Y-68677796D01*
X181388779Y-68696848D01*
X181420017Y-68722483D01*
X181445652Y-68753721D01*
X181464704Y-68789363D01*
X181476435Y-68828034D01*
X181481000Y-68874388D01*
X181481000Y-69525612D01*
X181476435Y-69571966D01*
X181464704Y-69610637D01*
X181445652Y-69646279D01*
X181420017Y-69677517D01*
X181388779Y-69703152D01*
X181353137Y-69722204D01*
X181314466Y-69733935D01*
X181268112Y-69738500D01*
X180191888Y-69738500D01*
X180145534Y-69733935D01*
X180106863Y-69722204D01*
X180071221Y-69703152D01*
X180039983Y-69677517D01*
X180014348Y-69646279D01*
X179995296Y-69610637D01*
X179983565Y-69571966D01*
X179979000Y-69525612D01*
X179979000Y-68874388D01*
X179983565Y-68828034D01*
X179995296Y-68789363D01*
X180014348Y-68753721D01*
X180039983Y-68722483D01*
X180071221Y-68696848D01*
X180106863Y-68677796D01*
X180145534Y-68666065D01*
X180191888Y-68661500D01*
X181268112Y-68661500D01*
X181314466Y-68666065D01*
X181314466Y-68666065D01*
G37*
G36*
X159501000Y-69601000D02*
X158699000Y-69601000D01*
X158699000Y-68899000D01*
X159501000Y-68899000D01*
X159501000Y-69601000D01*
X159501000Y-69601000D01*
G37*
G36*
X154184466Y-68516065D02*
X154223137Y-68527796D01*
X154258779Y-68546848D01*
X154290017Y-68572483D01*
X154315652Y-68603721D01*
X154334704Y-68639363D01*
X154346435Y-68678034D01*
X154351000Y-68724388D01*
X154351000Y-69375612D01*
X154346435Y-69421966D01*
X154334704Y-69460637D01*
X154315652Y-69496279D01*
X154290017Y-69527517D01*
X154258779Y-69553152D01*
X154223137Y-69572204D01*
X154184466Y-69583935D01*
X154138112Y-69588500D01*
X153061888Y-69588500D01*
X153015534Y-69583935D01*
X152976863Y-69572204D01*
X152941221Y-69553152D01*
X152909983Y-69527517D01*
X152884348Y-69496279D01*
X152865296Y-69460637D01*
X152853565Y-69421966D01*
X152849000Y-69375612D01*
X152849000Y-68724388D01*
X152853565Y-68678034D01*
X152865296Y-68639363D01*
X152884348Y-68603721D01*
X152909983Y-68572483D01*
X152941221Y-68546848D01*
X152976863Y-68527796D01*
X153015534Y-68516065D01*
X153061888Y-68511500D01*
X154138112Y-68511500D01*
X154184466Y-68516065D01*
X154184466Y-68516065D01*
G37*
G36*
X157984466Y-68516065D02*
X158023137Y-68527796D01*
X158058779Y-68546848D01*
X158090017Y-68572483D01*
X158115652Y-68603721D01*
X158134704Y-68639363D01*
X158146435Y-68678034D01*
X158151000Y-68724388D01*
X158151000Y-69375612D01*
X158146435Y-69421966D01*
X158134704Y-69460637D01*
X158115652Y-69496279D01*
X158090017Y-69527517D01*
X158058779Y-69553152D01*
X158023137Y-69572204D01*
X157984466Y-69583935D01*
X157938112Y-69588500D01*
X156861888Y-69588500D01*
X156815534Y-69583935D01*
X156776863Y-69572204D01*
X156741221Y-69553152D01*
X156709983Y-69527517D01*
X156684348Y-69496279D01*
X156665296Y-69460637D01*
X156653565Y-69421966D01*
X156649000Y-69375612D01*
X156649000Y-68724388D01*
X156653565Y-68678034D01*
X156665296Y-68639363D01*
X156684348Y-68603721D01*
X156709983Y-68572483D01*
X156741221Y-68546848D01*
X156776863Y-68527796D01*
X156815534Y-68516065D01*
X156861888Y-68511500D01*
X157938112Y-68511500D01*
X157984466Y-68516065D01*
X157984466Y-68516065D01*
G37*
G36*
X156084466Y-68516065D02*
X156123137Y-68527796D01*
X156158779Y-68546848D01*
X156190017Y-68572483D01*
X156215652Y-68603721D01*
X156234704Y-68639363D01*
X156246435Y-68678034D01*
X156251000Y-68724388D01*
X156251000Y-69375612D01*
X156246435Y-69421966D01*
X156234704Y-69460637D01*
X156215652Y-69496279D01*
X156190017Y-69527517D01*
X156158779Y-69553152D01*
X156123137Y-69572204D01*
X156084466Y-69583935D01*
X156038112Y-69588500D01*
X154961888Y-69588500D01*
X154915534Y-69583935D01*
X154876863Y-69572204D01*
X154841221Y-69553152D01*
X154809983Y-69527517D01*
X154784348Y-69496279D01*
X154765296Y-69460637D01*
X154753565Y-69421966D01*
X154749000Y-69375612D01*
X154749000Y-68724388D01*
X154753565Y-68678034D01*
X154765296Y-68639363D01*
X154784348Y-68603721D01*
X154809983Y-68572483D01*
X154841221Y-68546848D01*
X154876863Y-68527796D01*
X154915534Y-68516065D01*
X154961888Y-68511500D01*
X156038112Y-68511500D01*
X156084466Y-68516065D01*
X156084466Y-68516065D01*
G37*
G36*
X177584466Y-68091065D02*
X177623137Y-68102796D01*
X177658779Y-68121848D01*
X177690017Y-68147483D01*
X177715652Y-68178721D01*
X177734704Y-68214363D01*
X177746435Y-68253034D01*
X177751000Y-68299388D01*
X177751000Y-68950612D01*
X177746435Y-68996966D01*
X177734704Y-69035637D01*
X177715652Y-69071279D01*
X177690017Y-69102517D01*
X177658779Y-69128152D01*
X177623137Y-69147204D01*
X177584466Y-69158935D01*
X177538112Y-69163500D01*
X176461888Y-69163500D01*
X176415534Y-69158935D01*
X176376863Y-69147204D01*
X176341221Y-69128152D01*
X176309983Y-69102517D01*
X176284348Y-69071279D01*
X176265296Y-69035637D01*
X176253565Y-68996966D01*
X176249000Y-68950612D01*
X176249000Y-68299388D01*
X176253565Y-68253034D01*
X176265296Y-68214363D01*
X176284348Y-68178721D01*
X176309983Y-68147483D01*
X176341221Y-68121848D01*
X176376863Y-68102796D01*
X176415534Y-68091065D01*
X176461888Y-68086500D01*
X177538112Y-68086500D01*
X177584466Y-68091065D01*
X177584466Y-68091065D01*
G37*
G36*
X163301000Y-68951000D02*
X161999000Y-68951000D01*
X161999000Y-67449000D01*
X163301000Y-67449000D01*
X163301000Y-68951000D01*
X163301000Y-68951000D01*
G37*
G36*
X165001000Y-68951000D02*
X163699000Y-68951000D01*
X163699000Y-67449000D01*
X165001000Y-67449000D01*
X165001000Y-68951000D01*
X165001000Y-68951000D01*
G37*
G36*
X183736000Y-68726000D02*
X182084000Y-68726000D01*
X182084000Y-68024000D01*
X183736000Y-68024000D01*
X183736000Y-68726000D01*
X183736000Y-68726000D01*
G37*
G36*
X189136000Y-68726000D02*
X187484000Y-68726000D01*
X187484000Y-68024000D01*
X189136000Y-68024000D01*
X189136000Y-68726000D01*
X189136000Y-68726000D01*
G37*
G36*
X161284466Y-67503565D02*
X161323137Y-67515296D01*
X161358779Y-67534348D01*
X161390017Y-67559983D01*
X161415652Y-67591221D01*
X161434704Y-67626863D01*
X161446435Y-67665534D01*
X161451000Y-67711888D01*
X161451000Y-68363112D01*
X161446435Y-68409466D01*
X161434704Y-68448137D01*
X161415652Y-68483779D01*
X161390017Y-68515017D01*
X161358779Y-68540652D01*
X161323137Y-68559704D01*
X161284466Y-68571435D01*
X161238112Y-68576000D01*
X160161888Y-68576000D01*
X160115534Y-68571435D01*
X160076863Y-68559704D01*
X160041221Y-68540652D01*
X160009983Y-68515017D01*
X159984348Y-68483779D01*
X159965296Y-68448137D01*
X159953565Y-68409466D01*
X159949000Y-68363112D01*
X159949000Y-67711888D01*
X159953565Y-67665534D01*
X159965296Y-67626863D01*
X159984348Y-67591221D01*
X160009983Y-67559983D01*
X160041221Y-67534348D01*
X160076863Y-67515296D01*
X160115534Y-67503565D01*
X160161888Y-67499000D01*
X161238112Y-67499000D01*
X161284466Y-67503565D01*
X161284466Y-67503565D01*
G37*
G36*
X165001000Y-66751000D02*
X163699000Y-66751000D01*
X163699000Y-65249000D01*
X165001000Y-65249000D01*
X165001000Y-66751000D01*
X165001000Y-66751000D01*
G37*
G36*
X163301000Y-66751000D02*
X161999000Y-66751000D01*
X161999000Y-65249000D01*
X163301000Y-65249000D01*
X163301000Y-66751000D01*
X163301000Y-66751000D01*
G37*
G36*
X161284466Y-65628565D02*
X161323137Y-65640296D01*
X161358779Y-65659348D01*
X161390017Y-65684983D01*
X161415652Y-65716221D01*
X161434704Y-65751863D01*
X161446435Y-65790534D01*
X161451000Y-65836888D01*
X161451000Y-66488112D01*
X161446435Y-66534466D01*
X161434704Y-66573137D01*
X161415652Y-66608779D01*
X161390017Y-66640017D01*
X161358779Y-66665652D01*
X161323137Y-66684704D01*
X161284466Y-66696435D01*
X161238112Y-66701000D01*
X160161888Y-66701000D01*
X160115534Y-66696435D01*
X160076863Y-66684704D01*
X160041221Y-66665652D01*
X160009983Y-66640017D01*
X159984348Y-66608779D01*
X159965296Y-66573137D01*
X159953565Y-66534466D01*
X159949000Y-66488112D01*
X159949000Y-65836888D01*
X159953565Y-65790534D01*
X159965296Y-65751863D01*
X159984348Y-65716221D01*
X160009983Y-65684983D01*
X160041221Y-65659348D01*
X160076863Y-65640296D01*
X160115534Y-65628565D01*
X160161888Y-65624000D01*
X161238112Y-65624000D01*
X161284466Y-65628565D01*
X161284466Y-65628565D01*
G37*
G36*
X149016424Y-62512760D02*
X149016427Y-62512761D01*
X149016428Y-62512761D01*
X149195692Y-62567140D01*
X149195694Y-62567141D01*
X149195697Y-62567142D01*
X149360904Y-62655446D01*
X149505712Y-62774288D01*
X149624552Y-62919095D01*
X149711064Y-63080947D01*
X149712860Y-63084307D01*
X149741968Y-63180263D01*
X149767240Y-63263575D01*
X149781000Y-63403282D01*
X149781000Y-65296718D01*
X149767240Y-65436425D01*
X149712859Y-65615695D01*
X149624552Y-65780905D01*
X149505712Y-65925712D01*
X149360905Y-66044552D01*
X149287857Y-66083597D01*
X149195693Y-66132860D01*
X149016429Y-66187239D01*
X149016428Y-66187239D01*
X149016425Y-66187240D01*
X148830000Y-66205601D01*
X148643576Y-66187240D01*
X148643573Y-66187239D01*
X148643572Y-66187239D01*
X148464308Y-66132860D01*
X148372144Y-66083597D01*
X148299096Y-66044552D01*
X148154289Y-65925712D01*
X148035449Y-65780905D01*
X147947142Y-65615695D01*
X147892761Y-65436425D01*
X147879000Y-65296717D01*
X147879000Y-63403283D01*
X147892760Y-63263576D01*
X147892761Y-63263572D01*
X147947140Y-63084308D01*
X147947141Y-63084306D01*
X147947142Y-63084303D01*
X148035446Y-62919096D01*
X148154288Y-62774288D01*
X148299095Y-62655448D01*
X148464305Y-62567141D01*
X148464307Y-62567140D01*
X148643571Y-62512761D01*
X148643572Y-62512761D01*
X148643575Y-62512760D01*
X148830000Y-62494399D01*
X149016424Y-62512760D01*
X149016424Y-62512760D01*
G37*
G36*
X142016424Y-62512760D02*
X142016427Y-62512761D01*
X142016428Y-62512761D01*
X142195692Y-62567140D01*
X142195694Y-62567141D01*
X142195697Y-62567142D01*
X142360904Y-62655446D01*
X142505712Y-62774288D01*
X142624552Y-62919095D01*
X142711064Y-63080947D01*
X142712860Y-63084307D01*
X142741968Y-63180263D01*
X142767240Y-63263575D01*
X142781000Y-63403282D01*
X142781000Y-65296718D01*
X142767240Y-65436425D01*
X142712859Y-65615695D01*
X142624552Y-65780905D01*
X142505712Y-65925712D01*
X142360905Y-66044552D01*
X142287857Y-66083597D01*
X142195693Y-66132860D01*
X142016429Y-66187239D01*
X142016428Y-66187239D01*
X142016425Y-66187240D01*
X141830000Y-66205601D01*
X141643576Y-66187240D01*
X141643573Y-66187239D01*
X141643572Y-66187239D01*
X141464308Y-66132860D01*
X141372144Y-66083597D01*
X141299096Y-66044552D01*
X141154289Y-65925712D01*
X141035449Y-65780905D01*
X140947142Y-65615695D01*
X140892761Y-65436425D01*
X140879000Y-65296717D01*
X140879000Y-63403283D01*
X140892760Y-63263576D01*
X140892761Y-63263572D01*
X140947140Y-63084308D01*
X140947141Y-63084306D01*
X140947142Y-63084303D01*
X141035446Y-62919096D01*
X141154288Y-62774288D01*
X141299095Y-62655448D01*
X141464305Y-62567141D01*
X141464307Y-62567140D01*
X141643571Y-62512761D01*
X141643572Y-62512761D01*
X141643575Y-62512760D01*
X141830000Y-62494399D01*
X142016424Y-62512760D01*
X142016424Y-62512760D01*
G37*
G36*
X145516424Y-62512760D02*
X145516427Y-62512761D01*
X145516428Y-62512761D01*
X145695692Y-62567140D01*
X145695694Y-62567141D01*
X145695697Y-62567142D01*
X145860904Y-62655446D01*
X146005712Y-62774288D01*
X146124552Y-62919095D01*
X146211064Y-63080947D01*
X146212860Y-63084307D01*
X146241968Y-63180263D01*
X146267240Y-63263575D01*
X146281000Y-63403282D01*
X146281000Y-65296718D01*
X146267240Y-65436425D01*
X146212859Y-65615695D01*
X146124552Y-65780905D01*
X146005712Y-65925712D01*
X145860905Y-66044552D01*
X145787857Y-66083597D01*
X145695693Y-66132860D01*
X145516429Y-66187239D01*
X145516428Y-66187239D01*
X145516425Y-66187240D01*
X145330000Y-66205601D01*
X145143576Y-66187240D01*
X145143573Y-66187239D01*
X145143572Y-66187239D01*
X144964308Y-66132860D01*
X144872144Y-66083597D01*
X144799096Y-66044552D01*
X144654289Y-65925712D01*
X144535449Y-65780905D01*
X144447142Y-65615695D01*
X144392761Y-65436425D01*
X144379000Y-65296717D01*
X144379000Y-63403283D01*
X144392760Y-63263576D01*
X144392761Y-63263572D01*
X144447140Y-63084308D01*
X144447141Y-63084306D01*
X144447142Y-63084303D01*
X144535446Y-62919096D01*
X144654288Y-62774288D01*
X144799095Y-62655448D01*
X144964305Y-62567141D01*
X144964307Y-62567140D01*
X145143571Y-62512761D01*
X145143572Y-62512761D01*
X145143575Y-62512760D01*
X145330000Y-62494399D01*
X145516424Y-62512760D01*
X145516424Y-62512760D01*
G37*
G36*
X139140918Y-62502934D02*
X139173424Y-62512795D01*
X139203383Y-62528808D01*
X139229641Y-62550359D01*
X139251192Y-62576617D01*
X139267205Y-62606576D01*
X139277066Y-62639082D01*
X139281000Y-62679029D01*
X139281000Y-66020971D01*
X139277066Y-66060918D01*
X139267205Y-66093424D01*
X139251192Y-66123383D01*
X139229641Y-66149641D01*
X139203383Y-66171192D01*
X139173424Y-66187205D01*
X139140918Y-66197066D01*
X139100971Y-66201000D01*
X137559029Y-66201000D01*
X137519082Y-66197066D01*
X137486576Y-66187205D01*
X137456617Y-66171192D01*
X137430359Y-66149641D01*
X137408808Y-66123383D01*
X137392795Y-66093424D01*
X137382934Y-66060918D01*
X137379000Y-66020971D01*
X137379000Y-62679029D01*
X137382934Y-62639082D01*
X137392795Y-62606576D01*
X137408808Y-62576617D01*
X137430359Y-62550359D01*
X137456617Y-62528808D01*
X137486576Y-62512795D01*
X137519082Y-62502934D01*
X137559029Y-62499000D01*
X139100971Y-62499000D01*
X139140918Y-62502934D01*
X139140918Y-62502934D01*
G37*
G36*
X193731966Y-63933565D02*
X193770637Y-63945296D01*
X193806279Y-63964348D01*
X193837517Y-63989983D01*
X193863152Y-64021221D01*
X193882204Y-64056863D01*
X193893935Y-64095534D01*
X193898500Y-64141888D01*
X193898500Y-65218112D01*
X193893935Y-65264466D01*
X193882204Y-65303137D01*
X193863152Y-65338779D01*
X193837517Y-65370017D01*
X193806279Y-65395652D01*
X193770637Y-65414704D01*
X193731966Y-65426435D01*
X193685612Y-65431000D01*
X193034388Y-65431000D01*
X192988034Y-65426435D01*
X192949363Y-65414704D01*
X192913721Y-65395652D01*
X192882483Y-65370017D01*
X192856848Y-65338779D01*
X192837796Y-65303137D01*
X192826065Y-65264466D01*
X192821500Y-65218112D01*
X192821500Y-64141888D01*
X192826065Y-64095534D01*
X192837796Y-64056863D01*
X192856848Y-64021221D01*
X192882483Y-63989983D01*
X192913721Y-63964348D01*
X192949363Y-63945296D01*
X192988034Y-63933565D01*
X193034388Y-63929000D01*
X193685612Y-63929000D01*
X193731966Y-63933565D01*
X193731966Y-63933565D01*
G37*
G36*
X191856966Y-63933565D02*
X191895637Y-63945296D01*
X191931279Y-63964348D01*
X191962517Y-63989983D01*
X191988152Y-64021221D01*
X192007204Y-64056863D01*
X192018935Y-64095534D01*
X192023500Y-64141888D01*
X192023500Y-65218112D01*
X192018935Y-65264466D01*
X192007204Y-65303137D01*
X191988152Y-65338779D01*
X191962517Y-65370017D01*
X191931279Y-65395652D01*
X191895637Y-65414704D01*
X191856966Y-65426435D01*
X191810612Y-65431000D01*
X191159388Y-65431000D01*
X191113034Y-65426435D01*
X191074363Y-65414704D01*
X191038721Y-65395652D01*
X191007483Y-65370017D01*
X190981848Y-65338779D01*
X190962796Y-65303137D01*
X190951065Y-65264466D01*
X190946500Y-65218112D01*
X190946500Y-64141888D01*
X190951065Y-64095534D01*
X190962796Y-64056863D01*
X190981848Y-64021221D01*
X191007483Y-63989983D01*
X191038721Y-63964348D01*
X191074363Y-63945296D01*
X191113034Y-63933565D01*
X191159388Y-63929000D01*
X191810612Y-63929000D01*
X191856966Y-63933565D01*
X191856966Y-63933565D01*
G37*
G36*
X160918604Y-63278347D02*
X160955145Y-63289432D01*
X160988820Y-63307431D01*
X161018341Y-63331659D01*
X161042569Y-63361180D01*
X161060568Y-63394855D01*
X161071653Y-63431396D01*
X161076000Y-63475538D01*
X161076000Y-64924462D01*
X161071653Y-64968604D01*
X161060568Y-65005145D01*
X161042569Y-65038820D01*
X161018341Y-65068341D01*
X160988820Y-65092569D01*
X160955145Y-65110568D01*
X160918604Y-65121653D01*
X160874462Y-65126000D01*
X159925538Y-65126000D01*
X159881396Y-65121653D01*
X159844855Y-65110568D01*
X159811180Y-65092569D01*
X159781659Y-65068341D01*
X159757431Y-65038820D01*
X159739432Y-65005145D01*
X159728347Y-64968604D01*
X159724000Y-64924462D01*
X159724000Y-63475538D01*
X159728347Y-63431396D01*
X159739432Y-63394855D01*
X159757431Y-63361180D01*
X159781659Y-63331659D01*
X159811180Y-63307431D01*
X159844855Y-63289432D01*
X159881396Y-63278347D01*
X159925538Y-63274000D01*
X160874462Y-63274000D01*
X160918604Y-63278347D01*
X160918604Y-63278347D01*
G37*
G36*
X158118604Y-63278347D02*
X158155145Y-63289432D01*
X158188820Y-63307431D01*
X158218341Y-63331659D01*
X158242569Y-63361180D01*
X158260568Y-63394855D01*
X158271653Y-63431396D01*
X158276000Y-63475538D01*
X158276000Y-64924462D01*
X158271653Y-64968604D01*
X158260568Y-65005145D01*
X158242569Y-65038820D01*
X158218341Y-65068341D01*
X158188820Y-65092569D01*
X158155145Y-65110568D01*
X158118604Y-65121653D01*
X158074462Y-65126000D01*
X157125538Y-65126000D01*
X157081396Y-65121653D01*
X157044855Y-65110568D01*
X157011180Y-65092569D01*
X156981659Y-65068341D01*
X156957431Y-65038820D01*
X156939432Y-65005145D01*
X156928347Y-64968604D01*
X156924000Y-64924462D01*
X156924000Y-63475538D01*
X156928347Y-63431396D01*
X156939432Y-63394855D01*
X156957431Y-63361180D01*
X156981659Y-63331659D01*
X157011180Y-63307431D01*
X157044855Y-63289432D01*
X157081396Y-63278347D01*
X157125538Y-63274000D01*
X158074462Y-63274000D01*
X158118604Y-63278347D01*
X158118604Y-63278347D01*
G37*
G36*
X155971966Y-63453565D02*
X156010637Y-63465296D01*
X156046279Y-63484348D01*
X156077517Y-63509983D01*
X156103152Y-63541221D01*
X156122204Y-63576863D01*
X156133935Y-63615534D01*
X156138500Y-63661888D01*
X156138500Y-64738112D01*
X156133935Y-64784466D01*
X156122204Y-64823137D01*
X156103152Y-64858779D01*
X156077517Y-64890017D01*
X156046279Y-64915652D01*
X156010637Y-64934704D01*
X155971966Y-64946435D01*
X155925612Y-64951000D01*
X155274388Y-64951000D01*
X155228034Y-64946435D01*
X155189363Y-64934704D01*
X155153721Y-64915652D01*
X155122483Y-64890017D01*
X155096848Y-64858779D01*
X155077796Y-64823137D01*
X155066065Y-64784466D01*
X155061500Y-64738112D01*
X155061500Y-63661888D01*
X155066065Y-63615534D01*
X155077796Y-63576863D01*
X155096848Y-63541221D01*
X155122483Y-63509983D01*
X155153721Y-63484348D01*
X155189363Y-63465296D01*
X155228034Y-63453565D01*
X155274388Y-63449000D01*
X155925612Y-63449000D01*
X155971966Y-63453565D01*
X155971966Y-63453565D01*
G37*
G36*
X154096966Y-63453565D02*
X154135637Y-63465296D01*
X154171279Y-63484348D01*
X154202517Y-63509983D01*
X154228152Y-63541221D01*
X154247204Y-63576863D01*
X154258935Y-63615534D01*
X154263500Y-63661888D01*
X154263500Y-64738112D01*
X154258935Y-64784466D01*
X154247204Y-64823137D01*
X154228152Y-64858779D01*
X154202517Y-64890017D01*
X154171279Y-64915652D01*
X154135637Y-64934704D01*
X154096966Y-64946435D01*
X154050612Y-64951000D01*
X153399388Y-64951000D01*
X153353034Y-64946435D01*
X153314363Y-64934704D01*
X153278721Y-64915652D01*
X153247483Y-64890017D01*
X153221848Y-64858779D01*
X153202796Y-64823137D01*
X153191065Y-64784466D01*
X153186500Y-64738112D01*
X153186500Y-63661888D01*
X153191065Y-63615534D01*
X153202796Y-63576863D01*
X153221848Y-63541221D01*
X153247483Y-63509983D01*
X153278721Y-63484348D01*
X153314363Y-63465296D01*
X153353034Y-63453565D01*
X153399388Y-63449000D01*
X154050612Y-63449000D01*
X154096966Y-63453565D01*
X154096966Y-63453565D01*
G37*
G36*
X168196966Y-62953565D02*
X168235637Y-62965296D01*
X168271279Y-62984348D01*
X168302517Y-63009983D01*
X168328152Y-63041221D01*
X168347204Y-63076863D01*
X168358935Y-63115534D01*
X168363500Y-63161888D01*
X168363500Y-64238112D01*
X168358935Y-64284466D01*
X168347204Y-64323137D01*
X168328152Y-64358779D01*
X168302517Y-64390017D01*
X168271279Y-64415652D01*
X168235637Y-64434704D01*
X168196966Y-64446435D01*
X168150612Y-64451000D01*
X167499388Y-64451000D01*
X167453034Y-64446435D01*
X167414363Y-64434704D01*
X167378721Y-64415652D01*
X167347483Y-64390017D01*
X167321848Y-64358779D01*
X167302796Y-64323137D01*
X167291065Y-64284466D01*
X167286500Y-64238112D01*
X167286500Y-63161888D01*
X167291065Y-63115534D01*
X167302796Y-63076863D01*
X167321848Y-63041221D01*
X167347483Y-63009983D01*
X167378721Y-62984348D01*
X167414363Y-62965296D01*
X167453034Y-62953565D01*
X167499388Y-62949000D01*
X168150612Y-62949000D01*
X168196966Y-62953565D01*
X168196966Y-62953565D01*
G37*
G36*
X170071966Y-62953565D02*
X170110637Y-62965296D01*
X170146279Y-62984348D01*
X170177517Y-63009983D01*
X170203152Y-63041221D01*
X170222204Y-63076863D01*
X170233935Y-63115534D01*
X170238500Y-63161888D01*
X170238500Y-64238112D01*
X170233935Y-64284466D01*
X170222204Y-64323137D01*
X170203152Y-64358779D01*
X170177517Y-64390017D01*
X170146279Y-64415652D01*
X170110637Y-64434704D01*
X170071966Y-64446435D01*
X170025612Y-64451000D01*
X169374388Y-64451000D01*
X169328034Y-64446435D01*
X169289363Y-64434704D01*
X169253721Y-64415652D01*
X169222483Y-64390017D01*
X169196848Y-64358779D01*
X169177796Y-64323137D01*
X169166065Y-64284466D01*
X169161500Y-64238112D01*
X169161500Y-63161888D01*
X169166065Y-63115534D01*
X169177796Y-63076863D01*
X169196848Y-63041221D01*
X169222483Y-63009983D01*
X169253721Y-62984348D01*
X169289363Y-62965296D01*
X169328034Y-62953565D01*
X169374388Y-62949000D01*
X170025612Y-62949000D01*
X170071966Y-62953565D01*
X170071966Y-62953565D01*
G37*
G36*
X173709466Y-62953565D02*
X173748137Y-62965296D01*
X173783779Y-62984348D01*
X173815017Y-63009983D01*
X173840652Y-63041221D01*
X173859704Y-63076863D01*
X173871435Y-63115534D01*
X173876000Y-63161888D01*
X173876000Y-64238112D01*
X173871435Y-64284466D01*
X173859704Y-64323137D01*
X173840652Y-64358779D01*
X173815017Y-64390017D01*
X173783779Y-64415652D01*
X173748137Y-64434704D01*
X173709466Y-64446435D01*
X173663112Y-64451000D01*
X173011888Y-64451000D01*
X172965534Y-64446435D01*
X172926863Y-64434704D01*
X172891221Y-64415652D01*
X172859983Y-64390017D01*
X172834348Y-64358779D01*
X172815296Y-64323137D01*
X172803565Y-64284466D01*
X172799000Y-64238112D01*
X172799000Y-63161888D01*
X172803565Y-63115534D01*
X172815296Y-63076863D01*
X172834348Y-63041221D01*
X172859983Y-63009983D01*
X172891221Y-62984348D01*
X172926863Y-62965296D01*
X172965534Y-62953565D01*
X173011888Y-62949000D01*
X173663112Y-62949000D01*
X173709466Y-62953565D01*
X173709466Y-62953565D01*
G37*
G36*
X171834466Y-62953565D02*
X171873137Y-62965296D01*
X171908779Y-62984348D01*
X171940017Y-63009983D01*
X171965652Y-63041221D01*
X171984704Y-63076863D01*
X171996435Y-63115534D01*
X172001000Y-63161888D01*
X172001000Y-64238112D01*
X171996435Y-64284466D01*
X171984704Y-64323137D01*
X171965652Y-64358779D01*
X171940017Y-64390017D01*
X171908779Y-64415652D01*
X171873137Y-64434704D01*
X171834466Y-64446435D01*
X171788112Y-64451000D01*
X171136888Y-64451000D01*
X171090534Y-64446435D01*
X171051863Y-64434704D01*
X171016221Y-64415652D01*
X170984983Y-64390017D01*
X170959348Y-64358779D01*
X170940296Y-64323137D01*
X170928565Y-64284466D01*
X170924000Y-64238112D01*
X170924000Y-63161888D01*
X170928565Y-63115534D01*
X170940296Y-63076863D01*
X170959348Y-63041221D01*
X170984983Y-63009983D01*
X171016221Y-62984348D01*
X171051863Y-62965296D01*
X171090534Y-62953565D01*
X171136888Y-62949000D01*
X171788112Y-62949000D01*
X171834466Y-62953565D01*
X171834466Y-62953565D01*
G37*
G36*
X184476626Y-61262037D02*
X184580379Y-61293510D01*
X184646466Y-61313557D01*
X184802989Y-61397221D01*
X184940186Y-61509814D01*
X185022725Y-61610389D01*
X185052778Y-61647009D01*
X185052779Y-61647011D01*
X185136443Y-61803533D01*
X185140819Y-61817960D01*
X185187963Y-61973373D01*
X185187963Y-61973375D01*
X185201000Y-62105740D01*
X185201000Y-62694259D01*
X185198302Y-62721653D01*
X185187963Y-62826627D01*
X185136443Y-62996466D01*
X185052778Y-63152991D01*
X185030405Y-63180252D01*
X184940186Y-63290186D01*
X184853678Y-63361180D01*
X184802991Y-63402778D01*
X184802039Y-63403287D01*
X184646467Y-63486443D01*
X184596187Y-63501695D01*
X184476627Y-63537963D01*
X184300000Y-63555359D01*
X184123374Y-63537963D01*
X184003814Y-63501695D01*
X183953534Y-63486443D01*
X183918920Y-63467941D01*
X183896281Y-63458564D01*
X183872248Y-63453783D01*
X183847743Y-63453783D01*
X183823710Y-63458563D01*
X183801071Y-63467941D01*
X183780696Y-63481554D01*
X183763369Y-63498882D01*
X183749755Y-63519256D01*
X183740378Y-63541895D01*
X183735597Y-63565928D01*
X183737397Y-63602567D01*
X183751000Y-63670956D01*
X183751000Y-63809044D01*
X183724062Y-63944472D01*
X183671218Y-64072049D01*
X183594500Y-64186865D01*
X183496865Y-64284500D01*
X183382049Y-64361218D01*
X183254472Y-64414062D01*
X183119044Y-64441000D01*
X182980956Y-64441000D01*
X182845528Y-64414062D01*
X182717951Y-64361218D01*
X182603135Y-64284500D01*
X182505500Y-64186865D01*
X182428782Y-64072049D01*
X182375938Y-63944472D01*
X182349000Y-63809044D01*
X182349000Y-63670956D01*
X182357144Y-63630013D01*
X182359546Y-63605627D01*
X182357144Y-63581240D01*
X182350031Y-63557791D01*
X182338480Y-63536180D01*
X182322934Y-63517238D01*
X182303992Y-63501693D01*
X182282381Y-63490142D01*
X182258932Y-63483029D01*
X182234546Y-63480627D01*
X182210159Y-63483029D01*
X182186710Y-63490142D01*
X182165103Y-63501692D01*
X182163051Y-63503063D01*
X182163046Y-63503066D01*
X182157919Y-63506492D01*
X182125528Y-63523805D01*
X182119833Y-63526164D01*
X182119829Y-63526166D01*
X182110547Y-63530010D01*
X182104849Y-63532370D01*
X182069696Y-63543034D01*
X182047747Y-63547400D01*
X182008130Y-63551302D01*
X181996936Y-63551852D01*
X181203064Y-63551852D01*
X181191870Y-63551302D01*
X181152253Y-63547400D01*
X181130304Y-63543034D01*
X181095151Y-63532370D01*
X181089453Y-63530010D01*
X181080171Y-63526166D01*
X181080167Y-63526164D01*
X181074472Y-63523805D01*
X181042078Y-63506490D01*
X181023467Y-63494054D01*
X180995074Y-63470753D01*
X180979247Y-63454926D01*
X180955946Y-63426533D01*
X180943510Y-63407922D01*
X180926195Y-63375528D01*
X180923836Y-63369833D01*
X180923834Y-63369829D01*
X180919990Y-63360547D01*
X180917630Y-63354849D01*
X180906966Y-63319696D01*
X180902600Y-63297747D01*
X180898698Y-63258130D01*
X180898148Y-63246936D01*
X180898148Y-61553064D01*
X180898698Y-61541870D01*
X180902600Y-61502253D01*
X180906966Y-61480304D01*
X180917630Y-61445151D01*
X180919990Y-61439453D01*
X180923834Y-61430171D01*
X180923836Y-61430167D01*
X180926195Y-61424472D01*
X180943510Y-61392078D01*
X180955946Y-61373467D01*
X180979247Y-61345074D01*
X180995074Y-61329247D01*
X181023467Y-61305946D01*
X181042078Y-61293510D01*
X181074472Y-61276195D01*
X181080167Y-61273836D01*
X181080171Y-61273834D01*
X181089453Y-61269990D01*
X181095151Y-61267630D01*
X181130304Y-61256966D01*
X181152253Y-61252600D01*
X181191870Y-61248698D01*
X181203064Y-61248148D01*
X182396936Y-61248148D01*
X182408130Y-61248698D01*
X182447747Y-61252600D01*
X182469696Y-61256966D01*
X182504849Y-61267630D01*
X182510547Y-61269990D01*
X182519829Y-61273834D01*
X182519833Y-61273836D01*
X182525528Y-61276195D01*
X182557922Y-61293510D01*
X182576533Y-61305946D01*
X182604926Y-61329247D01*
X182620753Y-61345074D01*
X182644054Y-61373467D01*
X182656490Y-61392078D01*
X182673805Y-61424472D01*
X182676164Y-61430167D01*
X182676166Y-61430171D01*
X182680010Y-61439453D01*
X182682370Y-61445151D01*
X182693034Y-61480304D01*
X182697400Y-61502253D01*
X182701302Y-61541870D01*
X182701852Y-61553064D01*
X182701852Y-62846936D01*
X182701302Y-62858130D01*
X182697399Y-62897750D01*
X182692961Y-62920065D01*
X182690559Y-62944452D01*
X182692961Y-62968838D01*
X182700075Y-62992287D01*
X182711626Y-63013898D01*
X182727172Y-63032839D01*
X182746114Y-63048385D01*
X182767725Y-63059936D01*
X182791174Y-63067048D01*
X182815561Y-63069450D01*
X182839945Y-63067048D01*
X182980956Y-63039000D01*
X183119044Y-63039000D01*
X183254472Y-63065938D01*
X183273536Y-63073834D01*
X183296986Y-63080947D01*
X183321372Y-63083348D01*
X183345758Y-63080946D01*
X183369207Y-63073832D01*
X183390818Y-63062281D01*
X183409760Y-63046735D01*
X183425305Y-63027793D01*
X183436856Y-63006182D01*
X183443969Y-62982732D01*
X183446370Y-62958346D01*
X183440989Y-62922070D01*
X183412037Y-62826627D01*
X183401698Y-62721653D01*
X183399000Y-62694260D01*
X183399000Y-62105741D01*
X183412037Y-61973376D01*
X183412037Y-61973374D01*
X183463557Y-61803535D01*
X183463557Y-61803534D01*
X183547221Y-61647011D01*
X183659814Y-61509814D01*
X183763805Y-61424472D01*
X183797009Y-61397222D01*
X183894570Y-61345074D01*
X183953533Y-61313557D01*
X184019620Y-61293510D01*
X184123373Y-61262037D01*
X184300000Y-61244641D01*
X184476626Y-61262037D01*
X184476626Y-61262037D01*
G37*
G36*
X202275256Y-60991298D02*
X202381579Y-61012447D01*
X202519305Y-61069495D01*
X202617052Y-61109983D01*
X202682042Y-61136903D01*
X202861728Y-61256966D01*
X202952454Y-61317587D01*
X203182413Y-61547546D01*
X203182415Y-61547549D01*
X203363097Y-61817958D01*
X203482302Y-62105743D01*
X203487553Y-62118422D01*
X203551000Y-62437389D01*
X203551000Y-62762611D01*
X203533617Y-62850000D01*
X203487553Y-63081579D01*
X203363097Y-63382042D01*
X203213702Y-63605627D01*
X203182413Y-63652454D01*
X202952454Y-63882413D01*
X202952451Y-63882415D01*
X202682042Y-64063097D01*
X202682041Y-64063098D01*
X202682040Y-64063098D01*
X202660430Y-64072049D01*
X202381579Y-64187553D01*
X202327801Y-64198250D01*
X202062611Y-64251000D01*
X201737389Y-64251000D01*
X201472199Y-64198250D01*
X201418421Y-64187553D01*
X201139570Y-64072049D01*
X201117960Y-64063098D01*
X201117959Y-64063098D01*
X201117958Y-64063097D01*
X200847549Y-63882415D01*
X200847546Y-63882413D01*
X200617587Y-63652454D01*
X200586298Y-63605627D01*
X200436903Y-63382042D01*
X200312447Y-63081579D01*
X200266383Y-62850000D01*
X200249000Y-62762611D01*
X200249000Y-62437389D01*
X200312447Y-62118422D01*
X200317699Y-62105743D01*
X200436903Y-61817958D01*
X200617585Y-61547549D01*
X200617587Y-61547546D01*
X200847546Y-61317587D01*
X200938272Y-61256966D01*
X201117958Y-61136903D01*
X201182949Y-61109983D01*
X201280695Y-61069495D01*
X201418421Y-61012447D01*
X201524744Y-60991298D01*
X201737389Y-60949000D01*
X202062611Y-60949000D01*
X202275256Y-60991298D01*
X202275256Y-60991298D01*
G37*
G36*
X128475256Y-60991298D02*
X128581579Y-61012447D01*
X128719305Y-61069495D01*
X128817052Y-61109983D01*
X128882042Y-61136903D01*
X129061728Y-61256966D01*
X129152454Y-61317587D01*
X129382413Y-61547546D01*
X129382415Y-61547549D01*
X129563097Y-61817958D01*
X129682302Y-62105743D01*
X129687553Y-62118422D01*
X129751000Y-62437389D01*
X129751000Y-62762611D01*
X129733617Y-62850000D01*
X129687553Y-63081579D01*
X129563097Y-63382042D01*
X129413702Y-63605627D01*
X129382413Y-63652454D01*
X129152454Y-63882413D01*
X129152451Y-63882415D01*
X128882042Y-64063097D01*
X128882041Y-64063098D01*
X128882040Y-64063098D01*
X128860430Y-64072049D01*
X128581579Y-64187553D01*
X128527801Y-64198250D01*
X128262611Y-64251000D01*
X127937389Y-64251000D01*
X127672199Y-64198250D01*
X127618421Y-64187553D01*
X127339570Y-64072049D01*
X127317960Y-64063098D01*
X127317959Y-64063098D01*
X127317958Y-64063097D01*
X127047549Y-63882415D01*
X127047546Y-63882413D01*
X126817587Y-63652454D01*
X126786298Y-63605627D01*
X126636903Y-63382042D01*
X126512447Y-63081579D01*
X126466383Y-62850000D01*
X126449000Y-62762611D01*
X126449000Y-62437389D01*
X126512447Y-62118422D01*
X126517699Y-62105743D01*
X126636903Y-61817958D01*
X126817585Y-61547549D01*
X126817587Y-61547546D01*
X127047546Y-61317587D01*
X127138272Y-61256966D01*
X127317958Y-61136903D01*
X127382949Y-61109983D01*
X127480695Y-61069495D01*
X127618421Y-61012447D01*
X127724744Y-60991298D01*
X127937389Y-60949000D01*
X128262611Y-60949000D01*
X128475256Y-60991298D01*
X128475256Y-60991298D01*
G37*
G36*
X186976626Y-61262037D02*
X187080379Y-61293510D01*
X187146466Y-61313557D01*
X187302989Y-61397221D01*
X187440186Y-61509814D01*
X187522725Y-61610389D01*
X187552778Y-61647009D01*
X187552779Y-61647011D01*
X187636443Y-61803533D01*
X187640819Y-61817960D01*
X187687963Y-61973373D01*
X187687963Y-61973375D01*
X187701000Y-62105740D01*
X187701000Y-62694259D01*
X187698302Y-62721653D01*
X187687963Y-62826627D01*
X187636443Y-62996466D01*
X187552778Y-63152991D01*
X187530405Y-63180252D01*
X187440186Y-63290186D01*
X187353678Y-63361180D01*
X187302991Y-63402778D01*
X187302039Y-63403287D01*
X187146467Y-63486443D01*
X187096187Y-63501695D01*
X186976627Y-63537963D01*
X186800000Y-63555359D01*
X186623374Y-63537963D01*
X186503814Y-63501695D01*
X186453534Y-63486443D01*
X186297962Y-63403287D01*
X186297010Y-63402778D01*
X186246323Y-63361180D01*
X186159815Y-63290186D01*
X186069596Y-63180252D01*
X186047223Y-63152991D01*
X186029590Y-63120002D01*
X185963557Y-62996467D01*
X185940381Y-62920065D01*
X185912037Y-62826627D01*
X185901698Y-62721653D01*
X185899000Y-62694260D01*
X185899000Y-62105741D01*
X185912037Y-61973376D01*
X185912037Y-61973374D01*
X185963557Y-61803535D01*
X185963557Y-61803534D01*
X186047221Y-61647011D01*
X186159814Y-61509814D01*
X186263805Y-61424472D01*
X186297009Y-61397222D01*
X186394570Y-61345074D01*
X186453533Y-61313557D01*
X186519620Y-61293510D01*
X186623373Y-61262037D01*
X186800000Y-61244641D01*
X186976626Y-61262037D01*
X186976626Y-61262037D01*
G37*
G36*
X192269999Y-61579737D02*
X192279611Y-61582653D01*
X192288469Y-61587388D01*
X192288471Y-61587390D01*
X192296237Y-61593763D01*
X192302640Y-61601573D01*
X192302673Y-61601622D01*
X192310484Y-61611150D01*
X192310514Y-61611125D01*
X192321857Y-61624974D01*
X192340783Y-61640538D01*
X192362382Y-61652111D01*
X192385824Y-61659248D01*
X192410208Y-61661674D01*
X192434597Y-61659296D01*
X192458053Y-61652207D01*
X192479676Y-61640677D01*
X192498633Y-61625150D01*
X192509324Y-61610766D01*
X192509600Y-61610993D01*
X192517416Y-61601489D01*
X192517419Y-61601484D01*
X192523801Y-61593725D01*
X192523805Y-61593721D01*
X192531572Y-61587360D01*
X192540399Y-61582654D01*
X192540438Y-61582633D01*
X192540440Y-61582632D01*
X192550082Y-61579718D01*
X192566112Y-61578148D01*
X193703860Y-61578148D01*
X193719999Y-61579737D01*
X193729611Y-61582653D01*
X193738469Y-61587388D01*
X193746237Y-61593763D01*
X193752612Y-61601531D01*
X193757347Y-61610389D01*
X193760263Y-61620001D01*
X193761852Y-61636140D01*
X193761852Y-63123860D01*
X193760263Y-63139999D01*
X193757347Y-63149611D01*
X193752612Y-63158469D01*
X193746237Y-63166237D01*
X193738469Y-63172612D01*
X193729611Y-63177347D01*
X193719999Y-63180263D01*
X193703860Y-63181852D01*
X192566140Y-63181852D01*
X192550001Y-63180263D01*
X192540389Y-63177347D01*
X192531531Y-63172612D01*
X192523763Y-63166237D01*
X192513116Y-63153264D01*
X192506954Y-63144041D01*
X192489627Y-63126713D01*
X192469253Y-63113099D01*
X192446614Y-63103721D01*
X192422581Y-63098939D01*
X192398077Y-63098939D01*
X192374043Y-63103718D01*
X192351404Y-63113095D01*
X192331029Y-63126708D01*
X192313701Y-63144035D01*
X192306817Y-63153327D01*
X192296279Y-63166195D01*
X192296275Y-63166199D01*
X192288516Y-63172581D01*
X192279661Y-63177326D01*
X192270050Y-63180252D01*
X192260000Y-63181247D01*
X192259934Y-63181247D01*
X192253825Y-63181852D01*
X191266140Y-63181852D01*
X191250001Y-63180263D01*
X191240389Y-63177347D01*
X191231531Y-63172612D01*
X191223763Y-63166237D01*
X191217388Y-63158469D01*
X191212653Y-63149611D01*
X191209737Y-63139999D01*
X191208148Y-63123860D01*
X191208148Y-61636140D01*
X191209737Y-61620001D01*
X191212653Y-61610389D01*
X191217388Y-61601531D01*
X191223763Y-61593763D01*
X191231531Y-61587388D01*
X191240389Y-61582653D01*
X191250001Y-61579737D01*
X191266140Y-61578148D01*
X192253860Y-61578148D01*
X192269999Y-61579737D01*
X192269999Y-61579737D01*
G37*
G36*
X158118604Y-60878347D02*
X158155145Y-60889432D01*
X158188820Y-60907431D01*
X158218341Y-60931659D01*
X158242569Y-60961180D01*
X158260568Y-60994855D01*
X158271653Y-61031396D01*
X158276000Y-61075538D01*
X158276000Y-62524462D01*
X158271653Y-62568604D01*
X158260568Y-62605145D01*
X158242569Y-62638820D01*
X158218341Y-62668341D01*
X158188820Y-62692569D01*
X158155145Y-62710568D01*
X158118604Y-62721653D01*
X158074462Y-62726000D01*
X157125538Y-62726000D01*
X157081396Y-62721653D01*
X157044855Y-62710568D01*
X157011180Y-62692569D01*
X156981659Y-62668341D01*
X156957431Y-62638820D01*
X156939432Y-62605145D01*
X156928347Y-62568604D01*
X156924000Y-62524462D01*
X156924000Y-61075538D01*
X156928347Y-61031396D01*
X156939432Y-60994855D01*
X156957431Y-60961180D01*
X156981659Y-60931659D01*
X157011180Y-60907431D01*
X157044855Y-60889432D01*
X157081396Y-60878347D01*
X157125538Y-60874000D01*
X158074462Y-60874000D01*
X158118604Y-60878347D01*
X158118604Y-60878347D01*
G37*
G36*
X160918604Y-60878347D02*
X160955145Y-60889432D01*
X160988820Y-60907431D01*
X161018341Y-60931659D01*
X161042569Y-60961180D01*
X161060568Y-60994855D01*
X161071653Y-61031396D01*
X161076000Y-61075538D01*
X161076000Y-62524462D01*
X161071653Y-62568604D01*
X161060568Y-62605145D01*
X161042569Y-62638820D01*
X161018341Y-62668341D01*
X160988820Y-62692569D01*
X160955145Y-62710568D01*
X160918604Y-62721653D01*
X160874462Y-62726000D01*
X159925538Y-62726000D01*
X159881396Y-62721653D01*
X159844855Y-62710568D01*
X159811180Y-62692569D01*
X159781659Y-62668341D01*
X159757431Y-62638820D01*
X159739432Y-62605145D01*
X159728347Y-62568604D01*
X159724000Y-62524462D01*
X159724000Y-61075538D01*
X159728347Y-61031396D01*
X159739432Y-60994855D01*
X159757431Y-60961180D01*
X159781659Y-60931659D01*
X159811180Y-60907431D01*
X159844855Y-60889432D01*
X159881396Y-60878347D01*
X159925538Y-60874000D01*
X160874462Y-60874000D01*
X160918604Y-60878347D01*
X160918604Y-60878347D01*
G37*
G36*
X170071966Y-61053565D02*
X170110637Y-61065296D01*
X170146279Y-61084348D01*
X170177517Y-61109983D01*
X170203152Y-61141221D01*
X170222204Y-61176863D01*
X170233935Y-61215534D01*
X170238500Y-61261888D01*
X170238500Y-62338112D01*
X170233935Y-62384466D01*
X170222204Y-62423137D01*
X170203152Y-62458779D01*
X170177517Y-62490017D01*
X170146279Y-62515652D01*
X170110637Y-62534704D01*
X170071966Y-62546435D01*
X170025612Y-62551000D01*
X169374388Y-62551000D01*
X169328034Y-62546435D01*
X169289363Y-62534704D01*
X169253721Y-62515652D01*
X169222483Y-62490017D01*
X169196848Y-62458779D01*
X169177796Y-62423137D01*
X169166065Y-62384466D01*
X169161500Y-62338112D01*
X169161500Y-61261888D01*
X169166065Y-61215534D01*
X169177796Y-61176863D01*
X169196848Y-61141221D01*
X169222483Y-61109983D01*
X169253721Y-61084348D01*
X169289363Y-61065296D01*
X169328034Y-61053565D01*
X169374388Y-61049000D01*
X170025612Y-61049000D01*
X170071966Y-61053565D01*
X170071966Y-61053565D01*
G37*
G36*
X168196966Y-61053565D02*
X168235637Y-61065296D01*
X168271279Y-61084348D01*
X168302517Y-61109983D01*
X168328152Y-61141221D01*
X168347204Y-61176863D01*
X168358935Y-61215534D01*
X168363500Y-61261888D01*
X168363500Y-62338112D01*
X168358935Y-62384466D01*
X168347204Y-62423137D01*
X168328152Y-62458779D01*
X168302517Y-62490017D01*
X168271279Y-62515652D01*
X168235637Y-62534704D01*
X168196966Y-62546435D01*
X168150612Y-62551000D01*
X167499388Y-62551000D01*
X167453034Y-62546435D01*
X167414363Y-62534704D01*
X167378721Y-62515652D01*
X167347483Y-62490017D01*
X167321848Y-62458779D01*
X167302796Y-62423137D01*
X167291065Y-62384466D01*
X167286500Y-62338112D01*
X167286500Y-61261888D01*
X167291065Y-61215534D01*
X167302796Y-61176863D01*
X167321848Y-61141221D01*
X167347483Y-61109983D01*
X167378721Y-61084348D01*
X167414363Y-61065296D01*
X167453034Y-61053565D01*
X167499388Y-61049000D01*
X168150612Y-61049000D01*
X168196966Y-61053565D01*
X168196966Y-61053565D01*
G37*
G36*
X154096966Y-61053565D02*
X154135637Y-61065296D01*
X154171279Y-61084348D01*
X154202517Y-61109983D01*
X154228152Y-61141221D01*
X154247204Y-61176863D01*
X154258935Y-61215534D01*
X154263500Y-61261888D01*
X154263500Y-62338112D01*
X154258935Y-62384466D01*
X154247204Y-62423137D01*
X154228152Y-62458779D01*
X154202517Y-62490017D01*
X154171279Y-62515652D01*
X154135637Y-62534704D01*
X154096966Y-62546435D01*
X154050612Y-62551000D01*
X153399388Y-62551000D01*
X153353034Y-62546435D01*
X153314363Y-62534704D01*
X153278721Y-62515652D01*
X153247483Y-62490017D01*
X153221848Y-62458779D01*
X153202796Y-62423137D01*
X153191065Y-62384466D01*
X153186500Y-62338112D01*
X153186500Y-61261888D01*
X153191065Y-61215534D01*
X153202796Y-61176863D01*
X153221848Y-61141221D01*
X153247483Y-61109983D01*
X153278721Y-61084348D01*
X153314363Y-61065296D01*
X153353034Y-61053565D01*
X153399388Y-61049000D01*
X154050612Y-61049000D01*
X154096966Y-61053565D01*
X154096966Y-61053565D01*
G37*
G36*
X155971966Y-61053565D02*
X156010637Y-61065296D01*
X156046279Y-61084348D01*
X156077517Y-61109983D01*
X156103152Y-61141221D01*
X156122204Y-61176863D01*
X156133935Y-61215534D01*
X156138500Y-61261888D01*
X156138500Y-62338112D01*
X156133935Y-62384466D01*
X156122204Y-62423137D01*
X156103152Y-62458779D01*
X156077517Y-62490017D01*
X156046279Y-62515652D01*
X156010637Y-62534704D01*
X155971966Y-62546435D01*
X155925612Y-62551000D01*
X155274388Y-62551000D01*
X155228034Y-62546435D01*
X155189363Y-62534704D01*
X155153721Y-62515652D01*
X155122483Y-62490017D01*
X155096848Y-62458779D01*
X155077796Y-62423137D01*
X155066065Y-62384466D01*
X155061500Y-62338112D01*
X155061500Y-61261888D01*
X155066065Y-61215534D01*
X155077796Y-61176863D01*
X155096848Y-61141221D01*
X155122483Y-61109983D01*
X155153721Y-61084348D01*
X155189363Y-61065296D01*
X155228034Y-61053565D01*
X155274388Y-61049000D01*
X155925612Y-61049000D01*
X155971966Y-61053565D01*
X155971966Y-61053565D01*
G37*
G36*
X171871966Y-61053565D02*
X171910637Y-61065296D01*
X171946279Y-61084348D01*
X171977517Y-61109983D01*
X172003152Y-61141221D01*
X172022204Y-61176863D01*
X172033935Y-61215534D01*
X172038500Y-61261888D01*
X172038500Y-62338112D01*
X172033935Y-62384466D01*
X172022204Y-62423137D01*
X172003152Y-62458779D01*
X171977517Y-62490017D01*
X171946279Y-62515652D01*
X171910637Y-62534704D01*
X171871966Y-62546435D01*
X171825612Y-62551000D01*
X171174388Y-62551000D01*
X171128034Y-62546435D01*
X171089363Y-62534704D01*
X171053721Y-62515652D01*
X171022483Y-62490017D01*
X170996848Y-62458779D01*
X170977796Y-62423137D01*
X170966065Y-62384466D01*
X170961500Y-62338112D01*
X170961500Y-61261888D01*
X170966065Y-61215534D01*
X170977796Y-61176863D01*
X170996848Y-61141221D01*
X171022483Y-61109983D01*
X171053721Y-61084348D01*
X171089363Y-61065296D01*
X171128034Y-61053565D01*
X171174388Y-61049000D01*
X171825612Y-61049000D01*
X171871966Y-61053565D01*
X171871966Y-61053565D01*
G37*
G36*
X173746966Y-61053565D02*
X173785637Y-61065296D01*
X173821279Y-61084348D01*
X173852517Y-61109983D01*
X173878152Y-61141221D01*
X173897204Y-61176863D01*
X173908935Y-61215534D01*
X173913500Y-61261888D01*
X173913500Y-62338112D01*
X173908935Y-62384466D01*
X173897204Y-62423137D01*
X173878152Y-62458779D01*
X173852517Y-62490017D01*
X173821279Y-62515652D01*
X173785637Y-62534704D01*
X173746966Y-62546435D01*
X173700612Y-62551000D01*
X173049388Y-62551000D01*
X173003034Y-62546435D01*
X172964363Y-62534704D01*
X172928721Y-62515652D01*
X172897483Y-62490017D01*
X172871848Y-62458779D01*
X172852796Y-62423137D01*
X172841065Y-62384466D01*
X172836500Y-62338112D01*
X172836500Y-61261888D01*
X172841065Y-61215534D01*
X172852796Y-61176863D01*
X172871848Y-61141221D01*
X172897483Y-61109983D01*
X172928721Y-61084348D01*
X172964363Y-61065296D01*
X173003034Y-61053565D01*
X173049388Y-61049000D01*
X173700612Y-61049000D01*
X173746966Y-61053565D01*
X173746966Y-61053565D01*
G37*
M02*
