M48
METRIC,TZ
T1C0.300
T2C0.400
T3C1.000
T4C1.016
T5C1.200
T6C1.300
T7C1.300
T8C2.700
T9C3.200
%
G90
G05
T1
X139450Y-103125
X139450Y-104325
X140550Y-103125
X140550Y-104325
X141850Y-103125
X141850Y-104325
X143050Y-103125
X143050Y-104325
X138955Y-85277
X138955Y-86477
X140055Y-85277
X140055Y-86477
X141355Y-85277
X141355Y-86477
X142555Y-85277
X142555Y-86477
T2
X128573Y-89384
X129600Y-89600
X130320Y-77470
X132400Y-91500
X132500Y-78500
X133600Y-85000
X137185Y-86190
X138575Y-103725
X143830Y-89120
X144550Y-106160
X147960Y-83190
X148170Y-100870
X159850Y-71700
X161050Y-69400
X164500Y-62350
X165700Y-66500
X166467Y-61666
X168900Y-77000
X170550Y-65300
X172300Y-68800
X172600Y-76600
X172800Y-91200
X173700Y-83675
X174700Y-61800
X175300Y-91200
X175400Y-83500
X176100Y-80900
X176700Y-73500
X177200Y-101000
X177400Y-80600
X178500Y-94200
X179500Y-69200
X180700Y-66450
X182200Y-82700
X184800Y-88400
X184900Y-73900
X185000Y-66700
X185400Y-94900
X187200Y-81500
X190200Y-69300
X196500Y-83200
T3
X194290Y-68950
X194290Y-71490
X194290Y-74030
X194290Y-76570
X194290Y-79110
T4
X199810Y-72765
X199810Y-75305
X199810Y-77845
X199810Y-80385
X199810Y-82925
X202350Y-72765
X202350Y-75305
X202350Y-77845
X202350Y-80385
X202350Y-82925
T5
X178500Y-114200
X182000Y-114200
X185500Y-114200
X189000Y-114200
X202050Y-91825
X202050Y-95325
X138330Y-64350
X141830Y-64350
X145330Y-64350
X148830Y-64350
X181800Y-62400
X184300Y-62400
X186800Y-62400
X202000Y-103325
X202000Y-106825
T6
X127460Y-73240
X149960Y-73240
T7
X183050Y-63740
T8
X138710Y-73240
T9
X128100Y-115400
X201900Y-115400
X201900Y-62600
X128100Y-62600
T0
M30
