G04 #@! TF.GenerationSoftware,KiCad,Pcbnew,5.0.1*
G04 #@! TF.CreationDate,2018-10-18T17:53:42+02:00*
G04 #@! TF.ProjectId,ecu,6563752E6B696361645F706362000000,0.1*
G04 #@! TF.SameCoordinates,Original*
G04 #@! TF.FileFunction,Soldermask,Bot*
G04 #@! TF.FilePolarity,Negative*
%FSLAX46Y46*%
G04 Gerber Fmt 4.6, Leading zero omitted, Abs format (unit mm)*
G04 Created by KiCad (PCBNEW 5.0.1) date Čt 18. října 2018, 17:53:42 CEST*
%MOMM*%
%LPD*%
G01*
G04 APERTURE LIST*
%ADD10C,0.100000*%
G04 APERTURE END LIST*
D10*
G36*
X75304122Y-92711115D02*
X75420041Y-92734173D01*
X75637776Y-92824362D01*
X75702767Y-92851282D01*
X75747620Y-92869861D01*
X75925461Y-92988691D01*
X76042436Y-93066851D01*
X76293149Y-93317564D01*
X76293151Y-93317567D01*
X76483459Y-93602382D01*
X76490140Y-93612382D01*
X76514417Y-93670992D01*
X76621685Y-93929959D01*
X76625827Y-93939960D01*
X76695000Y-94287714D01*
X76695000Y-94642286D01*
X76656964Y-94833503D01*
X76625827Y-94990041D01*
X76598655Y-95055639D01*
X76491605Y-95314082D01*
X76490139Y-95317620D01*
X76328315Y-95559807D01*
X76293149Y-95612436D01*
X76042436Y-95863149D01*
X76042433Y-95863151D01*
X75747620Y-96060139D01*
X75420041Y-96195827D01*
X75304122Y-96218885D01*
X75072286Y-96265000D01*
X74717714Y-96265000D01*
X74485878Y-96218885D01*
X74369959Y-96195827D01*
X74042380Y-96060139D01*
X73747567Y-95863151D01*
X73747564Y-95863149D01*
X73496851Y-95612436D01*
X73461685Y-95559807D01*
X73299861Y-95317620D01*
X73298396Y-95314082D01*
X73191345Y-95055639D01*
X73164173Y-94990041D01*
X73133036Y-94833503D01*
X73095000Y-94642286D01*
X73095000Y-94287714D01*
X73164173Y-93939960D01*
X73168316Y-93929959D01*
X73275583Y-93670992D01*
X73299860Y-93612382D01*
X73306542Y-93602382D01*
X73496849Y-93317567D01*
X73496851Y-93317564D01*
X73747564Y-93066851D01*
X73864539Y-92988691D01*
X74042380Y-92869861D01*
X74087234Y-92851282D01*
X74152224Y-92824362D01*
X74369959Y-92734173D01*
X74485878Y-92711115D01*
X74717714Y-92665000D01*
X75072286Y-92665000D01*
X75304122Y-92711115D01*
X75304122Y-92711115D01*
G37*
G36*
X210304122Y-92701115D02*
X210420041Y-92724173D01*
X210651674Y-92820119D01*
X210734036Y-92854234D01*
X210747620Y-92859861D01*
X210959919Y-93001715D01*
X211042436Y-93056851D01*
X211293149Y-93307564D01*
X211293151Y-93307567D01*
X211473040Y-93576789D01*
X211490140Y-93602382D01*
X211497950Y-93621237D01*
X211625827Y-93929959D01*
X211645972Y-94031236D01*
X211695000Y-94277714D01*
X211695000Y-94632286D01*
X211675397Y-94730834D01*
X211625827Y-94980041D01*
X211490139Y-95307620D01*
X211322910Y-95557895D01*
X211293149Y-95602436D01*
X211042436Y-95853149D01*
X211042433Y-95853151D01*
X210747620Y-96050139D01*
X210420041Y-96185827D01*
X210369767Y-96195827D01*
X210072286Y-96255000D01*
X209717714Y-96255000D01*
X209420233Y-96195827D01*
X209369959Y-96185827D01*
X209042380Y-96050139D01*
X208747567Y-95853151D01*
X208747564Y-95853149D01*
X208496851Y-95602436D01*
X208467090Y-95557895D01*
X208299861Y-95307620D01*
X208164173Y-94980041D01*
X208114603Y-94730834D01*
X208095000Y-94632286D01*
X208095000Y-94277714D01*
X208144028Y-94031236D01*
X208164173Y-93929959D01*
X208292050Y-93621237D01*
X208299860Y-93602382D01*
X208316961Y-93576789D01*
X208496849Y-93307567D01*
X208496851Y-93307564D01*
X208747564Y-93056851D01*
X208830081Y-93001715D01*
X209042380Y-92859861D01*
X209055965Y-92854234D01*
X209138326Y-92820119D01*
X209369959Y-92724173D01*
X209485878Y-92701115D01*
X209717714Y-92655000D01*
X210072286Y-92655000D01*
X210304122Y-92701115D01*
X210304122Y-92701115D01*
G37*
G36*
X111445638Y-91955916D02*
X111652985Y-92018815D01*
X111652987Y-92018816D01*
X111844084Y-92120958D01*
X112011581Y-92258419D01*
X112149042Y-92425916D01*
X112205944Y-92532374D01*
X112251185Y-92617014D01*
X112314084Y-92824361D01*
X112330000Y-92985962D01*
X112330000Y-94894038D01*
X112314084Y-95055639D01*
X112258718Y-95238155D01*
X112251184Y-95262988D01*
X112149042Y-95454084D01*
X112011581Y-95621581D01*
X111844084Y-95759042D01*
X111668017Y-95853151D01*
X111652986Y-95861185D01*
X111445639Y-95924084D01*
X111230000Y-95945322D01*
X111014362Y-95924084D01*
X110807015Y-95861185D01*
X110791984Y-95853151D01*
X110615917Y-95759042D01*
X110448420Y-95621581D01*
X110310959Y-95454084D01*
X110208817Y-95262988D01*
X110201284Y-95238155D01*
X110145917Y-95055639D01*
X110130000Y-94894037D01*
X110130000Y-92985963D01*
X110145916Y-92824362D01*
X110208815Y-92617015D01*
X110208817Y-92617012D01*
X110310958Y-92425916D01*
X110448419Y-92258419D01*
X110615916Y-92120958D01*
X110807012Y-92018816D01*
X110807014Y-92018815D01*
X111014361Y-91955916D01*
X111230000Y-91934678D01*
X111445638Y-91955916D01*
X111445638Y-91955916D01*
G37*
G36*
X118445638Y-91955916D02*
X118652985Y-92018815D01*
X118652987Y-92018816D01*
X118844084Y-92120958D01*
X119011581Y-92258419D01*
X119149042Y-92425916D01*
X119205944Y-92532374D01*
X119251185Y-92617014D01*
X119314084Y-92824361D01*
X119330000Y-92985962D01*
X119330000Y-94894038D01*
X119314084Y-95055639D01*
X119258718Y-95238155D01*
X119251184Y-95262988D01*
X119149042Y-95454084D01*
X119011581Y-95621581D01*
X118844084Y-95759042D01*
X118668017Y-95853151D01*
X118652986Y-95861185D01*
X118445639Y-95924084D01*
X118230000Y-95945322D01*
X118014362Y-95924084D01*
X117807015Y-95861185D01*
X117791984Y-95853151D01*
X117615917Y-95759042D01*
X117448420Y-95621581D01*
X117310959Y-95454084D01*
X117208817Y-95262988D01*
X117201284Y-95238155D01*
X117145917Y-95055639D01*
X117130000Y-94894037D01*
X117130000Y-92985963D01*
X117145916Y-92824362D01*
X117208815Y-92617015D01*
X117208817Y-92617012D01*
X117310958Y-92425916D01*
X117448419Y-92258419D01*
X117615916Y-92120958D01*
X117807012Y-92018816D01*
X117807014Y-92018815D01*
X118014361Y-91955916D01*
X118230000Y-91934678D01*
X118445638Y-91955916D01*
X118445638Y-91955916D01*
G37*
G36*
X114945638Y-91955916D02*
X115152985Y-92018815D01*
X115152987Y-92018816D01*
X115344084Y-92120958D01*
X115511581Y-92258419D01*
X115649042Y-92425916D01*
X115705944Y-92532374D01*
X115751185Y-92617014D01*
X115814084Y-92824361D01*
X115830000Y-92985962D01*
X115830000Y-94894038D01*
X115814084Y-95055639D01*
X115758718Y-95238155D01*
X115751184Y-95262988D01*
X115649042Y-95454084D01*
X115511581Y-95621581D01*
X115344084Y-95759042D01*
X115168017Y-95853151D01*
X115152986Y-95861185D01*
X114945639Y-95924084D01*
X114730000Y-95945322D01*
X114514362Y-95924084D01*
X114307015Y-95861185D01*
X114291984Y-95853151D01*
X114115917Y-95759042D01*
X113948420Y-95621581D01*
X113810959Y-95454084D01*
X113708817Y-95262988D01*
X113701284Y-95238155D01*
X113645917Y-95055639D01*
X113630000Y-94894037D01*
X113630000Y-92985963D01*
X113645916Y-92824362D01*
X113708815Y-92617015D01*
X113708817Y-92617012D01*
X113810958Y-92425916D01*
X113948419Y-92258419D01*
X114115916Y-92120958D01*
X114307012Y-92018816D01*
X114307014Y-92018815D01*
X114514361Y-91955916D01*
X114730000Y-91934678D01*
X114945638Y-91955916D01*
X114945638Y-91955916D01*
G37*
G36*
X108656604Y-91944729D02*
X108696872Y-91956945D01*
X108733986Y-91976783D01*
X108766519Y-92003481D01*
X108793217Y-92036014D01*
X108813055Y-92073128D01*
X108825271Y-92113396D01*
X108830000Y-92161416D01*
X108830000Y-95718584D01*
X108825271Y-95766604D01*
X108813055Y-95806872D01*
X108793217Y-95843986D01*
X108766519Y-95876519D01*
X108733986Y-95903217D01*
X108696872Y-95923055D01*
X108656604Y-95935271D01*
X108608584Y-95940000D01*
X106851416Y-95940000D01*
X106803396Y-95935271D01*
X106763128Y-95923055D01*
X106726014Y-95903217D01*
X106693481Y-95876519D01*
X106666783Y-95843986D01*
X106646945Y-95806872D01*
X106634729Y-95766604D01*
X106630000Y-95718584D01*
X106630000Y-92161416D01*
X106634729Y-92113396D01*
X106646945Y-92073128D01*
X106666783Y-92036014D01*
X106693481Y-92003481D01*
X106726014Y-91976783D01*
X106763128Y-91956945D01*
X106803396Y-91944729D01*
X106851416Y-91940000D01*
X108608584Y-91940000D01*
X108656604Y-91944729D01*
X108656604Y-91944729D01*
G37*
G36*
X198840638Y-91815916D02*
X199047985Y-91878815D01*
X199047987Y-91878816D01*
X199239084Y-91980958D01*
X199406581Y-92118419D01*
X199544042Y-92285916D01*
X199635117Y-92456307D01*
X199646185Y-92477014D01*
X199709084Y-92684361D01*
X199725000Y-92845962D01*
X199725000Y-94754038D01*
X199709084Y-94915639D01*
X199649769Y-95111172D01*
X199646184Y-95122988D01*
X199544042Y-95314084D01*
X199406581Y-95481581D01*
X199239084Y-95619042D01*
X199098741Y-95694056D01*
X199047986Y-95721185D01*
X198840639Y-95784084D01*
X198625000Y-95805322D01*
X198409362Y-95784084D01*
X198202015Y-95721185D01*
X198151260Y-95694056D01*
X198010917Y-95619042D01*
X197843420Y-95481581D01*
X197705959Y-95314084D01*
X197603817Y-95122988D01*
X197600233Y-95111172D01*
X197540917Y-94915639D01*
X197525000Y-94754037D01*
X197525000Y-92845963D01*
X197540916Y-92684362D01*
X197603815Y-92477015D01*
X197603817Y-92477012D01*
X197705958Y-92285916D01*
X197843419Y-92118419D01*
X198010916Y-91980958D01*
X198202012Y-91878816D01*
X198202014Y-91878815D01*
X198409361Y-91815916D01*
X198625000Y-91794678D01*
X198840638Y-91815916D01*
X198840638Y-91815916D01*
G37*
G36*
X196051604Y-91804729D02*
X196091872Y-91816945D01*
X196128986Y-91836783D01*
X196161519Y-91863481D01*
X196188217Y-91896014D01*
X196208055Y-91933128D01*
X196220271Y-91973396D01*
X196225000Y-92021416D01*
X196225000Y-95578584D01*
X196220271Y-95626604D01*
X196208055Y-95666872D01*
X196188217Y-95703986D01*
X196161519Y-95736519D01*
X196128986Y-95763217D01*
X196091872Y-95783055D01*
X196051604Y-95795271D01*
X196003584Y-95800000D01*
X194246416Y-95800000D01*
X194198396Y-95795271D01*
X194158128Y-95783055D01*
X194121014Y-95763217D01*
X194088481Y-95736519D01*
X194061783Y-95703986D01*
X194041945Y-95666872D01*
X194029729Y-95626604D01*
X194025000Y-95578584D01*
X194025000Y-92021416D01*
X194029729Y-91973396D01*
X194041945Y-91933128D01*
X194061783Y-91896014D01*
X194088481Y-91863481D01*
X194121014Y-91836783D01*
X194158128Y-91816945D01*
X194198396Y-91804729D01*
X194246416Y-91800000D01*
X196003584Y-91800000D01*
X196051604Y-91804729D01*
X196051604Y-91804729D01*
G37*
G36*
X123697027Y-94285852D02*
X123838401Y-94328738D01*
X123968694Y-94398380D01*
X124082896Y-94492104D01*
X124176620Y-94606306D01*
X124246262Y-94736599D01*
X124289148Y-94877973D01*
X124303628Y-95025000D01*
X124289148Y-95172027D01*
X124246262Y-95313401D01*
X124176620Y-95443694D01*
X124082896Y-95557896D01*
X123968694Y-95651620D01*
X123838401Y-95721262D01*
X123697027Y-95764148D01*
X123586839Y-95775000D01*
X122813161Y-95775000D01*
X122702973Y-95764148D01*
X122561599Y-95721262D01*
X122431306Y-95651620D01*
X122317104Y-95557896D01*
X122223380Y-95443694D01*
X122153738Y-95313401D01*
X122110852Y-95172027D01*
X122096372Y-95025000D01*
X122110852Y-94877973D01*
X122153738Y-94736599D01*
X122223380Y-94606306D01*
X122317104Y-94492104D01*
X122431306Y-94398380D01*
X122561599Y-94328738D01*
X122702973Y-94285852D01*
X122813161Y-94275000D01*
X123586839Y-94275000D01*
X123697027Y-94285852D01*
X123697027Y-94285852D01*
G37*
G36*
X129297027Y-94285852D02*
X129438401Y-94328738D01*
X129568694Y-94398380D01*
X129682896Y-94492104D01*
X129776620Y-94606306D01*
X129846262Y-94736599D01*
X129889148Y-94877973D01*
X129903628Y-95025000D01*
X129889148Y-95172027D01*
X129846262Y-95313401D01*
X129776620Y-95443694D01*
X129682896Y-95557896D01*
X129568694Y-95651620D01*
X129438401Y-95721262D01*
X129297027Y-95764148D01*
X129186839Y-95775000D01*
X128413161Y-95775000D01*
X128302973Y-95764148D01*
X128161599Y-95721262D01*
X128031306Y-95651620D01*
X127917104Y-95557896D01*
X127823380Y-95443694D01*
X127753738Y-95313401D01*
X127710852Y-95172027D01*
X127696372Y-95025000D01*
X127710852Y-94877973D01*
X127753738Y-94736599D01*
X127823380Y-94606306D01*
X127917104Y-94492104D01*
X128031306Y-94398380D01*
X128161599Y-94328738D01*
X128302973Y-94285852D01*
X128413161Y-94275000D01*
X129186839Y-94275000D01*
X129297027Y-94285852D01*
X129297027Y-94285852D01*
G37*
G36*
X178873503Y-93576789D02*
X179073991Y-93637607D01*
X179258764Y-93736369D01*
X179420718Y-93869282D01*
X179553631Y-94031236D01*
X179652393Y-94216009D01*
X179713211Y-94416497D01*
X179733746Y-94625000D01*
X179713211Y-94833503D01*
X179652393Y-95033991D01*
X179553631Y-95218764D01*
X179420718Y-95380718D01*
X179258764Y-95513631D01*
X179073991Y-95612393D01*
X178873503Y-95673211D01*
X178717251Y-95688600D01*
X178612749Y-95688600D01*
X178456497Y-95673211D01*
X178256009Y-95612393D01*
X178071236Y-95513631D01*
X177909282Y-95380718D01*
X177776369Y-95218764D01*
X177677607Y-95033991D01*
X177616789Y-94833503D01*
X177596254Y-94625000D01*
X177616789Y-94416497D01*
X177677607Y-94216009D01*
X177776369Y-94031236D01*
X177909282Y-93869282D01*
X178071236Y-93736369D01*
X178256009Y-93637607D01*
X178456497Y-93576789D01*
X178612749Y-93561400D01*
X178717251Y-93561400D01*
X178873503Y-93576789D01*
X178873503Y-93576789D01*
G37*
G36*
X186493503Y-93576789D02*
X186693991Y-93637607D01*
X186878764Y-93736369D01*
X187040718Y-93869282D01*
X187173631Y-94031236D01*
X187272393Y-94216009D01*
X187333211Y-94416497D01*
X187353746Y-94625000D01*
X187333211Y-94833503D01*
X187272393Y-95033991D01*
X187173631Y-95218764D01*
X187040718Y-95380718D01*
X186878764Y-95513631D01*
X186693991Y-95612393D01*
X186493503Y-95673211D01*
X186337251Y-95688600D01*
X186232749Y-95688600D01*
X186076497Y-95673211D01*
X185876009Y-95612393D01*
X185691236Y-95513631D01*
X185529282Y-95380718D01*
X185396369Y-95218764D01*
X185297607Y-95033991D01*
X185236789Y-94833503D01*
X185216254Y-94625000D01*
X185236789Y-94416497D01*
X185297607Y-94216009D01*
X185396369Y-94031236D01*
X185529282Y-93869282D01*
X185691236Y-93736369D01*
X185876009Y-93637607D01*
X186076497Y-93576789D01*
X186232749Y-93561400D01*
X186337251Y-93561400D01*
X186493503Y-93576789D01*
X186493503Y-93576789D01*
G37*
G36*
X183953503Y-93576789D02*
X184153991Y-93637607D01*
X184338764Y-93736369D01*
X184500718Y-93869282D01*
X184633631Y-94031236D01*
X184732393Y-94216009D01*
X184793211Y-94416497D01*
X184813746Y-94625000D01*
X184793211Y-94833503D01*
X184732393Y-95033991D01*
X184633631Y-95218764D01*
X184500718Y-95380718D01*
X184338764Y-95513631D01*
X184153991Y-95612393D01*
X183953503Y-95673211D01*
X183797251Y-95688600D01*
X183692749Y-95688600D01*
X183536497Y-95673211D01*
X183336009Y-95612393D01*
X183151236Y-95513631D01*
X182989282Y-95380718D01*
X182856369Y-95218764D01*
X182757607Y-95033991D01*
X182696789Y-94833503D01*
X182676254Y-94625000D01*
X182696789Y-94416497D01*
X182757607Y-94216009D01*
X182856369Y-94031236D01*
X182989282Y-93869282D01*
X183151236Y-93736369D01*
X183336009Y-93637607D01*
X183536497Y-93576789D01*
X183692749Y-93561400D01*
X183797251Y-93561400D01*
X183953503Y-93576789D01*
X183953503Y-93576789D01*
G37*
G36*
X181413503Y-93576789D02*
X181613991Y-93637607D01*
X181798764Y-93736369D01*
X181960718Y-93869282D01*
X182093631Y-94031236D01*
X182192393Y-94216009D01*
X182253211Y-94416497D01*
X182273746Y-94625000D01*
X182253211Y-94833503D01*
X182192393Y-95033991D01*
X182093631Y-95218764D01*
X181960718Y-95380718D01*
X181798764Y-95513631D01*
X181613991Y-95612393D01*
X181413503Y-95673211D01*
X181257251Y-95688600D01*
X181152749Y-95688600D01*
X180996497Y-95673211D01*
X180796009Y-95612393D01*
X180611236Y-95513631D01*
X180449282Y-95380718D01*
X180316369Y-95218764D01*
X180217607Y-95033991D01*
X180156789Y-94833503D01*
X180136254Y-94625000D01*
X180156789Y-94416497D01*
X180217607Y-94216009D01*
X180316369Y-94031236D01*
X180449282Y-93869282D01*
X180611236Y-93736369D01*
X180796009Y-93637607D01*
X180996497Y-93576789D01*
X181152749Y-93561400D01*
X181257251Y-93561400D01*
X181413503Y-93576789D01*
X181413503Y-93576789D01*
G37*
G36*
X177188600Y-95688600D02*
X175061400Y-95688600D01*
X175061400Y-93561400D01*
X177188600Y-93561400D01*
X177188600Y-95688600D01*
X177188600Y-95688600D01*
G37*
G36*
X158380836Y-92990193D02*
X158485779Y-93022027D01*
X158578763Y-93050233D01*
X158761172Y-93147733D01*
X158860060Y-93228889D01*
X158921054Y-93278946D01*
X158952750Y-93317567D01*
X159052266Y-93438828D01*
X159149767Y-93621238D01*
X159149767Y-93621239D01*
X159209807Y-93819165D01*
X159214042Y-93862165D01*
X159225000Y-93973421D01*
X159225000Y-94576580D01*
X159219513Y-94632286D01*
X159209807Y-94730836D01*
X159178664Y-94833502D01*
X159149767Y-94928763D01*
X159052267Y-95111172D01*
X158953015Y-95232110D01*
X158921054Y-95271054D01*
X158761171Y-95402267D01*
X158664228Y-95454084D01*
X158578762Y-95499767D01*
X158512786Y-95519780D01*
X158380835Y-95559807D01*
X158175000Y-95580080D01*
X157969164Y-95559807D01*
X157837213Y-95519780D01*
X157771237Y-95499767D01*
X157588828Y-95402267D01*
X157428946Y-95271054D01*
X157422325Y-95262986D01*
X157297733Y-95111171D01*
X157200234Y-94928763D01*
X157200233Y-94928762D01*
X157147232Y-94754038D01*
X157140193Y-94730835D01*
X157125000Y-94576577D01*
X157125000Y-93973422D01*
X157140193Y-93819164D01*
X157185140Y-93670992D01*
X157200233Y-93621237D01*
X157297734Y-93438828D01*
X157428947Y-93278946D01*
X157588829Y-93147733D01*
X157771238Y-93050233D01*
X157864222Y-93022027D01*
X157969165Y-92990193D01*
X158175000Y-92969920D01*
X158380836Y-92990193D01*
X158380836Y-92990193D01*
G37*
G36*
X162172934Y-92117664D02*
X162327627Y-92181740D01*
X162466847Y-92274764D01*
X162585236Y-92393153D01*
X162678260Y-92532373D01*
X162742336Y-92687066D01*
X162775000Y-92851281D01*
X162775000Y-92854234D01*
X162777402Y-92878620D01*
X162784515Y-92902069D01*
X162796066Y-92923680D01*
X162811612Y-92942622D01*
X162830554Y-92958168D01*
X162852165Y-92969719D01*
X162875614Y-92976832D01*
X162900000Y-92979234D01*
X162912252Y-92978632D01*
X162952192Y-92974698D01*
X162978062Y-92973427D01*
X163771938Y-92973427D01*
X163797806Y-92974698D01*
X163837426Y-92978601D01*
X163888155Y-92988691D01*
X163923306Y-92999353D01*
X163971111Y-93019155D01*
X164003501Y-93036468D01*
X164046514Y-93065209D01*
X164074907Y-93088510D01*
X164111490Y-93125093D01*
X164134791Y-93153486D01*
X164163532Y-93196499D01*
X164180845Y-93228889D01*
X164200647Y-93276694D01*
X164211309Y-93311845D01*
X164221399Y-93362574D01*
X164225302Y-93402194D01*
X164226573Y-93428062D01*
X164226573Y-95121938D01*
X164225302Y-95147806D01*
X164221399Y-95187426D01*
X164211309Y-95238155D01*
X164200647Y-95273306D01*
X164180845Y-95321111D01*
X164163532Y-95353501D01*
X164134791Y-95396514D01*
X164111490Y-95424907D01*
X164074907Y-95461490D01*
X164046514Y-95484791D01*
X164003501Y-95513532D01*
X163971111Y-95530845D01*
X163923306Y-95550647D01*
X163888155Y-95561309D01*
X163837426Y-95571399D01*
X163797806Y-95575302D01*
X163771938Y-95576573D01*
X162578062Y-95576573D01*
X162552194Y-95575302D01*
X162512574Y-95571399D01*
X162461845Y-95561309D01*
X162426694Y-95550647D01*
X162378889Y-95530845D01*
X162346499Y-95513532D01*
X162303486Y-95484791D01*
X162275093Y-95461490D01*
X162238510Y-95424907D01*
X162215209Y-95396514D01*
X162186468Y-95353501D01*
X162169155Y-95321111D01*
X162149353Y-95273306D01*
X162138691Y-95238155D01*
X162128601Y-95187426D01*
X162124698Y-95147806D01*
X162123427Y-95121938D01*
X162123427Y-93910000D01*
X162121025Y-93885614D01*
X162113912Y-93862165D01*
X162102361Y-93840554D01*
X162086815Y-93821612D01*
X162067873Y-93806066D01*
X162046262Y-93794515D01*
X162022813Y-93787402D01*
X161998427Y-93785000D01*
X161844358Y-93785000D01*
X161819972Y-93787402D01*
X161796523Y-93794515D01*
X161774912Y-93806066D01*
X161755970Y-93821612D01*
X161740424Y-93840554D01*
X161728873Y-93862165D01*
X161721760Y-93885614D01*
X161719358Y-93910000D01*
X161719960Y-93922253D01*
X161725000Y-93973422D01*
X161725000Y-94576580D01*
X161719513Y-94632286D01*
X161709807Y-94730836D01*
X161678664Y-94833502D01*
X161649767Y-94928763D01*
X161552267Y-95111172D01*
X161453015Y-95232110D01*
X161421054Y-95271054D01*
X161261171Y-95402267D01*
X161164228Y-95454084D01*
X161078762Y-95499767D01*
X161012786Y-95519780D01*
X160880835Y-95559807D01*
X160675000Y-95580080D01*
X160469164Y-95559807D01*
X160337213Y-95519780D01*
X160271237Y-95499767D01*
X160088828Y-95402267D01*
X159928946Y-95271054D01*
X159922325Y-95262986D01*
X159797733Y-95111171D01*
X159700234Y-94928763D01*
X159700233Y-94928762D01*
X159647232Y-94754038D01*
X159640193Y-94730835D01*
X159625000Y-94576577D01*
X159625000Y-93973422D01*
X159640193Y-93819164D01*
X159685140Y-93670992D01*
X159700233Y-93621237D01*
X159797734Y-93438828D01*
X159928947Y-93278946D01*
X160088829Y-93147733D01*
X160271238Y-93050233D01*
X160364222Y-93022027D01*
X160469165Y-92990193D01*
X160675000Y-92969920D01*
X160880836Y-92990193D01*
X160913716Y-93000167D01*
X160937749Y-93004947D01*
X160962253Y-93004947D01*
X160986287Y-93000166D01*
X161008926Y-92990789D01*
X161029300Y-92977175D01*
X161046627Y-92959847D01*
X161060241Y-92939473D01*
X161069618Y-92916833D01*
X161075000Y-92880549D01*
X161075000Y-92851281D01*
X161107664Y-92687066D01*
X161171740Y-92532373D01*
X161264764Y-92393153D01*
X161383153Y-92274764D01*
X161522373Y-92181740D01*
X161677066Y-92117664D01*
X161841281Y-92085000D01*
X162008719Y-92085000D01*
X162172934Y-92117664D01*
X162172934Y-92117664D01*
G37*
G36*
X126697027Y-92135852D02*
X126838401Y-92178738D01*
X126968694Y-92248380D01*
X127082896Y-92342104D01*
X127176620Y-92456306D01*
X127246262Y-92586599D01*
X127289148Y-92727973D01*
X127303628Y-92875000D01*
X127289148Y-93022027D01*
X127246262Y-93163401D01*
X127176620Y-93293694D01*
X127082896Y-93407896D01*
X126968694Y-93501620D01*
X126838401Y-93571262D01*
X126697027Y-93614148D01*
X126586839Y-93625000D01*
X125413161Y-93625000D01*
X125302973Y-93614148D01*
X125161599Y-93571262D01*
X125031306Y-93501620D01*
X124917104Y-93407896D01*
X124823380Y-93293694D01*
X124753738Y-93163401D01*
X124710852Y-93022027D01*
X124696372Y-92875000D01*
X124710852Y-92727973D01*
X124753738Y-92586599D01*
X124823380Y-92456306D01*
X124917104Y-92342104D01*
X125031306Y-92248380D01*
X125161599Y-92178738D01*
X125302973Y-92135852D01*
X125413161Y-92125000D01*
X126586839Y-92125000D01*
X126697027Y-92135852D01*
X126697027Y-92135852D01*
G37*
G36*
X178873503Y-91036789D02*
X179073991Y-91097607D01*
X179258764Y-91196369D01*
X179420718Y-91329282D01*
X179553631Y-91491236D01*
X179652393Y-91676009D01*
X179713211Y-91876497D01*
X179733746Y-92085000D01*
X179713211Y-92293503D01*
X179652393Y-92493991D01*
X179553631Y-92678764D01*
X179420718Y-92840718D01*
X179258764Y-92973631D01*
X179073991Y-93072393D01*
X178873503Y-93133211D01*
X178717251Y-93148600D01*
X178612749Y-93148600D01*
X178456497Y-93133211D01*
X178256009Y-93072393D01*
X178071236Y-92973631D01*
X177909282Y-92840718D01*
X177776369Y-92678764D01*
X177677607Y-92493991D01*
X177616789Y-92293503D01*
X177596254Y-92085000D01*
X177616789Y-91876497D01*
X177677607Y-91676009D01*
X177776369Y-91491236D01*
X177909282Y-91329282D01*
X178071236Y-91196369D01*
X178256009Y-91097607D01*
X178456497Y-91036789D01*
X178612749Y-91021400D01*
X178717251Y-91021400D01*
X178873503Y-91036789D01*
X178873503Y-91036789D01*
G37*
G36*
X176333503Y-91036789D02*
X176533991Y-91097607D01*
X176718764Y-91196369D01*
X176880718Y-91329282D01*
X177013631Y-91491236D01*
X177112393Y-91676009D01*
X177173211Y-91876497D01*
X177193746Y-92085000D01*
X177173211Y-92293503D01*
X177112393Y-92493991D01*
X177013631Y-92678764D01*
X176880718Y-92840718D01*
X176718764Y-92973631D01*
X176533991Y-93072393D01*
X176333503Y-93133211D01*
X176177251Y-93148600D01*
X176072749Y-93148600D01*
X175916497Y-93133211D01*
X175716009Y-93072393D01*
X175531236Y-92973631D01*
X175369282Y-92840718D01*
X175236369Y-92678764D01*
X175137607Y-92493991D01*
X175076789Y-92293503D01*
X175056254Y-92085000D01*
X175076789Y-91876497D01*
X175137607Y-91676009D01*
X175236369Y-91491236D01*
X175369282Y-91329282D01*
X175531236Y-91196369D01*
X175716009Y-91097607D01*
X175916497Y-91036789D01*
X176072749Y-91021400D01*
X176177251Y-91021400D01*
X176333503Y-91036789D01*
X176333503Y-91036789D01*
G37*
G36*
X181413503Y-91036789D02*
X181613991Y-91097607D01*
X181798764Y-91196369D01*
X181960718Y-91329282D01*
X182093631Y-91491236D01*
X182192393Y-91676009D01*
X182253211Y-91876497D01*
X182273746Y-92085000D01*
X182253211Y-92293503D01*
X182192393Y-92493991D01*
X182093631Y-92678764D01*
X181960718Y-92840718D01*
X181798764Y-92973631D01*
X181613991Y-93072393D01*
X181413503Y-93133211D01*
X181257251Y-93148600D01*
X181152749Y-93148600D01*
X180996497Y-93133211D01*
X180796009Y-93072393D01*
X180611236Y-92973631D01*
X180449282Y-92840718D01*
X180316369Y-92678764D01*
X180217607Y-92493991D01*
X180156789Y-92293503D01*
X180136254Y-92085000D01*
X180156789Y-91876497D01*
X180217607Y-91676009D01*
X180316369Y-91491236D01*
X180449282Y-91329282D01*
X180611236Y-91196369D01*
X180796009Y-91097607D01*
X180996497Y-91036789D01*
X181152749Y-91021400D01*
X181257251Y-91021400D01*
X181413503Y-91036789D01*
X181413503Y-91036789D01*
G37*
G36*
X183953503Y-91036789D02*
X184153991Y-91097607D01*
X184338764Y-91196369D01*
X184500718Y-91329282D01*
X184633631Y-91491236D01*
X184732393Y-91676009D01*
X184793211Y-91876497D01*
X184813746Y-92085000D01*
X184793211Y-92293503D01*
X184732393Y-92493991D01*
X184633631Y-92678764D01*
X184500718Y-92840718D01*
X184338764Y-92973631D01*
X184153991Y-93072393D01*
X183953503Y-93133211D01*
X183797251Y-93148600D01*
X183692749Y-93148600D01*
X183536497Y-93133211D01*
X183336009Y-93072393D01*
X183151236Y-92973631D01*
X182989282Y-92840718D01*
X182856369Y-92678764D01*
X182757607Y-92493991D01*
X182696789Y-92293503D01*
X182676254Y-92085000D01*
X182696789Y-91876497D01*
X182757607Y-91676009D01*
X182856369Y-91491236D01*
X182989282Y-91329282D01*
X183151236Y-91196369D01*
X183336009Y-91097607D01*
X183536497Y-91036789D01*
X183692749Y-91021400D01*
X183797251Y-91021400D01*
X183953503Y-91036789D01*
X183953503Y-91036789D01*
G37*
G36*
X186493503Y-91036789D02*
X186693991Y-91097607D01*
X186878764Y-91196369D01*
X187040718Y-91329282D01*
X187173631Y-91491236D01*
X187272393Y-91676009D01*
X187333211Y-91876497D01*
X187353746Y-92085000D01*
X187333211Y-92293503D01*
X187272393Y-92493991D01*
X187173631Y-92678764D01*
X187040718Y-92840718D01*
X186878764Y-92973631D01*
X186693991Y-93072393D01*
X186493503Y-93133211D01*
X186337251Y-93148600D01*
X186232749Y-93148600D01*
X186076497Y-93133211D01*
X185876009Y-93072393D01*
X185691236Y-92973631D01*
X185529282Y-92840718D01*
X185396369Y-92678764D01*
X185297607Y-92493991D01*
X185236789Y-92293503D01*
X185216254Y-92085000D01*
X185236789Y-91876497D01*
X185297607Y-91676009D01*
X185396369Y-91491236D01*
X185529282Y-91329282D01*
X185691236Y-91196369D01*
X185876009Y-91097607D01*
X186076497Y-91036789D01*
X186232749Y-91021400D01*
X186337251Y-91021400D01*
X186493503Y-91036789D01*
X186493503Y-91036789D01*
G37*
G36*
X78040639Y-86640916D02*
X78247986Y-86703815D01*
X78247988Y-86703816D01*
X78439084Y-86805958D01*
X78606581Y-86943419D01*
X78744042Y-87110916D01*
X78837717Y-87286171D01*
X78846185Y-87302014D01*
X78909084Y-87509361D01*
X78909084Y-87509362D01*
X78930322Y-87725000D01*
X78909084Y-87940638D01*
X78846184Y-88147988D01*
X78744042Y-88339084D01*
X78606581Y-88506581D01*
X78439084Y-88644042D01*
X78247988Y-88746184D01*
X78247986Y-88746185D01*
X78040639Y-88809084D01*
X77879038Y-88825000D01*
X75970962Y-88825000D01*
X75809361Y-88809084D01*
X75602014Y-88746185D01*
X75602012Y-88746184D01*
X75410916Y-88644042D01*
X75243419Y-88506581D01*
X75105958Y-88339084D01*
X75003816Y-88147988D01*
X74940916Y-87940638D01*
X74919678Y-87725000D01*
X74940916Y-87509362D01*
X74940916Y-87509361D01*
X75003815Y-87302014D01*
X75012283Y-87286171D01*
X75105958Y-87110916D01*
X75243419Y-86943419D01*
X75410916Y-86805958D01*
X75602012Y-86703816D01*
X75602014Y-86703815D01*
X75809361Y-86640916D01*
X75970962Y-86625000D01*
X77879038Y-86625000D01*
X78040639Y-86640916D01*
X78040639Y-86640916D01*
G37*
G36*
X168850000Y-87775000D02*
X166750000Y-87775000D01*
X166750000Y-85675000D01*
X168850000Y-85675000D01*
X168850000Y-87775000D01*
X168850000Y-87775000D01*
G37*
G36*
X178088707Y-85682596D02*
X178165836Y-85690193D01*
X178281348Y-85725233D01*
X178363763Y-85750233D01*
X178546172Y-85847733D01*
X178706054Y-85978946D01*
X178837267Y-86138828D01*
X178934767Y-86321237D01*
X178934767Y-86321238D01*
X178994807Y-86519164D01*
X179015080Y-86725000D01*
X178994807Y-86930836D01*
X178954780Y-87062787D01*
X178934767Y-87128763D01*
X178837267Y-87311172D01*
X178706054Y-87471054D01*
X178546172Y-87602267D01*
X178363763Y-87699767D01*
X178297787Y-87719780D01*
X178165836Y-87759807D01*
X178088707Y-87767403D01*
X178011580Y-87775000D01*
X177908420Y-87775000D01*
X177831293Y-87767403D01*
X177754164Y-87759807D01*
X177622213Y-87719780D01*
X177556237Y-87699767D01*
X177373828Y-87602267D01*
X177213946Y-87471054D01*
X177082733Y-87311172D01*
X176985233Y-87128763D01*
X176965220Y-87062787D01*
X176925193Y-86930836D01*
X176904920Y-86725000D01*
X176925193Y-86519164D01*
X176985233Y-86321238D01*
X176985233Y-86321237D01*
X177082733Y-86138828D01*
X177213946Y-85978946D01*
X177373828Y-85847733D01*
X177556237Y-85750233D01*
X177638652Y-85725233D01*
X177754164Y-85690193D01*
X177831293Y-85682596D01*
X177908420Y-85675000D01*
X178011580Y-85675000D01*
X178088707Y-85682596D01*
X178088707Y-85682596D01*
G37*
G36*
X175548707Y-85682596D02*
X175625836Y-85690193D01*
X175741348Y-85725233D01*
X175823763Y-85750233D01*
X176006172Y-85847733D01*
X176166054Y-85978946D01*
X176297267Y-86138828D01*
X176394767Y-86321237D01*
X176394767Y-86321238D01*
X176454807Y-86519164D01*
X176475080Y-86725000D01*
X176454807Y-86930836D01*
X176414780Y-87062787D01*
X176394767Y-87128763D01*
X176297267Y-87311172D01*
X176166054Y-87471054D01*
X176006172Y-87602267D01*
X175823763Y-87699767D01*
X175757787Y-87719780D01*
X175625836Y-87759807D01*
X175548707Y-87767403D01*
X175471580Y-87775000D01*
X175368420Y-87775000D01*
X175291293Y-87767403D01*
X175214164Y-87759807D01*
X175082213Y-87719780D01*
X175016237Y-87699767D01*
X174833828Y-87602267D01*
X174673946Y-87471054D01*
X174542733Y-87311172D01*
X174445233Y-87128763D01*
X174425220Y-87062787D01*
X174385193Y-86930836D01*
X174364920Y-86725000D01*
X174385193Y-86519164D01*
X174445233Y-86321238D01*
X174445233Y-86321237D01*
X174542733Y-86138828D01*
X174673946Y-85978946D01*
X174833828Y-85847733D01*
X175016237Y-85750233D01*
X175098652Y-85725233D01*
X175214164Y-85690193D01*
X175291293Y-85682596D01*
X175368420Y-85675000D01*
X175471580Y-85675000D01*
X175548707Y-85682596D01*
X175548707Y-85682596D01*
G37*
G36*
X170468707Y-85682596D02*
X170545836Y-85690193D01*
X170661348Y-85725233D01*
X170743763Y-85750233D01*
X170926172Y-85847733D01*
X171086054Y-85978946D01*
X171217267Y-86138828D01*
X171314767Y-86321237D01*
X171314767Y-86321238D01*
X171374807Y-86519164D01*
X171395080Y-86725000D01*
X171374807Y-86930836D01*
X171334780Y-87062787D01*
X171314767Y-87128763D01*
X171217267Y-87311172D01*
X171086054Y-87471054D01*
X170926172Y-87602267D01*
X170743763Y-87699767D01*
X170677787Y-87719780D01*
X170545836Y-87759807D01*
X170468707Y-87767403D01*
X170391580Y-87775000D01*
X170288420Y-87775000D01*
X170211293Y-87767403D01*
X170134164Y-87759807D01*
X170002213Y-87719780D01*
X169936237Y-87699767D01*
X169753828Y-87602267D01*
X169593946Y-87471054D01*
X169462733Y-87311172D01*
X169365233Y-87128763D01*
X169345220Y-87062787D01*
X169305193Y-86930836D01*
X169284920Y-86725000D01*
X169305193Y-86519164D01*
X169365233Y-86321238D01*
X169365233Y-86321237D01*
X169462733Y-86138828D01*
X169593946Y-85978946D01*
X169753828Y-85847733D01*
X169936237Y-85750233D01*
X170018652Y-85725233D01*
X170134164Y-85690193D01*
X170211293Y-85682596D01*
X170288420Y-85675000D01*
X170391580Y-85675000D01*
X170468707Y-85682596D01*
X170468707Y-85682596D01*
G37*
G36*
X173008707Y-85682596D02*
X173085836Y-85690193D01*
X173201348Y-85725233D01*
X173283763Y-85750233D01*
X173466172Y-85847733D01*
X173626054Y-85978946D01*
X173757267Y-86138828D01*
X173854767Y-86321237D01*
X173854767Y-86321238D01*
X173914807Y-86519164D01*
X173935080Y-86725000D01*
X173914807Y-86930836D01*
X173874780Y-87062787D01*
X173854767Y-87128763D01*
X173757267Y-87311172D01*
X173626054Y-87471054D01*
X173466172Y-87602267D01*
X173283763Y-87699767D01*
X173217787Y-87719780D01*
X173085836Y-87759807D01*
X173008707Y-87767403D01*
X172931580Y-87775000D01*
X172828420Y-87775000D01*
X172751293Y-87767403D01*
X172674164Y-87759807D01*
X172542213Y-87719780D01*
X172476237Y-87699767D01*
X172293828Y-87602267D01*
X172133946Y-87471054D01*
X172002733Y-87311172D01*
X171905233Y-87128763D01*
X171885220Y-87062787D01*
X171845193Y-86930836D01*
X171824920Y-86725000D01*
X171845193Y-86519164D01*
X171905233Y-86321238D01*
X171905233Y-86321237D01*
X172002733Y-86138828D01*
X172133946Y-85978946D01*
X172293828Y-85847733D01*
X172476237Y-85750233D01*
X172558652Y-85725233D01*
X172674164Y-85690193D01*
X172751293Y-85682596D01*
X172828420Y-85675000D01*
X172931580Y-85675000D01*
X173008707Y-85682596D01*
X173008707Y-85682596D01*
G37*
G36*
X184643707Y-85657597D02*
X184720836Y-85665193D01*
X184852787Y-85705220D01*
X184918763Y-85725233D01*
X185101172Y-85822733D01*
X185261054Y-85953946D01*
X185392267Y-86113828D01*
X185489767Y-86296237D01*
X185497351Y-86321238D01*
X185549807Y-86494164D01*
X185570080Y-86700000D01*
X185549807Y-86905836D01*
X185542223Y-86930836D01*
X185489767Y-87103763D01*
X185392267Y-87286172D01*
X185261054Y-87446054D01*
X185101172Y-87577267D01*
X184918763Y-87674767D01*
X184852787Y-87694780D01*
X184720836Y-87734807D01*
X184643707Y-87742404D01*
X184566580Y-87750000D01*
X184463420Y-87750000D01*
X184386293Y-87742404D01*
X184309164Y-87734807D01*
X184177213Y-87694780D01*
X184111237Y-87674767D01*
X183928828Y-87577267D01*
X183768946Y-87446054D01*
X183637733Y-87286172D01*
X183540233Y-87103763D01*
X183487777Y-86930836D01*
X183480193Y-86905836D01*
X183459920Y-86700000D01*
X183480193Y-86494164D01*
X183532649Y-86321238D01*
X183540233Y-86296237D01*
X183637733Y-86113828D01*
X183768946Y-85953946D01*
X183928828Y-85822733D01*
X184111237Y-85725233D01*
X184177213Y-85705220D01*
X184309164Y-85665193D01*
X184386293Y-85657597D01*
X184463420Y-85650000D01*
X184566580Y-85650000D01*
X184643707Y-85657597D01*
X184643707Y-85657597D01*
G37*
G36*
X183025000Y-87750000D02*
X180925000Y-87750000D01*
X180925000Y-85650000D01*
X183025000Y-85650000D01*
X183025000Y-87750000D01*
X183025000Y-87750000D01*
G37*
G36*
X187183707Y-85657597D02*
X187260836Y-85665193D01*
X187392787Y-85705220D01*
X187458763Y-85725233D01*
X187641172Y-85822733D01*
X187801054Y-85953946D01*
X187932267Y-86113828D01*
X188029767Y-86296237D01*
X188037351Y-86321238D01*
X188089807Y-86494164D01*
X188110080Y-86700000D01*
X188089807Y-86905836D01*
X188082223Y-86930836D01*
X188029767Y-87103763D01*
X187932267Y-87286172D01*
X187801054Y-87446054D01*
X187641172Y-87577267D01*
X187458763Y-87674767D01*
X187392787Y-87694780D01*
X187260836Y-87734807D01*
X187183707Y-87742404D01*
X187106580Y-87750000D01*
X187003420Y-87750000D01*
X186926293Y-87742404D01*
X186849164Y-87734807D01*
X186717213Y-87694780D01*
X186651237Y-87674767D01*
X186468828Y-87577267D01*
X186308946Y-87446054D01*
X186177733Y-87286172D01*
X186080233Y-87103763D01*
X186027777Y-86930836D01*
X186020193Y-86905836D01*
X185999920Y-86700000D01*
X186020193Y-86494164D01*
X186072649Y-86321238D01*
X186080233Y-86296237D01*
X186177733Y-86113828D01*
X186308946Y-85953946D01*
X186468828Y-85822733D01*
X186651237Y-85725233D01*
X186717213Y-85705220D01*
X186849164Y-85665193D01*
X186926293Y-85657597D01*
X187003420Y-85650000D01*
X187106580Y-85650000D01*
X187183707Y-85657597D01*
X187183707Y-85657597D01*
G37*
G36*
X210026604Y-83654729D02*
X210066872Y-83666945D01*
X210103986Y-83686783D01*
X210136519Y-83713481D01*
X210163217Y-83746014D01*
X210183055Y-83783128D01*
X210195271Y-83823396D01*
X210200000Y-83871416D01*
X210200000Y-85628584D01*
X210195271Y-85676604D01*
X210183055Y-85716872D01*
X210163217Y-85753986D01*
X210136519Y-85786519D01*
X210103986Y-85813217D01*
X210066872Y-85833055D01*
X210026604Y-85845271D01*
X209978584Y-85850000D01*
X206421416Y-85850000D01*
X206373396Y-85845271D01*
X206333128Y-85833055D01*
X206296014Y-85813217D01*
X206263481Y-85786519D01*
X206236783Y-85753986D01*
X206216945Y-85716872D01*
X206204729Y-85676604D01*
X206200000Y-85628584D01*
X206200000Y-83871416D01*
X206204729Y-83823396D01*
X206216945Y-83783128D01*
X206236783Y-83746014D01*
X206263481Y-83713481D01*
X206296014Y-83686783D01*
X206333128Y-83666945D01*
X206373396Y-83654729D01*
X206421416Y-83650000D01*
X209978584Y-83650000D01*
X210026604Y-83654729D01*
X210026604Y-83654729D01*
G37*
G36*
X78040639Y-83140916D02*
X78247986Y-83203815D01*
X78247988Y-83203816D01*
X78439084Y-83305958D01*
X78606581Y-83443419D01*
X78744042Y-83610916D01*
X78846184Y-83802012D01*
X78846185Y-83802014D01*
X78892762Y-83955555D01*
X78909084Y-84009362D01*
X78930322Y-84225000D01*
X78909084Y-84440638D01*
X78846184Y-84647988D01*
X78744042Y-84839084D01*
X78606581Y-85006581D01*
X78439084Y-85144042D01*
X78247988Y-85246184D01*
X78247986Y-85246185D01*
X78040639Y-85309084D01*
X77879038Y-85325000D01*
X75970962Y-85325000D01*
X75809361Y-85309084D01*
X75602014Y-85246185D01*
X75602012Y-85246184D01*
X75410916Y-85144042D01*
X75243419Y-85006581D01*
X75105958Y-84839084D01*
X75003816Y-84647988D01*
X74940916Y-84440638D01*
X74919678Y-84225000D01*
X74940916Y-84009362D01*
X74957238Y-83955555D01*
X75003815Y-83802014D01*
X75003816Y-83802012D01*
X75105958Y-83610916D01*
X75243419Y-83443419D01*
X75410916Y-83305958D01*
X75602012Y-83203816D01*
X75602014Y-83203815D01*
X75809361Y-83140916D01*
X75970962Y-83125000D01*
X77879038Y-83125000D01*
X78040639Y-83140916D01*
X78040639Y-83140916D01*
G37*
G36*
X209315639Y-80165916D02*
X209522986Y-80228815D01*
X209522988Y-80228816D01*
X209714084Y-80330958D01*
X209881581Y-80468419D01*
X210019042Y-80635916D01*
X210121184Y-80827012D01*
X210121185Y-80827014D01*
X210184084Y-81034361D01*
X210205322Y-81250000D01*
X210184084Y-81465639D01*
X210122578Y-81668395D01*
X210121184Y-81672988D01*
X210019042Y-81864084D01*
X209881581Y-82031581D01*
X209714084Y-82169042D01*
X209522988Y-82271184D01*
X209522986Y-82271185D01*
X209315639Y-82334084D01*
X209154038Y-82350000D01*
X207245962Y-82350000D01*
X207084361Y-82334084D01*
X206877014Y-82271185D01*
X206877012Y-82271184D01*
X206685916Y-82169042D01*
X206518419Y-82031581D01*
X206380958Y-81864084D01*
X206278816Y-81672988D01*
X206277423Y-81668395D01*
X206215916Y-81465639D01*
X206194678Y-81250000D01*
X206215916Y-81034361D01*
X206278815Y-80827014D01*
X206278816Y-80827012D01*
X206380958Y-80635916D01*
X206518419Y-80468419D01*
X206685916Y-80330958D01*
X206877012Y-80228816D01*
X206877014Y-80228815D01*
X207084361Y-80165916D01*
X207245962Y-80150000D01*
X209154038Y-80150000D01*
X209315639Y-80165916D01*
X209315639Y-80165916D01*
G37*
G36*
X78040639Y-79640916D02*
X78247986Y-79703815D01*
X78247988Y-79703816D01*
X78439084Y-79805958D01*
X78606581Y-79943419D01*
X78744042Y-80110916D01*
X78846184Y-80302012D01*
X78909084Y-80509362D01*
X78930322Y-80725000D01*
X78909084Y-80940638D01*
X78846184Y-81147988D01*
X78744042Y-81339084D01*
X78606581Y-81506581D01*
X78439084Y-81644042D01*
X78247988Y-81746184D01*
X78247986Y-81746185D01*
X78040639Y-81809084D01*
X77879038Y-81825000D01*
X75970962Y-81825000D01*
X75809361Y-81809084D01*
X75602014Y-81746185D01*
X75602012Y-81746184D01*
X75410916Y-81644042D01*
X75243419Y-81506581D01*
X75105958Y-81339084D01*
X75003816Y-81147988D01*
X74940916Y-80940638D01*
X74919678Y-80725000D01*
X74940916Y-80509362D01*
X75003816Y-80302012D01*
X75105958Y-80110916D01*
X75243419Y-79943419D01*
X75410916Y-79805958D01*
X75602012Y-79703816D01*
X75602014Y-79703815D01*
X75809361Y-79640916D01*
X75970962Y-79625000D01*
X77879038Y-79625000D01*
X78040639Y-79640916D01*
X78040639Y-79640916D01*
G37*
G36*
X153385997Y-79880997D02*
X153438653Y-79896970D01*
X153487165Y-79922900D01*
X153529696Y-79957804D01*
X153564600Y-80000335D01*
X153590530Y-80048847D01*
X153606503Y-80101503D01*
X153612500Y-80162390D01*
X153612500Y-81387610D01*
X153606503Y-81448497D01*
X153590530Y-81501153D01*
X153564600Y-81549665D01*
X153529696Y-81592196D01*
X153487165Y-81627100D01*
X153438653Y-81653030D01*
X153385997Y-81669003D01*
X153325110Y-81675000D01*
X152524890Y-81675000D01*
X152464003Y-81669003D01*
X152411347Y-81653030D01*
X152362835Y-81627100D01*
X152320304Y-81592196D01*
X152285400Y-81549665D01*
X152259470Y-81501153D01*
X152243497Y-81448497D01*
X152237500Y-81387610D01*
X152237500Y-80162390D01*
X152243497Y-80101503D01*
X152259470Y-80048847D01*
X152285400Y-80000335D01*
X152320304Y-79957804D01*
X152362835Y-79922900D01*
X152411347Y-79896970D01*
X152464003Y-79880997D01*
X152524890Y-79875000D01*
X153325110Y-79875000D01*
X153385997Y-79880997D01*
X153385997Y-79880997D01*
G37*
G36*
X151510997Y-79880997D02*
X151563653Y-79896970D01*
X151612165Y-79922900D01*
X151654696Y-79957804D01*
X151689600Y-80000335D01*
X151715530Y-80048847D01*
X151731503Y-80101503D01*
X151737500Y-80162390D01*
X151737500Y-81387610D01*
X151731503Y-81448497D01*
X151715530Y-81501153D01*
X151689600Y-81549665D01*
X151654696Y-81592196D01*
X151612165Y-81627100D01*
X151563653Y-81653030D01*
X151510997Y-81669003D01*
X151450110Y-81675000D01*
X150649890Y-81675000D01*
X150589003Y-81669003D01*
X150536347Y-81653030D01*
X150487835Y-81627100D01*
X150445304Y-81592196D01*
X150410400Y-81549665D01*
X150384470Y-81501153D01*
X150368497Y-81448497D01*
X150362500Y-81387610D01*
X150362500Y-80162390D01*
X150368497Y-80101503D01*
X150384470Y-80048847D01*
X150410400Y-80000335D01*
X150445304Y-79957804D01*
X150487835Y-79922900D01*
X150536347Y-79896970D01*
X150589003Y-79880997D01*
X150649890Y-79875000D01*
X151450110Y-79875000D01*
X151510997Y-79880997D01*
X151510997Y-79880997D01*
G37*
G36*
X148010997Y-78480997D02*
X148063653Y-78496970D01*
X148112165Y-78522900D01*
X148154696Y-78557804D01*
X148189600Y-78600335D01*
X148215530Y-78648847D01*
X148231503Y-78701503D01*
X148237500Y-78762390D01*
X148237500Y-79987610D01*
X148231503Y-80048497D01*
X148215530Y-80101153D01*
X148189600Y-80149665D01*
X148154696Y-80192196D01*
X148112165Y-80227100D01*
X148063653Y-80253030D01*
X148010997Y-80269003D01*
X147950110Y-80275000D01*
X147149890Y-80275000D01*
X147089003Y-80269003D01*
X147036347Y-80253030D01*
X146987835Y-80227100D01*
X146945304Y-80192196D01*
X146910400Y-80149665D01*
X146884470Y-80101153D01*
X146868497Y-80048497D01*
X146862500Y-79987610D01*
X146862500Y-78762390D01*
X146868497Y-78701503D01*
X146884470Y-78648847D01*
X146910400Y-78600335D01*
X146945304Y-78557804D01*
X146987835Y-78522900D01*
X147036347Y-78496970D01*
X147089003Y-78480997D01*
X147149890Y-78475000D01*
X147950110Y-78475000D01*
X148010997Y-78480997D01*
X148010997Y-78480997D01*
G37*
G36*
X152773497Y-76868497D02*
X152826153Y-76884470D01*
X152874665Y-76910400D01*
X152917196Y-76945304D01*
X152952100Y-76987835D01*
X152978030Y-77036347D01*
X152994003Y-77089003D01*
X153000000Y-77149890D01*
X153000000Y-77950110D01*
X152994003Y-78010997D01*
X152978030Y-78063653D01*
X152952100Y-78112165D01*
X152917196Y-78154696D01*
X152874665Y-78189600D01*
X152826153Y-78215530D01*
X152773497Y-78231503D01*
X152712610Y-78237500D01*
X151487390Y-78237500D01*
X151426503Y-78231503D01*
X151373847Y-78215530D01*
X151325335Y-78189600D01*
X151282804Y-78154696D01*
X151247900Y-78112165D01*
X151221969Y-78063651D01*
X151221514Y-78062152D01*
X151212137Y-78039512D01*
X151198523Y-78019138D01*
X151181196Y-78001810D01*
X151160822Y-77988196D01*
X151138183Y-77978819D01*
X151114149Y-77974038D01*
X151089645Y-77974038D01*
X151065612Y-77978818D01*
X151042972Y-77988195D01*
X151022598Y-78001809D01*
X151005270Y-78019136D01*
X150991656Y-78039510D01*
X150982278Y-78062150D01*
X150978030Y-78076153D01*
X150952100Y-78124665D01*
X150917196Y-78167196D01*
X150874665Y-78202100D01*
X150826153Y-78228030D01*
X150773497Y-78244003D01*
X150712610Y-78250000D01*
X149967186Y-78250000D01*
X149942800Y-78252402D01*
X149919351Y-78259515D01*
X149897740Y-78271066D01*
X149878798Y-78286612D01*
X149863252Y-78305554D01*
X149851701Y-78327165D01*
X149844588Y-78350614D01*
X149842186Y-78375000D01*
X149844588Y-78399386D01*
X149851701Y-78422835D01*
X149863252Y-78444446D01*
X149878798Y-78463388D01*
X149897740Y-78478934D01*
X149919351Y-78490485D01*
X149930901Y-78494618D01*
X149938652Y-78496969D01*
X149987165Y-78522900D01*
X150029696Y-78557804D01*
X150064600Y-78600335D01*
X150090530Y-78648847D01*
X150106503Y-78701503D01*
X150112500Y-78762390D01*
X150112500Y-79987610D01*
X150106503Y-80048497D01*
X150090530Y-80101153D01*
X150064600Y-80149665D01*
X150029696Y-80192196D01*
X149987165Y-80227100D01*
X149938653Y-80253030D01*
X149885997Y-80269003D01*
X149825110Y-80275000D01*
X149024890Y-80275000D01*
X148964003Y-80269003D01*
X148911347Y-80253030D01*
X148862835Y-80227100D01*
X148820304Y-80192196D01*
X148785400Y-80149665D01*
X148759470Y-80101153D01*
X148743497Y-80048497D01*
X148737500Y-79987610D01*
X148737500Y-78762390D01*
X148743497Y-78701503D01*
X148759470Y-78648847D01*
X148785400Y-78600335D01*
X148820304Y-78557804D01*
X148862835Y-78522900D01*
X148911347Y-78496970D01*
X148964003Y-78480997D01*
X149024890Y-78475000D01*
X149345314Y-78475000D01*
X149369700Y-78472598D01*
X149393149Y-78465485D01*
X149414760Y-78453934D01*
X149433702Y-78438388D01*
X149449248Y-78419446D01*
X149460799Y-78397835D01*
X149467912Y-78374386D01*
X149470314Y-78350000D01*
X149467912Y-78325614D01*
X149460799Y-78302165D01*
X149449248Y-78280554D01*
X149433702Y-78261612D01*
X149414760Y-78246066D01*
X149393149Y-78234515D01*
X149381599Y-78230382D01*
X149373848Y-78228031D01*
X149325335Y-78202100D01*
X149282804Y-78167196D01*
X149247900Y-78124665D01*
X149221970Y-78076153D01*
X149205997Y-78023497D01*
X149200000Y-77962610D01*
X149200000Y-77162390D01*
X149205997Y-77101503D01*
X149221970Y-77048847D01*
X149247900Y-77000335D01*
X149282804Y-76957804D01*
X149325335Y-76922900D01*
X149373847Y-76896970D01*
X149426503Y-76880997D01*
X149487390Y-76875000D01*
X150712610Y-76875000D01*
X150773497Y-76880997D01*
X150826153Y-76896970D01*
X150874665Y-76922900D01*
X150917196Y-76957804D01*
X150952100Y-77000335D01*
X150978031Y-77048849D01*
X150978486Y-77050348D01*
X150987863Y-77072988D01*
X151001477Y-77093362D01*
X151018804Y-77110690D01*
X151039178Y-77124304D01*
X151061817Y-77133681D01*
X151085851Y-77138462D01*
X151110355Y-77138462D01*
X151134388Y-77133682D01*
X151157028Y-77124305D01*
X151177402Y-77110691D01*
X151194730Y-77093364D01*
X151208344Y-77072990D01*
X151217722Y-77050350D01*
X151221970Y-77036347D01*
X151247900Y-76987835D01*
X151282804Y-76945304D01*
X151325335Y-76910400D01*
X151373847Y-76884470D01*
X151426503Y-76868497D01*
X151487390Y-76862500D01*
X152712610Y-76862500D01*
X152773497Y-76868497D01*
X152773497Y-76868497D01*
G37*
G36*
X209315639Y-76665916D02*
X209522986Y-76728815D01*
X209522988Y-76728816D01*
X209714084Y-76830958D01*
X209881581Y-76968419D01*
X210019042Y-77135916D01*
X210121184Y-77327012D01*
X210121185Y-77327014D01*
X210184084Y-77534361D01*
X210205322Y-77750000D01*
X210184084Y-77965639D01*
X210128365Y-78149318D01*
X210121184Y-78172988D01*
X210019042Y-78364084D01*
X209881581Y-78531581D01*
X209714084Y-78669042D01*
X209522988Y-78771184D01*
X209522986Y-78771185D01*
X209315639Y-78834084D01*
X209154038Y-78850000D01*
X207245962Y-78850000D01*
X207084361Y-78834084D01*
X206877014Y-78771185D01*
X206877012Y-78771184D01*
X206685916Y-78669042D01*
X206518419Y-78531581D01*
X206380958Y-78364084D01*
X206278816Y-78172988D01*
X206271636Y-78149318D01*
X206215916Y-77965639D01*
X206194678Y-77750000D01*
X206215916Y-77534361D01*
X206278815Y-77327014D01*
X206278816Y-77327012D01*
X206380958Y-77135916D01*
X206518419Y-76968419D01*
X206685916Y-76830958D01*
X206877012Y-76728816D01*
X206877014Y-76728815D01*
X207084361Y-76665916D01*
X207245962Y-76650000D01*
X209154038Y-76650000D01*
X209315639Y-76665916D01*
X209315639Y-76665916D01*
G37*
G36*
X78040639Y-76140916D02*
X78247986Y-76203815D01*
X78247988Y-76203816D01*
X78439084Y-76305958D01*
X78606581Y-76443419D01*
X78744042Y-76610916D01*
X78807060Y-76728816D01*
X78846185Y-76802014D01*
X78909084Y-77009361D01*
X78923102Y-77151688D01*
X78930322Y-77225000D01*
X78909084Y-77440638D01*
X78846184Y-77647988D01*
X78744042Y-77839084D01*
X78606581Y-78006581D01*
X78439084Y-78144042D01*
X78253206Y-78243395D01*
X78247986Y-78246185D01*
X78040639Y-78309084D01*
X77879038Y-78325000D01*
X75970962Y-78325000D01*
X75809361Y-78309084D01*
X75602014Y-78246185D01*
X75596794Y-78243395D01*
X75410916Y-78144042D01*
X75243419Y-78006581D01*
X75105958Y-77839084D01*
X75003816Y-77647988D01*
X74940916Y-77440638D01*
X74919678Y-77225000D01*
X74926898Y-77151688D01*
X74940916Y-77009361D01*
X75003815Y-76802014D01*
X75042940Y-76728816D01*
X75105958Y-76610916D01*
X75243419Y-76443419D01*
X75410916Y-76305958D01*
X75602012Y-76203816D01*
X75602014Y-76203815D01*
X75809361Y-76140916D01*
X75970962Y-76125000D01*
X77879038Y-76125000D01*
X78040639Y-76140916D01*
X78040639Y-76140916D01*
G37*
G36*
X152773497Y-74993497D02*
X152826153Y-75009470D01*
X152874665Y-75035400D01*
X152917196Y-75070304D01*
X152952100Y-75112835D01*
X152978030Y-75161347D01*
X152994003Y-75214003D01*
X153000000Y-75274890D01*
X153000000Y-76075110D01*
X152994003Y-76135997D01*
X152978030Y-76188653D01*
X152952100Y-76237165D01*
X152917196Y-76279696D01*
X152874665Y-76314600D01*
X152826153Y-76340530D01*
X152773497Y-76356503D01*
X152712610Y-76362500D01*
X151487390Y-76362500D01*
X151426503Y-76356503D01*
X151373847Y-76340530D01*
X151325335Y-76314600D01*
X151282804Y-76279696D01*
X151247900Y-76237165D01*
X151221969Y-76188651D01*
X151221514Y-76187152D01*
X151212137Y-76164512D01*
X151198523Y-76144138D01*
X151181196Y-76126810D01*
X151160822Y-76113196D01*
X151138183Y-76103819D01*
X151114149Y-76099038D01*
X151089645Y-76099038D01*
X151065612Y-76103818D01*
X151042972Y-76113195D01*
X151022598Y-76126809D01*
X151005270Y-76144136D01*
X150991656Y-76164510D01*
X150982278Y-76187150D01*
X150978030Y-76201153D01*
X150952100Y-76249665D01*
X150917196Y-76292196D01*
X150874665Y-76327100D01*
X150826153Y-76353030D01*
X150773497Y-76369003D01*
X150712610Y-76375000D01*
X149487390Y-76375000D01*
X149426503Y-76369003D01*
X149373847Y-76353030D01*
X149325335Y-76327100D01*
X149282804Y-76292196D01*
X149247900Y-76249665D01*
X149221970Y-76201153D01*
X149205997Y-76148497D01*
X149200000Y-76087610D01*
X149200000Y-75287390D01*
X149205997Y-75226503D01*
X149221970Y-75173847D01*
X149247900Y-75125335D01*
X149282804Y-75082804D01*
X149325335Y-75047900D01*
X149373847Y-75021970D01*
X149426503Y-75005997D01*
X149487390Y-75000000D01*
X150712610Y-75000000D01*
X150773497Y-75005997D01*
X150826153Y-75021970D01*
X150874665Y-75047900D01*
X150917196Y-75082804D01*
X150952100Y-75125335D01*
X150978031Y-75173849D01*
X150978486Y-75175348D01*
X150987863Y-75197988D01*
X151001477Y-75218362D01*
X151018804Y-75235690D01*
X151039178Y-75249304D01*
X151061817Y-75258681D01*
X151085851Y-75263462D01*
X151110355Y-75263462D01*
X151134388Y-75258682D01*
X151157028Y-75249305D01*
X151177402Y-75235691D01*
X151194730Y-75218364D01*
X151208344Y-75197990D01*
X151217722Y-75175350D01*
X151221970Y-75161347D01*
X151247900Y-75112835D01*
X151282804Y-75070304D01*
X151325335Y-75035400D01*
X151373847Y-75009470D01*
X151426503Y-74993497D01*
X151487390Y-74987500D01*
X152712610Y-74987500D01*
X152773497Y-74993497D01*
X152773497Y-74993497D01*
G37*
G36*
X78040639Y-72640916D02*
X78247986Y-72703815D01*
X78247988Y-72703816D01*
X78439084Y-72805958D01*
X78606581Y-72943419D01*
X78744042Y-73110916D01*
X78821724Y-73256250D01*
X78846185Y-73302014D01*
X78909084Y-73509361D01*
X78930322Y-73725000D01*
X78909084Y-73940639D01*
X78858846Y-74106250D01*
X78846184Y-74147988D01*
X78744042Y-74339084D01*
X78606581Y-74506581D01*
X78439084Y-74644042D01*
X78247988Y-74746184D01*
X78247986Y-74746185D01*
X78040639Y-74809084D01*
X77879038Y-74825000D01*
X75970962Y-74825000D01*
X75809361Y-74809084D01*
X75602014Y-74746185D01*
X75602012Y-74746184D01*
X75410916Y-74644042D01*
X75243419Y-74506581D01*
X75105958Y-74339084D01*
X75003816Y-74147988D01*
X74991155Y-74106250D01*
X74940916Y-73940639D01*
X74919678Y-73725000D01*
X74940916Y-73509361D01*
X75003815Y-73302014D01*
X75028276Y-73256250D01*
X75105958Y-73110916D01*
X75243419Y-72943419D01*
X75410916Y-72805958D01*
X75602012Y-72703816D01*
X75602014Y-72703815D01*
X75809361Y-72640916D01*
X75970962Y-72625000D01*
X77879038Y-72625000D01*
X78040639Y-72640916D01*
X78040639Y-72640916D01*
G37*
G36*
X151710997Y-72655997D02*
X151763653Y-72671970D01*
X151812165Y-72697900D01*
X151854696Y-72732804D01*
X151889600Y-72775335D01*
X151915530Y-72823847D01*
X151931503Y-72876503D01*
X151937500Y-72937390D01*
X151937500Y-74162610D01*
X151931503Y-74223497D01*
X151915530Y-74276153D01*
X151889600Y-74324665D01*
X151854696Y-74367196D01*
X151812165Y-74402100D01*
X151763653Y-74428030D01*
X151710997Y-74444003D01*
X151650110Y-74450000D01*
X150849890Y-74450000D01*
X150789003Y-74444003D01*
X150736347Y-74428030D01*
X150687835Y-74402100D01*
X150645304Y-74367196D01*
X150610400Y-74324665D01*
X150584470Y-74276153D01*
X150568497Y-74223497D01*
X150562500Y-74162610D01*
X150562500Y-72937390D01*
X150568497Y-72876503D01*
X150584470Y-72823847D01*
X150610400Y-72775335D01*
X150645304Y-72732804D01*
X150687835Y-72697900D01*
X150736347Y-72671970D01*
X150789003Y-72655997D01*
X150849890Y-72650000D01*
X151650110Y-72650000D01*
X151710997Y-72655997D01*
X151710997Y-72655997D01*
G37*
G36*
X153585997Y-72655997D02*
X153638653Y-72671970D01*
X153687165Y-72697900D01*
X153729696Y-72732804D01*
X153764600Y-72775335D01*
X153790530Y-72823847D01*
X153806503Y-72876503D01*
X153812500Y-72937390D01*
X153812500Y-74162610D01*
X153806503Y-74223497D01*
X153790530Y-74276153D01*
X153764600Y-74324665D01*
X153729696Y-74367196D01*
X153687165Y-74402100D01*
X153638653Y-74428030D01*
X153585997Y-74444003D01*
X153525110Y-74450000D01*
X152724890Y-74450000D01*
X152664003Y-74444003D01*
X152611347Y-74428030D01*
X152562835Y-74402100D01*
X152520304Y-74367196D01*
X152485400Y-74324665D01*
X152459470Y-74276153D01*
X152443497Y-74223497D01*
X152437500Y-74162610D01*
X152437500Y-72937390D01*
X152443497Y-72876503D01*
X152459470Y-72823847D01*
X152485400Y-72775335D01*
X152520304Y-72732804D01*
X152562835Y-72697900D01*
X152611347Y-72671970D01*
X152664003Y-72655997D01*
X152724890Y-72650000D01*
X153525110Y-72650000D01*
X153585997Y-72655997D01*
X153585997Y-72655997D01*
G37*
G36*
X145135997Y-69880997D02*
X145188653Y-69896970D01*
X145237165Y-69922900D01*
X145279696Y-69957804D01*
X145314600Y-70000335D01*
X145340530Y-70048847D01*
X145356503Y-70101503D01*
X145362500Y-70162390D01*
X145362500Y-71387610D01*
X145356503Y-71448497D01*
X145340530Y-71501153D01*
X145314600Y-71549665D01*
X145279696Y-71592196D01*
X145237167Y-71627099D01*
X145236867Y-71627259D01*
X145216492Y-71640873D01*
X145199164Y-71658200D01*
X145185550Y-71678574D01*
X145176173Y-71701213D01*
X145171392Y-71725247D01*
X145171392Y-71749751D01*
X145176172Y-71773784D01*
X145185549Y-71796423D01*
X145199163Y-71816798D01*
X145216490Y-71834126D01*
X145236867Y-71847741D01*
X145237167Y-71847901D01*
X145279696Y-71882804D01*
X145314600Y-71925335D01*
X145340530Y-71973847D01*
X145356503Y-72026503D01*
X145362500Y-72087390D01*
X145362500Y-73312610D01*
X145356503Y-73373497D01*
X145340530Y-73426153D01*
X145314600Y-73474665D01*
X145279696Y-73517196D01*
X145237165Y-73552100D01*
X145188653Y-73578030D01*
X145135997Y-73594003D01*
X145075110Y-73600000D01*
X144274890Y-73600000D01*
X144214003Y-73594003D01*
X144161347Y-73578030D01*
X144112835Y-73552100D01*
X144070304Y-73517196D01*
X144035400Y-73474665D01*
X144009470Y-73426153D01*
X143993497Y-73373497D01*
X143987500Y-73312610D01*
X143987500Y-72087390D01*
X143993497Y-72026503D01*
X144009470Y-71973847D01*
X144035400Y-71925335D01*
X144070304Y-71882804D01*
X144112833Y-71847901D01*
X144113133Y-71847741D01*
X144133508Y-71834127D01*
X144150836Y-71816800D01*
X144164450Y-71796426D01*
X144173827Y-71773787D01*
X144178608Y-71749753D01*
X144178608Y-71725249D01*
X144173828Y-71701216D01*
X144164451Y-71678577D01*
X144150837Y-71658202D01*
X144133510Y-71640874D01*
X144113133Y-71627259D01*
X144112833Y-71627099D01*
X144070304Y-71592196D01*
X144035400Y-71549665D01*
X144009470Y-71501153D01*
X143993497Y-71448497D01*
X143987500Y-71387610D01*
X143987500Y-70162390D01*
X143993497Y-70101503D01*
X144009470Y-70048847D01*
X144035400Y-70000335D01*
X144070304Y-69957804D01*
X144112835Y-69922900D01*
X144161347Y-69896970D01*
X144214003Y-69880997D01*
X144274890Y-69875000D01*
X145075110Y-69875000D01*
X145135997Y-69880997D01*
X145135997Y-69880997D01*
G37*
G36*
X147010997Y-69880997D02*
X147063653Y-69896970D01*
X147112165Y-69922900D01*
X147154696Y-69957804D01*
X147189600Y-70000335D01*
X147215530Y-70048847D01*
X147231503Y-70101503D01*
X147237500Y-70162390D01*
X147237500Y-71387610D01*
X147231503Y-71448497D01*
X147215530Y-71501153D01*
X147189600Y-71549665D01*
X147154696Y-71592196D01*
X147112167Y-71627099D01*
X147111867Y-71627259D01*
X147091492Y-71640873D01*
X147074164Y-71658200D01*
X147060550Y-71678574D01*
X147051173Y-71701213D01*
X147046392Y-71725247D01*
X147046392Y-71749751D01*
X147051172Y-71773784D01*
X147060549Y-71796423D01*
X147074163Y-71816798D01*
X147091490Y-71834126D01*
X147111867Y-71847741D01*
X147112167Y-71847901D01*
X147154696Y-71882804D01*
X147189600Y-71925335D01*
X147215530Y-71973847D01*
X147231503Y-72026503D01*
X147237500Y-72087390D01*
X147237500Y-73312610D01*
X147231503Y-73373497D01*
X147215530Y-73426153D01*
X147189600Y-73474665D01*
X147154696Y-73517196D01*
X147112165Y-73552100D01*
X147063653Y-73578030D01*
X147010997Y-73594003D01*
X146950110Y-73600000D01*
X146149890Y-73600000D01*
X146089003Y-73594003D01*
X146036347Y-73578030D01*
X145987835Y-73552100D01*
X145945304Y-73517196D01*
X145910400Y-73474665D01*
X145884470Y-73426153D01*
X145868497Y-73373497D01*
X145862500Y-73312610D01*
X145862500Y-72087390D01*
X145868497Y-72026503D01*
X145884470Y-71973847D01*
X145910400Y-71925335D01*
X145945304Y-71882804D01*
X145987833Y-71847901D01*
X145988133Y-71847741D01*
X146008508Y-71834127D01*
X146025836Y-71816800D01*
X146039450Y-71796426D01*
X146048827Y-71773787D01*
X146053608Y-71749753D01*
X146053608Y-71725249D01*
X146048828Y-71701216D01*
X146039451Y-71678577D01*
X146025837Y-71658202D01*
X146008510Y-71640874D01*
X145988133Y-71627259D01*
X145987833Y-71627099D01*
X145945304Y-71592196D01*
X145910400Y-71549665D01*
X145884470Y-71501153D01*
X145868497Y-71448497D01*
X145862500Y-71387610D01*
X145862500Y-70162390D01*
X145868497Y-70101503D01*
X145884470Y-70048847D01*
X145910400Y-70000335D01*
X145945304Y-69957804D01*
X145987835Y-69922900D01*
X146036347Y-69896970D01*
X146089003Y-69880997D01*
X146149890Y-69875000D01*
X146950110Y-69875000D01*
X147010997Y-69880997D01*
X147010997Y-69880997D01*
G37*
G36*
X78040639Y-69140916D02*
X78247986Y-69203815D01*
X78247988Y-69203816D01*
X78439084Y-69305958D01*
X78606581Y-69443419D01*
X78744042Y-69610916D01*
X78846184Y-69802012D01*
X78846185Y-69802014D01*
X78909084Y-70009361D01*
X78918159Y-70101503D01*
X78930322Y-70225000D01*
X78909084Y-70440638D01*
X78846184Y-70647988D01*
X78744042Y-70839084D01*
X78606581Y-71006581D01*
X78439084Y-71144042D01*
X78247988Y-71246184D01*
X78247986Y-71246185D01*
X78040639Y-71309084D01*
X77879038Y-71325000D01*
X75970962Y-71325000D01*
X75809361Y-71309084D01*
X75602014Y-71246185D01*
X75602012Y-71246184D01*
X75410916Y-71144042D01*
X75243419Y-71006581D01*
X75105958Y-70839084D01*
X75003816Y-70647988D01*
X74940916Y-70440638D01*
X74919678Y-70225000D01*
X74931841Y-70101503D01*
X74940916Y-70009361D01*
X75003815Y-69802014D01*
X75003816Y-69802012D01*
X75105958Y-69610916D01*
X75243419Y-69443419D01*
X75410916Y-69305958D01*
X75602012Y-69203816D01*
X75602014Y-69203815D01*
X75809361Y-69140916D01*
X75970962Y-69125000D01*
X77879038Y-69125000D01*
X78040639Y-69140916D01*
X78040639Y-69140916D01*
G37*
G36*
X160039756Y-65915482D02*
X160188970Y-65960746D01*
X160241455Y-65976667D01*
X160427336Y-66076022D01*
X160590265Y-66209735D01*
X160723978Y-66372663D01*
X160823333Y-66558544D01*
X160839254Y-66611029D01*
X160884518Y-66760243D01*
X160884518Y-66760245D01*
X160900000Y-66917435D01*
X160900000Y-67482564D01*
X160894839Y-67534961D01*
X160884518Y-67639756D01*
X160852233Y-67746184D01*
X160823333Y-67841455D01*
X160723978Y-68027337D01*
X160590265Y-68190265D01*
X160427337Y-68323978D01*
X160241456Y-68423333D01*
X160200994Y-68435607D01*
X160039757Y-68484518D01*
X159830000Y-68505177D01*
X159620244Y-68484518D01*
X159459007Y-68435607D01*
X159418545Y-68423333D01*
X159232664Y-68323978D01*
X159069736Y-68190265D01*
X158936024Y-68027338D01*
X158836666Y-67841453D01*
X158776782Y-67644042D01*
X158775482Y-67639757D01*
X158760000Y-67482564D01*
X158760000Y-66917437D01*
X158775482Y-66760244D01*
X158836666Y-66558549D01*
X158836667Y-66558545D01*
X158936022Y-66372664D01*
X159069735Y-66209735D01*
X159232663Y-66076022D01*
X159418544Y-65976667D01*
X159471029Y-65960746D01*
X159620243Y-65915482D01*
X159830000Y-65894823D01*
X160039756Y-65915482D01*
X160039756Y-65915482D01*
G37*
G36*
X157499756Y-65915482D02*
X157648970Y-65960746D01*
X157701455Y-65976667D01*
X157887336Y-66076022D01*
X158050265Y-66209735D01*
X158183978Y-66372663D01*
X158283333Y-66558544D01*
X158299254Y-66611029D01*
X158344518Y-66760243D01*
X158344518Y-66760245D01*
X158360000Y-66917435D01*
X158360000Y-67482564D01*
X158354839Y-67534961D01*
X158344518Y-67639756D01*
X158312233Y-67746184D01*
X158283333Y-67841455D01*
X158183978Y-68027337D01*
X158050265Y-68190265D01*
X157887337Y-68323978D01*
X157701456Y-68423333D01*
X157660994Y-68435607D01*
X157499757Y-68484518D01*
X157290000Y-68505177D01*
X157080244Y-68484518D01*
X156919007Y-68435607D01*
X156878545Y-68423333D01*
X156692664Y-68323978D01*
X156529736Y-68190265D01*
X156396024Y-68027338D01*
X156296666Y-67841453D01*
X156236782Y-67644042D01*
X156235482Y-67639757D01*
X156220000Y-67482564D01*
X156220000Y-66917437D01*
X156235482Y-66760244D01*
X156296666Y-66558549D01*
X156296667Y-66558545D01*
X156396022Y-66372664D01*
X156529735Y-66209735D01*
X156692663Y-66076022D01*
X156878544Y-65976667D01*
X156931029Y-65960746D01*
X157080243Y-65915482D01*
X157290000Y-65894823D01*
X157499756Y-65915482D01*
X157499756Y-65915482D01*
G37*
G36*
X162579756Y-65915482D02*
X162728970Y-65960746D01*
X162781455Y-65976667D01*
X162967336Y-66076022D01*
X163130265Y-66209735D01*
X163263978Y-66372663D01*
X163363333Y-66558544D01*
X163379254Y-66611029D01*
X163424518Y-66760243D01*
X163424518Y-66760245D01*
X163440000Y-66917435D01*
X163440000Y-67482564D01*
X163434839Y-67534961D01*
X163424518Y-67639756D01*
X163392233Y-67746184D01*
X163363333Y-67841455D01*
X163263978Y-68027337D01*
X163130265Y-68190265D01*
X162967337Y-68323978D01*
X162781456Y-68423333D01*
X162740994Y-68435607D01*
X162579757Y-68484518D01*
X162370000Y-68505177D01*
X162160244Y-68484518D01*
X161999007Y-68435607D01*
X161958545Y-68423333D01*
X161772664Y-68323978D01*
X161609736Y-68190265D01*
X161476024Y-68027338D01*
X161376666Y-67841453D01*
X161316782Y-67644042D01*
X161315482Y-67639757D01*
X161300000Y-67482564D01*
X161300000Y-66917437D01*
X161315482Y-66760244D01*
X161376666Y-66558549D01*
X161376667Y-66558545D01*
X161476022Y-66372664D01*
X161609735Y-66209735D01*
X161772663Y-66076022D01*
X161958544Y-65976667D01*
X162011029Y-65960746D01*
X162160243Y-65915482D01*
X162370000Y-65894823D01*
X162579756Y-65915482D01*
X162579756Y-65915482D01*
G37*
G36*
X155644094Y-65904789D02*
X155684953Y-65917183D01*
X155722608Y-65937311D01*
X155755607Y-65964393D01*
X155782689Y-65997392D01*
X155802817Y-66035047D01*
X155815211Y-66075906D01*
X155820000Y-66124530D01*
X155820000Y-68275470D01*
X155815211Y-68324094D01*
X155802817Y-68364953D01*
X155782689Y-68402608D01*
X155755607Y-68435607D01*
X155722608Y-68462689D01*
X155684953Y-68482817D01*
X155644094Y-68495211D01*
X155595470Y-68500000D01*
X153904530Y-68500000D01*
X153855906Y-68495211D01*
X153815047Y-68482817D01*
X153777392Y-68462689D01*
X153744393Y-68435607D01*
X153717311Y-68402608D01*
X153697183Y-68364953D01*
X153684789Y-68324094D01*
X153680000Y-68275470D01*
X153680000Y-66124530D01*
X153684789Y-66075906D01*
X153697183Y-66035047D01*
X153717311Y-65997392D01*
X153744393Y-65964393D01*
X153777392Y-65937311D01*
X153815047Y-65917183D01*
X153855906Y-65904789D01*
X153904530Y-65900000D01*
X155595470Y-65900000D01*
X155644094Y-65904789D01*
X155644094Y-65904789D01*
G37*
G36*
X78040639Y-65640916D02*
X78247986Y-65703815D01*
X78247988Y-65703816D01*
X78439084Y-65805958D01*
X78606581Y-65943419D01*
X78744042Y-66110916D01*
X78796861Y-66209735D01*
X78846185Y-66302014D01*
X78909084Y-66509361D01*
X78909084Y-66509362D01*
X78930322Y-66725000D01*
X78909084Y-66940638D01*
X78846184Y-67147988D01*
X78744042Y-67339084D01*
X78606581Y-67506581D01*
X78439084Y-67644042D01*
X78247988Y-67746184D01*
X78247986Y-67746185D01*
X78040639Y-67809084D01*
X77879038Y-67825000D01*
X75970962Y-67825000D01*
X75809361Y-67809084D01*
X75602014Y-67746185D01*
X75602012Y-67746184D01*
X75410916Y-67644042D01*
X75243419Y-67506581D01*
X75105958Y-67339084D01*
X75003816Y-67147988D01*
X74940916Y-66940638D01*
X74919678Y-66725000D01*
X74940916Y-66509362D01*
X74940916Y-66509361D01*
X75003815Y-66302014D01*
X75053139Y-66209735D01*
X75105958Y-66110916D01*
X75243419Y-65943419D01*
X75410916Y-65805958D01*
X75602012Y-65703816D01*
X75602014Y-65703815D01*
X75809361Y-65640916D01*
X75970962Y-65625000D01*
X77879038Y-65625000D01*
X78040639Y-65640916D01*
X78040639Y-65640916D01*
G37*
G36*
X78751604Y-62129729D02*
X78791872Y-62141945D01*
X78828986Y-62161783D01*
X78861519Y-62188481D01*
X78888217Y-62221014D01*
X78908055Y-62258128D01*
X78920271Y-62298396D01*
X78925000Y-62346416D01*
X78925000Y-64103584D01*
X78920271Y-64151604D01*
X78908055Y-64191872D01*
X78888217Y-64228986D01*
X78861519Y-64261519D01*
X78828986Y-64288217D01*
X78791872Y-64308055D01*
X78751604Y-64320271D01*
X78703584Y-64325000D01*
X75146416Y-64325000D01*
X75098396Y-64320271D01*
X75058128Y-64308055D01*
X75021014Y-64288217D01*
X74988481Y-64261519D01*
X74961783Y-64228986D01*
X74941945Y-64191872D01*
X74929729Y-64151604D01*
X74925000Y-64103584D01*
X74925000Y-62346416D01*
X74929729Y-62298396D01*
X74941945Y-62258128D01*
X74961783Y-62221014D01*
X74988481Y-62188481D01*
X75021014Y-62161783D01*
X75058128Y-62141945D01*
X75098396Y-62129729D01*
X75146416Y-62125000D01*
X78703584Y-62125000D01*
X78751604Y-62129729D01*
X78751604Y-62129729D01*
G37*
G36*
X153719649Y-57507598D02*
X154252874Y-57728467D01*
X154732769Y-58049122D01*
X155140878Y-58457231D01*
X155461533Y-58937126D01*
X155682402Y-59470351D01*
X155795000Y-60036419D01*
X155795000Y-60613581D01*
X155682402Y-61179649D01*
X155461533Y-61712874D01*
X155140878Y-62192769D01*
X154732769Y-62600878D01*
X154252874Y-62921533D01*
X153719649Y-63142402D01*
X153153581Y-63255000D01*
X152576419Y-63255000D01*
X152010351Y-63142402D01*
X151477126Y-62921533D01*
X150997231Y-62600878D01*
X150589122Y-62192769D01*
X150268467Y-61712874D01*
X150047598Y-61179649D01*
X149935000Y-60613581D01*
X149935000Y-60036419D01*
X150047598Y-59470351D01*
X150268467Y-58937126D01*
X150589122Y-58457231D01*
X150997231Y-58049122D01*
X151477126Y-57728467D01*
X152010351Y-57507598D01*
X152576419Y-57395000D01*
X153153581Y-57395000D01*
X153719649Y-57507598D01*
X153719649Y-57507598D01*
G37*
G36*
X183014649Y-57442598D02*
X183547874Y-57663467D01*
X184027769Y-57984122D01*
X184435878Y-58392231D01*
X184756533Y-58872126D01*
X184977402Y-59405351D01*
X185090000Y-59971419D01*
X185090000Y-60548581D01*
X184977402Y-61114649D01*
X184756533Y-61647874D01*
X184435878Y-62127769D01*
X184027769Y-62535878D01*
X183547874Y-62856533D01*
X183014649Y-63077402D01*
X182448581Y-63190000D01*
X181871419Y-63190000D01*
X181305351Y-63077402D01*
X180772126Y-62856533D01*
X180292231Y-62535878D01*
X179884122Y-62127769D01*
X179563467Y-61647874D01*
X179342598Y-61114649D01*
X179230000Y-60548581D01*
X179230000Y-59971419D01*
X179342598Y-59405351D01*
X179563467Y-58872126D01*
X179884122Y-58392231D01*
X180292231Y-57984122D01*
X180772126Y-57663467D01*
X181305351Y-57442598D01*
X181871419Y-57330000D01*
X182448581Y-57330000D01*
X183014649Y-57442598D01*
X183014649Y-57442598D01*
G37*
G36*
X133754649Y-57382598D02*
X134287874Y-57603467D01*
X134767769Y-57924122D01*
X135175878Y-58332231D01*
X135496533Y-58812126D01*
X135717402Y-59345351D01*
X135830000Y-59911419D01*
X135830000Y-60488581D01*
X135717402Y-61054649D01*
X135496533Y-61587874D01*
X135175878Y-62067769D01*
X134767769Y-62475878D01*
X134287874Y-62796533D01*
X133754649Y-63017402D01*
X133188581Y-63130000D01*
X132611419Y-63130000D01*
X132045351Y-63017402D01*
X131512126Y-62796533D01*
X131032231Y-62475878D01*
X130624122Y-62067769D01*
X130303467Y-61587874D01*
X130082598Y-61054649D01*
X129970000Y-60488581D01*
X129970000Y-59911419D01*
X130082598Y-59345351D01*
X130303467Y-58812126D01*
X130624122Y-58332231D01*
X131032231Y-57924122D01*
X131512126Y-57603467D01*
X132045351Y-57382598D01*
X132611419Y-57270000D01*
X133188581Y-57270000D01*
X133754649Y-57382598D01*
X133754649Y-57382598D01*
G37*
G36*
X209774649Y-55932598D02*
X210307874Y-56153467D01*
X210787769Y-56474122D01*
X211195878Y-56882231D01*
X211516533Y-57362126D01*
X211737402Y-57895351D01*
X211850000Y-58461419D01*
X211850000Y-59038581D01*
X211737402Y-59604649D01*
X211516533Y-60137874D01*
X211195878Y-60617769D01*
X210787769Y-61025878D01*
X210307874Y-61346533D01*
X209774649Y-61567402D01*
X209208581Y-61680000D01*
X208631419Y-61680000D01*
X208065351Y-61567402D01*
X207532126Y-61346533D01*
X207052231Y-61025878D01*
X206644122Y-60617769D01*
X206323467Y-60137874D01*
X206102598Y-59604649D01*
X205990000Y-59038581D01*
X205990000Y-58461419D01*
X206102598Y-57895351D01*
X206323467Y-57362126D01*
X206644122Y-56882231D01*
X207052231Y-56474122D01*
X207532126Y-56153467D01*
X208065351Y-55932598D01*
X208631419Y-55820000D01*
X209208581Y-55820000D01*
X209774649Y-55932598D01*
X209774649Y-55932598D01*
G37*
G36*
X78040639Y-53340916D02*
X78247986Y-53403815D01*
X78247988Y-53403816D01*
X78439084Y-53505958D01*
X78606581Y-53643419D01*
X78744042Y-53810916D01*
X78846184Y-54002012D01*
X78909084Y-54209362D01*
X78930322Y-54425000D01*
X78909084Y-54640638D01*
X78846184Y-54847988D01*
X78744042Y-55039084D01*
X78606581Y-55206581D01*
X78439084Y-55344042D01*
X78247988Y-55446184D01*
X78247986Y-55446185D01*
X78040639Y-55509084D01*
X77879038Y-55525000D01*
X75970962Y-55525000D01*
X75809361Y-55509084D01*
X75602014Y-55446185D01*
X75602012Y-55446184D01*
X75410916Y-55344042D01*
X75243419Y-55206581D01*
X75105958Y-55039084D01*
X75003816Y-54847988D01*
X74940916Y-54640638D01*
X74919678Y-54425000D01*
X74940916Y-54209362D01*
X75003816Y-54002012D01*
X75105958Y-53810916D01*
X75243419Y-53643419D01*
X75410916Y-53505958D01*
X75602012Y-53403816D01*
X75602014Y-53403815D01*
X75809361Y-53340916D01*
X75970962Y-53325000D01*
X77879038Y-53325000D01*
X78040639Y-53340916D01*
X78040639Y-53340916D01*
G37*
G36*
X151782287Y-50493446D02*
X151875022Y-50511892D01*
X152049731Y-50584259D01*
X152081788Y-50605679D01*
X152206967Y-50689321D01*
X152340679Y-50823033D01*
X152340681Y-50823036D01*
X152445741Y-50980269D01*
X152512169Y-51140639D01*
X152518108Y-51154979D01*
X152555000Y-51340447D01*
X152555000Y-51529553D01*
X152553104Y-51539084D01*
X152518108Y-51715022D01*
X152445741Y-51889731D01*
X152384113Y-51981964D01*
X152340679Y-52046967D01*
X152206967Y-52180679D01*
X152206964Y-52180681D01*
X152049731Y-52285741D01*
X151875022Y-52358108D01*
X151782287Y-52376554D01*
X151689553Y-52395000D01*
X151500447Y-52395000D01*
X151407713Y-52376554D01*
X151314978Y-52358108D01*
X151140269Y-52285741D01*
X150983036Y-52180681D01*
X150983033Y-52180679D01*
X150849321Y-52046967D01*
X150805887Y-51981964D01*
X150744259Y-51889731D01*
X150671892Y-51715022D01*
X150636896Y-51539084D01*
X150635000Y-51529553D01*
X150635000Y-51340447D01*
X150671892Y-51154979D01*
X150677832Y-51140639D01*
X150744259Y-50980269D01*
X150849319Y-50823036D01*
X150849321Y-50823033D01*
X150983033Y-50689321D01*
X151108212Y-50605679D01*
X151140269Y-50584259D01*
X151314978Y-50511892D01*
X151407713Y-50493446D01*
X151500447Y-50475000D01*
X151689553Y-50475000D01*
X151782287Y-50493446D01*
X151782287Y-50493446D01*
G37*
G36*
X154322287Y-50493446D02*
X154415022Y-50511892D01*
X154589731Y-50584259D01*
X154621788Y-50605679D01*
X154746967Y-50689321D01*
X154880679Y-50823033D01*
X154880681Y-50823036D01*
X154985741Y-50980269D01*
X155052169Y-51140639D01*
X155058108Y-51154979D01*
X155095000Y-51340447D01*
X155095000Y-51529553D01*
X155093104Y-51539084D01*
X155058108Y-51715022D01*
X154985741Y-51889731D01*
X154924113Y-51981964D01*
X154880679Y-52046967D01*
X154746967Y-52180679D01*
X154746964Y-52180681D01*
X154589731Y-52285741D01*
X154415022Y-52358108D01*
X154322287Y-52376554D01*
X154229553Y-52395000D01*
X154040447Y-52395000D01*
X153947713Y-52376554D01*
X153854978Y-52358108D01*
X153680269Y-52285741D01*
X153523036Y-52180681D01*
X153523033Y-52180679D01*
X153389321Y-52046967D01*
X153345887Y-51981964D01*
X153284259Y-51889731D01*
X153211892Y-51715022D01*
X153176896Y-51539084D01*
X153175000Y-51529553D01*
X153175000Y-51340447D01*
X153211892Y-51154979D01*
X153217832Y-51140639D01*
X153284259Y-50980269D01*
X153389319Y-50823036D01*
X153389321Y-50823033D01*
X153523033Y-50689321D01*
X153648212Y-50605679D01*
X153680269Y-50584259D01*
X153854978Y-50511892D01*
X153947713Y-50493446D01*
X154040447Y-50475000D01*
X154229553Y-50475000D01*
X154322287Y-50493446D01*
X154322287Y-50493446D01*
G37*
G36*
X181077287Y-50428446D02*
X181170022Y-50446892D01*
X181344731Y-50519259D01*
X181442010Y-50584259D01*
X181501967Y-50624321D01*
X181635679Y-50758033D01*
X181635681Y-50758036D01*
X181740741Y-50915269D01*
X181813108Y-51089978D01*
X181850000Y-51275448D01*
X181850000Y-51464552D01*
X181813108Y-51650022D01*
X181740741Y-51824731D01*
X181697309Y-51889731D01*
X181635679Y-51981967D01*
X181501967Y-52115679D01*
X181501964Y-52115681D01*
X181344731Y-52220741D01*
X181344730Y-52220742D01*
X181344729Y-52220742D01*
X181293559Y-52241937D01*
X181170022Y-52293108D01*
X181077287Y-52311554D01*
X180984553Y-52330000D01*
X180795447Y-52330000D01*
X180702713Y-52311554D01*
X180609978Y-52293108D01*
X180486441Y-52241937D01*
X180435271Y-52220742D01*
X180435270Y-52220742D01*
X180435269Y-52220741D01*
X180278036Y-52115681D01*
X180278033Y-52115679D01*
X180144321Y-51981967D01*
X180082691Y-51889731D01*
X180039259Y-51824731D01*
X179966892Y-51650022D01*
X179930000Y-51464552D01*
X179930000Y-51275448D01*
X179966892Y-51089978D01*
X180039259Y-50915269D01*
X180144319Y-50758036D01*
X180144321Y-50758033D01*
X180278033Y-50624321D01*
X180337990Y-50584259D01*
X180435269Y-50519259D01*
X180609978Y-50446892D01*
X180702713Y-50428446D01*
X180795447Y-50410000D01*
X180984553Y-50410000D01*
X181077287Y-50428446D01*
X181077287Y-50428446D01*
G37*
G36*
X183617287Y-50428446D02*
X183710022Y-50446892D01*
X183884731Y-50519259D01*
X183982010Y-50584259D01*
X184041967Y-50624321D01*
X184175679Y-50758033D01*
X184175681Y-50758036D01*
X184280741Y-50915269D01*
X184353108Y-51089978D01*
X184390000Y-51275448D01*
X184390000Y-51464552D01*
X184353108Y-51650022D01*
X184280741Y-51824731D01*
X184237309Y-51889731D01*
X184175679Y-51981967D01*
X184041967Y-52115679D01*
X184041964Y-52115681D01*
X183884731Y-52220741D01*
X183884730Y-52220742D01*
X183884729Y-52220742D01*
X183833559Y-52241937D01*
X183710022Y-52293108D01*
X183617287Y-52311554D01*
X183524553Y-52330000D01*
X183335447Y-52330000D01*
X183242713Y-52311554D01*
X183149978Y-52293108D01*
X183026441Y-52241937D01*
X182975271Y-52220742D01*
X182975270Y-52220742D01*
X182975269Y-52220741D01*
X182818036Y-52115681D01*
X182818033Y-52115679D01*
X182684321Y-51981967D01*
X182622691Y-51889731D01*
X182579259Y-51824731D01*
X182506892Y-51650022D01*
X182470000Y-51464552D01*
X182470000Y-51275448D01*
X182506892Y-51089978D01*
X182579259Y-50915269D01*
X182684319Y-50758036D01*
X182684321Y-50758033D01*
X182818033Y-50624321D01*
X182877990Y-50584259D01*
X182975269Y-50519259D01*
X183149978Y-50446892D01*
X183242713Y-50428446D01*
X183335447Y-50410000D01*
X183524553Y-50410000D01*
X183617287Y-50428446D01*
X183617287Y-50428446D01*
G37*
G36*
X134357287Y-50368446D02*
X134450022Y-50386892D01*
X134573559Y-50438063D01*
X134594875Y-50446892D01*
X134624731Y-50459259D01*
X134714527Y-50519259D01*
X134781967Y-50564321D01*
X134915679Y-50698033D01*
X134915681Y-50698036D01*
X135020741Y-50855269D01*
X135072519Y-50980271D01*
X135093108Y-51029979D01*
X135115120Y-51140638D01*
X135130000Y-51215448D01*
X135130000Y-51404552D01*
X135093108Y-51590022D01*
X135020741Y-51764731D01*
X134980650Y-51824731D01*
X134915679Y-51921967D01*
X134781967Y-52055679D01*
X134781964Y-52055681D01*
X134624731Y-52160741D01*
X134450022Y-52233108D01*
X134357287Y-52251554D01*
X134264553Y-52270000D01*
X134075447Y-52270000D01*
X133982713Y-52251554D01*
X133889978Y-52233108D01*
X133715269Y-52160741D01*
X133558036Y-52055681D01*
X133558033Y-52055679D01*
X133424321Y-51921967D01*
X133359350Y-51824731D01*
X133319259Y-51764731D01*
X133246892Y-51590022D01*
X133210000Y-51404552D01*
X133210000Y-51215448D01*
X133224881Y-51140638D01*
X133246892Y-51029979D01*
X133267482Y-50980271D01*
X133319259Y-50855269D01*
X133424319Y-50698036D01*
X133424321Y-50698033D01*
X133558033Y-50564321D01*
X133625473Y-50519259D01*
X133715269Y-50459259D01*
X133745126Y-50446892D01*
X133766441Y-50438063D01*
X133889978Y-50386892D01*
X133982713Y-50368446D01*
X134075447Y-50350000D01*
X134264553Y-50350000D01*
X134357287Y-50368446D01*
X134357287Y-50368446D01*
G37*
G36*
X131817287Y-50368446D02*
X131910022Y-50386892D01*
X132033559Y-50438063D01*
X132054875Y-50446892D01*
X132084731Y-50459259D01*
X132174527Y-50519259D01*
X132241967Y-50564321D01*
X132375679Y-50698033D01*
X132375681Y-50698036D01*
X132480741Y-50855269D01*
X132532519Y-50980271D01*
X132553108Y-51029979D01*
X132575120Y-51140638D01*
X132590000Y-51215448D01*
X132590000Y-51404552D01*
X132553108Y-51590022D01*
X132480741Y-51764731D01*
X132440650Y-51824731D01*
X132375679Y-51921967D01*
X132241967Y-52055679D01*
X132241964Y-52055681D01*
X132084731Y-52160741D01*
X131910022Y-52233108D01*
X131817287Y-52251554D01*
X131724553Y-52270000D01*
X131535447Y-52270000D01*
X131442713Y-52251554D01*
X131349978Y-52233108D01*
X131175269Y-52160741D01*
X131018036Y-52055681D01*
X131018033Y-52055679D01*
X130884321Y-51921967D01*
X130819350Y-51824731D01*
X130779259Y-51764731D01*
X130706892Y-51590022D01*
X130670000Y-51404552D01*
X130670000Y-51215448D01*
X130684881Y-51140638D01*
X130706892Y-51029979D01*
X130727482Y-50980271D01*
X130779259Y-50855269D01*
X130884319Y-50698036D01*
X130884321Y-50698033D01*
X131018033Y-50564321D01*
X131085473Y-50519259D01*
X131175269Y-50459259D01*
X131205126Y-50446892D01*
X131226441Y-50438063D01*
X131349978Y-50386892D01*
X131442713Y-50368446D01*
X131535447Y-50350000D01*
X131724553Y-50350000D01*
X131817287Y-50368446D01*
X131817287Y-50368446D01*
G37*
G36*
X78040639Y-49840916D02*
X78247986Y-49903815D01*
X78247988Y-49903816D01*
X78439084Y-50005958D01*
X78606581Y-50143419D01*
X78744042Y-50310916D01*
X78823332Y-50459259D01*
X78846185Y-50502014D01*
X78909084Y-50709361D01*
X78930322Y-50925000D01*
X78909084Y-51140639D01*
X78848472Y-51340448D01*
X78846184Y-51347988D01*
X78744042Y-51539084D01*
X78606581Y-51706581D01*
X78439084Y-51844042D01*
X78293295Y-51921967D01*
X78247986Y-51946185D01*
X78040639Y-52009084D01*
X77879038Y-52025000D01*
X75970962Y-52025000D01*
X75809361Y-52009084D01*
X75602014Y-51946185D01*
X75556705Y-51921967D01*
X75410916Y-51844042D01*
X75243419Y-51706581D01*
X75105958Y-51539084D01*
X75003816Y-51347988D01*
X75001529Y-51340448D01*
X74940916Y-51140639D01*
X74919678Y-50925000D01*
X74940916Y-50709361D01*
X75003815Y-50502014D01*
X75026668Y-50459259D01*
X75105958Y-50310916D01*
X75243419Y-50143419D01*
X75410916Y-50005958D01*
X75602012Y-49903816D01*
X75602014Y-49903815D01*
X75809361Y-49840916D01*
X75970962Y-49825000D01*
X77879038Y-49825000D01*
X78040639Y-49840916D01*
X78040639Y-49840916D01*
G37*
G36*
X207837287Y-48918446D02*
X207930022Y-48936892D01*
X208104731Y-49009259D01*
X208165735Y-49050021D01*
X208261967Y-49114321D01*
X208395679Y-49248033D01*
X208395681Y-49248036D01*
X208500741Y-49405269D01*
X208542865Y-49506964D01*
X208573108Y-49579979D01*
X208610000Y-49765447D01*
X208610000Y-49954553D01*
X208573108Y-50140021D01*
X208500742Y-50314729D01*
X208395679Y-50471967D01*
X208261967Y-50605679D01*
X208261964Y-50605681D01*
X208104731Y-50710741D01*
X207930022Y-50783108D01*
X207837287Y-50801554D01*
X207744553Y-50820000D01*
X207555447Y-50820000D01*
X207462713Y-50801554D01*
X207369978Y-50783108D01*
X207195269Y-50710741D01*
X207038036Y-50605681D01*
X207038033Y-50605679D01*
X206904321Y-50471967D01*
X206799258Y-50314729D01*
X206726892Y-50140021D01*
X206690000Y-49954553D01*
X206690000Y-49765447D01*
X206726892Y-49579979D01*
X206757136Y-49506964D01*
X206799259Y-49405269D01*
X206904319Y-49248036D01*
X206904321Y-49248033D01*
X207038033Y-49114321D01*
X207134265Y-49050021D01*
X207195269Y-49009259D01*
X207369978Y-48936892D01*
X207462713Y-48918446D01*
X207555447Y-48900000D01*
X207744553Y-48900000D01*
X207837287Y-48918446D01*
X207837287Y-48918446D01*
G37*
G36*
X210377287Y-48918446D02*
X210470022Y-48936892D01*
X210644731Y-49009259D01*
X210705735Y-49050021D01*
X210801967Y-49114321D01*
X210935679Y-49248033D01*
X210935681Y-49248036D01*
X211040741Y-49405269D01*
X211082865Y-49506964D01*
X211113108Y-49579979D01*
X211150000Y-49765447D01*
X211150000Y-49954553D01*
X211113108Y-50140021D01*
X211040742Y-50314729D01*
X210935679Y-50471967D01*
X210801967Y-50605679D01*
X210801964Y-50605681D01*
X210644731Y-50710741D01*
X210470022Y-50783108D01*
X210377287Y-50801554D01*
X210284553Y-50820000D01*
X210095447Y-50820000D01*
X210002713Y-50801554D01*
X209909978Y-50783108D01*
X209735269Y-50710741D01*
X209578036Y-50605681D01*
X209578033Y-50605679D01*
X209444321Y-50471967D01*
X209339258Y-50314729D01*
X209266892Y-50140021D01*
X209230000Y-49954553D01*
X209230000Y-49765447D01*
X209266892Y-49579979D01*
X209297136Y-49506964D01*
X209339259Y-49405269D01*
X209444319Y-49248036D01*
X209444321Y-49248033D01*
X209578033Y-49114321D01*
X209674265Y-49050021D01*
X209735269Y-49009259D01*
X209909978Y-48936892D01*
X210002713Y-48918446D01*
X210095447Y-48900000D01*
X210284553Y-48900000D01*
X210377287Y-48918446D01*
X210377287Y-48918446D01*
G37*
G36*
X151782287Y-47953446D02*
X151875022Y-47971892D01*
X151892807Y-47979259D01*
X152037238Y-48039084D01*
X152049731Y-48044259D01*
X152081788Y-48065679D01*
X152206967Y-48149321D01*
X152340679Y-48283033D01*
X152340681Y-48283036D01*
X152402311Y-48375271D01*
X152445742Y-48440271D01*
X152466331Y-48489978D01*
X152518108Y-48614978D01*
X152555000Y-48800448D01*
X152555000Y-48989552D01*
X152518108Y-49175022D01*
X152445741Y-49349731D01*
X152408630Y-49405271D01*
X152340679Y-49506967D01*
X152206967Y-49640679D01*
X152206964Y-49640681D01*
X152049731Y-49745741D01*
X151875022Y-49818108D01*
X151840373Y-49825000D01*
X151689553Y-49855000D01*
X151500447Y-49855000D01*
X151349627Y-49825000D01*
X151314978Y-49818108D01*
X151140269Y-49745741D01*
X150983036Y-49640681D01*
X150983033Y-49640679D01*
X150849321Y-49506967D01*
X150781370Y-49405271D01*
X150744259Y-49349731D01*
X150671892Y-49175022D01*
X150635000Y-48989552D01*
X150635000Y-48800448D01*
X150671892Y-48614978D01*
X150723669Y-48489978D01*
X150744258Y-48440271D01*
X150787690Y-48375271D01*
X150849319Y-48283036D01*
X150849321Y-48283033D01*
X150983033Y-48149321D01*
X151108212Y-48065679D01*
X151140269Y-48044259D01*
X151152763Y-48039084D01*
X151297193Y-47979259D01*
X151314978Y-47971892D01*
X151407713Y-47953446D01*
X151500447Y-47935000D01*
X151689553Y-47935000D01*
X151782287Y-47953446D01*
X151782287Y-47953446D01*
G37*
G36*
X154322287Y-47953446D02*
X154415022Y-47971892D01*
X154432807Y-47979259D01*
X154577238Y-48039084D01*
X154589731Y-48044259D01*
X154621788Y-48065679D01*
X154746967Y-48149321D01*
X154880679Y-48283033D01*
X154880681Y-48283036D01*
X154942311Y-48375271D01*
X154985742Y-48440271D01*
X155006331Y-48489978D01*
X155058108Y-48614978D01*
X155095000Y-48800448D01*
X155095000Y-48989552D01*
X155058108Y-49175022D01*
X154985741Y-49349731D01*
X154948630Y-49405271D01*
X154880679Y-49506967D01*
X154746967Y-49640679D01*
X154746964Y-49640681D01*
X154589731Y-49745741D01*
X154415022Y-49818108D01*
X154380373Y-49825000D01*
X154229553Y-49855000D01*
X154040447Y-49855000D01*
X153889627Y-49825000D01*
X153854978Y-49818108D01*
X153680269Y-49745741D01*
X153523036Y-49640681D01*
X153523033Y-49640679D01*
X153389321Y-49506967D01*
X153321370Y-49405271D01*
X153284259Y-49349731D01*
X153211892Y-49175022D01*
X153175000Y-48989552D01*
X153175000Y-48800448D01*
X153211892Y-48614978D01*
X153263669Y-48489978D01*
X153284258Y-48440271D01*
X153327690Y-48375271D01*
X153389319Y-48283036D01*
X153389321Y-48283033D01*
X153523033Y-48149321D01*
X153648212Y-48065679D01*
X153680269Y-48044259D01*
X153692763Y-48039084D01*
X153837193Y-47979259D01*
X153854978Y-47971892D01*
X153947713Y-47953446D01*
X154040447Y-47935000D01*
X154229553Y-47935000D01*
X154322287Y-47953446D01*
X154322287Y-47953446D01*
G37*
G36*
X181077287Y-47888446D02*
X181170022Y-47906892D01*
X181344731Y-47979259D01*
X181442010Y-48044259D01*
X181501967Y-48084321D01*
X181635679Y-48218033D01*
X181635681Y-48218036D01*
X181740741Y-48375269D01*
X181802762Y-48525000D01*
X181813108Y-48549979D01*
X181850000Y-48735447D01*
X181850000Y-48924553D01*
X181837071Y-48989552D01*
X181813108Y-49110022D01*
X181740741Y-49284731D01*
X181637079Y-49439872D01*
X181635679Y-49441967D01*
X181501967Y-49575679D01*
X181501964Y-49575681D01*
X181344731Y-49680741D01*
X181344730Y-49680742D01*
X181344729Y-49680742D01*
X181293559Y-49701937D01*
X181170022Y-49753108D01*
X181107989Y-49765447D01*
X180984553Y-49790000D01*
X180795447Y-49790000D01*
X180672011Y-49765447D01*
X180609978Y-49753108D01*
X180486441Y-49701937D01*
X180435271Y-49680742D01*
X180435270Y-49680742D01*
X180435269Y-49680741D01*
X180278036Y-49575681D01*
X180278033Y-49575679D01*
X180144321Y-49441967D01*
X180142921Y-49439872D01*
X180039259Y-49284731D01*
X179966892Y-49110022D01*
X179942929Y-48989552D01*
X179930000Y-48924553D01*
X179930000Y-48735447D01*
X179966892Y-48549979D01*
X179977239Y-48525000D01*
X180039259Y-48375269D01*
X180144319Y-48218036D01*
X180144321Y-48218033D01*
X180278033Y-48084321D01*
X180337990Y-48044259D01*
X180435269Y-47979259D01*
X180609978Y-47906892D01*
X180702713Y-47888446D01*
X180795447Y-47870000D01*
X180984553Y-47870000D01*
X181077287Y-47888446D01*
X181077287Y-47888446D01*
G37*
G36*
X183617287Y-47888446D02*
X183710022Y-47906892D01*
X183884731Y-47979259D01*
X183982010Y-48044259D01*
X184041967Y-48084321D01*
X184175679Y-48218033D01*
X184175681Y-48218036D01*
X184280741Y-48375269D01*
X184342762Y-48525000D01*
X184353108Y-48549979D01*
X184390000Y-48735447D01*
X184390000Y-48924553D01*
X184377071Y-48989552D01*
X184353108Y-49110022D01*
X184280741Y-49284731D01*
X184177079Y-49439872D01*
X184175679Y-49441967D01*
X184041967Y-49575679D01*
X184041964Y-49575681D01*
X183884731Y-49680741D01*
X183884730Y-49680742D01*
X183884729Y-49680742D01*
X183833559Y-49701937D01*
X183710022Y-49753108D01*
X183647989Y-49765447D01*
X183524553Y-49790000D01*
X183335447Y-49790000D01*
X183212011Y-49765447D01*
X183149978Y-49753108D01*
X183026441Y-49701937D01*
X182975271Y-49680742D01*
X182975270Y-49680742D01*
X182975269Y-49680741D01*
X182818036Y-49575681D01*
X182818033Y-49575679D01*
X182684321Y-49441967D01*
X182682921Y-49439872D01*
X182579259Y-49284731D01*
X182506892Y-49110022D01*
X182482929Y-48989552D01*
X182470000Y-48924553D01*
X182470000Y-48735447D01*
X182506892Y-48549979D01*
X182517239Y-48525000D01*
X182579259Y-48375269D01*
X182684319Y-48218036D01*
X182684321Y-48218033D01*
X182818033Y-48084321D01*
X182877990Y-48044259D01*
X182975269Y-47979259D01*
X183149978Y-47906892D01*
X183242713Y-47888446D01*
X183335447Y-47870000D01*
X183524553Y-47870000D01*
X183617287Y-47888446D01*
X183617287Y-47888446D01*
G37*
G36*
X134357287Y-47828446D02*
X134450022Y-47846892D01*
X134573559Y-47898063D01*
X134594875Y-47906892D01*
X134624731Y-47919259D01*
X134714527Y-47979259D01*
X134781967Y-48024321D01*
X134915679Y-48158033D01*
X134915681Y-48158036D01*
X135020741Y-48315269D01*
X135093108Y-48489978D01*
X135130000Y-48675448D01*
X135130000Y-48864552D01*
X135093108Y-49050022D01*
X135020741Y-49224731D01*
X134980650Y-49284731D01*
X134915679Y-49381967D01*
X134781967Y-49515679D01*
X134781964Y-49515681D01*
X134624731Y-49620741D01*
X134450022Y-49693108D01*
X134357287Y-49711554D01*
X134264553Y-49730000D01*
X134075447Y-49730000D01*
X133982713Y-49711554D01*
X133889978Y-49693108D01*
X133715269Y-49620741D01*
X133558036Y-49515681D01*
X133558033Y-49515679D01*
X133424321Y-49381967D01*
X133359350Y-49284731D01*
X133319259Y-49224731D01*
X133246892Y-49050022D01*
X133210000Y-48864552D01*
X133210000Y-48675448D01*
X133246892Y-48489978D01*
X133319259Y-48315269D01*
X133424319Y-48158036D01*
X133424321Y-48158033D01*
X133558033Y-48024321D01*
X133625473Y-47979259D01*
X133715269Y-47919259D01*
X133745126Y-47906892D01*
X133766441Y-47898063D01*
X133889978Y-47846892D01*
X133982713Y-47828446D01*
X134075447Y-47810000D01*
X134264553Y-47810000D01*
X134357287Y-47828446D01*
X134357287Y-47828446D01*
G37*
G36*
X131817287Y-47828446D02*
X131910022Y-47846892D01*
X132033559Y-47898063D01*
X132054875Y-47906892D01*
X132084731Y-47919259D01*
X132174527Y-47979259D01*
X132241967Y-48024321D01*
X132375679Y-48158033D01*
X132375681Y-48158036D01*
X132480741Y-48315269D01*
X132553108Y-48489978D01*
X132590000Y-48675448D01*
X132590000Y-48864552D01*
X132553108Y-49050022D01*
X132480741Y-49224731D01*
X132440650Y-49284731D01*
X132375679Y-49381967D01*
X132241967Y-49515679D01*
X132241964Y-49515681D01*
X132084731Y-49620741D01*
X131910022Y-49693108D01*
X131817287Y-49711554D01*
X131724553Y-49730000D01*
X131535447Y-49730000D01*
X131442713Y-49711554D01*
X131349978Y-49693108D01*
X131175269Y-49620741D01*
X131018036Y-49515681D01*
X131018033Y-49515679D01*
X130884321Y-49381967D01*
X130819350Y-49284731D01*
X130779259Y-49224731D01*
X130706892Y-49050022D01*
X130670000Y-48864552D01*
X130670000Y-48675448D01*
X130706892Y-48489978D01*
X130779259Y-48315269D01*
X130884319Y-48158036D01*
X130884321Y-48158033D01*
X131018033Y-48024321D01*
X131085473Y-47979259D01*
X131175269Y-47919259D01*
X131205126Y-47906892D01*
X131226441Y-47898063D01*
X131349978Y-47846892D01*
X131442713Y-47828446D01*
X131535447Y-47810000D01*
X131724553Y-47810000D01*
X131817287Y-47828446D01*
X131817287Y-47828446D01*
G37*
G36*
X78040639Y-46340916D02*
X78247986Y-46403815D01*
X78247988Y-46403816D01*
X78439084Y-46505958D01*
X78606581Y-46643419D01*
X78744042Y-46810916D01*
X78827452Y-46966967D01*
X78846185Y-47002014D01*
X78909084Y-47209361D01*
X78930322Y-47425000D01*
X78909084Y-47640639D01*
X78846517Y-47846892D01*
X78846184Y-47847988D01*
X78744042Y-48039084D01*
X78606581Y-48206581D01*
X78439084Y-48344042D01*
X78247988Y-48446184D01*
X78247986Y-48446185D01*
X78040639Y-48509084D01*
X77879038Y-48525000D01*
X75970962Y-48525000D01*
X75809361Y-48509084D01*
X75602014Y-48446185D01*
X75602012Y-48446184D01*
X75410916Y-48344042D01*
X75243419Y-48206581D01*
X75105958Y-48039084D01*
X75003816Y-47847988D01*
X75003484Y-47846892D01*
X74940916Y-47640639D01*
X74919678Y-47425000D01*
X74940916Y-47209361D01*
X75003815Y-47002014D01*
X75022548Y-46966967D01*
X75105958Y-46810916D01*
X75243419Y-46643419D01*
X75410916Y-46505958D01*
X75602012Y-46403816D01*
X75602014Y-46403815D01*
X75809361Y-46340916D01*
X75970962Y-46325000D01*
X77879038Y-46325000D01*
X78040639Y-46340916D01*
X78040639Y-46340916D01*
G37*
G36*
X210377287Y-46378446D02*
X210470022Y-46396892D01*
X210644731Y-46469259D01*
X210705735Y-46510021D01*
X210801967Y-46574321D01*
X210935679Y-46708033D01*
X210935681Y-46708036D01*
X211040741Y-46865269D01*
X211097383Y-47002014D01*
X211113108Y-47039979D01*
X211150000Y-47225447D01*
X211150000Y-47414553D01*
X211113108Y-47600021D01*
X211040742Y-47774729D01*
X210935679Y-47931967D01*
X210801967Y-48065679D01*
X210801964Y-48065681D01*
X210644731Y-48170741D01*
X210470022Y-48243108D01*
X210377287Y-48261554D01*
X210284553Y-48280000D01*
X210095447Y-48280000D01*
X210002713Y-48261554D01*
X209909978Y-48243108D01*
X209735269Y-48170741D01*
X209578036Y-48065681D01*
X209578033Y-48065679D01*
X209444321Y-47931967D01*
X209339258Y-47774729D01*
X209266892Y-47600021D01*
X209230000Y-47414553D01*
X209230000Y-47225447D01*
X209266892Y-47039979D01*
X209282618Y-47002014D01*
X209339259Y-46865269D01*
X209444319Y-46708036D01*
X209444321Y-46708033D01*
X209578033Y-46574321D01*
X209674265Y-46510021D01*
X209735269Y-46469259D01*
X209909978Y-46396892D01*
X210002713Y-46378446D01*
X210095447Y-46360000D01*
X210284553Y-46360000D01*
X210377287Y-46378446D01*
X210377287Y-46378446D01*
G37*
G36*
X207837287Y-46378446D02*
X207930022Y-46396892D01*
X208104731Y-46469259D01*
X208165735Y-46510021D01*
X208261967Y-46574321D01*
X208395679Y-46708033D01*
X208395681Y-46708036D01*
X208500741Y-46865269D01*
X208557383Y-47002014D01*
X208573108Y-47039979D01*
X208610000Y-47225447D01*
X208610000Y-47414553D01*
X208573108Y-47600021D01*
X208500742Y-47774729D01*
X208395679Y-47931967D01*
X208261967Y-48065679D01*
X208261964Y-48065681D01*
X208104731Y-48170741D01*
X207930022Y-48243108D01*
X207837287Y-48261554D01*
X207744553Y-48280000D01*
X207555447Y-48280000D01*
X207462713Y-48261554D01*
X207369978Y-48243108D01*
X207195269Y-48170741D01*
X207038036Y-48065681D01*
X207038033Y-48065679D01*
X206904321Y-47931967D01*
X206799258Y-47774729D01*
X206726892Y-47600021D01*
X206690000Y-47414553D01*
X206690000Y-47225447D01*
X206726892Y-47039979D01*
X206742618Y-47002014D01*
X206799259Y-46865269D01*
X206904319Y-46708036D01*
X206904321Y-46708033D01*
X207038033Y-46574321D01*
X207134265Y-46510021D01*
X207195269Y-46469259D01*
X207369978Y-46396892D01*
X207462713Y-46378446D01*
X207555447Y-46360000D01*
X207744553Y-46360000D01*
X207837287Y-46378446D01*
X207837287Y-46378446D01*
G37*
G36*
X154322287Y-45413446D02*
X154415022Y-45431892D01*
X154589731Y-45504259D01*
X154621788Y-45525679D01*
X154746967Y-45609321D01*
X154880679Y-45743033D01*
X154880681Y-45743036D01*
X154985741Y-45900269D01*
X155058108Y-46074978D01*
X155095000Y-46260448D01*
X155095000Y-46449552D01*
X155058108Y-46635022D01*
X154985741Y-46809731D01*
X154948630Y-46865271D01*
X154880679Y-46966967D01*
X154746967Y-47100679D01*
X154746964Y-47100681D01*
X154589731Y-47205741D01*
X154415022Y-47278108D01*
X154322287Y-47296554D01*
X154229553Y-47315000D01*
X154040447Y-47315000D01*
X153947713Y-47296554D01*
X153854978Y-47278108D01*
X153680269Y-47205741D01*
X153523036Y-47100681D01*
X153523033Y-47100679D01*
X153389321Y-46966967D01*
X153321370Y-46865271D01*
X153284259Y-46809731D01*
X153211892Y-46635022D01*
X153175000Y-46449552D01*
X153175000Y-46260448D01*
X153211892Y-46074978D01*
X153284259Y-45900269D01*
X153389319Y-45743036D01*
X153389321Y-45743033D01*
X153523033Y-45609321D01*
X153648212Y-45525679D01*
X153680269Y-45504259D01*
X153854978Y-45431892D01*
X153947713Y-45413446D01*
X154040447Y-45395000D01*
X154229553Y-45395000D01*
X154322287Y-45413446D01*
X154322287Y-45413446D01*
G37*
G36*
X151782287Y-45413446D02*
X151875022Y-45431892D01*
X152049731Y-45504259D01*
X152081788Y-45525679D01*
X152206967Y-45609321D01*
X152340679Y-45743033D01*
X152340681Y-45743036D01*
X152445741Y-45900269D01*
X152518108Y-46074978D01*
X152555000Y-46260448D01*
X152555000Y-46449552D01*
X152518108Y-46635022D01*
X152445741Y-46809731D01*
X152408630Y-46865271D01*
X152340679Y-46966967D01*
X152206967Y-47100679D01*
X152206964Y-47100681D01*
X152049731Y-47205741D01*
X151875022Y-47278108D01*
X151782287Y-47296554D01*
X151689553Y-47315000D01*
X151500447Y-47315000D01*
X151407713Y-47296554D01*
X151314978Y-47278108D01*
X151140269Y-47205741D01*
X150983036Y-47100681D01*
X150983033Y-47100679D01*
X150849321Y-46966967D01*
X150781370Y-46865271D01*
X150744259Y-46809731D01*
X150671892Y-46635022D01*
X150635000Y-46449552D01*
X150635000Y-46260448D01*
X150671892Y-46074978D01*
X150744259Y-45900269D01*
X150849319Y-45743036D01*
X150849321Y-45743033D01*
X150983033Y-45609321D01*
X151108212Y-45525679D01*
X151140269Y-45504259D01*
X151314978Y-45431892D01*
X151407713Y-45413446D01*
X151500447Y-45395000D01*
X151689553Y-45395000D01*
X151782287Y-45413446D01*
X151782287Y-45413446D01*
G37*
G36*
X183617287Y-45348446D02*
X183710022Y-45366892D01*
X183884731Y-45439259D01*
X183982010Y-45504259D01*
X184041967Y-45544321D01*
X184175679Y-45678033D01*
X184175681Y-45678036D01*
X184280741Y-45835269D01*
X184328256Y-45949979D01*
X184353108Y-46009979D01*
X184390000Y-46195447D01*
X184390000Y-46384553D01*
X184386168Y-46403816D01*
X184353108Y-46570022D01*
X184280741Y-46744731D01*
X184177079Y-46899872D01*
X184175679Y-46901967D01*
X184041967Y-47035679D01*
X184041964Y-47035681D01*
X183884731Y-47140741D01*
X183884730Y-47140742D01*
X183884729Y-47140742D01*
X183833559Y-47161937D01*
X183710022Y-47213108D01*
X183647989Y-47225447D01*
X183524553Y-47250000D01*
X183335447Y-47250000D01*
X183212011Y-47225447D01*
X183149978Y-47213108D01*
X183026441Y-47161937D01*
X182975271Y-47140742D01*
X182975270Y-47140742D01*
X182975269Y-47140741D01*
X182818036Y-47035681D01*
X182818033Y-47035679D01*
X182684321Y-46901967D01*
X182682921Y-46899872D01*
X182579259Y-46744731D01*
X182506892Y-46570022D01*
X182473832Y-46403816D01*
X182470000Y-46384553D01*
X182470000Y-46195447D01*
X182506892Y-46009979D01*
X182531745Y-45949979D01*
X182579259Y-45835269D01*
X182684319Y-45678036D01*
X182684321Y-45678033D01*
X182818033Y-45544321D01*
X182877990Y-45504259D01*
X182975269Y-45439259D01*
X183149978Y-45366892D01*
X183242713Y-45348446D01*
X183335447Y-45330000D01*
X183524553Y-45330000D01*
X183617287Y-45348446D01*
X183617287Y-45348446D01*
G37*
G36*
X181077287Y-45348446D02*
X181170022Y-45366892D01*
X181344731Y-45439259D01*
X181442010Y-45504259D01*
X181501967Y-45544321D01*
X181635679Y-45678033D01*
X181635681Y-45678036D01*
X181740741Y-45835269D01*
X181788256Y-45949979D01*
X181813108Y-46009979D01*
X181850000Y-46195447D01*
X181850000Y-46384553D01*
X181846168Y-46403816D01*
X181813108Y-46570022D01*
X181740741Y-46744731D01*
X181637079Y-46899872D01*
X181635679Y-46901967D01*
X181501967Y-47035679D01*
X181501964Y-47035681D01*
X181344731Y-47140741D01*
X181344730Y-47140742D01*
X181344729Y-47140742D01*
X181293559Y-47161937D01*
X181170022Y-47213108D01*
X181107989Y-47225447D01*
X180984553Y-47250000D01*
X180795447Y-47250000D01*
X180672011Y-47225447D01*
X180609978Y-47213108D01*
X180486441Y-47161937D01*
X180435271Y-47140742D01*
X180435270Y-47140742D01*
X180435269Y-47140741D01*
X180278036Y-47035681D01*
X180278033Y-47035679D01*
X180144321Y-46901967D01*
X180142921Y-46899872D01*
X180039259Y-46744731D01*
X179966892Y-46570022D01*
X179933832Y-46403816D01*
X179930000Y-46384553D01*
X179930000Y-46195447D01*
X179966892Y-46009979D01*
X179991745Y-45949979D01*
X180039259Y-45835269D01*
X180144319Y-45678036D01*
X180144321Y-45678033D01*
X180278033Y-45544321D01*
X180337990Y-45504259D01*
X180435269Y-45439259D01*
X180609978Y-45366892D01*
X180702713Y-45348446D01*
X180795447Y-45330000D01*
X180984553Y-45330000D01*
X181077287Y-45348446D01*
X181077287Y-45348446D01*
G37*
G36*
X131817287Y-45288446D02*
X131910022Y-45306892D01*
X132033559Y-45358063D01*
X132054875Y-45366892D01*
X132084731Y-45379259D01*
X132174527Y-45439259D01*
X132241967Y-45484321D01*
X132375679Y-45618033D01*
X132375681Y-45618036D01*
X132480741Y-45775269D01*
X132553108Y-45949978D01*
X132590000Y-46135448D01*
X132590000Y-46324552D01*
X132553108Y-46510022D01*
X132480741Y-46684731D01*
X132440650Y-46744731D01*
X132375679Y-46841967D01*
X132241967Y-46975679D01*
X132241964Y-46975681D01*
X132084731Y-47080741D01*
X131910022Y-47153108D01*
X131817287Y-47171554D01*
X131724553Y-47190000D01*
X131535447Y-47190000D01*
X131442713Y-47171554D01*
X131349978Y-47153108D01*
X131175269Y-47080741D01*
X131018036Y-46975681D01*
X131018033Y-46975679D01*
X130884321Y-46841967D01*
X130819350Y-46744731D01*
X130779259Y-46684731D01*
X130706892Y-46510022D01*
X130670000Y-46324552D01*
X130670000Y-46135448D01*
X130706892Y-45949978D01*
X130779259Y-45775269D01*
X130884319Y-45618036D01*
X130884321Y-45618033D01*
X131018033Y-45484321D01*
X131085473Y-45439259D01*
X131175269Y-45379259D01*
X131205126Y-45366892D01*
X131226441Y-45358063D01*
X131349978Y-45306892D01*
X131442713Y-45288446D01*
X131535447Y-45270000D01*
X131724553Y-45270000D01*
X131817287Y-45288446D01*
X131817287Y-45288446D01*
G37*
G36*
X134357287Y-45288446D02*
X134450022Y-45306892D01*
X134573559Y-45358063D01*
X134594875Y-45366892D01*
X134624731Y-45379259D01*
X134714527Y-45439259D01*
X134781967Y-45484321D01*
X134915679Y-45618033D01*
X134915681Y-45618036D01*
X135020741Y-45775269D01*
X135093108Y-45949978D01*
X135130000Y-46135448D01*
X135130000Y-46324552D01*
X135093108Y-46510022D01*
X135020741Y-46684731D01*
X134980650Y-46744731D01*
X134915679Y-46841967D01*
X134781967Y-46975679D01*
X134781964Y-46975681D01*
X134624731Y-47080741D01*
X134450022Y-47153108D01*
X134357287Y-47171554D01*
X134264553Y-47190000D01*
X134075447Y-47190000D01*
X133982713Y-47171554D01*
X133889978Y-47153108D01*
X133715269Y-47080741D01*
X133558036Y-46975681D01*
X133558033Y-46975679D01*
X133424321Y-46841967D01*
X133359350Y-46744731D01*
X133319259Y-46684731D01*
X133246892Y-46510022D01*
X133210000Y-46324552D01*
X133210000Y-46135448D01*
X133246892Y-45949978D01*
X133319259Y-45775269D01*
X133424319Y-45618036D01*
X133424321Y-45618033D01*
X133558033Y-45484321D01*
X133625473Y-45439259D01*
X133715269Y-45379259D01*
X133745126Y-45366892D01*
X133766441Y-45358063D01*
X133889978Y-45306892D01*
X133982713Y-45288446D01*
X134075447Y-45270000D01*
X134264553Y-45270000D01*
X134357287Y-45288446D01*
X134357287Y-45288446D01*
G37*
G36*
X210377287Y-43838446D02*
X210470022Y-43856892D01*
X210644731Y-43929259D01*
X210705735Y-43970021D01*
X210801967Y-44034321D01*
X210935679Y-44168033D01*
X210935681Y-44168036D01*
X211040741Y-44325269D01*
X211113108Y-44499978D01*
X211121216Y-44540741D01*
X211150000Y-44685447D01*
X211150000Y-44874553D01*
X211113108Y-45060021D01*
X211040742Y-45234729D01*
X210935679Y-45391967D01*
X210801967Y-45525679D01*
X210801964Y-45525681D01*
X210644731Y-45630741D01*
X210470022Y-45703108D01*
X210377287Y-45721554D01*
X210284553Y-45740000D01*
X210095447Y-45740000D01*
X210002713Y-45721554D01*
X209909978Y-45703108D01*
X209735269Y-45630741D01*
X209578036Y-45525681D01*
X209578033Y-45525679D01*
X209444321Y-45391967D01*
X209339258Y-45234729D01*
X209266892Y-45060021D01*
X209230000Y-44874553D01*
X209230000Y-44685447D01*
X209258784Y-44540741D01*
X209266892Y-44499978D01*
X209339259Y-44325269D01*
X209444319Y-44168036D01*
X209444321Y-44168033D01*
X209578033Y-44034321D01*
X209674265Y-43970021D01*
X209735269Y-43929259D01*
X209909978Y-43856892D01*
X210002713Y-43838446D01*
X210095447Y-43820000D01*
X210284553Y-43820000D01*
X210377287Y-43838446D01*
X210377287Y-43838446D01*
G37*
G36*
X207837287Y-43838446D02*
X207930022Y-43856892D01*
X208104731Y-43929259D01*
X208165735Y-43970021D01*
X208261967Y-44034321D01*
X208395679Y-44168033D01*
X208395681Y-44168036D01*
X208500741Y-44325269D01*
X208573108Y-44499978D01*
X208581216Y-44540741D01*
X208610000Y-44685447D01*
X208610000Y-44874553D01*
X208573108Y-45060021D01*
X208500742Y-45234729D01*
X208395679Y-45391967D01*
X208261967Y-45525679D01*
X208261964Y-45525681D01*
X208104731Y-45630741D01*
X207930022Y-45703108D01*
X207837287Y-45721554D01*
X207744553Y-45740000D01*
X207555447Y-45740000D01*
X207462713Y-45721554D01*
X207369978Y-45703108D01*
X207195269Y-45630741D01*
X207038036Y-45525681D01*
X207038033Y-45525679D01*
X206904321Y-45391967D01*
X206799258Y-45234729D01*
X206726892Y-45060021D01*
X206690000Y-44874553D01*
X206690000Y-44685447D01*
X206718784Y-44540741D01*
X206726892Y-44499978D01*
X206799259Y-44325269D01*
X206904319Y-44168036D01*
X206904321Y-44168033D01*
X207038033Y-44034321D01*
X207134265Y-43970021D01*
X207195269Y-43929259D01*
X207369978Y-43856892D01*
X207462713Y-43838446D01*
X207555447Y-43820000D01*
X207744553Y-43820000D01*
X207837287Y-43838446D01*
X207837287Y-43838446D01*
G37*
G36*
X78040639Y-42840916D02*
X78247986Y-42903815D01*
X78247988Y-42903816D01*
X78439084Y-43005958D01*
X78606581Y-43143419D01*
X78744042Y-43310916D01*
X78829062Y-43469979D01*
X78846185Y-43502014D01*
X78909084Y-43709361D01*
X78930322Y-43925000D01*
X78909084Y-44140639D01*
X78853076Y-44325271D01*
X78846184Y-44347988D01*
X78744042Y-44539084D01*
X78606581Y-44706581D01*
X78439084Y-44844042D01*
X78247988Y-44946184D01*
X78247986Y-44946185D01*
X78040639Y-45009084D01*
X77879038Y-45025000D01*
X75970962Y-45025000D01*
X75809361Y-45009084D01*
X75602014Y-44946185D01*
X75602012Y-44946184D01*
X75410916Y-44844042D01*
X75243419Y-44706581D01*
X75105958Y-44539084D01*
X75003816Y-44347988D01*
X74996925Y-44325271D01*
X74940916Y-44140639D01*
X74919678Y-43925000D01*
X74940916Y-43709361D01*
X75003815Y-43502014D01*
X75020938Y-43469979D01*
X75105958Y-43310916D01*
X75243419Y-43143419D01*
X75410916Y-43005958D01*
X75602012Y-42903816D01*
X75602014Y-42903815D01*
X75809361Y-42840916D01*
X75970962Y-42825000D01*
X77879038Y-42825000D01*
X78040639Y-42840916D01*
X78040639Y-42840916D01*
G37*
G36*
X154322287Y-42873446D02*
X154415022Y-42891892D01*
X154589731Y-42964259D01*
X154621788Y-42985679D01*
X154746967Y-43069321D01*
X154880679Y-43203033D01*
X154880681Y-43203036D01*
X154985741Y-43360269D01*
X155058108Y-43534978D01*
X155095000Y-43720448D01*
X155095000Y-43909552D01*
X155058108Y-44095022D01*
X154985741Y-44269731D01*
X154933451Y-44347988D01*
X154880679Y-44426967D01*
X154746967Y-44560679D01*
X154746964Y-44560681D01*
X154589731Y-44665741D01*
X154415022Y-44738108D01*
X154322287Y-44756554D01*
X154229553Y-44775000D01*
X154040447Y-44775000D01*
X153947713Y-44756554D01*
X153854978Y-44738108D01*
X153680269Y-44665741D01*
X153523036Y-44560681D01*
X153523033Y-44560679D01*
X153389321Y-44426967D01*
X153336549Y-44347988D01*
X153284259Y-44269731D01*
X153211892Y-44095022D01*
X153175000Y-43909552D01*
X153175000Y-43720448D01*
X153211892Y-43534978D01*
X153284259Y-43360269D01*
X153389319Y-43203036D01*
X153389321Y-43203033D01*
X153523033Y-43069321D01*
X153648212Y-42985679D01*
X153680269Y-42964259D01*
X153854978Y-42891892D01*
X153947713Y-42873446D01*
X154040447Y-42855000D01*
X154229553Y-42855000D01*
X154322287Y-42873446D01*
X154322287Y-42873446D01*
G37*
G36*
X151782287Y-42873446D02*
X151875022Y-42891892D01*
X152049731Y-42964259D01*
X152081788Y-42985679D01*
X152206967Y-43069321D01*
X152340679Y-43203033D01*
X152340681Y-43203036D01*
X152445741Y-43360269D01*
X152518108Y-43534978D01*
X152555000Y-43720448D01*
X152555000Y-43909552D01*
X152518108Y-44095022D01*
X152445741Y-44269731D01*
X152393451Y-44347988D01*
X152340679Y-44426967D01*
X152206967Y-44560679D01*
X152206964Y-44560681D01*
X152049731Y-44665741D01*
X151875022Y-44738108D01*
X151782287Y-44756554D01*
X151689553Y-44775000D01*
X151500447Y-44775000D01*
X151407713Y-44756554D01*
X151314978Y-44738108D01*
X151140269Y-44665741D01*
X150983036Y-44560681D01*
X150983033Y-44560679D01*
X150849321Y-44426967D01*
X150796549Y-44347988D01*
X150744259Y-44269731D01*
X150671892Y-44095022D01*
X150635000Y-43909552D01*
X150635000Y-43720448D01*
X150671892Y-43534978D01*
X150744259Y-43360269D01*
X150849319Y-43203036D01*
X150849321Y-43203033D01*
X150983033Y-43069321D01*
X151108212Y-42985679D01*
X151140269Y-42964259D01*
X151314978Y-42891892D01*
X151407713Y-42873446D01*
X151500447Y-42855000D01*
X151689553Y-42855000D01*
X151782287Y-42873446D01*
X151782287Y-42873446D01*
G37*
G36*
X181077287Y-42808446D02*
X181170022Y-42826892D01*
X181344731Y-42899259D01*
X181442010Y-42964259D01*
X181501967Y-43004321D01*
X181635679Y-43138033D01*
X181635681Y-43138036D01*
X181740741Y-43295269D01*
X181788256Y-43409979D01*
X181813108Y-43469979D01*
X181850000Y-43655447D01*
X181850000Y-43844553D01*
X181837071Y-43909552D01*
X181813108Y-44030022D01*
X181740741Y-44204731D01*
X181645021Y-44347986D01*
X181635679Y-44361967D01*
X181501967Y-44495679D01*
X181501964Y-44495681D01*
X181344731Y-44600741D01*
X181344730Y-44600742D01*
X181344729Y-44600742D01*
X181293559Y-44621937D01*
X181170022Y-44673108D01*
X181107989Y-44685447D01*
X180984553Y-44710000D01*
X180795447Y-44710000D01*
X180672011Y-44685447D01*
X180609978Y-44673108D01*
X180486441Y-44621937D01*
X180435271Y-44600742D01*
X180435270Y-44600742D01*
X180435269Y-44600741D01*
X180278036Y-44495681D01*
X180278033Y-44495679D01*
X180144321Y-44361967D01*
X180134979Y-44347986D01*
X180039259Y-44204731D01*
X179966892Y-44030022D01*
X179942929Y-43909552D01*
X179930000Y-43844553D01*
X179930000Y-43655447D01*
X179966892Y-43469979D01*
X179991745Y-43409979D01*
X180039259Y-43295269D01*
X180144319Y-43138036D01*
X180144321Y-43138033D01*
X180278033Y-43004321D01*
X180337990Y-42964259D01*
X180435269Y-42899259D01*
X180609978Y-42826892D01*
X180702713Y-42808446D01*
X180795447Y-42790000D01*
X180984553Y-42790000D01*
X181077287Y-42808446D01*
X181077287Y-42808446D01*
G37*
G36*
X183617287Y-42808446D02*
X183710022Y-42826892D01*
X183884731Y-42899259D01*
X183982010Y-42964259D01*
X184041967Y-43004321D01*
X184175679Y-43138033D01*
X184175681Y-43138036D01*
X184280741Y-43295269D01*
X184328256Y-43409979D01*
X184353108Y-43469979D01*
X184390000Y-43655447D01*
X184390000Y-43844553D01*
X184377071Y-43909552D01*
X184353108Y-44030022D01*
X184280741Y-44204731D01*
X184185021Y-44347986D01*
X184175679Y-44361967D01*
X184041967Y-44495679D01*
X184041964Y-44495681D01*
X183884731Y-44600741D01*
X183884730Y-44600742D01*
X183884729Y-44600742D01*
X183833559Y-44621937D01*
X183710022Y-44673108D01*
X183647989Y-44685447D01*
X183524553Y-44710000D01*
X183335447Y-44710000D01*
X183212011Y-44685447D01*
X183149978Y-44673108D01*
X183026441Y-44621937D01*
X182975271Y-44600742D01*
X182975270Y-44600742D01*
X182975269Y-44600741D01*
X182818036Y-44495681D01*
X182818033Y-44495679D01*
X182684321Y-44361967D01*
X182674979Y-44347986D01*
X182579259Y-44204731D01*
X182506892Y-44030022D01*
X182482929Y-43909552D01*
X182470000Y-43844553D01*
X182470000Y-43655447D01*
X182506892Y-43469979D01*
X182531745Y-43409979D01*
X182579259Y-43295269D01*
X182684319Y-43138036D01*
X182684321Y-43138033D01*
X182818033Y-43004321D01*
X182877990Y-42964259D01*
X182975269Y-42899259D01*
X183149978Y-42826892D01*
X183242713Y-42808446D01*
X183335447Y-42790000D01*
X183524553Y-42790000D01*
X183617287Y-42808446D01*
X183617287Y-42808446D01*
G37*
G36*
X134357287Y-42748446D02*
X134450022Y-42766892D01*
X134573559Y-42818063D01*
X134594875Y-42826892D01*
X134624731Y-42839259D01*
X134721347Y-42903816D01*
X134781967Y-42944321D01*
X134915679Y-43078033D01*
X134915681Y-43078036D01*
X135020741Y-43235269D01*
X135093108Y-43409978D01*
X135130000Y-43595448D01*
X135130000Y-43784552D01*
X135093108Y-43970022D01*
X135068255Y-44030022D01*
X135022437Y-44140638D01*
X135020741Y-44144731D01*
X134980650Y-44204731D01*
X134915679Y-44301967D01*
X134781967Y-44435679D01*
X134781964Y-44435681D01*
X134624731Y-44540741D01*
X134450022Y-44613108D01*
X134357287Y-44631554D01*
X134264553Y-44650000D01*
X134075447Y-44650000D01*
X133982713Y-44631554D01*
X133889978Y-44613108D01*
X133715269Y-44540741D01*
X133558036Y-44435681D01*
X133558033Y-44435679D01*
X133424321Y-44301967D01*
X133359350Y-44204731D01*
X133319259Y-44144731D01*
X133317564Y-44140638D01*
X133271745Y-44030022D01*
X133246892Y-43970022D01*
X133210000Y-43784552D01*
X133210000Y-43595448D01*
X133246892Y-43409978D01*
X133319259Y-43235269D01*
X133424319Y-43078036D01*
X133424321Y-43078033D01*
X133558033Y-42944321D01*
X133618653Y-42903816D01*
X133715269Y-42839259D01*
X133745126Y-42826892D01*
X133766441Y-42818063D01*
X133889978Y-42766892D01*
X133982713Y-42748446D01*
X134075447Y-42730000D01*
X134264553Y-42730000D01*
X134357287Y-42748446D01*
X134357287Y-42748446D01*
G37*
G36*
X131817287Y-42748446D02*
X131910022Y-42766892D01*
X132033559Y-42818063D01*
X132054875Y-42826892D01*
X132084731Y-42839259D01*
X132181347Y-42903816D01*
X132241967Y-42944321D01*
X132375679Y-43078033D01*
X132375681Y-43078036D01*
X132480741Y-43235269D01*
X132553108Y-43409978D01*
X132590000Y-43595448D01*
X132590000Y-43784552D01*
X132553108Y-43970022D01*
X132528255Y-44030022D01*
X132482437Y-44140638D01*
X132480741Y-44144731D01*
X132440650Y-44204731D01*
X132375679Y-44301967D01*
X132241967Y-44435679D01*
X132241964Y-44435681D01*
X132084731Y-44540741D01*
X131910022Y-44613108D01*
X131817287Y-44631554D01*
X131724553Y-44650000D01*
X131535447Y-44650000D01*
X131442713Y-44631554D01*
X131349978Y-44613108D01*
X131175269Y-44540741D01*
X131018036Y-44435681D01*
X131018033Y-44435679D01*
X130884321Y-44301967D01*
X130819350Y-44204731D01*
X130779259Y-44144731D01*
X130777564Y-44140638D01*
X130731745Y-44030022D01*
X130706892Y-43970022D01*
X130670000Y-43784552D01*
X130670000Y-43595448D01*
X130706892Y-43409978D01*
X130779259Y-43235269D01*
X130884319Y-43078036D01*
X130884321Y-43078033D01*
X131018033Y-42944321D01*
X131078653Y-42903816D01*
X131175269Y-42839259D01*
X131205126Y-42826892D01*
X131226441Y-42818063D01*
X131349978Y-42766892D01*
X131442713Y-42748446D01*
X131535447Y-42730000D01*
X131724553Y-42730000D01*
X131817287Y-42748446D01*
X131817287Y-42748446D01*
G37*
G36*
X207837287Y-41298446D02*
X207930022Y-41316892D01*
X208104731Y-41389259D01*
X208255532Y-41490021D01*
X208261967Y-41494321D01*
X208395679Y-41628033D01*
X208395681Y-41628036D01*
X208500741Y-41785269D01*
X208542865Y-41886964D01*
X208573108Y-41959979D01*
X208610000Y-42145447D01*
X208610000Y-42334553D01*
X208573108Y-42520021D01*
X208500742Y-42694729D01*
X208395679Y-42851967D01*
X208261967Y-42985679D01*
X208261964Y-42985681D01*
X208104731Y-43090741D01*
X207930022Y-43163108D01*
X207837287Y-43181554D01*
X207744553Y-43200000D01*
X207555447Y-43200000D01*
X207462713Y-43181554D01*
X207369978Y-43163108D01*
X207195269Y-43090741D01*
X207038036Y-42985681D01*
X207038033Y-42985679D01*
X206904321Y-42851967D01*
X206799258Y-42694729D01*
X206726892Y-42520021D01*
X206690000Y-42334553D01*
X206690000Y-42145447D01*
X206726892Y-41959979D01*
X206757136Y-41886964D01*
X206799259Y-41785269D01*
X206904319Y-41628036D01*
X206904321Y-41628033D01*
X207038033Y-41494321D01*
X207044468Y-41490021D01*
X207195269Y-41389259D01*
X207369978Y-41316892D01*
X207462713Y-41298446D01*
X207555447Y-41280000D01*
X207744553Y-41280000D01*
X207837287Y-41298446D01*
X207837287Y-41298446D01*
G37*
G36*
X210377287Y-41298446D02*
X210470022Y-41316892D01*
X210644731Y-41389259D01*
X210795532Y-41490021D01*
X210801967Y-41494321D01*
X210935679Y-41628033D01*
X210935681Y-41628036D01*
X211040741Y-41785269D01*
X211082865Y-41886964D01*
X211113108Y-41959979D01*
X211150000Y-42145447D01*
X211150000Y-42334553D01*
X211113108Y-42520021D01*
X211040742Y-42694729D01*
X210935679Y-42851967D01*
X210801967Y-42985679D01*
X210801964Y-42985681D01*
X210644731Y-43090741D01*
X210470022Y-43163108D01*
X210377287Y-43181554D01*
X210284553Y-43200000D01*
X210095447Y-43200000D01*
X210002713Y-43181554D01*
X209909978Y-43163108D01*
X209735269Y-43090741D01*
X209578036Y-42985681D01*
X209578033Y-42985679D01*
X209444321Y-42851967D01*
X209339258Y-42694729D01*
X209266892Y-42520021D01*
X209230000Y-42334553D01*
X209230000Y-42145447D01*
X209266892Y-41959979D01*
X209297136Y-41886964D01*
X209339259Y-41785269D01*
X209444319Y-41628036D01*
X209444321Y-41628033D01*
X209578033Y-41494321D01*
X209584468Y-41490021D01*
X209735269Y-41389259D01*
X209909978Y-41316892D01*
X210002713Y-41298446D01*
X210095447Y-41280000D01*
X210284553Y-41280000D01*
X210377287Y-41298446D01*
X210377287Y-41298446D01*
G37*
G36*
X154322287Y-40333446D02*
X154415022Y-40351892D01*
X154589731Y-40424259D01*
X154621788Y-40445679D01*
X154746967Y-40529321D01*
X154880679Y-40663033D01*
X154880681Y-40663036D01*
X154985741Y-40820269D01*
X155058108Y-40994978D01*
X155095000Y-41180448D01*
X155095000Y-41369552D01*
X155058108Y-41555022D01*
X154985741Y-41729731D01*
X154948630Y-41785271D01*
X154880679Y-41886967D01*
X154746967Y-42020679D01*
X154746964Y-42020681D01*
X154589731Y-42125741D01*
X154415022Y-42198108D01*
X154322287Y-42216554D01*
X154229553Y-42235000D01*
X154040447Y-42235000D01*
X153947713Y-42216554D01*
X153854978Y-42198108D01*
X153680269Y-42125741D01*
X153523036Y-42020681D01*
X153523033Y-42020679D01*
X153389321Y-41886967D01*
X153321370Y-41785271D01*
X153284259Y-41729731D01*
X153211892Y-41555022D01*
X153175000Y-41369552D01*
X153175000Y-41180448D01*
X153211892Y-40994978D01*
X153284259Y-40820269D01*
X153389319Y-40663036D01*
X153389321Y-40663033D01*
X153523033Y-40529321D01*
X153648212Y-40445679D01*
X153680269Y-40424259D01*
X153854978Y-40351892D01*
X153947713Y-40333446D01*
X154040447Y-40315000D01*
X154229553Y-40315000D01*
X154322287Y-40333446D01*
X154322287Y-40333446D01*
G37*
G36*
X151782287Y-40333446D02*
X151875022Y-40351892D01*
X152049731Y-40424259D01*
X152081788Y-40445679D01*
X152206967Y-40529321D01*
X152340679Y-40663033D01*
X152340681Y-40663036D01*
X152445741Y-40820269D01*
X152518108Y-40994978D01*
X152555000Y-41180448D01*
X152555000Y-41369552D01*
X152518108Y-41555022D01*
X152445741Y-41729731D01*
X152408630Y-41785271D01*
X152340679Y-41886967D01*
X152206967Y-42020679D01*
X152206964Y-42020681D01*
X152049731Y-42125741D01*
X151875022Y-42198108D01*
X151782287Y-42216554D01*
X151689553Y-42235000D01*
X151500447Y-42235000D01*
X151407713Y-42216554D01*
X151314978Y-42198108D01*
X151140269Y-42125741D01*
X150983036Y-42020681D01*
X150983033Y-42020679D01*
X150849321Y-41886967D01*
X150781370Y-41785271D01*
X150744259Y-41729731D01*
X150671892Y-41555022D01*
X150635000Y-41369552D01*
X150635000Y-41180448D01*
X150671892Y-40994978D01*
X150744259Y-40820269D01*
X150849319Y-40663036D01*
X150849321Y-40663033D01*
X150983033Y-40529321D01*
X151108212Y-40445679D01*
X151140269Y-40424259D01*
X151314978Y-40351892D01*
X151407713Y-40333446D01*
X151500447Y-40315000D01*
X151689553Y-40315000D01*
X151782287Y-40333446D01*
X151782287Y-40333446D01*
G37*
G36*
X181077287Y-40268446D02*
X181170022Y-40286892D01*
X181344731Y-40359259D01*
X181442010Y-40424259D01*
X181501967Y-40464321D01*
X181635679Y-40598033D01*
X181635681Y-40598036D01*
X181740741Y-40755269D01*
X181788256Y-40869979D01*
X181813108Y-40929979D01*
X181850000Y-41115447D01*
X181850000Y-41304553D01*
X181842145Y-41344042D01*
X181813108Y-41490022D01*
X181740741Y-41664731D01*
X181637079Y-41819872D01*
X181635679Y-41821967D01*
X181501967Y-41955679D01*
X181501964Y-41955681D01*
X181344731Y-42060741D01*
X181344730Y-42060742D01*
X181344729Y-42060742D01*
X181293559Y-42081937D01*
X181170022Y-42133108D01*
X181107989Y-42145447D01*
X180984553Y-42170000D01*
X180795447Y-42170000D01*
X180672011Y-42145447D01*
X180609978Y-42133108D01*
X180486441Y-42081937D01*
X180435271Y-42060742D01*
X180435270Y-42060742D01*
X180435269Y-42060741D01*
X180278036Y-41955681D01*
X180278033Y-41955679D01*
X180144321Y-41821967D01*
X180142921Y-41819872D01*
X180039259Y-41664731D01*
X179966892Y-41490022D01*
X179937855Y-41344042D01*
X179930000Y-41304553D01*
X179930000Y-41115447D01*
X179966892Y-40929979D01*
X179991745Y-40869979D01*
X180039259Y-40755269D01*
X180144319Y-40598036D01*
X180144321Y-40598033D01*
X180278033Y-40464321D01*
X180337990Y-40424259D01*
X180435269Y-40359259D01*
X180609978Y-40286892D01*
X180702713Y-40268446D01*
X180795447Y-40250000D01*
X180984553Y-40250000D01*
X181077287Y-40268446D01*
X181077287Y-40268446D01*
G37*
G36*
X183617287Y-40268446D02*
X183710022Y-40286892D01*
X183884731Y-40359259D01*
X183982010Y-40424259D01*
X184041967Y-40464321D01*
X184175679Y-40598033D01*
X184175681Y-40598036D01*
X184280741Y-40755269D01*
X184328256Y-40869979D01*
X184353108Y-40929979D01*
X184390000Y-41115447D01*
X184390000Y-41304553D01*
X184382145Y-41344042D01*
X184353108Y-41490022D01*
X184280741Y-41664731D01*
X184177079Y-41819872D01*
X184175679Y-41821967D01*
X184041967Y-41955679D01*
X184041964Y-41955681D01*
X183884731Y-42060741D01*
X183884730Y-42060742D01*
X183884729Y-42060742D01*
X183833559Y-42081937D01*
X183710022Y-42133108D01*
X183647989Y-42145447D01*
X183524553Y-42170000D01*
X183335447Y-42170000D01*
X183212011Y-42145447D01*
X183149978Y-42133108D01*
X183026441Y-42081937D01*
X182975271Y-42060742D01*
X182975270Y-42060742D01*
X182975269Y-42060741D01*
X182818036Y-41955681D01*
X182818033Y-41955679D01*
X182684321Y-41821967D01*
X182682921Y-41819872D01*
X182579259Y-41664731D01*
X182506892Y-41490022D01*
X182477855Y-41344042D01*
X182470000Y-41304553D01*
X182470000Y-41115447D01*
X182506892Y-40929979D01*
X182531745Y-40869979D01*
X182579259Y-40755269D01*
X182684319Y-40598036D01*
X182684321Y-40598033D01*
X182818033Y-40464321D01*
X182877990Y-40424259D01*
X182975269Y-40359259D01*
X183149978Y-40286892D01*
X183242713Y-40268446D01*
X183335447Y-40250000D01*
X183524553Y-40250000D01*
X183617287Y-40268446D01*
X183617287Y-40268446D01*
G37*
G36*
X131817287Y-40208446D02*
X131910022Y-40226892D01*
X132033559Y-40278063D01*
X132054875Y-40286892D01*
X132084731Y-40299259D01*
X132174527Y-40359259D01*
X132241967Y-40404321D01*
X132375679Y-40538033D01*
X132375681Y-40538036D01*
X132480741Y-40695269D01*
X132553108Y-40869978D01*
X132590000Y-41055448D01*
X132590000Y-41244552D01*
X132553108Y-41430022D01*
X132480741Y-41604731D01*
X132440650Y-41664731D01*
X132375679Y-41761967D01*
X132241967Y-41895679D01*
X132241964Y-41895681D01*
X132084731Y-42000741D01*
X131910022Y-42073108D01*
X131817287Y-42091554D01*
X131724553Y-42110000D01*
X131535447Y-42110000D01*
X131442713Y-42091554D01*
X131349978Y-42073108D01*
X131175269Y-42000741D01*
X131018036Y-41895681D01*
X131018033Y-41895679D01*
X130884321Y-41761967D01*
X130819350Y-41664731D01*
X130779259Y-41604731D01*
X130706892Y-41430022D01*
X130670000Y-41244552D01*
X130670000Y-41055448D01*
X130706892Y-40869978D01*
X130779259Y-40695269D01*
X130884319Y-40538036D01*
X130884321Y-40538033D01*
X131018033Y-40404321D01*
X131085473Y-40359259D01*
X131175269Y-40299259D01*
X131205126Y-40286892D01*
X131226441Y-40278063D01*
X131349978Y-40226892D01*
X131442713Y-40208446D01*
X131535447Y-40190000D01*
X131724553Y-40190000D01*
X131817287Y-40208446D01*
X131817287Y-40208446D01*
G37*
G36*
X134357287Y-40208446D02*
X134450022Y-40226892D01*
X134573559Y-40278063D01*
X134594875Y-40286892D01*
X134624731Y-40299259D01*
X134714527Y-40359259D01*
X134781967Y-40404321D01*
X134915679Y-40538033D01*
X134915681Y-40538036D01*
X135020741Y-40695269D01*
X135093108Y-40869978D01*
X135130000Y-41055448D01*
X135130000Y-41244552D01*
X135093108Y-41430022D01*
X135020741Y-41604731D01*
X134980650Y-41664731D01*
X134915679Y-41761967D01*
X134781967Y-41895679D01*
X134781964Y-41895681D01*
X134624731Y-42000741D01*
X134450022Y-42073108D01*
X134357287Y-42091554D01*
X134264553Y-42110000D01*
X134075447Y-42110000D01*
X133982713Y-42091554D01*
X133889978Y-42073108D01*
X133715269Y-42000741D01*
X133558036Y-41895681D01*
X133558033Y-41895679D01*
X133424321Y-41761967D01*
X133359350Y-41664731D01*
X133319259Y-41604731D01*
X133246892Y-41430022D01*
X133210000Y-41244552D01*
X133210000Y-41055448D01*
X133246892Y-40869978D01*
X133319259Y-40695269D01*
X133424319Y-40538036D01*
X133424321Y-40538033D01*
X133558033Y-40404321D01*
X133625473Y-40359259D01*
X133715269Y-40299259D01*
X133745126Y-40286892D01*
X133766441Y-40278063D01*
X133889978Y-40226892D01*
X133982713Y-40208446D01*
X134075447Y-40190000D01*
X134264553Y-40190000D01*
X134357287Y-40208446D01*
X134357287Y-40208446D01*
G37*
G36*
X78040639Y-39340916D02*
X78247986Y-39403815D01*
X78247988Y-39403816D01*
X78439084Y-39505958D01*
X78606581Y-39643419D01*
X78744042Y-39810916D01*
X78834430Y-39980022D01*
X78846185Y-40002014D01*
X78909084Y-40209361D01*
X78930322Y-40425000D01*
X78909084Y-40640639D01*
X78874311Y-40755269D01*
X78846184Y-40847988D01*
X78744042Y-41039084D01*
X78606581Y-41206581D01*
X78439084Y-41344042D01*
X78278227Y-41430021D01*
X78247986Y-41446185D01*
X78040639Y-41509084D01*
X77879038Y-41525000D01*
X75970962Y-41525000D01*
X75809361Y-41509084D01*
X75602014Y-41446185D01*
X75571773Y-41430021D01*
X75410916Y-41344042D01*
X75243419Y-41206581D01*
X75105958Y-41039084D01*
X75003816Y-40847988D01*
X74975690Y-40755269D01*
X74940916Y-40640639D01*
X74919678Y-40425000D01*
X74940916Y-40209361D01*
X75003815Y-40002014D01*
X75015570Y-39980022D01*
X75105958Y-39810916D01*
X75243419Y-39643419D01*
X75410916Y-39505958D01*
X75602012Y-39403816D01*
X75602014Y-39403815D01*
X75809361Y-39340916D01*
X75970962Y-39325000D01*
X77879038Y-39325000D01*
X78040639Y-39340916D01*
X78040639Y-39340916D01*
G37*
G36*
X208610000Y-40660000D02*
X206690000Y-40660000D01*
X206690000Y-38740000D01*
X208610000Y-38740000D01*
X208610000Y-40660000D01*
X208610000Y-40660000D01*
G37*
G36*
X210377287Y-38758446D02*
X210470022Y-38776892D01*
X210644731Y-38849259D01*
X210705735Y-38890021D01*
X210801967Y-38954321D01*
X210935679Y-39088033D01*
X210935681Y-39088036D01*
X211040741Y-39245269D01*
X211082865Y-39346964D01*
X211113108Y-39419979D01*
X211147546Y-39593108D01*
X211150000Y-39605448D01*
X211150000Y-39794552D01*
X211113108Y-39980022D01*
X211040741Y-40154731D01*
X210992524Y-40226892D01*
X210935679Y-40311967D01*
X210801967Y-40445679D01*
X210801964Y-40445681D01*
X210644731Y-40550741D01*
X210470022Y-40623108D01*
X210381892Y-40640638D01*
X210284553Y-40660000D01*
X210095447Y-40660000D01*
X209998108Y-40640638D01*
X209909978Y-40623108D01*
X209735269Y-40550741D01*
X209578036Y-40445681D01*
X209578033Y-40445679D01*
X209444321Y-40311967D01*
X209387476Y-40226892D01*
X209339259Y-40154731D01*
X209266892Y-39980022D01*
X209230000Y-39794552D01*
X209230000Y-39605448D01*
X209232455Y-39593108D01*
X209266892Y-39419979D01*
X209297136Y-39346964D01*
X209339259Y-39245269D01*
X209444319Y-39088036D01*
X209444321Y-39088033D01*
X209578033Y-38954321D01*
X209674265Y-38890021D01*
X209735269Y-38849259D01*
X209909978Y-38776892D01*
X210002713Y-38758446D01*
X210095447Y-38740000D01*
X210284553Y-38740000D01*
X210377287Y-38758446D01*
X210377287Y-38758446D01*
G37*
G36*
X154322287Y-37793446D02*
X154415022Y-37811892D01*
X154589731Y-37884259D01*
X154744872Y-37987921D01*
X154746967Y-37989321D01*
X154880679Y-38123033D01*
X154880681Y-38123036D01*
X154985741Y-38280269D01*
X155058108Y-38454978D01*
X155095000Y-38640448D01*
X155095000Y-38829552D01*
X155058108Y-39015022D01*
X154985741Y-39189731D01*
X154948630Y-39245271D01*
X154880679Y-39346967D01*
X154746967Y-39480679D01*
X154746964Y-39480681D01*
X154589731Y-39585741D01*
X154415022Y-39658108D01*
X154322287Y-39676554D01*
X154229553Y-39695000D01*
X154040447Y-39695000D01*
X153947713Y-39676554D01*
X153854978Y-39658108D01*
X153680269Y-39585741D01*
X153523036Y-39480681D01*
X153523033Y-39480679D01*
X153389321Y-39346967D01*
X153321370Y-39245271D01*
X153284259Y-39189731D01*
X153211892Y-39015022D01*
X153175000Y-38829552D01*
X153175000Y-38640448D01*
X153211892Y-38454978D01*
X153284259Y-38280269D01*
X153389319Y-38123036D01*
X153389321Y-38123033D01*
X153523033Y-37989321D01*
X153525128Y-37987921D01*
X153680269Y-37884259D01*
X153854978Y-37811892D01*
X153947713Y-37793446D01*
X154040447Y-37775000D01*
X154229553Y-37775000D01*
X154322287Y-37793446D01*
X154322287Y-37793446D01*
G37*
G36*
X151782287Y-37793446D02*
X151875022Y-37811892D01*
X152049731Y-37884259D01*
X152204872Y-37987921D01*
X152206967Y-37989321D01*
X152340679Y-38123033D01*
X152340681Y-38123036D01*
X152445741Y-38280269D01*
X152518108Y-38454978D01*
X152555000Y-38640448D01*
X152555000Y-38829552D01*
X152518108Y-39015022D01*
X152445741Y-39189731D01*
X152408630Y-39245271D01*
X152340679Y-39346967D01*
X152206967Y-39480679D01*
X152206964Y-39480681D01*
X152049731Y-39585741D01*
X151875022Y-39658108D01*
X151782287Y-39676554D01*
X151689553Y-39695000D01*
X151500447Y-39695000D01*
X151407713Y-39676554D01*
X151314978Y-39658108D01*
X151140269Y-39585741D01*
X150983036Y-39480681D01*
X150983033Y-39480679D01*
X150849321Y-39346967D01*
X150781370Y-39245271D01*
X150744259Y-39189731D01*
X150671892Y-39015022D01*
X150635000Y-38829552D01*
X150635000Y-38640448D01*
X150671892Y-38454978D01*
X150744259Y-38280269D01*
X150849319Y-38123036D01*
X150849321Y-38123033D01*
X150983033Y-37989321D01*
X150985128Y-37987921D01*
X151140269Y-37884259D01*
X151314978Y-37811892D01*
X151407713Y-37793446D01*
X151500447Y-37775000D01*
X151689553Y-37775000D01*
X151782287Y-37793446D01*
X151782287Y-37793446D01*
G37*
G36*
X183617287Y-37728446D02*
X183710022Y-37746892D01*
X183884731Y-37819259D01*
X183982010Y-37884259D01*
X184041967Y-37924321D01*
X184175679Y-38058033D01*
X184175681Y-38058036D01*
X184280741Y-38215269D01*
X184328256Y-38329979D01*
X184353108Y-38389979D01*
X184390000Y-38575447D01*
X184390000Y-38764553D01*
X184377071Y-38829552D01*
X184353108Y-38950022D01*
X184280741Y-39124731D01*
X184177079Y-39279872D01*
X184175679Y-39281967D01*
X184041967Y-39415679D01*
X184041964Y-39415681D01*
X183884731Y-39520741D01*
X183884730Y-39520742D01*
X183884729Y-39520742D01*
X183833559Y-39541937D01*
X183710022Y-39593108D01*
X183647989Y-39605447D01*
X183524553Y-39630000D01*
X183335447Y-39630000D01*
X183212011Y-39605447D01*
X183149978Y-39593108D01*
X183026441Y-39541937D01*
X182975271Y-39520742D01*
X182975270Y-39520742D01*
X182975269Y-39520741D01*
X182818036Y-39415681D01*
X182818033Y-39415679D01*
X182684321Y-39281967D01*
X182682921Y-39279872D01*
X182579259Y-39124731D01*
X182506892Y-38950022D01*
X182482929Y-38829552D01*
X182470000Y-38764553D01*
X182470000Y-38575447D01*
X182506892Y-38389979D01*
X182531745Y-38329979D01*
X182579259Y-38215269D01*
X182684319Y-38058036D01*
X182684321Y-38058033D01*
X182818033Y-37924321D01*
X182877990Y-37884259D01*
X182975269Y-37819259D01*
X183149978Y-37746892D01*
X183242713Y-37728446D01*
X183335447Y-37710000D01*
X183524553Y-37710000D01*
X183617287Y-37728446D01*
X183617287Y-37728446D01*
G37*
G36*
X181077287Y-37728446D02*
X181170022Y-37746892D01*
X181344731Y-37819259D01*
X181442010Y-37884259D01*
X181501967Y-37924321D01*
X181635679Y-38058033D01*
X181635681Y-38058036D01*
X181740741Y-38215269D01*
X181788256Y-38329979D01*
X181813108Y-38389979D01*
X181850000Y-38575447D01*
X181850000Y-38764553D01*
X181837071Y-38829552D01*
X181813108Y-38950022D01*
X181740741Y-39124731D01*
X181637079Y-39279872D01*
X181635679Y-39281967D01*
X181501967Y-39415679D01*
X181501964Y-39415681D01*
X181344731Y-39520741D01*
X181344730Y-39520742D01*
X181344729Y-39520742D01*
X181293559Y-39541937D01*
X181170022Y-39593108D01*
X181107989Y-39605447D01*
X180984553Y-39630000D01*
X180795447Y-39630000D01*
X180672011Y-39605447D01*
X180609978Y-39593108D01*
X180486441Y-39541937D01*
X180435271Y-39520742D01*
X180435270Y-39520742D01*
X180435269Y-39520741D01*
X180278036Y-39415681D01*
X180278033Y-39415679D01*
X180144321Y-39281967D01*
X180142921Y-39279872D01*
X180039259Y-39124731D01*
X179966892Y-38950022D01*
X179942929Y-38829552D01*
X179930000Y-38764553D01*
X179930000Y-38575447D01*
X179966892Y-38389979D01*
X179991745Y-38329979D01*
X180039259Y-38215269D01*
X180144319Y-38058036D01*
X180144321Y-38058033D01*
X180278033Y-37924321D01*
X180337990Y-37884259D01*
X180435269Y-37819259D01*
X180609978Y-37746892D01*
X180702713Y-37728446D01*
X180795447Y-37710000D01*
X180984553Y-37710000D01*
X181077287Y-37728446D01*
X181077287Y-37728446D01*
G37*
G36*
X131817287Y-37668446D02*
X131910022Y-37686892D01*
X132033559Y-37738063D01*
X132054875Y-37746892D01*
X132084731Y-37759259D01*
X132174527Y-37819259D01*
X132241967Y-37864321D01*
X132375679Y-37998033D01*
X132375681Y-37998036D01*
X132480741Y-38155269D01*
X132553108Y-38329978D01*
X132590000Y-38515448D01*
X132590000Y-38704552D01*
X132553108Y-38890022D01*
X132480741Y-39064731D01*
X132440650Y-39124731D01*
X132375679Y-39221967D01*
X132241967Y-39355679D01*
X132241964Y-39355681D01*
X132084731Y-39460741D01*
X131910022Y-39533108D01*
X131817287Y-39551554D01*
X131724553Y-39570000D01*
X131535447Y-39570000D01*
X131442713Y-39551554D01*
X131349978Y-39533108D01*
X131175269Y-39460741D01*
X131018036Y-39355681D01*
X131018033Y-39355679D01*
X130884321Y-39221967D01*
X130819350Y-39124731D01*
X130779259Y-39064731D01*
X130706892Y-38890022D01*
X130670000Y-38704552D01*
X130670000Y-38515448D01*
X130706892Y-38329978D01*
X130779259Y-38155269D01*
X130884319Y-37998036D01*
X130884321Y-37998033D01*
X131018033Y-37864321D01*
X131085473Y-37819259D01*
X131175269Y-37759259D01*
X131205126Y-37746892D01*
X131226441Y-37738063D01*
X131349978Y-37686892D01*
X131442713Y-37668446D01*
X131535447Y-37650000D01*
X131724553Y-37650000D01*
X131817287Y-37668446D01*
X131817287Y-37668446D01*
G37*
G36*
X134357287Y-37668446D02*
X134450022Y-37686892D01*
X134573559Y-37738063D01*
X134594875Y-37746892D01*
X134624731Y-37759259D01*
X134714527Y-37819259D01*
X134781967Y-37864321D01*
X134915679Y-37998033D01*
X134915681Y-37998036D01*
X135020741Y-38155269D01*
X135093108Y-38329978D01*
X135130000Y-38515448D01*
X135130000Y-38704552D01*
X135093108Y-38890022D01*
X135020741Y-39064731D01*
X134980650Y-39124731D01*
X134915679Y-39221967D01*
X134781967Y-39355679D01*
X134781964Y-39355681D01*
X134624731Y-39460741D01*
X134450022Y-39533108D01*
X134357287Y-39551554D01*
X134264553Y-39570000D01*
X134075447Y-39570000D01*
X133982713Y-39551554D01*
X133889978Y-39533108D01*
X133715269Y-39460741D01*
X133558036Y-39355681D01*
X133558033Y-39355679D01*
X133424321Y-39221967D01*
X133359350Y-39124731D01*
X133319259Y-39064731D01*
X133246892Y-38890022D01*
X133210000Y-38704552D01*
X133210000Y-38515448D01*
X133246892Y-38329978D01*
X133319259Y-38155269D01*
X133424319Y-37998036D01*
X133424321Y-37998033D01*
X133558033Y-37864321D01*
X133625473Y-37819259D01*
X133715269Y-37759259D01*
X133745126Y-37746892D01*
X133766441Y-37738063D01*
X133889978Y-37686892D01*
X133982713Y-37668446D01*
X134075447Y-37650000D01*
X134264553Y-37650000D01*
X134357287Y-37668446D01*
X134357287Y-37668446D01*
G37*
G36*
X78040639Y-35840916D02*
X78247986Y-35903815D01*
X78247988Y-35903816D01*
X78439084Y-36005958D01*
X78606581Y-36143419D01*
X78744042Y-36310916D01*
X78846184Y-36502012D01*
X78846185Y-36502014D01*
X78909084Y-36709361D01*
X78930322Y-36925000D01*
X78909084Y-37140639D01*
X78904728Y-37155000D01*
X78846184Y-37347988D01*
X78744042Y-37539084D01*
X78606581Y-37706581D01*
X78439084Y-37844042D01*
X78288891Y-37924321D01*
X78247986Y-37946185D01*
X78040639Y-38009084D01*
X77879038Y-38025000D01*
X75970962Y-38025000D01*
X75809361Y-38009084D01*
X75602014Y-37946185D01*
X75561109Y-37924321D01*
X75410916Y-37844042D01*
X75243419Y-37706581D01*
X75105958Y-37539084D01*
X75003816Y-37347988D01*
X74945273Y-37155000D01*
X74940916Y-37140639D01*
X74919678Y-36925000D01*
X74940916Y-36709361D01*
X75003815Y-36502014D01*
X75003816Y-36502012D01*
X75105958Y-36310916D01*
X75243419Y-36143419D01*
X75410916Y-36005958D01*
X75602012Y-35903816D01*
X75602014Y-35903815D01*
X75809361Y-35840916D01*
X75970962Y-35825000D01*
X77879038Y-35825000D01*
X78040639Y-35840916D01*
X78040639Y-35840916D01*
G37*
G36*
X154322287Y-35253446D02*
X154415022Y-35271892D01*
X154589731Y-35344259D01*
X154649685Y-35384319D01*
X154746967Y-35449321D01*
X154880679Y-35583033D01*
X154880681Y-35583036D01*
X154985741Y-35740269D01*
X155053485Y-35903816D01*
X155058108Y-35914979D01*
X155095000Y-36100447D01*
X155095000Y-36289553D01*
X155090750Y-36310918D01*
X155058108Y-36475022D01*
X154985741Y-36649731D01*
X154945897Y-36709361D01*
X154880679Y-36806967D01*
X154746967Y-36940679D01*
X154746964Y-36940681D01*
X154589731Y-37045741D01*
X154415022Y-37118108D01*
X154322287Y-37136554D01*
X154229553Y-37155000D01*
X154040447Y-37155000D01*
X153947713Y-37136554D01*
X153854978Y-37118108D01*
X153680269Y-37045741D01*
X153523036Y-36940681D01*
X153523033Y-36940679D01*
X153389321Y-36806967D01*
X153324103Y-36709361D01*
X153284259Y-36649731D01*
X153211892Y-36475022D01*
X153179250Y-36310918D01*
X153175000Y-36289553D01*
X153175000Y-36100447D01*
X153211892Y-35914979D01*
X153216516Y-35903816D01*
X153284259Y-35740269D01*
X153389319Y-35583036D01*
X153389321Y-35583033D01*
X153523033Y-35449321D01*
X153620315Y-35384319D01*
X153680269Y-35344259D01*
X153854978Y-35271892D01*
X153947713Y-35253446D01*
X154040447Y-35235000D01*
X154229553Y-35235000D01*
X154322287Y-35253446D01*
X154322287Y-35253446D01*
G37*
G36*
X151782287Y-35253446D02*
X151875022Y-35271892D01*
X152049731Y-35344259D01*
X152109685Y-35384319D01*
X152206967Y-35449321D01*
X152340679Y-35583033D01*
X152340681Y-35583036D01*
X152445741Y-35740269D01*
X152513485Y-35903816D01*
X152518108Y-35914979D01*
X152555000Y-36100447D01*
X152555000Y-36289553D01*
X152550750Y-36310918D01*
X152518108Y-36475022D01*
X152445741Y-36649731D01*
X152405897Y-36709361D01*
X152340679Y-36806967D01*
X152206967Y-36940679D01*
X152206964Y-36940681D01*
X152049731Y-37045741D01*
X151875022Y-37118108D01*
X151782287Y-37136554D01*
X151689553Y-37155000D01*
X151500447Y-37155000D01*
X151407713Y-37136554D01*
X151314978Y-37118108D01*
X151140269Y-37045741D01*
X150983036Y-36940681D01*
X150983033Y-36940679D01*
X150849321Y-36806967D01*
X150784103Y-36709361D01*
X150744259Y-36649731D01*
X150671892Y-36475022D01*
X150639250Y-36310918D01*
X150635000Y-36289553D01*
X150635000Y-36100447D01*
X150671892Y-35914979D01*
X150676516Y-35903816D01*
X150744259Y-35740269D01*
X150849319Y-35583036D01*
X150849321Y-35583033D01*
X150983033Y-35449321D01*
X151080315Y-35384319D01*
X151140269Y-35344259D01*
X151314978Y-35271892D01*
X151407713Y-35253446D01*
X151500447Y-35235000D01*
X151689553Y-35235000D01*
X151782287Y-35253446D01*
X151782287Y-35253446D01*
G37*
G36*
X183617287Y-35188446D02*
X183710022Y-35206892D01*
X183884731Y-35279259D01*
X183982010Y-35344259D01*
X184041967Y-35384321D01*
X184175679Y-35518033D01*
X184175681Y-35518036D01*
X184280741Y-35675269D01*
X184353108Y-35849978D01*
X184390000Y-36035448D01*
X184390000Y-36224552D01*
X184353108Y-36410022D01*
X184280741Y-36584731D01*
X184237309Y-36649731D01*
X184175679Y-36741967D01*
X184041967Y-36875679D01*
X184041964Y-36875681D01*
X183884731Y-36980741D01*
X183884730Y-36980742D01*
X183884729Y-36980742D01*
X183833559Y-37001937D01*
X183710022Y-37053108D01*
X183617287Y-37071554D01*
X183524553Y-37090000D01*
X183335447Y-37090000D01*
X183242713Y-37071554D01*
X183149978Y-37053108D01*
X183026441Y-37001937D01*
X182975271Y-36980742D01*
X182975270Y-36980742D01*
X182975269Y-36980741D01*
X182818036Y-36875681D01*
X182818033Y-36875679D01*
X182684321Y-36741967D01*
X182622691Y-36649731D01*
X182579259Y-36584731D01*
X182506892Y-36410022D01*
X182470000Y-36224552D01*
X182470000Y-36035448D01*
X182506892Y-35849978D01*
X182579259Y-35675269D01*
X182684319Y-35518036D01*
X182684321Y-35518033D01*
X182818033Y-35384321D01*
X182877990Y-35344259D01*
X182975269Y-35279259D01*
X183149978Y-35206892D01*
X183242713Y-35188446D01*
X183335447Y-35170000D01*
X183524553Y-35170000D01*
X183617287Y-35188446D01*
X183617287Y-35188446D01*
G37*
G36*
X181077287Y-35188446D02*
X181170022Y-35206892D01*
X181344731Y-35279259D01*
X181442010Y-35344259D01*
X181501967Y-35384321D01*
X181635679Y-35518033D01*
X181635681Y-35518036D01*
X181740741Y-35675269D01*
X181813108Y-35849978D01*
X181850000Y-36035448D01*
X181850000Y-36224552D01*
X181813108Y-36410022D01*
X181740741Y-36584731D01*
X181697309Y-36649731D01*
X181635679Y-36741967D01*
X181501967Y-36875679D01*
X181501964Y-36875681D01*
X181344731Y-36980741D01*
X181344730Y-36980742D01*
X181344729Y-36980742D01*
X181293559Y-37001937D01*
X181170022Y-37053108D01*
X181077287Y-37071554D01*
X180984553Y-37090000D01*
X180795447Y-37090000D01*
X180702713Y-37071554D01*
X180609978Y-37053108D01*
X180486441Y-37001937D01*
X180435271Y-36980742D01*
X180435270Y-36980742D01*
X180435269Y-36980741D01*
X180278036Y-36875681D01*
X180278033Y-36875679D01*
X180144321Y-36741967D01*
X180082691Y-36649731D01*
X180039259Y-36584731D01*
X179966892Y-36410022D01*
X179930000Y-36224552D01*
X179930000Y-36035448D01*
X179966892Y-35849978D01*
X180039259Y-35675269D01*
X180144319Y-35518036D01*
X180144321Y-35518033D01*
X180278033Y-35384321D01*
X180337990Y-35344259D01*
X180435269Y-35279259D01*
X180609978Y-35206892D01*
X180702713Y-35188446D01*
X180795447Y-35170000D01*
X180984553Y-35170000D01*
X181077287Y-35188446D01*
X181077287Y-35188446D01*
G37*
G36*
X131817287Y-35128446D02*
X131910022Y-35146892D01*
X132033559Y-35198063D01*
X132054875Y-35206892D01*
X132084731Y-35219259D01*
X132174527Y-35279259D01*
X132241967Y-35324321D01*
X132375679Y-35458033D01*
X132375681Y-35458036D01*
X132480741Y-35615269D01*
X132553108Y-35789978D01*
X132590000Y-35975448D01*
X132590000Y-36164552D01*
X132553108Y-36350022D01*
X132480741Y-36524731D01*
X132440650Y-36584731D01*
X132375679Y-36681967D01*
X132241967Y-36815679D01*
X132241964Y-36815681D01*
X132084731Y-36920741D01*
X131910022Y-36993108D01*
X131817287Y-37011554D01*
X131724553Y-37030000D01*
X131535447Y-37030000D01*
X131442713Y-37011554D01*
X131349978Y-36993108D01*
X131175269Y-36920741D01*
X131018036Y-36815681D01*
X131018033Y-36815679D01*
X130884321Y-36681967D01*
X130819350Y-36584731D01*
X130779259Y-36524731D01*
X130706892Y-36350022D01*
X130670000Y-36164552D01*
X130670000Y-35975448D01*
X130706892Y-35789978D01*
X130779259Y-35615269D01*
X130884319Y-35458036D01*
X130884321Y-35458033D01*
X131018033Y-35324321D01*
X131085473Y-35279259D01*
X131175269Y-35219259D01*
X131205126Y-35206892D01*
X131226441Y-35198063D01*
X131349978Y-35146892D01*
X131442713Y-35128446D01*
X131535447Y-35110000D01*
X131724553Y-35110000D01*
X131817287Y-35128446D01*
X131817287Y-35128446D01*
G37*
G36*
X134357287Y-35128446D02*
X134450022Y-35146892D01*
X134573559Y-35198063D01*
X134594875Y-35206892D01*
X134624731Y-35219259D01*
X134714527Y-35279259D01*
X134781967Y-35324321D01*
X134915679Y-35458033D01*
X134915681Y-35458036D01*
X135020741Y-35615269D01*
X135093108Y-35789978D01*
X135130000Y-35975448D01*
X135130000Y-36164552D01*
X135093108Y-36350022D01*
X135020741Y-36524731D01*
X134980650Y-36584731D01*
X134915679Y-36681967D01*
X134781967Y-36815679D01*
X134781964Y-36815681D01*
X134624731Y-36920741D01*
X134450022Y-36993108D01*
X134357287Y-37011554D01*
X134264553Y-37030000D01*
X134075447Y-37030000D01*
X133982713Y-37011554D01*
X133889978Y-36993108D01*
X133715269Y-36920741D01*
X133558036Y-36815681D01*
X133558033Y-36815679D01*
X133424321Y-36681967D01*
X133359350Y-36584731D01*
X133319259Y-36524731D01*
X133246892Y-36350022D01*
X133210000Y-36164552D01*
X133210000Y-35975448D01*
X133246892Y-35789978D01*
X133319259Y-35615269D01*
X133424319Y-35458036D01*
X133424321Y-35458033D01*
X133558033Y-35324321D01*
X133625473Y-35279259D01*
X133715269Y-35219259D01*
X133745126Y-35206892D01*
X133766441Y-35198063D01*
X133889978Y-35146892D01*
X133982713Y-35128446D01*
X134075447Y-35110000D01*
X134264553Y-35110000D01*
X134357287Y-35128446D01*
X134357287Y-35128446D01*
G37*
G36*
X152555000Y-34615000D02*
X150635000Y-34615000D01*
X150635000Y-32695000D01*
X152555000Y-32695000D01*
X152555000Y-34615000D01*
X152555000Y-34615000D01*
G37*
G36*
X154322287Y-32713446D02*
X154415022Y-32731892D01*
X154589731Y-32804259D01*
X154649685Y-32844319D01*
X154746967Y-32909321D01*
X154880679Y-33043033D01*
X154880681Y-33043036D01*
X154942311Y-33135271D01*
X154985742Y-33200271D01*
X155006331Y-33249978D01*
X155058108Y-33374978D01*
X155095000Y-33560448D01*
X155095000Y-33749552D01*
X155058108Y-33935022D01*
X154985741Y-34109731D01*
X154924113Y-34201964D01*
X154880679Y-34266967D01*
X154746967Y-34400679D01*
X154746964Y-34400681D01*
X154589731Y-34505741D01*
X154589730Y-34505742D01*
X154589729Y-34505742D01*
X154571946Y-34513108D01*
X154415022Y-34578108D01*
X154322287Y-34596554D01*
X154229553Y-34615000D01*
X154040447Y-34615000D01*
X153947713Y-34596554D01*
X153854978Y-34578108D01*
X153698054Y-34513108D01*
X153680271Y-34505742D01*
X153680270Y-34505742D01*
X153680269Y-34505741D01*
X153523036Y-34400681D01*
X153523033Y-34400679D01*
X153389321Y-34266967D01*
X153345887Y-34201964D01*
X153284259Y-34109731D01*
X153211892Y-33935022D01*
X153175000Y-33749552D01*
X153175000Y-33560448D01*
X153211892Y-33374978D01*
X153263669Y-33249978D01*
X153284258Y-33200271D01*
X153327690Y-33135271D01*
X153389319Y-33043036D01*
X153389321Y-33043033D01*
X153523033Y-32909321D01*
X153620315Y-32844319D01*
X153680269Y-32804259D01*
X153854978Y-32731892D01*
X153947713Y-32713446D01*
X154040447Y-32695000D01*
X154229553Y-32695000D01*
X154322287Y-32713446D01*
X154322287Y-32713446D01*
G37*
G36*
X181850000Y-34550000D02*
X179930000Y-34550000D01*
X179930000Y-32630000D01*
X181850000Y-32630000D01*
X181850000Y-34550000D01*
X181850000Y-34550000D01*
G37*
G36*
X183617287Y-32648446D02*
X183710022Y-32666892D01*
X183884731Y-32739259D01*
X183982010Y-32804259D01*
X184041967Y-32844321D01*
X184175679Y-32978033D01*
X184175681Y-32978036D01*
X184280741Y-33135269D01*
X184353108Y-33309978D01*
X184390000Y-33495448D01*
X184390000Y-33684552D01*
X184353108Y-33870022D01*
X184280741Y-34044731D01*
X184237309Y-34109731D01*
X184175679Y-34201967D01*
X184041967Y-34335679D01*
X184041964Y-34335681D01*
X183884731Y-34440741D01*
X183884730Y-34440742D01*
X183884729Y-34440742D01*
X183833559Y-34461937D01*
X183710022Y-34513108D01*
X183650236Y-34525000D01*
X183524553Y-34550000D01*
X183335447Y-34550000D01*
X183209764Y-34525000D01*
X183149978Y-34513108D01*
X183026441Y-34461937D01*
X182975271Y-34440742D01*
X182975270Y-34440742D01*
X182975269Y-34440741D01*
X182818036Y-34335681D01*
X182818033Y-34335679D01*
X182684321Y-34201967D01*
X182622691Y-34109731D01*
X182579259Y-34044731D01*
X182506892Y-33870022D01*
X182470000Y-33684552D01*
X182470000Y-33495448D01*
X182506892Y-33309978D01*
X182579259Y-33135269D01*
X182684319Y-32978036D01*
X182684321Y-32978033D01*
X182818033Y-32844321D01*
X182877990Y-32804259D01*
X182975269Y-32739259D01*
X183149978Y-32666892D01*
X183242713Y-32648446D01*
X183335447Y-32630000D01*
X183524553Y-32630000D01*
X183617287Y-32648446D01*
X183617287Y-32648446D01*
G37*
G36*
X78040639Y-32340916D02*
X78247986Y-32403815D01*
X78247988Y-32403816D01*
X78439084Y-32505958D01*
X78606581Y-32643419D01*
X78744042Y-32810916D01*
X78846184Y-33002012D01*
X78846185Y-33002014D01*
X78909084Y-33209361D01*
X78930322Y-33425000D01*
X78909084Y-33640639D01*
X78857702Y-33810021D01*
X78846184Y-33847988D01*
X78744042Y-34039084D01*
X78606581Y-34206581D01*
X78439084Y-34344042D01*
X78258171Y-34440741D01*
X78247986Y-34446185D01*
X78040639Y-34509084D01*
X77879038Y-34525000D01*
X75970962Y-34525000D01*
X75809361Y-34509084D01*
X75602014Y-34446185D01*
X75591829Y-34440741D01*
X75410916Y-34344042D01*
X75243419Y-34206581D01*
X75105958Y-34039084D01*
X75003816Y-33847988D01*
X74992299Y-33810021D01*
X74940916Y-33640639D01*
X74919678Y-33425000D01*
X74940916Y-33209361D01*
X75003815Y-33002014D01*
X75003816Y-33002012D01*
X75105958Y-32810916D01*
X75243419Y-32643419D01*
X75410916Y-32505958D01*
X75602012Y-32403816D01*
X75602014Y-32403815D01*
X75809361Y-32340916D01*
X75970962Y-32325000D01*
X77879038Y-32325000D01*
X78040639Y-32340916D01*
X78040639Y-32340916D01*
G37*
G36*
X134357287Y-32588446D02*
X134450022Y-32606892D01*
X134573559Y-32658063D01*
X134594875Y-32666892D01*
X134624731Y-32679259D01*
X134714527Y-32739259D01*
X134781967Y-32784321D01*
X134915679Y-32918033D01*
X134915681Y-32918036D01*
X134999204Y-33043036D01*
X135020742Y-33075271D01*
X135025136Y-33085880D01*
X135072519Y-33200271D01*
X135093108Y-33249979D01*
X135124249Y-33406533D01*
X135130000Y-33435448D01*
X135130000Y-33624552D01*
X135093108Y-33810022D01*
X135020741Y-33984731D01*
X134980650Y-34044731D01*
X134915679Y-34141967D01*
X134781967Y-34275679D01*
X134781964Y-34275681D01*
X134624731Y-34380741D01*
X134450022Y-34453108D01*
X134357287Y-34471554D01*
X134264553Y-34490000D01*
X134075447Y-34490000D01*
X133982713Y-34471554D01*
X133889978Y-34453108D01*
X133715269Y-34380741D01*
X133558036Y-34275681D01*
X133558033Y-34275679D01*
X133424321Y-34141967D01*
X133359350Y-34044731D01*
X133319259Y-33984731D01*
X133246892Y-33810022D01*
X133210000Y-33624552D01*
X133210000Y-33435448D01*
X133215752Y-33406533D01*
X133246892Y-33249979D01*
X133267482Y-33200271D01*
X133314864Y-33085880D01*
X133319258Y-33075271D01*
X133340797Y-33043036D01*
X133424319Y-32918036D01*
X133424321Y-32918033D01*
X133558033Y-32784321D01*
X133625473Y-32739259D01*
X133715269Y-32679259D01*
X133745126Y-32666892D01*
X133766441Y-32658063D01*
X133889978Y-32606892D01*
X133982713Y-32588446D01*
X134075447Y-32570000D01*
X134264553Y-32570000D01*
X134357287Y-32588446D01*
X134357287Y-32588446D01*
G37*
G36*
X132590000Y-34490000D02*
X130670000Y-34490000D01*
X130670000Y-32570000D01*
X132590000Y-32570000D01*
X132590000Y-34490000D01*
X132590000Y-34490000D01*
G37*
G36*
X209774649Y-27992598D02*
X210307874Y-28213467D01*
X210787769Y-28534122D01*
X211195878Y-28942231D01*
X211516533Y-29422126D01*
X211737402Y-29955351D01*
X211850000Y-30521419D01*
X211850000Y-31098581D01*
X211737402Y-31664649D01*
X211516533Y-32197874D01*
X211195878Y-32677769D01*
X210787769Y-33085878D01*
X210307874Y-33406533D01*
X209774649Y-33627402D01*
X209208581Y-33740000D01*
X208631419Y-33740000D01*
X208065351Y-33627402D01*
X207532126Y-33406533D01*
X207052231Y-33085878D01*
X206644122Y-32677769D01*
X206323467Y-32197874D01*
X206102598Y-31664649D01*
X205990000Y-31098581D01*
X205990000Y-30521419D01*
X206102598Y-29955351D01*
X206323467Y-29422126D01*
X206644122Y-28942231D01*
X207052231Y-28534122D01*
X207532126Y-28213467D01*
X208065351Y-27992598D01*
X208631419Y-27880000D01*
X209208581Y-27880000D01*
X209774649Y-27992598D01*
X209774649Y-27992598D01*
G37*
G36*
X78751604Y-28829729D02*
X78791872Y-28841945D01*
X78828986Y-28861783D01*
X78861519Y-28888481D01*
X78888217Y-28921014D01*
X78908055Y-28958128D01*
X78920271Y-28998396D01*
X78925000Y-29046416D01*
X78925000Y-30803584D01*
X78920271Y-30851604D01*
X78908055Y-30891872D01*
X78888217Y-30928986D01*
X78861519Y-30961519D01*
X78828986Y-30988217D01*
X78791872Y-31008055D01*
X78751604Y-31020271D01*
X78703584Y-31025000D01*
X75146416Y-31025000D01*
X75098396Y-31020271D01*
X75058128Y-31008055D01*
X75021014Y-30988217D01*
X74988481Y-30961519D01*
X74961783Y-30928986D01*
X74941945Y-30891872D01*
X74929729Y-30851604D01*
X74925000Y-30803584D01*
X74925000Y-29046416D01*
X74929729Y-28998396D01*
X74941945Y-28958128D01*
X74961783Y-28921014D01*
X74988481Y-28888481D01*
X75021014Y-28861783D01*
X75058128Y-28841945D01*
X75098396Y-28829729D01*
X75146416Y-28825000D01*
X78703584Y-28825000D01*
X78751604Y-28829729D01*
X78751604Y-28829729D01*
G37*
G36*
X153719649Y-21947598D02*
X154252874Y-22168467D01*
X154732769Y-22489122D01*
X155140878Y-22897231D01*
X155461533Y-23377126D01*
X155682402Y-23910351D01*
X155795000Y-24476419D01*
X155795000Y-25053581D01*
X155682402Y-25619649D01*
X155461533Y-26152874D01*
X155140878Y-26632769D01*
X154732769Y-27040878D01*
X154252874Y-27361533D01*
X153719649Y-27582402D01*
X153153581Y-27695000D01*
X152576419Y-27695000D01*
X152010351Y-27582402D01*
X151477126Y-27361533D01*
X150997231Y-27040878D01*
X150589122Y-26632769D01*
X150268467Y-26152874D01*
X150047598Y-25619649D01*
X149935000Y-25053581D01*
X149935000Y-24476419D01*
X150047598Y-23910351D01*
X150268467Y-23377126D01*
X150589122Y-22897231D01*
X150997231Y-22489122D01*
X151477126Y-22168467D01*
X152010351Y-21947598D01*
X152576419Y-21835000D01*
X153153581Y-21835000D01*
X153719649Y-21947598D01*
X153719649Y-21947598D01*
G37*
G36*
X183014649Y-21882598D02*
X183547874Y-22103467D01*
X184027769Y-22424122D01*
X184435878Y-22832231D01*
X184756533Y-23312126D01*
X184977402Y-23845351D01*
X185090000Y-24411419D01*
X185090000Y-24988581D01*
X184977402Y-25554649D01*
X184756533Y-26087874D01*
X184435878Y-26567769D01*
X184027769Y-26975878D01*
X183547874Y-27296533D01*
X183014649Y-27517402D01*
X182448581Y-27630000D01*
X181871419Y-27630000D01*
X181305351Y-27517402D01*
X180772126Y-27296533D01*
X180292231Y-26975878D01*
X179884122Y-26567769D01*
X179563467Y-26087874D01*
X179342598Y-25554649D01*
X179230000Y-24988581D01*
X179230000Y-24411419D01*
X179342598Y-23845351D01*
X179563467Y-23312126D01*
X179884122Y-22832231D01*
X180292231Y-22424122D01*
X180772126Y-22103467D01*
X181305351Y-21882598D01*
X181871419Y-21770000D01*
X182448581Y-21770000D01*
X183014649Y-21882598D01*
X183014649Y-21882598D01*
G37*
G36*
X133754649Y-21822598D02*
X134287874Y-22043467D01*
X134767769Y-22364122D01*
X135175878Y-22772231D01*
X135496533Y-23252126D01*
X135717402Y-23785351D01*
X135830000Y-24351419D01*
X135830000Y-24928581D01*
X135717402Y-25494649D01*
X135496533Y-26027874D01*
X135175878Y-26507769D01*
X134767769Y-26915878D01*
X134287874Y-27236533D01*
X133754649Y-27457402D01*
X133188581Y-27570000D01*
X132611419Y-27570000D01*
X132045351Y-27457402D01*
X131512126Y-27236533D01*
X131032231Y-26915878D01*
X130624122Y-26507769D01*
X130303467Y-26027874D01*
X130082598Y-25494649D01*
X129970000Y-24928581D01*
X129970000Y-24351419D01*
X130082598Y-23785351D01*
X130303467Y-23252126D01*
X130624122Y-22772231D01*
X131032231Y-22364122D01*
X131512126Y-22043467D01*
X132045351Y-21822598D01*
X132611419Y-21710000D01*
X133188581Y-21710000D01*
X133754649Y-21822598D01*
X133754649Y-21822598D01*
G37*
G36*
X75304122Y-20701115D02*
X75420041Y-20724173D01*
X75747620Y-20859861D01*
X76038511Y-21054228D01*
X76042436Y-21056851D01*
X76293149Y-21307564D01*
X76293151Y-21307567D01*
X76490139Y-21602380D01*
X76625827Y-21929959D01*
X76695000Y-22277716D01*
X76695000Y-22632284D01*
X76625827Y-22980041D01*
X76490139Y-23307620D01*
X76295772Y-23598511D01*
X76293149Y-23602436D01*
X76042436Y-23853149D01*
X76042433Y-23853151D01*
X75747620Y-24050139D01*
X75420041Y-24185827D01*
X75304122Y-24208885D01*
X75072286Y-24255000D01*
X74717714Y-24255000D01*
X74485878Y-24208885D01*
X74369959Y-24185827D01*
X74042380Y-24050139D01*
X73747567Y-23853151D01*
X73747564Y-23853149D01*
X73496851Y-23602436D01*
X73494228Y-23598511D01*
X73299861Y-23307620D01*
X73164173Y-22980041D01*
X73095000Y-22632284D01*
X73095000Y-22277716D01*
X73164173Y-21929959D01*
X73299861Y-21602380D01*
X73496849Y-21307567D01*
X73496851Y-21307564D01*
X73747564Y-21056851D01*
X73751489Y-21054228D01*
X74042380Y-20859861D01*
X74369959Y-20724173D01*
X74485878Y-20701115D01*
X74717714Y-20655000D01*
X75072286Y-20655000D01*
X75304122Y-20701115D01*
X75304122Y-20701115D01*
G37*
G36*
X210304122Y-20701115D02*
X210420041Y-20724173D01*
X210747620Y-20859861D01*
X211038511Y-21054228D01*
X211042436Y-21056851D01*
X211293149Y-21307564D01*
X211293151Y-21307567D01*
X211490139Y-21602380D01*
X211625827Y-21929959D01*
X211695000Y-22277716D01*
X211695000Y-22632284D01*
X211625827Y-22980041D01*
X211490139Y-23307620D01*
X211295772Y-23598511D01*
X211293149Y-23602436D01*
X211042436Y-23853149D01*
X211042433Y-23853151D01*
X210747620Y-24050139D01*
X210420041Y-24185827D01*
X210304122Y-24208885D01*
X210072286Y-24255000D01*
X209717714Y-24255000D01*
X209485878Y-24208885D01*
X209369959Y-24185827D01*
X209042380Y-24050139D01*
X208747567Y-23853151D01*
X208747564Y-23853149D01*
X208496851Y-23602436D01*
X208494228Y-23598511D01*
X208299861Y-23307620D01*
X208164173Y-22980041D01*
X208095000Y-22632284D01*
X208095000Y-22277716D01*
X208164173Y-21929959D01*
X208299861Y-21602380D01*
X208496849Y-21307567D01*
X208496851Y-21307564D01*
X208747564Y-21056851D01*
X208751489Y-21054228D01*
X209042380Y-20859861D01*
X209369959Y-20724173D01*
X209485878Y-20701115D01*
X209717714Y-20655000D01*
X210072286Y-20655000D01*
X210304122Y-20701115D01*
X210304122Y-20701115D01*
G37*
M02*
