M48
METRIC,TZ
T1C0.400
T2C0.500
T3C0.910
T4C1.000
T5C1.016
T6C1.200
T7C2.690
T8C1.300
T9C3.200
%
G90
G05
T1
X78800Y-58925
X99250Y-87450
X99400Y-29625
X99400Y-30400
X99400Y-38050
X99400Y-46125
X99400Y-54075
X99400Y-63350
X99400Y-71400
X99400Y-79300
X99400Y-80515
X100025Y-53415
X100105Y-86595
X100175Y-37275
X100175Y-45350
X100325Y-62425
X100325Y-70475
X107375Y-32100
X112775Y-36600
X113100Y-49325
X113475Y-24575
X114175Y-32575
X114740Y-49980
X114775Y-36400
X114900Y-24750
X116425Y-49675
X117050Y-39020
X117625Y-59400
X118010Y-26970
X118875Y-87300
X119410Y-38760
X120310Y-27493
X122995Y-49725
X123000Y-62525
X124205Y-56505
X124400Y-62400
X124400Y-84175
X124550Y-79875
X125425Y-36525
X125625Y-62505
X126450Y-28625
X130065Y-75790
X130600Y-85950
X130825Y-76550
X132100Y-81275
X132650Y-76625
X134100Y-76725
X135200Y-91500
X138050Y-88300
X139350Y-85975
X139500Y-87275
X142175Y-88850
X142200Y-84800
X142375Y-22850
X142625Y-93125
X142850Y-49800
X142950Y-28375
X142950Y-33600
X142950Y-44400
X143225Y-39075
X143500Y-56900
X143725Y-84675
X145000Y-94575
X145491Y-81520
X145600Y-74175
X145606Y-79055
X145929Y-80566
X146856Y-79095
X147027Y-74125
X147650Y-93100
X147768Y-76041
X147859Y-68841
X148175Y-74044
X148485Y-76244
X148500Y-82100
X148697Y-87153
X149350Y-81100
X149439Y-86411
X150073Y-82434
X150125Y-74325
X151150Y-91500
X152033Y-82500
X152062Y-71381
X152125Y-69850
X153100Y-82500
X153225Y-65350
X153685Y-88475
X153750Y-74625
X153825Y-77300
X153925Y-76125
X154452Y-93184
X155475Y-83325
X155875Y-94900
X156950Y-77000
X158275Y-74500
X158350Y-52050
X158375Y-53900
X161075Y-64000
X161225Y-86975
X161340Y-38506
X161550Y-24699
X162225Y-88025
X163079Y-32560
X163250Y-39250
X163400Y-49250
X163625Y-24950
X165213Y-84119
X165530Y-39060
X166378Y-27032
X166525Y-82400
X166750Y-49820
X167500Y-29740
X168110Y-49820
X168750Y-39160
X170100Y-49450
X171525Y-68650
X171650Y-57225
X171750Y-70975
X171900Y-73500
X172125Y-77000
X173325Y-75925
X174275Y-36675
X174336Y-91075
X175200Y-28225
X180000Y-86350
X180475Y-80575
X185700Y-80950
X187425Y-38975
X189050Y-94900
X190825Y-86950
X194950Y-28725
X194950Y-41225
X194950Y-53175
X194950Y-64350
X195100Y-79700
X195725Y-75900
X201150Y-32725
X201200Y-69375
X201250Y-24075
X201700Y-56575
X202300Y-74500
X203975Y-44675
X211175Y-65975
T3
X151595Y-33655
X151595Y-36195
X151595Y-38735
X151595Y-41275
X151595Y-43815
X151595Y-46355
X151595Y-48895
X151595Y-51435
X154135Y-33655
X154135Y-36195
X154135Y-38735
X154135Y-41275
X154135Y-43815
X154135Y-46355
X154135Y-48895
X154135Y-51435
X180890Y-33590
X180890Y-36130
X180890Y-38670
X180890Y-41210
X180890Y-43750
X180890Y-46290
X180890Y-48830
X180890Y-51370
X183430Y-33590
X183430Y-36130
X183430Y-38670
X183430Y-41210
X183430Y-43750
X183430Y-46290
X183430Y-48830
X183430Y-51370
X131630Y-33530
X131630Y-36070
X131630Y-38610
X131630Y-41150
X131630Y-43690
X131630Y-46230
X131630Y-48770
X131630Y-51310
X134170Y-33530
X134170Y-36070
X134170Y-38610
X134170Y-41150
X134170Y-43690
X134170Y-46230
X134170Y-48770
X134170Y-51310
X207650Y-39700
X207650Y-42240
X207650Y-44780
X207650Y-47320
X207650Y-49860
X210190Y-39700
X210190Y-42240
X210190Y-44780
X210190Y-47320
X210190Y-49860
T4
X167800Y-86725
X170340Y-86725
X172880Y-86725
X175420Y-86725
X177960Y-86725
X181975Y-86700
X184515Y-86700
X187055Y-86700
T5
X176125Y-92085
X176125Y-94625
X178665Y-92085
X178665Y-94625
X181205Y-92085
X181205Y-94625
X183745Y-92085
X183745Y-94625
X186285Y-92085
X186285Y-94625
T6
X195125Y-93800
X198625Y-93800
X154750Y-67200
X157290Y-67200
X159830Y-67200
X162370Y-67200
X107730Y-93940
X111230Y-93940
X114730Y-93940
X118230Y-93940
X208200Y-77750
X208200Y-81250
X208200Y-84750
X76925Y-29925
X76925Y-33425
X76925Y-36925
X76925Y-40425
X76925Y-43925
X76925Y-47425
X76925Y-50925
X76925Y-54425
X158175Y-94275
X160675Y-94275
X163175Y-94275
X76925Y-63225
X76925Y-66725
X76925Y-70225
X76925Y-73725
X76925Y-77225
X76925Y-80725
X76925Y-84225
X76925Y-87725
T7
X152865Y-24765
X152865Y-60325
X182160Y-24700
X182160Y-60260
X132900Y-24640
X132900Y-60200
X208920Y-30810
X208920Y-58750
T8
X161925Y-92935
T9
X74895Y-94465
X209895Y-94455
X74895Y-22455
X209895Y-22455
T2
X123550Y-95025G85X122850Y-95025
G05
X126550Y-92875G85X125450Y-92875
G05
X129150Y-95025G85X128450Y-95025
G05
T0
M30
