M48
METRIC,TZ
T1C0.400
T2C0.900
T3C1.000
T4C3.200
T5C3.200
%
G90
G05
T1
X123810Y-89410
X127860Y-85350
X133210Y-83900
X135490Y-87990
X135490Y-106830
X135880Y-111890
X136140Y-96980
X139150Y-104730
X142420Y-92190
X142460Y-104750
X148430Y-113850
X149760Y-88910
X152330Y-101040
X156920Y-93690
X157610Y-106510
X157900Y-81650
X158270Y-73040
X161700Y-102750
X164649Y-105850
X164780Y-87990
X166080Y-104230
X167010Y-118040
X167030Y-108478
X170230Y-90790
X171020Y-86790
X184520Y-85450
X184600Y-77980
X186680Y-83400
X187390Y-91000
X196395Y-92745
X200180Y-94910
T2
X155160Y-118200
X157700Y-118200
X185800Y-118200
X188340Y-118200
X124300Y-118200
X126840Y-118200
T3
X182200Y-70860
X182200Y-111460
X184740Y-70860
X184740Y-111460
X187280Y-70860
X187280Y-111460
X189820Y-70860
X189820Y-111460
X192360Y-70860
X192360Y-111460
X184400Y-93200
X184400Y-95740
X184400Y-98280
X184400Y-100820
X184400Y-103360
X191885Y-87170
X191885Y-89940
X191885Y-92710
X191885Y-95480
X191885Y-98250
X194725Y-88555
X194725Y-91325
X194725Y-94095
X194725Y-96865
X151300Y-70860
X151300Y-111460
X153840Y-70860
X153840Y-111460
X156380Y-70860
X156380Y-111460
X158920Y-70860
X158920Y-111460
X161460Y-70860
X161460Y-111460
X120400Y-70850
X120400Y-111450
X122940Y-70850
X122940Y-111450
X125480Y-70850
X125480Y-111450
X128020Y-70850
X128020Y-111450
X130560Y-70850
X130560Y-111450
T4
X193305Y-80210
X193305Y-105210
T5
X206000Y-69300
X106000Y-69300
X106000Y-118300
X206000Y-118300
T0
M30
