G04 #@! TF.GenerationSoftware,KiCad,Pcbnew,5.0.1*
G04 #@! TF.CreationDate,2019-04-04T22:22:51+02:00*
G04 #@! TF.ProjectId,sdu,7364752E6B696361645F706362000000,0.2*
G04 #@! TF.SameCoordinates,Original*
G04 #@! TF.FileFunction,Copper,L1,Top,Signal*
G04 #@! TF.FilePolarity,Positive*
%FSLAX46Y46*%
G04 Gerber Fmt 4.6, Leading zero omitted, Abs format (unit mm)*
G04 Created by KiCad (PCBNEW 5.0.1) date Čt 4. dubna 2019, 22:22:51 CEST*
%MOMM*%
%LPD*%
G01*
G04 APERTURE LIST*
G04 #@! TA.AperFunction,ComponentPad*
%ADD10C,2.000000*%
G04 #@! TD*
G04 #@! TA.AperFunction,ComponentPad*
%ADD11R,2.000000X2.000000*%
G04 #@! TD*
G04 #@! TA.AperFunction,ComponentPad*
%ADD12R,1.800000X1.800000*%
G04 #@! TD*
G04 #@! TA.AperFunction,ComponentPad*
%ADD13C,1.800000*%
G04 #@! TD*
G04 #@! TA.AperFunction,ComponentPad*
%ADD14R,1.600000X1.600000*%
G04 #@! TD*
G04 #@! TA.AperFunction,ComponentPad*
%ADD15C,1.600000*%
G04 #@! TD*
G04 #@! TA.AperFunction,ComponentPad*
%ADD16C,4.000000*%
G04 #@! TD*
G04 #@! TA.AperFunction,ComponentPad*
%ADD17R,1.700000X1.700000*%
G04 #@! TD*
G04 #@! TA.AperFunction,ComponentPad*
%ADD18O,1.700000X1.700000*%
G04 #@! TD*
G04 #@! TA.AperFunction,ViaPad*
%ADD19C,0.800000*%
G04 #@! TD*
G04 #@! TA.AperFunction,Conductor*
%ADD20C,0.600000*%
G04 #@! TD*
G04 #@! TA.AperFunction,Conductor*
%ADD21C,0.254000*%
G04 #@! TD*
G04 APERTURE END LIST*
D10*
G04 #@! TO.P,U6,10*
G04 #@! TO.N,Net-(R14-Pad1)*
X151300001Y-70860001D03*
G04 #@! TO.P,U6,9*
G04 #@! TO.N,Net-(R13-Pad1)*
X153840001Y-70860001D03*
G04 #@! TO.P,U6,8*
G04 #@! TO.N,Net-(R15-Pad1)*
X156380001Y-70860001D03*
G04 #@! TO.P,U6,7*
G04 #@! TO.N,Net-(R8-Pad1)*
X158920001Y-70860001D03*
G04 #@! TO.P,U6,6*
G04 #@! TO.N,Net-(R9-Pad1)*
X161460001Y-70860001D03*
G04 #@! TO.P,U6,5*
G04 #@! TO.N,Net-(Q3-Pad3)*
X161460001Y-111460001D03*
G04 #@! TO.P,U6,4*
G04 #@! TO.N,Net-(R10-Pad1)*
X158920001Y-111460001D03*
G04 #@! TO.P,U6,3*
G04 #@! TO.N,Net-(R11-Pad1)*
X156380001Y-111460001D03*
G04 #@! TO.P,U6,2*
G04 #@! TO.N,Net-(R12-Pad1)*
X153840001Y-111460001D03*
D11*
G04 #@! TO.P,U6,1*
G04 #@! TO.N,Net-(Q3-Pad3)*
X151300001Y-111460001D03*
G04 #@! TD*
D12*
G04 #@! TO.P,D4,1*
G04 #@! TO.N,/LED3*
X185800000Y-118200000D03*
D13*
G04 #@! TO.P,D4,2*
G04 #@! TO.N,Net-(D4-Pad2)*
X188340000Y-118200000D03*
G04 #@! TD*
D14*
G04 #@! TO.P,J1,1*
G04 #@! TO.N,/RESET*
X191885000Y-98250000D03*
D15*
G04 #@! TO.P,J1,2*
G04 #@! TO.N,N/C*
X191885000Y-95480000D03*
G04 #@! TO.P,J1,3*
G04 #@! TO.N,GND*
X191885000Y-92710000D03*
G04 #@! TO.P,J1,4*
G04 #@! TO.N,/CAN_L*
X191885000Y-89940000D03*
G04 #@! TO.P,J1,5*
G04 #@! TO.N,/SWDIO*
X191885000Y-87170000D03*
G04 #@! TO.P,J1,6*
G04 #@! TO.N,+5V*
X194725000Y-96865000D03*
G04 #@! TO.P,J1,7*
G04 #@! TO.N,N/C*
X194725000Y-94095000D03*
G04 #@! TO.P,J1,8*
G04 #@! TO.N,/CAN_H*
X194725000Y-91325000D03*
G04 #@! TO.P,J1,9*
G04 #@! TO.N,/SWCLK*
X194725000Y-88555000D03*
D16*
G04 #@! TO.P,J1,0*
G04 #@! TO.N,N/C*
X193305000Y-80210000D03*
X193305000Y-105210000D03*
G04 #@! TD*
D12*
G04 #@! TO.P,D2,1*
G04 #@! TO.N,/LED1*
X124300000Y-118200000D03*
D13*
G04 #@! TO.P,D2,2*
G04 #@! TO.N,Net-(D2-Pad2)*
X126840000Y-118200000D03*
G04 #@! TD*
G04 #@! TO.P,D3,2*
G04 #@! TO.N,Net-(D3-Pad2)*
X157700000Y-118200000D03*
D12*
G04 #@! TO.P,D3,1*
G04 #@! TO.N,/LED2*
X155160000Y-118200000D03*
G04 #@! TD*
D11*
G04 #@! TO.P,U7,1*
G04 #@! TO.N,Net-(Q4-Pad3)*
X182200000Y-111460001D03*
D10*
G04 #@! TO.P,U7,2*
G04 #@! TO.N,Net-(R12-Pad1)*
X184740000Y-111460001D03*
G04 #@! TO.P,U7,3*
G04 #@! TO.N,Net-(R11-Pad1)*
X187280000Y-111460001D03*
G04 #@! TO.P,U7,4*
G04 #@! TO.N,Net-(R10-Pad1)*
X189820000Y-111460001D03*
G04 #@! TO.P,U7,5*
G04 #@! TO.N,Net-(Q4-Pad3)*
X192360000Y-111460001D03*
G04 #@! TO.P,U7,6*
G04 #@! TO.N,Net-(R9-Pad1)*
X192360000Y-70860001D03*
G04 #@! TO.P,U7,7*
G04 #@! TO.N,Net-(R8-Pad1)*
X189820000Y-70860001D03*
G04 #@! TO.P,U7,8*
G04 #@! TO.N,N/C*
X187280000Y-70860001D03*
G04 #@! TO.P,U7,9*
G04 #@! TO.N,Net-(R13-Pad1)*
X184740000Y-70860001D03*
G04 #@! TO.P,U7,10*
G04 #@! TO.N,Net-(R14-Pad1)*
X182200000Y-70860001D03*
G04 #@! TD*
D17*
G04 #@! TO.P,J2,1*
G04 #@! TO.N,+3V3*
X184400000Y-93200000D03*
D18*
G04 #@! TO.P,J2,2*
G04 #@! TO.N,/SWCLK*
X184400000Y-95740000D03*
G04 #@! TO.P,J2,3*
G04 #@! TO.N,GND*
X184400000Y-98280000D03*
G04 #@! TO.P,J2,4*
G04 #@! TO.N,/SWDIO*
X184400000Y-100820000D03*
G04 #@! TO.P,J2,5*
G04 #@! TO.N,/RESET*
X184400000Y-103360000D03*
G04 #@! TD*
D11*
G04 #@! TO.P,U5,1*
G04 #@! TO.N,Net-(Q2-Pad3)*
X120400000Y-111450000D03*
D10*
G04 #@! TO.P,U5,2*
G04 #@! TO.N,Net-(R12-Pad1)*
X122940000Y-111450000D03*
G04 #@! TO.P,U5,3*
G04 #@! TO.N,Net-(R11-Pad1)*
X125480000Y-111450000D03*
G04 #@! TO.P,U5,4*
G04 #@! TO.N,Net-(R10-Pad1)*
X128020000Y-111450000D03*
G04 #@! TO.P,U5,5*
G04 #@! TO.N,Net-(Q2-Pad3)*
X130560000Y-111450000D03*
G04 #@! TO.P,U5,6*
G04 #@! TO.N,Net-(R9-Pad1)*
X130560000Y-70850000D03*
G04 #@! TO.P,U5,7*
G04 #@! TO.N,Net-(R8-Pad1)*
X128020000Y-70850000D03*
G04 #@! TO.P,U5,8*
G04 #@! TO.N,N/C*
X125480000Y-70850000D03*
G04 #@! TO.P,U5,9*
G04 #@! TO.N,Net-(R13-Pad1)*
X122940000Y-70850000D03*
G04 #@! TO.P,U5,10*
G04 #@! TO.N,Net-(R14-Pad1)*
X120400000Y-70850000D03*
G04 #@! TD*
D19*
G04 #@! TO.N,+5V*
X164780000Y-87990000D03*
X171020000Y-86790000D03*
X157610000Y-106510000D03*
X161700000Y-102750000D03*
X127860000Y-85350000D03*
X135490000Y-87990000D03*
X135490000Y-106830000D03*
X135880000Y-111890000D03*
X164649260Y-105849622D03*
G04 #@! TO.N,GND*
X184520000Y-85450000D03*
X136140000Y-96980000D03*
X200180000Y-94910000D03*
X157900000Y-81650000D03*
X158270000Y-73040000D03*
X184600000Y-77980000D03*
X142460000Y-104750000D03*
X152330000Y-101040000D03*
X170230000Y-90790000D03*
X142420000Y-92190000D03*
X167030010Y-108478469D03*
G04 #@! TO.N,+3V3*
X186680000Y-83400000D03*
G04 #@! TO.N,/RESET*
X156920000Y-93690000D03*
X149760000Y-88910000D03*
G04 #@! TO.N,/SWDIO*
X187390000Y-91000000D03*
G04 #@! TO.N,/SWCLK*
X196394999Y-92744999D03*
G04 #@! TO.N,/LED1*
X123810000Y-89410000D03*
X133210000Y-83900000D03*
G04 #@! TO.N,/LED2*
X148430000Y-113850000D03*
X139150000Y-104730000D03*
G04 #@! TO.N,/LED3*
X166080000Y-104230000D03*
X167010000Y-118040000D03*
G04 #@! TD*
D20*
G04 #@! TO.N,+5V*
X164780000Y-87990000D02*
X169820000Y-87990000D01*
X169820000Y-87990000D02*
X171020000Y-86790000D01*
X161860000Y-102910000D02*
X161700000Y-102750000D01*
X161860000Y-106510000D02*
X161860000Y-102910000D01*
X157610000Y-106510000D02*
X161860000Y-106510000D01*
X127860000Y-85350000D02*
X132850000Y-85350000D01*
X132850000Y-85350000D02*
X135490000Y-87990000D01*
X135490000Y-106830000D02*
X135490000Y-111500000D01*
X135490000Y-111500000D02*
X135880000Y-111890000D01*
X161860000Y-106510000D02*
X163988882Y-106510000D01*
X163988882Y-106510000D02*
X164249261Y-106249621D01*
X164249261Y-106249621D02*
X164649260Y-105849622D01*
G04 #@! TO.N,+3V3*
X184400000Y-91750000D02*
X186130000Y-90020000D01*
X184400000Y-93200000D02*
X184400000Y-91750000D01*
X186130000Y-90020000D02*
X186130000Y-83950000D01*
X186130000Y-83950000D02*
X186680000Y-83400000D01*
G04 #@! TO.N,/RESET*
X156920000Y-93690000D02*
X154540000Y-93690000D01*
X154540000Y-93690000D02*
X149760000Y-88910000D01*
G04 #@! TO.N,/SWDIO*
X189310000Y-89230000D02*
X190600000Y-87940000D01*
X190753630Y-87170000D02*
X191885000Y-87170000D01*
X190600000Y-87323630D02*
X190753630Y-87170000D01*
X190600000Y-87940000D02*
X190600000Y-87323630D01*
X189310000Y-90305685D02*
X189310000Y-89230000D01*
X188545685Y-91070000D02*
X189310000Y-90305685D01*
X187605685Y-92010000D02*
X188545685Y-91070000D01*
X186990000Y-92010000D02*
X187605685Y-92010000D01*
X186820000Y-92180000D02*
X186990000Y-92010000D01*
X186820000Y-99602081D02*
X186820000Y-92180000D01*
X184400000Y-100820000D02*
X185602081Y-100820000D01*
X185602081Y-100820000D02*
X186820000Y-99602081D01*
X187390000Y-91000000D02*
X188545685Y-91070000D01*
G04 #@! TO.N,/SWCLK*
X196394999Y-92744999D02*
X196394999Y-89034999D01*
X195915000Y-88555000D02*
X194725000Y-88555000D01*
X196394999Y-89034999D02*
X195915000Y-88555000D01*
G04 #@! TO.N,Net-(Q2-Pad3)*
X120400000Y-113050000D02*
X120400000Y-111450000D01*
X130560000Y-112864213D02*
X129824213Y-113600000D01*
X120950000Y-113600000D02*
X120400000Y-113050000D01*
X129824213Y-113600000D02*
X120950000Y-113600000D01*
X130560000Y-111450000D02*
X130560000Y-112864213D01*
G04 #@! TO.N,Net-(Q3-Pad3)*
X151300001Y-109860001D02*
X151820002Y-109340000D01*
X151300001Y-111460001D02*
X151300001Y-109860001D01*
X151820002Y-109340000D02*
X160430000Y-109340000D01*
X160430000Y-109340000D02*
X161310000Y-110220000D01*
X161310000Y-111310000D02*
X161460001Y-111460001D01*
X161310000Y-110220000D02*
X161310000Y-111310000D01*
G04 #@! TO.N,/LED1*
X123810000Y-89410000D02*
X123810000Y-85730000D01*
X123810000Y-85730000D02*
X125640000Y-83900000D01*
X125640000Y-83900000D02*
X133210000Y-83900000D01*
G04 #@! TO.N,/LED2*
X148430000Y-113850000D02*
X139310000Y-104730000D01*
X139310000Y-104730000D02*
X139150000Y-104730000D01*
G04 #@! TO.N,/LED3*
X166080000Y-104230000D02*
X166080000Y-117380000D01*
X166080000Y-117380000D02*
X166740000Y-118040000D01*
X166740000Y-118040000D02*
X167010000Y-118040000D01*
G04 #@! TD*
D21*
G04 #@! TO.N,GND*
G36*
X208790001Y-121090000D02*
X103210000Y-121090000D01*
X103210000Y-117855431D01*
X103765000Y-117855431D01*
X103765000Y-118744569D01*
X104105259Y-119566026D01*
X104733974Y-120194741D01*
X105555431Y-120535000D01*
X106444569Y-120535000D01*
X107266026Y-120194741D01*
X107894741Y-119566026D01*
X108235000Y-118744569D01*
X108235000Y-117855431D01*
X108004933Y-117300000D01*
X122752560Y-117300000D01*
X122752560Y-119100000D01*
X122801843Y-119347765D01*
X122942191Y-119557809D01*
X123152235Y-119698157D01*
X123400000Y-119747440D01*
X125200000Y-119747440D01*
X125447765Y-119698157D01*
X125657809Y-119557809D01*
X125798157Y-119347765D01*
X125801275Y-119332092D01*
X125970493Y-119501310D01*
X126534670Y-119735000D01*
X127145330Y-119735000D01*
X127709507Y-119501310D01*
X128141310Y-119069507D01*
X128375000Y-118505330D01*
X128375000Y-117894670D01*
X128141310Y-117330493D01*
X128110817Y-117300000D01*
X153612560Y-117300000D01*
X153612560Y-119100000D01*
X153661843Y-119347765D01*
X153802191Y-119557809D01*
X154012235Y-119698157D01*
X154260000Y-119747440D01*
X156060000Y-119747440D01*
X156307765Y-119698157D01*
X156517809Y-119557809D01*
X156658157Y-119347765D01*
X156661275Y-119332092D01*
X156830493Y-119501310D01*
X157394670Y-119735000D01*
X158005330Y-119735000D01*
X158569507Y-119501310D01*
X159001310Y-119069507D01*
X159235000Y-118505330D01*
X159235000Y-117894670D01*
X159001310Y-117330493D01*
X158569507Y-116898690D01*
X158005330Y-116665000D01*
X157394670Y-116665000D01*
X156830493Y-116898690D01*
X156661275Y-117067908D01*
X156658157Y-117052235D01*
X156517809Y-116842191D01*
X156307765Y-116701843D01*
X156060000Y-116652560D01*
X154260000Y-116652560D01*
X154012235Y-116701843D01*
X153802191Y-116842191D01*
X153661843Y-117052235D01*
X153612560Y-117300000D01*
X128110817Y-117300000D01*
X127709507Y-116898690D01*
X127145330Y-116665000D01*
X126534670Y-116665000D01*
X125970493Y-116898690D01*
X125801275Y-117067908D01*
X125798157Y-117052235D01*
X125657809Y-116842191D01*
X125447765Y-116701843D01*
X125200000Y-116652560D01*
X123400000Y-116652560D01*
X123152235Y-116701843D01*
X122942191Y-116842191D01*
X122801843Y-117052235D01*
X122752560Y-117300000D01*
X108004933Y-117300000D01*
X107894741Y-117033974D01*
X107266026Y-116405259D01*
X106444569Y-116065000D01*
X105555431Y-116065000D01*
X104733974Y-116405259D01*
X104105259Y-117033974D01*
X103765000Y-117855431D01*
X103210000Y-117855431D01*
X103210000Y-110450000D01*
X118752560Y-110450000D01*
X118752560Y-112450000D01*
X118801843Y-112697765D01*
X118942191Y-112907809D01*
X119152235Y-113048157D01*
X119400000Y-113097440D01*
X119456119Y-113097440D01*
X119465000Y-113142085D01*
X119519250Y-113414818D01*
X119725903Y-113724097D01*
X119803972Y-113776261D01*
X120223739Y-114196028D01*
X120275903Y-114274097D01*
X120585181Y-114480750D01*
X120857914Y-114535000D01*
X120857918Y-114535000D01*
X120949999Y-114553316D01*
X121042080Y-114535000D01*
X129732127Y-114535000D01*
X129824213Y-114553317D01*
X129916299Y-114535000D01*
X130189032Y-114480750D01*
X130498310Y-114274097D01*
X130550474Y-114196028D01*
X131156030Y-113590472D01*
X131234097Y-113538310D01*
X131440750Y-113229032D01*
X131495000Y-112956299D01*
X131513317Y-112864213D01*
X131504144Y-112818095D01*
X131946086Y-112376153D01*
X132195000Y-111775222D01*
X132195000Y-111124778D01*
X131946086Y-110523847D01*
X131486153Y-110063914D01*
X130885222Y-109815000D01*
X130234778Y-109815000D01*
X129633847Y-110063914D01*
X129290000Y-110407761D01*
X128946153Y-110063914D01*
X128345222Y-109815000D01*
X127694778Y-109815000D01*
X127093847Y-110063914D01*
X126750000Y-110407761D01*
X126406153Y-110063914D01*
X125805222Y-109815000D01*
X125154778Y-109815000D01*
X124553847Y-110063914D01*
X124210000Y-110407761D01*
X123866153Y-110063914D01*
X123265222Y-109815000D01*
X122614778Y-109815000D01*
X122013847Y-110063914D01*
X121949038Y-110128723D01*
X121857809Y-109992191D01*
X121647765Y-109851843D01*
X121400000Y-109802560D01*
X119400000Y-109802560D01*
X119152235Y-109851843D01*
X118942191Y-109992191D01*
X118801843Y-110202235D01*
X118752560Y-110450000D01*
X103210000Y-110450000D01*
X103210000Y-106624126D01*
X134455000Y-106624126D01*
X134455000Y-107035874D01*
X134555000Y-107277296D01*
X134555001Y-111407910D01*
X134536683Y-111500000D01*
X134609250Y-111864818D01*
X134688526Y-111983463D01*
X134815904Y-112174097D01*
X134893970Y-112226259D01*
X134902569Y-112234858D01*
X135002569Y-112476280D01*
X135293720Y-112767431D01*
X135674126Y-112925000D01*
X136085874Y-112925000D01*
X136466280Y-112767431D01*
X136757431Y-112476280D01*
X136915000Y-112095874D01*
X136915000Y-111684126D01*
X136757431Y-111303720D01*
X136466280Y-111012569D01*
X136425000Y-110995470D01*
X136425000Y-107277296D01*
X136525000Y-107035874D01*
X136525000Y-106624126D01*
X136367431Y-106243720D01*
X136076280Y-105952569D01*
X135695874Y-105795000D01*
X135284126Y-105795000D01*
X134903720Y-105952569D01*
X134612569Y-106243720D01*
X134455000Y-106624126D01*
X103210000Y-106624126D01*
X103210000Y-104524126D01*
X138115000Y-104524126D01*
X138115000Y-104935874D01*
X138272569Y-105316280D01*
X138563720Y-105607431D01*
X138944126Y-105765000D01*
X139022711Y-105765000D01*
X147452569Y-114194858D01*
X147552569Y-114436280D01*
X147843720Y-114727431D01*
X148224126Y-114885000D01*
X148635874Y-114885000D01*
X149016280Y-114727431D01*
X149307431Y-114436280D01*
X149465000Y-114055874D01*
X149465000Y-113644126D01*
X149307431Y-113263720D01*
X149016280Y-112972569D01*
X148774858Y-112872569D01*
X146362290Y-110460001D01*
X149652561Y-110460001D01*
X149652561Y-112460001D01*
X149701844Y-112707766D01*
X149842192Y-112917810D01*
X150052236Y-113058158D01*
X150300001Y-113107441D01*
X152300001Y-113107441D01*
X152547766Y-113058158D01*
X152757810Y-112917810D01*
X152849039Y-112781278D01*
X152913848Y-112846087D01*
X153514779Y-113095001D01*
X154165223Y-113095001D01*
X154766154Y-112846087D01*
X155110001Y-112502240D01*
X155453848Y-112846087D01*
X156054779Y-113095001D01*
X156705223Y-113095001D01*
X157306154Y-112846087D01*
X157650001Y-112502240D01*
X157993848Y-112846087D01*
X158594779Y-113095001D01*
X159245223Y-113095001D01*
X159846154Y-112846087D01*
X160190001Y-112502240D01*
X160533848Y-112846087D01*
X161134779Y-113095001D01*
X161785223Y-113095001D01*
X162386154Y-112846087D01*
X162846087Y-112386154D01*
X163095001Y-111785223D01*
X163095001Y-111134779D01*
X162846087Y-110533848D01*
X162386154Y-110073915D01*
X162220620Y-110005349D01*
X162190750Y-109855181D01*
X162036259Y-109623969D01*
X161984097Y-109545903D01*
X161906031Y-109493741D01*
X161156261Y-108743972D01*
X161104097Y-108665903D01*
X160794819Y-108459250D01*
X160522086Y-108405000D01*
X160430000Y-108386683D01*
X160337914Y-108405000D01*
X151912082Y-108405000D01*
X151820001Y-108386684D01*
X151727920Y-108405000D01*
X151727916Y-108405000D01*
X151455183Y-108459250D01*
X151145905Y-108665903D01*
X151093741Y-108743972D01*
X150703971Y-109133742D01*
X150625905Y-109185904D01*
X150573743Y-109263970D01*
X150573742Y-109263971D01*
X150419251Y-109495183D01*
X150356120Y-109812561D01*
X150300001Y-109812561D01*
X150052236Y-109861844D01*
X149842192Y-110002192D01*
X149701844Y-110212236D01*
X149652561Y-110460001D01*
X146362290Y-110460001D01*
X142206415Y-106304126D01*
X156575000Y-106304126D01*
X156575000Y-106715874D01*
X156732569Y-107096280D01*
X157023720Y-107387431D01*
X157404126Y-107545000D01*
X157815874Y-107545000D01*
X158057296Y-107445000D01*
X161767914Y-107445000D01*
X161860000Y-107463317D01*
X161952086Y-107445000D01*
X163896796Y-107445000D01*
X163988882Y-107463317D01*
X164080968Y-107445000D01*
X164353701Y-107390750D01*
X164662979Y-107184097D01*
X164715144Y-107106027D01*
X164845289Y-106975881D01*
X164845291Y-106975880D01*
X164994118Y-106827053D01*
X165145000Y-106764556D01*
X165145001Y-117287910D01*
X165126683Y-117380000D01*
X165199250Y-117744818D01*
X165299378Y-117894670D01*
X165405904Y-118054097D01*
X165483970Y-118106259D01*
X166013741Y-118636030D01*
X166065903Y-118714097D01*
X166143969Y-118766259D01*
X166375181Y-118920750D01*
X166483980Y-118942391D01*
X166804126Y-119075000D01*
X167215874Y-119075000D01*
X167596280Y-118917431D01*
X167887431Y-118626280D01*
X168045000Y-118245874D01*
X168045000Y-117834126D01*
X167887431Y-117453720D01*
X167733711Y-117300000D01*
X184252560Y-117300000D01*
X184252560Y-119100000D01*
X184301843Y-119347765D01*
X184442191Y-119557809D01*
X184652235Y-119698157D01*
X184900000Y-119747440D01*
X186700000Y-119747440D01*
X186947765Y-119698157D01*
X187157809Y-119557809D01*
X187298157Y-119347765D01*
X187301275Y-119332092D01*
X187470493Y-119501310D01*
X188034670Y-119735000D01*
X188645330Y-119735000D01*
X189209507Y-119501310D01*
X189641310Y-119069507D01*
X189875000Y-118505330D01*
X189875000Y-117894670D01*
X189858747Y-117855431D01*
X203765000Y-117855431D01*
X203765000Y-118744569D01*
X204105259Y-119566026D01*
X204733974Y-120194741D01*
X205555431Y-120535000D01*
X206444569Y-120535000D01*
X207266026Y-120194741D01*
X207894741Y-119566026D01*
X208235000Y-118744569D01*
X208235000Y-117855431D01*
X207894741Y-117033974D01*
X207266026Y-116405259D01*
X206444569Y-116065000D01*
X205555431Y-116065000D01*
X204733974Y-116405259D01*
X204105259Y-117033974D01*
X203765000Y-117855431D01*
X189858747Y-117855431D01*
X189641310Y-117330493D01*
X189209507Y-116898690D01*
X188645330Y-116665000D01*
X188034670Y-116665000D01*
X187470493Y-116898690D01*
X187301275Y-117067908D01*
X187298157Y-117052235D01*
X187157809Y-116842191D01*
X186947765Y-116701843D01*
X186700000Y-116652560D01*
X184900000Y-116652560D01*
X184652235Y-116701843D01*
X184442191Y-116842191D01*
X184301843Y-117052235D01*
X184252560Y-117300000D01*
X167733711Y-117300000D01*
X167596280Y-117162569D01*
X167215874Y-117005000D01*
X167027289Y-117005000D01*
X167015000Y-116992711D01*
X167015000Y-110460001D01*
X180552560Y-110460001D01*
X180552560Y-112460001D01*
X180601843Y-112707766D01*
X180742191Y-112917810D01*
X180952235Y-113058158D01*
X181200000Y-113107441D01*
X183200000Y-113107441D01*
X183447765Y-113058158D01*
X183657809Y-112917810D01*
X183749038Y-112781278D01*
X183813847Y-112846087D01*
X184414778Y-113095001D01*
X185065222Y-113095001D01*
X185666153Y-112846087D01*
X186010000Y-112502240D01*
X186353847Y-112846087D01*
X186954778Y-113095001D01*
X187605222Y-113095001D01*
X188206153Y-112846087D01*
X188550000Y-112502240D01*
X188893847Y-112846087D01*
X189494778Y-113095001D01*
X190145222Y-113095001D01*
X190746153Y-112846087D01*
X191090000Y-112502240D01*
X191433847Y-112846087D01*
X192034778Y-113095001D01*
X192685222Y-113095001D01*
X193286153Y-112846087D01*
X193746086Y-112386154D01*
X193995000Y-111785223D01*
X193995000Y-111134779D01*
X193746086Y-110533848D01*
X193286153Y-110073915D01*
X192685222Y-109825001D01*
X192034778Y-109825001D01*
X191433847Y-110073915D01*
X191090000Y-110417762D01*
X190746153Y-110073915D01*
X190145222Y-109825001D01*
X189494778Y-109825001D01*
X188893847Y-110073915D01*
X188550000Y-110417762D01*
X188206153Y-110073915D01*
X187605222Y-109825001D01*
X186954778Y-109825001D01*
X186353847Y-110073915D01*
X186010000Y-110417762D01*
X185666153Y-110073915D01*
X185065222Y-109825001D01*
X184414778Y-109825001D01*
X183813847Y-110073915D01*
X183749038Y-110138724D01*
X183657809Y-110002192D01*
X183447765Y-109861844D01*
X183200000Y-109812561D01*
X181200000Y-109812561D01*
X180952235Y-109861844D01*
X180742191Y-110002192D01*
X180601843Y-110212236D01*
X180552560Y-110460001D01*
X167015000Y-110460001D01*
X167015000Y-104677296D01*
X167115000Y-104435874D01*
X167115000Y-104024126D01*
X166957431Y-103643720D01*
X166666280Y-103352569D01*
X166285874Y-103195000D01*
X165874126Y-103195000D01*
X165493720Y-103352569D01*
X165202569Y-103643720D01*
X165045000Y-104024126D01*
X165045000Y-104435874D01*
X165145000Y-104677296D01*
X165145000Y-104934688D01*
X164855134Y-104814622D01*
X164443386Y-104814622D01*
X164062980Y-104972191D01*
X163771829Y-105263342D01*
X163671829Y-105504764D01*
X163601593Y-105575000D01*
X162795000Y-105575000D01*
X162795000Y-103002081D01*
X162813316Y-102909999D01*
X162795000Y-102817917D01*
X162795000Y-102817914D01*
X162740750Y-102545181D01*
X162726772Y-102524261D01*
X162577431Y-102163720D01*
X162286280Y-101872569D01*
X161905874Y-101715000D01*
X161494126Y-101715000D01*
X161113720Y-101872569D01*
X160822569Y-102163720D01*
X160665000Y-102544126D01*
X160665000Y-102955874D01*
X160822569Y-103336280D01*
X160925001Y-103438712D01*
X160925000Y-105575000D01*
X158057296Y-105575000D01*
X157815874Y-105475000D01*
X157404126Y-105475000D01*
X157023720Y-105632569D01*
X156732569Y-105923720D01*
X156575000Y-106304126D01*
X142206415Y-106304126D01*
X140036261Y-104133972D01*
X139984097Y-104055903D01*
X139850040Y-103966329D01*
X139736280Y-103852569D01*
X139355874Y-103695000D01*
X138944126Y-103695000D01*
X138563720Y-103852569D01*
X138272569Y-104143720D01*
X138115000Y-104524126D01*
X103210000Y-104524126D01*
X103210000Y-95740000D01*
X182885908Y-95740000D01*
X183001161Y-96319418D01*
X183329375Y-96810625D01*
X183648478Y-97023843D01*
X183518642Y-97084817D01*
X183128355Y-97513076D01*
X182958524Y-97923110D01*
X183079845Y-98153000D01*
X184273000Y-98153000D01*
X184273000Y-98133000D01*
X184527000Y-98133000D01*
X184527000Y-98153000D01*
X185720155Y-98153000D01*
X185841476Y-97923110D01*
X185671645Y-97513076D01*
X185281358Y-97084817D01*
X185151522Y-97023843D01*
X185470625Y-96810625D01*
X185798839Y-96319418D01*
X185885001Y-95886253D01*
X185885000Y-99214792D01*
X185398566Y-99701226D01*
X185151522Y-99536157D01*
X185281358Y-99475183D01*
X185671645Y-99046924D01*
X185841476Y-98636890D01*
X185720155Y-98407000D01*
X184527000Y-98407000D01*
X184527000Y-98427000D01*
X184273000Y-98427000D01*
X184273000Y-98407000D01*
X183079845Y-98407000D01*
X182958524Y-98636890D01*
X183128355Y-99046924D01*
X183518642Y-99475183D01*
X183648478Y-99536157D01*
X183329375Y-99749375D01*
X183001161Y-100240582D01*
X182885908Y-100820000D01*
X183001161Y-101399418D01*
X183329375Y-101890625D01*
X183627761Y-102090000D01*
X183329375Y-102289375D01*
X183001161Y-102780582D01*
X182885908Y-103360000D01*
X183001161Y-103939418D01*
X183329375Y-104430625D01*
X183820582Y-104758839D01*
X184253744Y-104845000D01*
X184546256Y-104845000D01*
X184979418Y-104758839D01*
X185088629Y-104685866D01*
X190670000Y-104685866D01*
X190670000Y-105734134D01*
X191071155Y-106702608D01*
X191812392Y-107443845D01*
X192780866Y-107845000D01*
X193829134Y-107845000D01*
X194797608Y-107443845D01*
X195538845Y-106702608D01*
X195940000Y-105734134D01*
X195940000Y-104685866D01*
X195538845Y-103717392D01*
X194797608Y-102976155D01*
X193829134Y-102575000D01*
X192780866Y-102575000D01*
X191812392Y-102976155D01*
X191071155Y-103717392D01*
X190670000Y-104685866D01*
X185088629Y-104685866D01*
X185470625Y-104430625D01*
X185798839Y-103939418D01*
X185914092Y-103360000D01*
X185798839Y-102780582D01*
X185470625Y-102289375D01*
X185172239Y-102090000D01*
X185470625Y-101890625D01*
X185555234Y-101763999D01*
X185602081Y-101773317D01*
X185694167Y-101755000D01*
X185966900Y-101700750D01*
X186276178Y-101494097D01*
X186328342Y-101416028D01*
X187416028Y-100328342D01*
X187494097Y-100276178D01*
X187700750Y-99966900D01*
X187755000Y-99694167D01*
X187755000Y-99694166D01*
X187773317Y-99602081D01*
X187755000Y-99509995D01*
X187755000Y-97450000D01*
X190437560Y-97450000D01*
X190437560Y-99050000D01*
X190486843Y-99297765D01*
X190627191Y-99507809D01*
X190837235Y-99648157D01*
X191085000Y-99697440D01*
X192685000Y-99697440D01*
X192932765Y-99648157D01*
X193142809Y-99507809D01*
X193283157Y-99297765D01*
X193332440Y-99050000D01*
X193332440Y-97450000D01*
X193283157Y-97202235D01*
X193142809Y-96992191D01*
X192932765Y-96851843D01*
X192685000Y-96802560D01*
X192441893Y-96802560D01*
X192697862Y-96696534D01*
X193101534Y-96292862D01*
X193320000Y-95765439D01*
X193320000Y-95194561D01*
X193101534Y-94667138D01*
X192697862Y-94263466D01*
X192306782Y-94101475D01*
X192639005Y-93963864D01*
X192713139Y-93717745D01*
X191885000Y-92889605D01*
X191056861Y-93717745D01*
X191130995Y-93963864D01*
X191486739Y-94091732D01*
X191072138Y-94263466D01*
X190668466Y-94667138D01*
X190450000Y-95194561D01*
X190450000Y-95765439D01*
X190668466Y-96292862D01*
X191072138Y-96696534D01*
X191328107Y-96802560D01*
X191085000Y-96802560D01*
X190837235Y-96851843D01*
X190627191Y-96992191D01*
X190486843Y-97202235D01*
X190437560Y-97450000D01*
X187755000Y-97450000D01*
X187755000Y-92933616D01*
X187970504Y-92890750D01*
X188279782Y-92684097D01*
X188331946Y-92606028D01*
X188444751Y-92493223D01*
X190438035Y-92493223D01*
X190465222Y-93063454D01*
X190631136Y-93464005D01*
X190877255Y-93538139D01*
X191705395Y-92710000D01*
X192064605Y-92710000D01*
X192892745Y-93538139D01*
X193138864Y-93464005D01*
X193331965Y-92926777D01*
X193304778Y-92356546D01*
X193138864Y-91955995D01*
X192892745Y-91881861D01*
X192064605Y-92710000D01*
X191705395Y-92710000D01*
X190877255Y-91881861D01*
X190631136Y-91955995D01*
X190438035Y-92493223D01*
X188444751Y-92493223D01*
X189121457Y-91816518D01*
X189177793Y-91783619D01*
X189251802Y-91686173D01*
X189271944Y-91666031D01*
X189271946Y-91666028D01*
X189906028Y-91031946D01*
X189984097Y-90979782D01*
X190190750Y-90670504D01*
X190245000Y-90397771D01*
X190245000Y-90397770D01*
X190263317Y-90305685D01*
X190245000Y-90213599D01*
X190245000Y-89617289D01*
X190621312Y-89240977D01*
X190450000Y-89654561D01*
X190450000Y-90225439D01*
X190668466Y-90752862D01*
X191072138Y-91156534D01*
X191463218Y-91318525D01*
X191130995Y-91456136D01*
X191056861Y-91702255D01*
X191885000Y-92530395D01*
X192713139Y-91702255D01*
X192639005Y-91456136D01*
X192283261Y-91328268D01*
X192697862Y-91156534D01*
X193101534Y-90752862D01*
X193320000Y-90225439D01*
X193320000Y-89654561D01*
X193101534Y-89127138D01*
X192697862Y-88723466D01*
X192291150Y-88555000D01*
X192697862Y-88386534D01*
X192814835Y-88269561D01*
X193290000Y-88269561D01*
X193290000Y-88840439D01*
X193508466Y-89367862D01*
X193912138Y-89771534D01*
X194318850Y-89940000D01*
X193912138Y-90108466D01*
X193508466Y-90512138D01*
X193290000Y-91039561D01*
X193290000Y-91610439D01*
X193508466Y-92137862D01*
X193912138Y-92541534D01*
X194318850Y-92710000D01*
X193912138Y-92878466D01*
X193508466Y-93282138D01*
X193290000Y-93809561D01*
X193290000Y-94380439D01*
X193508466Y-94907862D01*
X193912138Y-95311534D01*
X194318850Y-95480000D01*
X193912138Y-95648466D01*
X193508466Y-96052138D01*
X193290000Y-96579561D01*
X193290000Y-97150439D01*
X193508466Y-97677862D01*
X193912138Y-98081534D01*
X194439561Y-98300000D01*
X195010439Y-98300000D01*
X195537862Y-98081534D01*
X195941534Y-97677862D01*
X196160000Y-97150439D01*
X196160000Y-96579561D01*
X195941534Y-96052138D01*
X195537862Y-95648466D01*
X195131150Y-95480000D01*
X195537862Y-95311534D01*
X195941534Y-94907862D01*
X196160000Y-94380439D01*
X196160000Y-93809561D01*
X196139187Y-93759314D01*
X196189125Y-93779999D01*
X196600873Y-93779999D01*
X196981279Y-93622430D01*
X197272430Y-93331279D01*
X197429999Y-92950873D01*
X197429999Y-92539125D01*
X197329999Y-92297703D01*
X197329999Y-89127084D01*
X197348316Y-89034998D01*
X197275749Y-88670180D01*
X197251554Y-88633970D01*
X197069096Y-88360902D01*
X196991027Y-88308738D01*
X196641261Y-87958972D01*
X196589097Y-87880903D01*
X196279819Y-87674250D01*
X196007086Y-87620000D01*
X195915000Y-87601683D01*
X195822914Y-87620000D01*
X195819396Y-87620000D01*
X195537862Y-87338466D01*
X195010439Y-87120000D01*
X194439561Y-87120000D01*
X193912138Y-87338466D01*
X193508466Y-87742138D01*
X193290000Y-88269561D01*
X192814835Y-88269561D01*
X193101534Y-87982862D01*
X193320000Y-87455439D01*
X193320000Y-86884561D01*
X193101534Y-86357138D01*
X192697862Y-85953466D01*
X192170439Y-85735000D01*
X191599561Y-85735000D01*
X191072138Y-85953466D01*
X190799748Y-86225856D01*
X190753630Y-86216683D01*
X190661544Y-86235000D01*
X190388811Y-86289250D01*
X190079533Y-86495903D01*
X190027368Y-86573974D01*
X190003972Y-86597370D01*
X189925904Y-86649533D01*
X189873742Y-86727599D01*
X189873741Y-86727600D01*
X189719250Y-86958812D01*
X189646683Y-87323630D01*
X189665000Y-87415716D01*
X189665000Y-87552710D01*
X188713970Y-88503741D01*
X188635904Y-88555903D01*
X188583742Y-88633969D01*
X188583741Y-88633970D01*
X188429250Y-88865182D01*
X188356683Y-89230000D01*
X188375001Y-89322090D01*
X188375000Y-89918396D01*
X188182130Y-90111266D01*
X187909061Y-90094726D01*
X187595874Y-89965000D01*
X187184126Y-89965000D01*
X187080882Y-90007765D01*
X187065000Y-89927920D01*
X187065000Y-84360804D01*
X187266280Y-84277431D01*
X187557431Y-83986280D01*
X187715000Y-83605874D01*
X187715000Y-83194126D01*
X187557431Y-82813720D01*
X187266280Y-82522569D01*
X186885874Y-82365000D01*
X186474126Y-82365000D01*
X186093720Y-82522569D01*
X185802569Y-82813720D01*
X185702569Y-83055142D01*
X185533970Y-83223741D01*
X185455904Y-83275903D01*
X185403742Y-83353969D01*
X185403741Y-83353970D01*
X185249250Y-83585182D01*
X185176683Y-83950000D01*
X185195001Y-84042090D01*
X185195000Y-89632710D01*
X183803970Y-91023741D01*
X183725904Y-91075903D01*
X183673742Y-91153969D01*
X183673741Y-91153970D01*
X183519250Y-91385182D01*
X183452252Y-91722003D01*
X183302235Y-91751843D01*
X183092191Y-91892191D01*
X182951843Y-92102235D01*
X182902560Y-92350000D01*
X182902560Y-94050000D01*
X182951843Y-94297765D01*
X183092191Y-94507809D01*
X183302235Y-94648157D01*
X183347619Y-94657184D01*
X183329375Y-94669375D01*
X183001161Y-95160582D01*
X182885908Y-95740000D01*
X103210000Y-95740000D01*
X103210000Y-89204126D01*
X122775000Y-89204126D01*
X122775000Y-89615874D01*
X122932569Y-89996280D01*
X123223720Y-90287431D01*
X123604126Y-90445000D01*
X124015874Y-90445000D01*
X124396280Y-90287431D01*
X124687431Y-89996280D01*
X124845000Y-89615874D01*
X124845000Y-89204126D01*
X124745000Y-88962704D01*
X124745000Y-86117289D01*
X126027290Y-84835000D01*
X126953044Y-84835000D01*
X126825000Y-85144126D01*
X126825000Y-85555874D01*
X126982569Y-85936280D01*
X127273720Y-86227431D01*
X127654126Y-86385000D01*
X128065874Y-86385000D01*
X128307296Y-86285000D01*
X132462711Y-86285000D01*
X134512570Y-88334859D01*
X134612569Y-88576280D01*
X134903720Y-88867431D01*
X135284126Y-89025000D01*
X135695874Y-89025000D01*
X136076280Y-88867431D01*
X136239585Y-88704126D01*
X148725000Y-88704126D01*
X148725000Y-89115874D01*
X148882569Y-89496280D01*
X149173720Y-89787431D01*
X149415142Y-89887431D01*
X153813741Y-94286031D01*
X153865903Y-94364097D01*
X153943969Y-94416259D01*
X154175181Y-94570750D01*
X154540000Y-94643317D01*
X154632086Y-94625000D01*
X156472704Y-94625000D01*
X156714126Y-94725000D01*
X157125874Y-94725000D01*
X157506280Y-94567431D01*
X157797431Y-94276280D01*
X157955000Y-93895874D01*
X157955000Y-93484126D01*
X157797431Y-93103720D01*
X157506280Y-92812569D01*
X157125874Y-92655000D01*
X156714126Y-92655000D01*
X156472704Y-92755000D01*
X154927290Y-92755000D01*
X150737431Y-88565142D01*
X150637431Y-88323720D01*
X150346280Y-88032569D01*
X149965874Y-87875000D01*
X149554126Y-87875000D01*
X149173720Y-88032569D01*
X148882569Y-88323720D01*
X148725000Y-88704126D01*
X136239585Y-88704126D01*
X136367431Y-88576280D01*
X136525000Y-88195874D01*
X136525000Y-87784126D01*
X163745000Y-87784126D01*
X163745000Y-88195874D01*
X163902569Y-88576280D01*
X164193720Y-88867431D01*
X164574126Y-89025000D01*
X164985874Y-89025000D01*
X165227296Y-88925000D01*
X169727914Y-88925000D01*
X169820000Y-88943317D01*
X169912086Y-88925000D01*
X170184819Y-88870750D01*
X170494097Y-88664097D01*
X170546261Y-88586028D01*
X171364859Y-87767431D01*
X171606280Y-87667431D01*
X171897431Y-87376280D01*
X172055000Y-86995874D01*
X172055000Y-86584126D01*
X171897431Y-86203720D01*
X171606280Y-85912569D01*
X171225874Y-85755000D01*
X170814126Y-85755000D01*
X170433720Y-85912569D01*
X170142569Y-86203720D01*
X170042569Y-86445141D01*
X169432711Y-87055000D01*
X165227296Y-87055000D01*
X164985874Y-86955000D01*
X164574126Y-86955000D01*
X164193720Y-87112569D01*
X163902569Y-87403720D01*
X163745000Y-87784126D01*
X136525000Y-87784126D01*
X136367431Y-87403720D01*
X136076280Y-87112569D01*
X135834859Y-87012570D01*
X133657291Y-84835002D01*
X133796280Y-84777431D01*
X134087431Y-84486280D01*
X134245000Y-84105874D01*
X134245000Y-83694126D01*
X134087431Y-83313720D01*
X133796280Y-83022569D01*
X133415874Y-82865000D01*
X133004126Y-82865000D01*
X132762704Y-82965000D01*
X125732086Y-82965000D01*
X125640000Y-82946683D01*
X125547914Y-82965000D01*
X125275181Y-83019250D01*
X124965903Y-83225903D01*
X124913741Y-83303969D01*
X123213970Y-85003741D01*
X123135904Y-85055903D01*
X123083742Y-85133969D01*
X123083741Y-85133970D01*
X122929250Y-85365182D01*
X122856683Y-85730000D01*
X122875001Y-85822090D01*
X122875000Y-88962704D01*
X122775000Y-89204126D01*
X103210000Y-89204126D01*
X103210000Y-79685866D01*
X190670000Y-79685866D01*
X190670000Y-80734134D01*
X191071155Y-81702608D01*
X191812392Y-82443845D01*
X192780866Y-82845000D01*
X193829134Y-82845000D01*
X194797608Y-82443845D01*
X195538845Y-81702608D01*
X195940000Y-80734134D01*
X195940000Y-79685866D01*
X195538845Y-78717392D01*
X194797608Y-77976155D01*
X193829134Y-77575000D01*
X192780866Y-77575000D01*
X191812392Y-77976155D01*
X191071155Y-78717392D01*
X190670000Y-79685866D01*
X103210000Y-79685866D01*
X103210000Y-68855431D01*
X103765000Y-68855431D01*
X103765000Y-69744569D01*
X104105259Y-70566026D01*
X104733974Y-71194741D01*
X105555431Y-71535000D01*
X106444569Y-71535000D01*
X107266026Y-71194741D01*
X107894741Y-70566026D01*
X107911826Y-70524778D01*
X118765000Y-70524778D01*
X118765000Y-71175222D01*
X119013914Y-71776153D01*
X119473847Y-72236086D01*
X120074778Y-72485000D01*
X120725222Y-72485000D01*
X121326153Y-72236086D01*
X121670000Y-71892239D01*
X122013847Y-72236086D01*
X122614778Y-72485000D01*
X123265222Y-72485000D01*
X123866153Y-72236086D01*
X124210000Y-71892239D01*
X124553847Y-72236086D01*
X125154778Y-72485000D01*
X125805222Y-72485000D01*
X126406153Y-72236086D01*
X126750000Y-71892239D01*
X127093847Y-72236086D01*
X127694778Y-72485000D01*
X128345222Y-72485000D01*
X128946153Y-72236086D01*
X129290000Y-71892239D01*
X129633847Y-72236086D01*
X130234778Y-72485000D01*
X130885222Y-72485000D01*
X131486153Y-72236086D01*
X131946086Y-71776153D01*
X132195000Y-71175222D01*
X132195000Y-70534779D01*
X149665001Y-70534779D01*
X149665001Y-71185223D01*
X149913915Y-71786154D01*
X150373848Y-72246087D01*
X150974779Y-72495001D01*
X151625223Y-72495001D01*
X152226154Y-72246087D01*
X152570001Y-71902240D01*
X152913848Y-72246087D01*
X153514779Y-72495001D01*
X154165223Y-72495001D01*
X154766154Y-72246087D01*
X155110001Y-71902240D01*
X155453848Y-72246087D01*
X156054779Y-72495001D01*
X156705223Y-72495001D01*
X157306154Y-72246087D01*
X157650001Y-71902240D01*
X157993848Y-72246087D01*
X158594779Y-72495001D01*
X159245223Y-72495001D01*
X159846154Y-72246087D01*
X160190001Y-71902240D01*
X160533848Y-72246087D01*
X161134779Y-72495001D01*
X161785223Y-72495001D01*
X162386154Y-72246087D01*
X162846087Y-71786154D01*
X163095001Y-71185223D01*
X163095001Y-70534779D01*
X180565000Y-70534779D01*
X180565000Y-71185223D01*
X180813914Y-71786154D01*
X181273847Y-72246087D01*
X181874778Y-72495001D01*
X182525222Y-72495001D01*
X183126153Y-72246087D01*
X183470000Y-71902240D01*
X183813847Y-72246087D01*
X184414778Y-72495001D01*
X185065222Y-72495001D01*
X185666153Y-72246087D01*
X186010000Y-71902240D01*
X186353847Y-72246087D01*
X186954778Y-72495001D01*
X187605222Y-72495001D01*
X188206153Y-72246087D01*
X188550000Y-71902240D01*
X188893847Y-72246087D01*
X189494778Y-72495001D01*
X190145222Y-72495001D01*
X190746153Y-72246087D01*
X191090000Y-71902240D01*
X191433847Y-72246087D01*
X192034778Y-72495001D01*
X192685222Y-72495001D01*
X193286153Y-72246087D01*
X193746086Y-71786154D01*
X193995000Y-71185223D01*
X193995000Y-70534779D01*
X193746086Y-69933848D01*
X193286153Y-69473915D01*
X192685222Y-69225001D01*
X192034778Y-69225001D01*
X191433847Y-69473915D01*
X191090000Y-69817762D01*
X190746153Y-69473915D01*
X190145222Y-69225001D01*
X189494778Y-69225001D01*
X188893847Y-69473915D01*
X188550000Y-69817762D01*
X188206153Y-69473915D01*
X187605222Y-69225001D01*
X186954778Y-69225001D01*
X186353847Y-69473915D01*
X186010000Y-69817762D01*
X185666153Y-69473915D01*
X185065222Y-69225001D01*
X184414778Y-69225001D01*
X183813847Y-69473915D01*
X183470000Y-69817762D01*
X183126153Y-69473915D01*
X182525222Y-69225001D01*
X181874778Y-69225001D01*
X181273847Y-69473915D01*
X180813914Y-69933848D01*
X180565000Y-70534779D01*
X163095001Y-70534779D01*
X162846087Y-69933848D01*
X162386154Y-69473915D01*
X161785223Y-69225001D01*
X161134779Y-69225001D01*
X160533848Y-69473915D01*
X160190001Y-69817762D01*
X159846154Y-69473915D01*
X159245223Y-69225001D01*
X158594779Y-69225001D01*
X157993848Y-69473915D01*
X157650001Y-69817762D01*
X157306154Y-69473915D01*
X156705223Y-69225001D01*
X156054779Y-69225001D01*
X155453848Y-69473915D01*
X155110001Y-69817762D01*
X154766154Y-69473915D01*
X154165223Y-69225001D01*
X153514779Y-69225001D01*
X152913848Y-69473915D01*
X152570001Y-69817762D01*
X152226154Y-69473915D01*
X151625223Y-69225001D01*
X150974779Y-69225001D01*
X150373848Y-69473915D01*
X149913915Y-69933848D01*
X149665001Y-70534779D01*
X132195000Y-70534779D01*
X132195000Y-70524778D01*
X131946086Y-69923847D01*
X131486153Y-69463914D01*
X130885222Y-69215000D01*
X130234778Y-69215000D01*
X129633847Y-69463914D01*
X129290000Y-69807761D01*
X128946153Y-69463914D01*
X128345222Y-69215000D01*
X127694778Y-69215000D01*
X127093847Y-69463914D01*
X126750000Y-69807761D01*
X126406153Y-69463914D01*
X125805222Y-69215000D01*
X125154778Y-69215000D01*
X124553847Y-69463914D01*
X124210000Y-69807761D01*
X123866153Y-69463914D01*
X123265222Y-69215000D01*
X122614778Y-69215000D01*
X122013847Y-69463914D01*
X121670000Y-69807761D01*
X121326153Y-69463914D01*
X120725222Y-69215000D01*
X120074778Y-69215000D01*
X119473847Y-69463914D01*
X119013914Y-69923847D01*
X118765000Y-70524778D01*
X107911826Y-70524778D01*
X108235000Y-69744569D01*
X108235000Y-68855431D01*
X203765000Y-68855431D01*
X203765000Y-69744569D01*
X204105259Y-70566026D01*
X204733974Y-71194741D01*
X205555431Y-71535000D01*
X206444569Y-71535000D01*
X207266026Y-71194741D01*
X207894741Y-70566026D01*
X208235000Y-69744569D01*
X208235000Y-68855431D01*
X207894741Y-68033974D01*
X207266026Y-67405259D01*
X206444569Y-67065000D01*
X205555431Y-67065000D01*
X204733974Y-67405259D01*
X204105259Y-68033974D01*
X203765000Y-68855431D01*
X108235000Y-68855431D01*
X107894741Y-68033974D01*
X107266026Y-67405259D01*
X106444569Y-67065000D01*
X105555431Y-67065000D01*
X104733974Y-67405259D01*
X104105259Y-68033974D01*
X103765000Y-68855431D01*
X103210000Y-68855431D01*
X103210000Y-66510000D01*
X208790000Y-66510000D01*
X208790001Y-121090000D01*
X208790001Y-121090000D01*
G37*
X208790001Y-121090000D02*
X103210000Y-121090000D01*
X103210000Y-117855431D01*
X103765000Y-117855431D01*
X103765000Y-118744569D01*
X104105259Y-119566026D01*
X104733974Y-120194741D01*
X105555431Y-120535000D01*
X106444569Y-120535000D01*
X107266026Y-120194741D01*
X107894741Y-119566026D01*
X108235000Y-118744569D01*
X108235000Y-117855431D01*
X108004933Y-117300000D01*
X122752560Y-117300000D01*
X122752560Y-119100000D01*
X122801843Y-119347765D01*
X122942191Y-119557809D01*
X123152235Y-119698157D01*
X123400000Y-119747440D01*
X125200000Y-119747440D01*
X125447765Y-119698157D01*
X125657809Y-119557809D01*
X125798157Y-119347765D01*
X125801275Y-119332092D01*
X125970493Y-119501310D01*
X126534670Y-119735000D01*
X127145330Y-119735000D01*
X127709507Y-119501310D01*
X128141310Y-119069507D01*
X128375000Y-118505330D01*
X128375000Y-117894670D01*
X128141310Y-117330493D01*
X128110817Y-117300000D01*
X153612560Y-117300000D01*
X153612560Y-119100000D01*
X153661843Y-119347765D01*
X153802191Y-119557809D01*
X154012235Y-119698157D01*
X154260000Y-119747440D01*
X156060000Y-119747440D01*
X156307765Y-119698157D01*
X156517809Y-119557809D01*
X156658157Y-119347765D01*
X156661275Y-119332092D01*
X156830493Y-119501310D01*
X157394670Y-119735000D01*
X158005330Y-119735000D01*
X158569507Y-119501310D01*
X159001310Y-119069507D01*
X159235000Y-118505330D01*
X159235000Y-117894670D01*
X159001310Y-117330493D01*
X158569507Y-116898690D01*
X158005330Y-116665000D01*
X157394670Y-116665000D01*
X156830493Y-116898690D01*
X156661275Y-117067908D01*
X156658157Y-117052235D01*
X156517809Y-116842191D01*
X156307765Y-116701843D01*
X156060000Y-116652560D01*
X154260000Y-116652560D01*
X154012235Y-116701843D01*
X153802191Y-116842191D01*
X153661843Y-117052235D01*
X153612560Y-117300000D01*
X128110817Y-117300000D01*
X127709507Y-116898690D01*
X127145330Y-116665000D01*
X126534670Y-116665000D01*
X125970493Y-116898690D01*
X125801275Y-117067908D01*
X125798157Y-117052235D01*
X125657809Y-116842191D01*
X125447765Y-116701843D01*
X125200000Y-116652560D01*
X123400000Y-116652560D01*
X123152235Y-116701843D01*
X122942191Y-116842191D01*
X122801843Y-117052235D01*
X122752560Y-117300000D01*
X108004933Y-117300000D01*
X107894741Y-117033974D01*
X107266026Y-116405259D01*
X106444569Y-116065000D01*
X105555431Y-116065000D01*
X104733974Y-116405259D01*
X104105259Y-117033974D01*
X103765000Y-117855431D01*
X103210000Y-117855431D01*
X103210000Y-110450000D01*
X118752560Y-110450000D01*
X118752560Y-112450000D01*
X118801843Y-112697765D01*
X118942191Y-112907809D01*
X119152235Y-113048157D01*
X119400000Y-113097440D01*
X119456119Y-113097440D01*
X119465000Y-113142085D01*
X119519250Y-113414818D01*
X119725903Y-113724097D01*
X119803972Y-113776261D01*
X120223739Y-114196028D01*
X120275903Y-114274097D01*
X120585181Y-114480750D01*
X120857914Y-114535000D01*
X120857918Y-114535000D01*
X120949999Y-114553316D01*
X121042080Y-114535000D01*
X129732127Y-114535000D01*
X129824213Y-114553317D01*
X129916299Y-114535000D01*
X130189032Y-114480750D01*
X130498310Y-114274097D01*
X130550474Y-114196028D01*
X131156030Y-113590472D01*
X131234097Y-113538310D01*
X131440750Y-113229032D01*
X131495000Y-112956299D01*
X131513317Y-112864213D01*
X131504144Y-112818095D01*
X131946086Y-112376153D01*
X132195000Y-111775222D01*
X132195000Y-111124778D01*
X131946086Y-110523847D01*
X131486153Y-110063914D01*
X130885222Y-109815000D01*
X130234778Y-109815000D01*
X129633847Y-110063914D01*
X129290000Y-110407761D01*
X128946153Y-110063914D01*
X128345222Y-109815000D01*
X127694778Y-109815000D01*
X127093847Y-110063914D01*
X126750000Y-110407761D01*
X126406153Y-110063914D01*
X125805222Y-109815000D01*
X125154778Y-109815000D01*
X124553847Y-110063914D01*
X124210000Y-110407761D01*
X123866153Y-110063914D01*
X123265222Y-109815000D01*
X122614778Y-109815000D01*
X122013847Y-110063914D01*
X121949038Y-110128723D01*
X121857809Y-109992191D01*
X121647765Y-109851843D01*
X121400000Y-109802560D01*
X119400000Y-109802560D01*
X119152235Y-109851843D01*
X118942191Y-109992191D01*
X118801843Y-110202235D01*
X118752560Y-110450000D01*
X103210000Y-110450000D01*
X103210000Y-106624126D01*
X134455000Y-106624126D01*
X134455000Y-107035874D01*
X134555000Y-107277296D01*
X134555001Y-111407910D01*
X134536683Y-111500000D01*
X134609250Y-111864818D01*
X134688526Y-111983463D01*
X134815904Y-112174097D01*
X134893970Y-112226259D01*
X134902569Y-112234858D01*
X135002569Y-112476280D01*
X135293720Y-112767431D01*
X135674126Y-112925000D01*
X136085874Y-112925000D01*
X136466280Y-112767431D01*
X136757431Y-112476280D01*
X136915000Y-112095874D01*
X136915000Y-111684126D01*
X136757431Y-111303720D01*
X136466280Y-111012569D01*
X136425000Y-110995470D01*
X136425000Y-107277296D01*
X136525000Y-107035874D01*
X136525000Y-106624126D01*
X136367431Y-106243720D01*
X136076280Y-105952569D01*
X135695874Y-105795000D01*
X135284126Y-105795000D01*
X134903720Y-105952569D01*
X134612569Y-106243720D01*
X134455000Y-106624126D01*
X103210000Y-106624126D01*
X103210000Y-104524126D01*
X138115000Y-104524126D01*
X138115000Y-104935874D01*
X138272569Y-105316280D01*
X138563720Y-105607431D01*
X138944126Y-105765000D01*
X139022711Y-105765000D01*
X147452569Y-114194858D01*
X147552569Y-114436280D01*
X147843720Y-114727431D01*
X148224126Y-114885000D01*
X148635874Y-114885000D01*
X149016280Y-114727431D01*
X149307431Y-114436280D01*
X149465000Y-114055874D01*
X149465000Y-113644126D01*
X149307431Y-113263720D01*
X149016280Y-112972569D01*
X148774858Y-112872569D01*
X146362290Y-110460001D01*
X149652561Y-110460001D01*
X149652561Y-112460001D01*
X149701844Y-112707766D01*
X149842192Y-112917810D01*
X150052236Y-113058158D01*
X150300001Y-113107441D01*
X152300001Y-113107441D01*
X152547766Y-113058158D01*
X152757810Y-112917810D01*
X152849039Y-112781278D01*
X152913848Y-112846087D01*
X153514779Y-113095001D01*
X154165223Y-113095001D01*
X154766154Y-112846087D01*
X155110001Y-112502240D01*
X155453848Y-112846087D01*
X156054779Y-113095001D01*
X156705223Y-113095001D01*
X157306154Y-112846087D01*
X157650001Y-112502240D01*
X157993848Y-112846087D01*
X158594779Y-113095001D01*
X159245223Y-113095001D01*
X159846154Y-112846087D01*
X160190001Y-112502240D01*
X160533848Y-112846087D01*
X161134779Y-113095001D01*
X161785223Y-113095001D01*
X162386154Y-112846087D01*
X162846087Y-112386154D01*
X163095001Y-111785223D01*
X163095001Y-111134779D01*
X162846087Y-110533848D01*
X162386154Y-110073915D01*
X162220620Y-110005349D01*
X162190750Y-109855181D01*
X162036259Y-109623969D01*
X161984097Y-109545903D01*
X161906031Y-109493741D01*
X161156261Y-108743972D01*
X161104097Y-108665903D01*
X160794819Y-108459250D01*
X160522086Y-108405000D01*
X160430000Y-108386683D01*
X160337914Y-108405000D01*
X151912082Y-108405000D01*
X151820001Y-108386684D01*
X151727920Y-108405000D01*
X151727916Y-108405000D01*
X151455183Y-108459250D01*
X151145905Y-108665903D01*
X151093741Y-108743972D01*
X150703971Y-109133742D01*
X150625905Y-109185904D01*
X150573743Y-109263970D01*
X150573742Y-109263971D01*
X150419251Y-109495183D01*
X150356120Y-109812561D01*
X150300001Y-109812561D01*
X150052236Y-109861844D01*
X149842192Y-110002192D01*
X149701844Y-110212236D01*
X149652561Y-110460001D01*
X146362290Y-110460001D01*
X142206415Y-106304126D01*
X156575000Y-106304126D01*
X156575000Y-106715874D01*
X156732569Y-107096280D01*
X157023720Y-107387431D01*
X157404126Y-107545000D01*
X157815874Y-107545000D01*
X158057296Y-107445000D01*
X161767914Y-107445000D01*
X161860000Y-107463317D01*
X161952086Y-107445000D01*
X163896796Y-107445000D01*
X163988882Y-107463317D01*
X164080968Y-107445000D01*
X164353701Y-107390750D01*
X164662979Y-107184097D01*
X164715144Y-107106027D01*
X164845289Y-106975881D01*
X164845291Y-106975880D01*
X164994118Y-106827053D01*
X165145000Y-106764556D01*
X165145001Y-117287910D01*
X165126683Y-117380000D01*
X165199250Y-117744818D01*
X165299378Y-117894670D01*
X165405904Y-118054097D01*
X165483970Y-118106259D01*
X166013741Y-118636030D01*
X166065903Y-118714097D01*
X166143969Y-118766259D01*
X166375181Y-118920750D01*
X166483980Y-118942391D01*
X166804126Y-119075000D01*
X167215874Y-119075000D01*
X167596280Y-118917431D01*
X167887431Y-118626280D01*
X168045000Y-118245874D01*
X168045000Y-117834126D01*
X167887431Y-117453720D01*
X167733711Y-117300000D01*
X184252560Y-117300000D01*
X184252560Y-119100000D01*
X184301843Y-119347765D01*
X184442191Y-119557809D01*
X184652235Y-119698157D01*
X184900000Y-119747440D01*
X186700000Y-119747440D01*
X186947765Y-119698157D01*
X187157809Y-119557809D01*
X187298157Y-119347765D01*
X187301275Y-119332092D01*
X187470493Y-119501310D01*
X188034670Y-119735000D01*
X188645330Y-119735000D01*
X189209507Y-119501310D01*
X189641310Y-119069507D01*
X189875000Y-118505330D01*
X189875000Y-117894670D01*
X189858747Y-117855431D01*
X203765000Y-117855431D01*
X203765000Y-118744569D01*
X204105259Y-119566026D01*
X204733974Y-120194741D01*
X205555431Y-120535000D01*
X206444569Y-120535000D01*
X207266026Y-120194741D01*
X207894741Y-119566026D01*
X208235000Y-118744569D01*
X208235000Y-117855431D01*
X207894741Y-117033974D01*
X207266026Y-116405259D01*
X206444569Y-116065000D01*
X205555431Y-116065000D01*
X204733974Y-116405259D01*
X204105259Y-117033974D01*
X203765000Y-117855431D01*
X189858747Y-117855431D01*
X189641310Y-117330493D01*
X189209507Y-116898690D01*
X188645330Y-116665000D01*
X188034670Y-116665000D01*
X187470493Y-116898690D01*
X187301275Y-117067908D01*
X187298157Y-117052235D01*
X187157809Y-116842191D01*
X186947765Y-116701843D01*
X186700000Y-116652560D01*
X184900000Y-116652560D01*
X184652235Y-116701843D01*
X184442191Y-116842191D01*
X184301843Y-117052235D01*
X184252560Y-117300000D01*
X167733711Y-117300000D01*
X167596280Y-117162569D01*
X167215874Y-117005000D01*
X167027289Y-117005000D01*
X167015000Y-116992711D01*
X167015000Y-110460001D01*
X180552560Y-110460001D01*
X180552560Y-112460001D01*
X180601843Y-112707766D01*
X180742191Y-112917810D01*
X180952235Y-113058158D01*
X181200000Y-113107441D01*
X183200000Y-113107441D01*
X183447765Y-113058158D01*
X183657809Y-112917810D01*
X183749038Y-112781278D01*
X183813847Y-112846087D01*
X184414778Y-113095001D01*
X185065222Y-113095001D01*
X185666153Y-112846087D01*
X186010000Y-112502240D01*
X186353847Y-112846087D01*
X186954778Y-113095001D01*
X187605222Y-113095001D01*
X188206153Y-112846087D01*
X188550000Y-112502240D01*
X188893847Y-112846087D01*
X189494778Y-113095001D01*
X190145222Y-113095001D01*
X190746153Y-112846087D01*
X191090000Y-112502240D01*
X191433847Y-112846087D01*
X192034778Y-113095001D01*
X192685222Y-113095001D01*
X193286153Y-112846087D01*
X193746086Y-112386154D01*
X193995000Y-111785223D01*
X193995000Y-111134779D01*
X193746086Y-110533848D01*
X193286153Y-110073915D01*
X192685222Y-109825001D01*
X192034778Y-109825001D01*
X191433847Y-110073915D01*
X191090000Y-110417762D01*
X190746153Y-110073915D01*
X190145222Y-109825001D01*
X189494778Y-109825001D01*
X188893847Y-110073915D01*
X188550000Y-110417762D01*
X188206153Y-110073915D01*
X187605222Y-109825001D01*
X186954778Y-109825001D01*
X186353847Y-110073915D01*
X186010000Y-110417762D01*
X185666153Y-110073915D01*
X185065222Y-109825001D01*
X184414778Y-109825001D01*
X183813847Y-110073915D01*
X183749038Y-110138724D01*
X183657809Y-110002192D01*
X183447765Y-109861844D01*
X183200000Y-109812561D01*
X181200000Y-109812561D01*
X180952235Y-109861844D01*
X180742191Y-110002192D01*
X180601843Y-110212236D01*
X180552560Y-110460001D01*
X167015000Y-110460001D01*
X167015000Y-104677296D01*
X167115000Y-104435874D01*
X167115000Y-104024126D01*
X166957431Y-103643720D01*
X166666280Y-103352569D01*
X166285874Y-103195000D01*
X165874126Y-103195000D01*
X165493720Y-103352569D01*
X165202569Y-103643720D01*
X165045000Y-104024126D01*
X165045000Y-104435874D01*
X165145000Y-104677296D01*
X165145000Y-104934688D01*
X164855134Y-104814622D01*
X164443386Y-104814622D01*
X164062980Y-104972191D01*
X163771829Y-105263342D01*
X163671829Y-105504764D01*
X163601593Y-105575000D01*
X162795000Y-105575000D01*
X162795000Y-103002081D01*
X162813316Y-102909999D01*
X162795000Y-102817917D01*
X162795000Y-102817914D01*
X162740750Y-102545181D01*
X162726772Y-102524261D01*
X162577431Y-102163720D01*
X162286280Y-101872569D01*
X161905874Y-101715000D01*
X161494126Y-101715000D01*
X161113720Y-101872569D01*
X160822569Y-102163720D01*
X160665000Y-102544126D01*
X160665000Y-102955874D01*
X160822569Y-103336280D01*
X160925001Y-103438712D01*
X160925000Y-105575000D01*
X158057296Y-105575000D01*
X157815874Y-105475000D01*
X157404126Y-105475000D01*
X157023720Y-105632569D01*
X156732569Y-105923720D01*
X156575000Y-106304126D01*
X142206415Y-106304126D01*
X140036261Y-104133972D01*
X139984097Y-104055903D01*
X139850040Y-103966329D01*
X139736280Y-103852569D01*
X139355874Y-103695000D01*
X138944126Y-103695000D01*
X138563720Y-103852569D01*
X138272569Y-104143720D01*
X138115000Y-104524126D01*
X103210000Y-104524126D01*
X103210000Y-95740000D01*
X182885908Y-95740000D01*
X183001161Y-96319418D01*
X183329375Y-96810625D01*
X183648478Y-97023843D01*
X183518642Y-97084817D01*
X183128355Y-97513076D01*
X182958524Y-97923110D01*
X183079845Y-98153000D01*
X184273000Y-98153000D01*
X184273000Y-98133000D01*
X184527000Y-98133000D01*
X184527000Y-98153000D01*
X185720155Y-98153000D01*
X185841476Y-97923110D01*
X185671645Y-97513076D01*
X185281358Y-97084817D01*
X185151522Y-97023843D01*
X185470625Y-96810625D01*
X185798839Y-96319418D01*
X185885001Y-95886253D01*
X185885000Y-99214792D01*
X185398566Y-99701226D01*
X185151522Y-99536157D01*
X185281358Y-99475183D01*
X185671645Y-99046924D01*
X185841476Y-98636890D01*
X185720155Y-98407000D01*
X184527000Y-98407000D01*
X184527000Y-98427000D01*
X184273000Y-98427000D01*
X184273000Y-98407000D01*
X183079845Y-98407000D01*
X182958524Y-98636890D01*
X183128355Y-99046924D01*
X183518642Y-99475183D01*
X183648478Y-99536157D01*
X183329375Y-99749375D01*
X183001161Y-100240582D01*
X182885908Y-100820000D01*
X183001161Y-101399418D01*
X183329375Y-101890625D01*
X183627761Y-102090000D01*
X183329375Y-102289375D01*
X183001161Y-102780582D01*
X182885908Y-103360000D01*
X183001161Y-103939418D01*
X183329375Y-104430625D01*
X183820582Y-104758839D01*
X184253744Y-104845000D01*
X184546256Y-104845000D01*
X184979418Y-104758839D01*
X185088629Y-104685866D01*
X190670000Y-104685866D01*
X190670000Y-105734134D01*
X191071155Y-106702608D01*
X191812392Y-107443845D01*
X192780866Y-107845000D01*
X193829134Y-107845000D01*
X194797608Y-107443845D01*
X195538845Y-106702608D01*
X195940000Y-105734134D01*
X195940000Y-104685866D01*
X195538845Y-103717392D01*
X194797608Y-102976155D01*
X193829134Y-102575000D01*
X192780866Y-102575000D01*
X191812392Y-102976155D01*
X191071155Y-103717392D01*
X190670000Y-104685866D01*
X185088629Y-104685866D01*
X185470625Y-104430625D01*
X185798839Y-103939418D01*
X185914092Y-103360000D01*
X185798839Y-102780582D01*
X185470625Y-102289375D01*
X185172239Y-102090000D01*
X185470625Y-101890625D01*
X185555234Y-101763999D01*
X185602081Y-101773317D01*
X185694167Y-101755000D01*
X185966900Y-101700750D01*
X186276178Y-101494097D01*
X186328342Y-101416028D01*
X187416028Y-100328342D01*
X187494097Y-100276178D01*
X187700750Y-99966900D01*
X187755000Y-99694167D01*
X187755000Y-99694166D01*
X187773317Y-99602081D01*
X187755000Y-99509995D01*
X187755000Y-97450000D01*
X190437560Y-97450000D01*
X190437560Y-99050000D01*
X190486843Y-99297765D01*
X190627191Y-99507809D01*
X190837235Y-99648157D01*
X191085000Y-99697440D01*
X192685000Y-99697440D01*
X192932765Y-99648157D01*
X193142809Y-99507809D01*
X193283157Y-99297765D01*
X193332440Y-99050000D01*
X193332440Y-97450000D01*
X193283157Y-97202235D01*
X193142809Y-96992191D01*
X192932765Y-96851843D01*
X192685000Y-96802560D01*
X192441893Y-96802560D01*
X192697862Y-96696534D01*
X193101534Y-96292862D01*
X193320000Y-95765439D01*
X193320000Y-95194561D01*
X193101534Y-94667138D01*
X192697862Y-94263466D01*
X192306782Y-94101475D01*
X192639005Y-93963864D01*
X192713139Y-93717745D01*
X191885000Y-92889605D01*
X191056861Y-93717745D01*
X191130995Y-93963864D01*
X191486739Y-94091732D01*
X191072138Y-94263466D01*
X190668466Y-94667138D01*
X190450000Y-95194561D01*
X190450000Y-95765439D01*
X190668466Y-96292862D01*
X191072138Y-96696534D01*
X191328107Y-96802560D01*
X191085000Y-96802560D01*
X190837235Y-96851843D01*
X190627191Y-96992191D01*
X190486843Y-97202235D01*
X190437560Y-97450000D01*
X187755000Y-97450000D01*
X187755000Y-92933616D01*
X187970504Y-92890750D01*
X188279782Y-92684097D01*
X188331946Y-92606028D01*
X188444751Y-92493223D01*
X190438035Y-92493223D01*
X190465222Y-93063454D01*
X190631136Y-93464005D01*
X190877255Y-93538139D01*
X191705395Y-92710000D01*
X192064605Y-92710000D01*
X192892745Y-93538139D01*
X193138864Y-93464005D01*
X193331965Y-92926777D01*
X193304778Y-92356546D01*
X193138864Y-91955995D01*
X192892745Y-91881861D01*
X192064605Y-92710000D01*
X191705395Y-92710000D01*
X190877255Y-91881861D01*
X190631136Y-91955995D01*
X190438035Y-92493223D01*
X188444751Y-92493223D01*
X189121457Y-91816518D01*
X189177793Y-91783619D01*
X189251802Y-91686173D01*
X189271944Y-91666031D01*
X189271946Y-91666028D01*
X189906028Y-91031946D01*
X189984097Y-90979782D01*
X190190750Y-90670504D01*
X190245000Y-90397771D01*
X190245000Y-90397770D01*
X190263317Y-90305685D01*
X190245000Y-90213599D01*
X190245000Y-89617289D01*
X190621312Y-89240977D01*
X190450000Y-89654561D01*
X190450000Y-90225439D01*
X190668466Y-90752862D01*
X191072138Y-91156534D01*
X191463218Y-91318525D01*
X191130995Y-91456136D01*
X191056861Y-91702255D01*
X191885000Y-92530395D01*
X192713139Y-91702255D01*
X192639005Y-91456136D01*
X192283261Y-91328268D01*
X192697862Y-91156534D01*
X193101534Y-90752862D01*
X193320000Y-90225439D01*
X193320000Y-89654561D01*
X193101534Y-89127138D01*
X192697862Y-88723466D01*
X192291150Y-88555000D01*
X192697862Y-88386534D01*
X192814835Y-88269561D01*
X193290000Y-88269561D01*
X193290000Y-88840439D01*
X193508466Y-89367862D01*
X193912138Y-89771534D01*
X194318850Y-89940000D01*
X193912138Y-90108466D01*
X193508466Y-90512138D01*
X193290000Y-91039561D01*
X193290000Y-91610439D01*
X193508466Y-92137862D01*
X193912138Y-92541534D01*
X194318850Y-92710000D01*
X193912138Y-92878466D01*
X193508466Y-93282138D01*
X193290000Y-93809561D01*
X193290000Y-94380439D01*
X193508466Y-94907862D01*
X193912138Y-95311534D01*
X194318850Y-95480000D01*
X193912138Y-95648466D01*
X193508466Y-96052138D01*
X193290000Y-96579561D01*
X193290000Y-97150439D01*
X193508466Y-97677862D01*
X193912138Y-98081534D01*
X194439561Y-98300000D01*
X195010439Y-98300000D01*
X195537862Y-98081534D01*
X195941534Y-97677862D01*
X196160000Y-97150439D01*
X196160000Y-96579561D01*
X195941534Y-96052138D01*
X195537862Y-95648466D01*
X195131150Y-95480000D01*
X195537862Y-95311534D01*
X195941534Y-94907862D01*
X196160000Y-94380439D01*
X196160000Y-93809561D01*
X196139187Y-93759314D01*
X196189125Y-93779999D01*
X196600873Y-93779999D01*
X196981279Y-93622430D01*
X197272430Y-93331279D01*
X197429999Y-92950873D01*
X197429999Y-92539125D01*
X197329999Y-92297703D01*
X197329999Y-89127084D01*
X197348316Y-89034998D01*
X197275749Y-88670180D01*
X197251554Y-88633970D01*
X197069096Y-88360902D01*
X196991027Y-88308738D01*
X196641261Y-87958972D01*
X196589097Y-87880903D01*
X196279819Y-87674250D01*
X196007086Y-87620000D01*
X195915000Y-87601683D01*
X195822914Y-87620000D01*
X195819396Y-87620000D01*
X195537862Y-87338466D01*
X195010439Y-87120000D01*
X194439561Y-87120000D01*
X193912138Y-87338466D01*
X193508466Y-87742138D01*
X193290000Y-88269561D01*
X192814835Y-88269561D01*
X193101534Y-87982862D01*
X193320000Y-87455439D01*
X193320000Y-86884561D01*
X193101534Y-86357138D01*
X192697862Y-85953466D01*
X192170439Y-85735000D01*
X191599561Y-85735000D01*
X191072138Y-85953466D01*
X190799748Y-86225856D01*
X190753630Y-86216683D01*
X190661544Y-86235000D01*
X190388811Y-86289250D01*
X190079533Y-86495903D01*
X190027368Y-86573974D01*
X190003972Y-86597370D01*
X189925904Y-86649533D01*
X189873742Y-86727599D01*
X189873741Y-86727600D01*
X189719250Y-86958812D01*
X189646683Y-87323630D01*
X189665000Y-87415716D01*
X189665000Y-87552710D01*
X188713970Y-88503741D01*
X188635904Y-88555903D01*
X188583742Y-88633969D01*
X188583741Y-88633970D01*
X188429250Y-88865182D01*
X188356683Y-89230000D01*
X188375001Y-89322090D01*
X188375000Y-89918396D01*
X188182130Y-90111266D01*
X187909061Y-90094726D01*
X187595874Y-89965000D01*
X187184126Y-89965000D01*
X187080882Y-90007765D01*
X187065000Y-89927920D01*
X187065000Y-84360804D01*
X187266280Y-84277431D01*
X187557431Y-83986280D01*
X187715000Y-83605874D01*
X187715000Y-83194126D01*
X187557431Y-82813720D01*
X187266280Y-82522569D01*
X186885874Y-82365000D01*
X186474126Y-82365000D01*
X186093720Y-82522569D01*
X185802569Y-82813720D01*
X185702569Y-83055142D01*
X185533970Y-83223741D01*
X185455904Y-83275903D01*
X185403742Y-83353969D01*
X185403741Y-83353970D01*
X185249250Y-83585182D01*
X185176683Y-83950000D01*
X185195001Y-84042090D01*
X185195000Y-89632710D01*
X183803970Y-91023741D01*
X183725904Y-91075903D01*
X183673742Y-91153969D01*
X183673741Y-91153970D01*
X183519250Y-91385182D01*
X183452252Y-91722003D01*
X183302235Y-91751843D01*
X183092191Y-91892191D01*
X182951843Y-92102235D01*
X182902560Y-92350000D01*
X182902560Y-94050000D01*
X182951843Y-94297765D01*
X183092191Y-94507809D01*
X183302235Y-94648157D01*
X183347619Y-94657184D01*
X183329375Y-94669375D01*
X183001161Y-95160582D01*
X182885908Y-95740000D01*
X103210000Y-95740000D01*
X103210000Y-89204126D01*
X122775000Y-89204126D01*
X122775000Y-89615874D01*
X122932569Y-89996280D01*
X123223720Y-90287431D01*
X123604126Y-90445000D01*
X124015874Y-90445000D01*
X124396280Y-90287431D01*
X124687431Y-89996280D01*
X124845000Y-89615874D01*
X124845000Y-89204126D01*
X124745000Y-88962704D01*
X124745000Y-86117289D01*
X126027290Y-84835000D01*
X126953044Y-84835000D01*
X126825000Y-85144126D01*
X126825000Y-85555874D01*
X126982569Y-85936280D01*
X127273720Y-86227431D01*
X127654126Y-86385000D01*
X128065874Y-86385000D01*
X128307296Y-86285000D01*
X132462711Y-86285000D01*
X134512570Y-88334859D01*
X134612569Y-88576280D01*
X134903720Y-88867431D01*
X135284126Y-89025000D01*
X135695874Y-89025000D01*
X136076280Y-88867431D01*
X136239585Y-88704126D01*
X148725000Y-88704126D01*
X148725000Y-89115874D01*
X148882569Y-89496280D01*
X149173720Y-89787431D01*
X149415142Y-89887431D01*
X153813741Y-94286031D01*
X153865903Y-94364097D01*
X153943969Y-94416259D01*
X154175181Y-94570750D01*
X154540000Y-94643317D01*
X154632086Y-94625000D01*
X156472704Y-94625000D01*
X156714126Y-94725000D01*
X157125874Y-94725000D01*
X157506280Y-94567431D01*
X157797431Y-94276280D01*
X157955000Y-93895874D01*
X157955000Y-93484126D01*
X157797431Y-93103720D01*
X157506280Y-92812569D01*
X157125874Y-92655000D01*
X156714126Y-92655000D01*
X156472704Y-92755000D01*
X154927290Y-92755000D01*
X150737431Y-88565142D01*
X150637431Y-88323720D01*
X150346280Y-88032569D01*
X149965874Y-87875000D01*
X149554126Y-87875000D01*
X149173720Y-88032569D01*
X148882569Y-88323720D01*
X148725000Y-88704126D01*
X136239585Y-88704126D01*
X136367431Y-88576280D01*
X136525000Y-88195874D01*
X136525000Y-87784126D01*
X163745000Y-87784126D01*
X163745000Y-88195874D01*
X163902569Y-88576280D01*
X164193720Y-88867431D01*
X164574126Y-89025000D01*
X164985874Y-89025000D01*
X165227296Y-88925000D01*
X169727914Y-88925000D01*
X169820000Y-88943317D01*
X169912086Y-88925000D01*
X170184819Y-88870750D01*
X170494097Y-88664097D01*
X170546261Y-88586028D01*
X171364859Y-87767431D01*
X171606280Y-87667431D01*
X171897431Y-87376280D01*
X172055000Y-86995874D01*
X172055000Y-86584126D01*
X171897431Y-86203720D01*
X171606280Y-85912569D01*
X171225874Y-85755000D01*
X170814126Y-85755000D01*
X170433720Y-85912569D01*
X170142569Y-86203720D01*
X170042569Y-86445141D01*
X169432711Y-87055000D01*
X165227296Y-87055000D01*
X164985874Y-86955000D01*
X164574126Y-86955000D01*
X164193720Y-87112569D01*
X163902569Y-87403720D01*
X163745000Y-87784126D01*
X136525000Y-87784126D01*
X136367431Y-87403720D01*
X136076280Y-87112569D01*
X135834859Y-87012570D01*
X133657291Y-84835002D01*
X133796280Y-84777431D01*
X134087431Y-84486280D01*
X134245000Y-84105874D01*
X134245000Y-83694126D01*
X134087431Y-83313720D01*
X133796280Y-83022569D01*
X133415874Y-82865000D01*
X133004126Y-82865000D01*
X132762704Y-82965000D01*
X125732086Y-82965000D01*
X125640000Y-82946683D01*
X125547914Y-82965000D01*
X125275181Y-83019250D01*
X124965903Y-83225903D01*
X124913741Y-83303969D01*
X123213970Y-85003741D01*
X123135904Y-85055903D01*
X123083742Y-85133969D01*
X123083741Y-85133970D01*
X122929250Y-85365182D01*
X122856683Y-85730000D01*
X122875001Y-85822090D01*
X122875000Y-88962704D01*
X122775000Y-89204126D01*
X103210000Y-89204126D01*
X103210000Y-79685866D01*
X190670000Y-79685866D01*
X190670000Y-80734134D01*
X191071155Y-81702608D01*
X191812392Y-82443845D01*
X192780866Y-82845000D01*
X193829134Y-82845000D01*
X194797608Y-82443845D01*
X195538845Y-81702608D01*
X195940000Y-80734134D01*
X195940000Y-79685866D01*
X195538845Y-78717392D01*
X194797608Y-77976155D01*
X193829134Y-77575000D01*
X192780866Y-77575000D01*
X191812392Y-77976155D01*
X191071155Y-78717392D01*
X190670000Y-79685866D01*
X103210000Y-79685866D01*
X103210000Y-68855431D01*
X103765000Y-68855431D01*
X103765000Y-69744569D01*
X104105259Y-70566026D01*
X104733974Y-71194741D01*
X105555431Y-71535000D01*
X106444569Y-71535000D01*
X107266026Y-71194741D01*
X107894741Y-70566026D01*
X107911826Y-70524778D01*
X118765000Y-70524778D01*
X118765000Y-71175222D01*
X119013914Y-71776153D01*
X119473847Y-72236086D01*
X120074778Y-72485000D01*
X120725222Y-72485000D01*
X121326153Y-72236086D01*
X121670000Y-71892239D01*
X122013847Y-72236086D01*
X122614778Y-72485000D01*
X123265222Y-72485000D01*
X123866153Y-72236086D01*
X124210000Y-71892239D01*
X124553847Y-72236086D01*
X125154778Y-72485000D01*
X125805222Y-72485000D01*
X126406153Y-72236086D01*
X126750000Y-71892239D01*
X127093847Y-72236086D01*
X127694778Y-72485000D01*
X128345222Y-72485000D01*
X128946153Y-72236086D01*
X129290000Y-71892239D01*
X129633847Y-72236086D01*
X130234778Y-72485000D01*
X130885222Y-72485000D01*
X131486153Y-72236086D01*
X131946086Y-71776153D01*
X132195000Y-71175222D01*
X132195000Y-70534779D01*
X149665001Y-70534779D01*
X149665001Y-71185223D01*
X149913915Y-71786154D01*
X150373848Y-72246087D01*
X150974779Y-72495001D01*
X151625223Y-72495001D01*
X152226154Y-72246087D01*
X152570001Y-71902240D01*
X152913848Y-72246087D01*
X153514779Y-72495001D01*
X154165223Y-72495001D01*
X154766154Y-72246087D01*
X155110001Y-71902240D01*
X155453848Y-72246087D01*
X156054779Y-72495001D01*
X156705223Y-72495001D01*
X157306154Y-72246087D01*
X157650001Y-71902240D01*
X157993848Y-72246087D01*
X158594779Y-72495001D01*
X159245223Y-72495001D01*
X159846154Y-72246087D01*
X160190001Y-71902240D01*
X160533848Y-72246087D01*
X161134779Y-72495001D01*
X161785223Y-72495001D01*
X162386154Y-72246087D01*
X162846087Y-71786154D01*
X163095001Y-71185223D01*
X163095001Y-70534779D01*
X180565000Y-70534779D01*
X180565000Y-71185223D01*
X180813914Y-71786154D01*
X181273847Y-72246087D01*
X181874778Y-72495001D01*
X182525222Y-72495001D01*
X183126153Y-72246087D01*
X183470000Y-71902240D01*
X183813847Y-72246087D01*
X184414778Y-72495001D01*
X185065222Y-72495001D01*
X185666153Y-72246087D01*
X186010000Y-71902240D01*
X186353847Y-72246087D01*
X186954778Y-72495001D01*
X187605222Y-72495001D01*
X188206153Y-72246087D01*
X188550000Y-71902240D01*
X188893847Y-72246087D01*
X189494778Y-72495001D01*
X190145222Y-72495001D01*
X190746153Y-72246087D01*
X191090000Y-71902240D01*
X191433847Y-72246087D01*
X192034778Y-72495001D01*
X192685222Y-72495001D01*
X193286153Y-72246087D01*
X193746086Y-71786154D01*
X193995000Y-71185223D01*
X193995000Y-70534779D01*
X193746086Y-69933848D01*
X193286153Y-69473915D01*
X192685222Y-69225001D01*
X192034778Y-69225001D01*
X191433847Y-69473915D01*
X191090000Y-69817762D01*
X190746153Y-69473915D01*
X190145222Y-69225001D01*
X189494778Y-69225001D01*
X188893847Y-69473915D01*
X188550000Y-69817762D01*
X188206153Y-69473915D01*
X187605222Y-69225001D01*
X186954778Y-69225001D01*
X186353847Y-69473915D01*
X186010000Y-69817762D01*
X185666153Y-69473915D01*
X185065222Y-69225001D01*
X184414778Y-69225001D01*
X183813847Y-69473915D01*
X183470000Y-69817762D01*
X183126153Y-69473915D01*
X182525222Y-69225001D01*
X181874778Y-69225001D01*
X181273847Y-69473915D01*
X180813914Y-69933848D01*
X180565000Y-70534779D01*
X163095001Y-70534779D01*
X162846087Y-69933848D01*
X162386154Y-69473915D01*
X161785223Y-69225001D01*
X161134779Y-69225001D01*
X160533848Y-69473915D01*
X160190001Y-69817762D01*
X159846154Y-69473915D01*
X159245223Y-69225001D01*
X158594779Y-69225001D01*
X157993848Y-69473915D01*
X157650001Y-69817762D01*
X157306154Y-69473915D01*
X156705223Y-69225001D01*
X156054779Y-69225001D01*
X155453848Y-69473915D01*
X155110001Y-69817762D01*
X154766154Y-69473915D01*
X154165223Y-69225001D01*
X153514779Y-69225001D01*
X152913848Y-69473915D01*
X152570001Y-69817762D01*
X152226154Y-69473915D01*
X151625223Y-69225001D01*
X150974779Y-69225001D01*
X150373848Y-69473915D01*
X149913915Y-69933848D01*
X149665001Y-70534779D01*
X132195000Y-70534779D01*
X132195000Y-70524778D01*
X131946086Y-69923847D01*
X131486153Y-69463914D01*
X130885222Y-69215000D01*
X130234778Y-69215000D01*
X129633847Y-69463914D01*
X129290000Y-69807761D01*
X128946153Y-69463914D01*
X128345222Y-69215000D01*
X127694778Y-69215000D01*
X127093847Y-69463914D01*
X126750000Y-69807761D01*
X126406153Y-69463914D01*
X125805222Y-69215000D01*
X125154778Y-69215000D01*
X124553847Y-69463914D01*
X124210000Y-69807761D01*
X123866153Y-69463914D01*
X123265222Y-69215000D01*
X122614778Y-69215000D01*
X122013847Y-69463914D01*
X121670000Y-69807761D01*
X121326153Y-69463914D01*
X120725222Y-69215000D01*
X120074778Y-69215000D01*
X119473847Y-69463914D01*
X119013914Y-69923847D01*
X118765000Y-70524778D01*
X107911826Y-70524778D01*
X108235000Y-69744569D01*
X108235000Y-68855431D01*
X203765000Y-68855431D01*
X203765000Y-69744569D01*
X204105259Y-70566026D01*
X204733974Y-71194741D01*
X205555431Y-71535000D01*
X206444569Y-71535000D01*
X207266026Y-71194741D01*
X207894741Y-70566026D01*
X208235000Y-69744569D01*
X208235000Y-68855431D01*
X207894741Y-68033974D01*
X207266026Y-67405259D01*
X206444569Y-67065000D01*
X205555431Y-67065000D01*
X204733974Y-67405259D01*
X204105259Y-68033974D01*
X203765000Y-68855431D01*
X108235000Y-68855431D01*
X107894741Y-68033974D01*
X107266026Y-67405259D01*
X106444569Y-67065000D01*
X105555431Y-67065000D01*
X104733974Y-67405259D01*
X104105259Y-68033974D01*
X103765000Y-68855431D01*
X103210000Y-68855431D01*
X103210000Y-66510000D01*
X208790000Y-66510000D01*
X208790001Y-121090000D01*
G04 #@! TD*
M02*
