G04 #@! TF.GenerationSoftware,KiCad,Pcbnew,5.0.1*
G04 #@! TF.CreationDate,2019-04-04T22:22:51+02:00*
G04 #@! TF.ProjectId,sdu,7364752E6B696361645F706362000000,0.2*
G04 #@! TF.SameCoordinates,Original*
G04 #@! TF.FileFunction,Copper,L2,Bot,Signal*
G04 #@! TF.FilePolarity,Positive*
%FSLAX46Y46*%
G04 Gerber Fmt 4.6, Leading zero omitted, Abs format (unit mm)*
G04 Created by KiCad (PCBNEW 5.0.1) date Čt 4. dubna 2019, 22:22:51 CEST*
%MOMM*%
%LPD*%
G01*
G04 APERTURE LIST*
G04 #@! TA.AperFunction,SMDPad,CuDef*
%ADD10R,0.900000X0.800000*%
G04 #@! TD*
G04 #@! TA.AperFunction,Conductor*
%ADD11C,0.100000*%
G04 #@! TD*
G04 #@! TA.AperFunction,SMDPad,CuDef*
%ADD12C,0.975000*%
G04 #@! TD*
G04 #@! TA.AperFunction,SMDPad,CuDef*
%ADD13R,0.800000X0.900000*%
G04 #@! TD*
G04 #@! TA.AperFunction,ComponentPad*
%ADD14C,2.000000*%
G04 #@! TD*
G04 #@! TA.AperFunction,ComponentPad*
%ADD15R,2.000000X2.000000*%
G04 #@! TD*
G04 #@! TA.AperFunction,ComponentPad*
%ADD16R,1.800000X1.800000*%
G04 #@! TD*
G04 #@! TA.AperFunction,ComponentPad*
%ADD17C,1.800000*%
G04 #@! TD*
G04 #@! TA.AperFunction,ComponentPad*
%ADD18R,1.600000X1.600000*%
G04 #@! TD*
G04 #@! TA.AperFunction,ComponentPad*
%ADD19C,1.600000*%
G04 #@! TD*
G04 #@! TA.AperFunction,ComponentPad*
%ADD20C,4.000000*%
G04 #@! TD*
G04 #@! TA.AperFunction,SMDPad,CuDef*
%ADD21R,1.500000X0.600000*%
G04 #@! TD*
G04 #@! TA.AperFunction,SMDPad,CuDef*
%ADD22R,2.000000X3.800000*%
G04 #@! TD*
G04 #@! TA.AperFunction,SMDPad,CuDef*
%ADD23R,2.000000X1.500000*%
G04 #@! TD*
G04 #@! TA.AperFunction,SMDPad,CuDef*
%ADD24R,1.550000X0.600000*%
G04 #@! TD*
G04 #@! TA.AperFunction,SMDPad,CuDef*
%ADD25R,0.600000X0.450000*%
G04 #@! TD*
G04 #@! TA.AperFunction,SMDPad,CuDef*
%ADD26R,1.450000X0.450000*%
G04 #@! TD*
G04 #@! TA.AperFunction,ComponentPad*
%ADD27R,1.700000X1.700000*%
G04 #@! TD*
G04 #@! TA.AperFunction,ComponentPad*
%ADD28O,1.700000X1.700000*%
G04 #@! TD*
G04 #@! TA.AperFunction,SMDPad,CuDef*
%ADD29C,0.300000*%
G04 #@! TD*
G04 #@! TA.AperFunction,SMDPad,CuDef*
%ADD30R,1.400000X1.200000*%
G04 #@! TD*
G04 #@! TA.AperFunction,ViaPad*
%ADD31C,0.800000*%
G04 #@! TD*
G04 #@! TA.AperFunction,Conductor*
%ADD32C,0.600000*%
G04 #@! TD*
G04 #@! TA.AperFunction,Conductor*
%ADD33C,0.300000*%
G04 #@! TD*
G04 APERTURE END LIST*
D10*
G04 #@! TO.P,Q7,1*
G04 #@! TO.N,Net-(Q7-Pad1)*
X164750000Y-110510000D03*
G04 #@! TO.P,Q7,2*
G04 #@! TO.N,GND*
X164750000Y-108610000D03*
G04 #@! TO.P,Q7,3*
G04 #@! TO.N,Net-(Q7-Pad3)*
X166750000Y-109560000D03*
G04 #@! TD*
D11*
G04 #@! TO.N,Net-(Q4-Pad1)*
G04 #@! TO.C,R24*
G36*
X169405142Y-109798674D02*
X169428803Y-109802184D01*
X169452007Y-109807996D01*
X169474529Y-109816054D01*
X169496153Y-109826282D01*
X169516670Y-109838579D01*
X169535883Y-109852829D01*
X169553607Y-109868893D01*
X169569671Y-109886617D01*
X169583921Y-109905830D01*
X169596218Y-109926347D01*
X169606446Y-109947971D01*
X169614504Y-109970493D01*
X169620316Y-109993697D01*
X169623826Y-110017358D01*
X169625000Y-110041250D01*
X169625000Y-110528750D01*
X169623826Y-110552642D01*
X169620316Y-110576303D01*
X169614504Y-110599507D01*
X169606446Y-110622029D01*
X169596218Y-110643653D01*
X169583921Y-110664170D01*
X169569671Y-110683383D01*
X169553607Y-110701107D01*
X169535883Y-110717171D01*
X169516670Y-110731421D01*
X169496153Y-110743718D01*
X169474529Y-110753946D01*
X169452007Y-110762004D01*
X169428803Y-110767816D01*
X169405142Y-110771326D01*
X169381250Y-110772500D01*
X168468750Y-110772500D01*
X168444858Y-110771326D01*
X168421197Y-110767816D01*
X168397993Y-110762004D01*
X168375471Y-110753946D01*
X168353847Y-110743718D01*
X168333330Y-110731421D01*
X168314117Y-110717171D01*
X168296393Y-110701107D01*
X168280329Y-110683383D01*
X168266079Y-110664170D01*
X168253782Y-110643653D01*
X168243554Y-110622029D01*
X168235496Y-110599507D01*
X168229684Y-110576303D01*
X168226174Y-110552642D01*
X168225000Y-110528750D01*
X168225000Y-110041250D01*
X168226174Y-110017358D01*
X168229684Y-109993697D01*
X168235496Y-109970493D01*
X168243554Y-109947971D01*
X168253782Y-109926347D01*
X168266079Y-109905830D01*
X168280329Y-109886617D01*
X168296393Y-109868893D01*
X168314117Y-109852829D01*
X168333330Y-109838579D01*
X168353847Y-109826282D01*
X168375471Y-109816054D01*
X168397993Y-109807996D01*
X168421197Y-109802184D01*
X168444858Y-109798674D01*
X168468750Y-109797500D01*
X169381250Y-109797500D01*
X169405142Y-109798674D01*
X169405142Y-109798674D01*
G37*
D12*
G04 #@! TD*
G04 #@! TO.P,R24,2*
G04 #@! TO.N,Net-(Q4-Pad1)*
X168925000Y-110285000D03*
D11*
G04 #@! TO.N,Net-(Q7-Pad3)*
G04 #@! TO.C,R24*
G36*
X169405142Y-107923674D02*
X169428803Y-107927184D01*
X169452007Y-107932996D01*
X169474529Y-107941054D01*
X169496153Y-107951282D01*
X169516670Y-107963579D01*
X169535883Y-107977829D01*
X169553607Y-107993893D01*
X169569671Y-108011617D01*
X169583921Y-108030830D01*
X169596218Y-108051347D01*
X169606446Y-108072971D01*
X169614504Y-108095493D01*
X169620316Y-108118697D01*
X169623826Y-108142358D01*
X169625000Y-108166250D01*
X169625000Y-108653750D01*
X169623826Y-108677642D01*
X169620316Y-108701303D01*
X169614504Y-108724507D01*
X169606446Y-108747029D01*
X169596218Y-108768653D01*
X169583921Y-108789170D01*
X169569671Y-108808383D01*
X169553607Y-108826107D01*
X169535883Y-108842171D01*
X169516670Y-108856421D01*
X169496153Y-108868718D01*
X169474529Y-108878946D01*
X169452007Y-108887004D01*
X169428803Y-108892816D01*
X169405142Y-108896326D01*
X169381250Y-108897500D01*
X168468750Y-108897500D01*
X168444858Y-108896326D01*
X168421197Y-108892816D01*
X168397993Y-108887004D01*
X168375471Y-108878946D01*
X168353847Y-108868718D01*
X168333330Y-108856421D01*
X168314117Y-108842171D01*
X168296393Y-108826107D01*
X168280329Y-108808383D01*
X168266079Y-108789170D01*
X168253782Y-108768653D01*
X168243554Y-108747029D01*
X168235496Y-108724507D01*
X168229684Y-108701303D01*
X168226174Y-108677642D01*
X168225000Y-108653750D01*
X168225000Y-108166250D01*
X168226174Y-108142358D01*
X168229684Y-108118697D01*
X168235496Y-108095493D01*
X168243554Y-108072971D01*
X168253782Y-108051347D01*
X168266079Y-108030830D01*
X168280329Y-108011617D01*
X168296393Y-107993893D01*
X168314117Y-107977829D01*
X168333330Y-107963579D01*
X168353847Y-107951282D01*
X168375471Y-107941054D01*
X168397993Y-107932996D01*
X168421197Y-107927184D01*
X168444858Y-107923674D01*
X168468750Y-107922500D01*
X169381250Y-107922500D01*
X169405142Y-107923674D01*
X169405142Y-107923674D01*
G37*
D12*
G04 #@! TD*
G04 #@! TO.P,R24,1*
G04 #@! TO.N,Net-(Q7-Pad3)*
X168925000Y-108410000D03*
D11*
G04 #@! TO.N,+5V*
G04 #@! TO.C,R23*
G36*
X171505142Y-107923674D02*
X171528803Y-107927184D01*
X171552007Y-107932996D01*
X171574529Y-107941054D01*
X171596153Y-107951282D01*
X171616670Y-107963579D01*
X171635883Y-107977829D01*
X171653607Y-107993893D01*
X171669671Y-108011617D01*
X171683921Y-108030830D01*
X171696218Y-108051347D01*
X171706446Y-108072971D01*
X171714504Y-108095493D01*
X171720316Y-108118697D01*
X171723826Y-108142358D01*
X171725000Y-108166250D01*
X171725000Y-108653750D01*
X171723826Y-108677642D01*
X171720316Y-108701303D01*
X171714504Y-108724507D01*
X171706446Y-108747029D01*
X171696218Y-108768653D01*
X171683921Y-108789170D01*
X171669671Y-108808383D01*
X171653607Y-108826107D01*
X171635883Y-108842171D01*
X171616670Y-108856421D01*
X171596153Y-108868718D01*
X171574529Y-108878946D01*
X171552007Y-108887004D01*
X171528803Y-108892816D01*
X171505142Y-108896326D01*
X171481250Y-108897500D01*
X170568750Y-108897500D01*
X170544858Y-108896326D01*
X170521197Y-108892816D01*
X170497993Y-108887004D01*
X170475471Y-108878946D01*
X170453847Y-108868718D01*
X170433330Y-108856421D01*
X170414117Y-108842171D01*
X170396393Y-108826107D01*
X170380329Y-108808383D01*
X170366079Y-108789170D01*
X170353782Y-108768653D01*
X170343554Y-108747029D01*
X170335496Y-108724507D01*
X170329684Y-108701303D01*
X170326174Y-108677642D01*
X170325000Y-108653750D01*
X170325000Y-108166250D01*
X170326174Y-108142358D01*
X170329684Y-108118697D01*
X170335496Y-108095493D01*
X170343554Y-108072971D01*
X170353782Y-108051347D01*
X170366079Y-108030830D01*
X170380329Y-108011617D01*
X170396393Y-107993893D01*
X170414117Y-107977829D01*
X170433330Y-107963579D01*
X170453847Y-107951282D01*
X170475471Y-107941054D01*
X170497993Y-107932996D01*
X170521197Y-107927184D01*
X170544858Y-107923674D01*
X170568750Y-107922500D01*
X171481250Y-107922500D01*
X171505142Y-107923674D01*
X171505142Y-107923674D01*
G37*
D12*
G04 #@! TD*
G04 #@! TO.P,R23,1*
G04 #@! TO.N,+5V*
X171025000Y-108410000D03*
D11*
G04 #@! TO.N,Net-(Q4-Pad1)*
G04 #@! TO.C,R23*
G36*
X171505142Y-109798674D02*
X171528803Y-109802184D01*
X171552007Y-109807996D01*
X171574529Y-109816054D01*
X171596153Y-109826282D01*
X171616670Y-109838579D01*
X171635883Y-109852829D01*
X171653607Y-109868893D01*
X171669671Y-109886617D01*
X171683921Y-109905830D01*
X171696218Y-109926347D01*
X171706446Y-109947971D01*
X171714504Y-109970493D01*
X171720316Y-109993697D01*
X171723826Y-110017358D01*
X171725000Y-110041250D01*
X171725000Y-110528750D01*
X171723826Y-110552642D01*
X171720316Y-110576303D01*
X171714504Y-110599507D01*
X171706446Y-110622029D01*
X171696218Y-110643653D01*
X171683921Y-110664170D01*
X171669671Y-110683383D01*
X171653607Y-110701107D01*
X171635883Y-110717171D01*
X171616670Y-110731421D01*
X171596153Y-110743718D01*
X171574529Y-110753946D01*
X171552007Y-110762004D01*
X171528803Y-110767816D01*
X171505142Y-110771326D01*
X171481250Y-110772500D01*
X170568750Y-110772500D01*
X170544858Y-110771326D01*
X170521197Y-110767816D01*
X170497993Y-110762004D01*
X170475471Y-110753946D01*
X170453847Y-110743718D01*
X170433330Y-110731421D01*
X170414117Y-110717171D01*
X170396393Y-110701107D01*
X170380329Y-110683383D01*
X170366079Y-110664170D01*
X170353782Y-110643653D01*
X170343554Y-110622029D01*
X170335496Y-110599507D01*
X170329684Y-110576303D01*
X170326174Y-110552642D01*
X170325000Y-110528750D01*
X170325000Y-110041250D01*
X170326174Y-110017358D01*
X170329684Y-109993697D01*
X170335496Y-109970493D01*
X170343554Y-109947971D01*
X170353782Y-109926347D01*
X170366079Y-109905830D01*
X170380329Y-109886617D01*
X170396393Y-109868893D01*
X170414117Y-109852829D01*
X170433330Y-109838579D01*
X170453847Y-109826282D01*
X170475471Y-109816054D01*
X170497993Y-109807996D01*
X170521197Y-109802184D01*
X170544858Y-109798674D01*
X170568750Y-109797500D01*
X171481250Y-109797500D01*
X171505142Y-109798674D01*
X171505142Y-109798674D01*
G37*
D12*
G04 #@! TD*
G04 #@! TO.P,R23,2*
G04 #@! TO.N,Net-(Q4-Pad1)*
X171025000Y-110285000D03*
D10*
G04 #@! TO.P,Q4,1*
G04 #@! TO.N,Net-(Q4-Pad1)*
X172875000Y-110310000D03*
G04 #@! TO.P,Q4,2*
G04 #@! TO.N,+5V*
X172875000Y-108410000D03*
G04 #@! TO.P,Q4,3*
G04 #@! TO.N,Net-(Q4-Pad3)*
X174875000Y-109360000D03*
G04 #@! TD*
D11*
G04 #@! TO.N,+3V3*
G04 #@! TO.C,C5*
G36*
X183465142Y-79538674D02*
X183488803Y-79542184D01*
X183512007Y-79547996D01*
X183534529Y-79556054D01*
X183556153Y-79566282D01*
X183576670Y-79578579D01*
X183595883Y-79592829D01*
X183613607Y-79608893D01*
X183629671Y-79626617D01*
X183643921Y-79645830D01*
X183656218Y-79666347D01*
X183666446Y-79687971D01*
X183674504Y-79710493D01*
X183680316Y-79733697D01*
X183683826Y-79757358D01*
X183685000Y-79781250D01*
X183685000Y-80268750D01*
X183683826Y-80292642D01*
X183680316Y-80316303D01*
X183674504Y-80339507D01*
X183666446Y-80362029D01*
X183656218Y-80383653D01*
X183643921Y-80404170D01*
X183629671Y-80423383D01*
X183613607Y-80441107D01*
X183595883Y-80457171D01*
X183576670Y-80471421D01*
X183556153Y-80483718D01*
X183534529Y-80493946D01*
X183512007Y-80502004D01*
X183488803Y-80507816D01*
X183465142Y-80511326D01*
X183441250Y-80512500D01*
X182528750Y-80512500D01*
X182504858Y-80511326D01*
X182481197Y-80507816D01*
X182457993Y-80502004D01*
X182435471Y-80493946D01*
X182413847Y-80483718D01*
X182393330Y-80471421D01*
X182374117Y-80457171D01*
X182356393Y-80441107D01*
X182340329Y-80423383D01*
X182326079Y-80404170D01*
X182313782Y-80383653D01*
X182303554Y-80362029D01*
X182295496Y-80339507D01*
X182289684Y-80316303D01*
X182286174Y-80292642D01*
X182285000Y-80268750D01*
X182285000Y-79781250D01*
X182286174Y-79757358D01*
X182289684Y-79733697D01*
X182295496Y-79710493D01*
X182303554Y-79687971D01*
X182313782Y-79666347D01*
X182326079Y-79645830D01*
X182340329Y-79626617D01*
X182356393Y-79608893D01*
X182374117Y-79592829D01*
X182393330Y-79578579D01*
X182413847Y-79566282D01*
X182435471Y-79556054D01*
X182457993Y-79547996D01*
X182481197Y-79542184D01*
X182504858Y-79538674D01*
X182528750Y-79537500D01*
X183441250Y-79537500D01*
X183465142Y-79538674D01*
X183465142Y-79538674D01*
G37*
D12*
G04 #@! TD*
G04 #@! TO.P,C5,1*
G04 #@! TO.N,+3V3*
X182985000Y-80025000D03*
D11*
G04 #@! TO.N,GND*
G04 #@! TO.C,C5*
G36*
X183465142Y-77663674D02*
X183488803Y-77667184D01*
X183512007Y-77672996D01*
X183534529Y-77681054D01*
X183556153Y-77691282D01*
X183576670Y-77703579D01*
X183595883Y-77717829D01*
X183613607Y-77733893D01*
X183629671Y-77751617D01*
X183643921Y-77770830D01*
X183656218Y-77791347D01*
X183666446Y-77812971D01*
X183674504Y-77835493D01*
X183680316Y-77858697D01*
X183683826Y-77882358D01*
X183685000Y-77906250D01*
X183685000Y-78393750D01*
X183683826Y-78417642D01*
X183680316Y-78441303D01*
X183674504Y-78464507D01*
X183666446Y-78487029D01*
X183656218Y-78508653D01*
X183643921Y-78529170D01*
X183629671Y-78548383D01*
X183613607Y-78566107D01*
X183595883Y-78582171D01*
X183576670Y-78596421D01*
X183556153Y-78608718D01*
X183534529Y-78618946D01*
X183512007Y-78627004D01*
X183488803Y-78632816D01*
X183465142Y-78636326D01*
X183441250Y-78637500D01*
X182528750Y-78637500D01*
X182504858Y-78636326D01*
X182481197Y-78632816D01*
X182457993Y-78627004D01*
X182435471Y-78618946D01*
X182413847Y-78608718D01*
X182393330Y-78596421D01*
X182374117Y-78582171D01*
X182356393Y-78566107D01*
X182340329Y-78548383D01*
X182326079Y-78529170D01*
X182313782Y-78508653D01*
X182303554Y-78487029D01*
X182295496Y-78464507D01*
X182289684Y-78441303D01*
X182286174Y-78417642D01*
X182285000Y-78393750D01*
X182285000Y-77906250D01*
X182286174Y-77882358D01*
X182289684Y-77858697D01*
X182295496Y-77835493D01*
X182303554Y-77812971D01*
X182313782Y-77791347D01*
X182326079Y-77770830D01*
X182340329Y-77751617D01*
X182356393Y-77733893D01*
X182374117Y-77717829D01*
X182393330Y-77703579D01*
X182413847Y-77691282D01*
X182435471Y-77681054D01*
X182457993Y-77672996D01*
X182481197Y-77667184D01*
X182504858Y-77663674D01*
X182528750Y-77662500D01*
X183441250Y-77662500D01*
X183465142Y-77663674D01*
X183465142Y-77663674D01*
G37*
D12*
G04 #@! TD*
G04 #@! TO.P,C5,2*
G04 #@! TO.N,GND*
X182985000Y-78150000D03*
D11*
G04 #@! TO.N,GND*
G04 #@! TO.C,C6*
G36*
X172240142Y-77588674D02*
X172263803Y-77592184D01*
X172287007Y-77597996D01*
X172309529Y-77606054D01*
X172331153Y-77616282D01*
X172351670Y-77628579D01*
X172370883Y-77642829D01*
X172388607Y-77658893D01*
X172404671Y-77676617D01*
X172418921Y-77695830D01*
X172431218Y-77716347D01*
X172441446Y-77737971D01*
X172449504Y-77760493D01*
X172455316Y-77783697D01*
X172458826Y-77807358D01*
X172460000Y-77831250D01*
X172460000Y-78318750D01*
X172458826Y-78342642D01*
X172455316Y-78366303D01*
X172449504Y-78389507D01*
X172441446Y-78412029D01*
X172431218Y-78433653D01*
X172418921Y-78454170D01*
X172404671Y-78473383D01*
X172388607Y-78491107D01*
X172370883Y-78507171D01*
X172351670Y-78521421D01*
X172331153Y-78533718D01*
X172309529Y-78543946D01*
X172287007Y-78552004D01*
X172263803Y-78557816D01*
X172240142Y-78561326D01*
X172216250Y-78562500D01*
X171303750Y-78562500D01*
X171279858Y-78561326D01*
X171256197Y-78557816D01*
X171232993Y-78552004D01*
X171210471Y-78543946D01*
X171188847Y-78533718D01*
X171168330Y-78521421D01*
X171149117Y-78507171D01*
X171131393Y-78491107D01*
X171115329Y-78473383D01*
X171101079Y-78454170D01*
X171088782Y-78433653D01*
X171078554Y-78412029D01*
X171070496Y-78389507D01*
X171064684Y-78366303D01*
X171061174Y-78342642D01*
X171060000Y-78318750D01*
X171060000Y-77831250D01*
X171061174Y-77807358D01*
X171064684Y-77783697D01*
X171070496Y-77760493D01*
X171078554Y-77737971D01*
X171088782Y-77716347D01*
X171101079Y-77695830D01*
X171115329Y-77676617D01*
X171131393Y-77658893D01*
X171149117Y-77642829D01*
X171168330Y-77628579D01*
X171188847Y-77616282D01*
X171210471Y-77606054D01*
X171232993Y-77597996D01*
X171256197Y-77592184D01*
X171279858Y-77588674D01*
X171303750Y-77587500D01*
X172216250Y-77587500D01*
X172240142Y-77588674D01*
X172240142Y-77588674D01*
G37*
D12*
G04 #@! TD*
G04 #@! TO.P,C6,2*
G04 #@! TO.N,GND*
X171760000Y-78075000D03*
D11*
G04 #@! TO.N,+3V3*
G04 #@! TO.C,C6*
G36*
X172240142Y-79463674D02*
X172263803Y-79467184D01*
X172287007Y-79472996D01*
X172309529Y-79481054D01*
X172331153Y-79491282D01*
X172351670Y-79503579D01*
X172370883Y-79517829D01*
X172388607Y-79533893D01*
X172404671Y-79551617D01*
X172418921Y-79570830D01*
X172431218Y-79591347D01*
X172441446Y-79612971D01*
X172449504Y-79635493D01*
X172455316Y-79658697D01*
X172458826Y-79682358D01*
X172460000Y-79706250D01*
X172460000Y-80193750D01*
X172458826Y-80217642D01*
X172455316Y-80241303D01*
X172449504Y-80264507D01*
X172441446Y-80287029D01*
X172431218Y-80308653D01*
X172418921Y-80329170D01*
X172404671Y-80348383D01*
X172388607Y-80366107D01*
X172370883Y-80382171D01*
X172351670Y-80396421D01*
X172331153Y-80408718D01*
X172309529Y-80418946D01*
X172287007Y-80427004D01*
X172263803Y-80432816D01*
X172240142Y-80436326D01*
X172216250Y-80437500D01*
X171303750Y-80437500D01*
X171279858Y-80436326D01*
X171256197Y-80432816D01*
X171232993Y-80427004D01*
X171210471Y-80418946D01*
X171188847Y-80408718D01*
X171168330Y-80396421D01*
X171149117Y-80382171D01*
X171131393Y-80366107D01*
X171115329Y-80348383D01*
X171101079Y-80329170D01*
X171088782Y-80308653D01*
X171078554Y-80287029D01*
X171070496Y-80264507D01*
X171064684Y-80241303D01*
X171061174Y-80217642D01*
X171060000Y-80193750D01*
X171060000Y-79706250D01*
X171061174Y-79682358D01*
X171064684Y-79658697D01*
X171070496Y-79635493D01*
X171078554Y-79612971D01*
X171088782Y-79591347D01*
X171101079Y-79570830D01*
X171115329Y-79551617D01*
X171131393Y-79533893D01*
X171149117Y-79517829D01*
X171168330Y-79503579D01*
X171188847Y-79491282D01*
X171210471Y-79481054D01*
X171232993Y-79472996D01*
X171256197Y-79467184D01*
X171279858Y-79463674D01*
X171303750Y-79462500D01*
X172216250Y-79462500D01*
X172240142Y-79463674D01*
X172240142Y-79463674D01*
G37*
D12*
G04 #@! TD*
G04 #@! TO.P,C6,1*
G04 #@! TO.N,+3V3*
X171760000Y-79950000D03*
D11*
G04 #@! TO.N,GND*
G04 #@! TO.C,C4*
G36*
X160505142Y-89288674D02*
X160528803Y-89292184D01*
X160552007Y-89297996D01*
X160574529Y-89306054D01*
X160596153Y-89316282D01*
X160616670Y-89328579D01*
X160635883Y-89342829D01*
X160653607Y-89358893D01*
X160669671Y-89376617D01*
X160683921Y-89395830D01*
X160696218Y-89416347D01*
X160706446Y-89437971D01*
X160714504Y-89460493D01*
X160720316Y-89483697D01*
X160723826Y-89507358D01*
X160725000Y-89531250D01*
X160725000Y-90018750D01*
X160723826Y-90042642D01*
X160720316Y-90066303D01*
X160714504Y-90089507D01*
X160706446Y-90112029D01*
X160696218Y-90133653D01*
X160683921Y-90154170D01*
X160669671Y-90173383D01*
X160653607Y-90191107D01*
X160635883Y-90207171D01*
X160616670Y-90221421D01*
X160596153Y-90233718D01*
X160574529Y-90243946D01*
X160552007Y-90252004D01*
X160528803Y-90257816D01*
X160505142Y-90261326D01*
X160481250Y-90262500D01*
X159568750Y-90262500D01*
X159544858Y-90261326D01*
X159521197Y-90257816D01*
X159497993Y-90252004D01*
X159475471Y-90243946D01*
X159453847Y-90233718D01*
X159433330Y-90221421D01*
X159414117Y-90207171D01*
X159396393Y-90191107D01*
X159380329Y-90173383D01*
X159366079Y-90154170D01*
X159353782Y-90133653D01*
X159343554Y-90112029D01*
X159335496Y-90089507D01*
X159329684Y-90066303D01*
X159326174Y-90042642D01*
X159325000Y-90018750D01*
X159325000Y-89531250D01*
X159326174Y-89507358D01*
X159329684Y-89483697D01*
X159335496Y-89460493D01*
X159343554Y-89437971D01*
X159353782Y-89416347D01*
X159366079Y-89395830D01*
X159380329Y-89376617D01*
X159396393Y-89358893D01*
X159414117Y-89342829D01*
X159433330Y-89328579D01*
X159453847Y-89316282D01*
X159475471Y-89306054D01*
X159497993Y-89297996D01*
X159521197Y-89292184D01*
X159544858Y-89288674D01*
X159568750Y-89287500D01*
X160481250Y-89287500D01*
X160505142Y-89288674D01*
X160505142Y-89288674D01*
G37*
D12*
G04 #@! TD*
G04 #@! TO.P,C4,2*
G04 #@! TO.N,GND*
X160025000Y-89775000D03*
D11*
G04 #@! TO.N,+5V*
G04 #@! TO.C,C4*
G36*
X160505142Y-87413674D02*
X160528803Y-87417184D01*
X160552007Y-87422996D01*
X160574529Y-87431054D01*
X160596153Y-87441282D01*
X160616670Y-87453579D01*
X160635883Y-87467829D01*
X160653607Y-87483893D01*
X160669671Y-87501617D01*
X160683921Y-87520830D01*
X160696218Y-87541347D01*
X160706446Y-87562971D01*
X160714504Y-87585493D01*
X160720316Y-87608697D01*
X160723826Y-87632358D01*
X160725000Y-87656250D01*
X160725000Y-88143750D01*
X160723826Y-88167642D01*
X160720316Y-88191303D01*
X160714504Y-88214507D01*
X160706446Y-88237029D01*
X160696218Y-88258653D01*
X160683921Y-88279170D01*
X160669671Y-88298383D01*
X160653607Y-88316107D01*
X160635883Y-88332171D01*
X160616670Y-88346421D01*
X160596153Y-88358718D01*
X160574529Y-88368946D01*
X160552007Y-88377004D01*
X160528803Y-88382816D01*
X160505142Y-88386326D01*
X160481250Y-88387500D01*
X159568750Y-88387500D01*
X159544858Y-88386326D01*
X159521197Y-88382816D01*
X159497993Y-88377004D01*
X159475471Y-88368946D01*
X159453847Y-88358718D01*
X159433330Y-88346421D01*
X159414117Y-88332171D01*
X159396393Y-88316107D01*
X159380329Y-88298383D01*
X159366079Y-88279170D01*
X159353782Y-88258653D01*
X159343554Y-88237029D01*
X159335496Y-88214507D01*
X159329684Y-88191303D01*
X159326174Y-88167642D01*
X159325000Y-88143750D01*
X159325000Y-87656250D01*
X159326174Y-87632358D01*
X159329684Y-87608697D01*
X159335496Y-87585493D01*
X159343554Y-87562971D01*
X159353782Y-87541347D01*
X159366079Y-87520830D01*
X159380329Y-87501617D01*
X159396393Y-87483893D01*
X159414117Y-87467829D01*
X159433330Y-87453579D01*
X159453847Y-87441282D01*
X159475471Y-87431054D01*
X159497993Y-87422996D01*
X159521197Y-87417184D01*
X159544858Y-87413674D01*
X159568750Y-87412500D01*
X160481250Y-87412500D01*
X160505142Y-87413674D01*
X160505142Y-87413674D01*
G37*
D12*
G04 #@! TD*
G04 #@! TO.P,C4,1*
G04 #@! TO.N,+5V*
X160025000Y-87900000D03*
D11*
G04 #@! TO.N,GND*
G04 #@! TO.C,C7*
G36*
X155687642Y-79481174D02*
X155711303Y-79484684D01*
X155734507Y-79490496D01*
X155757029Y-79498554D01*
X155778653Y-79508782D01*
X155799170Y-79521079D01*
X155818383Y-79535329D01*
X155836107Y-79551393D01*
X155852171Y-79569117D01*
X155866421Y-79588330D01*
X155878718Y-79608847D01*
X155888946Y-79630471D01*
X155897004Y-79652993D01*
X155902816Y-79676197D01*
X155906326Y-79699858D01*
X155907500Y-79723750D01*
X155907500Y-80636250D01*
X155906326Y-80660142D01*
X155902816Y-80683803D01*
X155897004Y-80707007D01*
X155888946Y-80729529D01*
X155878718Y-80751153D01*
X155866421Y-80771670D01*
X155852171Y-80790883D01*
X155836107Y-80808607D01*
X155818383Y-80824671D01*
X155799170Y-80838921D01*
X155778653Y-80851218D01*
X155757029Y-80861446D01*
X155734507Y-80869504D01*
X155711303Y-80875316D01*
X155687642Y-80878826D01*
X155663750Y-80880000D01*
X155176250Y-80880000D01*
X155152358Y-80878826D01*
X155128697Y-80875316D01*
X155105493Y-80869504D01*
X155082971Y-80861446D01*
X155061347Y-80851218D01*
X155040830Y-80838921D01*
X155021617Y-80824671D01*
X155003893Y-80808607D01*
X154987829Y-80790883D01*
X154973579Y-80771670D01*
X154961282Y-80751153D01*
X154951054Y-80729529D01*
X154942996Y-80707007D01*
X154937184Y-80683803D01*
X154933674Y-80660142D01*
X154932500Y-80636250D01*
X154932500Y-79723750D01*
X154933674Y-79699858D01*
X154937184Y-79676197D01*
X154942996Y-79652993D01*
X154951054Y-79630471D01*
X154961282Y-79608847D01*
X154973579Y-79588330D01*
X154987829Y-79569117D01*
X155003893Y-79551393D01*
X155021617Y-79535329D01*
X155040830Y-79521079D01*
X155061347Y-79508782D01*
X155082971Y-79498554D01*
X155105493Y-79490496D01*
X155128697Y-79484684D01*
X155152358Y-79481174D01*
X155176250Y-79480000D01*
X155663750Y-79480000D01*
X155687642Y-79481174D01*
X155687642Y-79481174D01*
G37*
D12*
G04 #@! TD*
G04 #@! TO.P,C7,2*
G04 #@! TO.N,GND*
X155420000Y-80180000D03*
D11*
G04 #@! TO.N,/RESET*
G04 #@! TO.C,C7*
G36*
X153812642Y-79481174D02*
X153836303Y-79484684D01*
X153859507Y-79490496D01*
X153882029Y-79498554D01*
X153903653Y-79508782D01*
X153924170Y-79521079D01*
X153943383Y-79535329D01*
X153961107Y-79551393D01*
X153977171Y-79569117D01*
X153991421Y-79588330D01*
X154003718Y-79608847D01*
X154013946Y-79630471D01*
X154022004Y-79652993D01*
X154027816Y-79676197D01*
X154031326Y-79699858D01*
X154032500Y-79723750D01*
X154032500Y-80636250D01*
X154031326Y-80660142D01*
X154027816Y-80683803D01*
X154022004Y-80707007D01*
X154013946Y-80729529D01*
X154003718Y-80751153D01*
X153991421Y-80771670D01*
X153977171Y-80790883D01*
X153961107Y-80808607D01*
X153943383Y-80824671D01*
X153924170Y-80838921D01*
X153903653Y-80851218D01*
X153882029Y-80861446D01*
X153859507Y-80869504D01*
X153836303Y-80875316D01*
X153812642Y-80878826D01*
X153788750Y-80880000D01*
X153301250Y-80880000D01*
X153277358Y-80878826D01*
X153253697Y-80875316D01*
X153230493Y-80869504D01*
X153207971Y-80861446D01*
X153186347Y-80851218D01*
X153165830Y-80838921D01*
X153146617Y-80824671D01*
X153128893Y-80808607D01*
X153112829Y-80790883D01*
X153098579Y-80771670D01*
X153086282Y-80751153D01*
X153076054Y-80729529D01*
X153067996Y-80707007D01*
X153062184Y-80683803D01*
X153058674Y-80660142D01*
X153057500Y-80636250D01*
X153057500Y-79723750D01*
X153058674Y-79699858D01*
X153062184Y-79676197D01*
X153067996Y-79652993D01*
X153076054Y-79630471D01*
X153086282Y-79608847D01*
X153098579Y-79588330D01*
X153112829Y-79569117D01*
X153128893Y-79551393D01*
X153146617Y-79535329D01*
X153165830Y-79521079D01*
X153186347Y-79508782D01*
X153207971Y-79498554D01*
X153230493Y-79490496D01*
X153253697Y-79484684D01*
X153277358Y-79481174D01*
X153301250Y-79480000D01*
X153788750Y-79480000D01*
X153812642Y-79481174D01*
X153812642Y-79481174D01*
G37*
D12*
G04 #@! TD*
G04 #@! TO.P,C7,1*
G04 #@! TO.N,/RESET*
X153545000Y-80180000D03*
D13*
G04 #@! TO.P,Q3,3*
G04 #@! TO.N,Net-(Q3-Pad3)*
X160890000Y-108250000D03*
G04 #@! TO.P,Q3,2*
G04 #@! TO.N,+5V*
X161840000Y-106250000D03*
G04 #@! TO.P,Q3,1*
G04 #@! TO.N,Net-(Q3-Pad1)*
X159940000Y-106250000D03*
G04 #@! TD*
D11*
G04 #@! TO.N,Net-(Q5-Pad1)*
G04 #@! TO.C,R16*
G36*
X149405142Y-92013674D02*
X149428803Y-92017184D01*
X149452007Y-92022996D01*
X149474529Y-92031054D01*
X149496153Y-92041282D01*
X149516670Y-92053579D01*
X149535883Y-92067829D01*
X149553607Y-92083893D01*
X149569671Y-92101617D01*
X149583921Y-92120830D01*
X149596218Y-92141347D01*
X149606446Y-92162971D01*
X149614504Y-92185493D01*
X149620316Y-92208697D01*
X149623826Y-92232358D01*
X149625000Y-92256250D01*
X149625000Y-92743750D01*
X149623826Y-92767642D01*
X149620316Y-92791303D01*
X149614504Y-92814507D01*
X149606446Y-92837029D01*
X149596218Y-92858653D01*
X149583921Y-92879170D01*
X149569671Y-92898383D01*
X149553607Y-92916107D01*
X149535883Y-92932171D01*
X149516670Y-92946421D01*
X149496153Y-92958718D01*
X149474529Y-92968946D01*
X149452007Y-92977004D01*
X149428803Y-92982816D01*
X149405142Y-92986326D01*
X149381250Y-92987500D01*
X148468750Y-92987500D01*
X148444858Y-92986326D01*
X148421197Y-92982816D01*
X148397993Y-92977004D01*
X148375471Y-92968946D01*
X148353847Y-92958718D01*
X148333330Y-92946421D01*
X148314117Y-92932171D01*
X148296393Y-92916107D01*
X148280329Y-92898383D01*
X148266079Y-92879170D01*
X148253782Y-92858653D01*
X148243554Y-92837029D01*
X148235496Y-92814507D01*
X148229684Y-92791303D01*
X148226174Y-92767642D01*
X148225000Y-92743750D01*
X148225000Y-92256250D01*
X148226174Y-92232358D01*
X148229684Y-92208697D01*
X148235496Y-92185493D01*
X148243554Y-92162971D01*
X148253782Y-92141347D01*
X148266079Y-92120830D01*
X148280329Y-92101617D01*
X148296393Y-92083893D01*
X148314117Y-92067829D01*
X148333330Y-92053579D01*
X148353847Y-92041282D01*
X148375471Y-92031054D01*
X148397993Y-92022996D01*
X148421197Y-92017184D01*
X148444858Y-92013674D01*
X148468750Y-92012500D01*
X149381250Y-92012500D01*
X149405142Y-92013674D01*
X149405142Y-92013674D01*
G37*
D12*
G04 #@! TD*
G04 #@! TO.P,R16,1*
G04 #@! TO.N,Net-(Q5-Pad1)*
X148925000Y-92500000D03*
D11*
G04 #@! TO.N,/SEG1*
G04 #@! TO.C,R16*
G36*
X149405142Y-90138674D02*
X149428803Y-90142184D01*
X149452007Y-90147996D01*
X149474529Y-90156054D01*
X149496153Y-90166282D01*
X149516670Y-90178579D01*
X149535883Y-90192829D01*
X149553607Y-90208893D01*
X149569671Y-90226617D01*
X149583921Y-90245830D01*
X149596218Y-90266347D01*
X149606446Y-90287971D01*
X149614504Y-90310493D01*
X149620316Y-90333697D01*
X149623826Y-90357358D01*
X149625000Y-90381250D01*
X149625000Y-90868750D01*
X149623826Y-90892642D01*
X149620316Y-90916303D01*
X149614504Y-90939507D01*
X149606446Y-90962029D01*
X149596218Y-90983653D01*
X149583921Y-91004170D01*
X149569671Y-91023383D01*
X149553607Y-91041107D01*
X149535883Y-91057171D01*
X149516670Y-91071421D01*
X149496153Y-91083718D01*
X149474529Y-91093946D01*
X149452007Y-91102004D01*
X149428803Y-91107816D01*
X149405142Y-91111326D01*
X149381250Y-91112500D01*
X148468750Y-91112500D01*
X148444858Y-91111326D01*
X148421197Y-91107816D01*
X148397993Y-91102004D01*
X148375471Y-91093946D01*
X148353847Y-91083718D01*
X148333330Y-91071421D01*
X148314117Y-91057171D01*
X148296393Y-91041107D01*
X148280329Y-91023383D01*
X148266079Y-91004170D01*
X148253782Y-90983653D01*
X148243554Y-90962029D01*
X148235496Y-90939507D01*
X148229684Y-90916303D01*
X148226174Y-90892642D01*
X148225000Y-90868750D01*
X148225000Y-90381250D01*
X148226174Y-90357358D01*
X148229684Y-90333697D01*
X148235496Y-90310493D01*
X148243554Y-90287971D01*
X148253782Y-90266347D01*
X148266079Y-90245830D01*
X148280329Y-90226617D01*
X148296393Y-90208893D01*
X148314117Y-90192829D01*
X148333330Y-90178579D01*
X148353847Y-90166282D01*
X148375471Y-90156054D01*
X148397993Y-90147996D01*
X148421197Y-90142184D01*
X148444858Y-90138674D01*
X148468750Y-90137500D01*
X149381250Y-90137500D01*
X149405142Y-90138674D01*
X149405142Y-90138674D01*
G37*
D12*
G04 #@! TD*
G04 #@! TO.P,R16,2*
G04 #@! TO.N,/SEG1*
X148925000Y-90625000D03*
D11*
G04 #@! TO.N,+5V*
G04 #@! TO.C,R19*
G36*
X137255142Y-110213674D02*
X137278803Y-110217184D01*
X137302007Y-110222996D01*
X137324529Y-110231054D01*
X137346153Y-110241282D01*
X137366670Y-110253579D01*
X137385883Y-110267829D01*
X137403607Y-110283893D01*
X137419671Y-110301617D01*
X137433921Y-110320830D01*
X137446218Y-110341347D01*
X137456446Y-110362971D01*
X137464504Y-110385493D01*
X137470316Y-110408697D01*
X137473826Y-110432358D01*
X137475000Y-110456250D01*
X137475000Y-110943750D01*
X137473826Y-110967642D01*
X137470316Y-110991303D01*
X137464504Y-111014507D01*
X137456446Y-111037029D01*
X137446218Y-111058653D01*
X137433921Y-111079170D01*
X137419671Y-111098383D01*
X137403607Y-111116107D01*
X137385883Y-111132171D01*
X137366670Y-111146421D01*
X137346153Y-111158718D01*
X137324529Y-111168946D01*
X137302007Y-111177004D01*
X137278803Y-111182816D01*
X137255142Y-111186326D01*
X137231250Y-111187500D01*
X136318750Y-111187500D01*
X136294858Y-111186326D01*
X136271197Y-111182816D01*
X136247993Y-111177004D01*
X136225471Y-111168946D01*
X136203847Y-111158718D01*
X136183330Y-111146421D01*
X136164117Y-111132171D01*
X136146393Y-111116107D01*
X136130329Y-111098383D01*
X136116079Y-111079170D01*
X136103782Y-111058653D01*
X136093554Y-111037029D01*
X136085496Y-111014507D01*
X136079684Y-110991303D01*
X136076174Y-110967642D01*
X136075000Y-110943750D01*
X136075000Y-110456250D01*
X136076174Y-110432358D01*
X136079684Y-110408697D01*
X136085496Y-110385493D01*
X136093554Y-110362971D01*
X136103782Y-110341347D01*
X136116079Y-110320830D01*
X136130329Y-110301617D01*
X136146393Y-110283893D01*
X136164117Y-110267829D01*
X136183330Y-110253579D01*
X136203847Y-110241282D01*
X136225471Y-110231054D01*
X136247993Y-110222996D01*
X136271197Y-110217184D01*
X136294858Y-110213674D01*
X136318750Y-110212500D01*
X137231250Y-110212500D01*
X137255142Y-110213674D01*
X137255142Y-110213674D01*
G37*
D12*
G04 #@! TD*
G04 #@! TO.P,R19,1*
G04 #@! TO.N,+5V*
X136775000Y-110700000D03*
D11*
G04 #@! TO.N,Net-(Q2-Pad1)*
G04 #@! TO.C,R19*
G36*
X137255142Y-108338674D02*
X137278803Y-108342184D01*
X137302007Y-108347996D01*
X137324529Y-108356054D01*
X137346153Y-108366282D01*
X137366670Y-108378579D01*
X137385883Y-108392829D01*
X137403607Y-108408893D01*
X137419671Y-108426617D01*
X137433921Y-108445830D01*
X137446218Y-108466347D01*
X137456446Y-108487971D01*
X137464504Y-108510493D01*
X137470316Y-108533697D01*
X137473826Y-108557358D01*
X137475000Y-108581250D01*
X137475000Y-109068750D01*
X137473826Y-109092642D01*
X137470316Y-109116303D01*
X137464504Y-109139507D01*
X137456446Y-109162029D01*
X137446218Y-109183653D01*
X137433921Y-109204170D01*
X137419671Y-109223383D01*
X137403607Y-109241107D01*
X137385883Y-109257171D01*
X137366670Y-109271421D01*
X137346153Y-109283718D01*
X137324529Y-109293946D01*
X137302007Y-109302004D01*
X137278803Y-109307816D01*
X137255142Y-109311326D01*
X137231250Y-109312500D01*
X136318750Y-109312500D01*
X136294858Y-109311326D01*
X136271197Y-109307816D01*
X136247993Y-109302004D01*
X136225471Y-109293946D01*
X136203847Y-109283718D01*
X136183330Y-109271421D01*
X136164117Y-109257171D01*
X136146393Y-109241107D01*
X136130329Y-109223383D01*
X136116079Y-109204170D01*
X136103782Y-109183653D01*
X136093554Y-109162029D01*
X136085496Y-109139507D01*
X136079684Y-109116303D01*
X136076174Y-109092642D01*
X136075000Y-109068750D01*
X136075000Y-108581250D01*
X136076174Y-108557358D01*
X136079684Y-108533697D01*
X136085496Y-108510493D01*
X136093554Y-108487971D01*
X136103782Y-108466347D01*
X136116079Y-108445830D01*
X136130329Y-108426617D01*
X136146393Y-108408893D01*
X136164117Y-108392829D01*
X136183330Y-108378579D01*
X136203847Y-108366282D01*
X136225471Y-108356054D01*
X136247993Y-108347996D01*
X136271197Y-108342184D01*
X136294858Y-108338674D01*
X136318750Y-108337500D01*
X137231250Y-108337500D01*
X137255142Y-108338674D01*
X137255142Y-108338674D01*
G37*
D12*
G04 #@! TD*
G04 #@! TO.P,R19,2*
G04 #@! TO.N,Net-(Q2-Pad1)*
X136775000Y-108825000D03*
D11*
G04 #@! TO.N,GND*
G04 #@! TO.C,R15*
G36*
X157437642Y-72231174D02*
X157461303Y-72234684D01*
X157484507Y-72240496D01*
X157507029Y-72248554D01*
X157528653Y-72258782D01*
X157549170Y-72271079D01*
X157568383Y-72285329D01*
X157586107Y-72301393D01*
X157602171Y-72319117D01*
X157616421Y-72338330D01*
X157628718Y-72358847D01*
X157638946Y-72380471D01*
X157647004Y-72402993D01*
X157652816Y-72426197D01*
X157656326Y-72449858D01*
X157657500Y-72473750D01*
X157657500Y-73386250D01*
X157656326Y-73410142D01*
X157652816Y-73433803D01*
X157647004Y-73457007D01*
X157638946Y-73479529D01*
X157628718Y-73501153D01*
X157616421Y-73521670D01*
X157602171Y-73540883D01*
X157586107Y-73558607D01*
X157568383Y-73574671D01*
X157549170Y-73588921D01*
X157528653Y-73601218D01*
X157507029Y-73611446D01*
X157484507Y-73619504D01*
X157461303Y-73625316D01*
X157437642Y-73628826D01*
X157413750Y-73630000D01*
X156926250Y-73630000D01*
X156902358Y-73628826D01*
X156878697Y-73625316D01*
X156855493Y-73619504D01*
X156832971Y-73611446D01*
X156811347Y-73601218D01*
X156790830Y-73588921D01*
X156771617Y-73574671D01*
X156753893Y-73558607D01*
X156737829Y-73540883D01*
X156723579Y-73521670D01*
X156711282Y-73501153D01*
X156701054Y-73479529D01*
X156692996Y-73457007D01*
X156687184Y-73433803D01*
X156683674Y-73410142D01*
X156682500Y-73386250D01*
X156682500Y-72473750D01*
X156683674Y-72449858D01*
X156687184Y-72426197D01*
X156692996Y-72402993D01*
X156701054Y-72380471D01*
X156711282Y-72358847D01*
X156723579Y-72338330D01*
X156737829Y-72319117D01*
X156753893Y-72301393D01*
X156771617Y-72285329D01*
X156790830Y-72271079D01*
X156811347Y-72258782D01*
X156832971Y-72248554D01*
X156855493Y-72240496D01*
X156878697Y-72234684D01*
X156902358Y-72231174D01*
X156926250Y-72230000D01*
X157413750Y-72230000D01*
X157437642Y-72231174D01*
X157437642Y-72231174D01*
G37*
D12*
G04 #@! TD*
G04 #@! TO.P,R15,2*
G04 #@! TO.N,GND*
X157170000Y-72930000D03*
D11*
G04 #@! TO.N,Net-(R15-Pad1)*
G04 #@! TO.C,R15*
G36*
X155562642Y-72231174D02*
X155586303Y-72234684D01*
X155609507Y-72240496D01*
X155632029Y-72248554D01*
X155653653Y-72258782D01*
X155674170Y-72271079D01*
X155693383Y-72285329D01*
X155711107Y-72301393D01*
X155727171Y-72319117D01*
X155741421Y-72338330D01*
X155753718Y-72358847D01*
X155763946Y-72380471D01*
X155772004Y-72402993D01*
X155777816Y-72426197D01*
X155781326Y-72449858D01*
X155782500Y-72473750D01*
X155782500Y-73386250D01*
X155781326Y-73410142D01*
X155777816Y-73433803D01*
X155772004Y-73457007D01*
X155763946Y-73479529D01*
X155753718Y-73501153D01*
X155741421Y-73521670D01*
X155727171Y-73540883D01*
X155711107Y-73558607D01*
X155693383Y-73574671D01*
X155674170Y-73588921D01*
X155653653Y-73601218D01*
X155632029Y-73611446D01*
X155609507Y-73619504D01*
X155586303Y-73625316D01*
X155562642Y-73628826D01*
X155538750Y-73630000D01*
X155051250Y-73630000D01*
X155027358Y-73628826D01*
X155003697Y-73625316D01*
X154980493Y-73619504D01*
X154957971Y-73611446D01*
X154936347Y-73601218D01*
X154915830Y-73588921D01*
X154896617Y-73574671D01*
X154878893Y-73558607D01*
X154862829Y-73540883D01*
X154848579Y-73521670D01*
X154836282Y-73501153D01*
X154826054Y-73479529D01*
X154817996Y-73457007D01*
X154812184Y-73433803D01*
X154808674Y-73410142D01*
X154807500Y-73386250D01*
X154807500Y-72473750D01*
X154808674Y-72449858D01*
X154812184Y-72426197D01*
X154817996Y-72402993D01*
X154826054Y-72380471D01*
X154836282Y-72358847D01*
X154848579Y-72338330D01*
X154862829Y-72319117D01*
X154878893Y-72301393D01*
X154896617Y-72285329D01*
X154915830Y-72271079D01*
X154936347Y-72258782D01*
X154957971Y-72248554D01*
X154980493Y-72240496D01*
X155003697Y-72234684D01*
X155027358Y-72231174D01*
X155051250Y-72230000D01*
X155538750Y-72230000D01*
X155562642Y-72231174D01*
X155562642Y-72231174D01*
G37*
D12*
G04 #@! TD*
G04 #@! TO.P,R15,1*
G04 #@! TO.N,Net-(R15-Pad1)*
X155295000Y-72930000D03*
D13*
G04 #@! TO.P,Q5,3*
G04 #@! TO.N,Net-(Q5-Pad3)*
X141450000Y-108300000D03*
G04 #@! TO.P,Q5,2*
G04 #@! TO.N,GND*
X142400000Y-106300000D03*
G04 #@! TO.P,Q5,1*
G04 #@! TO.N,Net-(Q5-Pad1)*
X140500000Y-106300000D03*
G04 #@! TD*
D14*
G04 #@! TO.P,U6,10*
G04 #@! TO.N,Net-(R14-Pad1)*
X151300001Y-70860001D03*
G04 #@! TO.P,U6,9*
G04 #@! TO.N,Net-(R13-Pad1)*
X153840001Y-70860001D03*
G04 #@! TO.P,U6,8*
G04 #@! TO.N,Net-(R15-Pad1)*
X156380001Y-70860001D03*
G04 #@! TO.P,U6,7*
G04 #@! TO.N,Net-(R8-Pad1)*
X158920001Y-70860001D03*
G04 #@! TO.P,U6,6*
G04 #@! TO.N,Net-(R9-Pad1)*
X161460001Y-70860001D03*
G04 #@! TO.P,U6,5*
G04 #@! TO.N,Net-(Q3-Pad3)*
X161460001Y-111460001D03*
G04 #@! TO.P,U6,4*
G04 #@! TO.N,Net-(R10-Pad1)*
X158920001Y-111460001D03*
G04 #@! TO.P,U6,3*
G04 #@! TO.N,Net-(R11-Pad1)*
X156380001Y-111460001D03*
G04 #@! TO.P,U6,2*
G04 #@! TO.N,Net-(R12-Pad1)*
X153840001Y-111460001D03*
D15*
G04 #@! TO.P,U6,1*
G04 #@! TO.N,Net-(Q3-Pad3)*
X151300001Y-111460001D03*
G04 #@! TD*
D16*
G04 #@! TO.P,D4,1*
G04 #@! TO.N,/LED3*
X185800000Y-118200000D03*
D17*
G04 #@! TO.P,D4,2*
G04 #@! TO.N,Net-(D4-Pad2)*
X188340000Y-118200000D03*
G04 #@! TD*
D18*
G04 #@! TO.P,J1,1*
G04 #@! TO.N,/RESET*
X191885000Y-98250000D03*
D19*
G04 #@! TO.P,J1,2*
G04 #@! TO.N,N/C*
X191885000Y-95480000D03*
G04 #@! TO.P,J1,3*
G04 #@! TO.N,GND*
X191885000Y-92710000D03*
G04 #@! TO.P,J1,4*
G04 #@! TO.N,/CAN_L*
X191885000Y-89940000D03*
G04 #@! TO.P,J1,5*
G04 #@! TO.N,/SWDIO*
X191885000Y-87170000D03*
G04 #@! TO.P,J1,6*
G04 #@! TO.N,+5V*
X194725000Y-96865000D03*
G04 #@! TO.P,J1,7*
G04 #@! TO.N,N/C*
X194725000Y-94095000D03*
G04 #@! TO.P,J1,8*
G04 #@! TO.N,/CAN_H*
X194725000Y-91325000D03*
G04 #@! TO.P,J1,9*
G04 #@! TO.N,/SWCLK*
X194725000Y-88555000D03*
D20*
G04 #@! TO.P,J1,0*
G04 #@! TO.N,N/C*
X193305000Y-80210000D03*
X193305000Y-105210000D03*
G04 #@! TD*
D11*
G04 #@! TO.N,+5V*
G04 #@! TO.C,C9*
G36*
X131680142Y-96926174D02*
X131703803Y-96929684D01*
X131727007Y-96935496D01*
X131749529Y-96943554D01*
X131771153Y-96953782D01*
X131791670Y-96966079D01*
X131810883Y-96980329D01*
X131828607Y-96996393D01*
X131844671Y-97014117D01*
X131858921Y-97033330D01*
X131871218Y-97053847D01*
X131881446Y-97075471D01*
X131889504Y-97097993D01*
X131895316Y-97121197D01*
X131898826Y-97144858D01*
X131900000Y-97168750D01*
X131900000Y-98081250D01*
X131898826Y-98105142D01*
X131895316Y-98128803D01*
X131889504Y-98152007D01*
X131881446Y-98174529D01*
X131871218Y-98196153D01*
X131858921Y-98216670D01*
X131844671Y-98235883D01*
X131828607Y-98253607D01*
X131810883Y-98269671D01*
X131791670Y-98283921D01*
X131771153Y-98296218D01*
X131749529Y-98306446D01*
X131727007Y-98314504D01*
X131703803Y-98320316D01*
X131680142Y-98323826D01*
X131656250Y-98325000D01*
X131168750Y-98325000D01*
X131144858Y-98323826D01*
X131121197Y-98320316D01*
X131097993Y-98314504D01*
X131075471Y-98306446D01*
X131053847Y-98296218D01*
X131033330Y-98283921D01*
X131014117Y-98269671D01*
X130996393Y-98253607D01*
X130980329Y-98235883D01*
X130966079Y-98216670D01*
X130953782Y-98196153D01*
X130943554Y-98174529D01*
X130935496Y-98152007D01*
X130929684Y-98128803D01*
X130926174Y-98105142D01*
X130925000Y-98081250D01*
X130925000Y-97168750D01*
X130926174Y-97144858D01*
X130929684Y-97121197D01*
X130935496Y-97097993D01*
X130943554Y-97075471D01*
X130953782Y-97053847D01*
X130966079Y-97033330D01*
X130980329Y-97014117D01*
X130996393Y-96996393D01*
X131014117Y-96980329D01*
X131033330Y-96966079D01*
X131053847Y-96953782D01*
X131075471Y-96943554D01*
X131097993Y-96935496D01*
X131121197Y-96929684D01*
X131144858Y-96926174D01*
X131168750Y-96925000D01*
X131656250Y-96925000D01*
X131680142Y-96926174D01*
X131680142Y-96926174D01*
G37*
D12*
G04 #@! TD*
G04 #@! TO.P,C9,1*
G04 #@! TO.N,+5V*
X131412500Y-97625000D03*
D11*
G04 #@! TO.N,GND*
G04 #@! TO.C,C9*
G36*
X133555142Y-96926174D02*
X133578803Y-96929684D01*
X133602007Y-96935496D01*
X133624529Y-96943554D01*
X133646153Y-96953782D01*
X133666670Y-96966079D01*
X133685883Y-96980329D01*
X133703607Y-96996393D01*
X133719671Y-97014117D01*
X133733921Y-97033330D01*
X133746218Y-97053847D01*
X133756446Y-97075471D01*
X133764504Y-97097993D01*
X133770316Y-97121197D01*
X133773826Y-97144858D01*
X133775000Y-97168750D01*
X133775000Y-98081250D01*
X133773826Y-98105142D01*
X133770316Y-98128803D01*
X133764504Y-98152007D01*
X133756446Y-98174529D01*
X133746218Y-98196153D01*
X133733921Y-98216670D01*
X133719671Y-98235883D01*
X133703607Y-98253607D01*
X133685883Y-98269671D01*
X133666670Y-98283921D01*
X133646153Y-98296218D01*
X133624529Y-98306446D01*
X133602007Y-98314504D01*
X133578803Y-98320316D01*
X133555142Y-98323826D01*
X133531250Y-98325000D01*
X133043750Y-98325000D01*
X133019858Y-98323826D01*
X132996197Y-98320316D01*
X132972993Y-98314504D01*
X132950471Y-98306446D01*
X132928847Y-98296218D01*
X132908330Y-98283921D01*
X132889117Y-98269671D01*
X132871393Y-98253607D01*
X132855329Y-98235883D01*
X132841079Y-98216670D01*
X132828782Y-98196153D01*
X132818554Y-98174529D01*
X132810496Y-98152007D01*
X132804684Y-98128803D01*
X132801174Y-98105142D01*
X132800000Y-98081250D01*
X132800000Y-97168750D01*
X132801174Y-97144858D01*
X132804684Y-97121197D01*
X132810496Y-97097993D01*
X132818554Y-97075471D01*
X132828782Y-97053847D01*
X132841079Y-97033330D01*
X132855329Y-97014117D01*
X132871393Y-96996393D01*
X132889117Y-96980329D01*
X132908330Y-96966079D01*
X132928847Y-96953782D01*
X132950471Y-96943554D01*
X132972993Y-96935496D01*
X132996197Y-96929684D01*
X133019858Y-96926174D01*
X133043750Y-96925000D01*
X133531250Y-96925000D01*
X133555142Y-96926174D01*
X133555142Y-96926174D01*
G37*
D12*
G04 #@! TD*
G04 #@! TO.P,C9,2*
G04 #@! TO.N,GND*
X133287500Y-97625000D03*
D11*
G04 #@! TO.N,Net-(R11-Pad2)*
G04 #@! TO.C,R11*
G36*
X125930142Y-105338674D02*
X125953803Y-105342184D01*
X125977007Y-105347996D01*
X125999529Y-105356054D01*
X126021153Y-105366282D01*
X126041670Y-105378579D01*
X126060883Y-105392829D01*
X126078607Y-105408893D01*
X126094671Y-105426617D01*
X126108921Y-105445830D01*
X126121218Y-105466347D01*
X126131446Y-105487971D01*
X126139504Y-105510493D01*
X126145316Y-105533697D01*
X126148826Y-105557358D01*
X126150000Y-105581250D01*
X126150000Y-106068750D01*
X126148826Y-106092642D01*
X126145316Y-106116303D01*
X126139504Y-106139507D01*
X126131446Y-106162029D01*
X126121218Y-106183653D01*
X126108921Y-106204170D01*
X126094671Y-106223383D01*
X126078607Y-106241107D01*
X126060883Y-106257171D01*
X126041670Y-106271421D01*
X126021153Y-106283718D01*
X125999529Y-106293946D01*
X125977007Y-106302004D01*
X125953803Y-106307816D01*
X125930142Y-106311326D01*
X125906250Y-106312500D01*
X124993750Y-106312500D01*
X124969858Y-106311326D01*
X124946197Y-106307816D01*
X124922993Y-106302004D01*
X124900471Y-106293946D01*
X124878847Y-106283718D01*
X124858330Y-106271421D01*
X124839117Y-106257171D01*
X124821393Y-106241107D01*
X124805329Y-106223383D01*
X124791079Y-106204170D01*
X124778782Y-106183653D01*
X124768554Y-106162029D01*
X124760496Y-106139507D01*
X124754684Y-106116303D01*
X124751174Y-106092642D01*
X124750000Y-106068750D01*
X124750000Y-105581250D01*
X124751174Y-105557358D01*
X124754684Y-105533697D01*
X124760496Y-105510493D01*
X124768554Y-105487971D01*
X124778782Y-105466347D01*
X124791079Y-105445830D01*
X124805329Y-105426617D01*
X124821393Y-105408893D01*
X124839117Y-105392829D01*
X124858330Y-105378579D01*
X124878847Y-105366282D01*
X124900471Y-105356054D01*
X124922993Y-105347996D01*
X124946197Y-105342184D01*
X124969858Y-105338674D01*
X124993750Y-105337500D01*
X125906250Y-105337500D01*
X125930142Y-105338674D01*
X125930142Y-105338674D01*
G37*
D12*
G04 #@! TD*
G04 #@! TO.P,R11,2*
G04 #@! TO.N,Net-(R11-Pad2)*
X125450000Y-105825000D03*
D11*
G04 #@! TO.N,Net-(R11-Pad1)*
G04 #@! TO.C,R11*
G36*
X125930142Y-107213674D02*
X125953803Y-107217184D01*
X125977007Y-107222996D01*
X125999529Y-107231054D01*
X126021153Y-107241282D01*
X126041670Y-107253579D01*
X126060883Y-107267829D01*
X126078607Y-107283893D01*
X126094671Y-107301617D01*
X126108921Y-107320830D01*
X126121218Y-107341347D01*
X126131446Y-107362971D01*
X126139504Y-107385493D01*
X126145316Y-107408697D01*
X126148826Y-107432358D01*
X126150000Y-107456250D01*
X126150000Y-107943750D01*
X126148826Y-107967642D01*
X126145316Y-107991303D01*
X126139504Y-108014507D01*
X126131446Y-108037029D01*
X126121218Y-108058653D01*
X126108921Y-108079170D01*
X126094671Y-108098383D01*
X126078607Y-108116107D01*
X126060883Y-108132171D01*
X126041670Y-108146421D01*
X126021153Y-108158718D01*
X125999529Y-108168946D01*
X125977007Y-108177004D01*
X125953803Y-108182816D01*
X125930142Y-108186326D01*
X125906250Y-108187500D01*
X124993750Y-108187500D01*
X124969858Y-108186326D01*
X124946197Y-108182816D01*
X124922993Y-108177004D01*
X124900471Y-108168946D01*
X124878847Y-108158718D01*
X124858330Y-108146421D01*
X124839117Y-108132171D01*
X124821393Y-108116107D01*
X124805329Y-108098383D01*
X124791079Y-108079170D01*
X124778782Y-108058653D01*
X124768554Y-108037029D01*
X124760496Y-108014507D01*
X124754684Y-107991303D01*
X124751174Y-107967642D01*
X124750000Y-107943750D01*
X124750000Y-107456250D01*
X124751174Y-107432358D01*
X124754684Y-107408697D01*
X124760496Y-107385493D01*
X124768554Y-107362971D01*
X124778782Y-107341347D01*
X124791079Y-107320830D01*
X124805329Y-107301617D01*
X124821393Y-107283893D01*
X124839117Y-107267829D01*
X124858330Y-107253579D01*
X124878847Y-107241282D01*
X124900471Y-107231054D01*
X124922993Y-107222996D01*
X124946197Y-107217184D01*
X124969858Y-107213674D01*
X124993750Y-107212500D01*
X125906250Y-107212500D01*
X125930142Y-107213674D01*
X125930142Y-107213674D01*
G37*
D12*
G04 #@! TD*
G04 #@! TO.P,R11,1*
G04 #@! TO.N,Net-(R11-Pad1)*
X125450000Y-107700000D03*
D21*
G04 #@! TO.P,U4,1*
G04 #@! TO.N,/B*
X133000000Y-86880000D03*
G04 #@! TO.P,U4,2*
G04 #@! TO.N,/C*
X133000000Y-88150000D03*
G04 #@! TO.P,U4,3*
G04 #@! TO.N,+5V*
X133000000Y-89420000D03*
G04 #@! TO.P,U4,4*
G04 #@! TO.N,Net-(R6-Pad1)*
X133000000Y-90690000D03*
G04 #@! TO.P,U4,5*
G04 #@! TO.N,+5V*
X133000000Y-91960000D03*
G04 #@! TO.P,U4,6*
G04 #@! TO.N,/D*
X133000000Y-93230000D03*
G04 #@! TO.P,U4,7*
G04 #@! TO.N,/A*
X133000000Y-94500000D03*
G04 #@! TO.P,U4,8*
G04 #@! TO.N,GND*
X133000000Y-95770000D03*
G04 #@! TO.P,U4,9*
G04 #@! TO.N,Net-(R12-Pad2)*
X127600000Y-95770000D03*
G04 #@! TO.P,U4,10*
G04 #@! TO.N,Net-(R11-Pad2)*
X127600000Y-94500000D03*
G04 #@! TO.P,U4,11*
G04 #@! TO.N,Net-(R10-Pad2)*
X127600000Y-93230000D03*
G04 #@! TO.P,U4,12*
G04 #@! TO.N,Net-(R9-Pad2)*
X127600000Y-91960000D03*
G04 #@! TO.P,U4,13*
G04 #@! TO.N,Net-(R8-Pad2)*
X127600000Y-90690000D03*
G04 #@! TO.P,U4,14*
G04 #@! TO.N,Net-(R14-Pad2)*
X127600000Y-89420000D03*
G04 #@! TO.P,U4,15*
G04 #@! TO.N,Net-(R13-Pad2)*
X127600000Y-88150000D03*
G04 #@! TO.P,U4,16*
G04 #@! TO.N,+5V*
X127600000Y-86880000D03*
G04 #@! TD*
D11*
G04 #@! TO.N,Net-(R12-Pad1)*
G04 #@! TO.C,R12*
G36*
X123430142Y-107238674D02*
X123453803Y-107242184D01*
X123477007Y-107247996D01*
X123499529Y-107256054D01*
X123521153Y-107266282D01*
X123541670Y-107278579D01*
X123560883Y-107292829D01*
X123578607Y-107308893D01*
X123594671Y-107326617D01*
X123608921Y-107345830D01*
X123621218Y-107366347D01*
X123631446Y-107387971D01*
X123639504Y-107410493D01*
X123645316Y-107433697D01*
X123648826Y-107457358D01*
X123650000Y-107481250D01*
X123650000Y-107968750D01*
X123648826Y-107992642D01*
X123645316Y-108016303D01*
X123639504Y-108039507D01*
X123631446Y-108062029D01*
X123621218Y-108083653D01*
X123608921Y-108104170D01*
X123594671Y-108123383D01*
X123578607Y-108141107D01*
X123560883Y-108157171D01*
X123541670Y-108171421D01*
X123521153Y-108183718D01*
X123499529Y-108193946D01*
X123477007Y-108202004D01*
X123453803Y-108207816D01*
X123430142Y-108211326D01*
X123406250Y-108212500D01*
X122493750Y-108212500D01*
X122469858Y-108211326D01*
X122446197Y-108207816D01*
X122422993Y-108202004D01*
X122400471Y-108193946D01*
X122378847Y-108183718D01*
X122358330Y-108171421D01*
X122339117Y-108157171D01*
X122321393Y-108141107D01*
X122305329Y-108123383D01*
X122291079Y-108104170D01*
X122278782Y-108083653D01*
X122268554Y-108062029D01*
X122260496Y-108039507D01*
X122254684Y-108016303D01*
X122251174Y-107992642D01*
X122250000Y-107968750D01*
X122250000Y-107481250D01*
X122251174Y-107457358D01*
X122254684Y-107433697D01*
X122260496Y-107410493D01*
X122268554Y-107387971D01*
X122278782Y-107366347D01*
X122291079Y-107345830D01*
X122305329Y-107326617D01*
X122321393Y-107308893D01*
X122339117Y-107292829D01*
X122358330Y-107278579D01*
X122378847Y-107266282D01*
X122400471Y-107256054D01*
X122422993Y-107247996D01*
X122446197Y-107242184D01*
X122469858Y-107238674D01*
X122493750Y-107237500D01*
X123406250Y-107237500D01*
X123430142Y-107238674D01*
X123430142Y-107238674D01*
G37*
D12*
G04 #@! TD*
G04 #@! TO.P,R12,1*
G04 #@! TO.N,Net-(R12-Pad1)*
X122950000Y-107725000D03*
D11*
G04 #@! TO.N,Net-(R12-Pad2)*
G04 #@! TO.C,R12*
G36*
X123430142Y-105363674D02*
X123453803Y-105367184D01*
X123477007Y-105372996D01*
X123499529Y-105381054D01*
X123521153Y-105391282D01*
X123541670Y-105403579D01*
X123560883Y-105417829D01*
X123578607Y-105433893D01*
X123594671Y-105451617D01*
X123608921Y-105470830D01*
X123621218Y-105491347D01*
X123631446Y-105512971D01*
X123639504Y-105535493D01*
X123645316Y-105558697D01*
X123648826Y-105582358D01*
X123650000Y-105606250D01*
X123650000Y-106093750D01*
X123648826Y-106117642D01*
X123645316Y-106141303D01*
X123639504Y-106164507D01*
X123631446Y-106187029D01*
X123621218Y-106208653D01*
X123608921Y-106229170D01*
X123594671Y-106248383D01*
X123578607Y-106266107D01*
X123560883Y-106282171D01*
X123541670Y-106296421D01*
X123521153Y-106308718D01*
X123499529Y-106318946D01*
X123477007Y-106327004D01*
X123453803Y-106332816D01*
X123430142Y-106336326D01*
X123406250Y-106337500D01*
X122493750Y-106337500D01*
X122469858Y-106336326D01*
X122446197Y-106332816D01*
X122422993Y-106327004D01*
X122400471Y-106318946D01*
X122378847Y-106308718D01*
X122358330Y-106296421D01*
X122339117Y-106282171D01*
X122321393Y-106266107D01*
X122305329Y-106248383D01*
X122291079Y-106229170D01*
X122278782Y-106208653D01*
X122268554Y-106187029D01*
X122260496Y-106164507D01*
X122254684Y-106141303D01*
X122251174Y-106117642D01*
X122250000Y-106093750D01*
X122250000Y-105606250D01*
X122251174Y-105582358D01*
X122254684Y-105558697D01*
X122260496Y-105535493D01*
X122268554Y-105512971D01*
X122278782Y-105491347D01*
X122291079Y-105470830D01*
X122305329Y-105451617D01*
X122321393Y-105433893D01*
X122339117Y-105417829D01*
X122358330Y-105403579D01*
X122378847Y-105391282D01*
X122400471Y-105381054D01*
X122422993Y-105372996D01*
X122446197Y-105367184D01*
X122469858Y-105363674D01*
X122493750Y-105362500D01*
X123406250Y-105362500D01*
X123430142Y-105363674D01*
X123430142Y-105363674D01*
G37*
D12*
G04 #@! TD*
G04 #@! TO.P,R12,2*
G04 #@! TO.N,Net-(R12-Pad2)*
X122950000Y-105850000D03*
D11*
G04 #@! TO.N,+3V3*
G04 #@! TO.C,R5*
G36*
X150297642Y-79451174D02*
X150321303Y-79454684D01*
X150344507Y-79460496D01*
X150367029Y-79468554D01*
X150388653Y-79478782D01*
X150409170Y-79491079D01*
X150428383Y-79505329D01*
X150446107Y-79521393D01*
X150462171Y-79539117D01*
X150476421Y-79558330D01*
X150488718Y-79578847D01*
X150498946Y-79600471D01*
X150507004Y-79622993D01*
X150512816Y-79646197D01*
X150516326Y-79669858D01*
X150517500Y-79693750D01*
X150517500Y-80606250D01*
X150516326Y-80630142D01*
X150512816Y-80653803D01*
X150507004Y-80677007D01*
X150498946Y-80699529D01*
X150488718Y-80721153D01*
X150476421Y-80741670D01*
X150462171Y-80760883D01*
X150446107Y-80778607D01*
X150428383Y-80794671D01*
X150409170Y-80808921D01*
X150388653Y-80821218D01*
X150367029Y-80831446D01*
X150344507Y-80839504D01*
X150321303Y-80845316D01*
X150297642Y-80848826D01*
X150273750Y-80850000D01*
X149786250Y-80850000D01*
X149762358Y-80848826D01*
X149738697Y-80845316D01*
X149715493Y-80839504D01*
X149692971Y-80831446D01*
X149671347Y-80821218D01*
X149650830Y-80808921D01*
X149631617Y-80794671D01*
X149613893Y-80778607D01*
X149597829Y-80760883D01*
X149583579Y-80741670D01*
X149571282Y-80721153D01*
X149561054Y-80699529D01*
X149552996Y-80677007D01*
X149547184Y-80653803D01*
X149543674Y-80630142D01*
X149542500Y-80606250D01*
X149542500Y-79693750D01*
X149543674Y-79669858D01*
X149547184Y-79646197D01*
X149552996Y-79622993D01*
X149561054Y-79600471D01*
X149571282Y-79578847D01*
X149583579Y-79558330D01*
X149597829Y-79539117D01*
X149613893Y-79521393D01*
X149631617Y-79505329D01*
X149650830Y-79491079D01*
X149671347Y-79478782D01*
X149692971Y-79468554D01*
X149715493Y-79460496D01*
X149738697Y-79454684D01*
X149762358Y-79451174D01*
X149786250Y-79450000D01*
X150273750Y-79450000D01*
X150297642Y-79451174D01*
X150297642Y-79451174D01*
G37*
D12*
G04 #@! TD*
G04 #@! TO.P,R5,1*
G04 #@! TO.N,+3V3*
X150030000Y-80150000D03*
D11*
G04 #@! TO.N,/RESET*
G04 #@! TO.C,R5*
G36*
X152172642Y-79451174D02*
X152196303Y-79454684D01*
X152219507Y-79460496D01*
X152242029Y-79468554D01*
X152263653Y-79478782D01*
X152284170Y-79491079D01*
X152303383Y-79505329D01*
X152321107Y-79521393D01*
X152337171Y-79539117D01*
X152351421Y-79558330D01*
X152363718Y-79578847D01*
X152373946Y-79600471D01*
X152382004Y-79622993D01*
X152387816Y-79646197D01*
X152391326Y-79669858D01*
X152392500Y-79693750D01*
X152392500Y-80606250D01*
X152391326Y-80630142D01*
X152387816Y-80653803D01*
X152382004Y-80677007D01*
X152373946Y-80699529D01*
X152363718Y-80721153D01*
X152351421Y-80741670D01*
X152337171Y-80760883D01*
X152321107Y-80778607D01*
X152303383Y-80794671D01*
X152284170Y-80808921D01*
X152263653Y-80821218D01*
X152242029Y-80831446D01*
X152219507Y-80839504D01*
X152196303Y-80845316D01*
X152172642Y-80848826D01*
X152148750Y-80850000D01*
X151661250Y-80850000D01*
X151637358Y-80848826D01*
X151613697Y-80845316D01*
X151590493Y-80839504D01*
X151567971Y-80831446D01*
X151546347Y-80821218D01*
X151525830Y-80808921D01*
X151506617Y-80794671D01*
X151488893Y-80778607D01*
X151472829Y-80760883D01*
X151458579Y-80741670D01*
X151446282Y-80721153D01*
X151436054Y-80699529D01*
X151427996Y-80677007D01*
X151422184Y-80653803D01*
X151418674Y-80630142D01*
X151417500Y-80606250D01*
X151417500Y-79693750D01*
X151418674Y-79669858D01*
X151422184Y-79646197D01*
X151427996Y-79622993D01*
X151436054Y-79600471D01*
X151446282Y-79578847D01*
X151458579Y-79558330D01*
X151472829Y-79539117D01*
X151488893Y-79521393D01*
X151506617Y-79505329D01*
X151525830Y-79491079D01*
X151546347Y-79478782D01*
X151567971Y-79468554D01*
X151590493Y-79460496D01*
X151613697Y-79454684D01*
X151637358Y-79451174D01*
X151661250Y-79450000D01*
X152148750Y-79450000D01*
X152172642Y-79451174D01*
X152172642Y-79451174D01*
G37*
D12*
G04 #@! TD*
G04 #@! TO.P,R5,2*
G04 #@! TO.N,/RESET*
X151905000Y-80150000D03*
D11*
G04 #@! TO.N,Net-(Q2-Pad1)*
G04 #@! TO.C,R20*
G36*
X139530142Y-108238674D02*
X139553803Y-108242184D01*
X139577007Y-108247996D01*
X139599529Y-108256054D01*
X139621153Y-108266282D01*
X139641670Y-108278579D01*
X139660883Y-108292829D01*
X139678607Y-108308893D01*
X139694671Y-108326617D01*
X139708921Y-108345830D01*
X139721218Y-108366347D01*
X139731446Y-108387971D01*
X139739504Y-108410493D01*
X139745316Y-108433697D01*
X139748826Y-108457358D01*
X139750000Y-108481250D01*
X139750000Y-108968750D01*
X139748826Y-108992642D01*
X139745316Y-109016303D01*
X139739504Y-109039507D01*
X139731446Y-109062029D01*
X139721218Y-109083653D01*
X139708921Y-109104170D01*
X139694671Y-109123383D01*
X139678607Y-109141107D01*
X139660883Y-109157171D01*
X139641670Y-109171421D01*
X139621153Y-109183718D01*
X139599529Y-109193946D01*
X139577007Y-109202004D01*
X139553803Y-109207816D01*
X139530142Y-109211326D01*
X139506250Y-109212500D01*
X138593750Y-109212500D01*
X138569858Y-109211326D01*
X138546197Y-109207816D01*
X138522993Y-109202004D01*
X138500471Y-109193946D01*
X138478847Y-109183718D01*
X138458330Y-109171421D01*
X138439117Y-109157171D01*
X138421393Y-109141107D01*
X138405329Y-109123383D01*
X138391079Y-109104170D01*
X138378782Y-109083653D01*
X138368554Y-109062029D01*
X138360496Y-109039507D01*
X138354684Y-109016303D01*
X138351174Y-108992642D01*
X138350000Y-108968750D01*
X138350000Y-108481250D01*
X138351174Y-108457358D01*
X138354684Y-108433697D01*
X138360496Y-108410493D01*
X138368554Y-108387971D01*
X138378782Y-108366347D01*
X138391079Y-108345830D01*
X138405329Y-108326617D01*
X138421393Y-108308893D01*
X138439117Y-108292829D01*
X138458330Y-108278579D01*
X138478847Y-108266282D01*
X138500471Y-108256054D01*
X138522993Y-108247996D01*
X138546197Y-108242184D01*
X138569858Y-108238674D01*
X138593750Y-108237500D01*
X139506250Y-108237500D01*
X139530142Y-108238674D01*
X139530142Y-108238674D01*
G37*
D12*
G04 #@! TD*
G04 #@! TO.P,R20,2*
G04 #@! TO.N,Net-(Q2-Pad1)*
X139050000Y-108725000D03*
D11*
G04 #@! TO.N,Net-(Q5-Pad3)*
G04 #@! TO.C,R20*
G36*
X139530142Y-110113674D02*
X139553803Y-110117184D01*
X139577007Y-110122996D01*
X139599529Y-110131054D01*
X139621153Y-110141282D01*
X139641670Y-110153579D01*
X139660883Y-110167829D01*
X139678607Y-110183893D01*
X139694671Y-110201617D01*
X139708921Y-110220830D01*
X139721218Y-110241347D01*
X139731446Y-110262971D01*
X139739504Y-110285493D01*
X139745316Y-110308697D01*
X139748826Y-110332358D01*
X139750000Y-110356250D01*
X139750000Y-110843750D01*
X139748826Y-110867642D01*
X139745316Y-110891303D01*
X139739504Y-110914507D01*
X139731446Y-110937029D01*
X139721218Y-110958653D01*
X139708921Y-110979170D01*
X139694671Y-110998383D01*
X139678607Y-111016107D01*
X139660883Y-111032171D01*
X139641670Y-111046421D01*
X139621153Y-111058718D01*
X139599529Y-111068946D01*
X139577007Y-111077004D01*
X139553803Y-111082816D01*
X139530142Y-111086326D01*
X139506250Y-111087500D01*
X138593750Y-111087500D01*
X138569858Y-111086326D01*
X138546197Y-111082816D01*
X138522993Y-111077004D01*
X138500471Y-111068946D01*
X138478847Y-111058718D01*
X138458330Y-111046421D01*
X138439117Y-111032171D01*
X138421393Y-111016107D01*
X138405329Y-110998383D01*
X138391079Y-110979170D01*
X138378782Y-110958653D01*
X138368554Y-110937029D01*
X138360496Y-110914507D01*
X138354684Y-110891303D01*
X138351174Y-110867642D01*
X138350000Y-110843750D01*
X138350000Y-110356250D01*
X138351174Y-110332358D01*
X138354684Y-110308697D01*
X138360496Y-110285493D01*
X138368554Y-110262971D01*
X138378782Y-110241347D01*
X138391079Y-110220830D01*
X138405329Y-110201617D01*
X138421393Y-110183893D01*
X138439117Y-110167829D01*
X138458330Y-110153579D01*
X138478847Y-110141282D01*
X138500471Y-110131054D01*
X138522993Y-110122996D01*
X138546197Y-110117184D01*
X138569858Y-110113674D01*
X138593750Y-110112500D01*
X139506250Y-110112500D01*
X139530142Y-110113674D01*
X139530142Y-110113674D01*
G37*
D12*
G04 #@! TD*
G04 #@! TO.P,R20,1*
G04 #@! TO.N,Net-(Q5-Pad3)*
X139050000Y-110600000D03*
D11*
G04 #@! TO.N,Net-(R13-Pad2)*
G04 #@! TO.C,R13*
G36*
X123450142Y-78418674D02*
X123473803Y-78422184D01*
X123497007Y-78427996D01*
X123519529Y-78436054D01*
X123541153Y-78446282D01*
X123561670Y-78458579D01*
X123580883Y-78472829D01*
X123598607Y-78488893D01*
X123614671Y-78506617D01*
X123628921Y-78525830D01*
X123641218Y-78546347D01*
X123651446Y-78567971D01*
X123659504Y-78590493D01*
X123665316Y-78613697D01*
X123668826Y-78637358D01*
X123670000Y-78661250D01*
X123670000Y-79148750D01*
X123668826Y-79172642D01*
X123665316Y-79196303D01*
X123659504Y-79219507D01*
X123651446Y-79242029D01*
X123641218Y-79263653D01*
X123628921Y-79284170D01*
X123614671Y-79303383D01*
X123598607Y-79321107D01*
X123580883Y-79337171D01*
X123561670Y-79351421D01*
X123541153Y-79363718D01*
X123519529Y-79373946D01*
X123497007Y-79382004D01*
X123473803Y-79387816D01*
X123450142Y-79391326D01*
X123426250Y-79392500D01*
X122513750Y-79392500D01*
X122489858Y-79391326D01*
X122466197Y-79387816D01*
X122442993Y-79382004D01*
X122420471Y-79373946D01*
X122398847Y-79363718D01*
X122378330Y-79351421D01*
X122359117Y-79337171D01*
X122341393Y-79321107D01*
X122325329Y-79303383D01*
X122311079Y-79284170D01*
X122298782Y-79263653D01*
X122288554Y-79242029D01*
X122280496Y-79219507D01*
X122274684Y-79196303D01*
X122271174Y-79172642D01*
X122270000Y-79148750D01*
X122270000Y-78661250D01*
X122271174Y-78637358D01*
X122274684Y-78613697D01*
X122280496Y-78590493D01*
X122288554Y-78567971D01*
X122298782Y-78546347D01*
X122311079Y-78525830D01*
X122325329Y-78506617D01*
X122341393Y-78488893D01*
X122359117Y-78472829D01*
X122378330Y-78458579D01*
X122398847Y-78446282D01*
X122420471Y-78436054D01*
X122442993Y-78427996D01*
X122466197Y-78422184D01*
X122489858Y-78418674D01*
X122513750Y-78417500D01*
X123426250Y-78417500D01*
X123450142Y-78418674D01*
X123450142Y-78418674D01*
G37*
D12*
G04 #@! TD*
G04 #@! TO.P,R13,2*
G04 #@! TO.N,Net-(R13-Pad2)*
X122970000Y-78905000D03*
D11*
G04 #@! TO.N,Net-(R13-Pad1)*
G04 #@! TO.C,R13*
G36*
X123450142Y-76543674D02*
X123473803Y-76547184D01*
X123497007Y-76552996D01*
X123519529Y-76561054D01*
X123541153Y-76571282D01*
X123561670Y-76583579D01*
X123580883Y-76597829D01*
X123598607Y-76613893D01*
X123614671Y-76631617D01*
X123628921Y-76650830D01*
X123641218Y-76671347D01*
X123651446Y-76692971D01*
X123659504Y-76715493D01*
X123665316Y-76738697D01*
X123668826Y-76762358D01*
X123670000Y-76786250D01*
X123670000Y-77273750D01*
X123668826Y-77297642D01*
X123665316Y-77321303D01*
X123659504Y-77344507D01*
X123651446Y-77367029D01*
X123641218Y-77388653D01*
X123628921Y-77409170D01*
X123614671Y-77428383D01*
X123598607Y-77446107D01*
X123580883Y-77462171D01*
X123561670Y-77476421D01*
X123541153Y-77488718D01*
X123519529Y-77498946D01*
X123497007Y-77507004D01*
X123473803Y-77512816D01*
X123450142Y-77516326D01*
X123426250Y-77517500D01*
X122513750Y-77517500D01*
X122489858Y-77516326D01*
X122466197Y-77512816D01*
X122442993Y-77507004D01*
X122420471Y-77498946D01*
X122398847Y-77488718D01*
X122378330Y-77476421D01*
X122359117Y-77462171D01*
X122341393Y-77446107D01*
X122325329Y-77428383D01*
X122311079Y-77409170D01*
X122298782Y-77388653D01*
X122288554Y-77367029D01*
X122280496Y-77344507D01*
X122274684Y-77321303D01*
X122271174Y-77297642D01*
X122270000Y-77273750D01*
X122270000Y-76786250D01*
X122271174Y-76762358D01*
X122274684Y-76738697D01*
X122280496Y-76715493D01*
X122288554Y-76692971D01*
X122298782Y-76671347D01*
X122311079Y-76650830D01*
X122325329Y-76631617D01*
X122341393Y-76613893D01*
X122359117Y-76597829D01*
X122378330Y-76583579D01*
X122398847Y-76571282D01*
X122420471Y-76561054D01*
X122442993Y-76552996D01*
X122466197Y-76547184D01*
X122489858Y-76543674D01*
X122513750Y-76542500D01*
X123426250Y-76542500D01*
X123450142Y-76543674D01*
X123450142Y-76543674D01*
G37*
D12*
G04 #@! TD*
G04 #@! TO.P,R13,1*
G04 #@! TO.N,Net-(R13-Pad1)*
X122970000Y-77030000D03*
D11*
G04 #@! TO.N,+5V*
G04 #@! TO.C,C1*
G36*
X201850142Y-96493674D02*
X201873803Y-96497184D01*
X201897007Y-96502996D01*
X201919529Y-96511054D01*
X201941153Y-96521282D01*
X201961670Y-96533579D01*
X201980883Y-96547829D01*
X201998607Y-96563893D01*
X202014671Y-96581617D01*
X202028921Y-96600830D01*
X202041218Y-96621347D01*
X202051446Y-96642971D01*
X202059504Y-96665493D01*
X202065316Y-96688697D01*
X202068826Y-96712358D01*
X202070000Y-96736250D01*
X202070000Y-97223750D01*
X202068826Y-97247642D01*
X202065316Y-97271303D01*
X202059504Y-97294507D01*
X202051446Y-97317029D01*
X202041218Y-97338653D01*
X202028921Y-97359170D01*
X202014671Y-97378383D01*
X201998607Y-97396107D01*
X201980883Y-97412171D01*
X201961670Y-97426421D01*
X201941153Y-97438718D01*
X201919529Y-97448946D01*
X201897007Y-97457004D01*
X201873803Y-97462816D01*
X201850142Y-97466326D01*
X201826250Y-97467500D01*
X200913750Y-97467500D01*
X200889858Y-97466326D01*
X200866197Y-97462816D01*
X200842993Y-97457004D01*
X200820471Y-97448946D01*
X200798847Y-97438718D01*
X200778330Y-97426421D01*
X200759117Y-97412171D01*
X200741393Y-97396107D01*
X200725329Y-97378383D01*
X200711079Y-97359170D01*
X200698782Y-97338653D01*
X200688554Y-97317029D01*
X200680496Y-97294507D01*
X200674684Y-97271303D01*
X200671174Y-97247642D01*
X200670000Y-97223750D01*
X200670000Y-96736250D01*
X200671174Y-96712358D01*
X200674684Y-96688697D01*
X200680496Y-96665493D01*
X200688554Y-96642971D01*
X200698782Y-96621347D01*
X200711079Y-96600830D01*
X200725329Y-96581617D01*
X200741393Y-96563893D01*
X200759117Y-96547829D01*
X200778330Y-96533579D01*
X200798847Y-96521282D01*
X200820471Y-96511054D01*
X200842993Y-96502996D01*
X200866197Y-96497184D01*
X200889858Y-96493674D01*
X200913750Y-96492500D01*
X201826250Y-96492500D01*
X201850142Y-96493674D01*
X201850142Y-96493674D01*
G37*
D12*
G04 #@! TD*
G04 #@! TO.P,C1,1*
G04 #@! TO.N,+5V*
X201370000Y-96980000D03*
D11*
G04 #@! TO.N,GND*
G04 #@! TO.C,C1*
G36*
X201850142Y-94618674D02*
X201873803Y-94622184D01*
X201897007Y-94627996D01*
X201919529Y-94636054D01*
X201941153Y-94646282D01*
X201961670Y-94658579D01*
X201980883Y-94672829D01*
X201998607Y-94688893D01*
X202014671Y-94706617D01*
X202028921Y-94725830D01*
X202041218Y-94746347D01*
X202051446Y-94767971D01*
X202059504Y-94790493D01*
X202065316Y-94813697D01*
X202068826Y-94837358D01*
X202070000Y-94861250D01*
X202070000Y-95348750D01*
X202068826Y-95372642D01*
X202065316Y-95396303D01*
X202059504Y-95419507D01*
X202051446Y-95442029D01*
X202041218Y-95463653D01*
X202028921Y-95484170D01*
X202014671Y-95503383D01*
X201998607Y-95521107D01*
X201980883Y-95537171D01*
X201961670Y-95551421D01*
X201941153Y-95563718D01*
X201919529Y-95573946D01*
X201897007Y-95582004D01*
X201873803Y-95587816D01*
X201850142Y-95591326D01*
X201826250Y-95592500D01*
X200913750Y-95592500D01*
X200889858Y-95591326D01*
X200866197Y-95587816D01*
X200842993Y-95582004D01*
X200820471Y-95573946D01*
X200798847Y-95563718D01*
X200778330Y-95551421D01*
X200759117Y-95537171D01*
X200741393Y-95521107D01*
X200725329Y-95503383D01*
X200711079Y-95484170D01*
X200698782Y-95463653D01*
X200688554Y-95442029D01*
X200680496Y-95419507D01*
X200674684Y-95396303D01*
X200671174Y-95372642D01*
X200670000Y-95348750D01*
X200670000Y-94861250D01*
X200671174Y-94837358D01*
X200674684Y-94813697D01*
X200680496Y-94790493D01*
X200688554Y-94767971D01*
X200698782Y-94746347D01*
X200711079Y-94725830D01*
X200725329Y-94706617D01*
X200741393Y-94688893D01*
X200759117Y-94672829D01*
X200778330Y-94658579D01*
X200798847Y-94646282D01*
X200820471Y-94636054D01*
X200842993Y-94627996D01*
X200866197Y-94622184D01*
X200889858Y-94618674D01*
X200913750Y-94617500D01*
X201826250Y-94617500D01*
X201850142Y-94618674D01*
X201850142Y-94618674D01*
G37*
D12*
G04 #@! TD*
G04 #@! TO.P,C1,2*
G04 #@! TO.N,GND*
X201370000Y-95105000D03*
D11*
G04 #@! TO.N,GND*
G04 #@! TO.C,C10*
G36*
X142671021Y-90078456D02*
X142694682Y-90081966D01*
X142717886Y-90087778D01*
X142740408Y-90095836D01*
X142762032Y-90106064D01*
X142782549Y-90118361D01*
X142801762Y-90132611D01*
X142819486Y-90148675D01*
X142835550Y-90166399D01*
X142849800Y-90185612D01*
X142862097Y-90206129D01*
X142872325Y-90227753D01*
X142880383Y-90250275D01*
X142886195Y-90273479D01*
X142889705Y-90297140D01*
X142890879Y-90321032D01*
X142890879Y-91233532D01*
X142889705Y-91257424D01*
X142886195Y-91281085D01*
X142880383Y-91304289D01*
X142872325Y-91326811D01*
X142862097Y-91348435D01*
X142849800Y-91368952D01*
X142835550Y-91388165D01*
X142819486Y-91405889D01*
X142801762Y-91421953D01*
X142782549Y-91436203D01*
X142762032Y-91448500D01*
X142740408Y-91458728D01*
X142717886Y-91466786D01*
X142694682Y-91472598D01*
X142671021Y-91476108D01*
X142647129Y-91477282D01*
X142159629Y-91477282D01*
X142135737Y-91476108D01*
X142112076Y-91472598D01*
X142088872Y-91466786D01*
X142066350Y-91458728D01*
X142044726Y-91448500D01*
X142024209Y-91436203D01*
X142004996Y-91421953D01*
X141987272Y-91405889D01*
X141971208Y-91388165D01*
X141956958Y-91368952D01*
X141944661Y-91348435D01*
X141934433Y-91326811D01*
X141926375Y-91304289D01*
X141920563Y-91281085D01*
X141917053Y-91257424D01*
X141915879Y-91233532D01*
X141915879Y-90321032D01*
X141917053Y-90297140D01*
X141920563Y-90273479D01*
X141926375Y-90250275D01*
X141934433Y-90227753D01*
X141944661Y-90206129D01*
X141956958Y-90185612D01*
X141971208Y-90166399D01*
X141987272Y-90148675D01*
X142004996Y-90132611D01*
X142024209Y-90118361D01*
X142044726Y-90106064D01*
X142066350Y-90095836D01*
X142088872Y-90087778D01*
X142112076Y-90081966D01*
X142135737Y-90078456D01*
X142159629Y-90077282D01*
X142647129Y-90077282D01*
X142671021Y-90078456D01*
X142671021Y-90078456D01*
G37*
D12*
G04 #@! TD*
G04 #@! TO.P,C10,2*
G04 #@! TO.N,GND*
X142403379Y-90777282D03*
D11*
G04 #@! TO.N,Net-(C10-Pad1)*
G04 #@! TO.C,C10*
G36*
X144546021Y-90078456D02*
X144569682Y-90081966D01*
X144592886Y-90087778D01*
X144615408Y-90095836D01*
X144637032Y-90106064D01*
X144657549Y-90118361D01*
X144676762Y-90132611D01*
X144694486Y-90148675D01*
X144710550Y-90166399D01*
X144724800Y-90185612D01*
X144737097Y-90206129D01*
X144747325Y-90227753D01*
X144755383Y-90250275D01*
X144761195Y-90273479D01*
X144764705Y-90297140D01*
X144765879Y-90321032D01*
X144765879Y-91233532D01*
X144764705Y-91257424D01*
X144761195Y-91281085D01*
X144755383Y-91304289D01*
X144747325Y-91326811D01*
X144737097Y-91348435D01*
X144724800Y-91368952D01*
X144710550Y-91388165D01*
X144694486Y-91405889D01*
X144676762Y-91421953D01*
X144657549Y-91436203D01*
X144637032Y-91448500D01*
X144615408Y-91458728D01*
X144592886Y-91466786D01*
X144569682Y-91472598D01*
X144546021Y-91476108D01*
X144522129Y-91477282D01*
X144034629Y-91477282D01*
X144010737Y-91476108D01*
X143987076Y-91472598D01*
X143963872Y-91466786D01*
X143941350Y-91458728D01*
X143919726Y-91448500D01*
X143899209Y-91436203D01*
X143879996Y-91421953D01*
X143862272Y-91405889D01*
X143846208Y-91388165D01*
X143831958Y-91368952D01*
X143819661Y-91348435D01*
X143809433Y-91326811D01*
X143801375Y-91304289D01*
X143795563Y-91281085D01*
X143792053Y-91257424D01*
X143790879Y-91233532D01*
X143790879Y-90321032D01*
X143792053Y-90297140D01*
X143795563Y-90273479D01*
X143801375Y-90250275D01*
X143809433Y-90227753D01*
X143819661Y-90206129D01*
X143831958Y-90185612D01*
X143846208Y-90166399D01*
X143862272Y-90148675D01*
X143879996Y-90132611D01*
X143899209Y-90118361D01*
X143919726Y-90106064D01*
X143941350Y-90095836D01*
X143963872Y-90087778D01*
X143987076Y-90081966D01*
X144010737Y-90078456D01*
X144034629Y-90077282D01*
X144522129Y-90077282D01*
X144546021Y-90078456D01*
X144546021Y-90078456D01*
G37*
D12*
G04 #@! TD*
G04 #@! TO.P,C10,1*
G04 #@! TO.N,Net-(C10-Pad1)*
X144278379Y-90777282D03*
D22*
G04 #@! TO.P,U1,2*
G04 #@! TO.N,+3V3*
X174135000Y-81025000D03*
D23*
X180435000Y-81025000D03*
G04 #@! TO.P,U1,3*
G04 #@! TO.N,+5V*
X180435000Y-83325000D03*
G04 #@! TO.P,U1,1*
G04 #@! TO.N,GND*
X180435000Y-78725000D03*
G04 #@! TD*
D11*
G04 #@! TO.N,Net-(D3-Pad2)*
G04 #@! TO.C,R3*
G36*
X160480142Y-117113674D02*
X160503803Y-117117184D01*
X160527007Y-117122996D01*
X160549529Y-117131054D01*
X160571153Y-117141282D01*
X160591670Y-117153579D01*
X160610883Y-117167829D01*
X160628607Y-117183893D01*
X160644671Y-117201617D01*
X160658921Y-117220830D01*
X160671218Y-117241347D01*
X160681446Y-117262971D01*
X160689504Y-117285493D01*
X160695316Y-117308697D01*
X160698826Y-117332358D01*
X160700000Y-117356250D01*
X160700000Y-117843750D01*
X160698826Y-117867642D01*
X160695316Y-117891303D01*
X160689504Y-117914507D01*
X160681446Y-117937029D01*
X160671218Y-117958653D01*
X160658921Y-117979170D01*
X160644671Y-117998383D01*
X160628607Y-118016107D01*
X160610883Y-118032171D01*
X160591670Y-118046421D01*
X160571153Y-118058718D01*
X160549529Y-118068946D01*
X160527007Y-118077004D01*
X160503803Y-118082816D01*
X160480142Y-118086326D01*
X160456250Y-118087500D01*
X159543750Y-118087500D01*
X159519858Y-118086326D01*
X159496197Y-118082816D01*
X159472993Y-118077004D01*
X159450471Y-118068946D01*
X159428847Y-118058718D01*
X159408330Y-118046421D01*
X159389117Y-118032171D01*
X159371393Y-118016107D01*
X159355329Y-117998383D01*
X159341079Y-117979170D01*
X159328782Y-117958653D01*
X159318554Y-117937029D01*
X159310496Y-117914507D01*
X159304684Y-117891303D01*
X159301174Y-117867642D01*
X159300000Y-117843750D01*
X159300000Y-117356250D01*
X159301174Y-117332358D01*
X159304684Y-117308697D01*
X159310496Y-117285493D01*
X159318554Y-117262971D01*
X159328782Y-117241347D01*
X159341079Y-117220830D01*
X159355329Y-117201617D01*
X159371393Y-117183893D01*
X159389117Y-117167829D01*
X159408330Y-117153579D01*
X159428847Y-117141282D01*
X159450471Y-117131054D01*
X159472993Y-117122996D01*
X159496197Y-117117184D01*
X159519858Y-117113674D01*
X159543750Y-117112500D01*
X160456250Y-117112500D01*
X160480142Y-117113674D01*
X160480142Y-117113674D01*
G37*
D12*
G04 #@! TD*
G04 #@! TO.P,R3,1*
G04 #@! TO.N,Net-(D3-Pad2)*
X160000000Y-117600000D03*
D11*
G04 #@! TO.N,+3V3*
G04 #@! TO.C,R3*
G36*
X160480142Y-118988674D02*
X160503803Y-118992184D01*
X160527007Y-118997996D01*
X160549529Y-119006054D01*
X160571153Y-119016282D01*
X160591670Y-119028579D01*
X160610883Y-119042829D01*
X160628607Y-119058893D01*
X160644671Y-119076617D01*
X160658921Y-119095830D01*
X160671218Y-119116347D01*
X160681446Y-119137971D01*
X160689504Y-119160493D01*
X160695316Y-119183697D01*
X160698826Y-119207358D01*
X160700000Y-119231250D01*
X160700000Y-119718750D01*
X160698826Y-119742642D01*
X160695316Y-119766303D01*
X160689504Y-119789507D01*
X160681446Y-119812029D01*
X160671218Y-119833653D01*
X160658921Y-119854170D01*
X160644671Y-119873383D01*
X160628607Y-119891107D01*
X160610883Y-119907171D01*
X160591670Y-119921421D01*
X160571153Y-119933718D01*
X160549529Y-119943946D01*
X160527007Y-119952004D01*
X160503803Y-119957816D01*
X160480142Y-119961326D01*
X160456250Y-119962500D01*
X159543750Y-119962500D01*
X159519858Y-119961326D01*
X159496197Y-119957816D01*
X159472993Y-119952004D01*
X159450471Y-119943946D01*
X159428847Y-119933718D01*
X159408330Y-119921421D01*
X159389117Y-119907171D01*
X159371393Y-119891107D01*
X159355329Y-119873383D01*
X159341079Y-119854170D01*
X159328782Y-119833653D01*
X159318554Y-119812029D01*
X159310496Y-119789507D01*
X159304684Y-119766303D01*
X159301174Y-119742642D01*
X159300000Y-119718750D01*
X159300000Y-119231250D01*
X159301174Y-119207358D01*
X159304684Y-119183697D01*
X159310496Y-119160493D01*
X159318554Y-119137971D01*
X159328782Y-119116347D01*
X159341079Y-119095830D01*
X159355329Y-119076617D01*
X159371393Y-119058893D01*
X159389117Y-119042829D01*
X159408330Y-119028579D01*
X159428847Y-119016282D01*
X159450471Y-119006054D01*
X159472993Y-118997996D01*
X159496197Y-118992184D01*
X159519858Y-118988674D01*
X159543750Y-118987500D01*
X160456250Y-118987500D01*
X160480142Y-118988674D01*
X160480142Y-118988674D01*
G37*
D12*
G04 #@! TD*
G04 #@! TO.P,R3,2*
G04 #@! TO.N,+3V3*
X160000000Y-119475000D03*
D24*
G04 #@! TO.P,U2,1*
G04 #@! TO.N,/CAN_TX*
X162675000Y-90830000D03*
G04 #@! TO.P,U2,2*
G04 #@! TO.N,GND*
X162675000Y-89560000D03*
G04 #@! TO.P,U2,3*
G04 #@! TO.N,+5V*
X162675000Y-88290000D03*
G04 #@! TO.P,U2,4*
G04 #@! TO.N,/CAN_RX*
X162675000Y-87020000D03*
G04 #@! TO.P,U2,5*
G04 #@! TO.N,+3V3*
X168075000Y-87020000D03*
G04 #@! TO.P,U2,6*
G04 #@! TO.N,/CAN_L*
X168075000Y-88290000D03*
G04 #@! TO.P,U2,7*
G04 #@! TO.N,/CAN_H*
X168075000Y-89560000D03*
G04 #@! TO.P,U2,8*
G04 #@! TO.N,GND*
X168075000Y-90830000D03*
G04 #@! TD*
D25*
G04 #@! TO.P,D1,1*
G04 #@! TO.N,+5V*
X184660000Y-81925000D03*
G04 #@! TO.P,D1,2*
G04 #@! TO.N,+3V3*
X182560000Y-81925000D03*
G04 #@! TD*
D11*
G04 #@! TO.N,Net-(R6-Pad1)*
G04 #@! TO.C,R6*
G36*
X136130142Y-91113674D02*
X136153803Y-91117184D01*
X136177007Y-91122996D01*
X136199529Y-91131054D01*
X136221153Y-91141282D01*
X136241670Y-91153579D01*
X136260883Y-91167829D01*
X136278607Y-91183893D01*
X136294671Y-91201617D01*
X136308921Y-91220830D01*
X136321218Y-91241347D01*
X136331446Y-91262971D01*
X136339504Y-91285493D01*
X136345316Y-91308697D01*
X136348826Y-91332358D01*
X136350000Y-91356250D01*
X136350000Y-91843750D01*
X136348826Y-91867642D01*
X136345316Y-91891303D01*
X136339504Y-91914507D01*
X136331446Y-91937029D01*
X136321218Y-91958653D01*
X136308921Y-91979170D01*
X136294671Y-91998383D01*
X136278607Y-92016107D01*
X136260883Y-92032171D01*
X136241670Y-92046421D01*
X136221153Y-92058718D01*
X136199529Y-92068946D01*
X136177007Y-92077004D01*
X136153803Y-92082816D01*
X136130142Y-92086326D01*
X136106250Y-92087500D01*
X135193750Y-92087500D01*
X135169858Y-92086326D01*
X135146197Y-92082816D01*
X135122993Y-92077004D01*
X135100471Y-92068946D01*
X135078847Y-92058718D01*
X135058330Y-92046421D01*
X135039117Y-92032171D01*
X135021393Y-92016107D01*
X135005329Y-91998383D01*
X134991079Y-91979170D01*
X134978782Y-91958653D01*
X134968554Y-91937029D01*
X134960496Y-91914507D01*
X134954684Y-91891303D01*
X134951174Y-91867642D01*
X134950000Y-91843750D01*
X134950000Y-91356250D01*
X134951174Y-91332358D01*
X134954684Y-91308697D01*
X134960496Y-91285493D01*
X134968554Y-91262971D01*
X134978782Y-91241347D01*
X134991079Y-91220830D01*
X135005329Y-91201617D01*
X135021393Y-91183893D01*
X135039117Y-91167829D01*
X135058330Y-91153579D01*
X135078847Y-91141282D01*
X135100471Y-91131054D01*
X135122993Y-91122996D01*
X135146197Y-91117184D01*
X135169858Y-91113674D01*
X135193750Y-91112500D01*
X136106250Y-91112500D01*
X136130142Y-91113674D01*
X136130142Y-91113674D01*
G37*
D12*
G04 #@! TD*
G04 #@! TO.P,R6,1*
G04 #@! TO.N,Net-(R6-Pad1)*
X135650000Y-91600000D03*
D11*
G04 #@! TO.N,+5V*
G04 #@! TO.C,R6*
G36*
X136130142Y-89238674D02*
X136153803Y-89242184D01*
X136177007Y-89247996D01*
X136199529Y-89256054D01*
X136221153Y-89266282D01*
X136241670Y-89278579D01*
X136260883Y-89292829D01*
X136278607Y-89308893D01*
X136294671Y-89326617D01*
X136308921Y-89345830D01*
X136321218Y-89366347D01*
X136331446Y-89387971D01*
X136339504Y-89410493D01*
X136345316Y-89433697D01*
X136348826Y-89457358D01*
X136350000Y-89481250D01*
X136350000Y-89968750D01*
X136348826Y-89992642D01*
X136345316Y-90016303D01*
X136339504Y-90039507D01*
X136331446Y-90062029D01*
X136321218Y-90083653D01*
X136308921Y-90104170D01*
X136294671Y-90123383D01*
X136278607Y-90141107D01*
X136260883Y-90157171D01*
X136241670Y-90171421D01*
X136221153Y-90183718D01*
X136199529Y-90193946D01*
X136177007Y-90202004D01*
X136153803Y-90207816D01*
X136130142Y-90211326D01*
X136106250Y-90212500D01*
X135193750Y-90212500D01*
X135169858Y-90211326D01*
X135146197Y-90207816D01*
X135122993Y-90202004D01*
X135100471Y-90193946D01*
X135078847Y-90183718D01*
X135058330Y-90171421D01*
X135039117Y-90157171D01*
X135021393Y-90141107D01*
X135005329Y-90123383D01*
X134991079Y-90104170D01*
X134978782Y-90083653D01*
X134968554Y-90062029D01*
X134960496Y-90039507D01*
X134954684Y-90016303D01*
X134951174Y-89992642D01*
X134950000Y-89968750D01*
X134950000Y-89481250D01*
X134951174Y-89457358D01*
X134954684Y-89433697D01*
X134960496Y-89410493D01*
X134968554Y-89387971D01*
X134978782Y-89366347D01*
X134991079Y-89345830D01*
X135005329Y-89326617D01*
X135021393Y-89308893D01*
X135039117Y-89292829D01*
X135058330Y-89278579D01*
X135078847Y-89266282D01*
X135100471Y-89256054D01*
X135122993Y-89247996D01*
X135146197Y-89242184D01*
X135169858Y-89238674D01*
X135193750Y-89237500D01*
X136106250Y-89237500D01*
X136130142Y-89238674D01*
X136130142Y-89238674D01*
G37*
D12*
G04 #@! TD*
G04 #@! TO.P,R6,2*
G04 #@! TO.N,+5V*
X135650000Y-89725000D03*
D11*
G04 #@! TO.N,/SEG3*
G04 #@! TO.C,R18*
G36*
X153980142Y-90188674D02*
X154003803Y-90192184D01*
X154027007Y-90197996D01*
X154049529Y-90206054D01*
X154071153Y-90216282D01*
X154091670Y-90228579D01*
X154110883Y-90242829D01*
X154128607Y-90258893D01*
X154144671Y-90276617D01*
X154158921Y-90295830D01*
X154171218Y-90316347D01*
X154181446Y-90337971D01*
X154189504Y-90360493D01*
X154195316Y-90383697D01*
X154198826Y-90407358D01*
X154200000Y-90431250D01*
X154200000Y-90918750D01*
X154198826Y-90942642D01*
X154195316Y-90966303D01*
X154189504Y-90989507D01*
X154181446Y-91012029D01*
X154171218Y-91033653D01*
X154158921Y-91054170D01*
X154144671Y-91073383D01*
X154128607Y-91091107D01*
X154110883Y-91107171D01*
X154091670Y-91121421D01*
X154071153Y-91133718D01*
X154049529Y-91143946D01*
X154027007Y-91152004D01*
X154003803Y-91157816D01*
X153980142Y-91161326D01*
X153956250Y-91162500D01*
X153043750Y-91162500D01*
X153019858Y-91161326D01*
X152996197Y-91157816D01*
X152972993Y-91152004D01*
X152950471Y-91143946D01*
X152928847Y-91133718D01*
X152908330Y-91121421D01*
X152889117Y-91107171D01*
X152871393Y-91091107D01*
X152855329Y-91073383D01*
X152841079Y-91054170D01*
X152828782Y-91033653D01*
X152818554Y-91012029D01*
X152810496Y-90989507D01*
X152804684Y-90966303D01*
X152801174Y-90942642D01*
X152800000Y-90918750D01*
X152800000Y-90431250D01*
X152801174Y-90407358D01*
X152804684Y-90383697D01*
X152810496Y-90360493D01*
X152818554Y-90337971D01*
X152828782Y-90316347D01*
X152841079Y-90295830D01*
X152855329Y-90276617D01*
X152871393Y-90258893D01*
X152889117Y-90242829D01*
X152908330Y-90228579D01*
X152928847Y-90216282D01*
X152950471Y-90206054D01*
X152972993Y-90197996D01*
X152996197Y-90192184D01*
X153019858Y-90188674D01*
X153043750Y-90187500D01*
X153956250Y-90187500D01*
X153980142Y-90188674D01*
X153980142Y-90188674D01*
G37*
D12*
G04 #@! TD*
G04 #@! TO.P,R18,2*
G04 #@! TO.N,/SEG3*
X153500000Y-90675000D03*
D11*
G04 #@! TO.N,Net-(Q7-Pad1)*
G04 #@! TO.C,R18*
G36*
X153980142Y-92063674D02*
X154003803Y-92067184D01*
X154027007Y-92072996D01*
X154049529Y-92081054D01*
X154071153Y-92091282D01*
X154091670Y-92103579D01*
X154110883Y-92117829D01*
X154128607Y-92133893D01*
X154144671Y-92151617D01*
X154158921Y-92170830D01*
X154171218Y-92191347D01*
X154181446Y-92212971D01*
X154189504Y-92235493D01*
X154195316Y-92258697D01*
X154198826Y-92282358D01*
X154200000Y-92306250D01*
X154200000Y-92793750D01*
X154198826Y-92817642D01*
X154195316Y-92841303D01*
X154189504Y-92864507D01*
X154181446Y-92887029D01*
X154171218Y-92908653D01*
X154158921Y-92929170D01*
X154144671Y-92948383D01*
X154128607Y-92966107D01*
X154110883Y-92982171D01*
X154091670Y-92996421D01*
X154071153Y-93008718D01*
X154049529Y-93018946D01*
X154027007Y-93027004D01*
X154003803Y-93032816D01*
X153980142Y-93036326D01*
X153956250Y-93037500D01*
X153043750Y-93037500D01*
X153019858Y-93036326D01*
X152996197Y-93032816D01*
X152972993Y-93027004D01*
X152950471Y-93018946D01*
X152928847Y-93008718D01*
X152908330Y-92996421D01*
X152889117Y-92982171D01*
X152871393Y-92966107D01*
X152855329Y-92948383D01*
X152841079Y-92929170D01*
X152828782Y-92908653D01*
X152818554Y-92887029D01*
X152810496Y-92864507D01*
X152804684Y-92841303D01*
X152801174Y-92817642D01*
X152800000Y-92793750D01*
X152800000Y-92306250D01*
X152801174Y-92282358D01*
X152804684Y-92258697D01*
X152810496Y-92235493D01*
X152818554Y-92212971D01*
X152828782Y-92191347D01*
X152841079Y-92170830D01*
X152855329Y-92151617D01*
X152871393Y-92133893D01*
X152889117Y-92117829D01*
X152908330Y-92103579D01*
X152928847Y-92091282D01*
X152950471Y-92081054D01*
X152972993Y-92072996D01*
X152996197Y-92067184D01*
X153019858Y-92063674D01*
X153043750Y-92062500D01*
X153956250Y-92062500D01*
X153980142Y-92063674D01*
X153980142Y-92063674D01*
G37*
D12*
G04 #@! TD*
G04 #@! TO.P,R18,1*
G04 #@! TO.N,Net-(Q7-Pad1)*
X153500000Y-92550000D03*
D11*
G04 #@! TO.N,Net-(R10-Pad1)*
G04 #@! TO.C,R10*
G36*
X128555142Y-107213674D02*
X128578803Y-107217184D01*
X128602007Y-107222996D01*
X128624529Y-107231054D01*
X128646153Y-107241282D01*
X128666670Y-107253579D01*
X128685883Y-107267829D01*
X128703607Y-107283893D01*
X128719671Y-107301617D01*
X128733921Y-107320830D01*
X128746218Y-107341347D01*
X128756446Y-107362971D01*
X128764504Y-107385493D01*
X128770316Y-107408697D01*
X128773826Y-107432358D01*
X128775000Y-107456250D01*
X128775000Y-107943750D01*
X128773826Y-107967642D01*
X128770316Y-107991303D01*
X128764504Y-108014507D01*
X128756446Y-108037029D01*
X128746218Y-108058653D01*
X128733921Y-108079170D01*
X128719671Y-108098383D01*
X128703607Y-108116107D01*
X128685883Y-108132171D01*
X128666670Y-108146421D01*
X128646153Y-108158718D01*
X128624529Y-108168946D01*
X128602007Y-108177004D01*
X128578803Y-108182816D01*
X128555142Y-108186326D01*
X128531250Y-108187500D01*
X127618750Y-108187500D01*
X127594858Y-108186326D01*
X127571197Y-108182816D01*
X127547993Y-108177004D01*
X127525471Y-108168946D01*
X127503847Y-108158718D01*
X127483330Y-108146421D01*
X127464117Y-108132171D01*
X127446393Y-108116107D01*
X127430329Y-108098383D01*
X127416079Y-108079170D01*
X127403782Y-108058653D01*
X127393554Y-108037029D01*
X127385496Y-108014507D01*
X127379684Y-107991303D01*
X127376174Y-107967642D01*
X127375000Y-107943750D01*
X127375000Y-107456250D01*
X127376174Y-107432358D01*
X127379684Y-107408697D01*
X127385496Y-107385493D01*
X127393554Y-107362971D01*
X127403782Y-107341347D01*
X127416079Y-107320830D01*
X127430329Y-107301617D01*
X127446393Y-107283893D01*
X127464117Y-107267829D01*
X127483330Y-107253579D01*
X127503847Y-107241282D01*
X127525471Y-107231054D01*
X127547993Y-107222996D01*
X127571197Y-107217184D01*
X127594858Y-107213674D01*
X127618750Y-107212500D01*
X128531250Y-107212500D01*
X128555142Y-107213674D01*
X128555142Y-107213674D01*
G37*
D12*
G04 #@! TD*
G04 #@! TO.P,R10,1*
G04 #@! TO.N,Net-(R10-Pad1)*
X128075000Y-107700000D03*
D11*
G04 #@! TO.N,Net-(R10-Pad2)*
G04 #@! TO.C,R10*
G36*
X128555142Y-105338674D02*
X128578803Y-105342184D01*
X128602007Y-105347996D01*
X128624529Y-105356054D01*
X128646153Y-105366282D01*
X128666670Y-105378579D01*
X128685883Y-105392829D01*
X128703607Y-105408893D01*
X128719671Y-105426617D01*
X128733921Y-105445830D01*
X128746218Y-105466347D01*
X128756446Y-105487971D01*
X128764504Y-105510493D01*
X128770316Y-105533697D01*
X128773826Y-105557358D01*
X128775000Y-105581250D01*
X128775000Y-106068750D01*
X128773826Y-106092642D01*
X128770316Y-106116303D01*
X128764504Y-106139507D01*
X128756446Y-106162029D01*
X128746218Y-106183653D01*
X128733921Y-106204170D01*
X128719671Y-106223383D01*
X128703607Y-106241107D01*
X128685883Y-106257171D01*
X128666670Y-106271421D01*
X128646153Y-106283718D01*
X128624529Y-106293946D01*
X128602007Y-106302004D01*
X128578803Y-106307816D01*
X128555142Y-106311326D01*
X128531250Y-106312500D01*
X127618750Y-106312500D01*
X127594858Y-106311326D01*
X127571197Y-106307816D01*
X127547993Y-106302004D01*
X127525471Y-106293946D01*
X127503847Y-106283718D01*
X127483330Y-106271421D01*
X127464117Y-106257171D01*
X127446393Y-106241107D01*
X127430329Y-106223383D01*
X127416079Y-106204170D01*
X127403782Y-106183653D01*
X127393554Y-106162029D01*
X127385496Y-106139507D01*
X127379684Y-106116303D01*
X127376174Y-106092642D01*
X127375000Y-106068750D01*
X127375000Y-105581250D01*
X127376174Y-105557358D01*
X127379684Y-105533697D01*
X127385496Y-105510493D01*
X127393554Y-105487971D01*
X127403782Y-105466347D01*
X127416079Y-105445830D01*
X127430329Y-105426617D01*
X127446393Y-105408893D01*
X127464117Y-105392829D01*
X127483330Y-105378579D01*
X127503847Y-105366282D01*
X127525471Y-105356054D01*
X127547993Y-105347996D01*
X127571197Y-105342184D01*
X127594858Y-105338674D01*
X127618750Y-105337500D01*
X128531250Y-105337500D01*
X128555142Y-105338674D01*
X128555142Y-105338674D01*
G37*
D12*
G04 #@! TD*
G04 #@! TO.P,R10,2*
G04 #@! TO.N,Net-(R10-Pad2)*
X128075000Y-105825000D03*
D10*
G04 #@! TO.P,Q2,1*
G04 #@! TO.N,Net-(Q2-Pad1)*
X134775000Y-108800000D03*
G04 #@! TO.P,Q2,2*
G04 #@! TO.N,+5V*
X134775000Y-110700000D03*
G04 #@! TO.P,Q2,3*
G04 #@! TO.N,Net-(Q2-Pad3)*
X132775000Y-109750000D03*
G04 #@! TD*
D11*
G04 #@! TO.N,GND*
G04 #@! TO.C,C8*
G36*
X157950142Y-82388674D02*
X157973803Y-82392184D01*
X157997007Y-82397996D01*
X158019529Y-82406054D01*
X158041153Y-82416282D01*
X158061670Y-82428579D01*
X158080883Y-82442829D01*
X158098607Y-82458893D01*
X158114671Y-82476617D01*
X158128921Y-82495830D01*
X158141218Y-82516347D01*
X158151446Y-82537971D01*
X158159504Y-82560493D01*
X158165316Y-82583697D01*
X158168826Y-82607358D01*
X158170000Y-82631250D01*
X158170000Y-83118750D01*
X158168826Y-83142642D01*
X158165316Y-83166303D01*
X158159504Y-83189507D01*
X158151446Y-83212029D01*
X158141218Y-83233653D01*
X158128921Y-83254170D01*
X158114671Y-83273383D01*
X158098607Y-83291107D01*
X158080883Y-83307171D01*
X158061670Y-83321421D01*
X158041153Y-83333718D01*
X158019529Y-83343946D01*
X157997007Y-83352004D01*
X157973803Y-83357816D01*
X157950142Y-83361326D01*
X157926250Y-83362500D01*
X157013750Y-83362500D01*
X156989858Y-83361326D01*
X156966197Y-83357816D01*
X156942993Y-83352004D01*
X156920471Y-83343946D01*
X156898847Y-83333718D01*
X156878330Y-83321421D01*
X156859117Y-83307171D01*
X156841393Y-83291107D01*
X156825329Y-83273383D01*
X156811079Y-83254170D01*
X156798782Y-83233653D01*
X156788554Y-83212029D01*
X156780496Y-83189507D01*
X156774684Y-83166303D01*
X156771174Y-83142642D01*
X156770000Y-83118750D01*
X156770000Y-82631250D01*
X156771174Y-82607358D01*
X156774684Y-82583697D01*
X156780496Y-82560493D01*
X156788554Y-82537971D01*
X156798782Y-82516347D01*
X156811079Y-82495830D01*
X156825329Y-82476617D01*
X156841393Y-82458893D01*
X156859117Y-82442829D01*
X156878330Y-82428579D01*
X156898847Y-82416282D01*
X156920471Y-82406054D01*
X156942993Y-82397996D01*
X156966197Y-82392184D01*
X156989858Y-82388674D01*
X157013750Y-82387500D01*
X157926250Y-82387500D01*
X157950142Y-82388674D01*
X157950142Y-82388674D01*
G37*
D12*
G04 #@! TD*
G04 #@! TO.P,C8,1*
G04 #@! TO.N,GND*
X157470000Y-82875000D03*
D11*
G04 #@! TO.N,+3V3*
G04 #@! TO.C,C8*
G36*
X157950142Y-84263674D02*
X157973803Y-84267184D01*
X157997007Y-84272996D01*
X158019529Y-84281054D01*
X158041153Y-84291282D01*
X158061670Y-84303579D01*
X158080883Y-84317829D01*
X158098607Y-84333893D01*
X158114671Y-84351617D01*
X158128921Y-84370830D01*
X158141218Y-84391347D01*
X158151446Y-84412971D01*
X158159504Y-84435493D01*
X158165316Y-84458697D01*
X158168826Y-84482358D01*
X158170000Y-84506250D01*
X158170000Y-84993750D01*
X158168826Y-85017642D01*
X158165316Y-85041303D01*
X158159504Y-85064507D01*
X158151446Y-85087029D01*
X158141218Y-85108653D01*
X158128921Y-85129170D01*
X158114671Y-85148383D01*
X158098607Y-85166107D01*
X158080883Y-85182171D01*
X158061670Y-85196421D01*
X158041153Y-85208718D01*
X158019529Y-85218946D01*
X157997007Y-85227004D01*
X157973803Y-85232816D01*
X157950142Y-85236326D01*
X157926250Y-85237500D01*
X157013750Y-85237500D01*
X156989858Y-85236326D01*
X156966197Y-85232816D01*
X156942993Y-85227004D01*
X156920471Y-85218946D01*
X156898847Y-85208718D01*
X156878330Y-85196421D01*
X156859117Y-85182171D01*
X156841393Y-85166107D01*
X156825329Y-85148383D01*
X156811079Y-85129170D01*
X156798782Y-85108653D01*
X156788554Y-85087029D01*
X156780496Y-85064507D01*
X156774684Y-85041303D01*
X156771174Y-85017642D01*
X156770000Y-84993750D01*
X156770000Y-84506250D01*
X156771174Y-84482358D01*
X156774684Y-84458697D01*
X156780496Y-84435493D01*
X156788554Y-84412971D01*
X156798782Y-84391347D01*
X156811079Y-84370830D01*
X156825329Y-84351617D01*
X156841393Y-84333893D01*
X156859117Y-84317829D01*
X156878330Y-84303579D01*
X156898847Y-84291282D01*
X156920471Y-84281054D01*
X156942993Y-84272996D01*
X156966197Y-84267184D01*
X156989858Y-84263674D01*
X157013750Y-84262500D01*
X157926250Y-84262500D01*
X157950142Y-84263674D01*
X157950142Y-84263674D01*
G37*
D12*
G04 #@! TD*
G04 #@! TO.P,C8,2*
G04 #@! TO.N,+3V3*
X157470000Y-84750000D03*
D11*
G04 #@! TO.N,+3V3*
G04 #@! TO.C,R2*
G36*
X132067642Y-117501174D02*
X132091303Y-117504684D01*
X132114507Y-117510496D01*
X132137029Y-117518554D01*
X132158653Y-117528782D01*
X132179170Y-117541079D01*
X132198383Y-117555329D01*
X132216107Y-117571393D01*
X132232171Y-117589117D01*
X132246421Y-117608330D01*
X132258718Y-117628847D01*
X132268946Y-117650471D01*
X132277004Y-117672993D01*
X132282816Y-117696197D01*
X132286326Y-117719858D01*
X132287500Y-117743750D01*
X132287500Y-118656250D01*
X132286326Y-118680142D01*
X132282816Y-118703803D01*
X132277004Y-118727007D01*
X132268946Y-118749529D01*
X132258718Y-118771153D01*
X132246421Y-118791670D01*
X132232171Y-118810883D01*
X132216107Y-118828607D01*
X132198383Y-118844671D01*
X132179170Y-118858921D01*
X132158653Y-118871218D01*
X132137029Y-118881446D01*
X132114507Y-118889504D01*
X132091303Y-118895316D01*
X132067642Y-118898826D01*
X132043750Y-118900000D01*
X131556250Y-118900000D01*
X131532358Y-118898826D01*
X131508697Y-118895316D01*
X131485493Y-118889504D01*
X131462971Y-118881446D01*
X131441347Y-118871218D01*
X131420830Y-118858921D01*
X131401617Y-118844671D01*
X131383893Y-118828607D01*
X131367829Y-118810883D01*
X131353579Y-118791670D01*
X131341282Y-118771153D01*
X131331054Y-118749529D01*
X131322996Y-118727007D01*
X131317184Y-118703803D01*
X131313674Y-118680142D01*
X131312500Y-118656250D01*
X131312500Y-117743750D01*
X131313674Y-117719858D01*
X131317184Y-117696197D01*
X131322996Y-117672993D01*
X131331054Y-117650471D01*
X131341282Y-117628847D01*
X131353579Y-117608330D01*
X131367829Y-117589117D01*
X131383893Y-117571393D01*
X131401617Y-117555329D01*
X131420830Y-117541079D01*
X131441347Y-117528782D01*
X131462971Y-117518554D01*
X131485493Y-117510496D01*
X131508697Y-117504684D01*
X131532358Y-117501174D01*
X131556250Y-117500000D01*
X132043750Y-117500000D01*
X132067642Y-117501174D01*
X132067642Y-117501174D01*
G37*
D12*
G04 #@! TD*
G04 #@! TO.P,R2,2*
G04 #@! TO.N,+3V3*
X131800000Y-118200000D03*
D11*
G04 #@! TO.N,Net-(D2-Pad2)*
G04 #@! TO.C,R2*
G36*
X130192642Y-117501174D02*
X130216303Y-117504684D01*
X130239507Y-117510496D01*
X130262029Y-117518554D01*
X130283653Y-117528782D01*
X130304170Y-117541079D01*
X130323383Y-117555329D01*
X130341107Y-117571393D01*
X130357171Y-117589117D01*
X130371421Y-117608330D01*
X130383718Y-117628847D01*
X130393946Y-117650471D01*
X130402004Y-117672993D01*
X130407816Y-117696197D01*
X130411326Y-117719858D01*
X130412500Y-117743750D01*
X130412500Y-118656250D01*
X130411326Y-118680142D01*
X130407816Y-118703803D01*
X130402004Y-118727007D01*
X130393946Y-118749529D01*
X130383718Y-118771153D01*
X130371421Y-118791670D01*
X130357171Y-118810883D01*
X130341107Y-118828607D01*
X130323383Y-118844671D01*
X130304170Y-118858921D01*
X130283653Y-118871218D01*
X130262029Y-118881446D01*
X130239507Y-118889504D01*
X130216303Y-118895316D01*
X130192642Y-118898826D01*
X130168750Y-118900000D01*
X129681250Y-118900000D01*
X129657358Y-118898826D01*
X129633697Y-118895316D01*
X129610493Y-118889504D01*
X129587971Y-118881446D01*
X129566347Y-118871218D01*
X129545830Y-118858921D01*
X129526617Y-118844671D01*
X129508893Y-118828607D01*
X129492829Y-118810883D01*
X129478579Y-118791670D01*
X129466282Y-118771153D01*
X129456054Y-118749529D01*
X129447996Y-118727007D01*
X129442184Y-118703803D01*
X129438674Y-118680142D01*
X129437500Y-118656250D01*
X129437500Y-117743750D01*
X129438674Y-117719858D01*
X129442184Y-117696197D01*
X129447996Y-117672993D01*
X129456054Y-117650471D01*
X129466282Y-117628847D01*
X129478579Y-117608330D01*
X129492829Y-117589117D01*
X129508893Y-117571393D01*
X129526617Y-117555329D01*
X129545830Y-117541079D01*
X129566347Y-117528782D01*
X129587971Y-117518554D01*
X129610493Y-117510496D01*
X129633697Y-117504684D01*
X129657358Y-117501174D01*
X129681250Y-117500000D01*
X130168750Y-117500000D01*
X130192642Y-117501174D01*
X130192642Y-117501174D01*
G37*
D12*
G04 #@! TD*
G04 #@! TO.P,R2,1*
G04 #@! TO.N,Net-(D2-Pad2)*
X129925000Y-118200000D03*
D11*
G04 #@! TO.N,Net-(R14-Pad1)*
G04 #@! TO.C,R14*
G36*
X120880142Y-76533674D02*
X120903803Y-76537184D01*
X120927007Y-76542996D01*
X120949529Y-76551054D01*
X120971153Y-76561282D01*
X120991670Y-76573579D01*
X121010883Y-76587829D01*
X121028607Y-76603893D01*
X121044671Y-76621617D01*
X121058921Y-76640830D01*
X121071218Y-76661347D01*
X121081446Y-76682971D01*
X121089504Y-76705493D01*
X121095316Y-76728697D01*
X121098826Y-76752358D01*
X121100000Y-76776250D01*
X121100000Y-77263750D01*
X121098826Y-77287642D01*
X121095316Y-77311303D01*
X121089504Y-77334507D01*
X121081446Y-77357029D01*
X121071218Y-77378653D01*
X121058921Y-77399170D01*
X121044671Y-77418383D01*
X121028607Y-77436107D01*
X121010883Y-77452171D01*
X120991670Y-77466421D01*
X120971153Y-77478718D01*
X120949529Y-77488946D01*
X120927007Y-77497004D01*
X120903803Y-77502816D01*
X120880142Y-77506326D01*
X120856250Y-77507500D01*
X119943750Y-77507500D01*
X119919858Y-77506326D01*
X119896197Y-77502816D01*
X119872993Y-77497004D01*
X119850471Y-77488946D01*
X119828847Y-77478718D01*
X119808330Y-77466421D01*
X119789117Y-77452171D01*
X119771393Y-77436107D01*
X119755329Y-77418383D01*
X119741079Y-77399170D01*
X119728782Y-77378653D01*
X119718554Y-77357029D01*
X119710496Y-77334507D01*
X119704684Y-77311303D01*
X119701174Y-77287642D01*
X119700000Y-77263750D01*
X119700000Y-76776250D01*
X119701174Y-76752358D01*
X119704684Y-76728697D01*
X119710496Y-76705493D01*
X119718554Y-76682971D01*
X119728782Y-76661347D01*
X119741079Y-76640830D01*
X119755329Y-76621617D01*
X119771393Y-76603893D01*
X119789117Y-76587829D01*
X119808330Y-76573579D01*
X119828847Y-76561282D01*
X119850471Y-76551054D01*
X119872993Y-76542996D01*
X119896197Y-76537184D01*
X119919858Y-76533674D01*
X119943750Y-76532500D01*
X120856250Y-76532500D01*
X120880142Y-76533674D01*
X120880142Y-76533674D01*
G37*
D12*
G04 #@! TD*
G04 #@! TO.P,R14,1*
G04 #@! TO.N,Net-(R14-Pad1)*
X120400000Y-77020000D03*
D11*
G04 #@! TO.N,Net-(R14-Pad2)*
G04 #@! TO.C,R14*
G36*
X120880142Y-78408674D02*
X120903803Y-78412184D01*
X120927007Y-78417996D01*
X120949529Y-78426054D01*
X120971153Y-78436282D01*
X120991670Y-78448579D01*
X121010883Y-78462829D01*
X121028607Y-78478893D01*
X121044671Y-78496617D01*
X121058921Y-78515830D01*
X121071218Y-78536347D01*
X121081446Y-78557971D01*
X121089504Y-78580493D01*
X121095316Y-78603697D01*
X121098826Y-78627358D01*
X121100000Y-78651250D01*
X121100000Y-79138750D01*
X121098826Y-79162642D01*
X121095316Y-79186303D01*
X121089504Y-79209507D01*
X121081446Y-79232029D01*
X121071218Y-79253653D01*
X121058921Y-79274170D01*
X121044671Y-79293383D01*
X121028607Y-79311107D01*
X121010883Y-79327171D01*
X120991670Y-79341421D01*
X120971153Y-79353718D01*
X120949529Y-79363946D01*
X120927007Y-79372004D01*
X120903803Y-79377816D01*
X120880142Y-79381326D01*
X120856250Y-79382500D01*
X119943750Y-79382500D01*
X119919858Y-79381326D01*
X119896197Y-79377816D01*
X119872993Y-79372004D01*
X119850471Y-79363946D01*
X119828847Y-79353718D01*
X119808330Y-79341421D01*
X119789117Y-79327171D01*
X119771393Y-79311107D01*
X119755329Y-79293383D01*
X119741079Y-79274170D01*
X119728782Y-79253653D01*
X119718554Y-79232029D01*
X119710496Y-79209507D01*
X119704684Y-79186303D01*
X119701174Y-79162642D01*
X119700000Y-79138750D01*
X119700000Y-78651250D01*
X119701174Y-78627358D01*
X119704684Y-78603697D01*
X119710496Y-78580493D01*
X119718554Y-78557971D01*
X119728782Y-78536347D01*
X119741079Y-78515830D01*
X119755329Y-78496617D01*
X119771393Y-78478893D01*
X119789117Y-78462829D01*
X119808330Y-78448579D01*
X119828847Y-78436282D01*
X119850471Y-78426054D01*
X119872993Y-78417996D01*
X119896197Y-78412184D01*
X119919858Y-78408674D01*
X119943750Y-78407500D01*
X120856250Y-78407500D01*
X120880142Y-78408674D01*
X120880142Y-78408674D01*
G37*
D12*
G04 #@! TD*
G04 #@! TO.P,R14,2*
G04 #@! TO.N,Net-(R14-Pad2)*
X120400000Y-78895000D03*
D11*
G04 #@! TO.N,Net-(R9-Pad2)*
G04 #@! TO.C,R9*
G36*
X131030142Y-78353674D02*
X131053803Y-78357184D01*
X131077007Y-78362996D01*
X131099529Y-78371054D01*
X131121153Y-78381282D01*
X131141670Y-78393579D01*
X131160883Y-78407829D01*
X131178607Y-78423893D01*
X131194671Y-78441617D01*
X131208921Y-78460830D01*
X131221218Y-78481347D01*
X131231446Y-78502971D01*
X131239504Y-78525493D01*
X131245316Y-78548697D01*
X131248826Y-78572358D01*
X131250000Y-78596250D01*
X131250000Y-79083750D01*
X131248826Y-79107642D01*
X131245316Y-79131303D01*
X131239504Y-79154507D01*
X131231446Y-79177029D01*
X131221218Y-79198653D01*
X131208921Y-79219170D01*
X131194671Y-79238383D01*
X131178607Y-79256107D01*
X131160883Y-79272171D01*
X131141670Y-79286421D01*
X131121153Y-79298718D01*
X131099529Y-79308946D01*
X131077007Y-79317004D01*
X131053803Y-79322816D01*
X131030142Y-79326326D01*
X131006250Y-79327500D01*
X130093750Y-79327500D01*
X130069858Y-79326326D01*
X130046197Y-79322816D01*
X130022993Y-79317004D01*
X130000471Y-79308946D01*
X129978847Y-79298718D01*
X129958330Y-79286421D01*
X129939117Y-79272171D01*
X129921393Y-79256107D01*
X129905329Y-79238383D01*
X129891079Y-79219170D01*
X129878782Y-79198653D01*
X129868554Y-79177029D01*
X129860496Y-79154507D01*
X129854684Y-79131303D01*
X129851174Y-79107642D01*
X129850000Y-79083750D01*
X129850000Y-78596250D01*
X129851174Y-78572358D01*
X129854684Y-78548697D01*
X129860496Y-78525493D01*
X129868554Y-78502971D01*
X129878782Y-78481347D01*
X129891079Y-78460830D01*
X129905329Y-78441617D01*
X129921393Y-78423893D01*
X129939117Y-78407829D01*
X129958330Y-78393579D01*
X129978847Y-78381282D01*
X130000471Y-78371054D01*
X130022993Y-78362996D01*
X130046197Y-78357184D01*
X130069858Y-78353674D01*
X130093750Y-78352500D01*
X131006250Y-78352500D01*
X131030142Y-78353674D01*
X131030142Y-78353674D01*
G37*
D12*
G04 #@! TD*
G04 #@! TO.P,R9,2*
G04 #@! TO.N,Net-(R9-Pad2)*
X130550000Y-78840000D03*
D11*
G04 #@! TO.N,Net-(R9-Pad1)*
G04 #@! TO.C,R9*
G36*
X131030142Y-76478674D02*
X131053803Y-76482184D01*
X131077007Y-76487996D01*
X131099529Y-76496054D01*
X131121153Y-76506282D01*
X131141670Y-76518579D01*
X131160883Y-76532829D01*
X131178607Y-76548893D01*
X131194671Y-76566617D01*
X131208921Y-76585830D01*
X131221218Y-76606347D01*
X131231446Y-76627971D01*
X131239504Y-76650493D01*
X131245316Y-76673697D01*
X131248826Y-76697358D01*
X131250000Y-76721250D01*
X131250000Y-77208750D01*
X131248826Y-77232642D01*
X131245316Y-77256303D01*
X131239504Y-77279507D01*
X131231446Y-77302029D01*
X131221218Y-77323653D01*
X131208921Y-77344170D01*
X131194671Y-77363383D01*
X131178607Y-77381107D01*
X131160883Y-77397171D01*
X131141670Y-77411421D01*
X131121153Y-77423718D01*
X131099529Y-77433946D01*
X131077007Y-77442004D01*
X131053803Y-77447816D01*
X131030142Y-77451326D01*
X131006250Y-77452500D01*
X130093750Y-77452500D01*
X130069858Y-77451326D01*
X130046197Y-77447816D01*
X130022993Y-77442004D01*
X130000471Y-77433946D01*
X129978847Y-77423718D01*
X129958330Y-77411421D01*
X129939117Y-77397171D01*
X129921393Y-77381107D01*
X129905329Y-77363383D01*
X129891079Y-77344170D01*
X129878782Y-77323653D01*
X129868554Y-77302029D01*
X129860496Y-77279507D01*
X129854684Y-77256303D01*
X129851174Y-77232642D01*
X129850000Y-77208750D01*
X129850000Y-76721250D01*
X129851174Y-76697358D01*
X129854684Y-76673697D01*
X129860496Y-76650493D01*
X129868554Y-76627971D01*
X129878782Y-76606347D01*
X129891079Y-76585830D01*
X129905329Y-76566617D01*
X129921393Y-76548893D01*
X129939117Y-76532829D01*
X129958330Y-76518579D01*
X129978847Y-76506282D01*
X130000471Y-76496054D01*
X130022993Y-76487996D01*
X130046197Y-76482184D01*
X130069858Y-76478674D01*
X130093750Y-76477500D01*
X131006250Y-76477500D01*
X131030142Y-76478674D01*
X131030142Y-76478674D01*
G37*
D12*
G04 #@! TD*
G04 #@! TO.P,R9,1*
G04 #@! TO.N,Net-(R9-Pad1)*
X130550000Y-76965000D03*
D16*
G04 #@! TO.P,D2,1*
G04 #@! TO.N,/LED1*
X124300000Y-118200000D03*
D17*
G04 #@! TO.P,D2,2*
G04 #@! TO.N,Net-(D2-Pad2)*
X126840000Y-118200000D03*
G04 #@! TD*
G04 #@! TO.P,D3,2*
G04 #@! TO.N,Net-(D3-Pad2)*
X157700000Y-118200000D03*
D16*
G04 #@! TO.P,D3,1*
G04 #@! TO.N,/LED2*
X155160000Y-118200000D03*
G04 #@! TD*
D15*
G04 #@! TO.P,U7,1*
G04 #@! TO.N,Net-(Q4-Pad3)*
X182200000Y-111460001D03*
D14*
G04 #@! TO.P,U7,2*
G04 #@! TO.N,Net-(R12-Pad1)*
X184740000Y-111460001D03*
G04 #@! TO.P,U7,3*
G04 #@! TO.N,Net-(R11-Pad1)*
X187280000Y-111460001D03*
G04 #@! TO.P,U7,4*
G04 #@! TO.N,Net-(R10-Pad1)*
X189820000Y-111460001D03*
G04 #@! TO.P,U7,5*
G04 #@! TO.N,Net-(Q4-Pad3)*
X192360000Y-111460001D03*
G04 #@! TO.P,U7,6*
G04 #@! TO.N,Net-(R9-Pad1)*
X192360000Y-70860001D03*
G04 #@! TO.P,U7,7*
G04 #@! TO.N,Net-(R8-Pad1)*
X189820000Y-70860001D03*
G04 #@! TO.P,U7,8*
G04 #@! TO.N,N/C*
X187280000Y-70860001D03*
G04 #@! TO.P,U7,9*
G04 #@! TO.N,Net-(R13-Pad1)*
X184740000Y-70860001D03*
G04 #@! TO.P,U7,10*
G04 #@! TO.N,Net-(R14-Pad1)*
X182200000Y-70860001D03*
G04 #@! TD*
D26*
G04 #@! TO.P,U3,1*
G04 #@! TO.N,/LED2*
X148275000Y-87675000D03*
G04 #@! TO.P,U3,2*
G04 #@! TO.N,Net-(C10-Pad1)*
X148275000Y-87025000D03*
G04 #@! TO.P,U3,3*
G04 #@! TO.N,Net-(C11-Pad1)*
X148275000Y-86375000D03*
G04 #@! TO.P,U3,4*
G04 #@! TO.N,/RESET*
X148275000Y-85725000D03*
G04 #@! TO.P,U3,5*
G04 #@! TO.N,+3V3*
X148275000Y-85075000D03*
G04 #@! TO.P,U3,6*
G04 #@! TO.N,/A*
X148275000Y-84425000D03*
G04 #@! TO.P,U3,7*
G04 #@! TO.N,/D*
X148275000Y-83775000D03*
G04 #@! TO.P,U3,8*
G04 #@! TO.N,/C*
X148275000Y-83125000D03*
G04 #@! TO.P,U3,9*
G04 #@! TO.N,/B*
X148275000Y-82475000D03*
G04 #@! TO.P,U3,10*
G04 #@! TO.N,/LED1*
X148275000Y-81825000D03*
G04 #@! TO.P,U3,11*
G04 #@! TO.N,/SEG1*
X154175000Y-81825000D03*
G04 #@! TO.P,U3,12*
G04 #@! TO.N,/SEG2*
X154175000Y-82475000D03*
G04 #@! TO.P,U3,13*
G04 #@! TO.N,/SEG3*
X154175000Y-83125000D03*
G04 #@! TO.P,U3,14*
G04 #@! TO.N,/LED3*
X154175000Y-83775000D03*
G04 #@! TO.P,U3,15*
G04 #@! TO.N,GND*
X154175000Y-84425000D03*
G04 #@! TO.P,U3,16*
G04 #@! TO.N,+3V3*
X154175000Y-85075000D03*
G04 #@! TO.P,U3,17*
G04 #@! TO.N,/CAN_RX*
X154175000Y-85725000D03*
G04 #@! TO.P,U3,18*
G04 #@! TO.N,/CAN_TX*
X154175000Y-86375000D03*
G04 #@! TO.P,U3,19*
G04 #@! TO.N,/SWDIO*
X154175000Y-87025000D03*
G04 #@! TO.P,U3,20*
G04 #@! TO.N,/SWCLK*
X154175000Y-87675000D03*
G04 #@! TD*
D11*
G04 #@! TO.N,Net-(Q3-Pad1)*
G04 #@! TO.C,R21*
G36*
X160112642Y-103691174D02*
X160136303Y-103694684D01*
X160159507Y-103700496D01*
X160182029Y-103708554D01*
X160203653Y-103718782D01*
X160224170Y-103731079D01*
X160243383Y-103745329D01*
X160261107Y-103761393D01*
X160277171Y-103779117D01*
X160291421Y-103798330D01*
X160303718Y-103818847D01*
X160313946Y-103840471D01*
X160322004Y-103862993D01*
X160327816Y-103886197D01*
X160331326Y-103909858D01*
X160332500Y-103933750D01*
X160332500Y-104846250D01*
X160331326Y-104870142D01*
X160327816Y-104893803D01*
X160322004Y-104917007D01*
X160313946Y-104939529D01*
X160303718Y-104961153D01*
X160291421Y-104981670D01*
X160277171Y-105000883D01*
X160261107Y-105018607D01*
X160243383Y-105034671D01*
X160224170Y-105048921D01*
X160203653Y-105061218D01*
X160182029Y-105071446D01*
X160159507Y-105079504D01*
X160136303Y-105085316D01*
X160112642Y-105088826D01*
X160088750Y-105090000D01*
X159601250Y-105090000D01*
X159577358Y-105088826D01*
X159553697Y-105085316D01*
X159530493Y-105079504D01*
X159507971Y-105071446D01*
X159486347Y-105061218D01*
X159465830Y-105048921D01*
X159446617Y-105034671D01*
X159428893Y-105018607D01*
X159412829Y-105000883D01*
X159398579Y-104981670D01*
X159386282Y-104961153D01*
X159376054Y-104939529D01*
X159367996Y-104917007D01*
X159362184Y-104893803D01*
X159358674Y-104870142D01*
X159357500Y-104846250D01*
X159357500Y-103933750D01*
X159358674Y-103909858D01*
X159362184Y-103886197D01*
X159367996Y-103862993D01*
X159376054Y-103840471D01*
X159386282Y-103818847D01*
X159398579Y-103798330D01*
X159412829Y-103779117D01*
X159428893Y-103761393D01*
X159446617Y-103745329D01*
X159465830Y-103731079D01*
X159486347Y-103718782D01*
X159507971Y-103708554D01*
X159530493Y-103700496D01*
X159553697Y-103694684D01*
X159577358Y-103691174D01*
X159601250Y-103690000D01*
X160088750Y-103690000D01*
X160112642Y-103691174D01*
X160112642Y-103691174D01*
G37*
D12*
G04 #@! TD*
G04 #@! TO.P,R21,2*
G04 #@! TO.N,Net-(Q3-Pad1)*
X159845000Y-104390000D03*
D11*
G04 #@! TO.N,+5V*
G04 #@! TO.C,R21*
G36*
X161987642Y-103691174D02*
X162011303Y-103694684D01*
X162034507Y-103700496D01*
X162057029Y-103708554D01*
X162078653Y-103718782D01*
X162099170Y-103731079D01*
X162118383Y-103745329D01*
X162136107Y-103761393D01*
X162152171Y-103779117D01*
X162166421Y-103798330D01*
X162178718Y-103818847D01*
X162188946Y-103840471D01*
X162197004Y-103862993D01*
X162202816Y-103886197D01*
X162206326Y-103909858D01*
X162207500Y-103933750D01*
X162207500Y-104846250D01*
X162206326Y-104870142D01*
X162202816Y-104893803D01*
X162197004Y-104917007D01*
X162188946Y-104939529D01*
X162178718Y-104961153D01*
X162166421Y-104981670D01*
X162152171Y-105000883D01*
X162136107Y-105018607D01*
X162118383Y-105034671D01*
X162099170Y-105048921D01*
X162078653Y-105061218D01*
X162057029Y-105071446D01*
X162034507Y-105079504D01*
X162011303Y-105085316D01*
X161987642Y-105088826D01*
X161963750Y-105090000D01*
X161476250Y-105090000D01*
X161452358Y-105088826D01*
X161428697Y-105085316D01*
X161405493Y-105079504D01*
X161382971Y-105071446D01*
X161361347Y-105061218D01*
X161340830Y-105048921D01*
X161321617Y-105034671D01*
X161303893Y-105018607D01*
X161287829Y-105000883D01*
X161273579Y-104981670D01*
X161261282Y-104961153D01*
X161251054Y-104939529D01*
X161242996Y-104917007D01*
X161237184Y-104893803D01*
X161233674Y-104870142D01*
X161232500Y-104846250D01*
X161232500Y-103933750D01*
X161233674Y-103909858D01*
X161237184Y-103886197D01*
X161242996Y-103862993D01*
X161251054Y-103840471D01*
X161261282Y-103818847D01*
X161273579Y-103798330D01*
X161287829Y-103779117D01*
X161303893Y-103761393D01*
X161321617Y-103745329D01*
X161340830Y-103731079D01*
X161361347Y-103718782D01*
X161382971Y-103708554D01*
X161405493Y-103700496D01*
X161428697Y-103694684D01*
X161452358Y-103691174D01*
X161476250Y-103690000D01*
X161963750Y-103690000D01*
X161987642Y-103691174D01*
X161987642Y-103691174D01*
G37*
D12*
G04 #@! TD*
G04 #@! TO.P,R21,1*
G04 #@! TO.N,+5V*
X161720000Y-104390000D03*
D11*
G04 #@! TO.N,Net-(JP1-Pad2)*
G04 #@! TO.C,R1*
G36*
X203752642Y-88801174D02*
X203776303Y-88804684D01*
X203799507Y-88810496D01*
X203822029Y-88818554D01*
X203843653Y-88828782D01*
X203864170Y-88841079D01*
X203883383Y-88855329D01*
X203901107Y-88871393D01*
X203917171Y-88889117D01*
X203931421Y-88908330D01*
X203943718Y-88928847D01*
X203953946Y-88950471D01*
X203962004Y-88972993D01*
X203967816Y-88996197D01*
X203971326Y-89019858D01*
X203972500Y-89043750D01*
X203972500Y-89956250D01*
X203971326Y-89980142D01*
X203967816Y-90003803D01*
X203962004Y-90027007D01*
X203953946Y-90049529D01*
X203943718Y-90071153D01*
X203931421Y-90091670D01*
X203917171Y-90110883D01*
X203901107Y-90128607D01*
X203883383Y-90144671D01*
X203864170Y-90158921D01*
X203843653Y-90171218D01*
X203822029Y-90181446D01*
X203799507Y-90189504D01*
X203776303Y-90195316D01*
X203752642Y-90198826D01*
X203728750Y-90200000D01*
X203241250Y-90200000D01*
X203217358Y-90198826D01*
X203193697Y-90195316D01*
X203170493Y-90189504D01*
X203147971Y-90181446D01*
X203126347Y-90171218D01*
X203105830Y-90158921D01*
X203086617Y-90144671D01*
X203068893Y-90128607D01*
X203052829Y-90110883D01*
X203038579Y-90091670D01*
X203026282Y-90071153D01*
X203016054Y-90049529D01*
X203007996Y-90027007D01*
X203002184Y-90003803D01*
X202998674Y-89980142D01*
X202997500Y-89956250D01*
X202997500Y-89043750D01*
X202998674Y-89019858D01*
X203002184Y-88996197D01*
X203007996Y-88972993D01*
X203016054Y-88950471D01*
X203026282Y-88928847D01*
X203038579Y-88908330D01*
X203052829Y-88889117D01*
X203068893Y-88871393D01*
X203086617Y-88855329D01*
X203105830Y-88841079D01*
X203126347Y-88828782D01*
X203147971Y-88818554D01*
X203170493Y-88810496D01*
X203193697Y-88804684D01*
X203217358Y-88801174D01*
X203241250Y-88800000D01*
X203728750Y-88800000D01*
X203752642Y-88801174D01*
X203752642Y-88801174D01*
G37*
D12*
G04 #@! TD*
G04 #@! TO.P,R1,1*
G04 #@! TO.N,Net-(JP1-Pad2)*
X203485000Y-89500000D03*
D11*
G04 #@! TO.N,/CAN_L*
G04 #@! TO.C,R1*
G36*
X201877642Y-88801174D02*
X201901303Y-88804684D01*
X201924507Y-88810496D01*
X201947029Y-88818554D01*
X201968653Y-88828782D01*
X201989170Y-88841079D01*
X202008383Y-88855329D01*
X202026107Y-88871393D01*
X202042171Y-88889117D01*
X202056421Y-88908330D01*
X202068718Y-88928847D01*
X202078946Y-88950471D01*
X202087004Y-88972993D01*
X202092816Y-88996197D01*
X202096326Y-89019858D01*
X202097500Y-89043750D01*
X202097500Y-89956250D01*
X202096326Y-89980142D01*
X202092816Y-90003803D01*
X202087004Y-90027007D01*
X202078946Y-90049529D01*
X202068718Y-90071153D01*
X202056421Y-90091670D01*
X202042171Y-90110883D01*
X202026107Y-90128607D01*
X202008383Y-90144671D01*
X201989170Y-90158921D01*
X201968653Y-90171218D01*
X201947029Y-90181446D01*
X201924507Y-90189504D01*
X201901303Y-90195316D01*
X201877642Y-90198826D01*
X201853750Y-90200000D01*
X201366250Y-90200000D01*
X201342358Y-90198826D01*
X201318697Y-90195316D01*
X201295493Y-90189504D01*
X201272971Y-90181446D01*
X201251347Y-90171218D01*
X201230830Y-90158921D01*
X201211617Y-90144671D01*
X201193893Y-90128607D01*
X201177829Y-90110883D01*
X201163579Y-90091670D01*
X201151282Y-90071153D01*
X201141054Y-90049529D01*
X201132996Y-90027007D01*
X201127184Y-90003803D01*
X201123674Y-89980142D01*
X201122500Y-89956250D01*
X201122500Y-89043750D01*
X201123674Y-89019858D01*
X201127184Y-88996197D01*
X201132996Y-88972993D01*
X201141054Y-88950471D01*
X201151282Y-88928847D01*
X201163579Y-88908330D01*
X201177829Y-88889117D01*
X201193893Y-88871393D01*
X201211617Y-88855329D01*
X201230830Y-88841079D01*
X201251347Y-88828782D01*
X201272971Y-88818554D01*
X201295493Y-88810496D01*
X201318697Y-88804684D01*
X201342358Y-88801174D01*
X201366250Y-88800000D01*
X201853750Y-88800000D01*
X201877642Y-88801174D01*
X201877642Y-88801174D01*
G37*
D12*
G04 #@! TD*
G04 #@! TO.P,R1,2*
G04 #@! TO.N,/CAN_L*
X201610000Y-89500000D03*
D11*
G04 #@! TO.N,+3V3*
G04 #@! TO.C,R4*
G36*
X191280142Y-119513674D02*
X191303803Y-119517184D01*
X191327007Y-119522996D01*
X191349529Y-119531054D01*
X191371153Y-119541282D01*
X191391670Y-119553579D01*
X191410883Y-119567829D01*
X191428607Y-119583893D01*
X191444671Y-119601617D01*
X191458921Y-119620830D01*
X191471218Y-119641347D01*
X191481446Y-119662971D01*
X191489504Y-119685493D01*
X191495316Y-119708697D01*
X191498826Y-119732358D01*
X191500000Y-119756250D01*
X191500000Y-120243750D01*
X191498826Y-120267642D01*
X191495316Y-120291303D01*
X191489504Y-120314507D01*
X191481446Y-120337029D01*
X191471218Y-120358653D01*
X191458921Y-120379170D01*
X191444671Y-120398383D01*
X191428607Y-120416107D01*
X191410883Y-120432171D01*
X191391670Y-120446421D01*
X191371153Y-120458718D01*
X191349529Y-120468946D01*
X191327007Y-120477004D01*
X191303803Y-120482816D01*
X191280142Y-120486326D01*
X191256250Y-120487500D01*
X190343750Y-120487500D01*
X190319858Y-120486326D01*
X190296197Y-120482816D01*
X190272993Y-120477004D01*
X190250471Y-120468946D01*
X190228847Y-120458718D01*
X190208330Y-120446421D01*
X190189117Y-120432171D01*
X190171393Y-120416107D01*
X190155329Y-120398383D01*
X190141079Y-120379170D01*
X190128782Y-120358653D01*
X190118554Y-120337029D01*
X190110496Y-120314507D01*
X190104684Y-120291303D01*
X190101174Y-120267642D01*
X190100000Y-120243750D01*
X190100000Y-119756250D01*
X190101174Y-119732358D01*
X190104684Y-119708697D01*
X190110496Y-119685493D01*
X190118554Y-119662971D01*
X190128782Y-119641347D01*
X190141079Y-119620830D01*
X190155329Y-119601617D01*
X190171393Y-119583893D01*
X190189117Y-119567829D01*
X190208330Y-119553579D01*
X190228847Y-119541282D01*
X190250471Y-119531054D01*
X190272993Y-119522996D01*
X190296197Y-119517184D01*
X190319858Y-119513674D01*
X190343750Y-119512500D01*
X191256250Y-119512500D01*
X191280142Y-119513674D01*
X191280142Y-119513674D01*
G37*
D12*
G04 #@! TD*
G04 #@! TO.P,R4,2*
G04 #@! TO.N,+3V3*
X190800000Y-120000000D03*
D11*
G04 #@! TO.N,Net-(D4-Pad2)*
G04 #@! TO.C,R4*
G36*
X191280142Y-117638674D02*
X191303803Y-117642184D01*
X191327007Y-117647996D01*
X191349529Y-117656054D01*
X191371153Y-117666282D01*
X191391670Y-117678579D01*
X191410883Y-117692829D01*
X191428607Y-117708893D01*
X191444671Y-117726617D01*
X191458921Y-117745830D01*
X191471218Y-117766347D01*
X191481446Y-117787971D01*
X191489504Y-117810493D01*
X191495316Y-117833697D01*
X191498826Y-117857358D01*
X191500000Y-117881250D01*
X191500000Y-118368750D01*
X191498826Y-118392642D01*
X191495316Y-118416303D01*
X191489504Y-118439507D01*
X191481446Y-118462029D01*
X191471218Y-118483653D01*
X191458921Y-118504170D01*
X191444671Y-118523383D01*
X191428607Y-118541107D01*
X191410883Y-118557171D01*
X191391670Y-118571421D01*
X191371153Y-118583718D01*
X191349529Y-118593946D01*
X191327007Y-118602004D01*
X191303803Y-118607816D01*
X191280142Y-118611326D01*
X191256250Y-118612500D01*
X190343750Y-118612500D01*
X190319858Y-118611326D01*
X190296197Y-118607816D01*
X190272993Y-118602004D01*
X190250471Y-118593946D01*
X190228847Y-118583718D01*
X190208330Y-118571421D01*
X190189117Y-118557171D01*
X190171393Y-118541107D01*
X190155329Y-118523383D01*
X190141079Y-118504170D01*
X190128782Y-118483653D01*
X190118554Y-118462029D01*
X190110496Y-118439507D01*
X190104684Y-118416303D01*
X190101174Y-118392642D01*
X190100000Y-118368750D01*
X190100000Y-117881250D01*
X190101174Y-117857358D01*
X190104684Y-117833697D01*
X190110496Y-117810493D01*
X190118554Y-117787971D01*
X190128782Y-117766347D01*
X190141079Y-117745830D01*
X190155329Y-117726617D01*
X190171393Y-117708893D01*
X190189117Y-117692829D01*
X190208330Y-117678579D01*
X190228847Y-117666282D01*
X190250471Y-117656054D01*
X190272993Y-117647996D01*
X190296197Y-117642184D01*
X190319858Y-117638674D01*
X190343750Y-117637500D01*
X191256250Y-117637500D01*
X191280142Y-117638674D01*
X191280142Y-117638674D01*
G37*
D12*
G04 #@! TD*
G04 #@! TO.P,R4,1*
G04 #@! TO.N,Net-(D4-Pad2)*
X190800000Y-118125000D03*
D11*
G04 #@! TO.N,Net-(Q6-Pad3)*
G04 #@! TO.C,R22*
G36*
X156462642Y-103731174D02*
X156486303Y-103734684D01*
X156509507Y-103740496D01*
X156532029Y-103748554D01*
X156553653Y-103758782D01*
X156574170Y-103771079D01*
X156593383Y-103785329D01*
X156611107Y-103801393D01*
X156627171Y-103819117D01*
X156641421Y-103838330D01*
X156653718Y-103858847D01*
X156663946Y-103880471D01*
X156672004Y-103902993D01*
X156677816Y-103926197D01*
X156681326Y-103949858D01*
X156682500Y-103973750D01*
X156682500Y-104886250D01*
X156681326Y-104910142D01*
X156677816Y-104933803D01*
X156672004Y-104957007D01*
X156663946Y-104979529D01*
X156653718Y-105001153D01*
X156641421Y-105021670D01*
X156627171Y-105040883D01*
X156611107Y-105058607D01*
X156593383Y-105074671D01*
X156574170Y-105088921D01*
X156553653Y-105101218D01*
X156532029Y-105111446D01*
X156509507Y-105119504D01*
X156486303Y-105125316D01*
X156462642Y-105128826D01*
X156438750Y-105130000D01*
X155951250Y-105130000D01*
X155927358Y-105128826D01*
X155903697Y-105125316D01*
X155880493Y-105119504D01*
X155857971Y-105111446D01*
X155836347Y-105101218D01*
X155815830Y-105088921D01*
X155796617Y-105074671D01*
X155778893Y-105058607D01*
X155762829Y-105040883D01*
X155748579Y-105021670D01*
X155736282Y-105001153D01*
X155726054Y-104979529D01*
X155717996Y-104957007D01*
X155712184Y-104933803D01*
X155708674Y-104910142D01*
X155707500Y-104886250D01*
X155707500Y-103973750D01*
X155708674Y-103949858D01*
X155712184Y-103926197D01*
X155717996Y-103902993D01*
X155726054Y-103880471D01*
X155736282Y-103858847D01*
X155748579Y-103838330D01*
X155762829Y-103819117D01*
X155778893Y-103801393D01*
X155796617Y-103785329D01*
X155815830Y-103771079D01*
X155836347Y-103758782D01*
X155857971Y-103748554D01*
X155880493Y-103740496D01*
X155903697Y-103734684D01*
X155927358Y-103731174D01*
X155951250Y-103730000D01*
X156438750Y-103730000D01*
X156462642Y-103731174D01*
X156462642Y-103731174D01*
G37*
D12*
G04 #@! TD*
G04 #@! TO.P,R22,1*
G04 #@! TO.N,Net-(Q6-Pad3)*
X156195000Y-104430000D03*
D11*
G04 #@! TO.N,Net-(Q3-Pad1)*
G04 #@! TO.C,R22*
G36*
X158337642Y-103731174D02*
X158361303Y-103734684D01*
X158384507Y-103740496D01*
X158407029Y-103748554D01*
X158428653Y-103758782D01*
X158449170Y-103771079D01*
X158468383Y-103785329D01*
X158486107Y-103801393D01*
X158502171Y-103819117D01*
X158516421Y-103838330D01*
X158528718Y-103858847D01*
X158538946Y-103880471D01*
X158547004Y-103902993D01*
X158552816Y-103926197D01*
X158556326Y-103949858D01*
X158557500Y-103973750D01*
X158557500Y-104886250D01*
X158556326Y-104910142D01*
X158552816Y-104933803D01*
X158547004Y-104957007D01*
X158538946Y-104979529D01*
X158528718Y-105001153D01*
X158516421Y-105021670D01*
X158502171Y-105040883D01*
X158486107Y-105058607D01*
X158468383Y-105074671D01*
X158449170Y-105088921D01*
X158428653Y-105101218D01*
X158407029Y-105111446D01*
X158384507Y-105119504D01*
X158361303Y-105125316D01*
X158337642Y-105128826D01*
X158313750Y-105130000D01*
X157826250Y-105130000D01*
X157802358Y-105128826D01*
X157778697Y-105125316D01*
X157755493Y-105119504D01*
X157732971Y-105111446D01*
X157711347Y-105101218D01*
X157690830Y-105088921D01*
X157671617Y-105074671D01*
X157653893Y-105058607D01*
X157637829Y-105040883D01*
X157623579Y-105021670D01*
X157611282Y-105001153D01*
X157601054Y-104979529D01*
X157592996Y-104957007D01*
X157587184Y-104933803D01*
X157583674Y-104910142D01*
X157582500Y-104886250D01*
X157582500Y-103973750D01*
X157583674Y-103949858D01*
X157587184Y-103926197D01*
X157592996Y-103902993D01*
X157601054Y-103880471D01*
X157611282Y-103858847D01*
X157623579Y-103838330D01*
X157637829Y-103819117D01*
X157653893Y-103801393D01*
X157671617Y-103785329D01*
X157690830Y-103771079D01*
X157711347Y-103758782D01*
X157732971Y-103748554D01*
X157755493Y-103740496D01*
X157778697Y-103734684D01*
X157802358Y-103731174D01*
X157826250Y-103730000D01*
X158313750Y-103730000D01*
X158337642Y-103731174D01*
X158337642Y-103731174D01*
G37*
D12*
G04 #@! TD*
G04 #@! TO.P,R22,2*
G04 #@! TO.N,Net-(Q3-Pad1)*
X158070000Y-104430000D03*
D11*
G04 #@! TO.N,GND*
G04 #@! TO.C,C3*
G36*
X184777642Y-83301174D02*
X184801303Y-83304684D01*
X184824507Y-83310496D01*
X184847029Y-83318554D01*
X184868653Y-83328782D01*
X184889170Y-83341079D01*
X184908383Y-83355329D01*
X184926107Y-83371393D01*
X184942171Y-83389117D01*
X184956421Y-83408330D01*
X184968718Y-83428847D01*
X184978946Y-83450471D01*
X184987004Y-83472993D01*
X184992816Y-83496197D01*
X184996326Y-83519858D01*
X184997500Y-83543750D01*
X184997500Y-84456250D01*
X184996326Y-84480142D01*
X184992816Y-84503803D01*
X184987004Y-84527007D01*
X184978946Y-84549529D01*
X184968718Y-84571153D01*
X184956421Y-84591670D01*
X184942171Y-84610883D01*
X184926107Y-84628607D01*
X184908383Y-84644671D01*
X184889170Y-84658921D01*
X184868653Y-84671218D01*
X184847029Y-84681446D01*
X184824507Y-84689504D01*
X184801303Y-84695316D01*
X184777642Y-84698826D01*
X184753750Y-84700000D01*
X184266250Y-84700000D01*
X184242358Y-84698826D01*
X184218697Y-84695316D01*
X184195493Y-84689504D01*
X184172971Y-84681446D01*
X184151347Y-84671218D01*
X184130830Y-84658921D01*
X184111617Y-84644671D01*
X184093893Y-84628607D01*
X184077829Y-84610883D01*
X184063579Y-84591670D01*
X184051282Y-84571153D01*
X184041054Y-84549529D01*
X184032996Y-84527007D01*
X184027184Y-84503803D01*
X184023674Y-84480142D01*
X184022500Y-84456250D01*
X184022500Y-83543750D01*
X184023674Y-83519858D01*
X184027184Y-83496197D01*
X184032996Y-83472993D01*
X184041054Y-83450471D01*
X184051282Y-83428847D01*
X184063579Y-83408330D01*
X184077829Y-83389117D01*
X184093893Y-83371393D01*
X184111617Y-83355329D01*
X184130830Y-83341079D01*
X184151347Y-83328782D01*
X184172971Y-83318554D01*
X184195493Y-83310496D01*
X184218697Y-83304684D01*
X184242358Y-83301174D01*
X184266250Y-83300000D01*
X184753750Y-83300000D01*
X184777642Y-83301174D01*
X184777642Y-83301174D01*
G37*
D12*
G04 #@! TD*
G04 #@! TO.P,C3,2*
G04 #@! TO.N,GND*
X184510000Y-84000000D03*
D11*
G04 #@! TO.N,+5V*
G04 #@! TO.C,C3*
G36*
X182902642Y-83301174D02*
X182926303Y-83304684D01*
X182949507Y-83310496D01*
X182972029Y-83318554D01*
X182993653Y-83328782D01*
X183014170Y-83341079D01*
X183033383Y-83355329D01*
X183051107Y-83371393D01*
X183067171Y-83389117D01*
X183081421Y-83408330D01*
X183093718Y-83428847D01*
X183103946Y-83450471D01*
X183112004Y-83472993D01*
X183117816Y-83496197D01*
X183121326Y-83519858D01*
X183122500Y-83543750D01*
X183122500Y-84456250D01*
X183121326Y-84480142D01*
X183117816Y-84503803D01*
X183112004Y-84527007D01*
X183103946Y-84549529D01*
X183093718Y-84571153D01*
X183081421Y-84591670D01*
X183067171Y-84610883D01*
X183051107Y-84628607D01*
X183033383Y-84644671D01*
X183014170Y-84658921D01*
X182993653Y-84671218D01*
X182972029Y-84681446D01*
X182949507Y-84689504D01*
X182926303Y-84695316D01*
X182902642Y-84698826D01*
X182878750Y-84700000D01*
X182391250Y-84700000D01*
X182367358Y-84698826D01*
X182343697Y-84695316D01*
X182320493Y-84689504D01*
X182297971Y-84681446D01*
X182276347Y-84671218D01*
X182255830Y-84658921D01*
X182236617Y-84644671D01*
X182218893Y-84628607D01*
X182202829Y-84610883D01*
X182188579Y-84591670D01*
X182176282Y-84571153D01*
X182166054Y-84549529D01*
X182157996Y-84527007D01*
X182152184Y-84503803D01*
X182148674Y-84480142D01*
X182147500Y-84456250D01*
X182147500Y-83543750D01*
X182148674Y-83519858D01*
X182152184Y-83496197D01*
X182157996Y-83472993D01*
X182166054Y-83450471D01*
X182176282Y-83428847D01*
X182188579Y-83408330D01*
X182202829Y-83389117D01*
X182218893Y-83371393D01*
X182236617Y-83355329D01*
X182255830Y-83341079D01*
X182276347Y-83328782D01*
X182297971Y-83318554D01*
X182320493Y-83310496D01*
X182343697Y-83304684D01*
X182367358Y-83301174D01*
X182391250Y-83300000D01*
X182878750Y-83300000D01*
X182902642Y-83301174D01*
X182902642Y-83301174D01*
G37*
D12*
G04 #@! TD*
G04 #@! TO.P,C3,1*
G04 #@! TO.N,+5V*
X182635000Y-84000000D03*
D11*
G04 #@! TO.N,+3V3*
G04 #@! TO.C,C2*
G36*
X168267642Y-84351174D02*
X168291303Y-84354684D01*
X168314507Y-84360496D01*
X168337029Y-84368554D01*
X168358653Y-84378782D01*
X168379170Y-84391079D01*
X168398383Y-84405329D01*
X168416107Y-84421393D01*
X168432171Y-84439117D01*
X168446421Y-84458330D01*
X168458718Y-84478847D01*
X168468946Y-84500471D01*
X168477004Y-84522993D01*
X168482816Y-84546197D01*
X168486326Y-84569858D01*
X168487500Y-84593750D01*
X168487500Y-85506250D01*
X168486326Y-85530142D01*
X168482816Y-85553803D01*
X168477004Y-85577007D01*
X168468946Y-85599529D01*
X168458718Y-85621153D01*
X168446421Y-85641670D01*
X168432171Y-85660883D01*
X168416107Y-85678607D01*
X168398383Y-85694671D01*
X168379170Y-85708921D01*
X168358653Y-85721218D01*
X168337029Y-85731446D01*
X168314507Y-85739504D01*
X168291303Y-85745316D01*
X168267642Y-85748826D01*
X168243750Y-85750000D01*
X167756250Y-85750000D01*
X167732358Y-85748826D01*
X167708697Y-85745316D01*
X167685493Y-85739504D01*
X167662971Y-85731446D01*
X167641347Y-85721218D01*
X167620830Y-85708921D01*
X167601617Y-85694671D01*
X167583893Y-85678607D01*
X167567829Y-85660883D01*
X167553579Y-85641670D01*
X167541282Y-85621153D01*
X167531054Y-85599529D01*
X167522996Y-85577007D01*
X167517184Y-85553803D01*
X167513674Y-85530142D01*
X167512500Y-85506250D01*
X167512500Y-84593750D01*
X167513674Y-84569858D01*
X167517184Y-84546197D01*
X167522996Y-84522993D01*
X167531054Y-84500471D01*
X167541282Y-84478847D01*
X167553579Y-84458330D01*
X167567829Y-84439117D01*
X167583893Y-84421393D01*
X167601617Y-84405329D01*
X167620830Y-84391079D01*
X167641347Y-84378782D01*
X167662971Y-84368554D01*
X167685493Y-84360496D01*
X167708697Y-84354684D01*
X167732358Y-84351174D01*
X167756250Y-84350000D01*
X168243750Y-84350000D01*
X168267642Y-84351174D01*
X168267642Y-84351174D01*
G37*
D12*
G04 #@! TD*
G04 #@! TO.P,C2,1*
G04 #@! TO.N,+3V3*
X168000000Y-85050000D03*
D11*
G04 #@! TO.N,GND*
G04 #@! TO.C,C2*
G36*
X166392642Y-84351174D02*
X166416303Y-84354684D01*
X166439507Y-84360496D01*
X166462029Y-84368554D01*
X166483653Y-84378782D01*
X166504170Y-84391079D01*
X166523383Y-84405329D01*
X166541107Y-84421393D01*
X166557171Y-84439117D01*
X166571421Y-84458330D01*
X166583718Y-84478847D01*
X166593946Y-84500471D01*
X166602004Y-84522993D01*
X166607816Y-84546197D01*
X166611326Y-84569858D01*
X166612500Y-84593750D01*
X166612500Y-85506250D01*
X166611326Y-85530142D01*
X166607816Y-85553803D01*
X166602004Y-85577007D01*
X166593946Y-85599529D01*
X166583718Y-85621153D01*
X166571421Y-85641670D01*
X166557171Y-85660883D01*
X166541107Y-85678607D01*
X166523383Y-85694671D01*
X166504170Y-85708921D01*
X166483653Y-85721218D01*
X166462029Y-85731446D01*
X166439507Y-85739504D01*
X166416303Y-85745316D01*
X166392642Y-85748826D01*
X166368750Y-85750000D01*
X165881250Y-85750000D01*
X165857358Y-85748826D01*
X165833697Y-85745316D01*
X165810493Y-85739504D01*
X165787971Y-85731446D01*
X165766347Y-85721218D01*
X165745830Y-85708921D01*
X165726617Y-85694671D01*
X165708893Y-85678607D01*
X165692829Y-85660883D01*
X165678579Y-85641670D01*
X165666282Y-85621153D01*
X165656054Y-85599529D01*
X165647996Y-85577007D01*
X165642184Y-85553803D01*
X165638674Y-85530142D01*
X165637500Y-85506250D01*
X165637500Y-84593750D01*
X165638674Y-84569858D01*
X165642184Y-84546197D01*
X165647996Y-84522993D01*
X165656054Y-84500471D01*
X165666282Y-84478847D01*
X165678579Y-84458330D01*
X165692829Y-84439117D01*
X165708893Y-84421393D01*
X165726617Y-84405329D01*
X165745830Y-84391079D01*
X165766347Y-84378782D01*
X165787971Y-84368554D01*
X165810493Y-84360496D01*
X165833697Y-84354684D01*
X165857358Y-84351174D01*
X165881250Y-84350000D01*
X166368750Y-84350000D01*
X166392642Y-84351174D01*
X166392642Y-84351174D01*
G37*
D12*
G04 #@! TD*
G04 #@! TO.P,C2,2*
G04 #@! TO.N,GND*
X166125000Y-85050000D03*
D27*
G04 #@! TO.P,J2,1*
G04 #@! TO.N,+3V3*
X184400000Y-93200000D03*
D28*
G04 #@! TO.P,J2,2*
G04 #@! TO.N,/SWCLK*
X184400000Y-95740000D03*
G04 #@! TO.P,J2,3*
G04 #@! TO.N,GND*
X184400000Y-98280000D03*
G04 #@! TO.P,J2,4*
G04 #@! TO.N,/SWDIO*
X184400000Y-100820000D03*
G04 #@! TO.P,J2,5*
G04 #@! TO.N,/RESET*
X184400000Y-103360000D03*
G04 #@! TD*
D10*
G04 #@! TO.P,Q6,1*
G04 #@! TO.N,Net-(Q6-Pad1)*
X153340000Y-103420000D03*
G04 #@! TO.P,Q6,2*
G04 #@! TO.N,GND*
X153340000Y-101520000D03*
G04 #@! TO.P,Q6,3*
G04 #@! TO.N,Net-(Q6-Pad3)*
X155340000Y-102470000D03*
G04 #@! TD*
D29*
G04 #@! TO.P,JP1,2*
G04 #@! TO.N,Net-(JP1-Pad2)*
X203330000Y-91770000D03*
D11*
G04 #@! TD*
G04 #@! TO.N,Net-(JP1-Pad2)*
G04 #@! TO.C,JP1*
G36*
X203830000Y-92520000D02*
X202680000Y-92520000D01*
X203180000Y-91770000D01*
X202680000Y-91020000D01*
X203830000Y-91020000D01*
X203830000Y-92520000D01*
X203830000Y-92520000D01*
G37*
D29*
G04 #@! TO.P,JP1,1*
G04 #@! TO.N,/CAN_H*
X201880000Y-91770000D03*
D11*
G04 #@! TD*
G04 #@! TO.N,/CAN_H*
G04 #@! TO.C,JP1*
G36*
X202880000Y-91770000D02*
X202380000Y-92520000D01*
X201380000Y-92520000D01*
X201380000Y-91020000D01*
X202380000Y-91020000D01*
X202880000Y-91770000D01*
X202880000Y-91770000D01*
G37*
G04 #@! TO.N,Net-(R8-Pad2)*
G04 #@! TO.C,R8*
G36*
X128480142Y-78363674D02*
X128503803Y-78367184D01*
X128527007Y-78372996D01*
X128549529Y-78381054D01*
X128571153Y-78391282D01*
X128591670Y-78403579D01*
X128610883Y-78417829D01*
X128628607Y-78433893D01*
X128644671Y-78451617D01*
X128658921Y-78470830D01*
X128671218Y-78491347D01*
X128681446Y-78512971D01*
X128689504Y-78535493D01*
X128695316Y-78558697D01*
X128698826Y-78582358D01*
X128700000Y-78606250D01*
X128700000Y-79093750D01*
X128698826Y-79117642D01*
X128695316Y-79141303D01*
X128689504Y-79164507D01*
X128681446Y-79187029D01*
X128671218Y-79208653D01*
X128658921Y-79229170D01*
X128644671Y-79248383D01*
X128628607Y-79266107D01*
X128610883Y-79282171D01*
X128591670Y-79296421D01*
X128571153Y-79308718D01*
X128549529Y-79318946D01*
X128527007Y-79327004D01*
X128503803Y-79332816D01*
X128480142Y-79336326D01*
X128456250Y-79337500D01*
X127543750Y-79337500D01*
X127519858Y-79336326D01*
X127496197Y-79332816D01*
X127472993Y-79327004D01*
X127450471Y-79318946D01*
X127428847Y-79308718D01*
X127408330Y-79296421D01*
X127389117Y-79282171D01*
X127371393Y-79266107D01*
X127355329Y-79248383D01*
X127341079Y-79229170D01*
X127328782Y-79208653D01*
X127318554Y-79187029D01*
X127310496Y-79164507D01*
X127304684Y-79141303D01*
X127301174Y-79117642D01*
X127300000Y-79093750D01*
X127300000Y-78606250D01*
X127301174Y-78582358D01*
X127304684Y-78558697D01*
X127310496Y-78535493D01*
X127318554Y-78512971D01*
X127328782Y-78491347D01*
X127341079Y-78470830D01*
X127355329Y-78451617D01*
X127371393Y-78433893D01*
X127389117Y-78417829D01*
X127408330Y-78403579D01*
X127428847Y-78391282D01*
X127450471Y-78381054D01*
X127472993Y-78372996D01*
X127496197Y-78367184D01*
X127519858Y-78363674D01*
X127543750Y-78362500D01*
X128456250Y-78362500D01*
X128480142Y-78363674D01*
X128480142Y-78363674D01*
G37*
D12*
G04 #@! TD*
G04 #@! TO.P,R8,2*
G04 #@! TO.N,Net-(R8-Pad2)*
X128000000Y-78850000D03*
D11*
G04 #@! TO.N,Net-(R8-Pad1)*
G04 #@! TO.C,R8*
G36*
X128480142Y-76488674D02*
X128503803Y-76492184D01*
X128527007Y-76497996D01*
X128549529Y-76506054D01*
X128571153Y-76516282D01*
X128591670Y-76528579D01*
X128610883Y-76542829D01*
X128628607Y-76558893D01*
X128644671Y-76576617D01*
X128658921Y-76595830D01*
X128671218Y-76616347D01*
X128681446Y-76637971D01*
X128689504Y-76660493D01*
X128695316Y-76683697D01*
X128698826Y-76707358D01*
X128700000Y-76731250D01*
X128700000Y-77218750D01*
X128698826Y-77242642D01*
X128695316Y-77266303D01*
X128689504Y-77289507D01*
X128681446Y-77312029D01*
X128671218Y-77333653D01*
X128658921Y-77354170D01*
X128644671Y-77373383D01*
X128628607Y-77391107D01*
X128610883Y-77407171D01*
X128591670Y-77421421D01*
X128571153Y-77433718D01*
X128549529Y-77443946D01*
X128527007Y-77452004D01*
X128503803Y-77457816D01*
X128480142Y-77461326D01*
X128456250Y-77462500D01*
X127543750Y-77462500D01*
X127519858Y-77461326D01*
X127496197Y-77457816D01*
X127472993Y-77452004D01*
X127450471Y-77443946D01*
X127428847Y-77433718D01*
X127408330Y-77421421D01*
X127389117Y-77407171D01*
X127371393Y-77391107D01*
X127355329Y-77373383D01*
X127341079Y-77354170D01*
X127328782Y-77333653D01*
X127318554Y-77312029D01*
X127310496Y-77289507D01*
X127304684Y-77266303D01*
X127301174Y-77242642D01*
X127300000Y-77218750D01*
X127300000Y-76731250D01*
X127301174Y-76707358D01*
X127304684Y-76683697D01*
X127310496Y-76660493D01*
X127318554Y-76637971D01*
X127328782Y-76616347D01*
X127341079Y-76595830D01*
X127355329Y-76576617D01*
X127371393Y-76558893D01*
X127389117Y-76542829D01*
X127408330Y-76528579D01*
X127428847Y-76516282D01*
X127450471Y-76506054D01*
X127472993Y-76497996D01*
X127496197Y-76492184D01*
X127519858Y-76488674D01*
X127543750Y-76487500D01*
X128456250Y-76487500D01*
X128480142Y-76488674D01*
X128480142Y-76488674D01*
G37*
D12*
G04 #@! TD*
G04 #@! TO.P,R8,1*
G04 #@! TO.N,Net-(R8-Pad1)*
X128000000Y-76975000D03*
D11*
G04 #@! TO.N,Net-(Q6-Pad1)*
G04 #@! TO.C,R17*
G36*
X151580142Y-92051174D02*
X151603803Y-92054684D01*
X151627007Y-92060496D01*
X151649529Y-92068554D01*
X151671153Y-92078782D01*
X151691670Y-92091079D01*
X151710883Y-92105329D01*
X151728607Y-92121393D01*
X151744671Y-92139117D01*
X151758921Y-92158330D01*
X151771218Y-92178847D01*
X151781446Y-92200471D01*
X151789504Y-92222993D01*
X151795316Y-92246197D01*
X151798826Y-92269858D01*
X151800000Y-92293750D01*
X151800000Y-92781250D01*
X151798826Y-92805142D01*
X151795316Y-92828803D01*
X151789504Y-92852007D01*
X151781446Y-92874529D01*
X151771218Y-92896153D01*
X151758921Y-92916670D01*
X151744671Y-92935883D01*
X151728607Y-92953607D01*
X151710883Y-92969671D01*
X151691670Y-92983921D01*
X151671153Y-92996218D01*
X151649529Y-93006446D01*
X151627007Y-93014504D01*
X151603803Y-93020316D01*
X151580142Y-93023826D01*
X151556250Y-93025000D01*
X150643750Y-93025000D01*
X150619858Y-93023826D01*
X150596197Y-93020316D01*
X150572993Y-93014504D01*
X150550471Y-93006446D01*
X150528847Y-92996218D01*
X150508330Y-92983921D01*
X150489117Y-92969671D01*
X150471393Y-92953607D01*
X150455329Y-92935883D01*
X150441079Y-92916670D01*
X150428782Y-92896153D01*
X150418554Y-92874529D01*
X150410496Y-92852007D01*
X150404684Y-92828803D01*
X150401174Y-92805142D01*
X150400000Y-92781250D01*
X150400000Y-92293750D01*
X150401174Y-92269858D01*
X150404684Y-92246197D01*
X150410496Y-92222993D01*
X150418554Y-92200471D01*
X150428782Y-92178847D01*
X150441079Y-92158330D01*
X150455329Y-92139117D01*
X150471393Y-92121393D01*
X150489117Y-92105329D01*
X150508330Y-92091079D01*
X150528847Y-92078782D01*
X150550471Y-92068554D01*
X150572993Y-92060496D01*
X150596197Y-92054684D01*
X150619858Y-92051174D01*
X150643750Y-92050000D01*
X151556250Y-92050000D01*
X151580142Y-92051174D01*
X151580142Y-92051174D01*
G37*
D12*
G04 #@! TD*
G04 #@! TO.P,R17,1*
G04 #@! TO.N,Net-(Q6-Pad1)*
X151100000Y-92537500D03*
D11*
G04 #@! TO.N,/SEG2*
G04 #@! TO.C,R17*
G36*
X151580142Y-90176174D02*
X151603803Y-90179684D01*
X151627007Y-90185496D01*
X151649529Y-90193554D01*
X151671153Y-90203782D01*
X151691670Y-90216079D01*
X151710883Y-90230329D01*
X151728607Y-90246393D01*
X151744671Y-90264117D01*
X151758921Y-90283330D01*
X151771218Y-90303847D01*
X151781446Y-90325471D01*
X151789504Y-90347993D01*
X151795316Y-90371197D01*
X151798826Y-90394858D01*
X151800000Y-90418750D01*
X151800000Y-90906250D01*
X151798826Y-90930142D01*
X151795316Y-90953803D01*
X151789504Y-90977007D01*
X151781446Y-90999529D01*
X151771218Y-91021153D01*
X151758921Y-91041670D01*
X151744671Y-91060883D01*
X151728607Y-91078607D01*
X151710883Y-91094671D01*
X151691670Y-91108921D01*
X151671153Y-91121218D01*
X151649529Y-91131446D01*
X151627007Y-91139504D01*
X151603803Y-91145316D01*
X151580142Y-91148826D01*
X151556250Y-91150000D01*
X150643750Y-91150000D01*
X150619858Y-91148826D01*
X150596197Y-91145316D01*
X150572993Y-91139504D01*
X150550471Y-91131446D01*
X150528847Y-91121218D01*
X150508330Y-91108921D01*
X150489117Y-91094671D01*
X150471393Y-91078607D01*
X150455329Y-91060883D01*
X150441079Y-91041670D01*
X150428782Y-91021153D01*
X150418554Y-90999529D01*
X150410496Y-90977007D01*
X150404684Y-90953803D01*
X150401174Y-90930142D01*
X150400000Y-90906250D01*
X150400000Y-90418750D01*
X150401174Y-90394858D01*
X150404684Y-90371197D01*
X150410496Y-90347993D01*
X150418554Y-90325471D01*
X150428782Y-90303847D01*
X150441079Y-90283330D01*
X150455329Y-90264117D01*
X150471393Y-90246393D01*
X150489117Y-90230329D01*
X150508330Y-90216079D01*
X150528847Y-90203782D01*
X150550471Y-90193554D01*
X150572993Y-90185496D01*
X150596197Y-90179684D01*
X150619858Y-90176174D01*
X150643750Y-90175000D01*
X151556250Y-90175000D01*
X151580142Y-90176174D01*
X151580142Y-90176174D01*
G37*
D12*
G04 #@! TD*
G04 #@! TO.P,R17,2*
G04 #@! TO.N,/SEG2*
X151100000Y-90662500D03*
D11*
G04 #@! TO.N,Net-(C11-Pad1)*
G04 #@! TO.C,C11*
G36*
X140833521Y-86565956D02*
X140857182Y-86569466D01*
X140880386Y-86575278D01*
X140902908Y-86583336D01*
X140924532Y-86593564D01*
X140945049Y-86605861D01*
X140964262Y-86620111D01*
X140981986Y-86636175D01*
X140998050Y-86653899D01*
X141012300Y-86673112D01*
X141024597Y-86693629D01*
X141034825Y-86715253D01*
X141042883Y-86737775D01*
X141048695Y-86760979D01*
X141052205Y-86784640D01*
X141053379Y-86808532D01*
X141053379Y-87296032D01*
X141052205Y-87319924D01*
X141048695Y-87343585D01*
X141042883Y-87366789D01*
X141034825Y-87389311D01*
X141024597Y-87410935D01*
X141012300Y-87431452D01*
X140998050Y-87450665D01*
X140981986Y-87468389D01*
X140964262Y-87484453D01*
X140945049Y-87498703D01*
X140924532Y-87511000D01*
X140902908Y-87521228D01*
X140880386Y-87529286D01*
X140857182Y-87535098D01*
X140833521Y-87538608D01*
X140809629Y-87539782D01*
X139897129Y-87539782D01*
X139873237Y-87538608D01*
X139849576Y-87535098D01*
X139826372Y-87529286D01*
X139803850Y-87521228D01*
X139782226Y-87511000D01*
X139761709Y-87498703D01*
X139742496Y-87484453D01*
X139724772Y-87468389D01*
X139708708Y-87450665D01*
X139694458Y-87431452D01*
X139682161Y-87410935D01*
X139671933Y-87389311D01*
X139663875Y-87366789D01*
X139658063Y-87343585D01*
X139654553Y-87319924D01*
X139653379Y-87296032D01*
X139653379Y-86808532D01*
X139654553Y-86784640D01*
X139658063Y-86760979D01*
X139663875Y-86737775D01*
X139671933Y-86715253D01*
X139682161Y-86693629D01*
X139694458Y-86673112D01*
X139708708Y-86653899D01*
X139724772Y-86636175D01*
X139742496Y-86620111D01*
X139761709Y-86605861D01*
X139782226Y-86593564D01*
X139803850Y-86583336D01*
X139826372Y-86575278D01*
X139849576Y-86569466D01*
X139873237Y-86565956D01*
X139897129Y-86564782D01*
X140809629Y-86564782D01*
X140833521Y-86565956D01*
X140833521Y-86565956D01*
G37*
D12*
G04 #@! TD*
G04 #@! TO.P,C11,1*
G04 #@! TO.N,Net-(C11-Pad1)*
X140353379Y-87052282D03*
D11*
G04 #@! TO.N,GND*
G04 #@! TO.C,C11*
G36*
X140833521Y-88440956D02*
X140857182Y-88444466D01*
X140880386Y-88450278D01*
X140902908Y-88458336D01*
X140924532Y-88468564D01*
X140945049Y-88480861D01*
X140964262Y-88495111D01*
X140981986Y-88511175D01*
X140998050Y-88528899D01*
X141012300Y-88548112D01*
X141024597Y-88568629D01*
X141034825Y-88590253D01*
X141042883Y-88612775D01*
X141048695Y-88635979D01*
X141052205Y-88659640D01*
X141053379Y-88683532D01*
X141053379Y-89171032D01*
X141052205Y-89194924D01*
X141048695Y-89218585D01*
X141042883Y-89241789D01*
X141034825Y-89264311D01*
X141024597Y-89285935D01*
X141012300Y-89306452D01*
X140998050Y-89325665D01*
X140981986Y-89343389D01*
X140964262Y-89359453D01*
X140945049Y-89373703D01*
X140924532Y-89386000D01*
X140902908Y-89396228D01*
X140880386Y-89404286D01*
X140857182Y-89410098D01*
X140833521Y-89413608D01*
X140809629Y-89414782D01*
X139897129Y-89414782D01*
X139873237Y-89413608D01*
X139849576Y-89410098D01*
X139826372Y-89404286D01*
X139803850Y-89396228D01*
X139782226Y-89386000D01*
X139761709Y-89373703D01*
X139742496Y-89359453D01*
X139724772Y-89343389D01*
X139708708Y-89325665D01*
X139694458Y-89306452D01*
X139682161Y-89285935D01*
X139671933Y-89264311D01*
X139663875Y-89241789D01*
X139658063Y-89218585D01*
X139654553Y-89194924D01*
X139653379Y-89171032D01*
X139653379Y-88683532D01*
X139654553Y-88659640D01*
X139658063Y-88635979D01*
X139663875Y-88612775D01*
X139671933Y-88590253D01*
X139682161Y-88568629D01*
X139694458Y-88548112D01*
X139708708Y-88528899D01*
X139724772Y-88511175D01*
X139742496Y-88495111D01*
X139761709Y-88480861D01*
X139782226Y-88468564D01*
X139803850Y-88458336D01*
X139826372Y-88450278D01*
X139849576Y-88444466D01*
X139873237Y-88440956D01*
X139897129Y-88439782D01*
X140809629Y-88439782D01*
X140833521Y-88440956D01*
X140833521Y-88440956D01*
G37*
D12*
G04 #@! TD*
G04 #@! TO.P,C11,2*
G04 #@! TO.N,GND*
X140353379Y-88927282D03*
D30*
G04 #@! TO.P,Y1,1*
G04 #@! TO.N,Net-(C10-Pad1)*
X144643379Y-88817282D03*
G04 #@! TO.P,Y1,2*
G04 #@! TO.N,GND*
X142443379Y-88817282D03*
G04 #@! TO.P,Y1,3*
G04 #@! TO.N,Net-(C11-Pad1)*
X142443379Y-87117282D03*
G04 #@! TO.P,Y1,4*
G04 #@! TO.N,GND*
X144643379Y-87117282D03*
G04 #@! TD*
D15*
G04 #@! TO.P,U5,1*
G04 #@! TO.N,Net-(Q2-Pad3)*
X120400000Y-111450000D03*
D14*
G04 #@! TO.P,U5,2*
G04 #@! TO.N,Net-(R12-Pad1)*
X122940000Y-111450000D03*
G04 #@! TO.P,U5,3*
G04 #@! TO.N,Net-(R11-Pad1)*
X125480000Y-111450000D03*
G04 #@! TO.P,U5,4*
G04 #@! TO.N,Net-(R10-Pad1)*
X128020000Y-111450000D03*
G04 #@! TO.P,U5,5*
G04 #@! TO.N,Net-(Q2-Pad3)*
X130560000Y-111450000D03*
G04 #@! TO.P,U5,6*
G04 #@! TO.N,Net-(R9-Pad1)*
X130560000Y-70850000D03*
G04 #@! TO.P,U5,7*
G04 #@! TO.N,Net-(R8-Pad1)*
X128020000Y-70850000D03*
G04 #@! TO.P,U5,8*
G04 #@! TO.N,N/C*
X125480000Y-70850000D03*
G04 #@! TO.P,U5,9*
G04 #@! TO.N,Net-(R13-Pad1)*
X122940000Y-70850000D03*
G04 #@! TO.P,U5,10*
G04 #@! TO.N,Net-(R14-Pad1)*
X120400000Y-70850000D03*
G04 #@! TD*
D31*
G04 #@! TO.N,+5V*
X164780000Y-87990000D03*
X171020000Y-86790000D03*
X157610000Y-106510000D03*
X161700000Y-102750000D03*
X127860000Y-85350000D03*
X135490000Y-87990000D03*
X135490000Y-106830000D03*
X135880000Y-111890000D03*
X164649260Y-105849622D03*
G04 #@! TO.N,GND*
X184520000Y-85450000D03*
X136140000Y-96980000D03*
X200180000Y-94910000D03*
X157900000Y-81650000D03*
X158270000Y-73040000D03*
X184600000Y-77980000D03*
X142460000Y-104750000D03*
X152330000Y-101040000D03*
X170230000Y-90790000D03*
X142420000Y-92190000D03*
X167030010Y-108478469D03*
G04 #@! TO.N,+3V3*
X186680000Y-83400000D03*
G04 #@! TO.N,/RESET*
X156920000Y-93690000D03*
X149760000Y-88910000D03*
G04 #@! TO.N,/SWDIO*
X187390000Y-91000000D03*
G04 #@! TO.N,/SWCLK*
X196394999Y-92744999D03*
G04 #@! TO.N,/LED1*
X123810000Y-89410000D03*
X133210000Y-83900000D03*
G04 #@! TO.N,/LED2*
X148430000Y-113850000D03*
X139150000Y-104730000D03*
G04 #@! TO.N,/LED3*
X166080000Y-104230000D03*
X167010000Y-118040000D03*
G04 #@! TD*
D32*
G04 #@! TO.N,+5V*
X160415000Y-88290000D02*
X160025000Y-87900000D01*
X162675000Y-88290000D02*
X160415000Y-88290000D01*
X201255000Y-96865000D02*
X201370000Y-96980000D01*
X181110000Y-84000000D02*
X180435000Y-83325000D01*
X182635000Y-84000000D02*
X181110000Y-84000000D01*
X184585000Y-81925000D02*
X184580000Y-81920000D01*
X184660000Y-81925000D02*
X184585000Y-81925000D01*
X184580000Y-81920000D02*
X184240000Y-81920000D01*
X184240000Y-81920000D02*
X183290000Y-82870000D01*
X183290000Y-83345000D02*
X182635000Y-84000000D01*
X183290000Y-82870000D02*
X183290000Y-83345000D01*
X162675000Y-88290000D02*
X164480000Y-88290000D01*
X164480000Y-88290000D02*
X164780000Y-87990000D01*
X131650000Y-91960000D02*
X133000000Y-91960000D01*
X131412500Y-92197500D02*
X131650000Y-91960000D01*
X131412500Y-97625000D02*
X131412500Y-92197500D01*
X131412500Y-90237498D02*
X131412500Y-92197500D01*
X132229998Y-89420000D02*
X131412500Y-90237498D01*
X133000000Y-89420000D02*
X132229998Y-89420000D01*
X135345000Y-89420000D02*
X135650000Y-89725000D01*
X133000000Y-89420000D02*
X135345000Y-89420000D01*
X136775000Y-110700000D02*
X134775000Y-110700000D01*
X172875000Y-108410000D02*
X171025000Y-108410000D01*
X161840000Y-104510000D02*
X161720000Y-104390000D01*
X161840000Y-106250000D02*
X161840000Y-104510000D01*
X182960000Y-86550000D02*
X182635000Y-86225000D01*
X182635000Y-86225000D02*
X182635000Y-84000000D01*
X182720000Y-86790000D02*
X182960000Y-86550000D01*
X171020000Y-86790000D02*
X182720000Y-86790000D01*
X196540000Y-96865000D02*
X196540000Y-99140000D01*
X194725000Y-96865000D02*
X196540000Y-96865000D01*
X196540000Y-96865000D02*
X201255000Y-96865000D01*
X196540000Y-99140000D02*
X194040000Y-101640000D01*
X194040000Y-101640000D02*
X190430000Y-101640000D01*
X190430000Y-101640000D02*
X186410000Y-105660000D01*
X171025000Y-107822500D02*
X171070000Y-107777500D01*
X171025000Y-108410000D02*
X171025000Y-107822500D01*
X186410000Y-105660000D02*
X171070000Y-105660000D01*
X171070000Y-107777500D02*
X171070000Y-105660000D01*
X136775000Y-111287500D02*
X137327500Y-111840000D01*
X136775000Y-110700000D02*
X136775000Y-111287500D01*
X137327500Y-111840000D02*
X142190000Y-111840000D01*
X142190000Y-111840000D02*
X146640000Y-107390000D01*
X146640000Y-107390000D02*
X147520000Y-106510000D01*
X147520000Y-106510000D02*
X157610000Y-106510000D01*
X161700000Y-104370000D02*
X161720000Y-104390000D01*
X161700000Y-102750000D02*
X161700000Y-104370000D01*
X127600000Y-86880000D02*
X127600000Y-85610000D01*
X127600000Y-85610000D02*
X127860000Y-85350000D01*
X135490000Y-89565000D02*
X135650000Y-89725000D01*
X135490000Y-87990000D02*
X135490000Y-89565000D01*
X131412500Y-97625000D02*
X131412500Y-102802500D01*
X131412500Y-102802500D02*
X135440000Y-106830000D01*
X135440000Y-106830000D02*
X135490000Y-106830000D01*
X136495685Y-111840000D02*
X137327500Y-111840000D01*
X136445685Y-111890000D02*
X136495685Y-111840000D01*
X135880000Y-111890000D02*
X136445685Y-111890000D01*
X186020000Y-86550000D02*
X182960000Y-86550000D01*
X187939989Y-84630011D02*
X186020000Y-86550000D01*
X201926237Y-96423763D02*
X203256237Y-96423763D01*
X201370000Y-96980000D02*
X201926237Y-96423763D01*
X203180011Y-84630011D02*
X187939989Y-84630011D01*
X203256237Y-96423763D02*
X205330000Y-94350000D01*
X205330000Y-94350000D02*
X205330000Y-86780000D01*
X205330000Y-86780000D02*
X203180011Y-84630011D01*
X170880378Y-105849622D02*
X165214945Y-105849622D01*
X165214945Y-105849622D02*
X164649260Y-105849622D01*
X171070000Y-105660000D02*
X170880378Y-105849622D01*
D33*
G04 #@! TO.N,GND*
X144323377Y-87117282D02*
X144643379Y-87117282D01*
X142623377Y-88817282D02*
X144323377Y-87117282D01*
X142443379Y-88817282D02*
X142623377Y-88817282D01*
D32*
X160240000Y-89560000D02*
X160025000Y-89775000D01*
X162675000Y-89560000D02*
X160240000Y-89560000D01*
X162675000Y-89560000D02*
X165590000Y-89560000D01*
X165590000Y-89720000D02*
X166700000Y-90830000D01*
X166700000Y-90830000D02*
X168075000Y-90830000D01*
X165590000Y-89560000D02*
X165590000Y-89720000D01*
X166125000Y-89185000D02*
X166125000Y-85050000D01*
X165590000Y-89720000D02*
X166125000Y-89185000D01*
X179785000Y-78075000D02*
X180435000Y-78725000D01*
X179245000Y-78150000D02*
X179170000Y-78075000D01*
X182985000Y-78150000D02*
X179245000Y-78150000D01*
X171760000Y-78075000D02*
X179170000Y-78075000D01*
X179170000Y-78075000D02*
X179785000Y-78075000D01*
X184510000Y-84000000D02*
X184510000Y-85440000D01*
X184510000Y-85440000D02*
X184520000Y-85450000D01*
X142333379Y-88927282D02*
X142443379Y-88817282D01*
X140353379Y-88927282D02*
X142333379Y-88927282D01*
X142443379Y-90737282D02*
X142403379Y-90777282D01*
X142443379Y-88817282D02*
X142443379Y-90737282D01*
X134002500Y-96910000D02*
X133287500Y-97625000D01*
X135490000Y-96910000D02*
X134002500Y-96910000D01*
X133000000Y-95770000D02*
X134350000Y-95770000D01*
X134350000Y-95770000D02*
X135490000Y-96910000D01*
X135490000Y-96910000D02*
X136070000Y-96910000D01*
X136070000Y-96910000D02*
X136140000Y-96980000D01*
D33*
X155920000Y-84425000D02*
X157470000Y-82875000D01*
X154175000Y-84425000D02*
X155920000Y-84425000D01*
D32*
X201370000Y-95105000D02*
X200375000Y-95105000D01*
X200375000Y-95105000D02*
X200180000Y-94910000D01*
X155420000Y-80180000D02*
X155420000Y-80825000D01*
X157470000Y-82080000D02*
X157900000Y-81650000D01*
X156675000Y-82080000D02*
X156070000Y-81475000D01*
X157470000Y-82080000D02*
X156675000Y-82080000D01*
X155420000Y-80825000D02*
X156070000Y-81475000D01*
X156070000Y-81475000D02*
X157470000Y-82875000D01*
X157170000Y-72930000D02*
X158160000Y-72930000D01*
X158160000Y-72930000D02*
X158270000Y-73040000D01*
X182985000Y-78150000D02*
X184430000Y-78150000D01*
X184430000Y-78150000D02*
X184600000Y-77980000D01*
X142400000Y-106300000D02*
X142400000Y-104810000D01*
X142400000Y-104810000D02*
X142460000Y-104750000D01*
X153340000Y-101520000D02*
X152810000Y-101520000D01*
X152810000Y-101520000D02*
X152330000Y-101040000D01*
X168075000Y-90830000D02*
X170190000Y-90830000D01*
X170190000Y-90830000D02*
X170230000Y-90790000D01*
X142403379Y-90777282D02*
X142403379Y-92173379D01*
X142403379Y-92173379D02*
X142420000Y-92190000D01*
X164750000Y-108610000D02*
X166898479Y-108610000D01*
X166898479Y-108610000D02*
X167030010Y-108478469D01*
G04 #@! TO.N,+3V3*
X168075000Y-85125000D02*
X168000000Y-85050000D01*
X168075000Y-87020000D02*
X168075000Y-85125000D01*
X178835000Y-81025000D02*
X174135000Y-81025000D01*
X180435000Y-81025000D02*
X178835000Y-81025000D01*
X173060000Y-79950000D02*
X174135000Y-81025000D01*
X171760000Y-79950000D02*
X173060000Y-79950000D01*
X181985000Y-81025000D02*
X182985000Y-80025000D01*
X180435000Y-81025000D02*
X181985000Y-81025000D01*
X182485000Y-81025000D02*
X181985000Y-81025000D01*
X182560000Y-81100000D02*
X182485000Y-81025000D01*
X182560000Y-81925000D02*
X182560000Y-81100000D01*
X170700000Y-79950000D02*
X171760000Y-79950000D01*
X168000000Y-82650000D02*
X170700000Y-79950000D01*
D33*
X157145000Y-85075000D02*
X157470000Y-84750000D01*
X154175000Y-85075000D02*
X157145000Y-85075000D01*
X149790000Y-82020000D02*
X150030000Y-81780000D01*
X148275000Y-85075000D02*
X149300000Y-85075000D01*
X150030000Y-81780000D02*
X150030000Y-80150000D01*
X149790000Y-84585000D02*
X149790000Y-82020000D01*
X149300000Y-85075000D02*
X149790000Y-84585000D01*
D32*
X158270000Y-84750000D02*
X159330000Y-83690000D01*
X157470000Y-84750000D02*
X158270000Y-84750000D01*
X159330000Y-83690000D02*
X159330000Y-79330000D01*
X159330000Y-79330000D02*
X158730000Y-78730000D01*
X158730000Y-78730000D02*
X150670000Y-78730000D01*
X150670000Y-78730000D02*
X150120000Y-79280000D01*
X150030000Y-79350000D02*
X150030000Y-80150000D01*
X150100000Y-79280000D02*
X150030000Y-79350000D01*
X150120000Y-79280000D02*
X150100000Y-79280000D01*
X167910000Y-83690000D02*
X168000000Y-83600000D01*
X159330000Y-83690000D02*
X167910000Y-83690000D01*
X168000000Y-85050000D02*
X168000000Y-83600000D01*
X168000000Y-83600000D02*
X168000000Y-82650000D01*
X185585000Y-80025000D02*
X182985000Y-80025000D01*
X186680000Y-81120000D02*
X185585000Y-80025000D01*
X131800000Y-118200000D02*
X149050000Y-118200000D01*
X149050000Y-118200000D02*
X150850000Y-120000000D01*
X150850000Y-120000000D02*
X158675000Y-120000000D01*
X158675000Y-120000000D02*
X160030000Y-120000000D01*
X160000000Y-119970000D02*
X160030000Y-120000000D01*
X160000000Y-119475000D02*
X160000000Y-119970000D01*
X160030000Y-120000000D02*
X190800000Y-120000000D01*
X190800000Y-120000000D02*
X197490000Y-113310000D01*
X197490000Y-113310000D02*
X197490000Y-102740000D01*
X197490000Y-102740000D02*
X200950000Y-99280000D01*
X200950000Y-99280000D02*
X202460000Y-99280000D01*
X202460000Y-99280000D02*
X206660000Y-95080000D01*
X206660000Y-95080000D02*
X206660000Y-86240000D01*
X206660000Y-86240000D02*
X204140000Y-83720000D01*
X204140000Y-83720000D02*
X189050000Y-83720000D01*
X187630000Y-82300000D02*
X186680000Y-82300000D01*
X189050000Y-83720000D02*
X187630000Y-82300000D01*
X186680000Y-83400000D02*
X186680000Y-82300000D01*
X186680000Y-82300000D02*
X186680000Y-81120000D01*
G04 #@! TO.N,/RESET*
X185249999Y-102510001D02*
X185519999Y-102510001D01*
X184400000Y-103360000D02*
X185249999Y-102510001D01*
X189780000Y-98250000D02*
X191885000Y-98250000D01*
X185519999Y-102510001D02*
X189780000Y-98250000D01*
D33*
X151905000Y-81645000D02*
X151905000Y-80150000D01*
X150370000Y-83180000D02*
X151905000Y-81645000D01*
X150370000Y-85140000D02*
X150370000Y-83180000D01*
X148275000Y-85725000D02*
X149785000Y-85725000D01*
D32*
X153515000Y-80150000D02*
X153545000Y-80180000D01*
X151905000Y-80150000D02*
X153515000Y-80150000D01*
X183197919Y-103360000D02*
X174877919Y-95040000D01*
X184400000Y-103360000D02*
X183197919Y-103360000D01*
X174877919Y-95040000D02*
X158850000Y-95040000D01*
X158850000Y-95040000D02*
X157500000Y-93690000D01*
X157500000Y-93690000D02*
X156920000Y-93690000D01*
D33*
X149785000Y-85725000D02*
X150120000Y-85390000D01*
X150120000Y-85390000D02*
X150370000Y-85140000D01*
X149760000Y-85750000D02*
X149760000Y-88910000D01*
X149785000Y-85725000D02*
X149760000Y-85750000D01*
D32*
G04 #@! TO.N,Net-(D2-Pad2)*
X126840000Y-118200000D02*
X129925000Y-118200000D01*
G04 #@! TO.N,Net-(D3-Pad2)*
X158300000Y-117600000D02*
X157700000Y-118200000D01*
X160000000Y-117600000D02*
X158300000Y-117600000D01*
G04 #@! TO.N,Net-(D4-Pad2)*
X188415000Y-118125000D02*
X188340000Y-118200000D01*
X190800000Y-118125000D02*
X188415000Y-118125000D01*
G04 #@! TO.N,/CAN_L*
X201170000Y-89940000D02*
X201610000Y-89500000D01*
X191885000Y-89940000D02*
X201170000Y-89940000D01*
X190235000Y-88290000D02*
X191885000Y-89940000D01*
X168075000Y-88290000D02*
X190235000Y-88290000D01*
D33*
G04 #@! TO.N,/SWDIO*
X154175000Y-87025000D02*
X156945000Y-87025000D01*
X157570000Y-87650000D02*
X157570000Y-90720000D01*
X156945000Y-87025000D02*
X157570000Y-87650000D01*
D32*
X159410000Y-92560000D02*
X157570000Y-90720000D01*
X178167903Y-92560000D02*
X159410000Y-92560000D01*
X180077903Y-90650000D02*
X178167903Y-92560000D01*
X187390000Y-91000000D02*
X186790000Y-90650000D01*
X186790000Y-90650000D02*
X180077903Y-90650000D01*
G04 #@! TO.N,/CAN_H*
X195170000Y-91770000D02*
X194725000Y-91325000D01*
X201880000Y-91770000D02*
X195170000Y-91770000D01*
X194725000Y-91325000D02*
X191025000Y-91325000D01*
X189260000Y-89560000D02*
X168075000Y-89560000D01*
X191025000Y-91325000D02*
X189260000Y-89560000D01*
D33*
G04 #@! TO.N,/SWCLK*
X154175000Y-87675000D02*
X156365000Y-87675000D01*
X156365000Y-87675000D02*
X156600000Y-87910000D01*
X156600000Y-87910000D02*
X156600000Y-90550000D01*
D32*
X182090000Y-95740000D02*
X184400000Y-95740000D01*
X180160000Y-93810000D02*
X182090000Y-95740000D01*
X159280000Y-93810000D02*
X180160000Y-93810000D01*
X156600000Y-90550000D02*
X156600000Y-91130000D01*
X156600000Y-91130000D02*
X159280000Y-93810000D01*
X185602081Y-95740000D02*
X187272081Y-94070000D01*
X184400000Y-95740000D02*
X185602081Y-95740000D01*
X187272081Y-94070000D02*
X192450000Y-94070000D01*
X193775001Y-92744999D02*
X196394999Y-92744999D01*
X192450000Y-94070000D02*
X193775001Y-92744999D01*
G04 #@! TO.N,Net-(JP1-Pad2)*
X203485000Y-91615000D02*
X203430010Y-91669990D01*
X203485000Y-89500000D02*
X203485000Y-91615000D01*
G04 #@! TO.N,Net-(Q2-Pad1)*
X136750000Y-108800000D02*
X136775000Y-108825000D01*
X134775000Y-108800000D02*
X136750000Y-108800000D01*
X138950000Y-108825000D02*
X139050000Y-108725000D01*
X136775000Y-108825000D02*
X138950000Y-108825000D01*
G04 #@! TO.N,Net-(Q2-Pad3)*
X131075000Y-111450000D02*
X132775000Y-109750000D01*
X130560000Y-111450000D02*
X131075000Y-111450000D01*
G04 #@! TO.N,Net-(Q3-Pad3)*
X160890000Y-110890000D02*
X161460001Y-111460001D01*
X160890000Y-108250000D02*
X160890000Y-110890000D01*
G04 #@! TO.N,Net-(Q3-Pad1)*
X159805000Y-104430000D02*
X159845000Y-104390000D01*
X158070000Y-104430000D02*
X159805000Y-104430000D01*
X159845000Y-106155000D02*
X159940000Y-106250000D01*
X159845000Y-104390000D02*
X159845000Y-106155000D01*
G04 #@! TO.N,Net-(Q4-Pad1)*
X171050000Y-110310000D02*
X171025000Y-110285000D01*
X172875000Y-110310000D02*
X171050000Y-110310000D01*
X171025000Y-110285000D02*
X168925000Y-110285000D01*
G04 #@! TO.N,Net-(Q4-Pad3)*
X192360000Y-112874214D02*
X191564214Y-113670000D01*
X192360000Y-111460001D02*
X192360000Y-112874214D01*
X191564214Y-113670000D02*
X182760000Y-113670000D01*
X182200000Y-113110000D02*
X182200000Y-111460001D01*
X182760000Y-113670000D02*
X182200000Y-113110000D01*
X175925000Y-109360000D02*
X178475000Y-106810000D01*
X174875000Y-109360000D02*
X175925000Y-109360000D01*
X178475000Y-106810000D02*
X189010000Y-106810000D01*
X189010000Y-106810000D02*
X192220000Y-110020000D01*
X192360000Y-110045788D02*
X192360000Y-111460001D01*
X192334212Y-110020000D02*
X192360000Y-110045788D01*
X192220000Y-110020000D02*
X192334212Y-110020000D01*
G04 #@! TO.N,Net-(Q5-Pad3)*
X139050000Y-110600000D02*
X140480000Y-110600000D01*
X141450000Y-109630000D02*
X141450000Y-108300000D01*
X140480000Y-110600000D02*
X141450000Y-109630000D01*
G04 #@! TO.N,Net-(Q5-Pad1)*
X148925000Y-94015000D02*
X148925000Y-92500000D01*
X147790000Y-95150000D02*
X148925000Y-94015000D01*
X140500000Y-106300000D02*
X140500000Y-99240000D01*
X144590000Y-95150000D02*
X147790000Y-95150000D01*
X140500000Y-99240000D02*
X144590000Y-95150000D01*
G04 #@! TO.N,Net-(Q6-Pad1)*
X151100000Y-92537500D02*
X151100000Y-102970000D01*
X151550000Y-103420000D02*
X153340000Y-103420000D01*
X151100000Y-102970000D02*
X151550000Y-103420000D01*
G04 #@! TO.N,Net-(Q6-Pad3)*
X155340000Y-103575000D02*
X156195000Y-104430000D01*
X155340000Y-102470000D02*
X155340000Y-103575000D01*
G04 #@! TO.N,Net-(Q7-Pad1)*
X153500000Y-96890000D02*
X153500000Y-92550000D01*
X163700000Y-110510000D02*
X163370000Y-110180000D01*
X164750000Y-110510000D02*
X163700000Y-110510000D01*
X163370000Y-110180000D02*
X163370000Y-100070000D01*
X163370000Y-100070000D02*
X162130000Y-98830000D01*
X162130000Y-98830000D02*
X155440000Y-98830000D01*
X155440000Y-98830000D02*
X153500000Y-96890000D01*
G04 #@! TO.N,Net-(Q7-Pad3)*
X168925000Y-108410000D02*
X167775000Y-109560000D01*
X167775000Y-109560000D02*
X166750000Y-109560000D01*
G04 #@! TO.N,Net-(R6-Pad1)*
X134350000Y-90690000D02*
X134620000Y-90960000D01*
X133000000Y-90690000D02*
X134350000Y-90690000D01*
X135010000Y-90960000D02*
X135650000Y-91600000D01*
X134620000Y-90960000D02*
X135010000Y-90960000D01*
G04 #@! TO.N,Net-(R8-Pad2)*
X129370000Y-83100000D02*
X128000000Y-81730000D01*
X127600000Y-90690000D02*
X128950000Y-90690000D01*
X128000000Y-81730000D02*
X128000000Y-78850000D01*
X129370000Y-90270000D02*
X129370000Y-83100000D01*
X128950000Y-90690000D02*
X129370000Y-90270000D01*
G04 #@! TO.N,Net-(R8-Pad1)*
X158920001Y-70860001D02*
X160760002Y-69020000D01*
X160760002Y-69020000D02*
X174070000Y-69020000D01*
X174070000Y-69020000D02*
X174070000Y-69070000D01*
X174070000Y-69070000D02*
X178750000Y-73750000D01*
X178750000Y-73750000D02*
X188530000Y-73750000D01*
X189820000Y-72460000D02*
X189820000Y-70860001D01*
X188530000Y-73750000D02*
X189820000Y-72460000D01*
X128020000Y-76955000D02*
X128000000Y-76975000D01*
X128020000Y-70850000D02*
X128020000Y-76955000D01*
X159680000Y-71820000D02*
X158920001Y-71060001D01*
X159680000Y-73580000D02*
X159680000Y-71820000D01*
X158460000Y-74800000D02*
X159680000Y-73580000D01*
X129730000Y-69140000D02*
X133870000Y-69140000D01*
X128020000Y-70850000D02*
X129730000Y-69140000D01*
X133870000Y-69140000D02*
X137990013Y-73260013D01*
X153300000Y-74800000D02*
X158460000Y-74800000D01*
X137990013Y-73260013D02*
X151760013Y-73260013D01*
X158920001Y-71060001D02*
X158920001Y-70860001D01*
X151760013Y-73260013D02*
X153300000Y-74800000D01*
G04 #@! TO.N,Net-(R9-Pad2)*
X127600000Y-91960000D02*
X128950000Y-91960000D01*
X130550000Y-90360000D02*
X130550000Y-78840000D01*
X128950000Y-91960000D02*
X130550000Y-90360000D01*
G04 #@! TO.N,Net-(R9-Pad1)*
X161460000Y-70860002D02*
X161460001Y-70860001D01*
X130560000Y-76955000D02*
X130550000Y-76965000D01*
X130560000Y-70850000D02*
X130560000Y-76955000D01*
X161460001Y-70860001D02*
X161460001Y-73809999D01*
X161460001Y-73809999D02*
X159470000Y-75800000D01*
X159470000Y-75800000D02*
X152630000Y-75800000D01*
X152630000Y-75800000D02*
X151140000Y-74310000D01*
X151140000Y-74310000D02*
X137300000Y-74310000D01*
X133840000Y-70850000D02*
X130560000Y-70850000D01*
X137300000Y-74310000D02*
X133840000Y-70850000D01*
X191360001Y-71860000D02*
X191360001Y-73659999D01*
X192360000Y-70860001D02*
X191360001Y-71860000D01*
X191360001Y-73659999D02*
X190290000Y-74730000D01*
X190290000Y-74730000D02*
X177870000Y-74730000D01*
X176949999Y-73809999D02*
X161460001Y-73809999D01*
X177870000Y-74730000D02*
X176949999Y-73809999D01*
G04 #@! TO.N,Net-(R10-Pad1)*
X155449979Y-107989979D02*
X157920002Y-110460002D01*
X157920002Y-110460002D02*
X158920001Y-111460001D01*
X149295828Y-107989979D02*
X155449979Y-107989979D01*
X144285807Y-113000001D02*
X149295828Y-107989979D01*
X129570001Y-113000001D02*
X144285807Y-113000001D01*
X128020000Y-111450000D02*
X129570001Y-113000001D01*
X128020000Y-107755000D02*
X128075000Y-107700000D01*
X128020000Y-111450000D02*
X128020000Y-107755000D01*
X186259977Y-107899978D02*
X188820001Y-110460002D01*
X158920001Y-111460001D02*
X160840000Y-113380000D01*
X174455807Y-113380000D02*
X179935828Y-107899978D01*
X188820001Y-110460002D02*
X189820000Y-111460001D01*
X179935828Y-107899978D02*
X186259977Y-107899978D01*
X160840000Y-113380000D02*
X174455807Y-113380000D01*
G04 #@! TO.N,Net-(R10-Pad2)*
X128950000Y-93230000D02*
X130100000Y-94380000D01*
X127600000Y-93230000D02*
X128950000Y-93230000D01*
X130100000Y-94380000D02*
X130100000Y-96770000D01*
X128075000Y-98795000D02*
X130100000Y-96770000D01*
X128075000Y-105825000D02*
X128075000Y-98795000D01*
G04 #@! TO.N,Net-(R11-Pad2)*
X128950000Y-94500000D02*
X127600000Y-94500000D01*
X125450000Y-105825000D02*
X125450000Y-99170000D01*
X128200000Y-97240000D02*
X129060000Y-96380000D01*
X125450000Y-99170000D02*
X127380000Y-97240000D01*
X127380000Y-97240000D02*
X128200000Y-97240000D01*
X129060000Y-96380000D02*
X129060000Y-94610000D01*
X129060000Y-94610000D02*
X128950000Y-94500000D01*
G04 #@! TO.N,Net-(R11-Pad1)*
X149647914Y-108839990D02*
X153759990Y-108839990D01*
X128380000Y-114350000D02*
X144137904Y-114350000D01*
X125480000Y-111450000D02*
X128380000Y-114350000D01*
X144137904Y-114350000D02*
X149647914Y-108839990D01*
X153759990Y-108839990D02*
X155380002Y-110460002D01*
X155380002Y-110460002D02*
X156380001Y-111460001D01*
X125480000Y-107730000D02*
X125450000Y-107700000D01*
X125480000Y-111450000D02*
X125480000Y-107730000D01*
X186280001Y-110460002D02*
X187280000Y-111460001D01*
X156380001Y-111460001D02*
X159290000Y-114370000D01*
X159290000Y-114370000D02*
X174667904Y-114370000D01*
X174667904Y-114370000D02*
X180287914Y-108749989D01*
X180287914Y-108749989D02*
X184569988Y-108749989D01*
X184569988Y-108749989D02*
X186280001Y-110460002D01*
G04 #@! TO.N,Net-(R12-Pad1)*
X126900000Y-115410000D02*
X144280000Y-115410000D01*
X122940000Y-111450000D02*
X126900000Y-115410000D01*
X144280000Y-115410000D02*
X149940000Y-109750000D01*
X149940000Y-109750000D02*
X153000000Y-109750000D01*
X153840001Y-110590001D02*
X153840001Y-111460001D01*
X153000000Y-109750000D02*
X153840001Y-110590001D01*
X122940000Y-107735000D02*
X122950000Y-107725000D01*
X122940000Y-111450000D02*
X122940000Y-107735000D01*
X153840001Y-112874214D02*
X156455787Y-115490000D01*
X153840001Y-111460001D02*
X153840001Y-112874214D01*
X156455787Y-115490000D02*
X174750000Y-115490000D01*
X174750000Y-115490000D02*
X180640000Y-109600000D01*
X180640000Y-109600000D02*
X183590000Y-109600000D01*
X184740000Y-110750000D02*
X184740000Y-111460001D01*
X183590000Y-109600000D02*
X184740000Y-110750000D01*
G04 #@! TO.N,Net-(R12-Pad2)*
X122950000Y-105850000D02*
X122950000Y-98480000D01*
X125660000Y-95770000D02*
X127600000Y-95770000D01*
X122950000Y-98480000D02*
X125660000Y-95770000D01*
G04 #@! TO.N,Net-(R13-Pad2)*
X122970000Y-84870000D02*
X122970000Y-78905000D01*
X127600000Y-88150000D02*
X126250000Y-88150000D01*
X126250000Y-88150000D02*
X122970000Y-84870000D01*
G04 #@! TO.N,Net-(R13-Pad1)*
X122940000Y-70850000D02*
X125590000Y-68200000D01*
X125590000Y-68200000D02*
X134540000Y-68200000D01*
X138750002Y-72410002D02*
X153209998Y-72410002D01*
X134540000Y-68200000D02*
X138750002Y-72410002D01*
X153209998Y-72410002D02*
X153560000Y-72060000D01*
X153560000Y-71140002D02*
X153840001Y-70860001D01*
X153560000Y-72060000D02*
X153560000Y-71140002D01*
X153840001Y-70860001D02*
X156720002Y-67980000D01*
X156720002Y-67980000D02*
X174740000Y-67980000D01*
X174740000Y-67980000D02*
X179490000Y-72730000D01*
X182870001Y-72730000D02*
X184740000Y-70860001D01*
X179490000Y-72730000D02*
X182870001Y-72730000D01*
X122940000Y-77000000D02*
X122970000Y-77030000D01*
X122940000Y-70850000D02*
X122940000Y-77000000D01*
G04 #@! TO.N,Net-(R14-Pad1)*
X120400000Y-69520000D02*
X120400000Y-70850000D01*
X122690000Y-67230000D02*
X120400000Y-69520000D01*
X135130000Y-67230000D02*
X122690000Y-67230000D01*
X151300001Y-70860001D02*
X138760001Y-70860001D01*
X138760001Y-70860001D02*
X135130000Y-67230000D01*
X155190002Y-66970000D02*
X175910000Y-66970000D01*
X151300001Y-70860001D02*
X155190002Y-66970000D01*
X179800001Y-70860001D02*
X182200000Y-70860001D01*
X175910000Y-66970000D02*
X179800001Y-70860001D01*
X120400000Y-70850000D02*
X120400000Y-77020000D01*
G04 #@! TO.N,Net-(R14-Pad2)*
X120400000Y-79482500D02*
X120400000Y-78895000D01*
X120400000Y-83570000D02*
X120400000Y-79482500D01*
X126250000Y-89420000D02*
X120400000Y-83570000D01*
X127600000Y-89420000D02*
X126250000Y-89420000D01*
G04 #@! TO.N,Net-(R15-Pad1)*
X155295000Y-71945002D02*
X156380001Y-70860001D01*
X155295000Y-72930000D02*
X155295000Y-71945002D01*
D33*
G04 #@! TO.N,/SEG1*
X154175000Y-81825000D02*
X152771499Y-81825000D01*
X150011237Y-90068763D02*
X149481237Y-90068763D01*
X149481237Y-90068763D02*
X148925000Y-90625000D01*
X151049968Y-89030032D02*
X150011237Y-90068763D01*
X152771499Y-81825000D02*
X151049968Y-83546531D01*
X151049968Y-83546531D02*
X151049968Y-89030032D01*
G04 #@! TO.N,/SEG2*
X151639978Y-83734354D02*
X151639978Y-89535022D01*
X151639978Y-89535022D02*
X151100000Y-90075000D01*
X154175000Y-82475000D02*
X152899332Y-82475000D01*
X151100000Y-90075000D02*
X151100000Y-90662500D01*
X152899332Y-82475000D02*
X151639978Y-83734354D01*
G04 #@! TO.N,/SEG3*
X153500000Y-90675000D02*
X152189989Y-89364989D01*
X153150000Y-83125000D02*
X154175000Y-83125000D01*
X153027165Y-83125000D02*
X153150000Y-83125000D01*
X152189989Y-89364989D02*
X152189989Y-83962176D01*
X152189989Y-83962176D02*
X153027165Y-83125000D01*
G04 #@! TO.N,/CAN_TX*
X154175000Y-86375000D02*
X157505000Y-86375000D01*
X157505000Y-86375000D02*
X158300000Y-87170000D01*
X158300000Y-87170000D02*
X158300000Y-90380000D01*
X158750000Y-90830000D02*
X162675000Y-90830000D01*
X158300000Y-90380000D02*
X158750000Y-90830000D01*
G04 #@! TO.N,/CAN_RX*
X161600000Y-87020000D02*
X162675000Y-87020000D01*
X160305000Y-85725000D02*
X161600000Y-87020000D01*
X154175000Y-85725000D02*
X160305000Y-85725000D01*
G04 #@! TO.N,/A*
X133000000Y-94500000D02*
X135800000Y-94500000D01*
X137300021Y-92999979D02*
X137300021Y-86579979D01*
X135800000Y-94500000D02*
X137300021Y-92999979D01*
X139455000Y-84425000D02*
X148275000Y-84425000D01*
X137300021Y-86579979D02*
X139455000Y-84425000D01*
G04 #@! TO.N,/D*
X138995000Y-83775000D02*
X147250000Y-83775000D01*
X147250000Y-83775000D02*
X148275000Y-83775000D01*
X136750010Y-86019990D02*
X138995000Y-83775000D01*
X136750010Y-92479990D02*
X136750010Y-86019990D01*
X136000000Y-93230000D02*
X136750010Y-92479990D01*
X133000000Y-93230000D02*
X136000000Y-93230000D01*
G04 #@! TO.N,/C*
X148275000Y-83125000D02*
X138485000Y-83125000D01*
X138485000Y-83125000D02*
X134540000Y-87070000D01*
X133450000Y-88150000D02*
X133000000Y-88150000D01*
X134530000Y-87070000D02*
X133450000Y-88150000D01*
X134540000Y-87070000D02*
X134530000Y-87070000D01*
G04 #@! TO.N,/B*
X137855000Y-82475000D02*
X133450000Y-86880000D01*
X133450000Y-86880000D02*
X133000000Y-86880000D01*
X148275000Y-82475000D02*
X137855000Y-82475000D01*
G04 #@! TO.N,Net-(C10-Pad1)*
X148275000Y-87025000D02*
X146915000Y-87025000D01*
X146915000Y-87025000D02*
X145800000Y-88140000D01*
X145643379Y-88817282D02*
X144643379Y-88817282D01*
X145800000Y-88660661D02*
X145643379Y-88817282D01*
X145800000Y-88140000D02*
X145800000Y-88660661D01*
D32*
X144643379Y-90412282D02*
X144278379Y-90777282D01*
X144643379Y-88817282D02*
X144643379Y-90412282D01*
D33*
G04 #@! TO.N,Net-(C11-Pad1)*
X142443379Y-86217282D02*
X142443379Y-87117282D01*
X142910661Y-85750000D02*
X142443379Y-86217282D01*
X146625000Y-85750000D02*
X142910661Y-85750000D01*
X147250000Y-86375000D02*
X146625000Y-85750000D01*
X148275000Y-86375000D02*
X147250000Y-86375000D01*
D32*
X142378379Y-87052282D02*
X142443379Y-87117282D01*
X140353379Y-87052282D02*
X142378379Y-87052282D01*
G04 #@! TO.N,/LED1*
X118849999Y-114249999D02*
X118849999Y-99870001D01*
X124300000Y-118200000D02*
X122800000Y-118200000D01*
X122800000Y-118200000D02*
X118849999Y-114249999D01*
X118849999Y-99870001D02*
X123890000Y-94830000D01*
X123890000Y-94830000D02*
X123890000Y-89490000D01*
X123890000Y-89490000D02*
X123810000Y-89410000D01*
D33*
X135285000Y-81825000D02*
X133210000Y-83900000D01*
X148275000Y-81825000D02*
X135285000Y-81825000D01*
D32*
G04 #@! TO.N,/LED2*
X155160000Y-118200000D02*
X152780000Y-118200000D01*
X152780000Y-118200000D02*
X148430000Y-113850000D01*
D33*
X147250000Y-87675000D02*
X146860000Y-88065000D01*
X148275000Y-87675000D02*
X147250000Y-87675000D01*
X146860000Y-88065000D02*
X146860000Y-91730000D01*
X139150000Y-99440000D02*
X139150000Y-104730000D01*
X146860000Y-91730000D02*
X139150000Y-99440000D01*
G04 #@! TO.N,/LED3*
X153129999Y-83799999D02*
X152740000Y-84189998D01*
X154150001Y-83799999D02*
X153129999Y-83799999D01*
X154175000Y-83775000D02*
X154150001Y-83799999D01*
X152740000Y-84189998D02*
X152740000Y-88290000D01*
X152740000Y-88290000D02*
X153880000Y-89430000D01*
X153880000Y-89430000D02*
X154820000Y-89430000D01*
X154820000Y-89430000D02*
X155660000Y-90270000D01*
X155660000Y-90270000D02*
X155660000Y-96440000D01*
X155660000Y-96440000D02*
X157000000Y-97780000D01*
X157000000Y-97780000D02*
X163300000Y-97780000D01*
X163300000Y-97780000D02*
X166080000Y-100560000D01*
X166080000Y-100560000D02*
X166080000Y-104230000D01*
D32*
X185640000Y-118040000D02*
X185800000Y-118200000D01*
X167010000Y-118040000D02*
X185640000Y-118040000D01*
G04 #@! TD*
M02*
