M48
METRIC,TZ
T1C0.400
T2C0.900
T3C1.000
T4C1.200
T5C1.300
T6C1.500
T7C1.700
T8C3.200
T9C3.200
%
G90
G05
T1
X85400Y-81200
X89000Y-156300
X92500Y-73100
X97700Y-78500
X101000Y-75800
X101100Y-83500
X101100Y-84900
X102000Y-74500
X103900Y-82400
X104950Y-109000
X105100Y-77700
X105500Y-75700
X106300Y-78100
X108700Y-74000
X131150Y-98850
X139450Y-150350
X140900Y-149400
X141450Y-136850
X142550Y-93500
X145600Y-95500
X146950Y-97850
X151950Y-99950
X153250Y-144100
X157631Y-130350
X158050Y-101900
X158200Y-123250
X158850Y-145300
X159150Y-107350
X159300Y-84500
X162200Y-91550
X162651Y-126940
X163170Y-115066
X163750Y-103900
X166050Y-108000
X166050Y-154750
X167450Y-109000
X167650Y-107450
X167650Y-148400
X167950Y-94200
X168050Y-141900
X169250Y-145255
X169480Y-113970
X170705Y-91962
X170900Y-143700
X171400Y-96900
X172750Y-142150
X174466Y-115561
X174500Y-120300
X174600Y-122250
X174700Y-96450
X175050Y-100850
X175150Y-121250
X176050Y-115250
X176150Y-154850
X176200Y-118700
X176400Y-142050
X177100Y-117900
X177600Y-119450
X179100Y-139700
X180600Y-106700
X181150Y-125650
X183050Y-96800
X183300Y-88000
X184400Y-102800
X184550Y-113610
X184750Y-87400
X185041Y-108660
X186200Y-113150
X186286Y-103900
X187141Y-105610
X187200Y-99350
X187950Y-103300
X188750Y-136550
X188941Y-106460
X189200Y-115150
X189250Y-102750
X190100Y-106000
X190700Y-115100
X191200Y-106100
X191900Y-119400
X193200Y-142450
X193691Y-108360
X194291Y-105660
X194550Y-143800
X194600Y-115100
X195441Y-108900
X196250Y-123550
X196541Y-102560
X197491Y-110560
X198941Y-100710
X199091Y-98210
X201200Y-117450
X201700Y-125300
X207791Y-95260
X209050Y-149100
X211150Y-138550
X212250Y-73250
T2
X146000Y-154900
X148500Y-154900
X150500Y-154900
X153000Y-154900
T3
X144709Y-136890
X146094Y-139730
X147479Y-136890
X148864Y-139730
X150249Y-136890
X151634Y-139730
X153019Y-136890
X154404Y-139730
X155789Y-136890
X93950Y-126990
X93950Y-129530
X93950Y-132070
X93950Y-134610
X93950Y-137150
X211401Y-82410
X211401Y-84950
X211401Y-87490
X211401Y-90030
X211401Y-92570
X211401Y-95110
X211401Y-97650
X211401Y-100190
X211401Y-102730
X211401Y-105270
X211401Y-107810
X211401Y-110350
X211401Y-112890
X211401Y-115430
X211401Y-117970
X211401Y-120510
X211401Y-123050
X211401Y-125590
X211401Y-128130
X211401Y-130670
X213941Y-82410
X213941Y-84950
X213941Y-87490
X213941Y-90030
X213941Y-92570
X213941Y-95110
X213941Y-97650
X213941Y-100190
X213941Y-102730
X213941Y-105270
X213941Y-107810
X213941Y-110350
X213941Y-112890
X213941Y-115430
X213941Y-117970
X213941Y-120510
X213941Y-123050
X213941Y-125590
X213941Y-128130
X213941Y-130670
X90650Y-109900
X90650Y-117500
T4
X164100Y-82500
X166640Y-82500
X169180Y-82500
X171720Y-82500
T6
X118850Y-89500
X142960Y-121000
X163450Y-121000
T7
X116310Y-86960
X116310Y-92040
X121390Y-86960
X121390Y-92040
T8
X137749Y-138310
X162749Y-138310
T9
X85691Y-145560
X85691Y-67560
X213191Y-145560
X213191Y-67560
T5
X142930Y-154800G85X142930Y-153800
G05
X149000Y-150120G85X150000Y-150120
G05
X156070Y-153800G85X156070Y-154800
G05
T0
M30
